G04 #@! TF.FileFunction,Soldermask,Top*
%FSLAX46Y46*%
G04 Gerber Fmt 4.6, Leading zero omitted, Abs format (unit mm)*
G04 Created by KiCad (PCBNEW 4.0.7) date 11/09/17 22:03:39*
%MOMM*%
%LPD*%
G01*
G04 APERTURE LIST*
%ADD10C,0.100000*%
%ADD11R,2.700000X4.000000*%
%ADD12R,2.100000X2.100000*%
%ADD13O,2.100000X2.100000*%
%ADD14R,1.650000X1.900000*%
%ADD15R,1.900000X1.650000*%
%ADD16R,2.700000X2.900000*%
%ADD17R,2.900000X3.700000*%
%ADD18R,1.650000X1.620000*%
%ADD19C,9.290000*%
%ADD20R,0.800000X1.750000*%
%ADD21R,2.500000X2.000000*%
%ADD22R,2.300000X2.300000*%
%ADD23C,3.400000*%
%ADD24R,1.900000X2.600000*%
%ADD25C,2.178000*%
%ADD26C,2.550000*%
%ADD27R,2.300000X1.200000*%
%ADD28R,1.900000X1.700000*%
%ADD29R,2.100000X2.400000*%
%ADD30R,1.700000X1.900000*%
%ADD31R,2.400000X2.100000*%
%ADD32R,2.350000X1.000000*%
%ADD33R,2.100000X1.050000*%
%ADD34R,2.000000X2.000000*%
%ADD35O,2.000000X2.000000*%
%ADD36R,0.819100X1.289000*%
%ADD37R,3.244800X2.051000*%
%ADD38R,1.960000X1.050000*%
%ADD39R,1.450000X0.850000*%
%ADD40R,3.140000X5.350000*%
%ADD41C,5.480000*%
%ADD42C,2.432000*%
%ADD43R,1.300000X2.650000*%
%ADD44R,1.300000X3.200000*%
%ADD45C,6.750000*%
G04 APERTURE END LIST*
D10*
D11*
X206646960Y-52679720D03*
X197446960Y-52679720D03*
D12*
X211952960Y-43408720D03*
D13*
X214492960Y-43408720D03*
X211952960Y-45948720D03*
X214492960Y-45948720D03*
X211952960Y-48488720D03*
X214492960Y-48488720D03*
X211952960Y-51028720D03*
X214492960Y-51028720D03*
X211952960Y-53568720D03*
X214492960Y-53568720D03*
X211952960Y-56108720D03*
X214492960Y-56108720D03*
X211952960Y-58648720D03*
X214492960Y-58648720D03*
X211952960Y-61188720D03*
X214492960Y-61188720D03*
X211952960Y-63728720D03*
X214492960Y-63728720D03*
X211952960Y-66268720D03*
X214492960Y-66268720D03*
X211952960Y-68808720D03*
X214492960Y-68808720D03*
X211952960Y-71348720D03*
X214492960Y-71348720D03*
X211952960Y-73888720D03*
X214492960Y-73888720D03*
X211952960Y-76428720D03*
X214492960Y-76428720D03*
X211952960Y-78968720D03*
X214492960Y-78968720D03*
X211952960Y-81508720D03*
X214492960Y-81508720D03*
X211952960Y-84048720D03*
X214492960Y-84048720D03*
X211952960Y-86588720D03*
X214492960Y-86588720D03*
X211952960Y-89128720D03*
X214492960Y-89128720D03*
X211952960Y-91668720D03*
X214492960Y-91668720D03*
X211952960Y-94208720D03*
X214492960Y-94208720D03*
X211952960Y-96748720D03*
X214492960Y-96748720D03*
X211952960Y-99288720D03*
X214492960Y-99288720D03*
X211952960Y-101828720D03*
X214492960Y-101828720D03*
X211952960Y-104368720D03*
X214492960Y-104368720D03*
X211952960Y-106908720D03*
X214492960Y-106908720D03*
D12*
X217032960Y-43408720D03*
D13*
X219572960Y-43408720D03*
X217032960Y-45948720D03*
X219572960Y-45948720D03*
X217032960Y-48488720D03*
X219572960Y-48488720D03*
X217032960Y-51028720D03*
X219572960Y-51028720D03*
X217032960Y-53568720D03*
X219572960Y-53568720D03*
X217032960Y-56108720D03*
X219572960Y-56108720D03*
X217032960Y-58648720D03*
X219572960Y-58648720D03*
X217032960Y-61188720D03*
X219572960Y-61188720D03*
X217032960Y-63728720D03*
X219572960Y-63728720D03*
X217032960Y-66268720D03*
X219572960Y-66268720D03*
X217032960Y-68808720D03*
X219572960Y-68808720D03*
X217032960Y-71348720D03*
X219572960Y-71348720D03*
X217032960Y-73888720D03*
X219572960Y-73888720D03*
X217032960Y-76428720D03*
X219572960Y-76428720D03*
X217032960Y-78968720D03*
X219572960Y-78968720D03*
X217032960Y-81508720D03*
X219572960Y-81508720D03*
X217032960Y-84048720D03*
X219572960Y-84048720D03*
X217032960Y-86588720D03*
X219572960Y-86588720D03*
X217032960Y-89128720D03*
X219572960Y-89128720D03*
X217032960Y-91668720D03*
X219572960Y-91668720D03*
X217032960Y-94208720D03*
X219572960Y-94208720D03*
X217032960Y-96748720D03*
X219572960Y-96748720D03*
X217032960Y-99288720D03*
X219572960Y-99288720D03*
X217032960Y-101828720D03*
X219572960Y-101828720D03*
X217032960Y-104368720D03*
X219572960Y-104368720D03*
X217032960Y-106908720D03*
X219572960Y-106908720D03*
D14*
X157342960Y-51048720D03*
X157342960Y-53548720D03*
X190362960Y-61208720D03*
X190362960Y-63708720D03*
X188457960Y-105023720D03*
X188457960Y-107523720D03*
X187822960Y-97403720D03*
X187822960Y-99903720D03*
D15*
X143392960Y-114528720D03*
X145892960Y-114528720D03*
X199546960Y-60299720D03*
X202046960Y-60299720D03*
D14*
X195061960Y-64764720D03*
X195061960Y-67264720D03*
X197421628Y-99636766D03*
X197421628Y-102136766D03*
X193156960Y-88981720D03*
X193156960Y-86481720D03*
D15*
X195971960Y-79526721D03*
X193471960Y-79526721D03*
X195971960Y-81518760D03*
X193471960Y-81518760D03*
X201050960Y-75920720D03*
X203550960Y-75920720D03*
D14*
X201284960Y-73868720D03*
X201284960Y-71368720D03*
X199252960Y-71368720D03*
X199252960Y-73868720D03*
D16*
X193611628Y-99551720D03*
X193611628Y-103851720D03*
D17*
X195286960Y-94081720D03*
X188486960Y-94081720D03*
D18*
X193231240Y-83921720D03*
X196181240Y-83921720D03*
D12*
X172328960Y-35534720D03*
D13*
X172328960Y-32994720D03*
X174868960Y-35534720D03*
X174868960Y-32994720D03*
X177408960Y-35534720D03*
X177408960Y-32994720D03*
X179948960Y-35534720D03*
X179948960Y-32994720D03*
X182488960Y-35534720D03*
X182488960Y-32994720D03*
D12*
X186298960Y-38074720D03*
D13*
X186298960Y-35534720D03*
X186298960Y-32994720D03*
D12*
X139562960Y-108178720D03*
D13*
X137022960Y-108178720D03*
X139562960Y-105638720D03*
X137022960Y-105638720D03*
X139562960Y-103098720D03*
X137022960Y-103098720D03*
X139562960Y-100558720D03*
X137022960Y-100558720D03*
X139562960Y-98018720D03*
X137022960Y-98018720D03*
X139562960Y-95478720D03*
X137022960Y-95478720D03*
X139562960Y-92938720D03*
X137022960Y-92938720D03*
X139562960Y-90398720D03*
X137022960Y-90398720D03*
X139562960Y-87858720D03*
X137022960Y-87858720D03*
X139562960Y-85318720D03*
X137022960Y-85318720D03*
X139562960Y-82778720D03*
X137022960Y-82778720D03*
X139562960Y-80238720D03*
X137022960Y-80238720D03*
X139562960Y-77698720D03*
X137022960Y-77698720D03*
X139562960Y-75158720D03*
X137022960Y-75158720D03*
X139562960Y-72618720D03*
X137022960Y-72618720D03*
X139562960Y-70078720D03*
X137022960Y-70078720D03*
X139562960Y-67538720D03*
X137022960Y-67538720D03*
X139562960Y-64998720D03*
X137022960Y-64998720D03*
X139562960Y-62458720D03*
X137022960Y-62458720D03*
X139562960Y-59918720D03*
X137022960Y-59918720D03*
D12*
X159882960Y-118338720D03*
D13*
X157342960Y-118338720D03*
X154802960Y-118338720D03*
X152262960Y-118338720D03*
X149722960Y-118338720D03*
X147182960Y-118338720D03*
D12*
X172582960Y-108178720D03*
D13*
X170042960Y-108178720D03*
X172582960Y-105638720D03*
X170042960Y-105638720D03*
X172582960Y-103098720D03*
X170042960Y-103098720D03*
X172582960Y-100558720D03*
X170042960Y-100558720D03*
X172582960Y-98018720D03*
X170042960Y-98018720D03*
X172582960Y-95478720D03*
X170042960Y-95478720D03*
X172582960Y-92938720D03*
X170042960Y-92938720D03*
X172582960Y-90398720D03*
X170042960Y-90398720D03*
X172582960Y-87858720D03*
X170042960Y-87858720D03*
X172582960Y-85318720D03*
X170042960Y-85318720D03*
X172582960Y-82778720D03*
X170042960Y-82778720D03*
X172582960Y-80238720D03*
X170042960Y-80238720D03*
X172582960Y-77698720D03*
X170042960Y-77698720D03*
X172582960Y-75158720D03*
X170042960Y-75158720D03*
X172582960Y-72618720D03*
X170042960Y-72618720D03*
X172582960Y-70078720D03*
X170042960Y-70078720D03*
X172582960Y-67538720D03*
X170042960Y-67538720D03*
X172582960Y-64998720D03*
X170042960Y-64998720D03*
X172582960Y-62458720D03*
X170042960Y-62458720D03*
X172582960Y-59918720D03*
X170042960Y-59918720D03*
D19*
X199252960Y-115798720D03*
X210682960Y-115798720D03*
X201792960Y-32613720D03*
X211952960Y-32613720D03*
D20*
X193582960Y-31978720D03*
X192932960Y-31978720D03*
X192282960Y-31978720D03*
X191632960Y-31978720D03*
X190982960Y-31978720D03*
D21*
X195382960Y-33453720D03*
D22*
X196132960Y-29303720D03*
X193482960Y-29303720D03*
X191082960Y-29303720D03*
X188432960Y-29303720D03*
D21*
X189182960Y-33453720D03*
D23*
X191886960Y-76428720D03*
D12*
X145912960Y-111988720D03*
D13*
X143372960Y-111988720D03*
D23*
X154040960Y-50520720D03*
D24*
X202256960Y-87731720D03*
X196756960Y-87731720D03*
D25*
X163692960Y-108178720D03*
X166232960Y-108178720D03*
X163692960Y-105638720D03*
X166232960Y-105638720D03*
X163692960Y-103098720D03*
X166232960Y-103098720D03*
X163692960Y-100558720D03*
X166232960Y-100558720D03*
X163692960Y-98018720D03*
X166232960Y-98018720D03*
X163692960Y-95478720D03*
X166232960Y-95478720D03*
X163692960Y-92938720D03*
X166232960Y-92938720D03*
X163692960Y-90398720D03*
X166232960Y-90398720D03*
X163692960Y-87858720D03*
X166232960Y-87858720D03*
X163692960Y-85318720D03*
X166232960Y-85318720D03*
X163692960Y-82778720D03*
X166232960Y-82778720D03*
X163692960Y-80238720D03*
X166232960Y-80238720D03*
X163692960Y-77698720D03*
X166232960Y-77698720D03*
X163692960Y-75158720D03*
X166232960Y-75158720D03*
X163692960Y-72618720D03*
X166232960Y-72618720D03*
X163692960Y-70078720D03*
X166232960Y-70078720D03*
X163692960Y-67538720D03*
X166232960Y-67538720D03*
X163692960Y-64998720D03*
X166232960Y-64998720D03*
X163692960Y-62458720D03*
X166232960Y-62458720D03*
X163692960Y-59918720D03*
X166232960Y-59918720D03*
X143912960Y-103868720D03*
X143912960Y-101328720D03*
X143912960Y-98788720D03*
X143912960Y-96248720D03*
X143912960Y-93708720D03*
X143912960Y-91168720D03*
D26*
X144312960Y-108748720D03*
X144312960Y-59348720D03*
D27*
X174130960Y-45252720D03*
X174130960Y-47152720D03*
X177130960Y-46202720D03*
D28*
X181298960Y-49250720D03*
X178598960Y-49250720D03*
X173772960Y-49250720D03*
X176472960Y-49250720D03*
X178344960Y-41376720D03*
X181044960Y-41376720D03*
X176218960Y-41376720D03*
X173518960Y-41376720D03*
X186218960Y-74650720D03*
X188918960Y-74650720D03*
X186218960Y-72618720D03*
X188918960Y-72618720D03*
X198156960Y-69189720D03*
X200856960Y-69189720D03*
D29*
X194426960Y-62394720D03*
X194426960Y-58394720D03*
D28*
X194346960Y-73634720D03*
X197046960Y-73634720D03*
X199078960Y-75920720D03*
X196378960Y-75920720D03*
D30*
X199961628Y-99536766D03*
X199961628Y-102236766D03*
X202501628Y-102236766D03*
X202501628Y-99536766D03*
X205041628Y-99536766D03*
X205041628Y-102236766D03*
X204461960Y-94001720D03*
X204461960Y-96701720D03*
X207126960Y-94001720D03*
X207126960Y-96701720D03*
X207126960Y-88676721D03*
X207126960Y-91376721D03*
X204461960Y-88676721D03*
X204461960Y-91376721D03*
D31*
X198776960Y-83276680D03*
X202776960Y-83276680D03*
D30*
X203316960Y-71268720D03*
X203316960Y-73968720D03*
D28*
X194346960Y-71729720D03*
X197046960Y-71729720D03*
D32*
X160262960Y-44043720D03*
X160262960Y-45313720D03*
X160262960Y-46583720D03*
X160262960Y-47853720D03*
X160262960Y-49123720D03*
X160262960Y-50393720D03*
X160262960Y-51663720D03*
X160262960Y-52933720D03*
X160262960Y-54203720D03*
X160262960Y-55473720D03*
X169662960Y-55473720D03*
X169662960Y-54203720D03*
X169662960Y-52933720D03*
X169662960Y-51663720D03*
X169662960Y-50393720D03*
X169662960Y-49123720D03*
X169662960Y-47853720D03*
X169662960Y-46583720D03*
X169662960Y-45313720D03*
X169662960Y-44043720D03*
D33*
X178330960Y-104749720D03*
X178330960Y-106019720D03*
X178330960Y-107289720D03*
X178330960Y-108559720D03*
X185630960Y-108559720D03*
X185630960Y-107289720D03*
X185630960Y-106019720D03*
X185630960Y-104749720D03*
X178330960Y-97383720D03*
X178330960Y-98653720D03*
X178330960Y-99923720D03*
X178330960Y-101193720D03*
X185630960Y-101193720D03*
X185630960Y-99923720D03*
X185630960Y-98653720D03*
X185630960Y-97383720D03*
D34*
X180456960Y-61188720D03*
D35*
X188076960Y-68808720D03*
X180456960Y-63728720D03*
X188076960Y-66268720D03*
X180456960Y-66268720D03*
X188076960Y-63728720D03*
X180456960Y-68808720D03*
X188076960Y-61188720D03*
D36*
X197881360Y-96202620D03*
X198531600Y-96202620D03*
X199181840Y-96202620D03*
X199832080Y-96202620D03*
X200482320Y-96202620D03*
X201132560Y-96202620D03*
X201132560Y-91960820D03*
X200482320Y-91960820D03*
X199832080Y-91960820D03*
X199181840Y-91960820D03*
X198531600Y-91960820D03*
X197881360Y-91960820D03*
D37*
X199506960Y-94081720D03*
D38*
X140752960Y-116118720D03*
X140752960Y-117068720D03*
X140752960Y-118018720D03*
X143452960Y-118018720D03*
X143452960Y-116118720D03*
X143452960Y-117068720D03*
D39*
X197976960Y-61819720D03*
X197976960Y-62469720D03*
X197976960Y-63119720D03*
X197976960Y-63769720D03*
X197976960Y-64419720D03*
X197976960Y-65069720D03*
X197976960Y-65719720D03*
X197976960Y-66369720D03*
X197976960Y-67019720D03*
X197976960Y-67669720D03*
X203576960Y-67669720D03*
X203576960Y-67019720D03*
X203576960Y-66369720D03*
X203576960Y-65719720D03*
X203576960Y-65069720D03*
X203576960Y-64419720D03*
X203576960Y-63769720D03*
X203576960Y-63119720D03*
X203576960Y-62469720D03*
X203576960Y-61819720D03*
D40*
X200776960Y-64744720D03*
D41*
X134467960Y-46083720D03*
D42*
X138912960Y-46083720D03*
D43*
X144622960Y-43408720D03*
X143372960Y-43408720D03*
X142072960Y-43408720D03*
X140822960Y-43408720D03*
X140822960Y-48758720D03*
X142072960Y-48758720D03*
D44*
X143372960Y-48483720D03*
D43*
X144622960Y-48758720D03*
D42*
X146532960Y-46083720D03*
D41*
X150977960Y-46083720D03*
D45*
X133847960Y-34518720D03*
X219572960Y-38328720D03*
X133847960Y-114528720D03*
X219572960Y-111988720D03*
M02*
