G04 #@! TF.FileFunction,Profile,NP*
%FSLAX46Y46*%
G04 Gerber Fmt 4.6, Leading zero omitted, Abs format (unit mm)*
G04 Created by KiCad (PCBNEW 4.0.7) date 11/09/17 22:03:39*
%MOMM*%
%LPD*%
G01*
G04 APERTURE LIST*
%ADD10C,0.100000*%
G04 APERTURE END LIST*
D10*
X223636960Y-116433720D02*
G75*
G02X218556960Y-121513720I-5080000J0D01*
G01*
X166486960Y-119227720D02*
G75*
G02X168010960Y-117703720I1524000J0D01*
G01*
X185282960Y-117703720D02*
G75*
G02X186806960Y-119227720I0J-1524000D01*
G01*
X166486960Y-119989720D02*
G75*
G02X164962960Y-121513720I-1524000J0D01*
G01*
X218556960Y-27533720D02*
G75*
G02X223636960Y-32613720I0J-5080000D01*
G01*
X188330960Y-121513720D02*
G75*
G02X186806960Y-119989720I0J1524000D01*
G01*
X186806960Y-29057720D02*
G75*
G02X188330960Y-27533720I1524000J0D01*
G01*
X186806960Y-29819720D02*
G75*
G02X185282960Y-31343720I-1524000J0D01*
G01*
X134736960Y-121513720D02*
G75*
G02X129656960Y-116433720I0J5080000D01*
G01*
X129656960Y-32613720D02*
X129656960Y-62839720D01*
X129656960Y-86207720D02*
X129656960Y-116433720D01*
X168010960Y-31343720D02*
G75*
G02X166486960Y-29819720I0J1524000D01*
G01*
X164962960Y-27533720D02*
G75*
G02X166486960Y-29057720I0J-1524000D01*
G01*
X129656960Y-32613720D02*
G75*
G02X134736960Y-27533720I5080000J0D01*
G01*
X131180960Y-64363720D02*
G75*
G02X129656960Y-62839720I0J1524000D01*
G01*
X133466960Y-83159720D02*
G75*
G02X131942960Y-84683720I-1524000J0D01*
G01*
X129656960Y-86207720D02*
G75*
G02X131180960Y-84683720I1524000J0D01*
G01*
X134736960Y-121513720D02*
X164962960Y-121513720D01*
X166486960Y-119989720D02*
X166486960Y-119227720D01*
X168010960Y-117703720D02*
X185282960Y-117703720D01*
X188330960Y-121513720D02*
X218556960Y-121513720D01*
X223636960Y-116433720D02*
X223636960Y-32613720D01*
X218556960Y-27533720D02*
X188330960Y-27533720D01*
X185282960Y-31343720D02*
X168010960Y-31343720D01*
X164962960Y-27533720D02*
X134736960Y-27533720D01*
X131180960Y-64363720D02*
X131942960Y-64363720D01*
X131942960Y-84683720D02*
X131180960Y-84683720D01*
X166486960Y-29819720D02*
X166486960Y-29057720D01*
X133466960Y-65887720D02*
X133466960Y-83159720D01*
X131942960Y-64363720D02*
G75*
G02X133466960Y-65887720I0J-1524000D01*
G01*
X186806960Y-119227720D02*
X186806960Y-119989720D01*
X186806960Y-29057720D02*
X186806960Y-29819720D01*
M02*
