G04 #@! TF.FileFunction,Legend,Bot*
%FSLAX46Y46*%
G04 Gerber Fmt 4.6, Leading zero omitted, Abs format (unit mm)*
G04 Created by KiCad (PCBNEW 4.0.7) date 11/09/17 22:03:39*
%MOMM*%
%LPD*%
G01*
G04 APERTURE LIST*
%ADD10C,0.100000*%
%ADD11C,0.120000*%
%ADD12C,0.150000*%
G04 APERTURE END LIST*
D10*
D11*
X185878960Y-46845720D02*
X185878960Y-47845720D01*
X184178960Y-47845720D02*
X184178960Y-46845720D01*
X181718960Y-53910720D02*
X180718960Y-53910720D01*
X180718960Y-52210720D02*
X181718960Y-52210720D01*
X175622960Y-53910720D02*
X174622960Y-53910720D01*
X174622960Y-52210720D02*
X175622960Y-52210720D01*
X182242960Y-37224720D02*
X183242960Y-37224720D01*
X183242960Y-38924720D02*
X182242960Y-38924720D01*
X192914960Y-86168720D02*
X191914960Y-86168720D01*
X191914960Y-84468720D02*
X192914960Y-84468720D01*
X190608960Y-52894720D02*
X189608960Y-52894720D01*
X189608960Y-51194720D02*
X190608960Y-51194720D01*
X203736960Y-72376720D02*
X203736960Y-71376720D01*
X205436960Y-71376720D02*
X205436960Y-72376720D01*
X202466960Y-59402720D02*
X202466960Y-58402720D01*
X204166960Y-58402720D02*
X204166960Y-59402720D01*
X137442960Y-51548720D02*
X137442960Y-50548720D01*
X139142960Y-50548720D02*
X139142960Y-51548720D01*
X199706960Y-80508720D02*
X199706960Y-82508720D01*
X201846960Y-82508720D02*
X201846960Y-80508720D01*
D12*
X182583960Y-40265720D02*
X182583960Y-41265720D01*
X172233960Y-40265720D02*
X172233960Y-41340720D01*
X172233960Y-50615720D02*
X172233960Y-49540720D01*
X182583960Y-50615720D02*
X182583960Y-49540720D01*
X182583960Y-40265720D02*
X181508960Y-40265720D01*
X182583960Y-50615720D02*
X181508960Y-50615720D01*
X172233960Y-50615720D02*
X173308960Y-50615720D01*
X172233960Y-40265720D02*
X173308960Y-40265720D01*
X182583960Y-41265720D02*
X183608960Y-41265720D01*
X186509960Y-58175720D02*
X186509960Y-58125720D01*
X190659960Y-58175720D02*
X190659960Y-58030720D01*
X190659960Y-53025720D02*
X190659960Y-53170720D01*
X186509960Y-53025720D02*
X186509960Y-53170720D01*
X186509960Y-58175720D02*
X190659960Y-58175720D01*
X186509960Y-53025720D02*
X190659960Y-53025720D01*
X186509960Y-58125720D02*
X185109960Y-58125720D01*
X198525960Y-88155720D02*
X198475960Y-88155720D01*
X198525960Y-84005720D02*
X198380960Y-84005720D01*
X193375960Y-84005720D02*
X193520960Y-84005720D01*
X193375960Y-88155720D02*
X193520960Y-88155720D01*
X198525960Y-88155720D02*
X198525960Y-84005720D01*
X193375960Y-88155720D02*
X193375960Y-84005720D01*
X198475960Y-88155720D02*
X198475960Y-89555720D01*
X209193960Y-80027720D02*
X209143960Y-80027720D01*
X209193960Y-75877720D02*
X209048960Y-75877720D01*
X204043960Y-75877720D02*
X204188960Y-75877720D01*
X204043960Y-80027720D02*
X204188960Y-80027720D01*
X209193960Y-80027720D02*
X209193960Y-75877720D01*
X204043960Y-80027720D02*
X204043960Y-75877720D01*
X209143960Y-80027720D02*
X209143960Y-81427720D01*
X196931960Y-55557720D02*
X196981960Y-55557720D01*
X196931960Y-59707720D02*
X197076960Y-59707720D01*
X202081960Y-59707720D02*
X201936960Y-59707720D01*
X202081960Y-55557720D02*
X201936960Y-55557720D01*
X196931960Y-55557720D02*
X196931960Y-59707720D01*
X202081960Y-55557720D02*
X202081960Y-59707720D01*
X196981960Y-55557720D02*
X196981960Y-54157720D01*
D11*
X168938960Y-40860720D02*
X168938960Y-39860720D01*
X170638960Y-39860720D02*
X170638960Y-40860720D01*
D12*
X185132103Y-50354054D02*
X185179722Y-50306435D01*
X185227341Y-50163578D01*
X185227341Y-50068340D01*
X185179722Y-49925482D01*
X185084484Y-49830244D01*
X184989246Y-49782625D01*
X184798770Y-49735006D01*
X184655912Y-49735006D01*
X184465436Y-49782625D01*
X184370198Y-49830244D01*
X184274960Y-49925482D01*
X184227341Y-50068340D01*
X184227341Y-50163578D01*
X184274960Y-50306435D01*
X184322579Y-50354054D01*
X185227341Y-51306435D02*
X185227341Y-50735006D01*
X185227341Y-51020720D02*
X184227341Y-51020720D01*
X184370198Y-50925482D01*
X184465436Y-50830244D01*
X184513055Y-50735006D01*
X182655626Y-51893863D02*
X182703245Y-51941482D01*
X182846102Y-51989101D01*
X182941340Y-51989101D01*
X183084198Y-51941482D01*
X183179436Y-51846244D01*
X183227055Y-51751006D01*
X183274674Y-51560530D01*
X183274674Y-51417672D01*
X183227055Y-51227196D01*
X183179436Y-51131958D01*
X183084198Y-51036720D01*
X182941340Y-50989101D01*
X182846102Y-50989101D01*
X182703245Y-51036720D01*
X182655626Y-51084339D01*
X182274674Y-51084339D02*
X182227055Y-51036720D01*
X182131817Y-50989101D01*
X181893721Y-50989101D01*
X181798483Y-51036720D01*
X181750864Y-51084339D01*
X181703245Y-51179577D01*
X181703245Y-51274815D01*
X181750864Y-51417672D01*
X182322293Y-51989101D01*
X181703245Y-51989101D01*
X178083626Y-53163863D02*
X178131245Y-53211482D01*
X178274102Y-53259101D01*
X178369340Y-53259101D01*
X178512198Y-53211482D01*
X178607436Y-53116244D01*
X178655055Y-53021006D01*
X178702674Y-52830530D01*
X178702674Y-52687672D01*
X178655055Y-52497196D01*
X178607436Y-52401958D01*
X178512198Y-52306720D01*
X178369340Y-52259101D01*
X178274102Y-52259101D01*
X178131245Y-52306720D01*
X178083626Y-52354339D01*
X177750293Y-52259101D02*
X177131245Y-52259101D01*
X177464579Y-52640053D01*
X177321721Y-52640053D01*
X177226483Y-52687672D01*
X177178864Y-52735291D01*
X177131245Y-52830530D01*
X177131245Y-53068625D01*
X177178864Y-53163863D01*
X177226483Y-53211482D01*
X177321721Y-53259101D01*
X177607436Y-53259101D01*
X177702674Y-53211482D01*
X177750293Y-53163863D01*
X183925626Y-39955863D02*
X183973245Y-40003482D01*
X184116102Y-40051101D01*
X184211340Y-40051101D01*
X184354198Y-40003482D01*
X184449436Y-39908244D01*
X184497055Y-39813006D01*
X184544674Y-39622530D01*
X184544674Y-39479672D01*
X184497055Y-39289196D01*
X184449436Y-39193958D01*
X184354198Y-39098720D01*
X184211340Y-39051101D01*
X184116102Y-39051101D01*
X183973245Y-39098720D01*
X183925626Y-39146339D01*
X183068483Y-39384434D02*
X183068483Y-40051101D01*
X183306579Y-39003482D02*
X183544674Y-39717768D01*
X182925626Y-39717768D01*
X193057817Y-87425863D02*
X193105436Y-87473482D01*
X193248293Y-87521101D01*
X193343531Y-87521101D01*
X193486389Y-87473482D01*
X193581627Y-87378244D01*
X193629246Y-87283006D01*
X193676865Y-87092530D01*
X193676865Y-86949672D01*
X193629246Y-86759196D01*
X193581627Y-86663958D01*
X193486389Y-86568720D01*
X193343531Y-86521101D01*
X193248293Y-86521101D01*
X193105436Y-86568720D01*
X193057817Y-86616339D01*
X192105436Y-87521101D02*
X192676865Y-87521101D01*
X192391151Y-87521101D02*
X192391151Y-86521101D01*
X192486389Y-86663958D01*
X192581627Y-86759196D01*
X192676865Y-86806815D01*
X191248293Y-86854434D02*
X191248293Y-87521101D01*
X191486389Y-86473482D02*
X191724484Y-87187768D01*
X191105436Y-87187768D01*
X190751817Y-50877863D02*
X190799436Y-50925482D01*
X190942293Y-50973101D01*
X191037531Y-50973101D01*
X191180389Y-50925482D01*
X191275627Y-50830244D01*
X191323246Y-50735006D01*
X191370865Y-50544530D01*
X191370865Y-50401672D01*
X191323246Y-50211196D01*
X191275627Y-50115958D01*
X191180389Y-50020720D01*
X191037531Y-49973101D01*
X190942293Y-49973101D01*
X190799436Y-50020720D01*
X190751817Y-50068339D01*
X189799436Y-50973101D02*
X190370865Y-50973101D01*
X190085151Y-50973101D02*
X190085151Y-49973101D01*
X190180389Y-50115958D01*
X190275627Y-50211196D01*
X190370865Y-50258815D01*
X188894674Y-49973101D02*
X189370865Y-49973101D01*
X189418484Y-50449291D01*
X189370865Y-50401672D01*
X189275627Y-50354053D01*
X189037531Y-50354053D01*
X188942293Y-50401672D01*
X188894674Y-50449291D01*
X188847055Y-50544530D01*
X188847055Y-50782625D01*
X188894674Y-50877863D01*
X188942293Y-50925482D01*
X189037531Y-50973101D01*
X189275627Y-50973101D01*
X189370865Y-50925482D01*
X189418484Y-50877863D01*
X203194103Y-71233863D02*
X203241722Y-71186244D01*
X203289341Y-71043387D01*
X203289341Y-70948149D01*
X203241722Y-70805291D01*
X203146484Y-70710053D01*
X203051246Y-70662434D01*
X202860770Y-70614815D01*
X202717912Y-70614815D01*
X202527436Y-70662434D01*
X202432198Y-70710053D01*
X202336960Y-70805291D01*
X202289341Y-70948149D01*
X202289341Y-71043387D01*
X202336960Y-71186244D01*
X202384579Y-71233863D01*
X202384579Y-71614815D02*
X202336960Y-71662434D01*
X202289341Y-71757672D01*
X202289341Y-71995768D01*
X202336960Y-72091006D01*
X202384579Y-72138625D01*
X202479817Y-72186244D01*
X202575055Y-72186244D01*
X202717912Y-72138625D01*
X203289341Y-71567196D01*
X203289341Y-72186244D01*
X202289341Y-72805291D02*
X202289341Y-72900530D01*
X202336960Y-72995768D01*
X202384579Y-73043387D01*
X202479817Y-73091006D01*
X202670293Y-73138625D01*
X202908389Y-73138625D01*
X203098865Y-73091006D01*
X203194103Y-73043387D01*
X203241722Y-72995768D01*
X203289341Y-72900530D01*
X203289341Y-72805291D01*
X203241722Y-72710053D01*
X203194103Y-72662434D01*
X203098865Y-72614815D01*
X202908389Y-72567196D01*
X202670293Y-72567196D01*
X202479817Y-72614815D01*
X202384579Y-72662434D01*
X202336960Y-72710053D01*
X202289341Y-72805291D01*
X205452103Y-58259863D02*
X205499722Y-58212244D01*
X205547341Y-58069387D01*
X205547341Y-57974149D01*
X205499722Y-57831291D01*
X205404484Y-57736053D01*
X205309246Y-57688434D01*
X205118770Y-57640815D01*
X204975912Y-57640815D01*
X204785436Y-57688434D01*
X204690198Y-57736053D01*
X204594960Y-57831291D01*
X204547341Y-57974149D01*
X204547341Y-58069387D01*
X204594960Y-58212244D01*
X204642579Y-58259863D01*
X204642579Y-58640815D02*
X204594960Y-58688434D01*
X204547341Y-58783672D01*
X204547341Y-59021768D01*
X204594960Y-59117006D01*
X204642579Y-59164625D01*
X204737817Y-59212244D01*
X204833055Y-59212244D01*
X204975912Y-59164625D01*
X205547341Y-58593196D01*
X205547341Y-59212244D01*
X205547341Y-60164625D02*
X205547341Y-59593196D01*
X205547341Y-59878910D02*
X204547341Y-59878910D01*
X204690198Y-59783672D01*
X204785436Y-59688434D01*
X204833055Y-59593196D01*
X136900103Y-50405863D02*
X136947722Y-50358244D01*
X136995341Y-50215387D01*
X136995341Y-50120149D01*
X136947722Y-49977291D01*
X136852484Y-49882053D01*
X136757246Y-49834434D01*
X136566770Y-49786815D01*
X136423912Y-49786815D01*
X136233436Y-49834434D01*
X136138198Y-49882053D01*
X136042960Y-49977291D01*
X135995341Y-50120149D01*
X135995341Y-50215387D01*
X136042960Y-50358244D01*
X136090579Y-50405863D01*
X135995341Y-50739196D02*
X135995341Y-51358244D01*
X136376293Y-51024910D01*
X136376293Y-51167768D01*
X136423912Y-51263006D01*
X136471531Y-51310625D01*
X136566770Y-51358244D01*
X136804865Y-51358244D01*
X136900103Y-51310625D01*
X136947722Y-51263006D01*
X136995341Y-51167768D01*
X136995341Y-50882053D01*
X136947722Y-50786815D01*
X136900103Y-50739196D01*
X136090579Y-51739196D02*
X136042960Y-51786815D01*
X135995341Y-51882053D01*
X135995341Y-52120149D01*
X136042960Y-52215387D01*
X136090579Y-52263006D01*
X136185817Y-52310625D01*
X136281055Y-52310625D01*
X136423912Y-52263006D01*
X136995341Y-51691577D01*
X136995341Y-52310625D01*
X203079341Y-81342054D02*
X202603150Y-81008720D01*
X203079341Y-80770625D02*
X202079341Y-80770625D01*
X202079341Y-81151578D01*
X202126960Y-81246816D01*
X202174579Y-81294435D01*
X202269817Y-81342054D01*
X202412674Y-81342054D01*
X202507912Y-81294435D01*
X202555531Y-81246816D01*
X202603150Y-81151578D01*
X202603150Y-80770625D01*
X203079341Y-81818244D02*
X203079341Y-82008720D01*
X203031722Y-82103959D01*
X202984103Y-82151578D01*
X202841246Y-82246816D01*
X202650770Y-82294435D01*
X202269817Y-82294435D01*
X202174579Y-82246816D01*
X202126960Y-82199197D01*
X202079341Y-82103959D01*
X202079341Y-81913482D01*
X202126960Y-81818244D01*
X202174579Y-81770625D01*
X202269817Y-81723006D01*
X202507912Y-81723006D01*
X202603150Y-81770625D01*
X202650770Y-81818244D01*
X202698389Y-81913482D01*
X202698389Y-82103959D01*
X202650770Y-82199197D01*
X202603150Y-82246816D01*
X202507912Y-82294435D01*
X178170865Y-44893101D02*
X178170865Y-45702625D01*
X178123246Y-45797863D01*
X178075627Y-45845482D01*
X177980389Y-45893101D01*
X177789912Y-45893101D01*
X177694674Y-45845482D01*
X177647055Y-45797863D01*
X177599436Y-45702625D01*
X177599436Y-44893101D01*
X176599436Y-45893101D02*
X177170865Y-45893101D01*
X176885151Y-45893101D02*
X176885151Y-44893101D01*
X176980389Y-45035958D01*
X177075627Y-45131196D01*
X177170865Y-45178815D01*
X189346865Y-58553101D02*
X189346865Y-59362625D01*
X189299246Y-59457863D01*
X189251627Y-59505482D01*
X189156389Y-59553101D01*
X188965912Y-59553101D01*
X188870674Y-59505482D01*
X188823055Y-59457863D01*
X188775436Y-59362625D01*
X188775436Y-58553101D01*
X187870674Y-58886434D02*
X187870674Y-59553101D01*
X188108770Y-58505482D02*
X188346865Y-59219768D01*
X187727817Y-59219768D01*
X198903341Y-85318815D02*
X199712865Y-85318815D01*
X199808103Y-85366434D01*
X199855722Y-85414053D01*
X199903341Y-85509291D01*
X199903341Y-85699768D01*
X199855722Y-85795006D01*
X199808103Y-85842625D01*
X199712865Y-85890244D01*
X198903341Y-85890244D01*
X199903341Y-86414053D02*
X199903341Y-86604529D01*
X199855722Y-86699768D01*
X199808103Y-86747387D01*
X199665246Y-86842625D01*
X199474770Y-86890244D01*
X199093817Y-86890244D01*
X198998579Y-86842625D01*
X198950960Y-86795006D01*
X198903341Y-86699768D01*
X198903341Y-86509291D01*
X198950960Y-86414053D01*
X198998579Y-86366434D01*
X199093817Y-86318815D01*
X199331912Y-86318815D01*
X199427150Y-86366434D01*
X199474770Y-86414053D01*
X199522389Y-86509291D01*
X199522389Y-86699768D01*
X199474770Y-86795006D01*
X199427150Y-86842625D01*
X199331912Y-86890244D01*
X209571341Y-76714625D02*
X210380865Y-76714625D01*
X210476103Y-76762244D01*
X210523722Y-76809863D01*
X210571341Y-76905101D01*
X210571341Y-77095578D01*
X210523722Y-77190816D01*
X210476103Y-77238435D01*
X210380865Y-77286054D01*
X209571341Y-77286054D01*
X210571341Y-78286054D02*
X210571341Y-77714625D01*
X210571341Y-78000339D02*
X209571341Y-78000339D01*
X209714198Y-77905101D01*
X209809436Y-77809863D01*
X209857055Y-77714625D01*
X209571341Y-78905101D02*
X209571341Y-79000340D01*
X209618960Y-79095578D01*
X209666579Y-79143197D01*
X209761817Y-79190816D01*
X209952293Y-79238435D01*
X210190389Y-79238435D01*
X210380865Y-79190816D01*
X210476103Y-79143197D01*
X210523722Y-79095578D01*
X210571341Y-79000340D01*
X210571341Y-78905101D01*
X210523722Y-78809863D01*
X210476103Y-78762244D01*
X210380865Y-78714625D01*
X210190389Y-78667006D01*
X209952293Y-78667006D01*
X209761817Y-78714625D01*
X209666579Y-78762244D01*
X209618960Y-78809863D01*
X209571341Y-78905101D01*
X195459341Y-56394625D02*
X196268865Y-56394625D01*
X196364103Y-56442244D01*
X196411722Y-56489863D01*
X196459341Y-56585101D01*
X196459341Y-56775578D01*
X196411722Y-56870816D01*
X196364103Y-56918435D01*
X196268865Y-56966054D01*
X195459341Y-56966054D01*
X196459341Y-57966054D02*
X196459341Y-57394625D01*
X196459341Y-57680339D02*
X195459341Y-57680339D01*
X195602198Y-57585101D01*
X195697436Y-57489863D01*
X195745055Y-57394625D01*
X196459341Y-58918435D02*
X196459341Y-58347006D01*
X196459341Y-58632720D02*
X195459341Y-58632720D01*
X195602198Y-58537482D01*
X195697436Y-58442244D01*
X195745055Y-58347006D01*
X168396103Y-39717863D02*
X168443722Y-39670244D01*
X168491341Y-39527387D01*
X168491341Y-39432149D01*
X168443722Y-39289291D01*
X168348484Y-39194053D01*
X168253246Y-39146434D01*
X168062770Y-39098815D01*
X167919912Y-39098815D01*
X167729436Y-39146434D01*
X167634198Y-39194053D01*
X167538960Y-39289291D01*
X167491341Y-39432149D01*
X167491341Y-39527387D01*
X167538960Y-39670244D01*
X167586579Y-39717863D01*
X167491341Y-40051196D02*
X167491341Y-40670244D01*
X167872293Y-40336910D01*
X167872293Y-40479768D01*
X167919912Y-40575006D01*
X167967531Y-40622625D01*
X168062770Y-40670244D01*
X168300865Y-40670244D01*
X168396103Y-40622625D01*
X168443722Y-40575006D01*
X168491341Y-40479768D01*
X168491341Y-40194053D01*
X168443722Y-40098815D01*
X168396103Y-40051196D01*
X167491341Y-41003577D02*
X167491341Y-41622625D01*
X167872293Y-41289291D01*
X167872293Y-41432149D01*
X167919912Y-41527387D01*
X167967531Y-41575006D01*
X168062770Y-41622625D01*
X168300865Y-41622625D01*
X168396103Y-41575006D01*
X168443722Y-41527387D01*
X168491341Y-41432149D01*
X168491341Y-41146434D01*
X168443722Y-41051196D01*
X168396103Y-41003577D01*
M02*
