M48
;DRILL file {KiCad 4.0.7} date 11/09/17 22:05:11
;FORMAT={-:-/ absolute / inch / decimal}
FMAT,2
INCH,TZ
T1C0.012
T2C0.015
T3C0.016
T4C0.031
T5C0.038
T6C0.039
T7C0.040
T8C0.219
%
G90
G05
M72
T1
X6.3646Y-2.329
X6.6846Y-1.499
X6.6846Y-1.609
X6.8146Y-1.9366
X6.8146Y-2.089
X6.8746Y-1.659
X6.9046Y-1.869
X6.9346Y-3.579
X6.9346Y-3.719
X6.9346Y-3.989
X6.9446Y-1.679
X6.9446Y-1.909
X6.9846Y-2.089
X7.0146Y-1.599
X7.0146Y-1.759
X7.0246Y-3.999
X7.0246Y-4.289
X7.0346Y-1.909
X7.1196Y-2.084
X7.1381Y-2.279
X7.1546Y-1.759
X7.1546Y-1.909
X7.1646Y-1.609
X7.1746Y-1.649
X7.1746Y-1.499
X7.1846Y-2.059
X7.2346Y-2.709
X7.2446Y-1.469
X7.2546Y-1.759
X7.2646Y-4.279
X7.2746Y-2.609
X7.2746Y-3.889
X7.2746Y-3.939
X7.2746Y-4.179
X7.2746Y-4.229
X7.2846Y-1.779
X7.2846Y-1.949
X7.3146Y-4.009
X7.3946Y-1.7201
X7.4246Y-1.7398
X7.4946Y-1.259
X7.7446Y-2.569
X7.7546Y-2.6642
X7.8296Y-2.5874
X7.8406Y-2.613
X7.8481Y-2.449
X7.8481Y-2.649
X7.8796Y-3.729
X7.9046Y-2.4366
X7.9046Y-2.549
X7.9046Y-3.754
X7.9186Y-3.768
X7.9246Y-2.9082
X7.9546Y-2.6425
X7.9611Y-2.449
X8.0796Y-2.624
X8.0816Y-2.5965
T2
X5.4946Y-1.909
X5.4946Y-2.059
X5.632Y-1.6221
X5.6446Y-1.559
X5.6446Y-1.609
X5.6946Y-1.609
X5.7446Y-1.959
X5.7946Y-2.009
X6.1946Y-1.9503
X6.2323Y-1.884
X6.2323Y-1.984
X6.378Y-1.734
X6.3946Y-1.784
X6.3946Y-1.9674
X6.3946Y-2.134
X6.3946Y-2.184
X6.3959Y-1.9036
X6.4067Y-2.0964
X6.4192Y-2.0094
X6.5946Y-1.784
X6.5946Y-1.9174
X6.5946Y-1.959
X6.5946Y-2.034
X6.5946Y-2.084
X6.5946Y-2.134
X6.5946Y-2.184
X7.2346Y-2.189
X7.2346Y-2.859
X7.2346Y-3.279
X7.2746Y-3.329
X7.3046Y-2.859
X7.3446Y-2.229
X7.3446Y-2.279
X7.3746Y-2.099
X7.3946Y-1.969
X7.4046Y-2.839
X7.4046Y-2.959
X7.4246Y-1.939
X7.4646Y-2.079
X7.4946Y-3.339
X7.5536Y-2.069
X7.5536Y-2.1817
X7.6646Y-3.379
X7.6846Y-3.349
X7.7546Y-2.179
X7.8146Y-2.199
X7.8446Y-3.469
X7.8646Y-2.3334
X7.9746Y-2.289
X8.0107Y-3.1303
X8.0446Y-2.399
X8.0546Y-2.7806
X8.1146Y-3.209
X8.1146Y-3.2808
X8.1346Y-2.899
X8.1446Y-3.009
X8.1646Y-3.209
X8.1946Y-3.009
X8.2096Y-3.214
T3
X5.4446Y-4.559
X5.7053Y-4.659
X5.7946Y-4.559
X6.5946Y-1.834
X6.5946Y-1.884
X7.0146Y-2.089
X7.0446Y-2.134
X7.4481Y-1.209
X7.4481Y-1.259
X7.5196Y-2.484
X7.523Y-1.1537
X7.5546Y-3.229
X7.5546Y-3.604
X7.6174Y-1.1537
X7.6796Y-2.999
X7.6922Y-1.209
X7.6922Y-1.259
X7.7796Y-4.079
X7.8046Y-3.854
X7.8546Y-3.704
X7.9546Y-3.854
X8.0296Y-4.104
X8.1546Y-3.879
T4
X7.1046Y-2.409
X7.1046Y-2.509
X7.1046Y-2.609
X7.1046Y-2.709
X7.4046Y-2.409
X7.4046Y-2.509
X7.4046Y-2.609
X7.4046Y-2.709
T5
X5.6659Y-3.5893
X5.6659Y-3.6893
X5.6659Y-3.7893
X5.6659Y-3.8893
X5.6659Y-3.9893
X5.6659Y-4.0893
X6.4446Y-2.359
X6.4446Y-2.459
X6.4446Y-2.559
X6.4446Y-2.659
X6.4446Y-2.759
X6.4446Y-2.859
X6.4446Y-2.959
X6.4446Y-3.059
X6.4446Y-3.159
X6.4446Y-3.259
X6.4446Y-3.359
X6.4446Y-3.459
X6.4446Y-3.559
X6.4446Y-3.659
X6.4446Y-3.759
X6.4446Y-3.859
X6.4446Y-3.959
X6.4446Y-4.059
X6.4446Y-4.159
X6.4446Y-4.259
X6.5446Y-2.359
X6.5446Y-2.459
X6.5446Y-2.559
X6.5446Y-2.659
X6.5446Y-2.759
X6.5446Y-2.859
X6.5446Y-2.959
X6.5446Y-3.059
X6.5446Y-3.159
X6.5446Y-3.259
X6.5446Y-3.359
X6.5446Y-3.459
X6.5446Y-3.559
X6.5446Y-3.659
X6.5446Y-3.759
X6.5446Y-3.859
X6.5446Y-3.959
X6.5446Y-4.059
X6.5446Y-4.159
X6.5446Y-4.259
T6
X5.3946Y-2.359
X5.3946Y-2.459
X5.3946Y-2.559
X5.3946Y-2.659
X5.3946Y-2.759
X5.3946Y-2.859
X5.3946Y-2.959
X5.3946Y-3.059
X5.3946Y-3.159
X5.3946Y-3.259
X5.3946Y-3.359
X5.3946Y-3.459
X5.3946Y-3.559
X5.3946Y-3.659
X5.3946Y-3.759
X5.3946Y-3.859
X5.3946Y-3.959
X5.3946Y-4.059
X5.3946Y-4.159
X5.3946Y-4.259
X5.4946Y-2.359
X5.4946Y-2.459
X5.4946Y-2.559
X5.4946Y-2.659
X5.4946Y-2.759
X5.4946Y-2.859
X5.4946Y-2.959
X5.4946Y-3.059
X5.4946Y-3.159
X5.4946Y-3.259
X5.4946Y-3.359
X5.4946Y-3.459
X5.4946Y-3.559
X5.4946Y-3.659
X5.4946Y-3.759
X5.4946Y-3.859
X5.4946Y-3.959
X5.4946Y-4.059
X5.4946Y-4.159
X5.4946Y-4.259
X5.6446Y-4.409
X5.7446Y-4.409
X5.7946Y-4.659
X5.8946Y-4.659
X5.9946Y-4.659
X6.0946Y-4.659
X6.1946Y-4.659
X6.2946Y-4.659
X6.6946Y-2.359
X6.6946Y-2.459
X6.6946Y-2.559
X6.6946Y-2.659
X6.6946Y-2.759
X6.6946Y-2.859
X6.6946Y-2.959
X6.6946Y-3.059
X6.6946Y-3.159
X6.6946Y-3.259
X6.6946Y-3.359
X6.6946Y-3.459
X6.6946Y-3.559
X6.6946Y-3.659
X6.6946Y-3.759
X6.6946Y-3.859
X6.6946Y-3.959
X6.6946Y-4.059
X6.6946Y-4.159
X6.6946Y-4.259
X6.7846Y-1.299
X6.7846Y-1.399
X6.7946Y-2.359
X6.7946Y-2.459
X6.7946Y-2.559
X6.7946Y-2.659
X6.7946Y-2.759
X6.7946Y-2.859
X6.7946Y-2.959
X6.7946Y-3.059
X6.7946Y-3.159
X6.7946Y-3.259
X6.7946Y-3.359
X6.7946Y-3.459
X6.7946Y-3.559
X6.7946Y-3.659
X6.7946Y-3.759
X6.7946Y-3.859
X6.7946Y-3.959
X6.7946Y-4.059
X6.7946Y-4.159
X6.7946Y-4.259
X6.8846Y-1.299
X6.8846Y-1.399
X6.9846Y-1.299
X6.9846Y-1.399
X7.0846Y-1.299
X7.0846Y-1.399
X7.1846Y-1.299
X7.1846Y-1.399
X7.3346Y-1.299
X7.3346Y-1.399
X7.3346Y-1.499
X8.3446Y-1.709
X8.3446Y-1.809
X8.3446Y-1.909
X8.3446Y-2.009
X8.3446Y-2.109
X8.3446Y-2.209
X8.3446Y-2.309
X8.3446Y-2.409
X8.3446Y-2.509
X8.3446Y-2.609
X8.3446Y-2.709
X8.3446Y-2.809
X8.3446Y-2.909
X8.3446Y-3.009
X8.3446Y-3.109
X8.3446Y-3.209
X8.3446Y-3.309
X8.3446Y-3.409
X8.3446Y-3.509
X8.3446Y-3.609
X8.3446Y-3.709
X8.3446Y-3.809
X8.3446Y-3.909
X8.3446Y-4.009
X8.3446Y-4.109
X8.3446Y-4.209
X8.4446Y-1.709
X8.4446Y-1.809
X8.4446Y-1.909
X8.4446Y-2.009
X8.4446Y-2.109
X8.4446Y-2.209
X8.4446Y-2.309
X8.4446Y-2.409
X8.4446Y-2.509
X8.4446Y-2.609
X8.4446Y-2.709
X8.4446Y-2.809
X8.4446Y-2.909
X8.4446Y-3.009
X8.4446Y-3.109
X8.4446Y-3.209
X8.4446Y-3.309
X8.4446Y-3.409
X8.4446Y-3.509
X8.4446Y-3.609
X8.4446Y-3.709
X8.4446Y-3.809
X8.4446Y-3.909
X8.4446Y-4.009
X8.4446Y-4.109
X8.4446Y-4.209
X8.5446Y-1.709
X8.5446Y-1.809
X8.5446Y-1.909
X8.5446Y-2.009
X8.5446Y-2.109
X8.5446Y-2.209
X8.5446Y-2.309
X8.5446Y-2.409
X8.5446Y-2.509
X8.5446Y-2.609
X8.5446Y-2.709
X8.5446Y-2.809
X8.5446Y-2.909
X8.5446Y-3.009
X8.5446Y-3.109
X8.5446Y-3.209
X8.5446Y-3.309
X8.5446Y-3.409
X8.5446Y-3.509
X8.5446Y-3.609
X8.5446Y-3.709
X8.5446Y-3.809
X8.5446Y-3.909
X8.5446Y-4.009
X8.5446Y-4.109
X8.5446Y-4.209
X8.6446Y-1.709
X8.6446Y-1.809
X8.6446Y-1.909
X8.6446Y-2.009
X8.6446Y-2.109
X8.6446Y-2.209
X8.6446Y-2.309
X8.6446Y-2.409
X8.6446Y-2.509
X8.6446Y-2.609
X8.6446Y-2.709
X8.6446Y-2.809
X8.6446Y-2.909
X8.6446Y-3.009
X8.6446Y-3.109
X8.6446Y-3.209
X8.6446Y-3.309
X8.6446Y-3.409
X8.6446Y-3.509
X8.6446Y-3.609
X8.6446Y-3.709
X8.6446Y-3.809
X8.6446Y-3.909
X8.6446Y-4.009
X8.6446Y-4.109
X8.6446Y-4.209
T7
X7.6046Y-2.549
X7.6246Y-2.729
X7.6356Y-2.2749
X7.6356Y-2.329
X7.6506Y-2.219
X7.6846Y-2.259
X7.7296Y-2.449
X7.8746Y-3.279
T8
X7.8446Y-4.559
X7.9446Y-1.284
X8.2946Y-4.559
X8.3446Y-1.284
T0
M30
