G04 #@! TF.FileFunction,Copper,L2,Inr,Signal*
%FSLAX46Y46*%
G04 Gerber Fmt 4.6, Leading zero omitted, Abs format (unit mm)*
G04 Created by KiCad (PCBNEW 4.0.7) date 11/09/17 22:03:39*
%MOMM*%
%LPD*%
G01*
G04 APERTURE LIST*
%ADD10C,0.100000*%
%ADD11R,1.700000X1.700000*%
%ADD12O,1.700000X1.700000*%
%ADD13C,8.890000*%
%ADD14C,1.778000*%
%ADD15R,1.600000X1.600000*%
%ADD16O,1.600000X1.600000*%
%ADD17C,5.080000*%
%ADD18C,6.350000*%
%ADD19C,1.270000*%
%ADD20C,0.508000*%
%ADD21C,0.381000*%
%ADD22C,0.600000*%
%ADD23C,0.254000*%
G04 APERTURE END LIST*
D10*
D11*
X211952960Y-43408720D03*
D12*
X214492960Y-43408720D03*
X211952960Y-45948720D03*
X214492960Y-45948720D03*
X211952960Y-48488720D03*
X214492960Y-48488720D03*
X211952960Y-51028720D03*
X214492960Y-51028720D03*
X211952960Y-53568720D03*
X214492960Y-53568720D03*
X211952960Y-56108720D03*
X214492960Y-56108720D03*
X211952960Y-58648720D03*
X214492960Y-58648720D03*
X211952960Y-61188720D03*
X214492960Y-61188720D03*
X211952960Y-63728720D03*
X214492960Y-63728720D03*
X211952960Y-66268720D03*
X214492960Y-66268720D03*
X211952960Y-68808720D03*
X214492960Y-68808720D03*
X211952960Y-71348720D03*
X214492960Y-71348720D03*
X211952960Y-73888720D03*
X214492960Y-73888720D03*
X211952960Y-76428720D03*
X214492960Y-76428720D03*
X211952960Y-78968720D03*
X214492960Y-78968720D03*
X211952960Y-81508720D03*
X214492960Y-81508720D03*
X211952960Y-84048720D03*
X214492960Y-84048720D03*
X211952960Y-86588720D03*
X214492960Y-86588720D03*
X211952960Y-89128720D03*
X214492960Y-89128720D03*
X211952960Y-91668720D03*
X214492960Y-91668720D03*
X211952960Y-94208720D03*
X214492960Y-94208720D03*
X211952960Y-96748720D03*
X214492960Y-96748720D03*
X211952960Y-99288720D03*
X214492960Y-99288720D03*
X211952960Y-101828720D03*
X214492960Y-101828720D03*
X211952960Y-104368720D03*
X214492960Y-104368720D03*
X211952960Y-106908720D03*
X214492960Y-106908720D03*
D11*
X217032960Y-43408720D03*
D12*
X219572960Y-43408720D03*
X217032960Y-45948720D03*
X219572960Y-45948720D03*
X217032960Y-48488720D03*
X219572960Y-48488720D03*
X217032960Y-51028720D03*
X219572960Y-51028720D03*
X217032960Y-53568720D03*
X219572960Y-53568720D03*
X217032960Y-56108720D03*
X219572960Y-56108720D03*
X217032960Y-58648720D03*
X219572960Y-58648720D03*
X217032960Y-61188720D03*
X219572960Y-61188720D03*
X217032960Y-63728720D03*
X219572960Y-63728720D03*
X217032960Y-66268720D03*
X219572960Y-66268720D03*
X217032960Y-68808720D03*
X219572960Y-68808720D03*
X217032960Y-71348720D03*
X219572960Y-71348720D03*
X217032960Y-73888720D03*
X219572960Y-73888720D03*
X217032960Y-76428720D03*
X219572960Y-76428720D03*
X217032960Y-78968720D03*
X219572960Y-78968720D03*
X217032960Y-81508720D03*
X219572960Y-81508720D03*
X217032960Y-84048720D03*
X219572960Y-84048720D03*
X217032960Y-86588720D03*
X219572960Y-86588720D03*
X217032960Y-89128720D03*
X219572960Y-89128720D03*
X217032960Y-91668720D03*
X219572960Y-91668720D03*
X217032960Y-94208720D03*
X219572960Y-94208720D03*
X217032960Y-96748720D03*
X219572960Y-96748720D03*
X217032960Y-99288720D03*
X219572960Y-99288720D03*
X217032960Y-101828720D03*
X219572960Y-101828720D03*
X217032960Y-104368720D03*
X219572960Y-104368720D03*
X217032960Y-106908720D03*
X219572960Y-106908720D03*
D11*
X172328960Y-35534720D03*
D12*
X172328960Y-32994720D03*
X174868960Y-35534720D03*
X174868960Y-32994720D03*
X177408960Y-35534720D03*
X177408960Y-32994720D03*
X179948960Y-35534720D03*
X179948960Y-32994720D03*
X182488960Y-35534720D03*
X182488960Y-32994720D03*
D11*
X186298960Y-38074720D03*
D12*
X186298960Y-35534720D03*
X186298960Y-32994720D03*
D11*
X139562960Y-108178720D03*
D12*
X137022960Y-108178720D03*
X139562960Y-105638720D03*
X137022960Y-105638720D03*
X139562960Y-103098720D03*
X137022960Y-103098720D03*
X139562960Y-100558720D03*
X137022960Y-100558720D03*
X139562960Y-98018720D03*
X137022960Y-98018720D03*
X139562960Y-95478720D03*
X137022960Y-95478720D03*
X139562960Y-92938720D03*
X137022960Y-92938720D03*
X139562960Y-90398720D03*
X137022960Y-90398720D03*
X139562960Y-87858720D03*
X137022960Y-87858720D03*
X139562960Y-85318720D03*
X137022960Y-85318720D03*
X139562960Y-82778720D03*
X137022960Y-82778720D03*
X139562960Y-80238720D03*
X137022960Y-80238720D03*
X139562960Y-77698720D03*
X137022960Y-77698720D03*
X139562960Y-75158720D03*
X137022960Y-75158720D03*
X139562960Y-72618720D03*
X137022960Y-72618720D03*
X139562960Y-70078720D03*
X137022960Y-70078720D03*
X139562960Y-67538720D03*
X137022960Y-67538720D03*
X139562960Y-64998720D03*
X137022960Y-64998720D03*
X139562960Y-62458720D03*
X137022960Y-62458720D03*
X139562960Y-59918720D03*
X137022960Y-59918720D03*
D11*
X159882960Y-118338720D03*
D12*
X157342960Y-118338720D03*
X154802960Y-118338720D03*
X152262960Y-118338720D03*
X149722960Y-118338720D03*
X147182960Y-118338720D03*
D11*
X172582960Y-108178720D03*
D12*
X170042960Y-108178720D03*
X172582960Y-105638720D03*
X170042960Y-105638720D03*
X172582960Y-103098720D03*
X170042960Y-103098720D03*
X172582960Y-100558720D03*
X170042960Y-100558720D03*
X172582960Y-98018720D03*
X170042960Y-98018720D03*
X172582960Y-95478720D03*
X170042960Y-95478720D03*
X172582960Y-92938720D03*
X170042960Y-92938720D03*
X172582960Y-90398720D03*
X170042960Y-90398720D03*
X172582960Y-87858720D03*
X170042960Y-87858720D03*
X172582960Y-85318720D03*
X170042960Y-85318720D03*
X172582960Y-82778720D03*
X170042960Y-82778720D03*
X172582960Y-80238720D03*
X170042960Y-80238720D03*
X172582960Y-77698720D03*
X170042960Y-77698720D03*
X172582960Y-75158720D03*
X170042960Y-75158720D03*
X172582960Y-72618720D03*
X170042960Y-72618720D03*
X172582960Y-70078720D03*
X170042960Y-70078720D03*
X172582960Y-67538720D03*
X170042960Y-67538720D03*
X172582960Y-64998720D03*
X170042960Y-64998720D03*
X172582960Y-62458720D03*
X170042960Y-62458720D03*
X172582960Y-59918720D03*
X170042960Y-59918720D03*
D13*
X199252960Y-115798720D03*
X210682960Y-115798720D03*
X201792960Y-32613720D03*
X211952960Y-32613720D03*
D11*
X145912960Y-111988720D03*
D12*
X143372960Y-111988720D03*
D14*
X163692960Y-108178720D03*
X166232960Y-108178720D03*
X163692960Y-105638720D03*
X166232960Y-105638720D03*
X163692960Y-103098720D03*
X166232960Y-103098720D03*
X163692960Y-100558720D03*
X166232960Y-100558720D03*
X163692960Y-98018720D03*
X166232960Y-98018720D03*
X163692960Y-95478720D03*
X166232960Y-95478720D03*
X163692960Y-92938720D03*
X166232960Y-92938720D03*
X163692960Y-90398720D03*
X166232960Y-90398720D03*
X163692960Y-87858720D03*
X166232960Y-87858720D03*
X163692960Y-85318720D03*
X166232960Y-85318720D03*
X163692960Y-82778720D03*
X166232960Y-82778720D03*
X163692960Y-80238720D03*
X166232960Y-80238720D03*
X163692960Y-77698720D03*
X166232960Y-77698720D03*
X163692960Y-75158720D03*
X166232960Y-75158720D03*
X163692960Y-72618720D03*
X166232960Y-72618720D03*
X163692960Y-70078720D03*
X166232960Y-70078720D03*
X163692960Y-67538720D03*
X166232960Y-67538720D03*
X163692960Y-64998720D03*
X166232960Y-64998720D03*
X163692960Y-62458720D03*
X166232960Y-62458720D03*
X163692960Y-59918720D03*
X166232960Y-59918720D03*
X143912960Y-103868720D03*
X143912960Y-101328720D03*
X143912960Y-98788720D03*
X143912960Y-96248720D03*
X143912960Y-93708720D03*
X143912960Y-91168720D03*
D15*
X180456960Y-61188720D03*
D16*
X188076960Y-68808720D03*
X180456960Y-63728720D03*
X188076960Y-66268720D03*
X180456960Y-66268720D03*
X188076960Y-63728720D03*
X180456960Y-68808720D03*
X188076960Y-61188720D03*
D17*
X134467960Y-46083720D03*
X150977960Y-46083720D03*
D18*
X133847960Y-34518720D03*
X219572960Y-38328720D03*
X133847960Y-114528720D03*
X219572960Y-111988720D03*
D19*
X193944371Y-59156720D03*
D20*
X191861550Y-52552720D03*
D19*
X194325370Y-56362720D03*
X193944371Y-57782741D03*
D21*
X180837960Y-52933720D03*
D20*
X204332960Y-60934720D03*
X198490960Y-55854720D03*
X207380960Y-81508720D03*
X194680960Y-85826720D03*
D19*
X195188960Y-57378720D03*
D20*
X188076960Y-72110720D03*
X188076960Y-75158720D03*
D21*
X176392960Y-42646720D03*
X184774960Y-98780720D03*
X173090960Y-53060720D03*
X185028960Y-49504720D03*
X184012960Y-37312720D03*
X169788960Y-38074720D03*
D20*
X158299450Y-47853720D03*
X158299450Y-50393720D03*
X162454737Y-48351908D03*
X139562960Y-48488720D03*
X157342960Y-49536720D03*
X162422960Y-49970720D03*
X191861550Y-55416390D03*
D22*
X190997960Y-63093720D03*
D20*
X202554960Y-58140720D03*
X196966960Y-55346720D03*
X199760960Y-59268318D03*
X189600960Y-52806720D03*
X186552960Y-57886720D03*
X186552960Y-56616720D03*
X204586960Y-70626720D03*
X206618958Y-73634720D03*
X208523960Y-81635720D03*
X190362960Y-84810720D03*
X195188960Y-85064720D03*
X199252960Y-88112720D03*
D21*
X175376960Y-47472720D03*
X181980960Y-40868720D03*
X176392960Y-48488720D03*
X178678960Y-48488720D03*
X184774960Y-106146720D03*
X184774960Y-107416720D03*
X184520960Y-108686720D03*
X178424960Y-108940720D03*
X184774960Y-100050720D03*
X185790960Y-101828720D03*
X178424960Y-101574720D03*
X182234960Y-41884720D03*
X182488960Y-52298720D03*
X185028960Y-45186720D03*
X182234964Y-38074720D03*
X169788960Y-40868724D03*
X177408962Y-53060720D03*
D22*
X195061960Y-76174720D03*
D21*
X200776960Y-64744720D03*
X200776960Y-61888720D03*
X199341960Y-62204720D03*
X202211960Y-62204720D03*
X202046960Y-67119720D03*
X198871960Y-65719720D03*
X199151960Y-66369720D03*
X199341960Y-67284720D03*
X196966960Y-67669720D03*
X190362960Y-31978720D03*
D22*
X195382960Y-30708720D03*
X195382960Y-31978720D03*
X193482960Y-29303720D03*
X191082960Y-29303720D03*
X189182960Y-30708720D03*
X189182960Y-31978720D03*
D21*
X200141960Y-94716720D03*
X200776960Y-95351720D03*
X201132560Y-95707320D03*
D22*
X199506960Y-94081720D03*
X207126960Y-98526720D03*
X203951960Y-104241720D03*
X197601960Y-103606720D03*
X191886960Y-82016720D03*
X191886960Y-91541720D03*
D20*
X163048393Y-51038287D03*
X162730926Y-53247941D03*
X143052835Y-41201595D03*
X139562960Y-52298720D03*
X143372960Y-40868720D03*
X143372960Y-39598720D03*
X162422960Y-54203720D03*
X161999960Y-44043720D03*
X167502960Y-55473720D03*
X167502960Y-54203720D03*
X167502960Y-52933720D03*
X167502960Y-51663720D03*
X167502960Y-49758720D03*
X167502960Y-48700720D03*
X167502960Y-45313720D03*
X162422960Y-45313720D03*
X162422960Y-55473720D03*
D22*
X138292960Y-115798720D03*
X147182960Y-115798720D03*
D20*
X203472960Y-79508720D03*
X206872960Y-76428720D03*
D19*
X193156960Y-64744720D03*
D21*
X205272294Y-65950904D03*
X196712960Y-65252718D03*
D19*
X196331960Y-62204720D03*
X193664960Y-69316720D03*
D20*
X208142960Y-76428720D03*
D19*
X200014960Y-83286720D03*
D21*
X201284960Y-73868720D03*
X205221960Y-66649720D03*
D22*
X167502960Y-47853720D03*
D20*
X187822960Y-50012720D03*
X183758960Y-55600720D03*
X206110960Y-81508720D03*
X183758960Y-83286720D03*
X183758960Y-72618720D03*
X185536960Y-72618720D03*
D21*
X176138960Y-94462720D03*
X176138960Y-90906720D03*
X176138960Y-101320720D03*
X183758960Y-68808720D03*
X187822960Y-43690720D03*
D22*
X167502960Y-46583720D03*
D20*
X188584960Y-49250720D03*
X187314960Y-53314720D03*
X206110960Y-83332720D03*
X184774960Y-84556720D03*
D21*
X184774960Y-66268720D03*
X188584960Y-44190720D03*
X174614960Y-42138720D03*
X178170960Y-44678720D03*
X184266960Y-44678720D03*
X181726960Y-44678720D03*
D20*
X144642960Y-40868720D03*
X145912960Y-49758720D03*
X147182960Y-51028720D03*
D22*
X178170960Y-53060720D03*
X144914034Y-118338720D03*
D21*
X161660960Y-59156720D03*
X181307870Y-57886720D03*
D22*
X178932960Y-54203720D03*
D21*
X181726960Y-48488720D03*
X173090960Y-49190720D03*
X178170960Y-40614720D03*
D22*
X202046960Y-97891720D03*
X198236960Y-97891720D03*
D23*
G36*
X165278897Y-28294984D02*
X165546734Y-28473946D01*
X165725696Y-28741783D01*
X165801960Y-29125187D01*
X165801960Y-29819720D01*
X165815122Y-29885890D01*
X165815122Y-29953357D01*
X165931130Y-30536567D01*
X165939128Y-30555875D01*
X166033411Y-30783495D01*
X166363772Y-31277916D01*
X166552764Y-31466908D01*
X167047185Y-31797269D01*
X167191832Y-31857184D01*
X167294113Y-31899550D01*
X167877323Y-32015558D01*
X167944791Y-32015558D01*
X168010960Y-32028720D01*
X171203304Y-32028720D01*
X170956999Y-32397342D01*
X170843960Y-32965627D01*
X170843960Y-33023813D01*
X170956999Y-33592098D01*
X171278906Y-34073867D01*
X171280139Y-34074691D01*
X171243643Y-34081558D01*
X171027519Y-34220630D01*
X170882529Y-34432830D01*
X170831520Y-34684720D01*
X170831520Y-36384720D01*
X170875798Y-36620037D01*
X171014870Y-36836161D01*
X171227070Y-36981151D01*
X171478960Y-37032160D01*
X173178960Y-37032160D01*
X173414277Y-36987882D01*
X173630401Y-36848810D01*
X173775391Y-36636610D01*
X173789046Y-36569179D01*
X173818906Y-36613867D01*
X174300675Y-36935774D01*
X174868960Y-37048813D01*
X175437245Y-36935774D01*
X175919014Y-36613867D01*
X176146662Y-36273167D01*
X176213777Y-36416078D01*
X176642036Y-36806365D01*
X177052070Y-36976196D01*
X177281960Y-36854875D01*
X177281960Y-35661720D01*
X177261960Y-35661720D01*
X177261960Y-35407720D01*
X177281960Y-35407720D01*
X177281960Y-33121720D01*
X177261960Y-33121720D01*
X177261960Y-32867720D01*
X177281960Y-32867720D01*
X177281960Y-32847720D01*
X177535960Y-32847720D01*
X177535960Y-32867720D01*
X177555960Y-32867720D01*
X177555960Y-33121720D01*
X177535960Y-33121720D01*
X177535960Y-35407720D01*
X177555960Y-35407720D01*
X177555960Y-35661720D01*
X177535960Y-35661720D01*
X177535960Y-36854875D01*
X177765850Y-36976196D01*
X178175884Y-36806365D01*
X178604143Y-36416078D01*
X178671258Y-36273167D01*
X178898906Y-36613867D01*
X179380675Y-36935774D01*
X179948960Y-37048813D01*
X180517245Y-36935774D01*
X180999014Y-36613867D01*
X181218960Y-36284694D01*
X181438906Y-36613867D01*
X181920675Y-36935774D01*
X182488960Y-37048813D01*
X183057245Y-36935774D01*
X183539014Y-36613867D01*
X183860921Y-36132098D01*
X183973960Y-35563813D01*
X183973960Y-35505627D01*
X183860921Y-34937342D01*
X183539014Y-34455573D01*
X183253382Y-34264720D01*
X183539014Y-34073867D01*
X183860921Y-33592098D01*
X183973960Y-33023813D01*
X183973960Y-32965627D01*
X183860921Y-32397342D01*
X183614616Y-32028720D01*
X185208740Y-32028720D01*
X185027315Y-32227796D01*
X184857484Y-32637830D01*
X184978805Y-32867720D01*
X186171960Y-32867720D01*
X186171960Y-32847720D01*
X186425960Y-32847720D01*
X186425960Y-32867720D01*
X187619115Y-32867720D01*
X187740436Y-32637830D01*
X187570605Y-32227796D01*
X187180318Y-31799537D01*
X186655852Y-31553234D01*
X186451180Y-31660663D01*
X186741156Y-31466908D01*
X186930148Y-31277916D01*
X187260509Y-30783495D01*
X187354792Y-30555875D01*
X187362790Y-30536567D01*
X187478798Y-29953357D01*
X187478798Y-29885889D01*
X187491960Y-29819720D01*
X187491960Y-29125187D01*
X187568224Y-28741783D01*
X187747186Y-28473946D01*
X188015023Y-28294984D01*
X188398427Y-28218720D01*
X199126962Y-28218720D01*
X198919131Y-28304594D01*
X197488857Y-29732374D01*
X196713844Y-31598812D01*
X196712080Y-33619761D01*
X197483834Y-35487549D01*
X198911614Y-36917823D01*
X200778052Y-37692836D01*
X202799001Y-37694600D01*
X204666789Y-36922846D01*
X205338195Y-36252610D01*
X208493676Y-36252610D01*
X209012174Y-36877431D01*
X210867679Y-37678266D01*
X212888409Y-37708069D01*
X214766725Y-36962304D01*
X214893746Y-36877431D01*
X215412244Y-36252610D01*
X211952960Y-32793325D01*
X208493676Y-36252610D01*
X205338195Y-36252610D01*
X206097063Y-35495066D01*
X206872076Y-33628628D01*
X206872116Y-33583182D01*
X207604376Y-35427485D01*
X207689249Y-35554506D01*
X208314070Y-36073004D01*
X211773355Y-32613720D01*
X212132565Y-32613720D01*
X215591850Y-36073004D01*
X216216671Y-35554506D01*
X217017506Y-33699001D01*
X217047309Y-31678271D01*
X216301544Y-29799955D01*
X216216671Y-29672934D01*
X215591850Y-29154436D01*
X212132565Y-32613720D01*
X211773355Y-32613720D01*
X208314070Y-29154436D01*
X207689249Y-29672934D01*
X206888414Y-31528439D01*
X206872997Y-32573774D01*
X206873840Y-31607679D01*
X206102086Y-29739891D01*
X204674306Y-28309617D01*
X204455402Y-28218720D01*
X209256100Y-28218720D01*
X209139195Y-28265136D01*
X209012174Y-28350009D01*
X208493676Y-28974830D01*
X211952960Y-32434115D01*
X215412244Y-28974830D01*
X214893746Y-28350009D01*
X214589554Y-28218720D01*
X218489493Y-28218720D01*
X220233717Y-28565668D01*
X221655203Y-29515474D01*
X222605012Y-30936962D01*
X222951960Y-32681187D01*
X222951960Y-116366253D01*
X222605012Y-118110478D01*
X221655203Y-119531966D01*
X220233717Y-120481772D01*
X218489493Y-120828720D01*
X211780481Y-120828720D01*
X213496725Y-120147304D01*
X213623746Y-120062431D01*
X214142244Y-119437610D01*
X210682960Y-115978325D01*
X207223676Y-119437610D01*
X207742174Y-120062431D01*
X209517637Y-120828720D01*
X200382140Y-120828720D01*
X202126789Y-120107846D01*
X203557063Y-118680066D01*
X204332076Y-116813628D01*
X204332145Y-116734169D01*
X205588611Y-116734169D01*
X206334376Y-118612485D01*
X206419249Y-118739506D01*
X207044070Y-119258004D01*
X210503355Y-115798720D01*
X210862565Y-115798720D01*
X214321850Y-119258004D01*
X214946671Y-118739506D01*
X215747506Y-116884001D01*
X215777309Y-114863271D01*
X215031544Y-112984955D01*
X214946671Y-112857934D01*
X214321850Y-112339436D01*
X210862565Y-115798720D01*
X210503355Y-115798720D01*
X207044070Y-112339436D01*
X206419249Y-112857934D01*
X205618414Y-114713439D01*
X205588611Y-116734169D01*
X204332145Y-116734169D01*
X204333840Y-114792679D01*
X203562086Y-112924891D01*
X202798360Y-112159830D01*
X207223676Y-112159830D01*
X210682960Y-115619115D01*
X214142244Y-112159830D01*
X213623746Y-111535009D01*
X211768241Y-110734174D01*
X209747511Y-110704371D01*
X207869195Y-111450136D01*
X207742174Y-111535009D01*
X207223676Y-112159830D01*
X202798360Y-112159830D01*
X202134306Y-111494617D01*
X200267868Y-110719604D01*
X198246919Y-110717840D01*
X196379131Y-111489594D01*
X194948857Y-112917374D01*
X194173844Y-114783812D01*
X194172080Y-116804761D01*
X194943834Y-118672549D01*
X196371614Y-120102823D01*
X198119768Y-120828720D01*
X188398427Y-120828720D01*
X188015023Y-120752456D01*
X187747186Y-120573494D01*
X187568224Y-120305657D01*
X187491960Y-119922253D01*
X187491960Y-119227720D01*
X187478798Y-119161551D01*
X187478798Y-119094083D01*
X187362790Y-118510873D01*
X187268702Y-118283725D01*
X187260509Y-118263945D01*
X186930148Y-117769524D01*
X186741156Y-117580532D01*
X186246735Y-117250171D01*
X186102088Y-117190256D01*
X185999807Y-117147890D01*
X185416597Y-117031882D01*
X185349130Y-117031882D01*
X185282960Y-117018720D01*
X168010960Y-117018720D01*
X167944791Y-117031882D01*
X167877323Y-117031882D01*
X167294113Y-117147890D01*
X167191832Y-117190256D01*
X167047185Y-117250171D01*
X166552764Y-117580532D01*
X166363772Y-117769524D01*
X166033411Y-118263945D01*
X166025218Y-118283725D01*
X165931130Y-118510873D01*
X165815122Y-119094083D01*
X165815122Y-119161550D01*
X165801960Y-119227720D01*
X165801960Y-119922253D01*
X165725696Y-120305657D01*
X165546734Y-120573494D01*
X165278897Y-120752456D01*
X164895493Y-120828720D01*
X134804427Y-120828720D01*
X133060202Y-120481772D01*
X131638714Y-119531963D01*
X130965140Y-118523887D01*
X143978872Y-118523887D01*
X144120917Y-118867663D01*
X144383707Y-119130912D01*
X144727235Y-119273558D01*
X145099201Y-119273882D01*
X145442977Y-119131837D01*
X145706226Y-118869047D01*
X145768047Y-118720165D01*
X145810999Y-118936098D01*
X146132906Y-119417867D01*
X146614675Y-119739774D01*
X147182960Y-119852813D01*
X147751245Y-119739774D01*
X148233014Y-119417867D01*
X148452960Y-119088694D01*
X148672906Y-119417867D01*
X149154675Y-119739774D01*
X149722960Y-119852813D01*
X150291245Y-119739774D01*
X150773014Y-119417867D01*
X150992960Y-119088694D01*
X151212906Y-119417867D01*
X151694675Y-119739774D01*
X152262960Y-119852813D01*
X152831245Y-119739774D01*
X153313014Y-119417867D01*
X153532960Y-119088694D01*
X153752906Y-119417867D01*
X154234675Y-119739774D01*
X154802960Y-119852813D01*
X155371245Y-119739774D01*
X155853014Y-119417867D01*
X156072960Y-119088694D01*
X156292906Y-119417867D01*
X156774675Y-119739774D01*
X157342960Y-119852813D01*
X157911245Y-119739774D01*
X158393014Y-119417867D01*
X158422363Y-119373943D01*
X158494633Y-119548418D01*
X158673261Y-119727047D01*
X158906650Y-119823720D01*
X159597210Y-119823720D01*
X159755960Y-119664970D01*
X159755960Y-118465720D01*
X160009960Y-118465720D01*
X160009960Y-119664970D01*
X160168710Y-119823720D01*
X160859270Y-119823720D01*
X161092659Y-119727047D01*
X161271287Y-119548418D01*
X161367960Y-119315029D01*
X161367960Y-118624470D01*
X161209210Y-118465720D01*
X160009960Y-118465720D01*
X159755960Y-118465720D01*
X159735960Y-118465720D01*
X159735960Y-118211720D01*
X159755960Y-118211720D01*
X159755960Y-117012470D01*
X160009960Y-117012470D01*
X160009960Y-118211720D01*
X161209210Y-118211720D01*
X161367960Y-118052970D01*
X161367960Y-117362411D01*
X161271287Y-117129022D01*
X161092659Y-116950393D01*
X160859270Y-116853720D01*
X160168710Y-116853720D01*
X160009960Y-117012470D01*
X159755960Y-117012470D01*
X159597210Y-116853720D01*
X158906650Y-116853720D01*
X158673261Y-116950393D01*
X158494633Y-117129022D01*
X158422363Y-117303497D01*
X158393014Y-117259573D01*
X157911245Y-116937666D01*
X157342960Y-116824627D01*
X156774675Y-116937666D01*
X156292906Y-117259573D01*
X156072960Y-117588746D01*
X155853014Y-117259573D01*
X155371245Y-116937666D01*
X154802960Y-116824627D01*
X154234675Y-116937666D01*
X153752906Y-117259573D01*
X153532960Y-117588746D01*
X153313014Y-117259573D01*
X152831245Y-116937666D01*
X152262960Y-116824627D01*
X151694675Y-116937666D01*
X151212906Y-117259573D01*
X150992960Y-117588746D01*
X150773014Y-117259573D01*
X150291245Y-116937666D01*
X149722960Y-116824627D01*
X149154675Y-116937666D01*
X148672906Y-117259573D01*
X148452960Y-117588746D01*
X148233014Y-117259573D01*
X147751245Y-116937666D01*
X147182960Y-116824627D01*
X146614675Y-116937666D01*
X146132906Y-117259573D01*
X145810999Y-117741342D01*
X145768063Y-117957196D01*
X145707151Y-117809777D01*
X145444361Y-117546528D01*
X145100833Y-117403882D01*
X144728867Y-117403558D01*
X144385091Y-117545603D01*
X144121842Y-117808393D01*
X143979196Y-118151921D01*
X143978872Y-118523887D01*
X130965140Y-118523887D01*
X130688908Y-118110477D01*
X130341960Y-116366253D01*
X130341960Y-111959627D01*
X141887960Y-111959627D01*
X141887960Y-112017813D01*
X142000999Y-112586098D01*
X142322906Y-113067867D01*
X142804675Y-113389774D01*
X143372960Y-113502813D01*
X143941245Y-113389774D01*
X144423014Y-113067867D01*
X144450810Y-113026268D01*
X144459798Y-113074037D01*
X144598870Y-113290161D01*
X144811070Y-113435151D01*
X145062960Y-113486160D01*
X146762960Y-113486160D01*
X146998277Y-113441882D01*
X147214401Y-113302810D01*
X147359391Y-113090610D01*
X147410400Y-112838720D01*
X147410400Y-111138720D01*
X147366122Y-110903403D01*
X147227050Y-110687279D01*
X147014850Y-110542289D01*
X146762960Y-110491280D01*
X145062960Y-110491280D01*
X144827643Y-110535558D01*
X144611519Y-110674630D01*
X144466529Y-110886830D01*
X144452874Y-110954261D01*
X144423014Y-110909573D01*
X143941245Y-110587666D01*
X143372960Y-110474627D01*
X142804675Y-110587666D01*
X142322906Y-110909573D01*
X142000999Y-111391342D01*
X141887960Y-111959627D01*
X130341960Y-111959627D01*
X130341960Y-100558720D01*
X135508867Y-100558720D01*
X135621906Y-101127005D01*
X135943813Y-101608774D01*
X136272986Y-101828720D01*
X135943813Y-102048666D01*
X135621906Y-102530435D01*
X135508867Y-103098720D01*
X135621906Y-103667005D01*
X135943813Y-104148774D01*
X136272986Y-104368720D01*
X135943813Y-104588666D01*
X135621906Y-105070435D01*
X135508867Y-105638720D01*
X135621906Y-106207005D01*
X135943813Y-106688774D01*
X136272986Y-106908720D01*
X135943813Y-107128666D01*
X135621906Y-107610435D01*
X135508867Y-108178720D01*
X135621906Y-108747005D01*
X135943813Y-109228774D01*
X136425582Y-109550681D01*
X136993867Y-109663720D01*
X137052053Y-109663720D01*
X137620338Y-109550681D01*
X138102107Y-109228774D01*
X138102931Y-109227541D01*
X138109798Y-109264037D01*
X138248870Y-109480161D01*
X138461070Y-109625151D01*
X138712960Y-109676160D01*
X140412960Y-109676160D01*
X140648277Y-109631882D01*
X140864401Y-109492810D01*
X141009391Y-109280610D01*
X141048523Y-109087368D01*
X142602664Y-109087368D01*
X142862447Y-109716092D01*
X143343058Y-110197542D01*
X143971328Y-110458423D01*
X144651608Y-110459016D01*
X145280332Y-110199233D01*
X145761782Y-109718622D01*
X146022663Y-109090352D01*
X146023256Y-108410072D01*
X145763473Y-107781348D01*
X145282862Y-107299898D01*
X144654592Y-107039017D01*
X143974312Y-107038424D01*
X143345588Y-107298207D01*
X142864138Y-107778818D01*
X142603257Y-108407088D01*
X142602664Y-109087368D01*
X141048523Y-109087368D01*
X141060400Y-109028720D01*
X141060400Y-107328720D01*
X141016122Y-107093403D01*
X140877050Y-106877279D01*
X140664850Y-106732289D01*
X140597419Y-106718634D01*
X140642107Y-106688774D01*
X140964014Y-106207005D01*
X141077053Y-105638720D01*
X140964014Y-105070435D01*
X140642107Y-104588666D01*
X140312934Y-104368720D01*
X140642107Y-104148774D01*
X140964014Y-103667005D01*
X141077053Y-103098720D01*
X140964014Y-102530435D01*
X140642107Y-102048666D01*
X140312934Y-101828720D01*
X140642107Y-101608774D01*
X140964014Y-101127005D01*
X141077053Y-100558720D01*
X140964014Y-99990435D01*
X140642107Y-99508666D01*
X140301407Y-99281018D01*
X140444318Y-99213903D01*
X140834605Y-98785644D01*
X141004436Y-98375610D01*
X140883115Y-98145720D01*
X139689960Y-98145720D01*
X139689960Y-98165720D01*
X139435960Y-98165720D01*
X139435960Y-98145720D01*
X137149960Y-98145720D01*
X137149960Y-98165720D01*
X136895960Y-98165720D01*
X136895960Y-98145720D01*
X135702805Y-98145720D01*
X135581484Y-98375610D01*
X135751315Y-98785644D01*
X136141602Y-99213903D01*
X136284513Y-99281018D01*
X135943813Y-99508666D01*
X135621906Y-99990435D01*
X135508867Y-100558720D01*
X130341960Y-100558720D01*
X130341960Y-86275187D01*
X130418224Y-85891783D01*
X130597186Y-85623946D01*
X130865023Y-85444984D01*
X131248427Y-85368720D01*
X131942960Y-85368720D01*
X132009130Y-85355558D01*
X132076597Y-85355558D01*
X132659807Y-85239550D01*
X132802863Y-85180294D01*
X132906735Y-85137269D01*
X133401156Y-84806908D01*
X133590148Y-84617916D01*
X133920509Y-84123495D01*
X134004087Y-83921720D01*
X134022790Y-83876567D01*
X134138798Y-83293357D01*
X134138798Y-83225889D01*
X134151960Y-83159720D01*
X134151960Y-65887720D01*
X134138798Y-65821551D01*
X134138798Y-65754083D01*
X134022790Y-65170873D01*
X133974581Y-65054487D01*
X133920509Y-64923945D01*
X133590148Y-64429524D01*
X133401156Y-64240532D01*
X132906735Y-63910171D01*
X132714829Y-63830681D01*
X132659807Y-63807890D01*
X132076597Y-63691882D01*
X132009130Y-63691882D01*
X131942960Y-63678720D01*
X131248427Y-63678720D01*
X130865023Y-63602456D01*
X130597186Y-63423494D01*
X130418224Y-63155657D01*
X130341960Y-62772253D01*
X130341960Y-59918720D01*
X135508867Y-59918720D01*
X135621906Y-60487005D01*
X135943813Y-60968774D01*
X136272986Y-61188720D01*
X135943813Y-61408666D01*
X135621906Y-61890435D01*
X135508867Y-62458720D01*
X135621906Y-63027005D01*
X135943813Y-63508774D01*
X136272986Y-63728720D01*
X135943813Y-63948666D01*
X135621906Y-64430435D01*
X135508867Y-64998720D01*
X135621906Y-65567005D01*
X135943813Y-66048774D01*
X136272986Y-66268720D01*
X135943813Y-66488666D01*
X135621906Y-66970435D01*
X135508867Y-67538720D01*
X135621906Y-68107005D01*
X135943813Y-68588774D01*
X136272986Y-68808720D01*
X135943813Y-69028666D01*
X135621906Y-69510435D01*
X135508867Y-70078720D01*
X135621906Y-70647005D01*
X135943813Y-71128774D01*
X136272986Y-71348720D01*
X135943813Y-71568666D01*
X135621906Y-72050435D01*
X135508867Y-72618720D01*
X135621906Y-73187005D01*
X135943813Y-73668774D01*
X136272986Y-73888720D01*
X135943813Y-74108666D01*
X135621906Y-74590435D01*
X135508867Y-75158720D01*
X135621906Y-75727005D01*
X135943813Y-76208774D01*
X136272986Y-76428720D01*
X135943813Y-76648666D01*
X135621906Y-77130435D01*
X135508867Y-77698720D01*
X135621906Y-78267005D01*
X135943813Y-78748774D01*
X136272986Y-78968720D01*
X135943813Y-79188666D01*
X135621906Y-79670435D01*
X135508867Y-80238720D01*
X135621906Y-80807005D01*
X135943813Y-81288774D01*
X136272986Y-81508720D01*
X135943813Y-81728666D01*
X135621906Y-82210435D01*
X135508867Y-82778720D01*
X135621906Y-83347005D01*
X135943813Y-83828774D01*
X136272986Y-84048720D01*
X135943813Y-84268666D01*
X135621906Y-84750435D01*
X135508867Y-85318720D01*
X135621906Y-85887005D01*
X135943813Y-86368774D01*
X136272986Y-86588720D01*
X135943813Y-86808666D01*
X135621906Y-87290435D01*
X135508867Y-87858720D01*
X135621906Y-88427005D01*
X135943813Y-88908774D01*
X136272986Y-89128720D01*
X135943813Y-89348666D01*
X135621906Y-89830435D01*
X135508867Y-90398720D01*
X135621906Y-90967005D01*
X135943813Y-91448774D01*
X136272986Y-91668720D01*
X135943813Y-91888666D01*
X135621906Y-92370435D01*
X135508867Y-92938720D01*
X135621906Y-93507005D01*
X135943813Y-93988774D01*
X136272986Y-94208720D01*
X135943813Y-94428666D01*
X135621906Y-94910435D01*
X135508867Y-95478720D01*
X135621906Y-96047005D01*
X135943813Y-96528774D01*
X136284513Y-96756422D01*
X136141602Y-96823537D01*
X135751315Y-97251796D01*
X135581484Y-97661830D01*
X135702805Y-97891720D01*
X136895960Y-97891720D01*
X136895960Y-97871720D01*
X137149960Y-97871720D01*
X137149960Y-97891720D01*
X139435960Y-97891720D01*
X139435960Y-97871720D01*
X139689960Y-97871720D01*
X139689960Y-97891720D01*
X140883115Y-97891720D01*
X141004436Y-97661830D01*
X140834605Y-97251796D01*
X140444318Y-96823537D01*
X140301407Y-96756422D01*
X140642107Y-96528774D01*
X140964014Y-96047005D01*
X141077053Y-95478720D01*
X140964014Y-94910435D01*
X140642107Y-94428666D01*
X140312934Y-94208720D01*
X140609543Y-94010532D01*
X142388696Y-94010532D01*
X142620222Y-94570869D01*
X143027697Y-94979056D01*
X142621729Y-95384316D01*
X142389225Y-95944248D01*
X142388696Y-96550532D01*
X142620222Y-97110869D01*
X143027697Y-97519056D01*
X142621729Y-97924316D01*
X142389225Y-98484248D01*
X142388696Y-99090532D01*
X142620222Y-99650869D01*
X143027697Y-100059056D01*
X142621729Y-100464316D01*
X142389225Y-101024248D01*
X142388696Y-101630532D01*
X142620222Y-102190869D01*
X143027697Y-102599056D01*
X142621729Y-103004316D01*
X142389225Y-103564248D01*
X142388696Y-104170532D01*
X142620222Y-104730869D01*
X143048556Y-105159951D01*
X143608488Y-105392455D01*
X144214772Y-105392984D01*
X144775109Y-105161458D01*
X145204191Y-104733124D01*
X145436695Y-104173192D01*
X145437224Y-103566908D01*
X145205698Y-103006571D01*
X144798223Y-102598384D01*
X145204191Y-102193124D01*
X145436695Y-101633192D01*
X145437224Y-101026908D01*
X145205698Y-100466571D01*
X144798223Y-100058384D01*
X145204191Y-99653124D01*
X145436695Y-99093192D01*
X145437224Y-98486908D01*
X145205698Y-97926571D01*
X145060067Y-97780685D01*
X162157444Y-97780685D01*
X162183237Y-98386420D01*
X162365421Y-98826253D01*
X162620764Y-98911311D01*
X163513355Y-98018720D01*
X162620764Y-97126129D01*
X162365421Y-97211187D01*
X162157444Y-97780685D01*
X145060067Y-97780685D01*
X144798223Y-97518384D01*
X145204191Y-97113124D01*
X145436695Y-96553192D01*
X145437224Y-95946908D01*
X145205698Y-95386571D01*
X144798223Y-94978384D01*
X145204191Y-94573124D01*
X145436695Y-94013192D01*
X145437224Y-93406908D01*
X145205698Y-92846571D01*
X144777364Y-92417489D01*
X144750454Y-92406315D01*
X144805551Y-92240916D01*
X143912960Y-91348325D01*
X143020369Y-92240916D01*
X143075313Y-92405858D01*
X143050811Y-92415982D01*
X142621729Y-92844316D01*
X142389225Y-93404248D01*
X142388696Y-94010532D01*
X140609543Y-94010532D01*
X140642107Y-93988774D01*
X140964014Y-93507005D01*
X141077053Y-92938720D01*
X140964014Y-92370435D01*
X140642107Y-91888666D01*
X140312934Y-91668720D01*
X140642107Y-91448774D01*
X140964014Y-90967005D01*
X140971238Y-90930685D01*
X142377444Y-90930685D01*
X142403237Y-91536420D01*
X142585421Y-91976253D01*
X142840764Y-92061311D01*
X143733355Y-91168720D01*
X144092565Y-91168720D01*
X144985156Y-92061311D01*
X145240499Y-91976253D01*
X145448476Y-91406755D01*
X145422683Y-90801020D01*
X145240499Y-90361187D01*
X144985156Y-90276129D01*
X144092565Y-91168720D01*
X143733355Y-91168720D01*
X142840764Y-90276129D01*
X142585421Y-90361187D01*
X142377444Y-90930685D01*
X140971238Y-90930685D01*
X141077053Y-90398720D01*
X141016943Y-90096524D01*
X143020369Y-90096524D01*
X143912960Y-90989115D01*
X144805551Y-90096524D01*
X144720493Y-89841181D01*
X144150995Y-89633204D01*
X143545260Y-89658997D01*
X143105427Y-89841181D01*
X143020369Y-90096524D01*
X141016943Y-90096524D01*
X140964014Y-89830435D01*
X140642107Y-89348666D01*
X140312934Y-89128720D01*
X140642107Y-88908774D01*
X140964014Y-88427005D01*
X141077053Y-87858720D01*
X140964014Y-87290435D01*
X140642107Y-86808666D01*
X140312934Y-86588720D01*
X140642107Y-86368774D01*
X140964014Y-85887005D01*
X141077053Y-85318720D01*
X140964014Y-84750435D01*
X140642107Y-84268666D01*
X140312934Y-84048720D01*
X140642107Y-83828774D01*
X140964014Y-83347005D01*
X141077053Y-82778720D01*
X140964014Y-82210435D01*
X140642107Y-81728666D01*
X140312934Y-81508720D01*
X140642107Y-81288774D01*
X140964014Y-80807005D01*
X141077053Y-80238720D01*
X140964014Y-79670435D01*
X140642107Y-79188666D01*
X140312934Y-78968720D01*
X140642107Y-78748774D01*
X140964014Y-78267005D01*
X141077053Y-77698720D01*
X140964014Y-77130435D01*
X140642107Y-76648666D01*
X140312934Y-76428720D01*
X140642107Y-76208774D01*
X140964014Y-75727005D01*
X141077053Y-75158720D01*
X140964014Y-74590435D01*
X140642107Y-74108666D01*
X140312934Y-73888720D01*
X140642107Y-73668774D01*
X140964014Y-73187005D01*
X141077053Y-72618720D01*
X140964014Y-72050435D01*
X140642107Y-71568666D01*
X140312934Y-71348720D01*
X140642107Y-71128774D01*
X140964014Y-70647005D01*
X141077053Y-70078720D01*
X140964014Y-69510435D01*
X140642107Y-69028666D01*
X140312934Y-68808720D01*
X140642107Y-68588774D01*
X140964014Y-68107005D01*
X141077053Y-67538720D01*
X140964014Y-66970435D01*
X140642107Y-66488666D01*
X140312934Y-66268720D01*
X140642107Y-66048774D01*
X140964014Y-65567005D01*
X141077053Y-64998720D01*
X140964014Y-64430435D01*
X140642107Y-63948666D01*
X140312934Y-63728720D01*
X140642107Y-63508774D01*
X140964014Y-63027005D01*
X141077053Y-62458720D01*
X140964014Y-61890435D01*
X140642107Y-61408666D01*
X140312934Y-61188720D01*
X140642107Y-60968774D01*
X140964014Y-60487005D01*
X141077053Y-59918720D01*
X141031035Y-59687368D01*
X142602664Y-59687368D01*
X142862447Y-60316092D01*
X143343058Y-60797542D01*
X143971328Y-61058423D01*
X144651608Y-61059016D01*
X145280332Y-60799233D01*
X145761782Y-60318622D01*
X146022663Y-59690352D01*
X146022985Y-59320202D01*
X160835317Y-59320202D01*
X160960727Y-59623718D01*
X161192741Y-59856137D01*
X161496037Y-59982077D01*
X161824442Y-59982363D01*
X162127958Y-59856953D01*
X162169049Y-59815934D01*
X162168696Y-60220532D01*
X162400222Y-60780869D01*
X162807697Y-61189056D01*
X162401729Y-61594316D01*
X162169225Y-62154248D01*
X162168696Y-62760532D01*
X162400222Y-63320869D01*
X162807697Y-63729056D01*
X162401729Y-64134316D01*
X162169225Y-64694248D01*
X162168696Y-65300532D01*
X162400222Y-65860869D01*
X162807697Y-66269056D01*
X162401729Y-66674316D01*
X162169225Y-67234248D01*
X162168696Y-67840532D01*
X162400222Y-68400869D01*
X162807697Y-68809056D01*
X162401729Y-69214316D01*
X162169225Y-69774248D01*
X162168696Y-70380532D01*
X162400222Y-70940869D01*
X162807697Y-71349056D01*
X162401729Y-71754316D01*
X162169225Y-72314248D01*
X162168696Y-72920532D01*
X162400222Y-73480869D01*
X162807697Y-73889056D01*
X162401729Y-74294316D01*
X162169225Y-74854248D01*
X162168696Y-75460532D01*
X162400222Y-76020869D01*
X162807697Y-76429056D01*
X162401729Y-76834316D01*
X162169225Y-77394248D01*
X162168696Y-78000532D01*
X162400222Y-78560869D01*
X162807697Y-78969056D01*
X162401729Y-79374316D01*
X162169225Y-79934248D01*
X162168696Y-80540532D01*
X162400222Y-81100869D01*
X162807697Y-81509056D01*
X162401729Y-81914316D01*
X162169225Y-82474248D01*
X162168696Y-83080532D01*
X162400222Y-83640869D01*
X162807697Y-84049056D01*
X162401729Y-84454316D01*
X162169225Y-85014248D01*
X162168696Y-85620532D01*
X162400222Y-86180869D01*
X162807697Y-86589056D01*
X162401729Y-86994316D01*
X162169225Y-87554248D01*
X162168696Y-88160532D01*
X162400222Y-88720869D01*
X162807697Y-89129056D01*
X162401729Y-89534316D01*
X162169225Y-90094248D01*
X162168696Y-90700532D01*
X162400222Y-91260869D01*
X162807697Y-91669056D01*
X162401729Y-92074316D01*
X162169225Y-92634248D01*
X162168696Y-93240532D01*
X162400222Y-93800869D01*
X162807697Y-94209056D01*
X162401729Y-94614316D01*
X162169225Y-95174248D01*
X162168696Y-95780532D01*
X162400222Y-96340869D01*
X162828556Y-96769951D01*
X162855466Y-96781125D01*
X162800369Y-96946524D01*
X163692960Y-97839115D01*
X164585551Y-96946524D01*
X164530607Y-96781582D01*
X164555109Y-96771458D01*
X164963296Y-96363983D01*
X165347697Y-96749056D01*
X164941729Y-97154316D01*
X164930555Y-97181226D01*
X164765156Y-97126129D01*
X163872565Y-98018720D01*
X164765156Y-98911311D01*
X164930098Y-98856367D01*
X164940222Y-98880869D01*
X165347697Y-99289056D01*
X164962624Y-99673457D01*
X164557364Y-99267489D01*
X164530454Y-99256315D01*
X164585551Y-99090916D01*
X163692960Y-98198325D01*
X162800369Y-99090916D01*
X162855313Y-99255858D01*
X162830811Y-99265982D01*
X162401729Y-99694316D01*
X162169225Y-100254248D01*
X162168696Y-100860532D01*
X162400222Y-101420869D01*
X162807697Y-101829056D01*
X162401729Y-102234316D01*
X162169225Y-102794248D01*
X162168696Y-103400532D01*
X162400222Y-103960869D01*
X162807697Y-104369056D01*
X162401729Y-104774316D01*
X162169225Y-105334248D01*
X162168696Y-105940532D01*
X162400222Y-106500869D01*
X162807697Y-106909056D01*
X162401729Y-107314316D01*
X162169225Y-107874248D01*
X162168696Y-108480532D01*
X162400222Y-109040869D01*
X162828556Y-109469951D01*
X163388488Y-109702455D01*
X163994772Y-109702984D01*
X164555109Y-109471458D01*
X164963296Y-109063983D01*
X165368556Y-109469951D01*
X165928488Y-109702455D01*
X166534772Y-109702984D01*
X167095109Y-109471458D01*
X167524191Y-109043124D01*
X167756695Y-108483192D01*
X167757224Y-107876908D01*
X167525698Y-107316571D01*
X167118223Y-106908384D01*
X167524191Y-106503124D01*
X167756695Y-105943192D01*
X167757224Y-105336908D01*
X167525698Y-104776571D01*
X167118223Y-104368384D01*
X167524191Y-103963124D01*
X167756695Y-103403192D01*
X167757224Y-102796908D01*
X167525698Y-102236571D01*
X167118223Y-101828384D01*
X167524191Y-101423124D01*
X167756695Y-100863192D01*
X167757224Y-100256908D01*
X167525698Y-99696571D01*
X167118223Y-99288384D01*
X167524191Y-98883124D01*
X167756695Y-98323192D01*
X167757224Y-97716908D01*
X167525698Y-97156571D01*
X167118223Y-96748384D01*
X167524191Y-96343124D01*
X167756695Y-95783192D01*
X167757224Y-95176908D01*
X167525698Y-94616571D01*
X167118223Y-94208384D01*
X167524191Y-93803124D01*
X167756695Y-93243192D01*
X167757224Y-92636908D01*
X167525698Y-92076571D01*
X167118223Y-91668384D01*
X167524191Y-91263124D01*
X167756695Y-90703192D01*
X167757224Y-90096908D01*
X167525698Y-89536571D01*
X167118223Y-89128384D01*
X167524191Y-88723124D01*
X167756695Y-88163192D01*
X167757224Y-87556908D01*
X167525698Y-86996571D01*
X167118223Y-86588384D01*
X167524191Y-86183124D01*
X167756695Y-85623192D01*
X167757224Y-85016908D01*
X167525698Y-84456571D01*
X167118223Y-84048384D01*
X167524191Y-83643124D01*
X167756695Y-83083192D01*
X167757224Y-82476908D01*
X167525698Y-81916571D01*
X167118223Y-81508384D01*
X167524191Y-81103124D01*
X167756695Y-80543192D01*
X167757224Y-79936908D01*
X167525698Y-79376571D01*
X167118223Y-78968384D01*
X167524191Y-78563124D01*
X167756695Y-78003192D01*
X167757224Y-77396908D01*
X167525698Y-76836571D01*
X167118223Y-76428384D01*
X167524191Y-76023124D01*
X167756695Y-75463192D01*
X167757224Y-74856908D01*
X167525698Y-74296571D01*
X167118223Y-73888384D01*
X167524191Y-73483124D01*
X167756695Y-72923192D01*
X167757224Y-72316908D01*
X167525698Y-71756571D01*
X167118223Y-71348384D01*
X167524191Y-70943124D01*
X167756695Y-70383192D01*
X167757224Y-69776908D01*
X167525698Y-69216571D01*
X167118223Y-68808384D01*
X167524191Y-68403124D01*
X167756695Y-67843192D01*
X167757224Y-67236908D01*
X167525698Y-66676571D01*
X167118223Y-66268384D01*
X167524191Y-65863124D01*
X167756695Y-65303192D01*
X167757224Y-64696908D01*
X167525698Y-64136571D01*
X167118223Y-63728384D01*
X167524191Y-63323124D01*
X167756695Y-62763192D01*
X167757224Y-62156908D01*
X167525698Y-61596571D01*
X167118223Y-61188384D01*
X167524191Y-60783124D01*
X167756695Y-60223192D01*
X167756960Y-59918720D01*
X168528867Y-59918720D01*
X168641906Y-60487005D01*
X168963813Y-60968774D01*
X169292986Y-61188720D01*
X168963813Y-61408666D01*
X168641906Y-61890435D01*
X168528867Y-62458720D01*
X168641906Y-63027005D01*
X168963813Y-63508774D01*
X169292986Y-63728720D01*
X168963813Y-63948666D01*
X168641906Y-64430435D01*
X168528867Y-64998720D01*
X168641906Y-65567005D01*
X168963813Y-66048774D01*
X169292986Y-66268720D01*
X168963813Y-66488666D01*
X168641906Y-66970435D01*
X168528867Y-67538720D01*
X168641906Y-68107005D01*
X168963813Y-68588774D01*
X169292986Y-68808720D01*
X168963813Y-69028666D01*
X168641906Y-69510435D01*
X168528867Y-70078720D01*
X168641906Y-70647005D01*
X168963813Y-71128774D01*
X169292986Y-71348720D01*
X168963813Y-71568666D01*
X168641906Y-72050435D01*
X168528867Y-72618720D01*
X168641906Y-73187005D01*
X168963813Y-73668774D01*
X169292986Y-73888720D01*
X168963813Y-74108666D01*
X168641906Y-74590435D01*
X168528867Y-75158720D01*
X168641906Y-75727005D01*
X168963813Y-76208774D01*
X169292986Y-76428720D01*
X168963813Y-76648666D01*
X168641906Y-77130435D01*
X168528867Y-77698720D01*
X168641906Y-78267005D01*
X168963813Y-78748774D01*
X169292986Y-78968720D01*
X168963813Y-79188666D01*
X168641906Y-79670435D01*
X168528867Y-80238720D01*
X168641906Y-80807005D01*
X168963813Y-81288774D01*
X169292986Y-81508720D01*
X168963813Y-81728666D01*
X168641906Y-82210435D01*
X168528867Y-82778720D01*
X168641906Y-83347005D01*
X168963813Y-83828774D01*
X169292986Y-84048720D01*
X168963813Y-84268666D01*
X168641906Y-84750435D01*
X168528867Y-85318720D01*
X168641906Y-85887005D01*
X168963813Y-86368774D01*
X169292986Y-86588720D01*
X168963813Y-86808666D01*
X168641906Y-87290435D01*
X168528867Y-87858720D01*
X168641906Y-88427005D01*
X168963813Y-88908774D01*
X169292986Y-89128720D01*
X168963813Y-89348666D01*
X168641906Y-89830435D01*
X168528867Y-90398720D01*
X168641906Y-90967005D01*
X168963813Y-91448774D01*
X169292986Y-91668720D01*
X168963813Y-91888666D01*
X168641906Y-92370435D01*
X168528867Y-92938720D01*
X168641906Y-93507005D01*
X168963813Y-93988774D01*
X169292986Y-94208720D01*
X168963813Y-94428666D01*
X168641906Y-94910435D01*
X168528867Y-95478720D01*
X168641906Y-96047005D01*
X168963813Y-96528774D01*
X169292986Y-96748720D01*
X168963813Y-96968666D01*
X168641906Y-97450435D01*
X168528867Y-98018720D01*
X168641906Y-98587005D01*
X168963813Y-99068774D01*
X169292986Y-99288720D01*
X168963813Y-99508666D01*
X168641906Y-99990435D01*
X168528867Y-100558720D01*
X168641906Y-101127005D01*
X168963813Y-101608774D01*
X169292986Y-101828720D01*
X168963813Y-102048666D01*
X168641906Y-102530435D01*
X168528867Y-103098720D01*
X168641906Y-103667005D01*
X168963813Y-104148774D01*
X169292986Y-104368720D01*
X168963813Y-104588666D01*
X168641906Y-105070435D01*
X168528867Y-105638720D01*
X168641906Y-106207005D01*
X168963813Y-106688774D01*
X169292986Y-106908720D01*
X168963813Y-107128666D01*
X168641906Y-107610435D01*
X168528867Y-108178720D01*
X168641906Y-108747005D01*
X168963813Y-109228774D01*
X169445582Y-109550681D01*
X170013867Y-109663720D01*
X170072053Y-109663720D01*
X170640338Y-109550681D01*
X171122107Y-109228774D01*
X171122931Y-109227541D01*
X171129798Y-109264037D01*
X171268870Y-109480161D01*
X171481070Y-109625151D01*
X171732960Y-109676160D01*
X173432960Y-109676160D01*
X173668277Y-109631882D01*
X173884401Y-109492810D01*
X174029391Y-109280610D01*
X174080400Y-109028720D01*
X174080400Y-107328720D01*
X174036122Y-107093403D01*
X173897050Y-106877279D01*
X173684850Y-106732289D01*
X173617419Y-106718634D01*
X173662107Y-106688774D01*
X173984014Y-106207005D01*
X174097053Y-105638720D01*
X173984014Y-105070435D01*
X173662107Y-104588666D01*
X173332934Y-104368720D01*
X173662107Y-104148774D01*
X173984014Y-103667005D01*
X174097053Y-103098720D01*
X173984014Y-102530435D01*
X173662107Y-102048666D01*
X173332934Y-101828720D01*
X173662107Y-101608774D01*
X173745343Y-101484202D01*
X175313317Y-101484202D01*
X175438727Y-101787718D01*
X175670741Y-102020137D01*
X175974037Y-102146077D01*
X176302442Y-102146363D01*
X176605958Y-102020953D01*
X176838377Y-101788939D01*
X176964317Y-101485643D01*
X176964603Y-101157238D01*
X176839193Y-100853722D01*
X176607179Y-100621303D01*
X176303883Y-100495363D01*
X175975478Y-100495077D01*
X175671962Y-100620487D01*
X175439543Y-100852501D01*
X175313603Y-101155797D01*
X175313317Y-101484202D01*
X173745343Y-101484202D01*
X173984014Y-101127005D01*
X174097053Y-100558720D01*
X173984014Y-99990435D01*
X173662107Y-99508666D01*
X173332934Y-99288720D01*
X173662107Y-99068774D01*
X173745343Y-98944202D01*
X183949317Y-98944202D01*
X184074727Y-99247718D01*
X184306741Y-99480137D01*
X184610037Y-99606077D01*
X184938442Y-99606363D01*
X185241958Y-99480953D01*
X185474377Y-99248939D01*
X185600317Y-98945643D01*
X185600603Y-98617238D01*
X185475193Y-98313722D01*
X185243179Y-98081303D01*
X185232545Y-98076887D01*
X197301798Y-98076887D01*
X197443843Y-98420663D01*
X197706633Y-98683912D01*
X198050161Y-98826558D01*
X198422127Y-98826882D01*
X198765903Y-98684837D01*
X199029152Y-98422047D01*
X199171798Y-98078519D01*
X199171799Y-98076887D01*
X201111798Y-98076887D01*
X201253843Y-98420663D01*
X201516633Y-98683912D01*
X201860161Y-98826558D01*
X202232127Y-98826882D01*
X202575903Y-98684837D01*
X202839152Y-98422047D01*
X202981798Y-98078519D01*
X202982122Y-97706553D01*
X202840077Y-97362777D01*
X202577287Y-97099528D01*
X202233759Y-96956882D01*
X201861793Y-96956558D01*
X201518017Y-97098603D01*
X201254768Y-97361393D01*
X201112122Y-97704921D01*
X201111798Y-98076887D01*
X199171799Y-98076887D01*
X199172122Y-97706553D01*
X199030077Y-97362777D01*
X198767287Y-97099528D01*
X198423759Y-96956882D01*
X198051793Y-96956558D01*
X197708017Y-97098603D01*
X197444768Y-97361393D01*
X197302122Y-97704921D01*
X197301798Y-98076887D01*
X185232545Y-98076887D01*
X184939883Y-97955363D01*
X184611478Y-97955077D01*
X184307962Y-98080487D01*
X184075543Y-98312501D01*
X183949603Y-98615797D01*
X183949317Y-98944202D01*
X173745343Y-98944202D01*
X173984014Y-98587005D01*
X174097053Y-98018720D01*
X173984014Y-97450435D01*
X173662107Y-96968666D01*
X173332934Y-96748720D01*
X173662107Y-96528774D01*
X173984014Y-96047005D01*
X174097053Y-95478720D01*
X173984014Y-94910435D01*
X173794097Y-94626202D01*
X175313317Y-94626202D01*
X175438727Y-94929718D01*
X175670741Y-95162137D01*
X175974037Y-95288077D01*
X176302442Y-95288363D01*
X176605958Y-95162953D01*
X176838377Y-94930939D01*
X176964317Y-94627643D01*
X176964603Y-94299238D01*
X176839193Y-93995722D01*
X176607179Y-93763303D01*
X176303883Y-93637363D01*
X175975478Y-93637077D01*
X175671962Y-93762487D01*
X175439543Y-93994501D01*
X175313603Y-94297797D01*
X175313317Y-94626202D01*
X173794097Y-94626202D01*
X173662107Y-94428666D01*
X173332934Y-94208720D01*
X173662107Y-93988774D01*
X173984014Y-93507005D01*
X174097053Y-92938720D01*
X173984014Y-92370435D01*
X173662107Y-91888666D01*
X173332934Y-91668720D01*
X173662107Y-91448774D01*
X173915060Y-91070202D01*
X175313317Y-91070202D01*
X175438727Y-91373718D01*
X175670741Y-91606137D01*
X175974037Y-91732077D01*
X176302442Y-91732363D01*
X176605958Y-91606953D01*
X176838377Y-91374939D01*
X176964317Y-91071643D01*
X176964603Y-90743238D01*
X176839193Y-90439722D01*
X176607179Y-90207303D01*
X176303883Y-90081363D01*
X175975478Y-90081077D01*
X175671962Y-90206487D01*
X175439543Y-90438501D01*
X175313603Y-90741797D01*
X175313317Y-91070202D01*
X173915060Y-91070202D01*
X173984014Y-90967005D01*
X174097053Y-90398720D01*
X173984014Y-89830435D01*
X173662107Y-89348666D01*
X173332934Y-89128720D01*
X173662107Y-88908774D01*
X173984014Y-88427005D01*
X174097053Y-87858720D01*
X173984014Y-87290435D01*
X173662107Y-86808666D01*
X173332934Y-86588720D01*
X173662107Y-86368774D01*
X173906657Y-86002777D01*
X193791806Y-86002777D01*
X193926863Y-86329640D01*
X194176724Y-86579938D01*
X194503351Y-86715566D01*
X194857017Y-86715874D01*
X195183880Y-86580817D01*
X195434178Y-86330956D01*
X195569806Y-86004329D01*
X195570114Y-85650663D01*
X195435057Y-85323800D01*
X195185196Y-85073502D01*
X194858569Y-84937874D01*
X194504903Y-84937566D01*
X194178040Y-85072623D01*
X193927742Y-85322484D01*
X193792114Y-85649111D01*
X193791806Y-86002777D01*
X173906657Y-86002777D01*
X173984014Y-85887005D01*
X174097053Y-85318720D01*
X173984014Y-84750435D01*
X173662107Y-84268666D01*
X173332934Y-84048720D01*
X173662107Y-83828774D01*
X173906657Y-83462777D01*
X182869806Y-83462777D01*
X183004863Y-83789640D01*
X183254724Y-84039938D01*
X183581351Y-84175566D01*
X183935017Y-84175874D01*
X183977856Y-84158173D01*
X183886114Y-84379111D01*
X183885806Y-84732777D01*
X184020863Y-85059640D01*
X184270724Y-85309938D01*
X184597351Y-85445566D01*
X184951017Y-85445874D01*
X185277880Y-85310817D01*
X185528178Y-85060956D01*
X185663806Y-84734329D01*
X185664114Y-84380663D01*
X185529057Y-84053800D01*
X185279196Y-83803502D01*
X184952569Y-83667874D01*
X184598903Y-83667566D01*
X184556064Y-83685267D01*
X184617119Y-83538230D01*
X198744740Y-83538230D01*
X198937678Y-84005178D01*
X199294623Y-84362746D01*
X199761233Y-84556499D01*
X200266470Y-84556940D01*
X200733418Y-84364002D01*
X201090986Y-84007057D01*
X201284739Y-83540447D01*
X201284766Y-83508777D01*
X205221806Y-83508777D01*
X205356863Y-83835640D01*
X205606724Y-84085938D01*
X205933351Y-84221566D01*
X206287017Y-84221874D01*
X206613880Y-84086817D01*
X206652043Y-84048720D01*
X210438867Y-84048720D01*
X210551906Y-84617005D01*
X210873813Y-85098774D01*
X211202986Y-85318720D01*
X210873813Y-85538666D01*
X210551906Y-86020435D01*
X210438867Y-86588720D01*
X210551906Y-87157005D01*
X210873813Y-87638774D01*
X211214513Y-87866422D01*
X211071602Y-87933537D01*
X210681315Y-88361796D01*
X210511484Y-88771830D01*
X210632805Y-89001720D01*
X211825960Y-89001720D01*
X211825960Y-88981720D01*
X212079960Y-88981720D01*
X212079960Y-89001720D01*
X214365960Y-89001720D01*
X214365960Y-86715720D01*
X214345960Y-86715720D01*
X214345960Y-86461720D01*
X214365960Y-86461720D01*
X214365960Y-84175720D01*
X214345960Y-84175720D01*
X214345960Y-83921720D01*
X214365960Y-83921720D01*
X214365960Y-81635720D01*
X212079960Y-81635720D01*
X212079960Y-81655720D01*
X211825960Y-81655720D01*
X211825960Y-81635720D01*
X210632805Y-81635720D01*
X210511484Y-81865610D01*
X210681315Y-82275644D01*
X211071602Y-82703903D01*
X211214513Y-82771018D01*
X210873813Y-82998666D01*
X210551906Y-83480435D01*
X210438867Y-84048720D01*
X206652043Y-84048720D01*
X206864178Y-83836956D01*
X206999806Y-83510329D01*
X207000114Y-83156663D01*
X206865057Y-82829800D01*
X206615196Y-82579502D01*
X206288569Y-82443874D01*
X205934903Y-82443566D01*
X205608040Y-82578623D01*
X205357742Y-82828484D01*
X205222114Y-83155111D01*
X205221806Y-83508777D01*
X201284766Y-83508777D01*
X201285180Y-83035210D01*
X201092242Y-82568262D01*
X200735297Y-82210694D01*
X200268687Y-82016941D01*
X199763450Y-82016500D01*
X199296502Y-82209438D01*
X198938934Y-82566383D01*
X198745181Y-83032993D01*
X198744740Y-83538230D01*
X184617119Y-83538230D01*
X184647806Y-83464329D01*
X184648114Y-83110663D01*
X184513057Y-82783800D01*
X184263196Y-82533502D01*
X183936569Y-82397874D01*
X183582903Y-82397566D01*
X183256040Y-82532623D01*
X183005742Y-82782484D01*
X182870114Y-83109111D01*
X182869806Y-83462777D01*
X173906657Y-83462777D01*
X173984014Y-83347005D01*
X174097053Y-82778720D01*
X173984014Y-82210435D01*
X173662107Y-81728666D01*
X173596423Y-81684777D01*
X205221806Y-81684777D01*
X205356863Y-82011640D01*
X205606724Y-82261938D01*
X205933351Y-82397566D01*
X206287017Y-82397874D01*
X206613880Y-82262817D01*
X206745971Y-82130956D01*
X206876724Y-82261938D01*
X207203351Y-82397566D01*
X207557017Y-82397874D01*
X207883880Y-82262817D01*
X208134178Y-82012956D01*
X208269806Y-81686329D01*
X208270114Y-81332663D01*
X208135057Y-81005800D01*
X207885196Y-80755502D01*
X207558569Y-80619874D01*
X207204903Y-80619566D01*
X206878040Y-80754623D01*
X206745949Y-80886484D01*
X206615196Y-80755502D01*
X206288569Y-80619874D01*
X205934903Y-80619566D01*
X205608040Y-80754623D01*
X205357742Y-81004484D01*
X205222114Y-81331111D01*
X205221806Y-81684777D01*
X173596423Y-81684777D01*
X173332934Y-81508720D01*
X173662107Y-81288774D01*
X173984014Y-80807005D01*
X174097053Y-80238720D01*
X173986867Y-79684777D01*
X202583806Y-79684777D01*
X202718863Y-80011640D01*
X202968724Y-80261938D01*
X203295351Y-80397566D01*
X203649017Y-80397874D01*
X203975880Y-80262817D01*
X204226178Y-80012956D01*
X204361806Y-79686329D01*
X204362114Y-79332663D01*
X204227057Y-79005800D01*
X203977196Y-78755502D01*
X203650569Y-78619874D01*
X203296903Y-78619566D01*
X202970040Y-78754623D01*
X202719742Y-79004484D01*
X202584114Y-79331111D01*
X202583806Y-79684777D01*
X173986867Y-79684777D01*
X173984014Y-79670435D01*
X173662107Y-79188666D01*
X173332934Y-78968720D01*
X173662107Y-78748774D01*
X173984014Y-78267005D01*
X174097053Y-77698720D01*
X173984014Y-77130435D01*
X173662107Y-76648666D01*
X173596423Y-76604777D01*
X205983806Y-76604777D01*
X206118863Y-76931640D01*
X206368724Y-77181938D01*
X206695351Y-77317566D01*
X207049017Y-77317874D01*
X207375880Y-77182817D01*
X207507971Y-77050956D01*
X207638724Y-77181938D01*
X207965351Y-77317566D01*
X208319017Y-77317874D01*
X208645880Y-77182817D01*
X208896178Y-76932956D01*
X209031806Y-76606329D01*
X209032114Y-76252663D01*
X208897057Y-75925800D01*
X208647196Y-75675502D01*
X208320569Y-75539874D01*
X207966903Y-75539566D01*
X207640040Y-75674623D01*
X207507949Y-75806484D01*
X207377196Y-75675502D01*
X207050569Y-75539874D01*
X206696903Y-75539566D01*
X206370040Y-75674623D01*
X206119742Y-75924484D01*
X205984114Y-76251111D01*
X205983806Y-76604777D01*
X173596423Y-76604777D01*
X173332934Y-76428720D01*
X173662107Y-76208774D01*
X173984014Y-75727005D01*
X174062033Y-75334777D01*
X187187806Y-75334777D01*
X187322863Y-75661640D01*
X187572724Y-75911938D01*
X187899351Y-76047566D01*
X188253017Y-76047874D01*
X188579880Y-75912817D01*
X188830178Y-75662956D01*
X188965806Y-75336329D01*
X188966114Y-74982663D01*
X188831057Y-74655800D01*
X188581196Y-74405502D01*
X188254569Y-74269874D01*
X187900903Y-74269566D01*
X187574040Y-74404623D01*
X187323742Y-74654484D01*
X187188114Y-74981111D01*
X187187806Y-75334777D01*
X174062033Y-75334777D01*
X174097053Y-75158720D01*
X173984014Y-74590435D01*
X173662107Y-74108666D01*
X173547671Y-74032202D01*
X200459317Y-74032202D01*
X200584727Y-74335718D01*
X200816741Y-74568137D01*
X201120037Y-74694077D01*
X201448442Y-74694363D01*
X201751958Y-74568953D01*
X201984377Y-74336939D01*
X202110317Y-74033643D01*
X202110603Y-73705238D01*
X201985193Y-73401722D01*
X201753179Y-73169303D01*
X201449883Y-73043363D01*
X201121478Y-73043077D01*
X200817962Y-73168487D01*
X200585543Y-73400501D01*
X200459603Y-73703797D01*
X200459317Y-74032202D01*
X173547671Y-74032202D01*
X173332934Y-73888720D01*
X173662107Y-73668774D01*
X173984014Y-73187005D01*
X174062033Y-72794777D01*
X182869806Y-72794777D01*
X183004863Y-73121640D01*
X183254724Y-73371938D01*
X183581351Y-73507566D01*
X183935017Y-73507874D01*
X184261880Y-73372817D01*
X184512178Y-73122956D01*
X184647806Y-72796329D01*
X184647807Y-72794780D01*
X184782863Y-73121640D01*
X185032724Y-73371938D01*
X185359351Y-73507566D01*
X185713017Y-73507874D01*
X186039880Y-73372817D01*
X186290178Y-73122956D01*
X186425806Y-72796329D01*
X186426114Y-72442663D01*
X186361704Y-72286777D01*
X187187806Y-72286777D01*
X187322863Y-72613640D01*
X187572724Y-72863938D01*
X187899351Y-72999566D01*
X188253017Y-72999874D01*
X188579880Y-72864817D01*
X188830178Y-72614956D01*
X188965806Y-72288329D01*
X188966114Y-71934663D01*
X188831057Y-71607800D01*
X188581196Y-71357502D01*
X188254569Y-71221874D01*
X187900903Y-71221566D01*
X187574040Y-71356623D01*
X187323742Y-71606484D01*
X187188114Y-71933111D01*
X187187806Y-72286777D01*
X186361704Y-72286777D01*
X186291057Y-72115800D01*
X186041196Y-71865502D01*
X185714569Y-71729874D01*
X185360903Y-71729566D01*
X185034040Y-71864623D01*
X184783742Y-72114484D01*
X184648114Y-72441111D01*
X184648113Y-72442660D01*
X184513057Y-72115800D01*
X184263196Y-71865502D01*
X183936569Y-71729874D01*
X183582903Y-71729566D01*
X183256040Y-71864623D01*
X183005742Y-72114484D01*
X182870114Y-72441111D01*
X182869806Y-72794777D01*
X174062033Y-72794777D01*
X174097053Y-72618720D01*
X173984014Y-72050435D01*
X173662107Y-71568666D01*
X173332934Y-71348720D01*
X173662107Y-71128774D01*
X173984014Y-70647005D01*
X174097053Y-70078720D01*
X173984014Y-69510435D01*
X173748364Y-69157759D01*
X179065056Y-69157759D01*
X179225919Y-69546143D01*
X179601826Y-69961109D01*
X180107919Y-70200634D01*
X180329960Y-70079349D01*
X180329960Y-68935720D01*
X180583960Y-68935720D01*
X180583960Y-70079349D01*
X180806001Y-70200634D01*
X181312094Y-69961109D01*
X181688001Y-69546143D01*
X181848864Y-69157759D01*
X181746919Y-68972202D01*
X182933317Y-68972202D01*
X183058727Y-69275718D01*
X183290741Y-69508137D01*
X183594037Y-69634077D01*
X183922442Y-69634363D01*
X184225958Y-69508953D01*
X184458377Y-69276939D01*
X184584317Y-68973643D01*
X184584603Y-68645238D01*
X184459193Y-68341722D01*
X184227179Y-68109303D01*
X183923883Y-67983363D01*
X183595478Y-67983077D01*
X183291962Y-68108487D01*
X183059543Y-68340501D01*
X182933603Y-68643797D01*
X182933317Y-68972202D01*
X181746919Y-68972202D01*
X181726875Y-68935720D01*
X180583960Y-68935720D01*
X180329960Y-68935720D01*
X179187045Y-68935720D01*
X179065056Y-69157759D01*
X173748364Y-69157759D01*
X173662107Y-69028666D01*
X173332934Y-68808720D01*
X173662107Y-68588774D01*
X173984014Y-68107005D01*
X174097053Y-67538720D01*
X173984014Y-66970435D01*
X173748364Y-66617759D01*
X179065056Y-66617759D01*
X179225919Y-67006143D01*
X179601826Y-67421109D01*
X179850327Y-67538720D01*
X179601826Y-67656331D01*
X179225919Y-68071297D01*
X179065056Y-68459681D01*
X179187045Y-68681720D01*
X180329960Y-68681720D01*
X180329960Y-66395720D01*
X180583960Y-66395720D01*
X180583960Y-68681720D01*
X181726875Y-68681720D01*
X181848864Y-68459681D01*
X181688001Y-68071297D01*
X181312094Y-67656331D01*
X181063593Y-67538720D01*
X181312094Y-67421109D01*
X181688001Y-67006143D01*
X181848864Y-66617759D01*
X181746919Y-66432202D01*
X183949317Y-66432202D01*
X184074727Y-66735718D01*
X184306741Y-66968137D01*
X184610037Y-67094077D01*
X184938442Y-67094363D01*
X185241958Y-66968953D01*
X185474377Y-66736939D01*
X185600317Y-66433643D01*
X185600603Y-66105238D01*
X185475193Y-65801722D01*
X185243179Y-65569303D01*
X184939883Y-65443363D01*
X184611478Y-65443077D01*
X184307962Y-65568487D01*
X184075543Y-65800501D01*
X183949603Y-66103797D01*
X183949317Y-66432202D01*
X181746919Y-66432202D01*
X181726875Y-66395720D01*
X180583960Y-66395720D01*
X180329960Y-66395720D01*
X179187045Y-66395720D01*
X179065056Y-66617759D01*
X173748364Y-66617759D01*
X173662107Y-66488666D01*
X173332934Y-66268720D01*
X173662107Y-66048774D01*
X173984014Y-65567005D01*
X174097053Y-64998720D01*
X173984014Y-64430435D01*
X173748364Y-64077759D01*
X179065056Y-64077759D01*
X179225919Y-64466143D01*
X179601826Y-64881109D01*
X179850327Y-64998720D01*
X179601826Y-65116331D01*
X179225919Y-65531297D01*
X179065056Y-65919681D01*
X179187045Y-66141720D01*
X180329960Y-66141720D01*
X180329960Y-63855720D01*
X180583960Y-63855720D01*
X180583960Y-66141720D01*
X181726875Y-66141720D01*
X181848864Y-65919681D01*
X181688001Y-65531297D01*
X181312094Y-65116331D01*
X181063593Y-64998720D01*
X181312094Y-64881109D01*
X181688001Y-64466143D01*
X181848864Y-64077759D01*
X181726875Y-63855720D01*
X180583960Y-63855720D01*
X180329960Y-63855720D01*
X179187045Y-63855720D01*
X179065056Y-64077759D01*
X173748364Y-64077759D01*
X173662107Y-63948666D01*
X173332934Y-63728720D01*
X173662107Y-63508774D01*
X173984014Y-63027005D01*
X174097053Y-62458720D01*
X173984014Y-61890435D01*
X173706076Y-61474470D01*
X179021960Y-61474470D01*
X179021960Y-62115030D01*
X179118633Y-62348419D01*
X179297262Y-62527047D01*
X179530651Y-62623720D01*
X179558898Y-62623720D01*
X179225919Y-62991297D01*
X179065056Y-63379681D01*
X179187045Y-63601720D01*
X180329960Y-63601720D01*
X180329960Y-61315720D01*
X180583960Y-61315720D01*
X180583960Y-63601720D01*
X181726875Y-63601720D01*
X181848864Y-63379681D01*
X181688001Y-62991297D01*
X181355022Y-62623720D01*
X181383269Y-62623720D01*
X181616658Y-62527047D01*
X181795287Y-62348419D01*
X181891960Y-62115030D01*
X181891960Y-61474470D01*
X181733210Y-61315720D01*
X180583960Y-61315720D01*
X180329960Y-61315720D01*
X179180710Y-61315720D01*
X179021960Y-61474470D01*
X173706076Y-61474470D01*
X173662107Y-61408666D01*
X173332934Y-61188720D01*
X186613847Y-61188720D01*
X186723080Y-61737871D01*
X187034149Y-62203418D01*
X187416235Y-62458720D01*
X187034149Y-62714022D01*
X186723080Y-63179569D01*
X186613847Y-63728720D01*
X186723080Y-64277871D01*
X187034149Y-64743418D01*
X187416235Y-64998720D01*
X187034149Y-65254022D01*
X186723080Y-65719569D01*
X186613847Y-66268720D01*
X186723080Y-66817871D01*
X187034149Y-67283418D01*
X187416235Y-67538720D01*
X187034149Y-67794022D01*
X186723080Y-68259569D01*
X186613847Y-68808720D01*
X186723080Y-69357871D01*
X187034149Y-69823418D01*
X187499696Y-70134487D01*
X188048847Y-70243720D01*
X188105073Y-70243720D01*
X188654224Y-70134487D01*
X189119771Y-69823418D01*
X189290282Y-69568230D01*
X192394740Y-69568230D01*
X192587678Y-70035178D01*
X192944623Y-70392746D01*
X193411233Y-70586499D01*
X193916470Y-70586940D01*
X194383418Y-70394002D01*
X194740986Y-70037057D01*
X194934739Y-69570447D01*
X194935180Y-69065210D01*
X194742242Y-68598262D01*
X194385297Y-68240694D01*
X193918687Y-68046941D01*
X193413450Y-68046500D01*
X192946502Y-68239438D01*
X192588934Y-68596383D01*
X192395181Y-69062993D01*
X192394740Y-69568230D01*
X189290282Y-69568230D01*
X189430840Y-69357871D01*
X189540073Y-68808720D01*
X189430840Y-68259569D01*
X189119771Y-67794022D01*
X188737685Y-67538720D01*
X189119771Y-67283418D01*
X189430840Y-66817871D01*
X189431768Y-66813202D01*
X204396317Y-66813202D01*
X204521727Y-67116718D01*
X204753741Y-67349137D01*
X205057037Y-67475077D01*
X205385442Y-67475363D01*
X205688958Y-67349953D01*
X205921377Y-67117939D01*
X206047317Y-66814643D01*
X206047603Y-66486238D01*
X205995851Y-66360988D01*
X206097651Y-66115827D01*
X206097937Y-65787422D01*
X205972527Y-65483906D01*
X205740513Y-65251487D01*
X205437217Y-65125547D01*
X205108812Y-65125261D01*
X204805296Y-65250671D01*
X204572877Y-65482685D01*
X204446937Y-65785981D01*
X204446651Y-66114386D01*
X204498403Y-66239636D01*
X204396603Y-66484797D01*
X204396317Y-66813202D01*
X189431768Y-66813202D01*
X189540073Y-66268720D01*
X189430840Y-65719569D01*
X189119771Y-65254022D01*
X188737685Y-64998720D01*
X188741411Y-64996230D01*
X191886740Y-64996230D01*
X192079678Y-65463178D01*
X192436623Y-65820746D01*
X192903233Y-66014499D01*
X193408470Y-66014940D01*
X193875418Y-65822002D01*
X194232986Y-65465057D01*
X194253273Y-65416200D01*
X195887317Y-65416200D01*
X196012727Y-65719716D01*
X196244741Y-65952135D01*
X196548037Y-66078075D01*
X196876442Y-66078361D01*
X197179958Y-65952951D01*
X197412377Y-65720937D01*
X197538317Y-65417641D01*
X197538603Y-65089236D01*
X197413193Y-64785720D01*
X197181179Y-64553301D01*
X196877883Y-64427361D01*
X196549478Y-64427075D01*
X196245962Y-64552485D01*
X196013543Y-64784499D01*
X195887603Y-65087795D01*
X195887317Y-65416200D01*
X194253273Y-65416200D01*
X194426739Y-64998447D01*
X194427180Y-64493210D01*
X194234242Y-64026262D01*
X193877297Y-63668694D01*
X193410687Y-63474941D01*
X192905450Y-63474500D01*
X192438502Y-63667438D01*
X192080934Y-64024383D01*
X191887181Y-64490993D01*
X191886740Y-64996230D01*
X188741411Y-64996230D01*
X189119771Y-64743418D01*
X189430840Y-64277871D01*
X189540073Y-63728720D01*
X189430840Y-63179569D01*
X189119771Y-62714022D01*
X188737685Y-62458720D01*
X188741411Y-62456230D01*
X195061740Y-62456230D01*
X195254678Y-62923178D01*
X195611623Y-63280746D01*
X196078233Y-63474499D01*
X196583470Y-63474940D01*
X197050418Y-63282002D01*
X197407986Y-62925057D01*
X197601739Y-62458447D01*
X197602180Y-61953210D01*
X197409242Y-61486262D01*
X197052297Y-61128694D01*
X197009148Y-61110777D01*
X203443806Y-61110777D01*
X203578863Y-61437640D01*
X203828724Y-61687938D01*
X204155351Y-61823566D01*
X204509017Y-61823874D01*
X204835880Y-61688817D01*
X205086178Y-61438956D01*
X205221806Y-61112329D01*
X205222114Y-60758663D01*
X205087057Y-60431800D01*
X204837196Y-60181502D01*
X204510569Y-60045874D01*
X204156903Y-60045566D01*
X203830040Y-60180623D01*
X203579742Y-60430484D01*
X203444114Y-60757111D01*
X203443806Y-61110777D01*
X197009148Y-61110777D01*
X196585687Y-60934941D01*
X196080450Y-60934500D01*
X195613502Y-61127438D01*
X195255934Y-61484383D01*
X195062181Y-61950993D01*
X195061740Y-62456230D01*
X188741411Y-62456230D01*
X189119771Y-62203418D01*
X189430840Y-61737871D01*
X189540073Y-61188720D01*
X189430840Y-60639569D01*
X189119771Y-60174022D01*
X188654224Y-59862953D01*
X188105073Y-59753720D01*
X188048847Y-59753720D01*
X187499696Y-59862953D01*
X187034149Y-60174022D01*
X186723080Y-60639569D01*
X186613847Y-61188720D01*
X173332934Y-61188720D01*
X173662107Y-60968774D01*
X173984014Y-60487005D01*
X174028688Y-60262410D01*
X179021960Y-60262410D01*
X179021960Y-60902970D01*
X179180710Y-61061720D01*
X180329960Y-61061720D01*
X180329960Y-59912470D01*
X180583960Y-59912470D01*
X180583960Y-61061720D01*
X181733210Y-61061720D01*
X181891960Y-60902970D01*
X181891960Y-60262410D01*
X181795287Y-60029021D01*
X181616658Y-59850393D01*
X181383269Y-59753720D01*
X180742710Y-59753720D01*
X180583960Y-59912470D01*
X180329960Y-59912470D01*
X180171210Y-59753720D01*
X179530651Y-59753720D01*
X179297262Y-59850393D01*
X179118633Y-60029021D01*
X179021960Y-60262410D01*
X174028688Y-60262410D01*
X174097053Y-59918720D01*
X173984014Y-59350435D01*
X173662107Y-58868666D01*
X173180338Y-58546759D01*
X172612053Y-58433720D01*
X172553867Y-58433720D01*
X171985582Y-58546759D01*
X171503813Y-58868666D01*
X171312960Y-59154298D01*
X171122107Y-58868666D01*
X170640338Y-58546759D01*
X170072053Y-58433720D01*
X170013867Y-58433720D01*
X169445582Y-58546759D01*
X168963813Y-58868666D01*
X168641906Y-59350435D01*
X168528867Y-59918720D01*
X167756960Y-59918720D01*
X167757224Y-59616908D01*
X167525698Y-59056571D01*
X167097364Y-58627489D01*
X166537432Y-58394985D01*
X165931148Y-58394456D01*
X165370811Y-58625982D01*
X164962624Y-59033457D01*
X164557364Y-58627489D01*
X163997432Y-58394985D01*
X163391148Y-58394456D01*
X162830811Y-58625982D01*
X162479685Y-58976496D01*
X162361193Y-58689722D01*
X162129179Y-58457303D01*
X161825883Y-58331363D01*
X161497478Y-58331077D01*
X161193962Y-58456487D01*
X160961543Y-58688501D01*
X160835603Y-58991797D01*
X160835317Y-59320202D01*
X146022985Y-59320202D01*
X146023256Y-59010072D01*
X145763473Y-58381348D01*
X145432905Y-58050202D01*
X180482227Y-58050202D01*
X180607637Y-58353718D01*
X180839651Y-58586137D01*
X181142947Y-58712077D01*
X181471352Y-58712363D01*
X181774868Y-58586953D01*
X182007287Y-58354939D01*
X182133227Y-58051643D01*
X182133242Y-58034251D01*
X192674151Y-58034251D01*
X192854292Y-58470227D01*
X192674592Y-58902993D01*
X192674151Y-59408230D01*
X192867089Y-59875178D01*
X193224034Y-60232746D01*
X193690644Y-60426499D01*
X194195881Y-60426940D01*
X194662829Y-60234002D01*
X195020397Y-59877057D01*
X195214150Y-59410447D01*
X195214591Y-58905210D01*
X195108583Y-58648650D01*
X195440470Y-58648940D01*
X195907418Y-58456002D01*
X196264986Y-58099057D01*
X196458739Y-57632447D01*
X196459180Y-57127210D01*
X196266242Y-56660262D01*
X195909297Y-56302694D01*
X195595537Y-56172410D01*
X195595590Y-56111210D01*
X195562356Y-56030777D01*
X197601806Y-56030777D01*
X197736863Y-56357640D01*
X197986724Y-56607938D01*
X198313351Y-56743566D01*
X198667017Y-56743874D01*
X198993880Y-56608817D01*
X199244178Y-56358956D01*
X199379806Y-56032329D01*
X199380114Y-55678663D01*
X199245057Y-55351800D01*
X198995196Y-55101502D01*
X198668569Y-54965874D01*
X198314903Y-54965566D01*
X197988040Y-55100623D01*
X197737742Y-55350484D01*
X197602114Y-55677111D01*
X197601806Y-56030777D01*
X195562356Y-56030777D01*
X195402652Y-55644262D01*
X195045707Y-55286694D01*
X194579097Y-55092941D01*
X194073860Y-55092500D01*
X193606912Y-55285438D01*
X193249344Y-55642383D01*
X193055591Y-56108993D01*
X193055150Y-56614230D01*
X193131703Y-56799504D01*
X192868345Y-57062404D01*
X192674592Y-57529014D01*
X192674151Y-58034251D01*
X182133242Y-58034251D01*
X182133513Y-57723238D01*
X182008103Y-57419722D01*
X181776089Y-57187303D01*
X181472793Y-57061363D01*
X181144388Y-57061077D01*
X180840872Y-57186487D01*
X180608453Y-57418501D01*
X180482513Y-57721797D01*
X180482227Y-58050202D01*
X145432905Y-58050202D01*
X145282862Y-57899898D01*
X144654592Y-57639017D01*
X143974312Y-57638424D01*
X143345588Y-57898207D01*
X142864138Y-58378818D01*
X142603257Y-59007088D01*
X142602664Y-59687368D01*
X141031035Y-59687368D01*
X140964014Y-59350435D01*
X140642107Y-58868666D01*
X140160338Y-58546759D01*
X139592053Y-58433720D01*
X139533867Y-58433720D01*
X138965582Y-58546759D01*
X138483813Y-58868666D01*
X138292960Y-59154298D01*
X138102107Y-58868666D01*
X137620338Y-58546759D01*
X137052053Y-58433720D01*
X136993867Y-58433720D01*
X136425582Y-58546759D01*
X135943813Y-58868666D01*
X135621906Y-59350435D01*
X135508867Y-59918720D01*
X130341960Y-59918720D01*
X130341960Y-55776777D01*
X182869806Y-55776777D01*
X183004863Y-56103640D01*
X183254724Y-56353938D01*
X183581351Y-56489566D01*
X183935017Y-56489874D01*
X184261880Y-56354817D01*
X184512178Y-56104956D01*
X184647806Y-55778329D01*
X184648114Y-55424663D01*
X184513057Y-55097800D01*
X184263196Y-54847502D01*
X183936569Y-54711874D01*
X183582903Y-54711566D01*
X183256040Y-54846623D01*
X183005742Y-55096484D01*
X182870114Y-55423111D01*
X182869806Y-55776777D01*
X130341960Y-55776777D01*
X130341960Y-53224202D01*
X172265317Y-53224202D01*
X172390727Y-53527718D01*
X172622741Y-53760137D01*
X172926037Y-53886077D01*
X173254442Y-53886363D01*
X173557958Y-53760953D01*
X173790377Y-53528939D01*
X173907910Y-53245887D01*
X177235798Y-53245887D01*
X177377843Y-53589663D01*
X177640633Y-53852912D01*
X177984161Y-53995558D01*
X178006984Y-53995578D01*
X177998122Y-54016921D01*
X177997798Y-54388887D01*
X178139843Y-54732663D01*
X178402633Y-54995912D01*
X178746161Y-55138558D01*
X179118127Y-55138882D01*
X179461903Y-54996837D01*
X179725152Y-54734047D01*
X179867798Y-54390519D01*
X179868122Y-54018553D01*
X179726077Y-53674777D01*
X179463287Y-53411528D01*
X179119759Y-53268882D01*
X179096936Y-53268862D01*
X179105798Y-53247519D01*
X179105928Y-53097202D01*
X180012317Y-53097202D01*
X180137727Y-53400718D01*
X180369741Y-53633137D01*
X180673037Y-53759077D01*
X181001442Y-53759363D01*
X181304958Y-53633953D01*
X181448383Y-53490777D01*
X186425806Y-53490777D01*
X186560863Y-53817640D01*
X186810724Y-54067938D01*
X187137351Y-54203566D01*
X187491017Y-54203874D01*
X187817880Y-54068817D01*
X188068178Y-53818956D01*
X188203806Y-53492329D01*
X188204114Y-53138663D01*
X188069057Y-52811800D01*
X187986179Y-52728777D01*
X190972396Y-52728777D01*
X191107453Y-53055640D01*
X191357314Y-53305938D01*
X191683941Y-53441566D01*
X192037607Y-53441874D01*
X192364470Y-53306817D01*
X192614768Y-53056956D01*
X192750396Y-52730329D01*
X192750704Y-52376663D01*
X192615647Y-52049800D01*
X192365786Y-51799502D01*
X192039159Y-51663874D01*
X191685493Y-51663566D01*
X191358630Y-51798623D01*
X191108332Y-52048484D01*
X190972704Y-52375111D01*
X190972396Y-52728777D01*
X187986179Y-52728777D01*
X187819196Y-52561502D01*
X187492569Y-52425874D01*
X187138903Y-52425566D01*
X186812040Y-52560623D01*
X186561742Y-52810484D01*
X186426114Y-53137111D01*
X186425806Y-53490777D01*
X181448383Y-53490777D01*
X181537377Y-53401939D01*
X181663317Y-53098643D01*
X181663603Y-52770238D01*
X181538193Y-52466722D01*
X181306179Y-52234303D01*
X181002883Y-52108363D01*
X180674478Y-52108077D01*
X180370962Y-52233487D01*
X180138543Y-52465501D01*
X180012603Y-52768797D01*
X180012317Y-53097202D01*
X179105928Y-53097202D01*
X179106122Y-52875553D01*
X178964077Y-52531777D01*
X178701287Y-52268528D01*
X178357759Y-52125882D01*
X177985793Y-52125558D01*
X177642017Y-52267603D01*
X177378768Y-52530393D01*
X177236122Y-52873921D01*
X177235798Y-53245887D01*
X173907910Y-53245887D01*
X173916317Y-53225643D01*
X173916603Y-52897238D01*
X173791193Y-52593722D01*
X173559179Y-52361303D01*
X173255883Y-52235363D01*
X172927478Y-52235077D01*
X172623962Y-52360487D01*
X172391543Y-52592501D01*
X172265603Y-52895797D01*
X172265317Y-53224202D01*
X130341960Y-53224202D01*
X130341960Y-51204777D01*
X146293806Y-51204777D01*
X146428863Y-51531640D01*
X146678724Y-51781938D01*
X147005351Y-51917566D01*
X147359017Y-51917874D01*
X147685880Y-51782817D01*
X147936178Y-51532956D01*
X148071806Y-51206329D01*
X148072114Y-50852663D01*
X147937057Y-50525800D01*
X147687196Y-50275502D01*
X147360569Y-50139874D01*
X147006903Y-50139566D01*
X146680040Y-50274623D01*
X146429742Y-50524484D01*
X146294114Y-50851111D01*
X146293806Y-51204777D01*
X130341960Y-51204777D01*
X130341960Y-49934777D01*
X145023806Y-49934777D01*
X145158863Y-50261640D01*
X145408724Y-50511938D01*
X145735351Y-50647566D01*
X146089017Y-50647874D01*
X146415880Y-50512817D01*
X146666178Y-50262956D01*
X146801806Y-49936329D01*
X146802000Y-49712777D01*
X156453806Y-49712777D01*
X156588863Y-50039640D01*
X156838724Y-50289938D01*
X157165351Y-50425566D01*
X157410421Y-50425779D01*
X157410296Y-50569777D01*
X157545353Y-50896640D01*
X157795214Y-51146938D01*
X158121841Y-51282566D01*
X158475507Y-51282874D01*
X158802370Y-51147817D01*
X159052668Y-50897956D01*
X159188296Y-50571329D01*
X159188604Y-50217663D01*
X159159315Y-50146777D01*
X161533806Y-50146777D01*
X161668863Y-50473640D01*
X161918724Y-50723938D01*
X162245351Y-50859566D01*
X162599017Y-50859874D01*
X162925880Y-50724817D01*
X163176178Y-50474956D01*
X163311806Y-50148329D01*
X163312114Y-49794663D01*
X163177057Y-49467800D01*
X163063658Y-49354202D01*
X172265317Y-49354202D01*
X172390727Y-49657718D01*
X172622741Y-49890137D01*
X172926037Y-50016077D01*
X173254442Y-50016363D01*
X173557958Y-49890953D01*
X173781097Y-49668202D01*
X184203317Y-49668202D01*
X184328727Y-49971718D01*
X184560741Y-50204137D01*
X184864037Y-50330077D01*
X185192442Y-50330363D01*
X185495958Y-50204953D01*
X185512162Y-50188777D01*
X186933806Y-50188777D01*
X187068863Y-50515640D01*
X187318724Y-50765938D01*
X187645351Y-50901566D01*
X187999017Y-50901874D01*
X188325880Y-50766817D01*
X188576178Y-50516956D01*
X188711806Y-50190329D01*
X188711850Y-50139831D01*
X188761017Y-50139874D01*
X189087880Y-50004817D01*
X189338178Y-49754956D01*
X189473806Y-49428329D01*
X189474114Y-49074663D01*
X189339057Y-48747800D01*
X189089196Y-48497502D01*
X188762569Y-48361874D01*
X188408903Y-48361566D01*
X188082040Y-48496623D01*
X187831742Y-48746484D01*
X187696114Y-49073111D01*
X187696070Y-49123609D01*
X187646903Y-49123566D01*
X187320040Y-49258623D01*
X187069742Y-49508484D01*
X186934114Y-49835111D01*
X186933806Y-50188777D01*
X185512162Y-50188777D01*
X185728377Y-49972939D01*
X185854317Y-49669643D01*
X185854603Y-49341238D01*
X185729193Y-49037722D01*
X185497179Y-48805303D01*
X185193883Y-48679363D01*
X184865478Y-48679077D01*
X184561962Y-48804487D01*
X184329543Y-49036501D01*
X184203603Y-49339797D01*
X184203317Y-49668202D01*
X173781097Y-49668202D01*
X173790377Y-49658939D01*
X173916317Y-49355643D01*
X173916603Y-49027238D01*
X173791193Y-48723722D01*
X173719798Y-48652202D01*
X180901317Y-48652202D01*
X181026727Y-48955718D01*
X181258741Y-49188137D01*
X181562037Y-49314077D01*
X181890442Y-49314363D01*
X182193958Y-49188953D01*
X182426377Y-48956939D01*
X182552317Y-48653643D01*
X182552603Y-48325238D01*
X182427193Y-48021722D01*
X182195179Y-47789303D01*
X181891883Y-47663363D01*
X181563478Y-47663077D01*
X181259962Y-47788487D01*
X181027543Y-48020501D01*
X180901603Y-48323797D01*
X180901317Y-48652202D01*
X173719798Y-48652202D01*
X173559179Y-48491303D01*
X173255883Y-48365363D01*
X172927478Y-48365077D01*
X172623962Y-48490487D01*
X172391543Y-48722501D01*
X172265603Y-49025797D01*
X172265317Y-49354202D01*
X163063658Y-49354202D01*
X162927196Y-49217502D01*
X162807800Y-49167924D01*
X162957657Y-49106005D01*
X163207955Y-48856144D01*
X163343583Y-48529517D01*
X163343891Y-48175851D01*
X163208834Y-47848988D01*
X162958973Y-47598690D01*
X162632346Y-47463062D01*
X162278680Y-47462754D01*
X161951817Y-47597811D01*
X161701519Y-47847672D01*
X161565891Y-48174299D01*
X161565583Y-48527965D01*
X161700640Y-48854828D01*
X161950501Y-49105126D01*
X162069897Y-49154704D01*
X161920040Y-49216623D01*
X161669742Y-49466484D01*
X161534114Y-49793111D01*
X161533806Y-50146777D01*
X159159315Y-50146777D01*
X159053547Y-49890800D01*
X158803686Y-49640502D01*
X158477059Y-49504874D01*
X158231989Y-49504661D01*
X158232114Y-49360663D01*
X158097057Y-49033800D01*
X157847196Y-48783502D01*
X157520569Y-48647874D01*
X157166903Y-48647566D01*
X156840040Y-48782623D01*
X156589742Y-49032484D01*
X156454114Y-49359111D01*
X156453806Y-49712777D01*
X146802000Y-49712777D01*
X146802114Y-49582663D01*
X146667057Y-49255800D01*
X146417196Y-49005502D01*
X146090569Y-48869874D01*
X145736903Y-48869566D01*
X145410040Y-49004623D01*
X145159742Y-49254484D01*
X145024114Y-49581111D01*
X145023806Y-49934777D01*
X130341960Y-49934777D01*
X130341960Y-46712496D01*
X131292410Y-46712496D01*
X131774756Y-47879863D01*
X132667119Y-48773785D01*
X133833643Y-49258168D01*
X135096736Y-49259270D01*
X136264103Y-48776924D01*
X137158025Y-47884561D01*
X137516362Y-47021590D01*
X137976523Y-47482554D01*
X138583115Y-47734433D01*
X139059814Y-47734849D01*
X138809742Y-47984484D01*
X138674114Y-48311111D01*
X138673806Y-48664777D01*
X138808863Y-48991640D01*
X139058724Y-49241938D01*
X139385351Y-49377566D01*
X139739017Y-49377874D01*
X140065880Y-49242817D01*
X140316178Y-48992956D01*
X140451806Y-48666329D01*
X140452114Y-48312663D01*
X140317057Y-47985800D01*
X140067196Y-47735502D01*
X139740569Y-47599874D01*
X139567333Y-47599723D01*
X139846955Y-47484186D01*
X140311794Y-47020157D01*
X140563673Y-46413565D01*
X140563675Y-46410683D01*
X144881674Y-46410683D01*
X145132494Y-47017715D01*
X145596523Y-47482554D01*
X146203115Y-47734433D01*
X146859923Y-47735006D01*
X147466955Y-47484186D01*
X147930193Y-47021755D01*
X148284756Y-47879863D01*
X149177119Y-48773785D01*
X150343643Y-49258168D01*
X151606736Y-49259270D01*
X152774103Y-48776924D01*
X153522555Y-48029777D01*
X157410296Y-48029777D01*
X157545353Y-48356640D01*
X157795214Y-48606938D01*
X158121841Y-48742566D01*
X158475507Y-48742874D01*
X158802370Y-48607817D01*
X159052668Y-48357956D01*
X159188296Y-48031329D01*
X159188604Y-47677663D01*
X159053547Y-47350800D01*
X158803686Y-47100502D01*
X158477059Y-46964874D01*
X158123393Y-46964566D01*
X157796530Y-47099623D01*
X157546232Y-47349484D01*
X157410604Y-47676111D01*
X157410296Y-48029777D01*
X153522555Y-48029777D01*
X153668025Y-47884561D01*
X154131293Y-46768887D01*
X166567798Y-46768887D01*
X166709843Y-47112663D01*
X166815670Y-47218674D01*
X166710768Y-47323393D01*
X166568122Y-47666921D01*
X166567798Y-48038887D01*
X166709843Y-48382663D01*
X166972633Y-48645912D01*
X167316161Y-48788558D01*
X167688127Y-48788882D01*
X168031903Y-48646837D01*
X168295152Y-48384047D01*
X168437798Y-48040519D01*
X168438122Y-47668553D01*
X168296077Y-47324777D01*
X168190250Y-47218766D01*
X168295152Y-47114047D01*
X168437798Y-46770519D01*
X168438122Y-46398553D01*
X168296077Y-46054777D01*
X168190205Y-45948720D01*
X210438867Y-45948720D01*
X210551906Y-46517005D01*
X210873813Y-46998774D01*
X211202986Y-47218720D01*
X210873813Y-47438666D01*
X210551906Y-47920435D01*
X210438867Y-48488720D01*
X210551906Y-49057005D01*
X210873813Y-49538774D01*
X211202986Y-49758720D01*
X210873813Y-49978666D01*
X210551906Y-50460435D01*
X210438867Y-51028720D01*
X210551906Y-51597005D01*
X210873813Y-52078774D01*
X211202986Y-52298720D01*
X210873813Y-52518666D01*
X210551906Y-53000435D01*
X210438867Y-53568720D01*
X210551906Y-54137005D01*
X210873813Y-54618774D01*
X211202986Y-54838720D01*
X210873813Y-55058666D01*
X210551906Y-55540435D01*
X210438867Y-56108720D01*
X210551906Y-56677005D01*
X210873813Y-57158774D01*
X211202986Y-57378720D01*
X210873813Y-57598666D01*
X210551906Y-58080435D01*
X210438867Y-58648720D01*
X210551906Y-59217005D01*
X210873813Y-59698774D01*
X211202986Y-59918720D01*
X210873813Y-60138666D01*
X210551906Y-60620435D01*
X210438867Y-61188720D01*
X210551906Y-61757005D01*
X210873813Y-62238774D01*
X211202986Y-62458720D01*
X210873813Y-62678666D01*
X210551906Y-63160435D01*
X210438867Y-63728720D01*
X210551906Y-64297005D01*
X210873813Y-64778774D01*
X211202986Y-64998720D01*
X210873813Y-65218666D01*
X210551906Y-65700435D01*
X210438867Y-66268720D01*
X210551906Y-66837005D01*
X210873813Y-67318774D01*
X211202986Y-67538720D01*
X210873813Y-67758666D01*
X210551906Y-68240435D01*
X210438867Y-68808720D01*
X210551906Y-69377005D01*
X210873813Y-69858774D01*
X211202986Y-70078720D01*
X210873813Y-70298666D01*
X210551906Y-70780435D01*
X210438867Y-71348720D01*
X210551906Y-71917005D01*
X210873813Y-72398774D01*
X211202986Y-72618720D01*
X210873813Y-72838666D01*
X210551906Y-73320435D01*
X210438867Y-73888720D01*
X210551906Y-74457005D01*
X210873813Y-74938774D01*
X211202986Y-75158720D01*
X210873813Y-75378666D01*
X210551906Y-75860435D01*
X210438867Y-76428720D01*
X210551906Y-76997005D01*
X210873813Y-77478774D01*
X211202986Y-77698720D01*
X210873813Y-77918666D01*
X210551906Y-78400435D01*
X210438867Y-78968720D01*
X210551906Y-79537005D01*
X210873813Y-80018774D01*
X211214513Y-80246422D01*
X211071602Y-80313537D01*
X210681315Y-80741796D01*
X210511484Y-81151830D01*
X210632805Y-81381720D01*
X211825960Y-81381720D01*
X211825960Y-81361720D01*
X212079960Y-81361720D01*
X212079960Y-81381720D01*
X214365960Y-81381720D01*
X214365960Y-79095720D01*
X214345960Y-79095720D01*
X214345960Y-78841720D01*
X214365960Y-78841720D01*
X214365960Y-76555720D01*
X214345960Y-76555720D01*
X214345960Y-76301720D01*
X214365960Y-76301720D01*
X214365960Y-74015720D01*
X214345960Y-74015720D01*
X214345960Y-73761720D01*
X214365960Y-73761720D01*
X214365960Y-71475720D01*
X214345960Y-71475720D01*
X214345960Y-71221720D01*
X214365960Y-71221720D01*
X214365960Y-68935720D01*
X214345960Y-68935720D01*
X214345960Y-68681720D01*
X214365960Y-68681720D01*
X214365960Y-66395720D01*
X214345960Y-66395720D01*
X214345960Y-66141720D01*
X214365960Y-66141720D01*
X214365960Y-63855720D01*
X214345960Y-63855720D01*
X214345960Y-63601720D01*
X214365960Y-63601720D01*
X214365960Y-63581720D01*
X214619960Y-63581720D01*
X214619960Y-63601720D01*
X214639960Y-63601720D01*
X214639960Y-63855720D01*
X214619960Y-63855720D01*
X214619960Y-66141720D01*
X214639960Y-66141720D01*
X214639960Y-66395720D01*
X214619960Y-66395720D01*
X214619960Y-68681720D01*
X214639960Y-68681720D01*
X214639960Y-68935720D01*
X214619960Y-68935720D01*
X214619960Y-71221720D01*
X214639960Y-71221720D01*
X214639960Y-71475720D01*
X214619960Y-71475720D01*
X214619960Y-73761720D01*
X214639960Y-73761720D01*
X214639960Y-74015720D01*
X214619960Y-74015720D01*
X214619960Y-76301720D01*
X214639960Y-76301720D01*
X214639960Y-76555720D01*
X214619960Y-76555720D01*
X214619960Y-78841720D01*
X214639960Y-78841720D01*
X214639960Y-79095720D01*
X214619960Y-79095720D01*
X214619960Y-81381720D01*
X214639960Y-81381720D01*
X214639960Y-81635720D01*
X214619960Y-81635720D01*
X214619960Y-83921720D01*
X214639960Y-83921720D01*
X214639960Y-84175720D01*
X214619960Y-84175720D01*
X214619960Y-86461720D01*
X214639960Y-86461720D01*
X214639960Y-86715720D01*
X214619960Y-86715720D01*
X214619960Y-89001720D01*
X214639960Y-89001720D01*
X214639960Y-89255720D01*
X214619960Y-89255720D01*
X214619960Y-89275720D01*
X214365960Y-89275720D01*
X214365960Y-89255720D01*
X212079960Y-89255720D01*
X212079960Y-89275720D01*
X211825960Y-89275720D01*
X211825960Y-89255720D01*
X210632805Y-89255720D01*
X210511484Y-89485610D01*
X210681315Y-89895644D01*
X211071602Y-90323903D01*
X211214513Y-90391018D01*
X210873813Y-90618666D01*
X210551906Y-91100435D01*
X210438867Y-91668720D01*
X210551906Y-92237005D01*
X210873813Y-92718774D01*
X211202986Y-92938720D01*
X210873813Y-93158666D01*
X210551906Y-93640435D01*
X210438867Y-94208720D01*
X210551906Y-94777005D01*
X210873813Y-95258774D01*
X211202986Y-95478720D01*
X210873813Y-95698666D01*
X210551906Y-96180435D01*
X210438867Y-96748720D01*
X210551906Y-97317005D01*
X210873813Y-97798774D01*
X211202986Y-98018720D01*
X210873813Y-98238666D01*
X210551906Y-98720435D01*
X210438867Y-99288720D01*
X210551906Y-99857005D01*
X210873813Y-100338774D01*
X211202986Y-100558720D01*
X210873813Y-100778666D01*
X210551906Y-101260435D01*
X210438867Y-101828720D01*
X210551906Y-102397005D01*
X210873813Y-102878774D01*
X211202986Y-103098720D01*
X210873813Y-103318666D01*
X210551906Y-103800435D01*
X210438867Y-104368720D01*
X210551906Y-104937005D01*
X210873813Y-105418774D01*
X211202986Y-105638720D01*
X210873813Y-105858666D01*
X210551906Y-106340435D01*
X210438867Y-106908720D01*
X210551906Y-107477005D01*
X210873813Y-107958774D01*
X211355582Y-108280681D01*
X211923867Y-108393720D01*
X211982053Y-108393720D01*
X212550338Y-108280681D01*
X213032107Y-107958774D01*
X213222960Y-107673142D01*
X213413813Y-107958774D01*
X213895582Y-108280681D01*
X214463867Y-108393720D01*
X214522053Y-108393720D01*
X215090338Y-108280681D01*
X215572107Y-107958774D01*
X215761305Y-107675619D01*
X215761315Y-107675644D01*
X216151602Y-108103903D01*
X216676068Y-108350206D01*
X216905960Y-108229539D01*
X216905960Y-107035720D01*
X217159960Y-107035720D01*
X217159960Y-108229539D01*
X217389852Y-108350206D01*
X217914318Y-108103903D01*
X218302960Y-107677449D01*
X218691602Y-108103903D01*
X219216068Y-108350206D01*
X219445960Y-108229539D01*
X219445960Y-107035720D01*
X219699960Y-107035720D01*
X219699960Y-108229539D01*
X219929852Y-108350206D01*
X220454318Y-108103903D01*
X220844605Y-107675644D01*
X221014436Y-107265610D01*
X220893115Y-107035720D01*
X219699960Y-107035720D01*
X219445960Y-107035720D01*
X217159960Y-107035720D01*
X216905960Y-107035720D01*
X216885960Y-107035720D01*
X216885960Y-106781720D01*
X216905960Y-106781720D01*
X216905960Y-104495720D01*
X217159960Y-104495720D01*
X217159960Y-106781720D01*
X219445960Y-106781720D01*
X219445960Y-104495720D01*
X219699960Y-104495720D01*
X219699960Y-106781720D01*
X220893115Y-106781720D01*
X221014436Y-106551830D01*
X220844605Y-106141796D01*
X220454318Y-105713537D01*
X220295006Y-105638720D01*
X220454318Y-105563903D01*
X220844605Y-105135644D01*
X221014436Y-104725610D01*
X220893115Y-104495720D01*
X219699960Y-104495720D01*
X219445960Y-104495720D01*
X217159960Y-104495720D01*
X216905960Y-104495720D01*
X216885960Y-104495720D01*
X216885960Y-104241720D01*
X216905960Y-104241720D01*
X216905960Y-101955720D01*
X217159960Y-101955720D01*
X217159960Y-104241720D01*
X219445960Y-104241720D01*
X219445960Y-101955720D01*
X219699960Y-101955720D01*
X219699960Y-104241720D01*
X220893115Y-104241720D01*
X221014436Y-104011830D01*
X220844605Y-103601796D01*
X220454318Y-103173537D01*
X220295006Y-103098720D01*
X220454318Y-103023903D01*
X220844605Y-102595644D01*
X221014436Y-102185610D01*
X220893115Y-101955720D01*
X219699960Y-101955720D01*
X219445960Y-101955720D01*
X217159960Y-101955720D01*
X216905960Y-101955720D01*
X216885960Y-101955720D01*
X216885960Y-101701720D01*
X216905960Y-101701720D01*
X216905960Y-99415720D01*
X217159960Y-99415720D01*
X217159960Y-101701720D01*
X219445960Y-101701720D01*
X219445960Y-99415720D01*
X219699960Y-99415720D01*
X219699960Y-101701720D01*
X220893115Y-101701720D01*
X221014436Y-101471830D01*
X220844605Y-101061796D01*
X220454318Y-100633537D01*
X220295006Y-100558720D01*
X220454318Y-100483903D01*
X220844605Y-100055644D01*
X221014436Y-99645610D01*
X220893115Y-99415720D01*
X219699960Y-99415720D01*
X219445960Y-99415720D01*
X217159960Y-99415720D01*
X216905960Y-99415720D01*
X216885960Y-99415720D01*
X216885960Y-99161720D01*
X216905960Y-99161720D01*
X216905960Y-99141720D01*
X217159960Y-99141720D01*
X217159960Y-99161720D01*
X219445960Y-99161720D01*
X219445960Y-99141720D01*
X219699960Y-99141720D01*
X219699960Y-99161720D01*
X220893115Y-99161720D01*
X221014436Y-98931830D01*
X220844605Y-98521796D01*
X220454318Y-98093537D01*
X220311407Y-98026422D01*
X220652107Y-97798774D01*
X220974014Y-97317005D01*
X221087053Y-96748720D01*
X220974014Y-96180435D01*
X220652107Y-95698666D01*
X220322934Y-95478720D01*
X220652107Y-95258774D01*
X220974014Y-94777005D01*
X221087053Y-94208720D01*
X220974014Y-93640435D01*
X220652107Y-93158666D01*
X220322934Y-92938720D01*
X220652107Y-92718774D01*
X220974014Y-92237005D01*
X221087053Y-91668720D01*
X220974014Y-91100435D01*
X220652107Y-90618666D01*
X220322934Y-90398720D01*
X220652107Y-90178774D01*
X220974014Y-89697005D01*
X221087053Y-89128720D01*
X220974014Y-88560435D01*
X220652107Y-88078666D01*
X220322934Y-87858720D01*
X220652107Y-87638774D01*
X220974014Y-87157005D01*
X221087053Y-86588720D01*
X220974014Y-86020435D01*
X220652107Y-85538666D01*
X220322934Y-85318720D01*
X220652107Y-85098774D01*
X220974014Y-84617005D01*
X221087053Y-84048720D01*
X220974014Y-83480435D01*
X220652107Y-82998666D01*
X220322934Y-82778720D01*
X220652107Y-82558774D01*
X220974014Y-82077005D01*
X221087053Y-81508720D01*
X220974014Y-80940435D01*
X220652107Y-80458666D01*
X220322934Y-80238720D01*
X220652107Y-80018774D01*
X220974014Y-79537005D01*
X221087053Y-78968720D01*
X220974014Y-78400435D01*
X220652107Y-77918666D01*
X220322934Y-77698720D01*
X220652107Y-77478774D01*
X220974014Y-76997005D01*
X221087053Y-76428720D01*
X220974014Y-75860435D01*
X220652107Y-75378666D01*
X220322934Y-75158720D01*
X220652107Y-74938774D01*
X220974014Y-74457005D01*
X221087053Y-73888720D01*
X220974014Y-73320435D01*
X220652107Y-72838666D01*
X220322934Y-72618720D01*
X220652107Y-72398774D01*
X220974014Y-71917005D01*
X221087053Y-71348720D01*
X220974014Y-70780435D01*
X220652107Y-70298666D01*
X220322934Y-70078720D01*
X220652107Y-69858774D01*
X220974014Y-69377005D01*
X221087053Y-68808720D01*
X220974014Y-68240435D01*
X220652107Y-67758666D01*
X220322934Y-67538720D01*
X220652107Y-67318774D01*
X220974014Y-66837005D01*
X221087053Y-66268720D01*
X220974014Y-65700435D01*
X220652107Y-65218666D01*
X220322934Y-64998720D01*
X220652107Y-64778774D01*
X220974014Y-64297005D01*
X221087053Y-63728720D01*
X220974014Y-63160435D01*
X220652107Y-62678666D01*
X220322934Y-62458720D01*
X220652107Y-62238774D01*
X220974014Y-61757005D01*
X221087053Y-61188720D01*
X220974014Y-60620435D01*
X220652107Y-60138666D01*
X220322934Y-59918720D01*
X220652107Y-59698774D01*
X220974014Y-59217005D01*
X221087053Y-58648720D01*
X220974014Y-58080435D01*
X220652107Y-57598666D01*
X220322934Y-57378720D01*
X220652107Y-57158774D01*
X220974014Y-56677005D01*
X221087053Y-56108720D01*
X220974014Y-55540435D01*
X220652107Y-55058666D01*
X220322934Y-54838720D01*
X220652107Y-54618774D01*
X220974014Y-54137005D01*
X221087053Y-53568720D01*
X220974014Y-53000435D01*
X220652107Y-52518666D01*
X220311407Y-52291018D01*
X220454318Y-52223903D01*
X220844605Y-51795644D01*
X221014436Y-51385610D01*
X220893115Y-51155720D01*
X219699960Y-51155720D01*
X219699960Y-51175720D01*
X219445960Y-51175720D01*
X219445960Y-51155720D01*
X217159960Y-51155720D01*
X217159960Y-51175720D01*
X216905960Y-51175720D01*
X216905960Y-51155720D01*
X216885960Y-51155720D01*
X216885960Y-50901720D01*
X216905960Y-50901720D01*
X216905960Y-48615720D01*
X217159960Y-48615720D01*
X217159960Y-50901720D01*
X219445960Y-50901720D01*
X219445960Y-48615720D01*
X219699960Y-48615720D01*
X219699960Y-50901720D01*
X220893115Y-50901720D01*
X221014436Y-50671830D01*
X220844605Y-50261796D01*
X220454318Y-49833537D01*
X220295006Y-49758720D01*
X220454318Y-49683903D01*
X220844605Y-49255644D01*
X221014436Y-48845610D01*
X220893115Y-48615720D01*
X219699960Y-48615720D01*
X219445960Y-48615720D01*
X217159960Y-48615720D01*
X216905960Y-48615720D01*
X216885960Y-48615720D01*
X216885960Y-48361720D01*
X216905960Y-48361720D01*
X216905960Y-46075720D01*
X217159960Y-46075720D01*
X217159960Y-48361720D01*
X219445960Y-48361720D01*
X219445960Y-46075720D01*
X219699960Y-46075720D01*
X219699960Y-48361720D01*
X220893115Y-48361720D01*
X221014436Y-48131830D01*
X220844605Y-47721796D01*
X220454318Y-47293537D01*
X220295006Y-47218720D01*
X220454318Y-47143903D01*
X220844605Y-46715644D01*
X221014436Y-46305610D01*
X220893115Y-46075720D01*
X219699960Y-46075720D01*
X219445960Y-46075720D01*
X217159960Y-46075720D01*
X216905960Y-46075720D01*
X216885960Y-46075720D01*
X216885960Y-45821720D01*
X216905960Y-45821720D01*
X216905960Y-43535720D01*
X217159960Y-43535720D01*
X217159960Y-45821720D01*
X219445960Y-45821720D01*
X219445960Y-43535720D01*
X219699960Y-43535720D01*
X219699960Y-45821720D01*
X220893115Y-45821720D01*
X221014436Y-45591830D01*
X220844605Y-45181796D01*
X220454318Y-44753537D01*
X220295006Y-44678720D01*
X220454318Y-44603903D01*
X220844605Y-44175644D01*
X221014436Y-43765610D01*
X220893115Y-43535720D01*
X219699960Y-43535720D01*
X219445960Y-43535720D01*
X217159960Y-43535720D01*
X216905960Y-43535720D01*
X216885960Y-43535720D01*
X216885960Y-43281720D01*
X216905960Y-43281720D01*
X216905960Y-42082470D01*
X217159960Y-42082470D01*
X217159960Y-43281720D01*
X219445960Y-43281720D01*
X219445960Y-42087901D01*
X219699960Y-42087901D01*
X219699960Y-43281720D01*
X220893115Y-43281720D01*
X221014436Y-43051830D01*
X220844605Y-42641796D01*
X220454318Y-42213537D01*
X219929852Y-41967234D01*
X219699960Y-42087901D01*
X219445960Y-42087901D01*
X219216068Y-41967234D01*
X218691602Y-42213537D01*
X218509890Y-42412928D01*
X218421287Y-42199021D01*
X218242658Y-42020393D01*
X218009269Y-41923720D01*
X217318710Y-41923720D01*
X217159960Y-42082470D01*
X216905960Y-42082470D01*
X216747210Y-41923720D01*
X216056651Y-41923720D01*
X215823262Y-42020393D01*
X215644633Y-42199021D01*
X215576057Y-42364578D01*
X215572107Y-42358666D01*
X215090338Y-42036759D01*
X214522053Y-41923720D01*
X214463867Y-41923720D01*
X213895582Y-42036759D01*
X213413813Y-42358666D01*
X213412989Y-42359899D01*
X213406122Y-42323403D01*
X213267050Y-42107279D01*
X213054850Y-41962289D01*
X212802960Y-41911280D01*
X211102960Y-41911280D01*
X210867643Y-41955558D01*
X210651519Y-42094630D01*
X210506529Y-42306830D01*
X210455520Y-42558720D01*
X210455520Y-44258720D01*
X210499798Y-44494037D01*
X210638870Y-44710161D01*
X210851070Y-44855151D01*
X210918501Y-44868806D01*
X210873813Y-44898666D01*
X210551906Y-45380435D01*
X210438867Y-45948720D01*
X168190205Y-45948720D01*
X168033287Y-45791528D01*
X167689759Y-45648882D01*
X167317793Y-45648558D01*
X166974017Y-45790603D01*
X166710768Y-46053393D01*
X166568122Y-46396921D01*
X166567798Y-46768887D01*
X154131293Y-46768887D01*
X154152408Y-46718037D01*
X154153510Y-45454944D01*
X153900331Y-44842202D01*
X177345317Y-44842202D01*
X177470727Y-45145718D01*
X177702741Y-45378137D01*
X178006037Y-45504077D01*
X178334442Y-45504363D01*
X178637958Y-45378953D01*
X178870377Y-45146939D01*
X178996317Y-44843643D01*
X178996318Y-44842202D01*
X180901317Y-44842202D01*
X181026727Y-45145718D01*
X181258741Y-45378137D01*
X181562037Y-45504077D01*
X181890442Y-45504363D01*
X182193958Y-45378953D01*
X182426377Y-45146939D01*
X182552317Y-44843643D01*
X182552318Y-44842202D01*
X183441317Y-44842202D01*
X183566727Y-45145718D01*
X183798741Y-45378137D01*
X184102037Y-45504077D01*
X184430442Y-45504363D01*
X184733958Y-45378953D01*
X184966377Y-45146939D01*
X185092317Y-44843643D01*
X185092603Y-44515238D01*
X184967193Y-44211722D01*
X184735179Y-43979303D01*
X184433904Y-43854202D01*
X186997317Y-43854202D01*
X187122727Y-44157718D01*
X187354741Y-44390137D01*
X187658037Y-44516077D01*
X187826263Y-44516224D01*
X187884727Y-44657718D01*
X188116741Y-44890137D01*
X188420037Y-45016077D01*
X188748442Y-45016363D01*
X189051958Y-44890953D01*
X189284377Y-44658939D01*
X189410317Y-44355643D01*
X189410603Y-44027238D01*
X189285193Y-43723722D01*
X189053179Y-43491303D01*
X188749883Y-43365363D01*
X188581657Y-43365216D01*
X188523193Y-43223722D01*
X188291179Y-42991303D01*
X187987883Y-42865363D01*
X187659478Y-42865077D01*
X187355962Y-42990487D01*
X187123543Y-43222501D01*
X186997603Y-43525797D01*
X186997317Y-43854202D01*
X184433904Y-43854202D01*
X184431883Y-43853363D01*
X184103478Y-43853077D01*
X183799962Y-43978487D01*
X183567543Y-44210501D01*
X183441603Y-44513797D01*
X183441317Y-44842202D01*
X182552318Y-44842202D01*
X182552603Y-44515238D01*
X182427193Y-44211722D01*
X182195179Y-43979303D01*
X181891883Y-43853363D01*
X181563478Y-43853077D01*
X181259962Y-43978487D01*
X181027543Y-44210501D01*
X180901603Y-44513797D01*
X180901317Y-44842202D01*
X178996318Y-44842202D01*
X178996603Y-44515238D01*
X178871193Y-44211722D01*
X178639179Y-43979303D01*
X178335883Y-43853363D01*
X178007478Y-43853077D01*
X177703962Y-43978487D01*
X177471543Y-44210501D01*
X177345603Y-44513797D01*
X177345317Y-44842202D01*
X153900331Y-44842202D01*
X153671164Y-44287577D01*
X152778801Y-43393655D01*
X151612277Y-42909272D01*
X150349184Y-42908170D01*
X149181817Y-43390516D01*
X148287895Y-44282879D01*
X147929558Y-45145850D01*
X147469397Y-44684886D01*
X146862805Y-44433007D01*
X146205997Y-44432434D01*
X145598965Y-44683254D01*
X145134126Y-45147283D01*
X144882247Y-45753875D01*
X144881674Y-46410683D01*
X140563675Y-46410683D01*
X140564246Y-45756757D01*
X140313426Y-45149725D01*
X139849397Y-44684886D01*
X139242805Y-44433007D01*
X138585997Y-44432434D01*
X137978965Y-44683254D01*
X137515727Y-45145685D01*
X137161164Y-44287577D01*
X136268801Y-43393655D01*
X135102277Y-42909272D01*
X133839184Y-42908170D01*
X132671817Y-43390516D01*
X131777895Y-44282879D01*
X131293512Y-45449403D01*
X131292410Y-46712496D01*
X130341960Y-46712496D01*
X130341960Y-42302202D01*
X173789317Y-42302202D01*
X173914727Y-42605718D01*
X174146741Y-42838137D01*
X174450037Y-42964077D01*
X174778442Y-42964363D01*
X175081958Y-42838953D01*
X175110759Y-42810202D01*
X175567317Y-42810202D01*
X175692727Y-43113718D01*
X175924741Y-43346137D01*
X176228037Y-43472077D01*
X176556442Y-43472363D01*
X176859958Y-43346953D01*
X177092377Y-43114939D01*
X177218317Y-42811643D01*
X177218603Y-42483238D01*
X177093193Y-42179722D01*
X176861179Y-41947303D01*
X176557883Y-41821363D01*
X176229478Y-41821077D01*
X175925962Y-41946487D01*
X175693543Y-42178501D01*
X175567603Y-42481797D01*
X175567317Y-42810202D01*
X175110759Y-42810202D01*
X175314377Y-42606939D01*
X175440317Y-42303643D01*
X175440603Y-41975238D01*
X175315193Y-41671722D01*
X175083179Y-41439303D01*
X174779883Y-41313363D01*
X174451478Y-41313077D01*
X174147962Y-41438487D01*
X173915543Y-41670501D01*
X173789603Y-41973797D01*
X173789317Y-42302202D01*
X130341960Y-42302202D01*
X130341960Y-41044777D01*
X143753806Y-41044777D01*
X143888863Y-41371640D01*
X144138724Y-41621938D01*
X144465351Y-41757566D01*
X144819017Y-41757874D01*
X145145880Y-41622817D01*
X145396178Y-41372956D01*
X145531806Y-41046329D01*
X145532039Y-40778202D01*
X177345317Y-40778202D01*
X177470727Y-41081718D01*
X177702741Y-41314137D01*
X178006037Y-41440077D01*
X178334442Y-41440363D01*
X178637958Y-41314953D01*
X178870377Y-41082939D01*
X178996317Y-40779643D01*
X178996603Y-40451238D01*
X178871193Y-40147722D01*
X178639179Y-39915303D01*
X178335883Y-39789363D01*
X178007478Y-39789077D01*
X177703962Y-39914487D01*
X177471543Y-40146501D01*
X177345603Y-40449797D01*
X177345317Y-40778202D01*
X145532039Y-40778202D01*
X145532114Y-40692663D01*
X145397057Y-40365800D01*
X145147196Y-40115502D01*
X144820569Y-39979874D01*
X144466903Y-39979566D01*
X144140040Y-40114623D01*
X143889742Y-40364484D01*
X143754114Y-40691111D01*
X143753806Y-41044777D01*
X130341960Y-41044777D01*
X130341960Y-38238202D01*
X168963317Y-38238202D01*
X169088727Y-38541718D01*
X169320741Y-38774137D01*
X169624037Y-38900077D01*
X169952442Y-38900363D01*
X170255958Y-38774953D01*
X170488377Y-38542939D01*
X170614317Y-38239643D01*
X170614603Y-37911238D01*
X170489193Y-37607722D01*
X170357903Y-37476202D01*
X183187317Y-37476202D01*
X183312727Y-37779718D01*
X183544741Y-38012137D01*
X183848037Y-38138077D01*
X184176442Y-38138363D01*
X184479958Y-38012953D01*
X184712377Y-37780939D01*
X184801520Y-37566260D01*
X184801520Y-38924720D01*
X184845798Y-39160037D01*
X184984870Y-39376161D01*
X185197070Y-39521151D01*
X185448960Y-39572160D01*
X187148960Y-39572160D01*
X187384277Y-39527882D01*
X187600401Y-39388810D01*
X187745391Y-39176610D01*
X187796400Y-38924720D01*
X187796400Y-37224720D01*
X187752122Y-36989403D01*
X187613050Y-36773279D01*
X187400850Y-36628289D01*
X187333419Y-36614634D01*
X187378107Y-36584774D01*
X187700014Y-36103005D01*
X187813053Y-35534720D01*
X187700014Y-34966435D01*
X187378107Y-34484666D01*
X187037407Y-34257018D01*
X187180318Y-34189903D01*
X187570605Y-33761644D01*
X187740436Y-33351610D01*
X187619115Y-33121720D01*
X186425960Y-33121720D01*
X186425960Y-33141720D01*
X186171960Y-33141720D01*
X186171960Y-33121720D01*
X184978805Y-33121720D01*
X184857484Y-33351610D01*
X185027315Y-33761644D01*
X185417602Y-34189903D01*
X185560513Y-34257018D01*
X185219813Y-34484666D01*
X184897906Y-34966435D01*
X184784867Y-35534720D01*
X184897906Y-36103005D01*
X185219813Y-36584774D01*
X185261412Y-36612570D01*
X185213643Y-36621558D01*
X184997519Y-36760630D01*
X184852529Y-36972830D01*
X184823975Y-37113835D01*
X184713193Y-36845722D01*
X184481179Y-36613303D01*
X184177883Y-36487363D01*
X183849478Y-36487077D01*
X183545962Y-36612487D01*
X183313543Y-36844501D01*
X183187603Y-37147797D01*
X183187317Y-37476202D01*
X170357903Y-37476202D01*
X170257179Y-37375303D01*
X169953883Y-37249363D01*
X169625478Y-37249077D01*
X169321962Y-37374487D01*
X169089543Y-37606501D01*
X168963603Y-37909797D01*
X168963317Y-38238202D01*
X130341960Y-38238202D01*
X130341960Y-32681187D01*
X130688908Y-30936963D01*
X131638714Y-29515477D01*
X133060202Y-28565668D01*
X134804427Y-28218720D01*
X164895493Y-28218720D01*
X165278897Y-28294984D01*
X165278897Y-28294984D01*
G37*
X165278897Y-28294984D02*
X165546734Y-28473946D01*
X165725696Y-28741783D01*
X165801960Y-29125187D01*
X165801960Y-29819720D01*
X165815122Y-29885890D01*
X165815122Y-29953357D01*
X165931130Y-30536567D01*
X165939128Y-30555875D01*
X166033411Y-30783495D01*
X166363772Y-31277916D01*
X166552764Y-31466908D01*
X167047185Y-31797269D01*
X167191832Y-31857184D01*
X167294113Y-31899550D01*
X167877323Y-32015558D01*
X167944791Y-32015558D01*
X168010960Y-32028720D01*
X171203304Y-32028720D01*
X170956999Y-32397342D01*
X170843960Y-32965627D01*
X170843960Y-33023813D01*
X170956999Y-33592098D01*
X171278906Y-34073867D01*
X171280139Y-34074691D01*
X171243643Y-34081558D01*
X171027519Y-34220630D01*
X170882529Y-34432830D01*
X170831520Y-34684720D01*
X170831520Y-36384720D01*
X170875798Y-36620037D01*
X171014870Y-36836161D01*
X171227070Y-36981151D01*
X171478960Y-37032160D01*
X173178960Y-37032160D01*
X173414277Y-36987882D01*
X173630401Y-36848810D01*
X173775391Y-36636610D01*
X173789046Y-36569179D01*
X173818906Y-36613867D01*
X174300675Y-36935774D01*
X174868960Y-37048813D01*
X175437245Y-36935774D01*
X175919014Y-36613867D01*
X176146662Y-36273167D01*
X176213777Y-36416078D01*
X176642036Y-36806365D01*
X177052070Y-36976196D01*
X177281960Y-36854875D01*
X177281960Y-35661720D01*
X177261960Y-35661720D01*
X177261960Y-35407720D01*
X177281960Y-35407720D01*
X177281960Y-33121720D01*
X177261960Y-33121720D01*
X177261960Y-32867720D01*
X177281960Y-32867720D01*
X177281960Y-32847720D01*
X177535960Y-32847720D01*
X177535960Y-32867720D01*
X177555960Y-32867720D01*
X177555960Y-33121720D01*
X177535960Y-33121720D01*
X177535960Y-35407720D01*
X177555960Y-35407720D01*
X177555960Y-35661720D01*
X177535960Y-35661720D01*
X177535960Y-36854875D01*
X177765850Y-36976196D01*
X178175884Y-36806365D01*
X178604143Y-36416078D01*
X178671258Y-36273167D01*
X178898906Y-36613867D01*
X179380675Y-36935774D01*
X179948960Y-37048813D01*
X180517245Y-36935774D01*
X180999014Y-36613867D01*
X181218960Y-36284694D01*
X181438906Y-36613867D01*
X181920675Y-36935774D01*
X182488960Y-37048813D01*
X183057245Y-36935774D01*
X183539014Y-36613867D01*
X183860921Y-36132098D01*
X183973960Y-35563813D01*
X183973960Y-35505627D01*
X183860921Y-34937342D01*
X183539014Y-34455573D01*
X183253382Y-34264720D01*
X183539014Y-34073867D01*
X183860921Y-33592098D01*
X183973960Y-33023813D01*
X183973960Y-32965627D01*
X183860921Y-32397342D01*
X183614616Y-32028720D01*
X185208740Y-32028720D01*
X185027315Y-32227796D01*
X184857484Y-32637830D01*
X184978805Y-32867720D01*
X186171960Y-32867720D01*
X186171960Y-32847720D01*
X186425960Y-32847720D01*
X186425960Y-32867720D01*
X187619115Y-32867720D01*
X187740436Y-32637830D01*
X187570605Y-32227796D01*
X187180318Y-31799537D01*
X186655852Y-31553234D01*
X186451180Y-31660663D01*
X186741156Y-31466908D01*
X186930148Y-31277916D01*
X187260509Y-30783495D01*
X187354792Y-30555875D01*
X187362790Y-30536567D01*
X187478798Y-29953357D01*
X187478798Y-29885889D01*
X187491960Y-29819720D01*
X187491960Y-29125187D01*
X187568224Y-28741783D01*
X187747186Y-28473946D01*
X188015023Y-28294984D01*
X188398427Y-28218720D01*
X199126962Y-28218720D01*
X198919131Y-28304594D01*
X197488857Y-29732374D01*
X196713844Y-31598812D01*
X196712080Y-33619761D01*
X197483834Y-35487549D01*
X198911614Y-36917823D01*
X200778052Y-37692836D01*
X202799001Y-37694600D01*
X204666789Y-36922846D01*
X205338195Y-36252610D01*
X208493676Y-36252610D01*
X209012174Y-36877431D01*
X210867679Y-37678266D01*
X212888409Y-37708069D01*
X214766725Y-36962304D01*
X214893746Y-36877431D01*
X215412244Y-36252610D01*
X211952960Y-32793325D01*
X208493676Y-36252610D01*
X205338195Y-36252610D01*
X206097063Y-35495066D01*
X206872076Y-33628628D01*
X206872116Y-33583182D01*
X207604376Y-35427485D01*
X207689249Y-35554506D01*
X208314070Y-36073004D01*
X211773355Y-32613720D01*
X212132565Y-32613720D01*
X215591850Y-36073004D01*
X216216671Y-35554506D01*
X217017506Y-33699001D01*
X217047309Y-31678271D01*
X216301544Y-29799955D01*
X216216671Y-29672934D01*
X215591850Y-29154436D01*
X212132565Y-32613720D01*
X211773355Y-32613720D01*
X208314070Y-29154436D01*
X207689249Y-29672934D01*
X206888414Y-31528439D01*
X206872997Y-32573774D01*
X206873840Y-31607679D01*
X206102086Y-29739891D01*
X204674306Y-28309617D01*
X204455402Y-28218720D01*
X209256100Y-28218720D01*
X209139195Y-28265136D01*
X209012174Y-28350009D01*
X208493676Y-28974830D01*
X211952960Y-32434115D01*
X215412244Y-28974830D01*
X214893746Y-28350009D01*
X214589554Y-28218720D01*
X218489493Y-28218720D01*
X220233717Y-28565668D01*
X221655203Y-29515474D01*
X222605012Y-30936962D01*
X222951960Y-32681187D01*
X222951960Y-116366253D01*
X222605012Y-118110478D01*
X221655203Y-119531966D01*
X220233717Y-120481772D01*
X218489493Y-120828720D01*
X211780481Y-120828720D01*
X213496725Y-120147304D01*
X213623746Y-120062431D01*
X214142244Y-119437610D01*
X210682960Y-115978325D01*
X207223676Y-119437610D01*
X207742174Y-120062431D01*
X209517637Y-120828720D01*
X200382140Y-120828720D01*
X202126789Y-120107846D01*
X203557063Y-118680066D01*
X204332076Y-116813628D01*
X204332145Y-116734169D01*
X205588611Y-116734169D01*
X206334376Y-118612485D01*
X206419249Y-118739506D01*
X207044070Y-119258004D01*
X210503355Y-115798720D01*
X210862565Y-115798720D01*
X214321850Y-119258004D01*
X214946671Y-118739506D01*
X215747506Y-116884001D01*
X215777309Y-114863271D01*
X215031544Y-112984955D01*
X214946671Y-112857934D01*
X214321850Y-112339436D01*
X210862565Y-115798720D01*
X210503355Y-115798720D01*
X207044070Y-112339436D01*
X206419249Y-112857934D01*
X205618414Y-114713439D01*
X205588611Y-116734169D01*
X204332145Y-116734169D01*
X204333840Y-114792679D01*
X203562086Y-112924891D01*
X202798360Y-112159830D01*
X207223676Y-112159830D01*
X210682960Y-115619115D01*
X214142244Y-112159830D01*
X213623746Y-111535009D01*
X211768241Y-110734174D01*
X209747511Y-110704371D01*
X207869195Y-111450136D01*
X207742174Y-111535009D01*
X207223676Y-112159830D01*
X202798360Y-112159830D01*
X202134306Y-111494617D01*
X200267868Y-110719604D01*
X198246919Y-110717840D01*
X196379131Y-111489594D01*
X194948857Y-112917374D01*
X194173844Y-114783812D01*
X194172080Y-116804761D01*
X194943834Y-118672549D01*
X196371614Y-120102823D01*
X198119768Y-120828720D01*
X188398427Y-120828720D01*
X188015023Y-120752456D01*
X187747186Y-120573494D01*
X187568224Y-120305657D01*
X187491960Y-119922253D01*
X187491960Y-119227720D01*
X187478798Y-119161551D01*
X187478798Y-119094083D01*
X187362790Y-118510873D01*
X187268702Y-118283725D01*
X187260509Y-118263945D01*
X186930148Y-117769524D01*
X186741156Y-117580532D01*
X186246735Y-117250171D01*
X186102088Y-117190256D01*
X185999807Y-117147890D01*
X185416597Y-117031882D01*
X185349130Y-117031882D01*
X185282960Y-117018720D01*
X168010960Y-117018720D01*
X167944791Y-117031882D01*
X167877323Y-117031882D01*
X167294113Y-117147890D01*
X167191832Y-117190256D01*
X167047185Y-117250171D01*
X166552764Y-117580532D01*
X166363772Y-117769524D01*
X166033411Y-118263945D01*
X166025218Y-118283725D01*
X165931130Y-118510873D01*
X165815122Y-119094083D01*
X165815122Y-119161550D01*
X165801960Y-119227720D01*
X165801960Y-119922253D01*
X165725696Y-120305657D01*
X165546734Y-120573494D01*
X165278897Y-120752456D01*
X164895493Y-120828720D01*
X134804427Y-120828720D01*
X133060202Y-120481772D01*
X131638714Y-119531963D01*
X130965140Y-118523887D01*
X143978872Y-118523887D01*
X144120917Y-118867663D01*
X144383707Y-119130912D01*
X144727235Y-119273558D01*
X145099201Y-119273882D01*
X145442977Y-119131837D01*
X145706226Y-118869047D01*
X145768047Y-118720165D01*
X145810999Y-118936098D01*
X146132906Y-119417867D01*
X146614675Y-119739774D01*
X147182960Y-119852813D01*
X147751245Y-119739774D01*
X148233014Y-119417867D01*
X148452960Y-119088694D01*
X148672906Y-119417867D01*
X149154675Y-119739774D01*
X149722960Y-119852813D01*
X150291245Y-119739774D01*
X150773014Y-119417867D01*
X150992960Y-119088694D01*
X151212906Y-119417867D01*
X151694675Y-119739774D01*
X152262960Y-119852813D01*
X152831245Y-119739774D01*
X153313014Y-119417867D01*
X153532960Y-119088694D01*
X153752906Y-119417867D01*
X154234675Y-119739774D01*
X154802960Y-119852813D01*
X155371245Y-119739774D01*
X155853014Y-119417867D01*
X156072960Y-119088694D01*
X156292906Y-119417867D01*
X156774675Y-119739774D01*
X157342960Y-119852813D01*
X157911245Y-119739774D01*
X158393014Y-119417867D01*
X158422363Y-119373943D01*
X158494633Y-119548418D01*
X158673261Y-119727047D01*
X158906650Y-119823720D01*
X159597210Y-119823720D01*
X159755960Y-119664970D01*
X159755960Y-118465720D01*
X160009960Y-118465720D01*
X160009960Y-119664970D01*
X160168710Y-119823720D01*
X160859270Y-119823720D01*
X161092659Y-119727047D01*
X161271287Y-119548418D01*
X161367960Y-119315029D01*
X161367960Y-118624470D01*
X161209210Y-118465720D01*
X160009960Y-118465720D01*
X159755960Y-118465720D01*
X159735960Y-118465720D01*
X159735960Y-118211720D01*
X159755960Y-118211720D01*
X159755960Y-117012470D01*
X160009960Y-117012470D01*
X160009960Y-118211720D01*
X161209210Y-118211720D01*
X161367960Y-118052970D01*
X161367960Y-117362411D01*
X161271287Y-117129022D01*
X161092659Y-116950393D01*
X160859270Y-116853720D01*
X160168710Y-116853720D01*
X160009960Y-117012470D01*
X159755960Y-117012470D01*
X159597210Y-116853720D01*
X158906650Y-116853720D01*
X158673261Y-116950393D01*
X158494633Y-117129022D01*
X158422363Y-117303497D01*
X158393014Y-117259573D01*
X157911245Y-116937666D01*
X157342960Y-116824627D01*
X156774675Y-116937666D01*
X156292906Y-117259573D01*
X156072960Y-117588746D01*
X155853014Y-117259573D01*
X155371245Y-116937666D01*
X154802960Y-116824627D01*
X154234675Y-116937666D01*
X153752906Y-117259573D01*
X153532960Y-117588746D01*
X153313014Y-117259573D01*
X152831245Y-116937666D01*
X152262960Y-116824627D01*
X151694675Y-116937666D01*
X151212906Y-117259573D01*
X150992960Y-117588746D01*
X150773014Y-117259573D01*
X150291245Y-116937666D01*
X149722960Y-116824627D01*
X149154675Y-116937666D01*
X148672906Y-117259573D01*
X148452960Y-117588746D01*
X148233014Y-117259573D01*
X147751245Y-116937666D01*
X147182960Y-116824627D01*
X146614675Y-116937666D01*
X146132906Y-117259573D01*
X145810999Y-117741342D01*
X145768063Y-117957196D01*
X145707151Y-117809777D01*
X145444361Y-117546528D01*
X145100833Y-117403882D01*
X144728867Y-117403558D01*
X144385091Y-117545603D01*
X144121842Y-117808393D01*
X143979196Y-118151921D01*
X143978872Y-118523887D01*
X130965140Y-118523887D01*
X130688908Y-118110477D01*
X130341960Y-116366253D01*
X130341960Y-111959627D01*
X141887960Y-111959627D01*
X141887960Y-112017813D01*
X142000999Y-112586098D01*
X142322906Y-113067867D01*
X142804675Y-113389774D01*
X143372960Y-113502813D01*
X143941245Y-113389774D01*
X144423014Y-113067867D01*
X144450810Y-113026268D01*
X144459798Y-113074037D01*
X144598870Y-113290161D01*
X144811070Y-113435151D01*
X145062960Y-113486160D01*
X146762960Y-113486160D01*
X146998277Y-113441882D01*
X147214401Y-113302810D01*
X147359391Y-113090610D01*
X147410400Y-112838720D01*
X147410400Y-111138720D01*
X147366122Y-110903403D01*
X147227050Y-110687279D01*
X147014850Y-110542289D01*
X146762960Y-110491280D01*
X145062960Y-110491280D01*
X144827643Y-110535558D01*
X144611519Y-110674630D01*
X144466529Y-110886830D01*
X144452874Y-110954261D01*
X144423014Y-110909573D01*
X143941245Y-110587666D01*
X143372960Y-110474627D01*
X142804675Y-110587666D01*
X142322906Y-110909573D01*
X142000999Y-111391342D01*
X141887960Y-111959627D01*
X130341960Y-111959627D01*
X130341960Y-100558720D01*
X135508867Y-100558720D01*
X135621906Y-101127005D01*
X135943813Y-101608774D01*
X136272986Y-101828720D01*
X135943813Y-102048666D01*
X135621906Y-102530435D01*
X135508867Y-103098720D01*
X135621906Y-103667005D01*
X135943813Y-104148774D01*
X136272986Y-104368720D01*
X135943813Y-104588666D01*
X135621906Y-105070435D01*
X135508867Y-105638720D01*
X135621906Y-106207005D01*
X135943813Y-106688774D01*
X136272986Y-106908720D01*
X135943813Y-107128666D01*
X135621906Y-107610435D01*
X135508867Y-108178720D01*
X135621906Y-108747005D01*
X135943813Y-109228774D01*
X136425582Y-109550681D01*
X136993867Y-109663720D01*
X137052053Y-109663720D01*
X137620338Y-109550681D01*
X138102107Y-109228774D01*
X138102931Y-109227541D01*
X138109798Y-109264037D01*
X138248870Y-109480161D01*
X138461070Y-109625151D01*
X138712960Y-109676160D01*
X140412960Y-109676160D01*
X140648277Y-109631882D01*
X140864401Y-109492810D01*
X141009391Y-109280610D01*
X141048523Y-109087368D01*
X142602664Y-109087368D01*
X142862447Y-109716092D01*
X143343058Y-110197542D01*
X143971328Y-110458423D01*
X144651608Y-110459016D01*
X145280332Y-110199233D01*
X145761782Y-109718622D01*
X146022663Y-109090352D01*
X146023256Y-108410072D01*
X145763473Y-107781348D01*
X145282862Y-107299898D01*
X144654592Y-107039017D01*
X143974312Y-107038424D01*
X143345588Y-107298207D01*
X142864138Y-107778818D01*
X142603257Y-108407088D01*
X142602664Y-109087368D01*
X141048523Y-109087368D01*
X141060400Y-109028720D01*
X141060400Y-107328720D01*
X141016122Y-107093403D01*
X140877050Y-106877279D01*
X140664850Y-106732289D01*
X140597419Y-106718634D01*
X140642107Y-106688774D01*
X140964014Y-106207005D01*
X141077053Y-105638720D01*
X140964014Y-105070435D01*
X140642107Y-104588666D01*
X140312934Y-104368720D01*
X140642107Y-104148774D01*
X140964014Y-103667005D01*
X141077053Y-103098720D01*
X140964014Y-102530435D01*
X140642107Y-102048666D01*
X140312934Y-101828720D01*
X140642107Y-101608774D01*
X140964014Y-101127005D01*
X141077053Y-100558720D01*
X140964014Y-99990435D01*
X140642107Y-99508666D01*
X140301407Y-99281018D01*
X140444318Y-99213903D01*
X140834605Y-98785644D01*
X141004436Y-98375610D01*
X140883115Y-98145720D01*
X139689960Y-98145720D01*
X139689960Y-98165720D01*
X139435960Y-98165720D01*
X139435960Y-98145720D01*
X137149960Y-98145720D01*
X137149960Y-98165720D01*
X136895960Y-98165720D01*
X136895960Y-98145720D01*
X135702805Y-98145720D01*
X135581484Y-98375610D01*
X135751315Y-98785644D01*
X136141602Y-99213903D01*
X136284513Y-99281018D01*
X135943813Y-99508666D01*
X135621906Y-99990435D01*
X135508867Y-100558720D01*
X130341960Y-100558720D01*
X130341960Y-86275187D01*
X130418224Y-85891783D01*
X130597186Y-85623946D01*
X130865023Y-85444984D01*
X131248427Y-85368720D01*
X131942960Y-85368720D01*
X132009130Y-85355558D01*
X132076597Y-85355558D01*
X132659807Y-85239550D01*
X132802863Y-85180294D01*
X132906735Y-85137269D01*
X133401156Y-84806908D01*
X133590148Y-84617916D01*
X133920509Y-84123495D01*
X134004087Y-83921720D01*
X134022790Y-83876567D01*
X134138798Y-83293357D01*
X134138798Y-83225889D01*
X134151960Y-83159720D01*
X134151960Y-65887720D01*
X134138798Y-65821551D01*
X134138798Y-65754083D01*
X134022790Y-65170873D01*
X133974581Y-65054487D01*
X133920509Y-64923945D01*
X133590148Y-64429524D01*
X133401156Y-64240532D01*
X132906735Y-63910171D01*
X132714829Y-63830681D01*
X132659807Y-63807890D01*
X132076597Y-63691882D01*
X132009130Y-63691882D01*
X131942960Y-63678720D01*
X131248427Y-63678720D01*
X130865023Y-63602456D01*
X130597186Y-63423494D01*
X130418224Y-63155657D01*
X130341960Y-62772253D01*
X130341960Y-59918720D01*
X135508867Y-59918720D01*
X135621906Y-60487005D01*
X135943813Y-60968774D01*
X136272986Y-61188720D01*
X135943813Y-61408666D01*
X135621906Y-61890435D01*
X135508867Y-62458720D01*
X135621906Y-63027005D01*
X135943813Y-63508774D01*
X136272986Y-63728720D01*
X135943813Y-63948666D01*
X135621906Y-64430435D01*
X135508867Y-64998720D01*
X135621906Y-65567005D01*
X135943813Y-66048774D01*
X136272986Y-66268720D01*
X135943813Y-66488666D01*
X135621906Y-66970435D01*
X135508867Y-67538720D01*
X135621906Y-68107005D01*
X135943813Y-68588774D01*
X136272986Y-68808720D01*
X135943813Y-69028666D01*
X135621906Y-69510435D01*
X135508867Y-70078720D01*
X135621906Y-70647005D01*
X135943813Y-71128774D01*
X136272986Y-71348720D01*
X135943813Y-71568666D01*
X135621906Y-72050435D01*
X135508867Y-72618720D01*
X135621906Y-73187005D01*
X135943813Y-73668774D01*
X136272986Y-73888720D01*
X135943813Y-74108666D01*
X135621906Y-74590435D01*
X135508867Y-75158720D01*
X135621906Y-75727005D01*
X135943813Y-76208774D01*
X136272986Y-76428720D01*
X135943813Y-76648666D01*
X135621906Y-77130435D01*
X135508867Y-77698720D01*
X135621906Y-78267005D01*
X135943813Y-78748774D01*
X136272986Y-78968720D01*
X135943813Y-79188666D01*
X135621906Y-79670435D01*
X135508867Y-80238720D01*
X135621906Y-80807005D01*
X135943813Y-81288774D01*
X136272986Y-81508720D01*
X135943813Y-81728666D01*
X135621906Y-82210435D01*
X135508867Y-82778720D01*
X135621906Y-83347005D01*
X135943813Y-83828774D01*
X136272986Y-84048720D01*
X135943813Y-84268666D01*
X135621906Y-84750435D01*
X135508867Y-85318720D01*
X135621906Y-85887005D01*
X135943813Y-86368774D01*
X136272986Y-86588720D01*
X135943813Y-86808666D01*
X135621906Y-87290435D01*
X135508867Y-87858720D01*
X135621906Y-88427005D01*
X135943813Y-88908774D01*
X136272986Y-89128720D01*
X135943813Y-89348666D01*
X135621906Y-89830435D01*
X135508867Y-90398720D01*
X135621906Y-90967005D01*
X135943813Y-91448774D01*
X136272986Y-91668720D01*
X135943813Y-91888666D01*
X135621906Y-92370435D01*
X135508867Y-92938720D01*
X135621906Y-93507005D01*
X135943813Y-93988774D01*
X136272986Y-94208720D01*
X135943813Y-94428666D01*
X135621906Y-94910435D01*
X135508867Y-95478720D01*
X135621906Y-96047005D01*
X135943813Y-96528774D01*
X136284513Y-96756422D01*
X136141602Y-96823537D01*
X135751315Y-97251796D01*
X135581484Y-97661830D01*
X135702805Y-97891720D01*
X136895960Y-97891720D01*
X136895960Y-97871720D01*
X137149960Y-97871720D01*
X137149960Y-97891720D01*
X139435960Y-97891720D01*
X139435960Y-97871720D01*
X139689960Y-97871720D01*
X139689960Y-97891720D01*
X140883115Y-97891720D01*
X141004436Y-97661830D01*
X140834605Y-97251796D01*
X140444318Y-96823537D01*
X140301407Y-96756422D01*
X140642107Y-96528774D01*
X140964014Y-96047005D01*
X141077053Y-95478720D01*
X140964014Y-94910435D01*
X140642107Y-94428666D01*
X140312934Y-94208720D01*
X140609543Y-94010532D01*
X142388696Y-94010532D01*
X142620222Y-94570869D01*
X143027697Y-94979056D01*
X142621729Y-95384316D01*
X142389225Y-95944248D01*
X142388696Y-96550532D01*
X142620222Y-97110869D01*
X143027697Y-97519056D01*
X142621729Y-97924316D01*
X142389225Y-98484248D01*
X142388696Y-99090532D01*
X142620222Y-99650869D01*
X143027697Y-100059056D01*
X142621729Y-100464316D01*
X142389225Y-101024248D01*
X142388696Y-101630532D01*
X142620222Y-102190869D01*
X143027697Y-102599056D01*
X142621729Y-103004316D01*
X142389225Y-103564248D01*
X142388696Y-104170532D01*
X142620222Y-104730869D01*
X143048556Y-105159951D01*
X143608488Y-105392455D01*
X144214772Y-105392984D01*
X144775109Y-105161458D01*
X145204191Y-104733124D01*
X145436695Y-104173192D01*
X145437224Y-103566908D01*
X145205698Y-103006571D01*
X144798223Y-102598384D01*
X145204191Y-102193124D01*
X145436695Y-101633192D01*
X145437224Y-101026908D01*
X145205698Y-100466571D01*
X144798223Y-100058384D01*
X145204191Y-99653124D01*
X145436695Y-99093192D01*
X145437224Y-98486908D01*
X145205698Y-97926571D01*
X145060067Y-97780685D01*
X162157444Y-97780685D01*
X162183237Y-98386420D01*
X162365421Y-98826253D01*
X162620764Y-98911311D01*
X163513355Y-98018720D01*
X162620764Y-97126129D01*
X162365421Y-97211187D01*
X162157444Y-97780685D01*
X145060067Y-97780685D01*
X144798223Y-97518384D01*
X145204191Y-97113124D01*
X145436695Y-96553192D01*
X145437224Y-95946908D01*
X145205698Y-95386571D01*
X144798223Y-94978384D01*
X145204191Y-94573124D01*
X145436695Y-94013192D01*
X145437224Y-93406908D01*
X145205698Y-92846571D01*
X144777364Y-92417489D01*
X144750454Y-92406315D01*
X144805551Y-92240916D01*
X143912960Y-91348325D01*
X143020369Y-92240916D01*
X143075313Y-92405858D01*
X143050811Y-92415982D01*
X142621729Y-92844316D01*
X142389225Y-93404248D01*
X142388696Y-94010532D01*
X140609543Y-94010532D01*
X140642107Y-93988774D01*
X140964014Y-93507005D01*
X141077053Y-92938720D01*
X140964014Y-92370435D01*
X140642107Y-91888666D01*
X140312934Y-91668720D01*
X140642107Y-91448774D01*
X140964014Y-90967005D01*
X140971238Y-90930685D01*
X142377444Y-90930685D01*
X142403237Y-91536420D01*
X142585421Y-91976253D01*
X142840764Y-92061311D01*
X143733355Y-91168720D01*
X144092565Y-91168720D01*
X144985156Y-92061311D01*
X145240499Y-91976253D01*
X145448476Y-91406755D01*
X145422683Y-90801020D01*
X145240499Y-90361187D01*
X144985156Y-90276129D01*
X144092565Y-91168720D01*
X143733355Y-91168720D01*
X142840764Y-90276129D01*
X142585421Y-90361187D01*
X142377444Y-90930685D01*
X140971238Y-90930685D01*
X141077053Y-90398720D01*
X141016943Y-90096524D01*
X143020369Y-90096524D01*
X143912960Y-90989115D01*
X144805551Y-90096524D01*
X144720493Y-89841181D01*
X144150995Y-89633204D01*
X143545260Y-89658997D01*
X143105427Y-89841181D01*
X143020369Y-90096524D01*
X141016943Y-90096524D01*
X140964014Y-89830435D01*
X140642107Y-89348666D01*
X140312934Y-89128720D01*
X140642107Y-88908774D01*
X140964014Y-88427005D01*
X141077053Y-87858720D01*
X140964014Y-87290435D01*
X140642107Y-86808666D01*
X140312934Y-86588720D01*
X140642107Y-86368774D01*
X140964014Y-85887005D01*
X141077053Y-85318720D01*
X140964014Y-84750435D01*
X140642107Y-84268666D01*
X140312934Y-84048720D01*
X140642107Y-83828774D01*
X140964014Y-83347005D01*
X141077053Y-82778720D01*
X140964014Y-82210435D01*
X140642107Y-81728666D01*
X140312934Y-81508720D01*
X140642107Y-81288774D01*
X140964014Y-80807005D01*
X141077053Y-80238720D01*
X140964014Y-79670435D01*
X140642107Y-79188666D01*
X140312934Y-78968720D01*
X140642107Y-78748774D01*
X140964014Y-78267005D01*
X141077053Y-77698720D01*
X140964014Y-77130435D01*
X140642107Y-76648666D01*
X140312934Y-76428720D01*
X140642107Y-76208774D01*
X140964014Y-75727005D01*
X141077053Y-75158720D01*
X140964014Y-74590435D01*
X140642107Y-74108666D01*
X140312934Y-73888720D01*
X140642107Y-73668774D01*
X140964014Y-73187005D01*
X141077053Y-72618720D01*
X140964014Y-72050435D01*
X140642107Y-71568666D01*
X140312934Y-71348720D01*
X140642107Y-71128774D01*
X140964014Y-70647005D01*
X141077053Y-70078720D01*
X140964014Y-69510435D01*
X140642107Y-69028666D01*
X140312934Y-68808720D01*
X140642107Y-68588774D01*
X140964014Y-68107005D01*
X141077053Y-67538720D01*
X140964014Y-66970435D01*
X140642107Y-66488666D01*
X140312934Y-66268720D01*
X140642107Y-66048774D01*
X140964014Y-65567005D01*
X141077053Y-64998720D01*
X140964014Y-64430435D01*
X140642107Y-63948666D01*
X140312934Y-63728720D01*
X140642107Y-63508774D01*
X140964014Y-63027005D01*
X141077053Y-62458720D01*
X140964014Y-61890435D01*
X140642107Y-61408666D01*
X140312934Y-61188720D01*
X140642107Y-60968774D01*
X140964014Y-60487005D01*
X141077053Y-59918720D01*
X141031035Y-59687368D01*
X142602664Y-59687368D01*
X142862447Y-60316092D01*
X143343058Y-60797542D01*
X143971328Y-61058423D01*
X144651608Y-61059016D01*
X145280332Y-60799233D01*
X145761782Y-60318622D01*
X146022663Y-59690352D01*
X146022985Y-59320202D01*
X160835317Y-59320202D01*
X160960727Y-59623718D01*
X161192741Y-59856137D01*
X161496037Y-59982077D01*
X161824442Y-59982363D01*
X162127958Y-59856953D01*
X162169049Y-59815934D01*
X162168696Y-60220532D01*
X162400222Y-60780869D01*
X162807697Y-61189056D01*
X162401729Y-61594316D01*
X162169225Y-62154248D01*
X162168696Y-62760532D01*
X162400222Y-63320869D01*
X162807697Y-63729056D01*
X162401729Y-64134316D01*
X162169225Y-64694248D01*
X162168696Y-65300532D01*
X162400222Y-65860869D01*
X162807697Y-66269056D01*
X162401729Y-66674316D01*
X162169225Y-67234248D01*
X162168696Y-67840532D01*
X162400222Y-68400869D01*
X162807697Y-68809056D01*
X162401729Y-69214316D01*
X162169225Y-69774248D01*
X162168696Y-70380532D01*
X162400222Y-70940869D01*
X162807697Y-71349056D01*
X162401729Y-71754316D01*
X162169225Y-72314248D01*
X162168696Y-72920532D01*
X162400222Y-73480869D01*
X162807697Y-73889056D01*
X162401729Y-74294316D01*
X162169225Y-74854248D01*
X162168696Y-75460532D01*
X162400222Y-76020869D01*
X162807697Y-76429056D01*
X162401729Y-76834316D01*
X162169225Y-77394248D01*
X162168696Y-78000532D01*
X162400222Y-78560869D01*
X162807697Y-78969056D01*
X162401729Y-79374316D01*
X162169225Y-79934248D01*
X162168696Y-80540532D01*
X162400222Y-81100869D01*
X162807697Y-81509056D01*
X162401729Y-81914316D01*
X162169225Y-82474248D01*
X162168696Y-83080532D01*
X162400222Y-83640869D01*
X162807697Y-84049056D01*
X162401729Y-84454316D01*
X162169225Y-85014248D01*
X162168696Y-85620532D01*
X162400222Y-86180869D01*
X162807697Y-86589056D01*
X162401729Y-86994316D01*
X162169225Y-87554248D01*
X162168696Y-88160532D01*
X162400222Y-88720869D01*
X162807697Y-89129056D01*
X162401729Y-89534316D01*
X162169225Y-90094248D01*
X162168696Y-90700532D01*
X162400222Y-91260869D01*
X162807697Y-91669056D01*
X162401729Y-92074316D01*
X162169225Y-92634248D01*
X162168696Y-93240532D01*
X162400222Y-93800869D01*
X162807697Y-94209056D01*
X162401729Y-94614316D01*
X162169225Y-95174248D01*
X162168696Y-95780532D01*
X162400222Y-96340869D01*
X162828556Y-96769951D01*
X162855466Y-96781125D01*
X162800369Y-96946524D01*
X163692960Y-97839115D01*
X164585551Y-96946524D01*
X164530607Y-96781582D01*
X164555109Y-96771458D01*
X164963296Y-96363983D01*
X165347697Y-96749056D01*
X164941729Y-97154316D01*
X164930555Y-97181226D01*
X164765156Y-97126129D01*
X163872565Y-98018720D01*
X164765156Y-98911311D01*
X164930098Y-98856367D01*
X164940222Y-98880869D01*
X165347697Y-99289056D01*
X164962624Y-99673457D01*
X164557364Y-99267489D01*
X164530454Y-99256315D01*
X164585551Y-99090916D01*
X163692960Y-98198325D01*
X162800369Y-99090916D01*
X162855313Y-99255858D01*
X162830811Y-99265982D01*
X162401729Y-99694316D01*
X162169225Y-100254248D01*
X162168696Y-100860532D01*
X162400222Y-101420869D01*
X162807697Y-101829056D01*
X162401729Y-102234316D01*
X162169225Y-102794248D01*
X162168696Y-103400532D01*
X162400222Y-103960869D01*
X162807697Y-104369056D01*
X162401729Y-104774316D01*
X162169225Y-105334248D01*
X162168696Y-105940532D01*
X162400222Y-106500869D01*
X162807697Y-106909056D01*
X162401729Y-107314316D01*
X162169225Y-107874248D01*
X162168696Y-108480532D01*
X162400222Y-109040869D01*
X162828556Y-109469951D01*
X163388488Y-109702455D01*
X163994772Y-109702984D01*
X164555109Y-109471458D01*
X164963296Y-109063983D01*
X165368556Y-109469951D01*
X165928488Y-109702455D01*
X166534772Y-109702984D01*
X167095109Y-109471458D01*
X167524191Y-109043124D01*
X167756695Y-108483192D01*
X167757224Y-107876908D01*
X167525698Y-107316571D01*
X167118223Y-106908384D01*
X167524191Y-106503124D01*
X167756695Y-105943192D01*
X167757224Y-105336908D01*
X167525698Y-104776571D01*
X167118223Y-104368384D01*
X167524191Y-103963124D01*
X167756695Y-103403192D01*
X167757224Y-102796908D01*
X167525698Y-102236571D01*
X167118223Y-101828384D01*
X167524191Y-101423124D01*
X167756695Y-100863192D01*
X167757224Y-100256908D01*
X167525698Y-99696571D01*
X167118223Y-99288384D01*
X167524191Y-98883124D01*
X167756695Y-98323192D01*
X167757224Y-97716908D01*
X167525698Y-97156571D01*
X167118223Y-96748384D01*
X167524191Y-96343124D01*
X167756695Y-95783192D01*
X167757224Y-95176908D01*
X167525698Y-94616571D01*
X167118223Y-94208384D01*
X167524191Y-93803124D01*
X167756695Y-93243192D01*
X167757224Y-92636908D01*
X167525698Y-92076571D01*
X167118223Y-91668384D01*
X167524191Y-91263124D01*
X167756695Y-90703192D01*
X167757224Y-90096908D01*
X167525698Y-89536571D01*
X167118223Y-89128384D01*
X167524191Y-88723124D01*
X167756695Y-88163192D01*
X167757224Y-87556908D01*
X167525698Y-86996571D01*
X167118223Y-86588384D01*
X167524191Y-86183124D01*
X167756695Y-85623192D01*
X167757224Y-85016908D01*
X167525698Y-84456571D01*
X167118223Y-84048384D01*
X167524191Y-83643124D01*
X167756695Y-83083192D01*
X167757224Y-82476908D01*
X167525698Y-81916571D01*
X167118223Y-81508384D01*
X167524191Y-81103124D01*
X167756695Y-80543192D01*
X167757224Y-79936908D01*
X167525698Y-79376571D01*
X167118223Y-78968384D01*
X167524191Y-78563124D01*
X167756695Y-78003192D01*
X167757224Y-77396908D01*
X167525698Y-76836571D01*
X167118223Y-76428384D01*
X167524191Y-76023124D01*
X167756695Y-75463192D01*
X167757224Y-74856908D01*
X167525698Y-74296571D01*
X167118223Y-73888384D01*
X167524191Y-73483124D01*
X167756695Y-72923192D01*
X167757224Y-72316908D01*
X167525698Y-71756571D01*
X167118223Y-71348384D01*
X167524191Y-70943124D01*
X167756695Y-70383192D01*
X167757224Y-69776908D01*
X167525698Y-69216571D01*
X167118223Y-68808384D01*
X167524191Y-68403124D01*
X167756695Y-67843192D01*
X167757224Y-67236908D01*
X167525698Y-66676571D01*
X167118223Y-66268384D01*
X167524191Y-65863124D01*
X167756695Y-65303192D01*
X167757224Y-64696908D01*
X167525698Y-64136571D01*
X167118223Y-63728384D01*
X167524191Y-63323124D01*
X167756695Y-62763192D01*
X167757224Y-62156908D01*
X167525698Y-61596571D01*
X167118223Y-61188384D01*
X167524191Y-60783124D01*
X167756695Y-60223192D01*
X167756960Y-59918720D01*
X168528867Y-59918720D01*
X168641906Y-60487005D01*
X168963813Y-60968774D01*
X169292986Y-61188720D01*
X168963813Y-61408666D01*
X168641906Y-61890435D01*
X168528867Y-62458720D01*
X168641906Y-63027005D01*
X168963813Y-63508774D01*
X169292986Y-63728720D01*
X168963813Y-63948666D01*
X168641906Y-64430435D01*
X168528867Y-64998720D01*
X168641906Y-65567005D01*
X168963813Y-66048774D01*
X169292986Y-66268720D01*
X168963813Y-66488666D01*
X168641906Y-66970435D01*
X168528867Y-67538720D01*
X168641906Y-68107005D01*
X168963813Y-68588774D01*
X169292986Y-68808720D01*
X168963813Y-69028666D01*
X168641906Y-69510435D01*
X168528867Y-70078720D01*
X168641906Y-70647005D01*
X168963813Y-71128774D01*
X169292986Y-71348720D01*
X168963813Y-71568666D01*
X168641906Y-72050435D01*
X168528867Y-72618720D01*
X168641906Y-73187005D01*
X168963813Y-73668774D01*
X169292986Y-73888720D01*
X168963813Y-74108666D01*
X168641906Y-74590435D01*
X168528867Y-75158720D01*
X168641906Y-75727005D01*
X168963813Y-76208774D01*
X169292986Y-76428720D01*
X168963813Y-76648666D01*
X168641906Y-77130435D01*
X168528867Y-77698720D01*
X168641906Y-78267005D01*
X168963813Y-78748774D01*
X169292986Y-78968720D01*
X168963813Y-79188666D01*
X168641906Y-79670435D01*
X168528867Y-80238720D01*
X168641906Y-80807005D01*
X168963813Y-81288774D01*
X169292986Y-81508720D01*
X168963813Y-81728666D01*
X168641906Y-82210435D01*
X168528867Y-82778720D01*
X168641906Y-83347005D01*
X168963813Y-83828774D01*
X169292986Y-84048720D01*
X168963813Y-84268666D01*
X168641906Y-84750435D01*
X168528867Y-85318720D01*
X168641906Y-85887005D01*
X168963813Y-86368774D01*
X169292986Y-86588720D01*
X168963813Y-86808666D01*
X168641906Y-87290435D01*
X168528867Y-87858720D01*
X168641906Y-88427005D01*
X168963813Y-88908774D01*
X169292986Y-89128720D01*
X168963813Y-89348666D01*
X168641906Y-89830435D01*
X168528867Y-90398720D01*
X168641906Y-90967005D01*
X168963813Y-91448774D01*
X169292986Y-91668720D01*
X168963813Y-91888666D01*
X168641906Y-92370435D01*
X168528867Y-92938720D01*
X168641906Y-93507005D01*
X168963813Y-93988774D01*
X169292986Y-94208720D01*
X168963813Y-94428666D01*
X168641906Y-94910435D01*
X168528867Y-95478720D01*
X168641906Y-96047005D01*
X168963813Y-96528774D01*
X169292986Y-96748720D01*
X168963813Y-96968666D01*
X168641906Y-97450435D01*
X168528867Y-98018720D01*
X168641906Y-98587005D01*
X168963813Y-99068774D01*
X169292986Y-99288720D01*
X168963813Y-99508666D01*
X168641906Y-99990435D01*
X168528867Y-100558720D01*
X168641906Y-101127005D01*
X168963813Y-101608774D01*
X169292986Y-101828720D01*
X168963813Y-102048666D01*
X168641906Y-102530435D01*
X168528867Y-103098720D01*
X168641906Y-103667005D01*
X168963813Y-104148774D01*
X169292986Y-104368720D01*
X168963813Y-104588666D01*
X168641906Y-105070435D01*
X168528867Y-105638720D01*
X168641906Y-106207005D01*
X168963813Y-106688774D01*
X169292986Y-106908720D01*
X168963813Y-107128666D01*
X168641906Y-107610435D01*
X168528867Y-108178720D01*
X168641906Y-108747005D01*
X168963813Y-109228774D01*
X169445582Y-109550681D01*
X170013867Y-109663720D01*
X170072053Y-109663720D01*
X170640338Y-109550681D01*
X171122107Y-109228774D01*
X171122931Y-109227541D01*
X171129798Y-109264037D01*
X171268870Y-109480161D01*
X171481070Y-109625151D01*
X171732960Y-109676160D01*
X173432960Y-109676160D01*
X173668277Y-109631882D01*
X173884401Y-109492810D01*
X174029391Y-109280610D01*
X174080400Y-109028720D01*
X174080400Y-107328720D01*
X174036122Y-107093403D01*
X173897050Y-106877279D01*
X173684850Y-106732289D01*
X173617419Y-106718634D01*
X173662107Y-106688774D01*
X173984014Y-106207005D01*
X174097053Y-105638720D01*
X173984014Y-105070435D01*
X173662107Y-104588666D01*
X173332934Y-104368720D01*
X173662107Y-104148774D01*
X173984014Y-103667005D01*
X174097053Y-103098720D01*
X173984014Y-102530435D01*
X173662107Y-102048666D01*
X173332934Y-101828720D01*
X173662107Y-101608774D01*
X173745343Y-101484202D01*
X175313317Y-101484202D01*
X175438727Y-101787718D01*
X175670741Y-102020137D01*
X175974037Y-102146077D01*
X176302442Y-102146363D01*
X176605958Y-102020953D01*
X176838377Y-101788939D01*
X176964317Y-101485643D01*
X176964603Y-101157238D01*
X176839193Y-100853722D01*
X176607179Y-100621303D01*
X176303883Y-100495363D01*
X175975478Y-100495077D01*
X175671962Y-100620487D01*
X175439543Y-100852501D01*
X175313603Y-101155797D01*
X175313317Y-101484202D01*
X173745343Y-101484202D01*
X173984014Y-101127005D01*
X174097053Y-100558720D01*
X173984014Y-99990435D01*
X173662107Y-99508666D01*
X173332934Y-99288720D01*
X173662107Y-99068774D01*
X173745343Y-98944202D01*
X183949317Y-98944202D01*
X184074727Y-99247718D01*
X184306741Y-99480137D01*
X184610037Y-99606077D01*
X184938442Y-99606363D01*
X185241958Y-99480953D01*
X185474377Y-99248939D01*
X185600317Y-98945643D01*
X185600603Y-98617238D01*
X185475193Y-98313722D01*
X185243179Y-98081303D01*
X185232545Y-98076887D01*
X197301798Y-98076887D01*
X197443843Y-98420663D01*
X197706633Y-98683912D01*
X198050161Y-98826558D01*
X198422127Y-98826882D01*
X198765903Y-98684837D01*
X199029152Y-98422047D01*
X199171798Y-98078519D01*
X199171799Y-98076887D01*
X201111798Y-98076887D01*
X201253843Y-98420663D01*
X201516633Y-98683912D01*
X201860161Y-98826558D01*
X202232127Y-98826882D01*
X202575903Y-98684837D01*
X202839152Y-98422047D01*
X202981798Y-98078519D01*
X202982122Y-97706553D01*
X202840077Y-97362777D01*
X202577287Y-97099528D01*
X202233759Y-96956882D01*
X201861793Y-96956558D01*
X201518017Y-97098603D01*
X201254768Y-97361393D01*
X201112122Y-97704921D01*
X201111798Y-98076887D01*
X199171799Y-98076887D01*
X199172122Y-97706553D01*
X199030077Y-97362777D01*
X198767287Y-97099528D01*
X198423759Y-96956882D01*
X198051793Y-96956558D01*
X197708017Y-97098603D01*
X197444768Y-97361393D01*
X197302122Y-97704921D01*
X197301798Y-98076887D01*
X185232545Y-98076887D01*
X184939883Y-97955363D01*
X184611478Y-97955077D01*
X184307962Y-98080487D01*
X184075543Y-98312501D01*
X183949603Y-98615797D01*
X183949317Y-98944202D01*
X173745343Y-98944202D01*
X173984014Y-98587005D01*
X174097053Y-98018720D01*
X173984014Y-97450435D01*
X173662107Y-96968666D01*
X173332934Y-96748720D01*
X173662107Y-96528774D01*
X173984014Y-96047005D01*
X174097053Y-95478720D01*
X173984014Y-94910435D01*
X173794097Y-94626202D01*
X175313317Y-94626202D01*
X175438727Y-94929718D01*
X175670741Y-95162137D01*
X175974037Y-95288077D01*
X176302442Y-95288363D01*
X176605958Y-95162953D01*
X176838377Y-94930939D01*
X176964317Y-94627643D01*
X176964603Y-94299238D01*
X176839193Y-93995722D01*
X176607179Y-93763303D01*
X176303883Y-93637363D01*
X175975478Y-93637077D01*
X175671962Y-93762487D01*
X175439543Y-93994501D01*
X175313603Y-94297797D01*
X175313317Y-94626202D01*
X173794097Y-94626202D01*
X173662107Y-94428666D01*
X173332934Y-94208720D01*
X173662107Y-93988774D01*
X173984014Y-93507005D01*
X174097053Y-92938720D01*
X173984014Y-92370435D01*
X173662107Y-91888666D01*
X173332934Y-91668720D01*
X173662107Y-91448774D01*
X173915060Y-91070202D01*
X175313317Y-91070202D01*
X175438727Y-91373718D01*
X175670741Y-91606137D01*
X175974037Y-91732077D01*
X176302442Y-91732363D01*
X176605958Y-91606953D01*
X176838377Y-91374939D01*
X176964317Y-91071643D01*
X176964603Y-90743238D01*
X176839193Y-90439722D01*
X176607179Y-90207303D01*
X176303883Y-90081363D01*
X175975478Y-90081077D01*
X175671962Y-90206487D01*
X175439543Y-90438501D01*
X175313603Y-90741797D01*
X175313317Y-91070202D01*
X173915060Y-91070202D01*
X173984014Y-90967005D01*
X174097053Y-90398720D01*
X173984014Y-89830435D01*
X173662107Y-89348666D01*
X173332934Y-89128720D01*
X173662107Y-88908774D01*
X173984014Y-88427005D01*
X174097053Y-87858720D01*
X173984014Y-87290435D01*
X173662107Y-86808666D01*
X173332934Y-86588720D01*
X173662107Y-86368774D01*
X173906657Y-86002777D01*
X193791806Y-86002777D01*
X193926863Y-86329640D01*
X194176724Y-86579938D01*
X194503351Y-86715566D01*
X194857017Y-86715874D01*
X195183880Y-86580817D01*
X195434178Y-86330956D01*
X195569806Y-86004329D01*
X195570114Y-85650663D01*
X195435057Y-85323800D01*
X195185196Y-85073502D01*
X194858569Y-84937874D01*
X194504903Y-84937566D01*
X194178040Y-85072623D01*
X193927742Y-85322484D01*
X193792114Y-85649111D01*
X193791806Y-86002777D01*
X173906657Y-86002777D01*
X173984014Y-85887005D01*
X174097053Y-85318720D01*
X173984014Y-84750435D01*
X173662107Y-84268666D01*
X173332934Y-84048720D01*
X173662107Y-83828774D01*
X173906657Y-83462777D01*
X182869806Y-83462777D01*
X183004863Y-83789640D01*
X183254724Y-84039938D01*
X183581351Y-84175566D01*
X183935017Y-84175874D01*
X183977856Y-84158173D01*
X183886114Y-84379111D01*
X183885806Y-84732777D01*
X184020863Y-85059640D01*
X184270724Y-85309938D01*
X184597351Y-85445566D01*
X184951017Y-85445874D01*
X185277880Y-85310817D01*
X185528178Y-85060956D01*
X185663806Y-84734329D01*
X185664114Y-84380663D01*
X185529057Y-84053800D01*
X185279196Y-83803502D01*
X184952569Y-83667874D01*
X184598903Y-83667566D01*
X184556064Y-83685267D01*
X184617119Y-83538230D01*
X198744740Y-83538230D01*
X198937678Y-84005178D01*
X199294623Y-84362746D01*
X199761233Y-84556499D01*
X200266470Y-84556940D01*
X200733418Y-84364002D01*
X201090986Y-84007057D01*
X201284739Y-83540447D01*
X201284766Y-83508777D01*
X205221806Y-83508777D01*
X205356863Y-83835640D01*
X205606724Y-84085938D01*
X205933351Y-84221566D01*
X206287017Y-84221874D01*
X206613880Y-84086817D01*
X206652043Y-84048720D01*
X210438867Y-84048720D01*
X210551906Y-84617005D01*
X210873813Y-85098774D01*
X211202986Y-85318720D01*
X210873813Y-85538666D01*
X210551906Y-86020435D01*
X210438867Y-86588720D01*
X210551906Y-87157005D01*
X210873813Y-87638774D01*
X211214513Y-87866422D01*
X211071602Y-87933537D01*
X210681315Y-88361796D01*
X210511484Y-88771830D01*
X210632805Y-89001720D01*
X211825960Y-89001720D01*
X211825960Y-88981720D01*
X212079960Y-88981720D01*
X212079960Y-89001720D01*
X214365960Y-89001720D01*
X214365960Y-86715720D01*
X214345960Y-86715720D01*
X214345960Y-86461720D01*
X214365960Y-86461720D01*
X214365960Y-84175720D01*
X214345960Y-84175720D01*
X214345960Y-83921720D01*
X214365960Y-83921720D01*
X214365960Y-81635720D01*
X212079960Y-81635720D01*
X212079960Y-81655720D01*
X211825960Y-81655720D01*
X211825960Y-81635720D01*
X210632805Y-81635720D01*
X210511484Y-81865610D01*
X210681315Y-82275644D01*
X211071602Y-82703903D01*
X211214513Y-82771018D01*
X210873813Y-82998666D01*
X210551906Y-83480435D01*
X210438867Y-84048720D01*
X206652043Y-84048720D01*
X206864178Y-83836956D01*
X206999806Y-83510329D01*
X207000114Y-83156663D01*
X206865057Y-82829800D01*
X206615196Y-82579502D01*
X206288569Y-82443874D01*
X205934903Y-82443566D01*
X205608040Y-82578623D01*
X205357742Y-82828484D01*
X205222114Y-83155111D01*
X205221806Y-83508777D01*
X201284766Y-83508777D01*
X201285180Y-83035210D01*
X201092242Y-82568262D01*
X200735297Y-82210694D01*
X200268687Y-82016941D01*
X199763450Y-82016500D01*
X199296502Y-82209438D01*
X198938934Y-82566383D01*
X198745181Y-83032993D01*
X198744740Y-83538230D01*
X184617119Y-83538230D01*
X184647806Y-83464329D01*
X184648114Y-83110663D01*
X184513057Y-82783800D01*
X184263196Y-82533502D01*
X183936569Y-82397874D01*
X183582903Y-82397566D01*
X183256040Y-82532623D01*
X183005742Y-82782484D01*
X182870114Y-83109111D01*
X182869806Y-83462777D01*
X173906657Y-83462777D01*
X173984014Y-83347005D01*
X174097053Y-82778720D01*
X173984014Y-82210435D01*
X173662107Y-81728666D01*
X173596423Y-81684777D01*
X205221806Y-81684777D01*
X205356863Y-82011640D01*
X205606724Y-82261938D01*
X205933351Y-82397566D01*
X206287017Y-82397874D01*
X206613880Y-82262817D01*
X206745971Y-82130956D01*
X206876724Y-82261938D01*
X207203351Y-82397566D01*
X207557017Y-82397874D01*
X207883880Y-82262817D01*
X208134178Y-82012956D01*
X208269806Y-81686329D01*
X208270114Y-81332663D01*
X208135057Y-81005800D01*
X207885196Y-80755502D01*
X207558569Y-80619874D01*
X207204903Y-80619566D01*
X206878040Y-80754623D01*
X206745949Y-80886484D01*
X206615196Y-80755502D01*
X206288569Y-80619874D01*
X205934903Y-80619566D01*
X205608040Y-80754623D01*
X205357742Y-81004484D01*
X205222114Y-81331111D01*
X205221806Y-81684777D01*
X173596423Y-81684777D01*
X173332934Y-81508720D01*
X173662107Y-81288774D01*
X173984014Y-80807005D01*
X174097053Y-80238720D01*
X173986867Y-79684777D01*
X202583806Y-79684777D01*
X202718863Y-80011640D01*
X202968724Y-80261938D01*
X203295351Y-80397566D01*
X203649017Y-80397874D01*
X203975880Y-80262817D01*
X204226178Y-80012956D01*
X204361806Y-79686329D01*
X204362114Y-79332663D01*
X204227057Y-79005800D01*
X203977196Y-78755502D01*
X203650569Y-78619874D01*
X203296903Y-78619566D01*
X202970040Y-78754623D01*
X202719742Y-79004484D01*
X202584114Y-79331111D01*
X202583806Y-79684777D01*
X173986867Y-79684777D01*
X173984014Y-79670435D01*
X173662107Y-79188666D01*
X173332934Y-78968720D01*
X173662107Y-78748774D01*
X173984014Y-78267005D01*
X174097053Y-77698720D01*
X173984014Y-77130435D01*
X173662107Y-76648666D01*
X173596423Y-76604777D01*
X205983806Y-76604777D01*
X206118863Y-76931640D01*
X206368724Y-77181938D01*
X206695351Y-77317566D01*
X207049017Y-77317874D01*
X207375880Y-77182817D01*
X207507971Y-77050956D01*
X207638724Y-77181938D01*
X207965351Y-77317566D01*
X208319017Y-77317874D01*
X208645880Y-77182817D01*
X208896178Y-76932956D01*
X209031806Y-76606329D01*
X209032114Y-76252663D01*
X208897057Y-75925800D01*
X208647196Y-75675502D01*
X208320569Y-75539874D01*
X207966903Y-75539566D01*
X207640040Y-75674623D01*
X207507949Y-75806484D01*
X207377196Y-75675502D01*
X207050569Y-75539874D01*
X206696903Y-75539566D01*
X206370040Y-75674623D01*
X206119742Y-75924484D01*
X205984114Y-76251111D01*
X205983806Y-76604777D01*
X173596423Y-76604777D01*
X173332934Y-76428720D01*
X173662107Y-76208774D01*
X173984014Y-75727005D01*
X174062033Y-75334777D01*
X187187806Y-75334777D01*
X187322863Y-75661640D01*
X187572724Y-75911938D01*
X187899351Y-76047566D01*
X188253017Y-76047874D01*
X188579880Y-75912817D01*
X188830178Y-75662956D01*
X188965806Y-75336329D01*
X188966114Y-74982663D01*
X188831057Y-74655800D01*
X188581196Y-74405502D01*
X188254569Y-74269874D01*
X187900903Y-74269566D01*
X187574040Y-74404623D01*
X187323742Y-74654484D01*
X187188114Y-74981111D01*
X187187806Y-75334777D01*
X174062033Y-75334777D01*
X174097053Y-75158720D01*
X173984014Y-74590435D01*
X173662107Y-74108666D01*
X173547671Y-74032202D01*
X200459317Y-74032202D01*
X200584727Y-74335718D01*
X200816741Y-74568137D01*
X201120037Y-74694077D01*
X201448442Y-74694363D01*
X201751958Y-74568953D01*
X201984377Y-74336939D01*
X202110317Y-74033643D01*
X202110603Y-73705238D01*
X201985193Y-73401722D01*
X201753179Y-73169303D01*
X201449883Y-73043363D01*
X201121478Y-73043077D01*
X200817962Y-73168487D01*
X200585543Y-73400501D01*
X200459603Y-73703797D01*
X200459317Y-74032202D01*
X173547671Y-74032202D01*
X173332934Y-73888720D01*
X173662107Y-73668774D01*
X173984014Y-73187005D01*
X174062033Y-72794777D01*
X182869806Y-72794777D01*
X183004863Y-73121640D01*
X183254724Y-73371938D01*
X183581351Y-73507566D01*
X183935017Y-73507874D01*
X184261880Y-73372817D01*
X184512178Y-73122956D01*
X184647806Y-72796329D01*
X184647807Y-72794780D01*
X184782863Y-73121640D01*
X185032724Y-73371938D01*
X185359351Y-73507566D01*
X185713017Y-73507874D01*
X186039880Y-73372817D01*
X186290178Y-73122956D01*
X186425806Y-72796329D01*
X186426114Y-72442663D01*
X186361704Y-72286777D01*
X187187806Y-72286777D01*
X187322863Y-72613640D01*
X187572724Y-72863938D01*
X187899351Y-72999566D01*
X188253017Y-72999874D01*
X188579880Y-72864817D01*
X188830178Y-72614956D01*
X188965806Y-72288329D01*
X188966114Y-71934663D01*
X188831057Y-71607800D01*
X188581196Y-71357502D01*
X188254569Y-71221874D01*
X187900903Y-71221566D01*
X187574040Y-71356623D01*
X187323742Y-71606484D01*
X187188114Y-71933111D01*
X187187806Y-72286777D01*
X186361704Y-72286777D01*
X186291057Y-72115800D01*
X186041196Y-71865502D01*
X185714569Y-71729874D01*
X185360903Y-71729566D01*
X185034040Y-71864623D01*
X184783742Y-72114484D01*
X184648114Y-72441111D01*
X184648113Y-72442660D01*
X184513057Y-72115800D01*
X184263196Y-71865502D01*
X183936569Y-71729874D01*
X183582903Y-71729566D01*
X183256040Y-71864623D01*
X183005742Y-72114484D01*
X182870114Y-72441111D01*
X182869806Y-72794777D01*
X174062033Y-72794777D01*
X174097053Y-72618720D01*
X173984014Y-72050435D01*
X173662107Y-71568666D01*
X173332934Y-71348720D01*
X173662107Y-71128774D01*
X173984014Y-70647005D01*
X174097053Y-70078720D01*
X173984014Y-69510435D01*
X173748364Y-69157759D01*
X179065056Y-69157759D01*
X179225919Y-69546143D01*
X179601826Y-69961109D01*
X180107919Y-70200634D01*
X180329960Y-70079349D01*
X180329960Y-68935720D01*
X180583960Y-68935720D01*
X180583960Y-70079349D01*
X180806001Y-70200634D01*
X181312094Y-69961109D01*
X181688001Y-69546143D01*
X181848864Y-69157759D01*
X181746919Y-68972202D01*
X182933317Y-68972202D01*
X183058727Y-69275718D01*
X183290741Y-69508137D01*
X183594037Y-69634077D01*
X183922442Y-69634363D01*
X184225958Y-69508953D01*
X184458377Y-69276939D01*
X184584317Y-68973643D01*
X184584603Y-68645238D01*
X184459193Y-68341722D01*
X184227179Y-68109303D01*
X183923883Y-67983363D01*
X183595478Y-67983077D01*
X183291962Y-68108487D01*
X183059543Y-68340501D01*
X182933603Y-68643797D01*
X182933317Y-68972202D01*
X181746919Y-68972202D01*
X181726875Y-68935720D01*
X180583960Y-68935720D01*
X180329960Y-68935720D01*
X179187045Y-68935720D01*
X179065056Y-69157759D01*
X173748364Y-69157759D01*
X173662107Y-69028666D01*
X173332934Y-68808720D01*
X173662107Y-68588774D01*
X173984014Y-68107005D01*
X174097053Y-67538720D01*
X173984014Y-66970435D01*
X173748364Y-66617759D01*
X179065056Y-66617759D01*
X179225919Y-67006143D01*
X179601826Y-67421109D01*
X179850327Y-67538720D01*
X179601826Y-67656331D01*
X179225919Y-68071297D01*
X179065056Y-68459681D01*
X179187045Y-68681720D01*
X180329960Y-68681720D01*
X180329960Y-66395720D01*
X180583960Y-66395720D01*
X180583960Y-68681720D01*
X181726875Y-68681720D01*
X181848864Y-68459681D01*
X181688001Y-68071297D01*
X181312094Y-67656331D01*
X181063593Y-67538720D01*
X181312094Y-67421109D01*
X181688001Y-67006143D01*
X181848864Y-66617759D01*
X181746919Y-66432202D01*
X183949317Y-66432202D01*
X184074727Y-66735718D01*
X184306741Y-66968137D01*
X184610037Y-67094077D01*
X184938442Y-67094363D01*
X185241958Y-66968953D01*
X185474377Y-66736939D01*
X185600317Y-66433643D01*
X185600603Y-66105238D01*
X185475193Y-65801722D01*
X185243179Y-65569303D01*
X184939883Y-65443363D01*
X184611478Y-65443077D01*
X184307962Y-65568487D01*
X184075543Y-65800501D01*
X183949603Y-66103797D01*
X183949317Y-66432202D01*
X181746919Y-66432202D01*
X181726875Y-66395720D01*
X180583960Y-66395720D01*
X180329960Y-66395720D01*
X179187045Y-66395720D01*
X179065056Y-66617759D01*
X173748364Y-66617759D01*
X173662107Y-66488666D01*
X173332934Y-66268720D01*
X173662107Y-66048774D01*
X173984014Y-65567005D01*
X174097053Y-64998720D01*
X173984014Y-64430435D01*
X173748364Y-64077759D01*
X179065056Y-64077759D01*
X179225919Y-64466143D01*
X179601826Y-64881109D01*
X179850327Y-64998720D01*
X179601826Y-65116331D01*
X179225919Y-65531297D01*
X179065056Y-65919681D01*
X179187045Y-66141720D01*
X180329960Y-66141720D01*
X180329960Y-63855720D01*
X180583960Y-63855720D01*
X180583960Y-66141720D01*
X181726875Y-66141720D01*
X181848864Y-65919681D01*
X181688001Y-65531297D01*
X181312094Y-65116331D01*
X181063593Y-64998720D01*
X181312094Y-64881109D01*
X181688001Y-64466143D01*
X181848864Y-64077759D01*
X181726875Y-63855720D01*
X180583960Y-63855720D01*
X180329960Y-63855720D01*
X179187045Y-63855720D01*
X179065056Y-64077759D01*
X173748364Y-64077759D01*
X173662107Y-63948666D01*
X173332934Y-63728720D01*
X173662107Y-63508774D01*
X173984014Y-63027005D01*
X174097053Y-62458720D01*
X173984014Y-61890435D01*
X173706076Y-61474470D01*
X179021960Y-61474470D01*
X179021960Y-62115030D01*
X179118633Y-62348419D01*
X179297262Y-62527047D01*
X179530651Y-62623720D01*
X179558898Y-62623720D01*
X179225919Y-62991297D01*
X179065056Y-63379681D01*
X179187045Y-63601720D01*
X180329960Y-63601720D01*
X180329960Y-61315720D01*
X180583960Y-61315720D01*
X180583960Y-63601720D01*
X181726875Y-63601720D01*
X181848864Y-63379681D01*
X181688001Y-62991297D01*
X181355022Y-62623720D01*
X181383269Y-62623720D01*
X181616658Y-62527047D01*
X181795287Y-62348419D01*
X181891960Y-62115030D01*
X181891960Y-61474470D01*
X181733210Y-61315720D01*
X180583960Y-61315720D01*
X180329960Y-61315720D01*
X179180710Y-61315720D01*
X179021960Y-61474470D01*
X173706076Y-61474470D01*
X173662107Y-61408666D01*
X173332934Y-61188720D01*
X186613847Y-61188720D01*
X186723080Y-61737871D01*
X187034149Y-62203418D01*
X187416235Y-62458720D01*
X187034149Y-62714022D01*
X186723080Y-63179569D01*
X186613847Y-63728720D01*
X186723080Y-64277871D01*
X187034149Y-64743418D01*
X187416235Y-64998720D01*
X187034149Y-65254022D01*
X186723080Y-65719569D01*
X186613847Y-66268720D01*
X186723080Y-66817871D01*
X187034149Y-67283418D01*
X187416235Y-67538720D01*
X187034149Y-67794022D01*
X186723080Y-68259569D01*
X186613847Y-68808720D01*
X186723080Y-69357871D01*
X187034149Y-69823418D01*
X187499696Y-70134487D01*
X188048847Y-70243720D01*
X188105073Y-70243720D01*
X188654224Y-70134487D01*
X189119771Y-69823418D01*
X189290282Y-69568230D01*
X192394740Y-69568230D01*
X192587678Y-70035178D01*
X192944623Y-70392746D01*
X193411233Y-70586499D01*
X193916470Y-70586940D01*
X194383418Y-70394002D01*
X194740986Y-70037057D01*
X194934739Y-69570447D01*
X194935180Y-69065210D01*
X194742242Y-68598262D01*
X194385297Y-68240694D01*
X193918687Y-68046941D01*
X193413450Y-68046500D01*
X192946502Y-68239438D01*
X192588934Y-68596383D01*
X192395181Y-69062993D01*
X192394740Y-69568230D01*
X189290282Y-69568230D01*
X189430840Y-69357871D01*
X189540073Y-68808720D01*
X189430840Y-68259569D01*
X189119771Y-67794022D01*
X188737685Y-67538720D01*
X189119771Y-67283418D01*
X189430840Y-66817871D01*
X189431768Y-66813202D01*
X204396317Y-66813202D01*
X204521727Y-67116718D01*
X204753741Y-67349137D01*
X205057037Y-67475077D01*
X205385442Y-67475363D01*
X205688958Y-67349953D01*
X205921377Y-67117939D01*
X206047317Y-66814643D01*
X206047603Y-66486238D01*
X205995851Y-66360988D01*
X206097651Y-66115827D01*
X206097937Y-65787422D01*
X205972527Y-65483906D01*
X205740513Y-65251487D01*
X205437217Y-65125547D01*
X205108812Y-65125261D01*
X204805296Y-65250671D01*
X204572877Y-65482685D01*
X204446937Y-65785981D01*
X204446651Y-66114386D01*
X204498403Y-66239636D01*
X204396603Y-66484797D01*
X204396317Y-66813202D01*
X189431768Y-66813202D01*
X189540073Y-66268720D01*
X189430840Y-65719569D01*
X189119771Y-65254022D01*
X188737685Y-64998720D01*
X188741411Y-64996230D01*
X191886740Y-64996230D01*
X192079678Y-65463178D01*
X192436623Y-65820746D01*
X192903233Y-66014499D01*
X193408470Y-66014940D01*
X193875418Y-65822002D01*
X194232986Y-65465057D01*
X194253273Y-65416200D01*
X195887317Y-65416200D01*
X196012727Y-65719716D01*
X196244741Y-65952135D01*
X196548037Y-66078075D01*
X196876442Y-66078361D01*
X197179958Y-65952951D01*
X197412377Y-65720937D01*
X197538317Y-65417641D01*
X197538603Y-65089236D01*
X197413193Y-64785720D01*
X197181179Y-64553301D01*
X196877883Y-64427361D01*
X196549478Y-64427075D01*
X196245962Y-64552485D01*
X196013543Y-64784499D01*
X195887603Y-65087795D01*
X195887317Y-65416200D01*
X194253273Y-65416200D01*
X194426739Y-64998447D01*
X194427180Y-64493210D01*
X194234242Y-64026262D01*
X193877297Y-63668694D01*
X193410687Y-63474941D01*
X192905450Y-63474500D01*
X192438502Y-63667438D01*
X192080934Y-64024383D01*
X191887181Y-64490993D01*
X191886740Y-64996230D01*
X188741411Y-64996230D01*
X189119771Y-64743418D01*
X189430840Y-64277871D01*
X189540073Y-63728720D01*
X189430840Y-63179569D01*
X189119771Y-62714022D01*
X188737685Y-62458720D01*
X188741411Y-62456230D01*
X195061740Y-62456230D01*
X195254678Y-62923178D01*
X195611623Y-63280746D01*
X196078233Y-63474499D01*
X196583470Y-63474940D01*
X197050418Y-63282002D01*
X197407986Y-62925057D01*
X197601739Y-62458447D01*
X197602180Y-61953210D01*
X197409242Y-61486262D01*
X197052297Y-61128694D01*
X197009148Y-61110777D01*
X203443806Y-61110777D01*
X203578863Y-61437640D01*
X203828724Y-61687938D01*
X204155351Y-61823566D01*
X204509017Y-61823874D01*
X204835880Y-61688817D01*
X205086178Y-61438956D01*
X205221806Y-61112329D01*
X205222114Y-60758663D01*
X205087057Y-60431800D01*
X204837196Y-60181502D01*
X204510569Y-60045874D01*
X204156903Y-60045566D01*
X203830040Y-60180623D01*
X203579742Y-60430484D01*
X203444114Y-60757111D01*
X203443806Y-61110777D01*
X197009148Y-61110777D01*
X196585687Y-60934941D01*
X196080450Y-60934500D01*
X195613502Y-61127438D01*
X195255934Y-61484383D01*
X195062181Y-61950993D01*
X195061740Y-62456230D01*
X188741411Y-62456230D01*
X189119771Y-62203418D01*
X189430840Y-61737871D01*
X189540073Y-61188720D01*
X189430840Y-60639569D01*
X189119771Y-60174022D01*
X188654224Y-59862953D01*
X188105073Y-59753720D01*
X188048847Y-59753720D01*
X187499696Y-59862953D01*
X187034149Y-60174022D01*
X186723080Y-60639569D01*
X186613847Y-61188720D01*
X173332934Y-61188720D01*
X173662107Y-60968774D01*
X173984014Y-60487005D01*
X174028688Y-60262410D01*
X179021960Y-60262410D01*
X179021960Y-60902970D01*
X179180710Y-61061720D01*
X180329960Y-61061720D01*
X180329960Y-59912470D01*
X180583960Y-59912470D01*
X180583960Y-61061720D01*
X181733210Y-61061720D01*
X181891960Y-60902970D01*
X181891960Y-60262410D01*
X181795287Y-60029021D01*
X181616658Y-59850393D01*
X181383269Y-59753720D01*
X180742710Y-59753720D01*
X180583960Y-59912470D01*
X180329960Y-59912470D01*
X180171210Y-59753720D01*
X179530651Y-59753720D01*
X179297262Y-59850393D01*
X179118633Y-60029021D01*
X179021960Y-60262410D01*
X174028688Y-60262410D01*
X174097053Y-59918720D01*
X173984014Y-59350435D01*
X173662107Y-58868666D01*
X173180338Y-58546759D01*
X172612053Y-58433720D01*
X172553867Y-58433720D01*
X171985582Y-58546759D01*
X171503813Y-58868666D01*
X171312960Y-59154298D01*
X171122107Y-58868666D01*
X170640338Y-58546759D01*
X170072053Y-58433720D01*
X170013867Y-58433720D01*
X169445582Y-58546759D01*
X168963813Y-58868666D01*
X168641906Y-59350435D01*
X168528867Y-59918720D01*
X167756960Y-59918720D01*
X167757224Y-59616908D01*
X167525698Y-59056571D01*
X167097364Y-58627489D01*
X166537432Y-58394985D01*
X165931148Y-58394456D01*
X165370811Y-58625982D01*
X164962624Y-59033457D01*
X164557364Y-58627489D01*
X163997432Y-58394985D01*
X163391148Y-58394456D01*
X162830811Y-58625982D01*
X162479685Y-58976496D01*
X162361193Y-58689722D01*
X162129179Y-58457303D01*
X161825883Y-58331363D01*
X161497478Y-58331077D01*
X161193962Y-58456487D01*
X160961543Y-58688501D01*
X160835603Y-58991797D01*
X160835317Y-59320202D01*
X146022985Y-59320202D01*
X146023256Y-59010072D01*
X145763473Y-58381348D01*
X145432905Y-58050202D01*
X180482227Y-58050202D01*
X180607637Y-58353718D01*
X180839651Y-58586137D01*
X181142947Y-58712077D01*
X181471352Y-58712363D01*
X181774868Y-58586953D01*
X182007287Y-58354939D01*
X182133227Y-58051643D01*
X182133242Y-58034251D01*
X192674151Y-58034251D01*
X192854292Y-58470227D01*
X192674592Y-58902993D01*
X192674151Y-59408230D01*
X192867089Y-59875178D01*
X193224034Y-60232746D01*
X193690644Y-60426499D01*
X194195881Y-60426940D01*
X194662829Y-60234002D01*
X195020397Y-59877057D01*
X195214150Y-59410447D01*
X195214591Y-58905210D01*
X195108583Y-58648650D01*
X195440470Y-58648940D01*
X195907418Y-58456002D01*
X196264986Y-58099057D01*
X196458739Y-57632447D01*
X196459180Y-57127210D01*
X196266242Y-56660262D01*
X195909297Y-56302694D01*
X195595537Y-56172410D01*
X195595590Y-56111210D01*
X195562356Y-56030777D01*
X197601806Y-56030777D01*
X197736863Y-56357640D01*
X197986724Y-56607938D01*
X198313351Y-56743566D01*
X198667017Y-56743874D01*
X198993880Y-56608817D01*
X199244178Y-56358956D01*
X199379806Y-56032329D01*
X199380114Y-55678663D01*
X199245057Y-55351800D01*
X198995196Y-55101502D01*
X198668569Y-54965874D01*
X198314903Y-54965566D01*
X197988040Y-55100623D01*
X197737742Y-55350484D01*
X197602114Y-55677111D01*
X197601806Y-56030777D01*
X195562356Y-56030777D01*
X195402652Y-55644262D01*
X195045707Y-55286694D01*
X194579097Y-55092941D01*
X194073860Y-55092500D01*
X193606912Y-55285438D01*
X193249344Y-55642383D01*
X193055591Y-56108993D01*
X193055150Y-56614230D01*
X193131703Y-56799504D01*
X192868345Y-57062404D01*
X192674592Y-57529014D01*
X192674151Y-58034251D01*
X182133242Y-58034251D01*
X182133513Y-57723238D01*
X182008103Y-57419722D01*
X181776089Y-57187303D01*
X181472793Y-57061363D01*
X181144388Y-57061077D01*
X180840872Y-57186487D01*
X180608453Y-57418501D01*
X180482513Y-57721797D01*
X180482227Y-58050202D01*
X145432905Y-58050202D01*
X145282862Y-57899898D01*
X144654592Y-57639017D01*
X143974312Y-57638424D01*
X143345588Y-57898207D01*
X142864138Y-58378818D01*
X142603257Y-59007088D01*
X142602664Y-59687368D01*
X141031035Y-59687368D01*
X140964014Y-59350435D01*
X140642107Y-58868666D01*
X140160338Y-58546759D01*
X139592053Y-58433720D01*
X139533867Y-58433720D01*
X138965582Y-58546759D01*
X138483813Y-58868666D01*
X138292960Y-59154298D01*
X138102107Y-58868666D01*
X137620338Y-58546759D01*
X137052053Y-58433720D01*
X136993867Y-58433720D01*
X136425582Y-58546759D01*
X135943813Y-58868666D01*
X135621906Y-59350435D01*
X135508867Y-59918720D01*
X130341960Y-59918720D01*
X130341960Y-55776777D01*
X182869806Y-55776777D01*
X183004863Y-56103640D01*
X183254724Y-56353938D01*
X183581351Y-56489566D01*
X183935017Y-56489874D01*
X184261880Y-56354817D01*
X184512178Y-56104956D01*
X184647806Y-55778329D01*
X184648114Y-55424663D01*
X184513057Y-55097800D01*
X184263196Y-54847502D01*
X183936569Y-54711874D01*
X183582903Y-54711566D01*
X183256040Y-54846623D01*
X183005742Y-55096484D01*
X182870114Y-55423111D01*
X182869806Y-55776777D01*
X130341960Y-55776777D01*
X130341960Y-53224202D01*
X172265317Y-53224202D01*
X172390727Y-53527718D01*
X172622741Y-53760137D01*
X172926037Y-53886077D01*
X173254442Y-53886363D01*
X173557958Y-53760953D01*
X173790377Y-53528939D01*
X173907910Y-53245887D01*
X177235798Y-53245887D01*
X177377843Y-53589663D01*
X177640633Y-53852912D01*
X177984161Y-53995558D01*
X178006984Y-53995578D01*
X177998122Y-54016921D01*
X177997798Y-54388887D01*
X178139843Y-54732663D01*
X178402633Y-54995912D01*
X178746161Y-55138558D01*
X179118127Y-55138882D01*
X179461903Y-54996837D01*
X179725152Y-54734047D01*
X179867798Y-54390519D01*
X179868122Y-54018553D01*
X179726077Y-53674777D01*
X179463287Y-53411528D01*
X179119759Y-53268882D01*
X179096936Y-53268862D01*
X179105798Y-53247519D01*
X179105928Y-53097202D01*
X180012317Y-53097202D01*
X180137727Y-53400718D01*
X180369741Y-53633137D01*
X180673037Y-53759077D01*
X181001442Y-53759363D01*
X181304958Y-53633953D01*
X181448383Y-53490777D01*
X186425806Y-53490777D01*
X186560863Y-53817640D01*
X186810724Y-54067938D01*
X187137351Y-54203566D01*
X187491017Y-54203874D01*
X187817880Y-54068817D01*
X188068178Y-53818956D01*
X188203806Y-53492329D01*
X188204114Y-53138663D01*
X188069057Y-52811800D01*
X187986179Y-52728777D01*
X190972396Y-52728777D01*
X191107453Y-53055640D01*
X191357314Y-53305938D01*
X191683941Y-53441566D01*
X192037607Y-53441874D01*
X192364470Y-53306817D01*
X192614768Y-53056956D01*
X192750396Y-52730329D01*
X192750704Y-52376663D01*
X192615647Y-52049800D01*
X192365786Y-51799502D01*
X192039159Y-51663874D01*
X191685493Y-51663566D01*
X191358630Y-51798623D01*
X191108332Y-52048484D01*
X190972704Y-52375111D01*
X190972396Y-52728777D01*
X187986179Y-52728777D01*
X187819196Y-52561502D01*
X187492569Y-52425874D01*
X187138903Y-52425566D01*
X186812040Y-52560623D01*
X186561742Y-52810484D01*
X186426114Y-53137111D01*
X186425806Y-53490777D01*
X181448383Y-53490777D01*
X181537377Y-53401939D01*
X181663317Y-53098643D01*
X181663603Y-52770238D01*
X181538193Y-52466722D01*
X181306179Y-52234303D01*
X181002883Y-52108363D01*
X180674478Y-52108077D01*
X180370962Y-52233487D01*
X180138543Y-52465501D01*
X180012603Y-52768797D01*
X180012317Y-53097202D01*
X179105928Y-53097202D01*
X179106122Y-52875553D01*
X178964077Y-52531777D01*
X178701287Y-52268528D01*
X178357759Y-52125882D01*
X177985793Y-52125558D01*
X177642017Y-52267603D01*
X177378768Y-52530393D01*
X177236122Y-52873921D01*
X177235798Y-53245887D01*
X173907910Y-53245887D01*
X173916317Y-53225643D01*
X173916603Y-52897238D01*
X173791193Y-52593722D01*
X173559179Y-52361303D01*
X173255883Y-52235363D01*
X172927478Y-52235077D01*
X172623962Y-52360487D01*
X172391543Y-52592501D01*
X172265603Y-52895797D01*
X172265317Y-53224202D01*
X130341960Y-53224202D01*
X130341960Y-51204777D01*
X146293806Y-51204777D01*
X146428863Y-51531640D01*
X146678724Y-51781938D01*
X147005351Y-51917566D01*
X147359017Y-51917874D01*
X147685880Y-51782817D01*
X147936178Y-51532956D01*
X148071806Y-51206329D01*
X148072114Y-50852663D01*
X147937057Y-50525800D01*
X147687196Y-50275502D01*
X147360569Y-50139874D01*
X147006903Y-50139566D01*
X146680040Y-50274623D01*
X146429742Y-50524484D01*
X146294114Y-50851111D01*
X146293806Y-51204777D01*
X130341960Y-51204777D01*
X130341960Y-49934777D01*
X145023806Y-49934777D01*
X145158863Y-50261640D01*
X145408724Y-50511938D01*
X145735351Y-50647566D01*
X146089017Y-50647874D01*
X146415880Y-50512817D01*
X146666178Y-50262956D01*
X146801806Y-49936329D01*
X146802000Y-49712777D01*
X156453806Y-49712777D01*
X156588863Y-50039640D01*
X156838724Y-50289938D01*
X157165351Y-50425566D01*
X157410421Y-50425779D01*
X157410296Y-50569777D01*
X157545353Y-50896640D01*
X157795214Y-51146938D01*
X158121841Y-51282566D01*
X158475507Y-51282874D01*
X158802370Y-51147817D01*
X159052668Y-50897956D01*
X159188296Y-50571329D01*
X159188604Y-50217663D01*
X159159315Y-50146777D01*
X161533806Y-50146777D01*
X161668863Y-50473640D01*
X161918724Y-50723938D01*
X162245351Y-50859566D01*
X162599017Y-50859874D01*
X162925880Y-50724817D01*
X163176178Y-50474956D01*
X163311806Y-50148329D01*
X163312114Y-49794663D01*
X163177057Y-49467800D01*
X163063658Y-49354202D01*
X172265317Y-49354202D01*
X172390727Y-49657718D01*
X172622741Y-49890137D01*
X172926037Y-50016077D01*
X173254442Y-50016363D01*
X173557958Y-49890953D01*
X173781097Y-49668202D01*
X184203317Y-49668202D01*
X184328727Y-49971718D01*
X184560741Y-50204137D01*
X184864037Y-50330077D01*
X185192442Y-50330363D01*
X185495958Y-50204953D01*
X185512162Y-50188777D01*
X186933806Y-50188777D01*
X187068863Y-50515640D01*
X187318724Y-50765938D01*
X187645351Y-50901566D01*
X187999017Y-50901874D01*
X188325880Y-50766817D01*
X188576178Y-50516956D01*
X188711806Y-50190329D01*
X188711850Y-50139831D01*
X188761017Y-50139874D01*
X189087880Y-50004817D01*
X189338178Y-49754956D01*
X189473806Y-49428329D01*
X189474114Y-49074663D01*
X189339057Y-48747800D01*
X189089196Y-48497502D01*
X188762569Y-48361874D01*
X188408903Y-48361566D01*
X188082040Y-48496623D01*
X187831742Y-48746484D01*
X187696114Y-49073111D01*
X187696070Y-49123609D01*
X187646903Y-49123566D01*
X187320040Y-49258623D01*
X187069742Y-49508484D01*
X186934114Y-49835111D01*
X186933806Y-50188777D01*
X185512162Y-50188777D01*
X185728377Y-49972939D01*
X185854317Y-49669643D01*
X185854603Y-49341238D01*
X185729193Y-49037722D01*
X185497179Y-48805303D01*
X185193883Y-48679363D01*
X184865478Y-48679077D01*
X184561962Y-48804487D01*
X184329543Y-49036501D01*
X184203603Y-49339797D01*
X184203317Y-49668202D01*
X173781097Y-49668202D01*
X173790377Y-49658939D01*
X173916317Y-49355643D01*
X173916603Y-49027238D01*
X173791193Y-48723722D01*
X173719798Y-48652202D01*
X180901317Y-48652202D01*
X181026727Y-48955718D01*
X181258741Y-49188137D01*
X181562037Y-49314077D01*
X181890442Y-49314363D01*
X182193958Y-49188953D01*
X182426377Y-48956939D01*
X182552317Y-48653643D01*
X182552603Y-48325238D01*
X182427193Y-48021722D01*
X182195179Y-47789303D01*
X181891883Y-47663363D01*
X181563478Y-47663077D01*
X181259962Y-47788487D01*
X181027543Y-48020501D01*
X180901603Y-48323797D01*
X180901317Y-48652202D01*
X173719798Y-48652202D01*
X173559179Y-48491303D01*
X173255883Y-48365363D01*
X172927478Y-48365077D01*
X172623962Y-48490487D01*
X172391543Y-48722501D01*
X172265603Y-49025797D01*
X172265317Y-49354202D01*
X163063658Y-49354202D01*
X162927196Y-49217502D01*
X162807800Y-49167924D01*
X162957657Y-49106005D01*
X163207955Y-48856144D01*
X163343583Y-48529517D01*
X163343891Y-48175851D01*
X163208834Y-47848988D01*
X162958973Y-47598690D01*
X162632346Y-47463062D01*
X162278680Y-47462754D01*
X161951817Y-47597811D01*
X161701519Y-47847672D01*
X161565891Y-48174299D01*
X161565583Y-48527965D01*
X161700640Y-48854828D01*
X161950501Y-49105126D01*
X162069897Y-49154704D01*
X161920040Y-49216623D01*
X161669742Y-49466484D01*
X161534114Y-49793111D01*
X161533806Y-50146777D01*
X159159315Y-50146777D01*
X159053547Y-49890800D01*
X158803686Y-49640502D01*
X158477059Y-49504874D01*
X158231989Y-49504661D01*
X158232114Y-49360663D01*
X158097057Y-49033800D01*
X157847196Y-48783502D01*
X157520569Y-48647874D01*
X157166903Y-48647566D01*
X156840040Y-48782623D01*
X156589742Y-49032484D01*
X156454114Y-49359111D01*
X156453806Y-49712777D01*
X146802000Y-49712777D01*
X146802114Y-49582663D01*
X146667057Y-49255800D01*
X146417196Y-49005502D01*
X146090569Y-48869874D01*
X145736903Y-48869566D01*
X145410040Y-49004623D01*
X145159742Y-49254484D01*
X145024114Y-49581111D01*
X145023806Y-49934777D01*
X130341960Y-49934777D01*
X130341960Y-46712496D01*
X131292410Y-46712496D01*
X131774756Y-47879863D01*
X132667119Y-48773785D01*
X133833643Y-49258168D01*
X135096736Y-49259270D01*
X136264103Y-48776924D01*
X137158025Y-47884561D01*
X137516362Y-47021590D01*
X137976523Y-47482554D01*
X138583115Y-47734433D01*
X139059814Y-47734849D01*
X138809742Y-47984484D01*
X138674114Y-48311111D01*
X138673806Y-48664777D01*
X138808863Y-48991640D01*
X139058724Y-49241938D01*
X139385351Y-49377566D01*
X139739017Y-49377874D01*
X140065880Y-49242817D01*
X140316178Y-48992956D01*
X140451806Y-48666329D01*
X140452114Y-48312663D01*
X140317057Y-47985800D01*
X140067196Y-47735502D01*
X139740569Y-47599874D01*
X139567333Y-47599723D01*
X139846955Y-47484186D01*
X140311794Y-47020157D01*
X140563673Y-46413565D01*
X140563675Y-46410683D01*
X144881674Y-46410683D01*
X145132494Y-47017715D01*
X145596523Y-47482554D01*
X146203115Y-47734433D01*
X146859923Y-47735006D01*
X147466955Y-47484186D01*
X147930193Y-47021755D01*
X148284756Y-47879863D01*
X149177119Y-48773785D01*
X150343643Y-49258168D01*
X151606736Y-49259270D01*
X152774103Y-48776924D01*
X153522555Y-48029777D01*
X157410296Y-48029777D01*
X157545353Y-48356640D01*
X157795214Y-48606938D01*
X158121841Y-48742566D01*
X158475507Y-48742874D01*
X158802370Y-48607817D01*
X159052668Y-48357956D01*
X159188296Y-48031329D01*
X159188604Y-47677663D01*
X159053547Y-47350800D01*
X158803686Y-47100502D01*
X158477059Y-46964874D01*
X158123393Y-46964566D01*
X157796530Y-47099623D01*
X157546232Y-47349484D01*
X157410604Y-47676111D01*
X157410296Y-48029777D01*
X153522555Y-48029777D01*
X153668025Y-47884561D01*
X154131293Y-46768887D01*
X166567798Y-46768887D01*
X166709843Y-47112663D01*
X166815670Y-47218674D01*
X166710768Y-47323393D01*
X166568122Y-47666921D01*
X166567798Y-48038887D01*
X166709843Y-48382663D01*
X166972633Y-48645912D01*
X167316161Y-48788558D01*
X167688127Y-48788882D01*
X168031903Y-48646837D01*
X168295152Y-48384047D01*
X168437798Y-48040519D01*
X168438122Y-47668553D01*
X168296077Y-47324777D01*
X168190250Y-47218766D01*
X168295152Y-47114047D01*
X168437798Y-46770519D01*
X168438122Y-46398553D01*
X168296077Y-46054777D01*
X168190205Y-45948720D01*
X210438867Y-45948720D01*
X210551906Y-46517005D01*
X210873813Y-46998774D01*
X211202986Y-47218720D01*
X210873813Y-47438666D01*
X210551906Y-47920435D01*
X210438867Y-48488720D01*
X210551906Y-49057005D01*
X210873813Y-49538774D01*
X211202986Y-49758720D01*
X210873813Y-49978666D01*
X210551906Y-50460435D01*
X210438867Y-51028720D01*
X210551906Y-51597005D01*
X210873813Y-52078774D01*
X211202986Y-52298720D01*
X210873813Y-52518666D01*
X210551906Y-53000435D01*
X210438867Y-53568720D01*
X210551906Y-54137005D01*
X210873813Y-54618774D01*
X211202986Y-54838720D01*
X210873813Y-55058666D01*
X210551906Y-55540435D01*
X210438867Y-56108720D01*
X210551906Y-56677005D01*
X210873813Y-57158774D01*
X211202986Y-57378720D01*
X210873813Y-57598666D01*
X210551906Y-58080435D01*
X210438867Y-58648720D01*
X210551906Y-59217005D01*
X210873813Y-59698774D01*
X211202986Y-59918720D01*
X210873813Y-60138666D01*
X210551906Y-60620435D01*
X210438867Y-61188720D01*
X210551906Y-61757005D01*
X210873813Y-62238774D01*
X211202986Y-62458720D01*
X210873813Y-62678666D01*
X210551906Y-63160435D01*
X210438867Y-63728720D01*
X210551906Y-64297005D01*
X210873813Y-64778774D01*
X211202986Y-64998720D01*
X210873813Y-65218666D01*
X210551906Y-65700435D01*
X210438867Y-66268720D01*
X210551906Y-66837005D01*
X210873813Y-67318774D01*
X211202986Y-67538720D01*
X210873813Y-67758666D01*
X210551906Y-68240435D01*
X210438867Y-68808720D01*
X210551906Y-69377005D01*
X210873813Y-69858774D01*
X211202986Y-70078720D01*
X210873813Y-70298666D01*
X210551906Y-70780435D01*
X210438867Y-71348720D01*
X210551906Y-71917005D01*
X210873813Y-72398774D01*
X211202986Y-72618720D01*
X210873813Y-72838666D01*
X210551906Y-73320435D01*
X210438867Y-73888720D01*
X210551906Y-74457005D01*
X210873813Y-74938774D01*
X211202986Y-75158720D01*
X210873813Y-75378666D01*
X210551906Y-75860435D01*
X210438867Y-76428720D01*
X210551906Y-76997005D01*
X210873813Y-77478774D01*
X211202986Y-77698720D01*
X210873813Y-77918666D01*
X210551906Y-78400435D01*
X210438867Y-78968720D01*
X210551906Y-79537005D01*
X210873813Y-80018774D01*
X211214513Y-80246422D01*
X211071602Y-80313537D01*
X210681315Y-80741796D01*
X210511484Y-81151830D01*
X210632805Y-81381720D01*
X211825960Y-81381720D01*
X211825960Y-81361720D01*
X212079960Y-81361720D01*
X212079960Y-81381720D01*
X214365960Y-81381720D01*
X214365960Y-79095720D01*
X214345960Y-79095720D01*
X214345960Y-78841720D01*
X214365960Y-78841720D01*
X214365960Y-76555720D01*
X214345960Y-76555720D01*
X214345960Y-76301720D01*
X214365960Y-76301720D01*
X214365960Y-74015720D01*
X214345960Y-74015720D01*
X214345960Y-73761720D01*
X214365960Y-73761720D01*
X214365960Y-71475720D01*
X214345960Y-71475720D01*
X214345960Y-71221720D01*
X214365960Y-71221720D01*
X214365960Y-68935720D01*
X214345960Y-68935720D01*
X214345960Y-68681720D01*
X214365960Y-68681720D01*
X214365960Y-66395720D01*
X214345960Y-66395720D01*
X214345960Y-66141720D01*
X214365960Y-66141720D01*
X214365960Y-63855720D01*
X214345960Y-63855720D01*
X214345960Y-63601720D01*
X214365960Y-63601720D01*
X214365960Y-63581720D01*
X214619960Y-63581720D01*
X214619960Y-63601720D01*
X214639960Y-63601720D01*
X214639960Y-63855720D01*
X214619960Y-63855720D01*
X214619960Y-66141720D01*
X214639960Y-66141720D01*
X214639960Y-66395720D01*
X214619960Y-66395720D01*
X214619960Y-68681720D01*
X214639960Y-68681720D01*
X214639960Y-68935720D01*
X214619960Y-68935720D01*
X214619960Y-71221720D01*
X214639960Y-71221720D01*
X214639960Y-71475720D01*
X214619960Y-71475720D01*
X214619960Y-73761720D01*
X214639960Y-73761720D01*
X214639960Y-74015720D01*
X214619960Y-74015720D01*
X214619960Y-76301720D01*
X214639960Y-76301720D01*
X214639960Y-76555720D01*
X214619960Y-76555720D01*
X214619960Y-78841720D01*
X214639960Y-78841720D01*
X214639960Y-79095720D01*
X214619960Y-79095720D01*
X214619960Y-81381720D01*
X214639960Y-81381720D01*
X214639960Y-81635720D01*
X214619960Y-81635720D01*
X214619960Y-83921720D01*
X214639960Y-83921720D01*
X214639960Y-84175720D01*
X214619960Y-84175720D01*
X214619960Y-86461720D01*
X214639960Y-86461720D01*
X214639960Y-86715720D01*
X214619960Y-86715720D01*
X214619960Y-89001720D01*
X214639960Y-89001720D01*
X214639960Y-89255720D01*
X214619960Y-89255720D01*
X214619960Y-89275720D01*
X214365960Y-89275720D01*
X214365960Y-89255720D01*
X212079960Y-89255720D01*
X212079960Y-89275720D01*
X211825960Y-89275720D01*
X211825960Y-89255720D01*
X210632805Y-89255720D01*
X210511484Y-89485610D01*
X210681315Y-89895644D01*
X211071602Y-90323903D01*
X211214513Y-90391018D01*
X210873813Y-90618666D01*
X210551906Y-91100435D01*
X210438867Y-91668720D01*
X210551906Y-92237005D01*
X210873813Y-92718774D01*
X211202986Y-92938720D01*
X210873813Y-93158666D01*
X210551906Y-93640435D01*
X210438867Y-94208720D01*
X210551906Y-94777005D01*
X210873813Y-95258774D01*
X211202986Y-95478720D01*
X210873813Y-95698666D01*
X210551906Y-96180435D01*
X210438867Y-96748720D01*
X210551906Y-97317005D01*
X210873813Y-97798774D01*
X211202986Y-98018720D01*
X210873813Y-98238666D01*
X210551906Y-98720435D01*
X210438867Y-99288720D01*
X210551906Y-99857005D01*
X210873813Y-100338774D01*
X211202986Y-100558720D01*
X210873813Y-100778666D01*
X210551906Y-101260435D01*
X210438867Y-101828720D01*
X210551906Y-102397005D01*
X210873813Y-102878774D01*
X211202986Y-103098720D01*
X210873813Y-103318666D01*
X210551906Y-103800435D01*
X210438867Y-104368720D01*
X210551906Y-104937005D01*
X210873813Y-105418774D01*
X211202986Y-105638720D01*
X210873813Y-105858666D01*
X210551906Y-106340435D01*
X210438867Y-106908720D01*
X210551906Y-107477005D01*
X210873813Y-107958774D01*
X211355582Y-108280681D01*
X211923867Y-108393720D01*
X211982053Y-108393720D01*
X212550338Y-108280681D01*
X213032107Y-107958774D01*
X213222960Y-107673142D01*
X213413813Y-107958774D01*
X213895582Y-108280681D01*
X214463867Y-108393720D01*
X214522053Y-108393720D01*
X215090338Y-108280681D01*
X215572107Y-107958774D01*
X215761305Y-107675619D01*
X215761315Y-107675644D01*
X216151602Y-108103903D01*
X216676068Y-108350206D01*
X216905960Y-108229539D01*
X216905960Y-107035720D01*
X217159960Y-107035720D01*
X217159960Y-108229539D01*
X217389852Y-108350206D01*
X217914318Y-108103903D01*
X218302960Y-107677449D01*
X218691602Y-108103903D01*
X219216068Y-108350206D01*
X219445960Y-108229539D01*
X219445960Y-107035720D01*
X219699960Y-107035720D01*
X219699960Y-108229539D01*
X219929852Y-108350206D01*
X220454318Y-108103903D01*
X220844605Y-107675644D01*
X221014436Y-107265610D01*
X220893115Y-107035720D01*
X219699960Y-107035720D01*
X219445960Y-107035720D01*
X217159960Y-107035720D01*
X216905960Y-107035720D01*
X216885960Y-107035720D01*
X216885960Y-106781720D01*
X216905960Y-106781720D01*
X216905960Y-104495720D01*
X217159960Y-104495720D01*
X217159960Y-106781720D01*
X219445960Y-106781720D01*
X219445960Y-104495720D01*
X219699960Y-104495720D01*
X219699960Y-106781720D01*
X220893115Y-106781720D01*
X221014436Y-106551830D01*
X220844605Y-106141796D01*
X220454318Y-105713537D01*
X220295006Y-105638720D01*
X220454318Y-105563903D01*
X220844605Y-105135644D01*
X221014436Y-104725610D01*
X220893115Y-104495720D01*
X219699960Y-104495720D01*
X219445960Y-104495720D01*
X217159960Y-104495720D01*
X216905960Y-104495720D01*
X216885960Y-104495720D01*
X216885960Y-104241720D01*
X216905960Y-104241720D01*
X216905960Y-101955720D01*
X217159960Y-101955720D01*
X217159960Y-104241720D01*
X219445960Y-104241720D01*
X219445960Y-101955720D01*
X219699960Y-101955720D01*
X219699960Y-104241720D01*
X220893115Y-104241720D01*
X221014436Y-104011830D01*
X220844605Y-103601796D01*
X220454318Y-103173537D01*
X220295006Y-103098720D01*
X220454318Y-103023903D01*
X220844605Y-102595644D01*
X221014436Y-102185610D01*
X220893115Y-101955720D01*
X219699960Y-101955720D01*
X219445960Y-101955720D01*
X217159960Y-101955720D01*
X216905960Y-101955720D01*
X216885960Y-101955720D01*
X216885960Y-101701720D01*
X216905960Y-101701720D01*
X216905960Y-99415720D01*
X217159960Y-99415720D01*
X217159960Y-101701720D01*
X219445960Y-101701720D01*
X219445960Y-99415720D01*
X219699960Y-99415720D01*
X219699960Y-101701720D01*
X220893115Y-101701720D01*
X221014436Y-101471830D01*
X220844605Y-101061796D01*
X220454318Y-100633537D01*
X220295006Y-100558720D01*
X220454318Y-100483903D01*
X220844605Y-100055644D01*
X221014436Y-99645610D01*
X220893115Y-99415720D01*
X219699960Y-99415720D01*
X219445960Y-99415720D01*
X217159960Y-99415720D01*
X216905960Y-99415720D01*
X216885960Y-99415720D01*
X216885960Y-99161720D01*
X216905960Y-99161720D01*
X216905960Y-99141720D01*
X217159960Y-99141720D01*
X217159960Y-99161720D01*
X219445960Y-99161720D01*
X219445960Y-99141720D01*
X219699960Y-99141720D01*
X219699960Y-99161720D01*
X220893115Y-99161720D01*
X221014436Y-98931830D01*
X220844605Y-98521796D01*
X220454318Y-98093537D01*
X220311407Y-98026422D01*
X220652107Y-97798774D01*
X220974014Y-97317005D01*
X221087053Y-96748720D01*
X220974014Y-96180435D01*
X220652107Y-95698666D01*
X220322934Y-95478720D01*
X220652107Y-95258774D01*
X220974014Y-94777005D01*
X221087053Y-94208720D01*
X220974014Y-93640435D01*
X220652107Y-93158666D01*
X220322934Y-92938720D01*
X220652107Y-92718774D01*
X220974014Y-92237005D01*
X221087053Y-91668720D01*
X220974014Y-91100435D01*
X220652107Y-90618666D01*
X220322934Y-90398720D01*
X220652107Y-90178774D01*
X220974014Y-89697005D01*
X221087053Y-89128720D01*
X220974014Y-88560435D01*
X220652107Y-88078666D01*
X220322934Y-87858720D01*
X220652107Y-87638774D01*
X220974014Y-87157005D01*
X221087053Y-86588720D01*
X220974014Y-86020435D01*
X220652107Y-85538666D01*
X220322934Y-85318720D01*
X220652107Y-85098774D01*
X220974014Y-84617005D01*
X221087053Y-84048720D01*
X220974014Y-83480435D01*
X220652107Y-82998666D01*
X220322934Y-82778720D01*
X220652107Y-82558774D01*
X220974014Y-82077005D01*
X221087053Y-81508720D01*
X220974014Y-80940435D01*
X220652107Y-80458666D01*
X220322934Y-80238720D01*
X220652107Y-80018774D01*
X220974014Y-79537005D01*
X221087053Y-78968720D01*
X220974014Y-78400435D01*
X220652107Y-77918666D01*
X220322934Y-77698720D01*
X220652107Y-77478774D01*
X220974014Y-76997005D01*
X221087053Y-76428720D01*
X220974014Y-75860435D01*
X220652107Y-75378666D01*
X220322934Y-75158720D01*
X220652107Y-74938774D01*
X220974014Y-74457005D01*
X221087053Y-73888720D01*
X220974014Y-73320435D01*
X220652107Y-72838666D01*
X220322934Y-72618720D01*
X220652107Y-72398774D01*
X220974014Y-71917005D01*
X221087053Y-71348720D01*
X220974014Y-70780435D01*
X220652107Y-70298666D01*
X220322934Y-70078720D01*
X220652107Y-69858774D01*
X220974014Y-69377005D01*
X221087053Y-68808720D01*
X220974014Y-68240435D01*
X220652107Y-67758666D01*
X220322934Y-67538720D01*
X220652107Y-67318774D01*
X220974014Y-66837005D01*
X221087053Y-66268720D01*
X220974014Y-65700435D01*
X220652107Y-65218666D01*
X220322934Y-64998720D01*
X220652107Y-64778774D01*
X220974014Y-64297005D01*
X221087053Y-63728720D01*
X220974014Y-63160435D01*
X220652107Y-62678666D01*
X220322934Y-62458720D01*
X220652107Y-62238774D01*
X220974014Y-61757005D01*
X221087053Y-61188720D01*
X220974014Y-60620435D01*
X220652107Y-60138666D01*
X220322934Y-59918720D01*
X220652107Y-59698774D01*
X220974014Y-59217005D01*
X221087053Y-58648720D01*
X220974014Y-58080435D01*
X220652107Y-57598666D01*
X220322934Y-57378720D01*
X220652107Y-57158774D01*
X220974014Y-56677005D01*
X221087053Y-56108720D01*
X220974014Y-55540435D01*
X220652107Y-55058666D01*
X220322934Y-54838720D01*
X220652107Y-54618774D01*
X220974014Y-54137005D01*
X221087053Y-53568720D01*
X220974014Y-53000435D01*
X220652107Y-52518666D01*
X220311407Y-52291018D01*
X220454318Y-52223903D01*
X220844605Y-51795644D01*
X221014436Y-51385610D01*
X220893115Y-51155720D01*
X219699960Y-51155720D01*
X219699960Y-51175720D01*
X219445960Y-51175720D01*
X219445960Y-51155720D01*
X217159960Y-51155720D01*
X217159960Y-51175720D01*
X216905960Y-51175720D01*
X216905960Y-51155720D01*
X216885960Y-51155720D01*
X216885960Y-50901720D01*
X216905960Y-50901720D01*
X216905960Y-48615720D01*
X217159960Y-48615720D01*
X217159960Y-50901720D01*
X219445960Y-50901720D01*
X219445960Y-48615720D01*
X219699960Y-48615720D01*
X219699960Y-50901720D01*
X220893115Y-50901720D01*
X221014436Y-50671830D01*
X220844605Y-50261796D01*
X220454318Y-49833537D01*
X220295006Y-49758720D01*
X220454318Y-49683903D01*
X220844605Y-49255644D01*
X221014436Y-48845610D01*
X220893115Y-48615720D01*
X219699960Y-48615720D01*
X219445960Y-48615720D01*
X217159960Y-48615720D01*
X216905960Y-48615720D01*
X216885960Y-48615720D01*
X216885960Y-48361720D01*
X216905960Y-48361720D01*
X216905960Y-46075720D01*
X217159960Y-46075720D01*
X217159960Y-48361720D01*
X219445960Y-48361720D01*
X219445960Y-46075720D01*
X219699960Y-46075720D01*
X219699960Y-48361720D01*
X220893115Y-48361720D01*
X221014436Y-48131830D01*
X220844605Y-47721796D01*
X220454318Y-47293537D01*
X220295006Y-47218720D01*
X220454318Y-47143903D01*
X220844605Y-46715644D01*
X221014436Y-46305610D01*
X220893115Y-46075720D01*
X219699960Y-46075720D01*
X219445960Y-46075720D01*
X217159960Y-46075720D01*
X216905960Y-46075720D01*
X216885960Y-46075720D01*
X216885960Y-45821720D01*
X216905960Y-45821720D01*
X216905960Y-43535720D01*
X217159960Y-43535720D01*
X217159960Y-45821720D01*
X219445960Y-45821720D01*
X219445960Y-43535720D01*
X219699960Y-43535720D01*
X219699960Y-45821720D01*
X220893115Y-45821720D01*
X221014436Y-45591830D01*
X220844605Y-45181796D01*
X220454318Y-44753537D01*
X220295006Y-44678720D01*
X220454318Y-44603903D01*
X220844605Y-44175644D01*
X221014436Y-43765610D01*
X220893115Y-43535720D01*
X219699960Y-43535720D01*
X219445960Y-43535720D01*
X217159960Y-43535720D01*
X216905960Y-43535720D01*
X216885960Y-43535720D01*
X216885960Y-43281720D01*
X216905960Y-43281720D01*
X216905960Y-42082470D01*
X217159960Y-42082470D01*
X217159960Y-43281720D01*
X219445960Y-43281720D01*
X219445960Y-42087901D01*
X219699960Y-42087901D01*
X219699960Y-43281720D01*
X220893115Y-43281720D01*
X221014436Y-43051830D01*
X220844605Y-42641796D01*
X220454318Y-42213537D01*
X219929852Y-41967234D01*
X219699960Y-42087901D01*
X219445960Y-42087901D01*
X219216068Y-41967234D01*
X218691602Y-42213537D01*
X218509890Y-42412928D01*
X218421287Y-42199021D01*
X218242658Y-42020393D01*
X218009269Y-41923720D01*
X217318710Y-41923720D01*
X217159960Y-42082470D01*
X216905960Y-42082470D01*
X216747210Y-41923720D01*
X216056651Y-41923720D01*
X215823262Y-42020393D01*
X215644633Y-42199021D01*
X215576057Y-42364578D01*
X215572107Y-42358666D01*
X215090338Y-42036759D01*
X214522053Y-41923720D01*
X214463867Y-41923720D01*
X213895582Y-42036759D01*
X213413813Y-42358666D01*
X213412989Y-42359899D01*
X213406122Y-42323403D01*
X213267050Y-42107279D01*
X213054850Y-41962289D01*
X212802960Y-41911280D01*
X211102960Y-41911280D01*
X210867643Y-41955558D01*
X210651519Y-42094630D01*
X210506529Y-42306830D01*
X210455520Y-42558720D01*
X210455520Y-44258720D01*
X210499798Y-44494037D01*
X210638870Y-44710161D01*
X210851070Y-44855151D01*
X210918501Y-44868806D01*
X210873813Y-44898666D01*
X210551906Y-45380435D01*
X210438867Y-45948720D01*
X168190205Y-45948720D01*
X168033287Y-45791528D01*
X167689759Y-45648882D01*
X167317793Y-45648558D01*
X166974017Y-45790603D01*
X166710768Y-46053393D01*
X166568122Y-46396921D01*
X166567798Y-46768887D01*
X154131293Y-46768887D01*
X154152408Y-46718037D01*
X154153510Y-45454944D01*
X153900331Y-44842202D01*
X177345317Y-44842202D01*
X177470727Y-45145718D01*
X177702741Y-45378137D01*
X178006037Y-45504077D01*
X178334442Y-45504363D01*
X178637958Y-45378953D01*
X178870377Y-45146939D01*
X178996317Y-44843643D01*
X178996318Y-44842202D01*
X180901317Y-44842202D01*
X181026727Y-45145718D01*
X181258741Y-45378137D01*
X181562037Y-45504077D01*
X181890442Y-45504363D01*
X182193958Y-45378953D01*
X182426377Y-45146939D01*
X182552317Y-44843643D01*
X182552318Y-44842202D01*
X183441317Y-44842202D01*
X183566727Y-45145718D01*
X183798741Y-45378137D01*
X184102037Y-45504077D01*
X184430442Y-45504363D01*
X184733958Y-45378953D01*
X184966377Y-45146939D01*
X185092317Y-44843643D01*
X185092603Y-44515238D01*
X184967193Y-44211722D01*
X184735179Y-43979303D01*
X184433904Y-43854202D01*
X186997317Y-43854202D01*
X187122727Y-44157718D01*
X187354741Y-44390137D01*
X187658037Y-44516077D01*
X187826263Y-44516224D01*
X187884727Y-44657718D01*
X188116741Y-44890137D01*
X188420037Y-45016077D01*
X188748442Y-45016363D01*
X189051958Y-44890953D01*
X189284377Y-44658939D01*
X189410317Y-44355643D01*
X189410603Y-44027238D01*
X189285193Y-43723722D01*
X189053179Y-43491303D01*
X188749883Y-43365363D01*
X188581657Y-43365216D01*
X188523193Y-43223722D01*
X188291179Y-42991303D01*
X187987883Y-42865363D01*
X187659478Y-42865077D01*
X187355962Y-42990487D01*
X187123543Y-43222501D01*
X186997603Y-43525797D01*
X186997317Y-43854202D01*
X184433904Y-43854202D01*
X184431883Y-43853363D01*
X184103478Y-43853077D01*
X183799962Y-43978487D01*
X183567543Y-44210501D01*
X183441603Y-44513797D01*
X183441317Y-44842202D01*
X182552318Y-44842202D01*
X182552603Y-44515238D01*
X182427193Y-44211722D01*
X182195179Y-43979303D01*
X181891883Y-43853363D01*
X181563478Y-43853077D01*
X181259962Y-43978487D01*
X181027543Y-44210501D01*
X180901603Y-44513797D01*
X180901317Y-44842202D01*
X178996318Y-44842202D01*
X178996603Y-44515238D01*
X178871193Y-44211722D01*
X178639179Y-43979303D01*
X178335883Y-43853363D01*
X178007478Y-43853077D01*
X177703962Y-43978487D01*
X177471543Y-44210501D01*
X177345603Y-44513797D01*
X177345317Y-44842202D01*
X153900331Y-44842202D01*
X153671164Y-44287577D01*
X152778801Y-43393655D01*
X151612277Y-42909272D01*
X150349184Y-42908170D01*
X149181817Y-43390516D01*
X148287895Y-44282879D01*
X147929558Y-45145850D01*
X147469397Y-44684886D01*
X146862805Y-44433007D01*
X146205997Y-44432434D01*
X145598965Y-44683254D01*
X145134126Y-45147283D01*
X144882247Y-45753875D01*
X144881674Y-46410683D01*
X140563675Y-46410683D01*
X140564246Y-45756757D01*
X140313426Y-45149725D01*
X139849397Y-44684886D01*
X139242805Y-44433007D01*
X138585997Y-44432434D01*
X137978965Y-44683254D01*
X137515727Y-45145685D01*
X137161164Y-44287577D01*
X136268801Y-43393655D01*
X135102277Y-42909272D01*
X133839184Y-42908170D01*
X132671817Y-43390516D01*
X131777895Y-44282879D01*
X131293512Y-45449403D01*
X131292410Y-46712496D01*
X130341960Y-46712496D01*
X130341960Y-42302202D01*
X173789317Y-42302202D01*
X173914727Y-42605718D01*
X174146741Y-42838137D01*
X174450037Y-42964077D01*
X174778442Y-42964363D01*
X175081958Y-42838953D01*
X175110759Y-42810202D01*
X175567317Y-42810202D01*
X175692727Y-43113718D01*
X175924741Y-43346137D01*
X176228037Y-43472077D01*
X176556442Y-43472363D01*
X176859958Y-43346953D01*
X177092377Y-43114939D01*
X177218317Y-42811643D01*
X177218603Y-42483238D01*
X177093193Y-42179722D01*
X176861179Y-41947303D01*
X176557883Y-41821363D01*
X176229478Y-41821077D01*
X175925962Y-41946487D01*
X175693543Y-42178501D01*
X175567603Y-42481797D01*
X175567317Y-42810202D01*
X175110759Y-42810202D01*
X175314377Y-42606939D01*
X175440317Y-42303643D01*
X175440603Y-41975238D01*
X175315193Y-41671722D01*
X175083179Y-41439303D01*
X174779883Y-41313363D01*
X174451478Y-41313077D01*
X174147962Y-41438487D01*
X173915543Y-41670501D01*
X173789603Y-41973797D01*
X173789317Y-42302202D01*
X130341960Y-42302202D01*
X130341960Y-41044777D01*
X143753806Y-41044777D01*
X143888863Y-41371640D01*
X144138724Y-41621938D01*
X144465351Y-41757566D01*
X144819017Y-41757874D01*
X145145880Y-41622817D01*
X145396178Y-41372956D01*
X145531806Y-41046329D01*
X145532039Y-40778202D01*
X177345317Y-40778202D01*
X177470727Y-41081718D01*
X177702741Y-41314137D01*
X178006037Y-41440077D01*
X178334442Y-41440363D01*
X178637958Y-41314953D01*
X178870377Y-41082939D01*
X178996317Y-40779643D01*
X178996603Y-40451238D01*
X178871193Y-40147722D01*
X178639179Y-39915303D01*
X178335883Y-39789363D01*
X178007478Y-39789077D01*
X177703962Y-39914487D01*
X177471543Y-40146501D01*
X177345603Y-40449797D01*
X177345317Y-40778202D01*
X145532039Y-40778202D01*
X145532114Y-40692663D01*
X145397057Y-40365800D01*
X145147196Y-40115502D01*
X144820569Y-39979874D01*
X144466903Y-39979566D01*
X144140040Y-40114623D01*
X143889742Y-40364484D01*
X143754114Y-40691111D01*
X143753806Y-41044777D01*
X130341960Y-41044777D01*
X130341960Y-38238202D01*
X168963317Y-38238202D01*
X169088727Y-38541718D01*
X169320741Y-38774137D01*
X169624037Y-38900077D01*
X169952442Y-38900363D01*
X170255958Y-38774953D01*
X170488377Y-38542939D01*
X170614317Y-38239643D01*
X170614603Y-37911238D01*
X170489193Y-37607722D01*
X170357903Y-37476202D01*
X183187317Y-37476202D01*
X183312727Y-37779718D01*
X183544741Y-38012137D01*
X183848037Y-38138077D01*
X184176442Y-38138363D01*
X184479958Y-38012953D01*
X184712377Y-37780939D01*
X184801520Y-37566260D01*
X184801520Y-38924720D01*
X184845798Y-39160037D01*
X184984870Y-39376161D01*
X185197070Y-39521151D01*
X185448960Y-39572160D01*
X187148960Y-39572160D01*
X187384277Y-39527882D01*
X187600401Y-39388810D01*
X187745391Y-39176610D01*
X187796400Y-38924720D01*
X187796400Y-37224720D01*
X187752122Y-36989403D01*
X187613050Y-36773279D01*
X187400850Y-36628289D01*
X187333419Y-36614634D01*
X187378107Y-36584774D01*
X187700014Y-36103005D01*
X187813053Y-35534720D01*
X187700014Y-34966435D01*
X187378107Y-34484666D01*
X187037407Y-34257018D01*
X187180318Y-34189903D01*
X187570605Y-33761644D01*
X187740436Y-33351610D01*
X187619115Y-33121720D01*
X186425960Y-33121720D01*
X186425960Y-33141720D01*
X186171960Y-33141720D01*
X186171960Y-33121720D01*
X184978805Y-33121720D01*
X184857484Y-33351610D01*
X185027315Y-33761644D01*
X185417602Y-34189903D01*
X185560513Y-34257018D01*
X185219813Y-34484666D01*
X184897906Y-34966435D01*
X184784867Y-35534720D01*
X184897906Y-36103005D01*
X185219813Y-36584774D01*
X185261412Y-36612570D01*
X185213643Y-36621558D01*
X184997519Y-36760630D01*
X184852529Y-36972830D01*
X184823975Y-37113835D01*
X184713193Y-36845722D01*
X184481179Y-36613303D01*
X184177883Y-36487363D01*
X183849478Y-36487077D01*
X183545962Y-36612487D01*
X183313543Y-36844501D01*
X183187603Y-37147797D01*
X183187317Y-37476202D01*
X170357903Y-37476202D01*
X170257179Y-37375303D01*
X169953883Y-37249363D01*
X169625478Y-37249077D01*
X169321962Y-37374487D01*
X169089543Y-37606501D01*
X168963603Y-37909797D01*
X168963317Y-38238202D01*
X130341960Y-38238202D01*
X130341960Y-32681187D01*
X130688908Y-30936963D01*
X131638714Y-29515477D01*
X133060202Y-28565668D01*
X134804427Y-28218720D01*
X164895493Y-28218720D01*
X165278897Y-28294984D01*
M02*
