G04 #@! TF.FileFunction,Legend,Bot*
%FSLAX46Y46*%
G04 Gerber Fmt 4.6, Leading zero omitted, Abs format (unit mm)*
G04 Created by KiCad (PCBNEW 4.0.6) date 09/10/17 19:14:27*
%MOMM*%
%LPD*%
G01*
G04 APERTURE LIST*
%ADD10C,0.100000*%
%ADD11C,0.300000*%
%ADD12C,0.150000*%
%ADD13C,0.120000*%
G04 APERTURE END LIST*
D10*
D11*
X132618238Y-72208578D02*
X130586238Y-72208578D01*
X132618238Y-75595244D02*
X130586238Y-75595244D01*
X132521476Y-75595244D02*
X132618238Y-75401720D01*
X132618238Y-75014672D01*
X132521476Y-74821148D01*
X132424714Y-74724387D01*
X132231190Y-74627625D01*
X131650619Y-74627625D01*
X131457095Y-74724387D01*
X131360333Y-74821148D01*
X131263571Y-75014672D01*
X131263571Y-75401720D01*
X131360333Y-75595244D01*
X132618238Y-76853148D02*
X132521476Y-76659624D01*
X132424714Y-76562863D01*
X132231190Y-76466101D01*
X131650619Y-76466101D01*
X131457095Y-76562863D01*
X131360333Y-76659624D01*
X131263571Y-76853148D01*
X131263571Y-77143434D01*
X131360333Y-77336958D01*
X131457095Y-77433720D01*
X131650619Y-77530482D01*
X132231190Y-77530482D01*
X132424714Y-77433720D01*
X132521476Y-77336958D01*
X132618238Y-77143434D01*
X132618238Y-76853148D01*
X131263571Y-78401339D02*
X132618238Y-78401339D01*
X131457095Y-78401339D02*
X131360333Y-78498100D01*
X131263571Y-78691624D01*
X131263571Y-78981910D01*
X131360333Y-79175434D01*
X131553857Y-79272196D01*
X132618238Y-79272196D01*
X130586238Y-80336576D02*
X130973286Y-80143053D01*
X131263571Y-80917148D02*
X131263571Y-81691243D01*
X130586238Y-81207434D02*
X132327952Y-81207434D01*
X132521476Y-81304195D01*
X132618238Y-81497719D01*
X132618238Y-81691243D01*
X132618238Y-83916767D02*
X130586238Y-83916767D01*
X131844143Y-84110290D02*
X132618238Y-84690862D01*
X131263571Y-84690862D02*
X132037667Y-83916767D01*
X131263571Y-85561719D02*
X132618238Y-85561719D01*
X131457095Y-85561719D02*
X131360333Y-85658480D01*
X131263571Y-85852004D01*
X131263571Y-86142290D01*
X131360333Y-86335814D01*
X131553857Y-86432576D01*
X132618238Y-86432576D01*
X132618238Y-87690480D02*
X132521476Y-87496956D01*
X132424714Y-87400195D01*
X132231190Y-87303433D01*
X131650619Y-87303433D01*
X131457095Y-87400195D01*
X131360333Y-87496956D01*
X131263571Y-87690480D01*
X131263571Y-87980766D01*
X131360333Y-88174290D01*
X131457095Y-88271052D01*
X131650619Y-88367814D01*
X132231190Y-88367814D01*
X132424714Y-88271052D01*
X132521476Y-88174290D01*
X132618238Y-87980766D01*
X132618238Y-87690480D01*
X131263571Y-89045147D02*
X132618238Y-89432194D01*
X131650619Y-89819242D01*
X132618238Y-90206290D01*
X131263571Y-90593337D01*
X132618238Y-92915623D02*
X130586238Y-92915623D01*
X132618238Y-93786480D02*
X131553857Y-93786480D01*
X131360333Y-93689718D01*
X131263571Y-93496194D01*
X131263571Y-93205908D01*
X131360333Y-93012384D01*
X131457095Y-92915623D01*
X132618238Y-95044384D02*
X132521476Y-94850860D01*
X132424714Y-94754099D01*
X132231190Y-94657337D01*
X131650619Y-94657337D01*
X131457095Y-94754099D01*
X131360333Y-94850860D01*
X131263571Y-95044384D01*
X131263571Y-95334670D01*
X131360333Y-95528194D01*
X131457095Y-95624956D01*
X131650619Y-95721718D01*
X132231190Y-95721718D01*
X132424714Y-95624956D01*
X132521476Y-95528194D01*
X132618238Y-95334670D01*
X132618238Y-95044384D01*
X131263571Y-96399051D02*
X132618238Y-96786098D01*
X131650619Y-97173146D01*
X132618238Y-97560194D01*
X131263571Y-97947241D01*
X132618238Y-100269527D02*
X131263571Y-100269527D01*
X131457095Y-100269527D02*
X131360333Y-100366288D01*
X131263571Y-100559812D01*
X131263571Y-100850098D01*
X131360333Y-101043622D01*
X131553857Y-101140384D01*
X132618238Y-101140384D01*
X131553857Y-101140384D02*
X131360333Y-101237146D01*
X131263571Y-101430669D01*
X131263571Y-101720955D01*
X131360333Y-101914479D01*
X131553857Y-102011241D01*
X132618238Y-102011241D01*
X131263571Y-103849717D02*
X132618238Y-103849717D01*
X131263571Y-102978860D02*
X132327952Y-102978860D01*
X132521476Y-103075621D01*
X132618238Y-103269145D01*
X132618238Y-103559431D01*
X132521476Y-103752955D01*
X132424714Y-103849717D01*
X132521476Y-105688193D02*
X132618238Y-105494669D01*
X132618238Y-105107621D01*
X132521476Y-104914097D01*
X132424714Y-104817336D01*
X132231190Y-104720574D01*
X131650619Y-104720574D01*
X131457095Y-104817336D01*
X131360333Y-104914097D01*
X131263571Y-105107621D01*
X131263571Y-105494669D01*
X131360333Y-105688193D01*
X132618238Y-106559050D02*
X130586238Y-106559050D01*
X132618238Y-107429907D02*
X131553857Y-107429907D01*
X131360333Y-107333145D01*
X131263571Y-107139621D01*
X131263571Y-106849335D01*
X131360333Y-106655811D01*
X131457095Y-106559050D01*
X132618238Y-110236001D02*
X132521476Y-110042477D01*
X132424714Y-109945716D01*
X132231190Y-109848954D01*
X131650619Y-109848954D01*
X131457095Y-109945716D01*
X131360333Y-110042477D01*
X131263571Y-110236001D01*
X131263571Y-110526287D01*
X131360333Y-110719811D01*
X131457095Y-110816573D01*
X131650619Y-110913335D01*
X132231190Y-110913335D01*
X132424714Y-110816573D01*
X132521476Y-110719811D01*
X132618238Y-110526287D01*
X132618238Y-110236001D01*
X131263571Y-111493906D02*
X131263571Y-112268001D01*
X132618238Y-111784192D02*
X130876524Y-111784192D01*
X130683000Y-111880953D01*
X130586238Y-112074477D01*
X130586238Y-112268001D01*
X131263571Y-114203239D02*
X131263571Y-114977334D01*
X130586238Y-114493525D02*
X132327952Y-114493525D01*
X132521476Y-114590286D01*
X132618238Y-114783810D01*
X132618238Y-114977334D01*
X132618238Y-115654668D02*
X130586238Y-115654668D01*
X132618238Y-116525525D02*
X131553857Y-116525525D01*
X131360333Y-116428763D01*
X131263571Y-116235239D01*
X131263571Y-115944953D01*
X131360333Y-115751429D01*
X131457095Y-115654668D01*
X132618238Y-117493144D02*
X131263571Y-117493144D01*
X130586238Y-117493144D02*
X130683000Y-117396382D01*
X130779762Y-117493144D01*
X130683000Y-117589905D01*
X130586238Y-117493144D01*
X130779762Y-117493144D01*
X132521476Y-118364001D02*
X132618238Y-118557524D01*
X132618238Y-118944572D01*
X132521476Y-119138096D01*
X132327952Y-119234858D01*
X132231190Y-119234858D01*
X132037667Y-119138096D01*
X131940905Y-118944572D01*
X131940905Y-118654286D01*
X131844143Y-118460763D01*
X131650619Y-118364001D01*
X131553857Y-118364001D01*
X131360333Y-118460763D01*
X131263571Y-118654286D01*
X131263571Y-118944572D01*
X131360333Y-119138096D01*
X131263571Y-121460381D02*
X132618238Y-121847428D01*
X131650619Y-122234476D01*
X132618238Y-122621524D01*
X131263571Y-123008571D01*
X132618238Y-124653524D02*
X131553857Y-124653524D01*
X131360333Y-124556762D01*
X131263571Y-124363238D01*
X131263571Y-123976190D01*
X131360333Y-123782667D01*
X132521476Y-124653524D02*
X132618238Y-124460000D01*
X132618238Y-123976190D01*
X132521476Y-123782667D01*
X132327952Y-123685905D01*
X132134429Y-123685905D01*
X131940905Y-123782667D01*
X131844143Y-123976190D01*
X131844143Y-124460000D01*
X131747381Y-124653524D01*
X132521476Y-125524381D02*
X132618238Y-125717904D01*
X132618238Y-126104952D01*
X132521476Y-126298476D01*
X132327952Y-126395238D01*
X132231190Y-126395238D01*
X132037667Y-126298476D01*
X131940905Y-126104952D01*
X131940905Y-125814666D01*
X131844143Y-125621143D01*
X131650619Y-125524381D01*
X131553857Y-125524381D01*
X131360333Y-125621143D01*
X131263571Y-125814666D01*
X131263571Y-126104952D01*
X131360333Y-126298476D01*
X132618238Y-129685142D02*
X130586238Y-129685142D01*
X132521476Y-129685142D02*
X132618238Y-129491618D01*
X132618238Y-129104570D01*
X132521476Y-128911046D01*
X132424714Y-128814285D01*
X132231190Y-128717523D01*
X131650619Y-128717523D01*
X131457095Y-128814285D01*
X131360333Y-128911046D01*
X131263571Y-129104570D01*
X131263571Y-129491618D01*
X131360333Y-129685142D01*
X132521476Y-131426856D02*
X132618238Y-131233332D01*
X132618238Y-130846284D01*
X132521476Y-130652761D01*
X132327952Y-130555999D01*
X131553857Y-130555999D01*
X131360333Y-130652761D01*
X131263571Y-130846284D01*
X131263571Y-131233332D01*
X131360333Y-131426856D01*
X131553857Y-131523618D01*
X131747381Y-131523618D01*
X131940905Y-130555999D01*
X132521476Y-132297713D02*
X132618238Y-132491236D01*
X132618238Y-132878284D01*
X132521476Y-133071808D01*
X132327952Y-133168570D01*
X132231190Y-133168570D01*
X132037667Y-133071808D01*
X131940905Y-132878284D01*
X131940905Y-132587998D01*
X131844143Y-132394475D01*
X131650619Y-132297713D01*
X131553857Y-132297713D01*
X131360333Y-132394475D01*
X131263571Y-132587998D01*
X131263571Y-132878284D01*
X131360333Y-133071808D01*
X132618238Y-134039427D02*
X131263571Y-134039427D01*
X130586238Y-134039427D02*
X130683000Y-133942665D01*
X130779762Y-134039427D01*
X130683000Y-134136188D01*
X130586238Y-134039427D01*
X130779762Y-134039427D01*
X131263571Y-135877903D02*
X132908524Y-135877903D01*
X133102048Y-135781141D01*
X133198810Y-135684379D01*
X133295571Y-135490855D01*
X133295571Y-135200569D01*
X133198810Y-135007046D01*
X132521476Y-135877903D02*
X132618238Y-135684379D01*
X132618238Y-135297331D01*
X132521476Y-135103807D01*
X132424714Y-135007046D01*
X132231190Y-134910284D01*
X131650619Y-134910284D01*
X131457095Y-135007046D01*
X131360333Y-135103807D01*
X131263571Y-135297331D01*
X131263571Y-135684379D01*
X131360333Y-135877903D01*
X131263571Y-136845522D02*
X132618238Y-136845522D01*
X131457095Y-136845522D02*
X131360333Y-136942283D01*
X131263571Y-137135807D01*
X131263571Y-137426093D01*
X131360333Y-137619617D01*
X131553857Y-137716379D01*
X132618238Y-137716379D01*
X132521476Y-139458093D02*
X132618238Y-139264569D01*
X132618238Y-138877521D01*
X132521476Y-138683998D01*
X132327952Y-138587236D01*
X131553857Y-138587236D01*
X131360333Y-138683998D01*
X131263571Y-138877521D01*
X131263571Y-139264569D01*
X131360333Y-139458093D01*
X131553857Y-139554855D01*
X131747381Y-139554855D01*
X131940905Y-138587236D01*
X132618238Y-141296569D02*
X130586238Y-141296569D01*
X132521476Y-141296569D02*
X132618238Y-141103045D01*
X132618238Y-140715997D01*
X132521476Y-140522473D01*
X132424714Y-140425712D01*
X132231190Y-140328950D01*
X131650619Y-140328950D01*
X131457095Y-140425712D01*
X131360333Y-140522473D01*
X131263571Y-140715997D01*
X131263571Y-141103045D01*
X131360333Y-141296569D01*
X131263571Y-143618854D02*
X132618238Y-144005901D01*
X131650619Y-144392949D01*
X132618238Y-144779997D01*
X131263571Y-145167044D01*
X132618238Y-145941140D02*
X130586238Y-145941140D01*
X132618238Y-146811997D02*
X131553857Y-146811997D01*
X131360333Y-146715235D01*
X131263571Y-146521711D01*
X131263571Y-146231425D01*
X131360333Y-146037901D01*
X131457095Y-145941140D01*
X132618238Y-147779616D02*
X131263571Y-147779616D01*
X130586238Y-147779616D02*
X130683000Y-147682854D01*
X130779762Y-147779616D01*
X130683000Y-147876377D01*
X130586238Y-147779616D01*
X130779762Y-147779616D01*
X132618238Y-149037520D02*
X132521476Y-148843996D01*
X132327952Y-148747235D01*
X130586238Y-148747235D01*
X132521476Y-150585711D02*
X132618238Y-150392187D01*
X132618238Y-150005139D01*
X132521476Y-149811616D01*
X132327952Y-149714854D01*
X131553857Y-149714854D01*
X131360333Y-149811616D01*
X131263571Y-150005139D01*
X131263571Y-150392187D01*
X131360333Y-150585711D01*
X131553857Y-150682473D01*
X131747381Y-150682473D01*
X131940905Y-149714854D01*
X132521476Y-153004758D02*
X132618238Y-153198281D01*
X132618238Y-153585329D01*
X132521476Y-153778853D01*
X132327952Y-153875615D01*
X132231190Y-153875615D01*
X132037667Y-153778853D01*
X131940905Y-153585329D01*
X131940905Y-153295043D01*
X131844143Y-153101520D01*
X131650619Y-153004758D01*
X131553857Y-153004758D01*
X131360333Y-153101520D01*
X131263571Y-153295043D01*
X131263571Y-153585329D01*
X131360333Y-153778853D01*
X132618238Y-155036757D02*
X132521476Y-154843233D01*
X132424714Y-154746472D01*
X132231190Y-154649710D01*
X131650619Y-154649710D01*
X131457095Y-154746472D01*
X131360333Y-154843233D01*
X131263571Y-155036757D01*
X131263571Y-155327043D01*
X131360333Y-155520567D01*
X131457095Y-155617329D01*
X131650619Y-155714091D01*
X132231190Y-155714091D01*
X132424714Y-155617329D01*
X132521476Y-155520567D01*
X132618238Y-155327043D01*
X132618238Y-155036757D01*
X132618238Y-156584948D02*
X130586238Y-156584948D01*
X131360333Y-156584948D02*
X131263571Y-156778471D01*
X131263571Y-157165519D01*
X131360333Y-157359043D01*
X131457095Y-157455805D01*
X131650619Y-157552567D01*
X132231190Y-157552567D01*
X132424714Y-157455805D01*
X132521476Y-157359043D01*
X132618238Y-157165519D01*
X132618238Y-156778471D01*
X132521476Y-156584948D01*
X132521476Y-159197519D02*
X132618238Y-159003995D01*
X132618238Y-158616947D01*
X132521476Y-158423424D01*
X132327952Y-158326662D01*
X131553857Y-158326662D01*
X131360333Y-158423424D01*
X131263571Y-158616947D01*
X131263571Y-159003995D01*
X131360333Y-159197519D01*
X131553857Y-159294281D01*
X131747381Y-159294281D01*
X131940905Y-158326662D01*
X132618238Y-160165138D02*
X131263571Y-160165138D01*
X131650619Y-160165138D02*
X131457095Y-160261899D01*
X131360333Y-160358661D01*
X131263571Y-160552185D01*
X131263571Y-160745709D01*
D12*
X30480000Y-143129000D02*
X30480000Y-148209000D01*
X27940000Y-105029000D02*
X33020000Y-105029000D01*
X30480000Y-107569000D02*
X30480000Y-105029000D01*
X30480000Y-102489000D02*
X30480000Y-107569000D01*
X62103000Y-111125000D02*
X24257000Y-111125000D01*
X65278000Y-136398000D02*
X65278000Y-114300000D01*
X24257000Y-139573000D02*
X62103000Y-139573000D01*
X21082000Y-114300000D02*
X21082000Y-136398000D01*
X62103000Y-111125000D02*
G75*
G02X65278000Y-114300000I0J-3175000D01*
G01*
X65278000Y-136398000D02*
G75*
G02X62103000Y-139573000I-3175000J0D01*
G01*
X24257000Y-139573000D02*
G75*
G02X21082000Y-136398000I0J3175000D01*
G01*
X21082000Y-114300000D02*
G75*
G02X24257000Y-111125000I3175000J0D01*
G01*
X14478000Y-98171000D02*
X14478000Y-152527000D01*
X14478000Y-152527000D02*
X71882000Y-152527000D01*
X71882000Y-152527000D02*
X71882000Y-98171000D01*
X71882000Y-98171000D02*
X14478000Y-98171000D01*
D13*
X37489000Y-81706108D02*
X38489000Y-81706108D01*
X38489000Y-83406108D02*
X37489000Y-83406108D01*
X59231388Y-74041820D02*
X59231388Y-75041820D01*
X57531388Y-75041820D02*
X57531388Y-74041820D01*
X47395000Y-83230108D02*
X48395000Y-83230108D01*
X48395000Y-84930108D02*
X47395000Y-84930108D01*
X60120388Y-64532820D02*
X60120388Y-65532820D01*
X58420388Y-65532820D02*
X58420388Y-64532820D01*
X96512000Y-135675000D02*
X97512000Y-135675000D01*
X97512000Y-137375000D02*
X96512000Y-137375000D01*
X103290000Y-133834000D02*
X103290000Y-132834000D01*
X104990000Y-132834000D02*
X104990000Y-133834000D01*
X77716000Y-135675000D02*
X78716000Y-135675000D01*
X78716000Y-137375000D02*
X77716000Y-137375000D01*
X84240000Y-133739000D02*
X84240000Y-132739000D01*
X85940000Y-132739000D02*
X85940000Y-133739000D01*
X107530000Y-124833000D02*
X107530000Y-125833000D01*
X105830000Y-125833000D02*
X105830000Y-124833000D01*
X88734000Y-124865000D02*
X88734000Y-125865000D01*
X87034000Y-125865000D02*
X87034000Y-124865000D01*
X109435000Y-124833000D02*
X109435000Y-125833000D01*
X107735000Y-125833000D02*
X107735000Y-124833000D01*
X90766000Y-124865000D02*
X90766000Y-125865000D01*
X89066000Y-125865000D02*
X89066000Y-124865000D01*
X41164833Y-65554513D02*
X42164833Y-65554513D01*
X42164833Y-67254513D02*
X41164833Y-67254513D01*
X41196833Y-68729513D02*
X42196833Y-68729513D01*
X42196833Y-70429513D02*
X41196833Y-70429513D01*
X51015000Y-124198000D02*
X51015000Y-125198000D01*
X49315000Y-125198000D02*
X49315000Y-124198000D01*
X30239296Y-141708000D02*
X30239296Y-140708000D01*
X31939296Y-140708000D02*
X31939296Y-141708000D01*
X33362000Y-109371000D02*
X33362000Y-110371000D01*
X31662000Y-110371000D02*
X31662000Y-109371000D01*
X32271296Y-141708000D02*
X32271296Y-140708000D01*
X33971296Y-140708000D02*
X33971296Y-141708000D01*
X35503000Y-109344999D02*
X35503000Y-110344999D01*
X33803000Y-110344999D02*
X33803000Y-109344999D01*
D12*
X95123000Y-139370000D02*
X95123000Y-138735000D01*
X95123000Y-138735000D02*
X98933000Y-138735000D01*
X98933000Y-138735000D02*
X98933000Y-139370000D01*
X95123000Y-140005000D02*
X95123000Y-139370000D01*
X95123000Y-139370000D02*
X98933000Y-139370000D01*
X95123000Y-144450000D02*
X98933000Y-144450000D01*
X98933000Y-144450000D02*
X98933000Y-139370000D01*
X95123000Y-139370000D02*
X95123000Y-144450000D01*
X99822000Y-136727000D02*
X99822000Y-135457000D01*
X99822000Y-135457000D02*
X104902000Y-135457000D01*
X104902000Y-135457000D02*
X104902000Y-136727000D01*
X99822000Y-136727000D02*
X104902000Y-136727000D01*
X104902000Y-136727000D02*
X104902000Y-144347000D01*
X104902000Y-144347000D02*
X99822000Y-144347000D01*
X99822000Y-144347000D02*
X99822000Y-136727000D01*
X104589000Y-131064000D02*
X104589000Y-128524000D01*
X108399000Y-131064000D02*
X108399000Y-128524000D01*
X108399000Y-128524000D02*
X103954000Y-128524000D01*
X103954000Y-128524000D02*
X103954000Y-131064000D01*
X103954000Y-131064000D02*
X108399000Y-131064000D01*
X76327000Y-139370000D02*
X76327000Y-138735000D01*
X76327000Y-138735000D02*
X80137000Y-138735000D01*
X80137000Y-138735000D02*
X80137000Y-139370000D01*
X76327000Y-140005000D02*
X76327000Y-139370000D01*
X76327000Y-139370000D02*
X80137000Y-139370000D01*
X76327000Y-144450000D02*
X80137000Y-144450000D01*
X80137000Y-144450000D02*
X80137000Y-139370000D01*
X76327000Y-139370000D02*
X76327000Y-144450000D01*
X80899000Y-136727000D02*
X80899000Y-135457000D01*
X80899000Y-135457000D02*
X85979000Y-135457000D01*
X85979000Y-135457000D02*
X85979000Y-136727000D01*
X80899000Y-136727000D02*
X85979000Y-136727000D01*
X85979000Y-136727000D02*
X85979000Y-144347000D01*
X85979000Y-144347000D02*
X80899000Y-144347000D01*
X80899000Y-144347000D02*
X80899000Y-136727000D01*
X85793000Y-131191000D02*
X85793000Y-128651000D01*
X89603000Y-131191000D02*
X89603000Y-128651000D01*
X89603000Y-128651000D02*
X85158000Y-128651000D01*
X85158000Y-128651000D02*
X85158000Y-131191000D01*
X85158000Y-131191000D02*
X89603000Y-131191000D01*
X108331000Y-138303000D02*
X105283000Y-138303000D01*
X105283000Y-134620000D02*
X105283000Y-132715000D01*
X105283000Y-132715000D02*
X108331000Y-132715000D01*
X108331000Y-132715000D02*
X108331000Y-134620000D01*
X108331000Y-136271000D02*
X108331000Y-138303000D01*
X108331000Y-138103000D02*
X105283000Y-138103000D01*
X105283000Y-138303000D02*
X105283000Y-136271000D01*
X89408000Y-138303000D02*
X86360000Y-138303000D01*
X86360000Y-134620000D02*
X86360000Y-132715000D01*
X86360000Y-132715000D02*
X89408000Y-132715000D01*
X89408000Y-132715000D02*
X89408000Y-134620000D01*
X89408000Y-136271000D02*
X89408000Y-138303000D01*
X89408000Y-138103000D02*
X86360000Y-138103000D01*
X86360000Y-138303000D02*
X86360000Y-136271000D01*
X47776833Y-73790513D02*
X45236833Y-73790513D01*
X45236833Y-73790513D02*
X45236833Y-77600513D01*
X45236833Y-77600513D02*
X47776833Y-77600513D01*
X47776833Y-77600513D02*
X47776833Y-73790513D01*
D13*
X69692000Y-66089538D02*
X70892000Y-66089538D01*
X70892000Y-64329538D02*
X69692000Y-64329538D01*
X71089000Y-70730000D02*
X72289000Y-70730000D01*
X72289000Y-68970000D02*
X71089000Y-68970000D01*
X53419388Y-75014820D02*
X53419388Y-73814820D01*
X51659388Y-73814820D02*
X51659388Y-75014820D01*
X56460388Y-68137820D02*
X54460388Y-68137820D01*
X54460388Y-70277820D02*
X56460388Y-70277820D01*
X41348000Y-85112108D02*
X41348000Y-87112108D01*
X43488000Y-87112108D02*
X43488000Y-85112108D01*
X48545000Y-81041108D02*
X47345000Y-81041108D01*
X47345000Y-82801108D02*
X48545000Y-82801108D01*
X54181388Y-65616820D02*
X54181388Y-64416820D01*
X52421388Y-64416820D02*
X52421388Y-65616820D01*
X96240000Y-135373000D02*
X97440000Y-135373000D01*
X97440000Y-133613000D02*
X96240000Y-133613000D01*
X97435000Y-131581000D02*
X96235000Y-131581000D01*
X96235000Y-133341000D02*
X97435000Y-133341000D01*
X96235000Y-131309000D02*
X97435000Y-131309000D01*
X97435000Y-129549000D02*
X96235000Y-129549000D01*
X101880000Y-127517000D02*
X100680000Y-127517000D01*
X100680000Y-129277000D02*
X101880000Y-129277000D01*
X98583000Y-125485000D02*
X97383000Y-125485000D01*
X97383000Y-127245000D02*
X98583000Y-127245000D01*
X100685000Y-127245000D02*
X101885000Y-127245000D01*
X101885000Y-125485000D02*
X100685000Y-125485000D01*
X100685000Y-125213000D02*
X101885000Y-125213000D01*
X101885000Y-123453000D02*
X100685000Y-123453000D01*
X110608000Y-133381000D02*
X110608000Y-132181000D01*
X108848000Y-132181000D02*
X108848000Y-133381000D01*
X77444000Y-135373000D02*
X78644000Y-135373000D01*
X78644000Y-133613000D02*
X77444000Y-133613000D01*
X78639000Y-131581000D02*
X77439000Y-131581000D01*
X77439000Y-133341000D02*
X78639000Y-133341000D01*
X77439000Y-131309000D02*
X78639000Y-131309000D01*
X78639000Y-129549000D02*
X77439000Y-129549000D01*
X83084000Y-127644000D02*
X81884000Y-127644000D01*
X81884000Y-129404000D02*
X83084000Y-129404000D01*
X79660000Y-125612000D02*
X78460000Y-125612000D01*
X78460000Y-127372000D02*
X79660000Y-127372000D01*
X81889000Y-127372000D02*
X83089000Y-127372000D01*
X83089000Y-125612000D02*
X81889000Y-125612000D01*
X81889000Y-125213000D02*
X83089000Y-125213000D01*
X83089000Y-123453000D02*
X81889000Y-123453000D01*
X91685000Y-133376000D02*
X91685000Y-132176000D01*
X89925000Y-132176000D02*
X89925000Y-133376000D01*
X41141833Y-73761513D02*
X42341833Y-73761513D01*
X42341833Y-72001513D02*
X41141833Y-72001513D01*
X38877833Y-74690513D02*
X38877833Y-73490513D01*
X37117833Y-73490513D02*
X37117833Y-74690513D01*
X53077000Y-125248000D02*
X53077000Y-124048000D01*
X51317000Y-124048000D02*
X51317000Y-125248000D01*
X53686000Y-120786000D02*
X52486000Y-120786000D01*
X52486000Y-122546000D02*
X53686000Y-122546000D01*
X37073000Y-83867108D02*
X38873000Y-83867108D01*
X38873000Y-87087108D02*
X36423000Y-87087108D01*
X57106388Y-73557820D02*
X57106388Y-75357820D01*
X53886388Y-75357820D02*
X53886388Y-72907820D01*
X47022000Y-85391108D02*
X48822000Y-85391108D01*
X48822000Y-88611108D02*
X46372000Y-88611108D01*
X57751388Y-64169867D02*
X57751388Y-65969867D01*
X54531388Y-65969867D02*
X54531388Y-63519867D01*
D12*
X99822000Y-129780000D02*
X101922000Y-129780000D01*
X99047000Y-133030000D02*
X101922000Y-133030000D01*
X80992000Y-129860000D02*
X83092000Y-129860000D01*
X80217000Y-133110000D02*
X83092000Y-133110000D01*
X42931833Y-77341513D02*
X40481833Y-77341513D01*
X43656833Y-74041513D02*
X40481833Y-74041513D01*
X73588571Y-124563286D02*
X73636190Y-124706143D01*
X73683810Y-124753762D01*
X73779048Y-124801381D01*
X73921905Y-124801381D01*
X74017143Y-124753762D01*
X74064762Y-124706143D01*
X74112381Y-124610905D01*
X74112381Y-124229952D01*
X73112381Y-124229952D01*
X73112381Y-124563286D01*
X73160000Y-124658524D01*
X73207619Y-124706143D01*
X73302857Y-124753762D01*
X73398095Y-124753762D01*
X73493333Y-124706143D01*
X73540952Y-124658524D01*
X73588571Y-124563286D01*
X73588571Y-124229952D01*
X73112381Y-125087095D02*
X73112381Y-125658524D01*
X74112381Y-125372809D02*
X73112381Y-125372809D01*
X74112381Y-126515667D02*
X74112381Y-125944238D01*
X74112381Y-126229952D02*
X73112381Y-126229952D01*
X73255238Y-126134714D01*
X73350476Y-126039476D01*
X73398095Y-125944238D01*
X38631857Y-81413251D02*
X38679476Y-81460870D01*
X38822333Y-81508489D01*
X38917571Y-81508489D01*
X39060429Y-81460870D01*
X39155667Y-81365632D01*
X39203286Y-81270394D01*
X39250905Y-81079918D01*
X39250905Y-80937060D01*
X39203286Y-80746584D01*
X39155667Y-80651346D01*
X39060429Y-80556108D01*
X38917571Y-80508489D01*
X38822333Y-80508489D01*
X38679476Y-80556108D01*
X38631857Y-80603727D01*
X37679476Y-81508489D02*
X38250905Y-81508489D01*
X37965191Y-81508489D02*
X37965191Y-80508489D01*
X38060429Y-80651346D01*
X38155667Y-80746584D01*
X38250905Y-80794203D01*
X37298524Y-80603727D02*
X37250905Y-80556108D01*
X37155667Y-80508489D01*
X36917571Y-80508489D01*
X36822333Y-80556108D01*
X36774714Y-80603727D01*
X36727095Y-80698965D01*
X36727095Y-80794203D01*
X36774714Y-80937060D01*
X37346143Y-81508489D01*
X36727095Y-81508489D01*
X60238531Y-73898963D02*
X60286150Y-73851344D01*
X60333769Y-73708487D01*
X60333769Y-73613249D01*
X60286150Y-73470391D01*
X60190912Y-73375153D01*
X60095674Y-73327534D01*
X59905198Y-73279915D01*
X59762340Y-73279915D01*
X59571864Y-73327534D01*
X59476626Y-73375153D01*
X59381388Y-73470391D01*
X59333769Y-73613249D01*
X59333769Y-73708487D01*
X59381388Y-73851344D01*
X59429007Y-73898963D01*
X60333769Y-74851344D02*
X60333769Y-74279915D01*
X60333769Y-74565629D02*
X59333769Y-74565629D01*
X59476626Y-74470391D01*
X59571864Y-74375153D01*
X59619483Y-74279915D01*
X59333769Y-75184677D02*
X59333769Y-75803725D01*
X59714721Y-75470391D01*
X59714721Y-75613249D01*
X59762340Y-75708487D01*
X59809959Y-75756106D01*
X59905198Y-75803725D01*
X60143293Y-75803725D01*
X60238531Y-75756106D01*
X60286150Y-75708487D01*
X60333769Y-75613249D01*
X60333769Y-75327534D01*
X60286150Y-75232296D01*
X60238531Y-75184677D01*
X50776143Y-83437251D02*
X50823762Y-83389632D01*
X50871381Y-83246775D01*
X50871381Y-83151537D01*
X50823762Y-83008679D01*
X50728524Y-82913441D01*
X50633286Y-82865822D01*
X50442810Y-82818203D01*
X50299952Y-82818203D01*
X50109476Y-82865822D01*
X50014238Y-82913441D01*
X49919000Y-83008679D01*
X49871381Y-83151537D01*
X49871381Y-83246775D01*
X49919000Y-83389632D01*
X49966619Y-83437251D01*
X50871381Y-84389632D02*
X50871381Y-83818203D01*
X50871381Y-84103917D02*
X49871381Y-84103917D01*
X50014238Y-84008679D01*
X50109476Y-83913441D01*
X50157095Y-83818203D01*
X50204714Y-85246775D02*
X50871381Y-85246775D01*
X49823762Y-85008679D02*
X50538048Y-84770584D01*
X50538048Y-85389632D01*
X61278531Y-64389963D02*
X61326150Y-64342344D01*
X61373769Y-64199487D01*
X61373769Y-64104249D01*
X61326150Y-63961391D01*
X61230912Y-63866153D01*
X61135674Y-63818534D01*
X60945198Y-63770915D01*
X60802340Y-63770915D01*
X60611864Y-63818534D01*
X60516626Y-63866153D01*
X60421388Y-63961391D01*
X60373769Y-64104249D01*
X60373769Y-64199487D01*
X60421388Y-64342344D01*
X60469007Y-64389963D01*
X61373769Y-65342344D02*
X61373769Y-64770915D01*
X61373769Y-65056629D02*
X60373769Y-65056629D01*
X60516626Y-64961391D01*
X60611864Y-64866153D01*
X60659483Y-64770915D01*
X60373769Y-66247106D02*
X60373769Y-65770915D01*
X60849959Y-65723296D01*
X60802340Y-65770915D01*
X60754721Y-65866153D01*
X60754721Y-66104249D01*
X60802340Y-66199487D01*
X60849959Y-66247106D01*
X60945198Y-66294725D01*
X61183293Y-66294725D01*
X61278531Y-66247106D01*
X61326150Y-66199487D01*
X61373769Y-66104249D01*
X61373769Y-65866153D01*
X61326150Y-65770915D01*
X61278531Y-65723296D01*
X94495857Y-136882143D02*
X94543476Y-136929762D01*
X94686333Y-136977381D01*
X94781571Y-136977381D01*
X94924429Y-136929762D01*
X95019667Y-136834524D01*
X95067286Y-136739286D01*
X95114905Y-136548810D01*
X95114905Y-136405952D01*
X95067286Y-136215476D01*
X95019667Y-136120238D01*
X94924429Y-136025000D01*
X94781571Y-135977381D01*
X94686333Y-135977381D01*
X94543476Y-136025000D01*
X94495857Y-136072619D01*
X93543476Y-136977381D02*
X94114905Y-136977381D01*
X93829191Y-136977381D02*
X93829191Y-135977381D01*
X93924429Y-136120238D01*
X94019667Y-136215476D01*
X94114905Y-136263095D01*
X92686333Y-135977381D02*
X92876810Y-135977381D01*
X92972048Y-136025000D01*
X93019667Y-136072619D01*
X93114905Y-136215476D01*
X93162524Y-136405952D01*
X93162524Y-136786905D01*
X93114905Y-136882143D01*
X93067286Y-136929762D01*
X92972048Y-136977381D01*
X92781571Y-136977381D01*
X92686333Y-136929762D01*
X92638714Y-136882143D01*
X92591095Y-136786905D01*
X92591095Y-136548810D01*
X92638714Y-136453571D01*
X92686333Y-136405952D01*
X92781571Y-136358333D01*
X92972048Y-136358333D01*
X93067286Y-136405952D01*
X93114905Y-136453571D01*
X93162524Y-136548810D01*
X107068857Y-132183143D02*
X107116476Y-132230762D01*
X107259333Y-132278381D01*
X107354571Y-132278381D01*
X107497429Y-132230762D01*
X107592667Y-132135524D01*
X107640286Y-132040286D01*
X107687905Y-131849810D01*
X107687905Y-131706952D01*
X107640286Y-131516476D01*
X107592667Y-131421238D01*
X107497429Y-131326000D01*
X107354571Y-131278381D01*
X107259333Y-131278381D01*
X107116476Y-131326000D01*
X107068857Y-131373619D01*
X106116476Y-132278381D02*
X106687905Y-132278381D01*
X106402191Y-132278381D02*
X106402191Y-131278381D01*
X106497429Y-131421238D01*
X106592667Y-131516476D01*
X106687905Y-131564095D01*
X105783143Y-131278381D02*
X105116476Y-131278381D01*
X105545048Y-132278381D01*
X75699857Y-136882143D02*
X75747476Y-136929762D01*
X75890333Y-136977381D01*
X75985571Y-136977381D01*
X76128429Y-136929762D01*
X76223667Y-136834524D01*
X76271286Y-136739286D01*
X76318905Y-136548810D01*
X76318905Y-136405952D01*
X76271286Y-136215476D01*
X76223667Y-136120238D01*
X76128429Y-136025000D01*
X75985571Y-135977381D01*
X75890333Y-135977381D01*
X75747476Y-136025000D01*
X75699857Y-136072619D01*
X74747476Y-136977381D02*
X75318905Y-136977381D01*
X75033191Y-136977381D02*
X75033191Y-135977381D01*
X75128429Y-136120238D01*
X75223667Y-136215476D01*
X75318905Y-136263095D01*
X74176048Y-136405952D02*
X74271286Y-136358333D01*
X74318905Y-136310714D01*
X74366524Y-136215476D01*
X74366524Y-136167857D01*
X74318905Y-136072619D01*
X74271286Y-136025000D01*
X74176048Y-135977381D01*
X73985571Y-135977381D01*
X73890333Y-136025000D01*
X73842714Y-136072619D01*
X73795095Y-136167857D01*
X73795095Y-136215476D01*
X73842714Y-136310714D01*
X73890333Y-136358333D01*
X73985571Y-136405952D01*
X74176048Y-136405952D01*
X74271286Y-136453571D01*
X74318905Y-136501190D01*
X74366524Y-136596429D01*
X74366524Y-136786905D01*
X74318905Y-136882143D01*
X74271286Y-136929762D01*
X74176048Y-136977381D01*
X73985571Y-136977381D01*
X73890333Y-136929762D01*
X73842714Y-136882143D01*
X73795095Y-136786905D01*
X73795095Y-136596429D01*
X73842714Y-136501190D01*
X73890333Y-136453571D01*
X73985571Y-136405952D01*
X88018857Y-132310143D02*
X88066476Y-132357762D01*
X88209333Y-132405381D01*
X88304571Y-132405381D01*
X88447429Y-132357762D01*
X88542667Y-132262524D01*
X88590286Y-132167286D01*
X88637905Y-131976810D01*
X88637905Y-131833952D01*
X88590286Y-131643476D01*
X88542667Y-131548238D01*
X88447429Y-131453000D01*
X88304571Y-131405381D01*
X88209333Y-131405381D01*
X88066476Y-131453000D01*
X88018857Y-131500619D01*
X87637905Y-131500619D02*
X87590286Y-131453000D01*
X87495048Y-131405381D01*
X87256952Y-131405381D01*
X87161714Y-131453000D01*
X87114095Y-131500619D01*
X87066476Y-131595857D01*
X87066476Y-131691095D01*
X87114095Y-131833952D01*
X87685524Y-132405381D01*
X87066476Y-132405381D01*
X86685524Y-131500619D02*
X86637905Y-131453000D01*
X86542667Y-131405381D01*
X86304571Y-131405381D01*
X86209333Y-131453000D01*
X86161714Y-131500619D01*
X86114095Y-131595857D01*
X86114095Y-131691095D01*
X86161714Y-131833952D01*
X86733143Y-132405381D01*
X86114095Y-132405381D01*
X107037143Y-121531143D02*
X107084762Y-121483524D01*
X107132381Y-121340667D01*
X107132381Y-121245429D01*
X107084762Y-121102571D01*
X106989524Y-121007333D01*
X106894286Y-120959714D01*
X106703810Y-120912095D01*
X106560952Y-120912095D01*
X106370476Y-120959714D01*
X106275238Y-121007333D01*
X106180000Y-121102571D01*
X106132381Y-121245429D01*
X106132381Y-121340667D01*
X106180000Y-121483524D01*
X106227619Y-121531143D01*
X106227619Y-121912095D02*
X106180000Y-121959714D01*
X106132381Y-122054952D01*
X106132381Y-122293048D01*
X106180000Y-122388286D01*
X106227619Y-122435905D01*
X106322857Y-122483524D01*
X106418095Y-122483524D01*
X106560952Y-122435905D01*
X107132381Y-121864476D01*
X107132381Y-122483524D01*
X106132381Y-122816857D02*
X106132381Y-123435905D01*
X106513333Y-123102571D01*
X106513333Y-123245429D01*
X106560952Y-123340667D01*
X106608571Y-123388286D01*
X106703810Y-123435905D01*
X106941905Y-123435905D01*
X107037143Y-123388286D01*
X107084762Y-123340667D01*
X107132381Y-123245429D01*
X107132381Y-122959714D01*
X107084762Y-122864476D01*
X107037143Y-122816857D01*
X88114143Y-121531143D02*
X88161762Y-121483524D01*
X88209381Y-121340667D01*
X88209381Y-121245429D01*
X88161762Y-121102571D01*
X88066524Y-121007333D01*
X87971286Y-120959714D01*
X87780810Y-120912095D01*
X87637952Y-120912095D01*
X87447476Y-120959714D01*
X87352238Y-121007333D01*
X87257000Y-121102571D01*
X87209381Y-121245429D01*
X87209381Y-121340667D01*
X87257000Y-121483524D01*
X87304619Y-121531143D01*
X87304619Y-121912095D02*
X87257000Y-121959714D01*
X87209381Y-122054952D01*
X87209381Y-122293048D01*
X87257000Y-122388286D01*
X87304619Y-122435905D01*
X87399857Y-122483524D01*
X87495095Y-122483524D01*
X87637952Y-122435905D01*
X88209381Y-121864476D01*
X88209381Y-122483524D01*
X87542714Y-123340667D02*
X88209381Y-123340667D01*
X87161762Y-123102571D02*
X87876048Y-122864476D01*
X87876048Y-123483524D01*
X108942143Y-121531143D02*
X108989762Y-121483524D01*
X109037381Y-121340667D01*
X109037381Y-121245429D01*
X108989762Y-121102571D01*
X108894524Y-121007333D01*
X108799286Y-120959714D01*
X108608810Y-120912095D01*
X108465952Y-120912095D01*
X108275476Y-120959714D01*
X108180238Y-121007333D01*
X108085000Y-121102571D01*
X108037381Y-121245429D01*
X108037381Y-121340667D01*
X108085000Y-121483524D01*
X108132619Y-121531143D01*
X108132619Y-121912095D02*
X108085000Y-121959714D01*
X108037381Y-122054952D01*
X108037381Y-122293048D01*
X108085000Y-122388286D01*
X108132619Y-122435905D01*
X108227857Y-122483524D01*
X108323095Y-122483524D01*
X108465952Y-122435905D01*
X109037381Y-121864476D01*
X109037381Y-122483524D01*
X108037381Y-123388286D02*
X108037381Y-122912095D01*
X108513571Y-122864476D01*
X108465952Y-122912095D01*
X108418333Y-123007333D01*
X108418333Y-123245429D01*
X108465952Y-123340667D01*
X108513571Y-123388286D01*
X108608810Y-123435905D01*
X108846905Y-123435905D01*
X108942143Y-123388286D01*
X108989762Y-123340667D01*
X109037381Y-123245429D01*
X109037381Y-123007333D01*
X108989762Y-122912095D01*
X108942143Y-122864476D01*
X90273143Y-121531143D02*
X90320762Y-121483524D01*
X90368381Y-121340667D01*
X90368381Y-121245429D01*
X90320762Y-121102571D01*
X90225524Y-121007333D01*
X90130286Y-120959714D01*
X89939810Y-120912095D01*
X89796952Y-120912095D01*
X89606476Y-120959714D01*
X89511238Y-121007333D01*
X89416000Y-121102571D01*
X89368381Y-121245429D01*
X89368381Y-121340667D01*
X89416000Y-121483524D01*
X89463619Y-121531143D01*
X89463619Y-121912095D02*
X89416000Y-121959714D01*
X89368381Y-122054952D01*
X89368381Y-122293048D01*
X89416000Y-122388286D01*
X89463619Y-122435905D01*
X89558857Y-122483524D01*
X89654095Y-122483524D01*
X89796952Y-122435905D01*
X90368381Y-121864476D01*
X90368381Y-122483524D01*
X89368381Y-123340667D02*
X89368381Y-123150190D01*
X89416000Y-123054952D01*
X89463619Y-123007333D01*
X89606476Y-122912095D01*
X89796952Y-122864476D01*
X90177905Y-122864476D01*
X90273143Y-122912095D01*
X90320762Y-122959714D01*
X90368381Y-123054952D01*
X90368381Y-123245429D01*
X90320762Y-123340667D01*
X90273143Y-123388286D01*
X90177905Y-123435905D01*
X89939810Y-123435905D01*
X89844571Y-123388286D01*
X89796952Y-123340667D01*
X89749333Y-123245429D01*
X89749333Y-123054952D01*
X89796952Y-122959714D01*
X89844571Y-122912095D01*
X89939810Y-122864476D01*
X42307690Y-65261656D02*
X42355309Y-65309275D01*
X42498166Y-65356894D01*
X42593404Y-65356894D01*
X42736262Y-65309275D01*
X42831500Y-65214037D01*
X42879119Y-65118799D01*
X42926738Y-64928323D01*
X42926738Y-64785465D01*
X42879119Y-64594989D01*
X42831500Y-64499751D01*
X42736262Y-64404513D01*
X42593404Y-64356894D01*
X42498166Y-64356894D01*
X42355309Y-64404513D01*
X42307690Y-64452132D01*
X41926738Y-64452132D02*
X41879119Y-64404513D01*
X41783881Y-64356894D01*
X41545785Y-64356894D01*
X41450547Y-64404513D01*
X41402928Y-64452132D01*
X41355309Y-64547370D01*
X41355309Y-64642608D01*
X41402928Y-64785465D01*
X41974357Y-65356894D01*
X41355309Y-65356894D01*
X41021976Y-64356894D02*
X40355309Y-64356894D01*
X40783881Y-65356894D01*
X42339690Y-68436656D02*
X42387309Y-68484275D01*
X42530166Y-68531894D01*
X42625404Y-68531894D01*
X42768262Y-68484275D01*
X42863500Y-68389037D01*
X42911119Y-68293799D01*
X42958738Y-68103323D01*
X42958738Y-67960465D01*
X42911119Y-67769989D01*
X42863500Y-67674751D01*
X42768262Y-67579513D01*
X42625404Y-67531894D01*
X42530166Y-67531894D01*
X42387309Y-67579513D01*
X42339690Y-67627132D01*
X41958738Y-67627132D02*
X41911119Y-67579513D01*
X41815881Y-67531894D01*
X41577785Y-67531894D01*
X41482547Y-67579513D01*
X41434928Y-67627132D01*
X41387309Y-67722370D01*
X41387309Y-67817608D01*
X41434928Y-67960465D01*
X42006357Y-68531894D01*
X41387309Y-68531894D01*
X40815881Y-67960465D02*
X40911119Y-67912846D01*
X40958738Y-67865227D01*
X41006357Y-67769989D01*
X41006357Y-67722370D01*
X40958738Y-67627132D01*
X40911119Y-67579513D01*
X40815881Y-67531894D01*
X40625404Y-67531894D01*
X40530166Y-67579513D01*
X40482547Y-67627132D01*
X40434928Y-67722370D01*
X40434928Y-67769989D01*
X40482547Y-67865227D01*
X40530166Y-67912846D01*
X40625404Y-67960465D01*
X40815881Y-67960465D01*
X40911119Y-68008084D01*
X40958738Y-68055703D01*
X41006357Y-68150942D01*
X41006357Y-68341418D01*
X40958738Y-68436656D01*
X40911119Y-68484275D01*
X40815881Y-68531894D01*
X40625404Y-68531894D01*
X40530166Y-68484275D01*
X40482547Y-68436656D01*
X40434928Y-68341418D01*
X40434928Y-68150942D01*
X40482547Y-68055703D01*
X40530166Y-68008084D01*
X40625404Y-67960465D01*
X48998143Y-124452143D02*
X49045762Y-124404524D01*
X49093381Y-124261667D01*
X49093381Y-124166429D01*
X49045762Y-124023571D01*
X48950524Y-123928333D01*
X48855286Y-123880714D01*
X48664810Y-123833095D01*
X48521952Y-123833095D01*
X48331476Y-123880714D01*
X48236238Y-123928333D01*
X48141000Y-124023571D01*
X48093381Y-124166429D01*
X48093381Y-124261667D01*
X48141000Y-124404524D01*
X48188619Y-124452143D01*
X48188619Y-124833095D02*
X48141000Y-124880714D01*
X48093381Y-124975952D01*
X48093381Y-125214048D01*
X48141000Y-125309286D01*
X48188619Y-125356905D01*
X48283857Y-125404524D01*
X48379095Y-125404524D01*
X48521952Y-125356905D01*
X49093381Y-124785476D01*
X49093381Y-125404524D01*
X49093381Y-125880714D02*
X49093381Y-126071190D01*
X49045762Y-126166429D01*
X48998143Y-126214048D01*
X48855286Y-126309286D01*
X48664810Y-126356905D01*
X48283857Y-126356905D01*
X48188619Y-126309286D01*
X48141000Y-126261667D01*
X48093381Y-126166429D01*
X48093381Y-125975952D01*
X48141000Y-125880714D01*
X48188619Y-125833095D01*
X48283857Y-125785476D01*
X48521952Y-125785476D01*
X48617190Y-125833095D01*
X48664810Y-125880714D01*
X48712429Y-125975952D01*
X48712429Y-126166429D01*
X48664810Y-126261667D01*
X48617190Y-126309286D01*
X48521952Y-126356905D01*
X29946439Y-140565143D02*
X29994058Y-140517524D01*
X30041677Y-140374667D01*
X30041677Y-140279429D01*
X29994058Y-140136571D01*
X29898820Y-140041333D01*
X29803582Y-139993714D01*
X29613106Y-139946095D01*
X29470248Y-139946095D01*
X29279772Y-139993714D01*
X29184534Y-140041333D01*
X29089296Y-140136571D01*
X29041677Y-140279429D01*
X29041677Y-140374667D01*
X29089296Y-140517524D01*
X29136915Y-140565143D01*
X29041677Y-140898476D02*
X29041677Y-141517524D01*
X29422629Y-141184190D01*
X29422629Y-141327048D01*
X29470248Y-141422286D01*
X29517867Y-141469905D01*
X29613106Y-141517524D01*
X29851201Y-141517524D01*
X29946439Y-141469905D01*
X29994058Y-141422286D01*
X30041677Y-141327048D01*
X30041677Y-141041333D01*
X29994058Y-140946095D01*
X29946439Y-140898476D01*
X29041677Y-142136571D02*
X29041677Y-142231810D01*
X29089296Y-142327048D01*
X29136915Y-142374667D01*
X29232153Y-142422286D01*
X29422629Y-142469905D01*
X29660725Y-142469905D01*
X29851201Y-142422286D01*
X29946439Y-142374667D01*
X29994058Y-142327048D01*
X30041677Y-142231810D01*
X30041677Y-142136571D01*
X29994058Y-142041333D01*
X29946439Y-141993714D01*
X29851201Y-141946095D01*
X29660725Y-141898476D01*
X29422629Y-141898476D01*
X29232153Y-141946095D01*
X29136915Y-141993714D01*
X29089296Y-142041333D01*
X29041677Y-142136571D01*
X31091143Y-109212143D02*
X31138762Y-109164524D01*
X31186381Y-109021667D01*
X31186381Y-108926429D01*
X31138762Y-108783571D01*
X31043524Y-108688333D01*
X30948286Y-108640714D01*
X30757810Y-108593095D01*
X30614952Y-108593095D01*
X30424476Y-108640714D01*
X30329238Y-108688333D01*
X30234000Y-108783571D01*
X30186381Y-108926429D01*
X30186381Y-109021667D01*
X30234000Y-109164524D01*
X30281619Y-109212143D01*
X30186381Y-109545476D02*
X30186381Y-110164524D01*
X30567333Y-109831190D01*
X30567333Y-109974048D01*
X30614952Y-110069286D01*
X30662571Y-110116905D01*
X30757810Y-110164524D01*
X30995905Y-110164524D01*
X31091143Y-110116905D01*
X31138762Y-110069286D01*
X31186381Y-109974048D01*
X31186381Y-109688333D01*
X31138762Y-109593095D01*
X31091143Y-109545476D01*
X31186381Y-111116905D02*
X31186381Y-110545476D01*
X31186381Y-110831190D02*
X30186381Y-110831190D01*
X30329238Y-110735952D01*
X30424476Y-110640714D01*
X30472095Y-110545476D01*
X35129439Y-140565143D02*
X35177058Y-140517524D01*
X35224677Y-140374667D01*
X35224677Y-140279429D01*
X35177058Y-140136571D01*
X35081820Y-140041333D01*
X34986582Y-139993714D01*
X34796106Y-139946095D01*
X34653248Y-139946095D01*
X34462772Y-139993714D01*
X34367534Y-140041333D01*
X34272296Y-140136571D01*
X34224677Y-140279429D01*
X34224677Y-140374667D01*
X34272296Y-140517524D01*
X34319915Y-140565143D01*
X34224677Y-140898476D02*
X34224677Y-141517524D01*
X34605629Y-141184190D01*
X34605629Y-141327048D01*
X34653248Y-141422286D01*
X34700867Y-141469905D01*
X34796106Y-141517524D01*
X35034201Y-141517524D01*
X35129439Y-141469905D01*
X35177058Y-141422286D01*
X35224677Y-141327048D01*
X35224677Y-141041333D01*
X35177058Y-140946095D01*
X35129439Y-140898476D01*
X34319915Y-141898476D02*
X34272296Y-141946095D01*
X34224677Y-142041333D01*
X34224677Y-142279429D01*
X34272296Y-142374667D01*
X34319915Y-142422286D01*
X34415153Y-142469905D01*
X34510391Y-142469905D01*
X34653248Y-142422286D01*
X35224677Y-141850857D01*
X35224677Y-142469905D01*
X36510143Y-109202142D02*
X36557762Y-109154523D01*
X36605381Y-109011666D01*
X36605381Y-108916428D01*
X36557762Y-108773570D01*
X36462524Y-108678332D01*
X36367286Y-108630713D01*
X36176810Y-108583094D01*
X36033952Y-108583094D01*
X35843476Y-108630713D01*
X35748238Y-108678332D01*
X35653000Y-108773570D01*
X35605381Y-108916428D01*
X35605381Y-109011666D01*
X35653000Y-109154523D01*
X35700619Y-109202142D01*
X35605381Y-109535475D02*
X35605381Y-110154523D01*
X35986333Y-109821189D01*
X35986333Y-109964047D01*
X36033952Y-110059285D01*
X36081571Y-110106904D01*
X36176810Y-110154523D01*
X36414905Y-110154523D01*
X36510143Y-110106904D01*
X36557762Y-110059285D01*
X36605381Y-109964047D01*
X36605381Y-109678332D01*
X36557762Y-109583094D01*
X36510143Y-109535475D01*
X35605381Y-110487856D02*
X35605381Y-111106904D01*
X35986333Y-110773570D01*
X35986333Y-110916428D01*
X36033952Y-111011666D01*
X36081571Y-111059285D01*
X36176810Y-111106904D01*
X36414905Y-111106904D01*
X36510143Y-111059285D01*
X36557762Y-111011666D01*
X36605381Y-110916428D01*
X36605381Y-110630713D01*
X36557762Y-110535475D01*
X36510143Y-110487856D01*
X97771095Y-142362381D02*
X97771095Y-141362381D01*
X97533000Y-141362381D01*
X97390142Y-141410000D01*
X97294904Y-141505238D01*
X97247285Y-141600476D01*
X97199666Y-141790952D01*
X97199666Y-141933810D01*
X97247285Y-142124286D01*
X97294904Y-142219524D01*
X97390142Y-142314762D01*
X97533000Y-142362381D01*
X97771095Y-142362381D01*
X96247285Y-142362381D02*
X96818714Y-142362381D01*
X96533000Y-142362381D02*
X96533000Y-141362381D01*
X96628238Y-141505238D01*
X96723476Y-141600476D01*
X96818714Y-141648095D01*
X103100095Y-140989381D02*
X103100095Y-139989381D01*
X102862000Y-139989381D01*
X102719142Y-140037000D01*
X102623904Y-140132238D01*
X102576285Y-140227476D01*
X102528666Y-140417952D01*
X102528666Y-140560810D01*
X102576285Y-140751286D01*
X102623904Y-140846524D01*
X102719142Y-140941762D01*
X102862000Y-140989381D01*
X103100095Y-140989381D01*
X102147714Y-140084619D02*
X102100095Y-140037000D01*
X102004857Y-139989381D01*
X101766761Y-139989381D01*
X101671523Y-140037000D01*
X101623904Y-140084619D01*
X101576285Y-140179857D01*
X101576285Y-140275095D01*
X101623904Y-140417952D01*
X102195333Y-140989381D01*
X101576285Y-140989381D01*
X106946381Y-129055905D02*
X105946381Y-129055905D01*
X105946381Y-129294000D01*
X105994000Y-129436858D01*
X106089238Y-129532096D01*
X106184476Y-129579715D01*
X106374952Y-129627334D01*
X106517810Y-129627334D01*
X106708286Y-129579715D01*
X106803524Y-129532096D01*
X106898762Y-129436858D01*
X106946381Y-129294000D01*
X106946381Y-129055905D01*
X105946381Y-129960667D02*
X105946381Y-130579715D01*
X106327333Y-130246381D01*
X106327333Y-130389239D01*
X106374952Y-130484477D01*
X106422571Y-130532096D01*
X106517810Y-130579715D01*
X106755905Y-130579715D01*
X106851143Y-130532096D01*
X106898762Y-130484477D01*
X106946381Y-130389239D01*
X106946381Y-130103524D01*
X106898762Y-130008286D01*
X106851143Y-129960667D01*
X78970095Y-142362381D02*
X78970095Y-141362381D01*
X78732000Y-141362381D01*
X78589142Y-141410000D01*
X78493904Y-141505238D01*
X78446285Y-141600476D01*
X78398666Y-141790952D01*
X78398666Y-141933810D01*
X78446285Y-142124286D01*
X78493904Y-142219524D01*
X78589142Y-142314762D01*
X78732000Y-142362381D01*
X78970095Y-142362381D01*
X77541523Y-141695714D02*
X77541523Y-142362381D01*
X77779619Y-141314762D02*
X78017714Y-142029048D01*
X77398666Y-142029048D01*
X84177095Y-140989381D02*
X84177095Y-139989381D01*
X83939000Y-139989381D01*
X83796142Y-140037000D01*
X83700904Y-140132238D01*
X83653285Y-140227476D01*
X83605666Y-140417952D01*
X83605666Y-140560810D01*
X83653285Y-140751286D01*
X83700904Y-140846524D01*
X83796142Y-140941762D01*
X83939000Y-140989381D01*
X84177095Y-140989381D01*
X82700904Y-139989381D02*
X83177095Y-139989381D01*
X83224714Y-140465571D01*
X83177095Y-140417952D01*
X83081857Y-140370333D01*
X82843761Y-140370333D01*
X82748523Y-140417952D01*
X82700904Y-140465571D01*
X82653285Y-140560810D01*
X82653285Y-140798905D01*
X82700904Y-140894143D01*
X82748523Y-140941762D01*
X82843761Y-140989381D01*
X83081857Y-140989381D01*
X83177095Y-140941762D01*
X83224714Y-140894143D01*
X88150381Y-129182905D02*
X87150381Y-129182905D01*
X87150381Y-129421000D01*
X87198000Y-129563858D01*
X87293238Y-129659096D01*
X87388476Y-129706715D01*
X87578952Y-129754334D01*
X87721810Y-129754334D01*
X87912286Y-129706715D01*
X88007524Y-129659096D01*
X88102762Y-129563858D01*
X88150381Y-129421000D01*
X88150381Y-129182905D01*
X87150381Y-130611477D02*
X87150381Y-130421000D01*
X87198000Y-130325762D01*
X87245619Y-130278143D01*
X87388476Y-130182905D01*
X87578952Y-130135286D01*
X87959905Y-130135286D01*
X88055143Y-130182905D01*
X88102762Y-130230524D01*
X88150381Y-130325762D01*
X88150381Y-130516239D01*
X88102762Y-130611477D01*
X88055143Y-130659096D01*
X87959905Y-130706715D01*
X87721810Y-130706715D01*
X87626571Y-130659096D01*
X87578952Y-130611477D01*
X87531333Y-130516239D01*
X87531333Y-130325762D01*
X87578952Y-130230524D01*
X87626571Y-130182905D01*
X87721810Y-130135286D01*
X106973666Y-135961381D02*
X107449857Y-135961381D01*
X107449857Y-134961381D01*
X106116523Y-135961381D02*
X106687952Y-135961381D01*
X106402238Y-135961381D02*
X106402238Y-134961381D01*
X106497476Y-135104238D01*
X106592714Y-135199476D01*
X106687952Y-135247095D01*
X89098381Y-135215334D02*
X89098381Y-134739143D01*
X88098381Y-134739143D01*
X88193619Y-135501048D02*
X88146000Y-135548667D01*
X88098381Y-135643905D01*
X88098381Y-135882001D01*
X88146000Y-135977239D01*
X88193619Y-136024858D01*
X88288857Y-136072477D01*
X88384095Y-136072477D01*
X88526952Y-136024858D01*
X89098381Y-135453429D01*
X89098381Y-136072477D01*
X46673499Y-76147894D02*
X47149690Y-76147894D01*
X47149690Y-75147894D01*
X46435404Y-75147894D02*
X45816356Y-75147894D01*
X46149690Y-75528846D01*
X46006832Y-75528846D01*
X45911594Y-75576465D01*
X45863975Y-75624084D01*
X45816356Y-75719323D01*
X45816356Y-75957418D01*
X45863975Y-76052656D01*
X45911594Y-76100275D01*
X46006832Y-76147894D01*
X46292547Y-76147894D01*
X46387785Y-76100275D01*
X46435404Y-76052656D01*
X70458666Y-64011919D02*
X70792000Y-63535728D01*
X71030095Y-64011919D02*
X71030095Y-63011919D01*
X70649142Y-63011919D01*
X70553904Y-63059538D01*
X70506285Y-63107157D01*
X70458666Y-63202395D01*
X70458666Y-63345252D01*
X70506285Y-63440490D01*
X70553904Y-63488109D01*
X70649142Y-63535728D01*
X71030095Y-63535728D01*
X69553904Y-63011919D02*
X70030095Y-63011919D01*
X70077714Y-63488109D01*
X70030095Y-63440490D01*
X69934857Y-63392871D01*
X69696761Y-63392871D01*
X69601523Y-63440490D01*
X69553904Y-63488109D01*
X69506285Y-63583348D01*
X69506285Y-63821443D01*
X69553904Y-63916681D01*
X69601523Y-63964300D01*
X69696761Y-64011919D01*
X69934857Y-64011919D01*
X70030095Y-63964300D01*
X70077714Y-63916681D01*
X71855666Y-68652381D02*
X72189000Y-68176190D01*
X72427095Y-68652381D02*
X72427095Y-67652381D01*
X72046142Y-67652381D01*
X71950904Y-67700000D01*
X71903285Y-67747619D01*
X71855666Y-67842857D01*
X71855666Y-67985714D01*
X71903285Y-68080952D01*
X71950904Y-68128571D01*
X72046142Y-68176190D01*
X72427095Y-68176190D01*
X70998523Y-67652381D02*
X71189000Y-67652381D01*
X71284238Y-67700000D01*
X71331857Y-67747619D01*
X71427095Y-67890476D01*
X71474714Y-68080952D01*
X71474714Y-68461905D01*
X71427095Y-68557143D01*
X71379476Y-68604762D01*
X71284238Y-68652381D01*
X71093761Y-68652381D01*
X70998523Y-68604762D01*
X70950904Y-68557143D01*
X70903285Y-68461905D01*
X70903285Y-68223810D01*
X70950904Y-68128571D01*
X70998523Y-68080952D01*
X71093761Y-68033333D01*
X71284238Y-68033333D01*
X71379476Y-68080952D01*
X71427095Y-68128571D01*
X71474714Y-68223810D01*
X51341769Y-74248154D02*
X50865578Y-73914820D01*
X51341769Y-73676725D02*
X50341769Y-73676725D01*
X50341769Y-74057678D01*
X50389388Y-74152916D01*
X50437007Y-74200535D01*
X50532245Y-74248154D01*
X50675102Y-74248154D01*
X50770340Y-74200535D01*
X50817959Y-74152916D01*
X50865578Y-74057678D01*
X50865578Y-73676725D01*
X50770340Y-74819582D02*
X50722721Y-74724344D01*
X50675102Y-74676725D01*
X50579864Y-74629106D01*
X50532245Y-74629106D01*
X50437007Y-74676725D01*
X50389388Y-74724344D01*
X50341769Y-74819582D01*
X50341769Y-75010059D01*
X50389388Y-75105297D01*
X50437007Y-75152916D01*
X50532245Y-75200535D01*
X50579864Y-75200535D01*
X50675102Y-75152916D01*
X50722721Y-75105297D01*
X50770340Y-75010059D01*
X50770340Y-74819582D01*
X50817959Y-74724344D01*
X50865578Y-74676725D01*
X50960817Y-74629106D01*
X51151293Y-74629106D01*
X51246531Y-74676725D01*
X51294150Y-74724344D01*
X51341769Y-74819582D01*
X51341769Y-75010059D01*
X51294150Y-75105297D01*
X51246531Y-75152916D01*
X51151293Y-75200535D01*
X50960817Y-75200535D01*
X50865578Y-75152916D01*
X50817959Y-75105297D01*
X50770340Y-75010059D01*
X55627054Y-71510201D02*
X55960388Y-71034010D01*
X56198483Y-71510201D02*
X56198483Y-70510201D01*
X55817530Y-70510201D01*
X55722292Y-70557820D01*
X55674673Y-70605439D01*
X55627054Y-70700677D01*
X55627054Y-70843534D01*
X55674673Y-70938772D01*
X55722292Y-70986391D01*
X55817530Y-71034010D01*
X56198483Y-71034010D01*
X55150864Y-71510201D02*
X54960388Y-71510201D01*
X54865149Y-71462582D01*
X54817530Y-71414963D01*
X54722292Y-71272106D01*
X54674673Y-71081630D01*
X54674673Y-70700677D01*
X54722292Y-70605439D01*
X54769911Y-70557820D01*
X54865149Y-70510201D01*
X55055626Y-70510201D01*
X55150864Y-70557820D01*
X55198483Y-70605439D01*
X55246102Y-70700677D01*
X55246102Y-70938772D01*
X55198483Y-71034010D01*
X55150864Y-71081630D01*
X55055626Y-71129249D01*
X54865149Y-71129249D01*
X54769911Y-71081630D01*
X54722292Y-71034010D01*
X54674673Y-70938772D01*
X40965381Y-84834251D02*
X40489190Y-84500917D01*
X40965381Y-84262822D02*
X39965381Y-84262822D01*
X39965381Y-84643775D01*
X40013000Y-84739013D01*
X40060619Y-84786632D01*
X40155857Y-84834251D01*
X40298714Y-84834251D01*
X40393952Y-84786632D01*
X40441571Y-84739013D01*
X40489190Y-84643775D01*
X40489190Y-84262822D01*
X40965381Y-85786632D02*
X40965381Y-85215203D01*
X40965381Y-85500917D02*
X39965381Y-85500917D01*
X40108238Y-85405679D01*
X40203476Y-85310441D01*
X40251095Y-85215203D01*
X39965381Y-86405679D02*
X39965381Y-86500918D01*
X40013000Y-86596156D01*
X40060619Y-86643775D01*
X40155857Y-86691394D01*
X40346333Y-86739013D01*
X40584429Y-86739013D01*
X40774905Y-86691394D01*
X40870143Y-86643775D01*
X40917762Y-86596156D01*
X40965381Y-86500918D01*
X40965381Y-86405679D01*
X40917762Y-86310441D01*
X40870143Y-86262822D01*
X40774905Y-86215203D01*
X40584429Y-86167584D01*
X40346333Y-86167584D01*
X40155857Y-86215203D01*
X40060619Y-86262822D01*
X40013000Y-86310441D01*
X39965381Y-86405679D01*
X46172381Y-81151251D02*
X45696190Y-80817917D01*
X46172381Y-80579822D02*
X45172381Y-80579822D01*
X45172381Y-80960775D01*
X45220000Y-81056013D01*
X45267619Y-81103632D01*
X45362857Y-81151251D01*
X45505714Y-81151251D01*
X45600952Y-81103632D01*
X45648571Y-81056013D01*
X45696190Y-80960775D01*
X45696190Y-80579822D01*
X46172381Y-82103632D02*
X46172381Y-81532203D01*
X46172381Y-81817917D02*
X45172381Y-81817917D01*
X45315238Y-81722679D01*
X45410476Y-81627441D01*
X45458095Y-81532203D01*
X46172381Y-83056013D02*
X46172381Y-82484584D01*
X46172381Y-82770298D02*
X45172381Y-82770298D01*
X45315238Y-82675060D01*
X45410476Y-82579822D01*
X45458095Y-82484584D01*
X52103769Y-64373963D02*
X51627578Y-64040629D01*
X52103769Y-63802534D02*
X51103769Y-63802534D01*
X51103769Y-64183487D01*
X51151388Y-64278725D01*
X51199007Y-64326344D01*
X51294245Y-64373963D01*
X51437102Y-64373963D01*
X51532340Y-64326344D01*
X51579959Y-64278725D01*
X51627578Y-64183487D01*
X51627578Y-63802534D01*
X52103769Y-65326344D02*
X52103769Y-64754915D01*
X52103769Y-65040629D02*
X51103769Y-65040629D01*
X51246626Y-64945391D01*
X51341864Y-64850153D01*
X51389483Y-64754915D01*
X51199007Y-65707296D02*
X51151388Y-65754915D01*
X51103769Y-65850153D01*
X51103769Y-66088249D01*
X51151388Y-66183487D01*
X51199007Y-66231106D01*
X51294245Y-66278725D01*
X51389483Y-66278725D01*
X51532340Y-66231106D01*
X52103769Y-65659677D01*
X52103769Y-66278725D01*
X94495857Y-134945381D02*
X94829191Y-134469190D01*
X95067286Y-134945381D02*
X95067286Y-133945381D01*
X94686333Y-133945381D01*
X94591095Y-133993000D01*
X94543476Y-134040619D01*
X94495857Y-134135857D01*
X94495857Y-134278714D01*
X94543476Y-134373952D01*
X94591095Y-134421571D01*
X94686333Y-134469190D01*
X95067286Y-134469190D01*
X93543476Y-134945381D02*
X94114905Y-134945381D01*
X93829191Y-134945381D02*
X93829191Y-133945381D01*
X93924429Y-134088238D01*
X94019667Y-134183476D01*
X94114905Y-134231095D01*
X92686333Y-134278714D02*
X92686333Y-134945381D01*
X92924429Y-133897762D02*
X93162524Y-134612048D01*
X92543476Y-134612048D01*
X94495857Y-132786381D02*
X94829191Y-132310190D01*
X95067286Y-132786381D02*
X95067286Y-131786381D01*
X94686333Y-131786381D01*
X94591095Y-131834000D01*
X94543476Y-131881619D01*
X94495857Y-131976857D01*
X94495857Y-132119714D01*
X94543476Y-132214952D01*
X94591095Y-132262571D01*
X94686333Y-132310190D01*
X95067286Y-132310190D01*
X93543476Y-132786381D02*
X94114905Y-132786381D01*
X93829191Y-132786381D02*
X93829191Y-131786381D01*
X93924429Y-131929238D01*
X94019667Y-132024476D01*
X94114905Y-132072095D01*
X92638714Y-131786381D02*
X93114905Y-131786381D01*
X93162524Y-132262571D01*
X93114905Y-132214952D01*
X93019667Y-132167333D01*
X92781571Y-132167333D01*
X92686333Y-132214952D01*
X92638714Y-132262571D01*
X92591095Y-132357810D01*
X92591095Y-132595905D01*
X92638714Y-132691143D01*
X92686333Y-132738762D01*
X92781571Y-132786381D01*
X93019667Y-132786381D01*
X93114905Y-132738762D01*
X93162524Y-132691143D01*
X94495857Y-130881381D02*
X94829191Y-130405190D01*
X95067286Y-130881381D02*
X95067286Y-129881381D01*
X94686333Y-129881381D01*
X94591095Y-129929000D01*
X94543476Y-129976619D01*
X94495857Y-130071857D01*
X94495857Y-130214714D01*
X94543476Y-130309952D01*
X94591095Y-130357571D01*
X94686333Y-130405190D01*
X95067286Y-130405190D01*
X93543476Y-130881381D02*
X94114905Y-130881381D01*
X93829191Y-130881381D02*
X93829191Y-129881381D01*
X93924429Y-130024238D01*
X94019667Y-130119476D01*
X94114905Y-130167095D01*
X92686333Y-129881381D02*
X92876810Y-129881381D01*
X92972048Y-129929000D01*
X93019667Y-129976619D01*
X93114905Y-130119476D01*
X93162524Y-130309952D01*
X93162524Y-130690905D01*
X93114905Y-130786143D01*
X93067286Y-130833762D01*
X92972048Y-130881381D01*
X92781571Y-130881381D01*
X92686333Y-130833762D01*
X92638714Y-130786143D01*
X92591095Y-130690905D01*
X92591095Y-130452810D01*
X92638714Y-130357571D01*
X92686333Y-130309952D01*
X92781571Y-130262333D01*
X92972048Y-130262333D01*
X93067286Y-130309952D01*
X93114905Y-130357571D01*
X93162524Y-130452810D01*
X98940857Y-128849381D02*
X99274191Y-128373190D01*
X99512286Y-128849381D02*
X99512286Y-127849381D01*
X99131333Y-127849381D01*
X99036095Y-127897000D01*
X98988476Y-127944619D01*
X98940857Y-128039857D01*
X98940857Y-128182714D01*
X98988476Y-128277952D01*
X99036095Y-128325571D01*
X99131333Y-128373190D01*
X99512286Y-128373190D01*
X97988476Y-128849381D02*
X98559905Y-128849381D01*
X98274191Y-128849381D02*
X98274191Y-127849381D01*
X98369429Y-127992238D01*
X98464667Y-128087476D01*
X98559905Y-128135095D01*
X97655143Y-127849381D02*
X96988476Y-127849381D01*
X97417048Y-128849381D01*
X98305857Y-125166381D02*
X98639191Y-124690190D01*
X98877286Y-125166381D02*
X98877286Y-124166381D01*
X98496333Y-124166381D01*
X98401095Y-124214000D01*
X98353476Y-124261619D01*
X98305857Y-124356857D01*
X98305857Y-124499714D01*
X98353476Y-124594952D01*
X98401095Y-124642571D01*
X98496333Y-124690190D01*
X98877286Y-124690190D01*
X97924905Y-124261619D02*
X97877286Y-124214000D01*
X97782048Y-124166381D01*
X97543952Y-124166381D01*
X97448714Y-124214000D01*
X97401095Y-124261619D01*
X97353476Y-124356857D01*
X97353476Y-124452095D01*
X97401095Y-124594952D01*
X97972524Y-125166381D01*
X97353476Y-125166381D01*
X96401095Y-125166381D02*
X96972524Y-125166381D01*
X96686810Y-125166381D02*
X96686810Y-124166381D01*
X96782048Y-124309238D01*
X96877286Y-124404476D01*
X96972524Y-124452095D01*
X104909857Y-126817381D02*
X105243191Y-126341190D01*
X105481286Y-126817381D02*
X105481286Y-125817381D01*
X105100333Y-125817381D01*
X105005095Y-125865000D01*
X104957476Y-125912619D01*
X104909857Y-126007857D01*
X104909857Y-126150714D01*
X104957476Y-126245952D01*
X105005095Y-126293571D01*
X105100333Y-126341190D01*
X105481286Y-126341190D01*
X104528905Y-125912619D02*
X104481286Y-125865000D01*
X104386048Y-125817381D01*
X104147952Y-125817381D01*
X104052714Y-125865000D01*
X104005095Y-125912619D01*
X103957476Y-126007857D01*
X103957476Y-126103095D01*
X104005095Y-126245952D01*
X104576524Y-126817381D01*
X103957476Y-126817381D01*
X103576524Y-125912619D02*
X103528905Y-125865000D01*
X103433667Y-125817381D01*
X103195571Y-125817381D01*
X103100333Y-125865000D01*
X103052714Y-125912619D01*
X103005095Y-126007857D01*
X103005095Y-126103095D01*
X103052714Y-126245952D01*
X103624143Y-126817381D01*
X103005095Y-126817381D01*
X104909857Y-124785381D02*
X105243191Y-124309190D01*
X105481286Y-124785381D02*
X105481286Y-123785381D01*
X105100333Y-123785381D01*
X105005095Y-123833000D01*
X104957476Y-123880619D01*
X104909857Y-123975857D01*
X104909857Y-124118714D01*
X104957476Y-124213952D01*
X105005095Y-124261571D01*
X105100333Y-124309190D01*
X105481286Y-124309190D01*
X104528905Y-123880619D02*
X104481286Y-123833000D01*
X104386048Y-123785381D01*
X104147952Y-123785381D01*
X104052714Y-123833000D01*
X104005095Y-123880619D01*
X103957476Y-123975857D01*
X103957476Y-124071095D01*
X104005095Y-124213952D01*
X104576524Y-124785381D01*
X103957476Y-124785381D01*
X103624143Y-123785381D02*
X103005095Y-123785381D01*
X103338429Y-124166333D01*
X103195571Y-124166333D01*
X103100333Y-124213952D01*
X103052714Y-124261571D01*
X103005095Y-124356810D01*
X103005095Y-124594905D01*
X103052714Y-124690143D01*
X103100333Y-124737762D01*
X103195571Y-124785381D01*
X103481286Y-124785381D01*
X103576524Y-124737762D01*
X103624143Y-124690143D01*
X110434381Y-129151143D02*
X109958190Y-128817809D01*
X110434381Y-128579714D02*
X109434381Y-128579714D01*
X109434381Y-128960667D01*
X109482000Y-129055905D01*
X109529619Y-129103524D01*
X109624857Y-129151143D01*
X109767714Y-129151143D01*
X109862952Y-129103524D01*
X109910571Y-129055905D01*
X109958190Y-128960667D01*
X109958190Y-128579714D01*
X109529619Y-129532095D02*
X109482000Y-129579714D01*
X109434381Y-129674952D01*
X109434381Y-129913048D01*
X109482000Y-130008286D01*
X109529619Y-130055905D01*
X109624857Y-130103524D01*
X109720095Y-130103524D01*
X109862952Y-130055905D01*
X110434381Y-129484476D01*
X110434381Y-130103524D01*
X109767714Y-130960667D02*
X110434381Y-130960667D01*
X109386762Y-130722571D02*
X110101048Y-130484476D01*
X110101048Y-131103524D01*
X75699857Y-134945381D02*
X76033191Y-134469190D01*
X76271286Y-134945381D02*
X76271286Y-133945381D01*
X75890333Y-133945381D01*
X75795095Y-133993000D01*
X75747476Y-134040619D01*
X75699857Y-134135857D01*
X75699857Y-134278714D01*
X75747476Y-134373952D01*
X75795095Y-134421571D01*
X75890333Y-134469190D01*
X76271286Y-134469190D01*
X75318905Y-134040619D02*
X75271286Y-133993000D01*
X75176048Y-133945381D01*
X74937952Y-133945381D01*
X74842714Y-133993000D01*
X74795095Y-134040619D01*
X74747476Y-134135857D01*
X74747476Y-134231095D01*
X74795095Y-134373952D01*
X75366524Y-134945381D01*
X74747476Y-134945381D01*
X73842714Y-133945381D02*
X74318905Y-133945381D01*
X74366524Y-134421571D01*
X74318905Y-134373952D01*
X74223667Y-134326333D01*
X73985571Y-134326333D01*
X73890333Y-134373952D01*
X73842714Y-134421571D01*
X73795095Y-134516810D01*
X73795095Y-134754905D01*
X73842714Y-134850143D01*
X73890333Y-134897762D01*
X73985571Y-134945381D01*
X74223667Y-134945381D01*
X74318905Y-134897762D01*
X74366524Y-134850143D01*
X75699857Y-132913381D02*
X76033191Y-132437190D01*
X76271286Y-132913381D02*
X76271286Y-131913381D01*
X75890333Y-131913381D01*
X75795095Y-131961000D01*
X75747476Y-132008619D01*
X75699857Y-132103857D01*
X75699857Y-132246714D01*
X75747476Y-132341952D01*
X75795095Y-132389571D01*
X75890333Y-132437190D01*
X76271286Y-132437190D01*
X75318905Y-132008619D02*
X75271286Y-131961000D01*
X75176048Y-131913381D01*
X74937952Y-131913381D01*
X74842714Y-131961000D01*
X74795095Y-132008619D01*
X74747476Y-132103857D01*
X74747476Y-132199095D01*
X74795095Y-132341952D01*
X75366524Y-132913381D01*
X74747476Y-132913381D01*
X73890333Y-131913381D02*
X74080810Y-131913381D01*
X74176048Y-131961000D01*
X74223667Y-132008619D01*
X74318905Y-132151476D01*
X74366524Y-132341952D01*
X74366524Y-132722905D01*
X74318905Y-132818143D01*
X74271286Y-132865762D01*
X74176048Y-132913381D01*
X73985571Y-132913381D01*
X73890333Y-132865762D01*
X73842714Y-132818143D01*
X73795095Y-132722905D01*
X73795095Y-132484810D01*
X73842714Y-132389571D01*
X73890333Y-132341952D01*
X73985571Y-132294333D01*
X74176048Y-132294333D01*
X74271286Y-132341952D01*
X74318905Y-132389571D01*
X74366524Y-132484810D01*
X75699857Y-130881381D02*
X76033191Y-130405190D01*
X76271286Y-130881381D02*
X76271286Y-129881381D01*
X75890333Y-129881381D01*
X75795095Y-129929000D01*
X75747476Y-129976619D01*
X75699857Y-130071857D01*
X75699857Y-130214714D01*
X75747476Y-130309952D01*
X75795095Y-130357571D01*
X75890333Y-130405190D01*
X76271286Y-130405190D01*
X75318905Y-129976619D02*
X75271286Y-129929000D01*
X75176048Y-129881381D01*
X74937952Y-129881381D01*
X74842714Y-129929000D01*
X74795095Y-129976619D01*
X74747476Y-130071857D01*
X74747476Y-130167095D01*
X74795095Y-130309952D01*
X75366524Y-130881381D01*
X74747476Y-130881381D01*
X74414143Y-129881381D02*
X73747476Y-129881381D01*
X74176048Y-130881381D01*
X80144857Y-128976381D02*
X80478191Y-128500190D01*
X80716286Y-128976381D02*
X80716286Y-127976381D01*
X80335333Y-127976381D01*
X80240095Y-128024000D01*
X80192476Y-128071619D01*
X80144857Y-128166857D01*
X80144857Y-128309714D01*
X80192476Y-128404952D01*
X80240095Y-128452571D01*
X80335333Y-128500190D01*
X80716286Y-128500190D01*
X79763905Y-128071619D02*
X79716286Y-128024000D01*
X79621048Y-127976381D01*
X79382952Y-127976381D01*
X79287714Y-128024000D01*
X79240095Y-128071619D01*
X79192476Y-128166857D01*
X79192476Y-128262095D01*
X79240095Y-128404952D01*
X79811524Y-128976381D01*
X79192476Y-128976381D01*
X78621048Y-128404952D02*
X78716286Y-128357333D01*
X78763905Y-128309714D01*
X78811524Y-128214476D01*
X78811524Y-128166857D01*
X78763905Y-128071619D01*
X78716286Y-128024000D01*
X78621048Y-127976381D01*
X78430571Y-127976381D01*
X78335333Y-128024000D01*
X78287714Y-128071619D01*
X78240095Y-128166857D01*
X78240095Y-128214476D01*
X78287714Y-128309714D01*
X78335333Y-128357333D01*
X78430571Y-128404952D01*
X78621048Y-128404952D01*
X78716286Y-128452571D01*
X78763905Y-128500190D01*
X78811524Y-128595429D01*
X78811524Y-128785905D01*
X78763905Y-128881143D01*
X78716286Y-128928762D01*
X78621048Y-128976381D01*
X78430571Y-128976381D01*
X78335333Y-128928762D01*
X78287714Y-128881143D01*
X78240095Y-128785905D01*
X78240095Y-128595429D01*
X78287714Y-128500190D01*
X78335333Y-128452571D01*
X78430571Y-128404952D01*
X79382857Y-125293381D02*
X79716191Y-124817190D01*
X79954286Y-125293381D02*
X79954286Y-124293381D01*
X79573333Y-124293381D01*
X79478095Y-124341000D01*
X79430476Y-124388619D01*
X79382857Y-124483857D01*
X79382857Y-124626714D01*
X79430476Y-124721952D01*
X79478095Y-124769571D01*
X79573333Y-124817190D01*
X79954286Y-124817190D01*
X79001905Y-124388619D02*
X78954286Y-124341000D01*
X78859048Y-124293381D01*
X78620952Y-124293381D01*
X78525714Y-124341000D01*
X78478095Y-124388619D01*
X78430476Y-124483857D01*
X78430476Y-124579095D01*
X78478095Y-124721952D01*
X79049524Y-125293381D01*
X78430476Y-125293381D01*
X77954286Y-125293381D02*
X77763810Y-125293381D01*
X77668571Y-125245762D01*
X77620952Y-125198143D01*
X77525714Y-125055286D01*
X77478095Y-124864810D01*
X77478095Y-124483857D01*
X77525714Y-124388619D01*
X77573333Y-124341000D01*
X77668571Y-124293381D01*
X77859048Y-124293381D01*
X77954286Y-124341000D01*
X78001905Y-124388619D01*
X78049524Y-124483857D01*
X78049524Y-124721952D01*
X78001905Y-124817190D01*
X77954286Y-124864810D01*
X77859048Y-124912429D01*
X77668571Y-124912429D01*
X77573333Y-124864810D01*
X77525714Y-124817190D01*
X77478095Y-124721952D01*
X86113857Y-126944381D02*
X86447191Y-126468190D01*
X86685286Y-126944381D02*
X86685286Y-125944381D01*
X86304333Y-125944381D01*
X86209095Y-125992000D01*
X86161476Y-126039619D01*
X86113857Y-126134857D01*
X86113857Y-126277714D01*
X86161476Y-126372952D01*
X86209095Y-126420571D01*
X86304333Y-126468190D01*
X86685286Y-126468190D01*
X85780524Y-125944381D02*
X85161476Y-125944381D01*
X85494810Y-126325333D01*
X85351952Y-126325333D01*
X85256714Y-126372952D01*
X85209095Y-126420571D01*
X85161476Y-126515810D01*
X85161476Y-126753905D01*
X85209095Y-126849143D01*
X85256714Y-126896762D01*
X85351952Y-126944381D01*
X85637667Y-126944381D01*
X85732905Y-126896762D01*
X85780524Y-126849143D01*
X84542429Y-125944381D02*
X84447190Y-125944381D01*
X84351952Y-125992000D01*
X84304333Y-126039619D01*
X84256714Y-126134857D01*
X84209095Y-126325333D01*
X84209095Y-126563429D01*
X84256714Y-126753905D01*
X84304333Y-126849143D01*
X84351952Y-126896762D01*
X84447190Y-126944381D01*
X84542429Y-126944381D01*
X84637667Y-126896762D01*
X84685286Y-126849143D01*
X84732905Y-126753905D01*
X84780524Y-126563429D01*
X84780524Y-126325333D01*
X84732905Y-126134857D01*
X84685286Y-126039619D01*
X84637667Y-125992000D01*
X84542429Y-125944381D01*
X86113857Y-124785381D02*
X86447191Y-124309190D01*
X86685286Y-124785381D02*
X86685286Y-123785381D01*
X86304333Y-123785381D01*
X86209095Y-123833000D01*
X86161476Y-123880619D01*
X86113857Y-123975857D01*
X86113857Y-124118714D01*
X86161476Y-124213952D01*
X86209095Y-124261571D01*
X86304333Y-124309190D01*
X86685286Y-124309190D01*
X85780524Y-123785381D02*
X85161476Y-123785381D01*
X85494810Y-124166333D01*
X85351952Y-124166333D01*
X85256714Y-124213952D01*
X85209095Y-124261571D01*
X85161476Y-124356810D01*
X85161476Y-124594905D01*
X85209095Y-124690143D01*
X85256714Y-124737762D01*
X85351952Y-124785381D01*
X85637667Y-124785381D01*
X85732905Y-124737762D01*
X85780524Y-124690143D01*
X84209095Y-124785381D02*
X84780524Y-124785381D01*
X84494810Y-124785381D02*
X84494810Y-123785381D01*
X84590048Y-123928238D01*
X84685286Y-124023476D01*
X84780524Y-124071095D01*
X91257381Y-129151143D02*
X90781190Y-128817809D01*
X91257381Y-128579714D02*
X90257381Y-128579714D01*
X90257381Y-128960667D01*
X90305000Y-129055905D01*
X90352619Y-129103524D01*
X90447857Y-129151143D01*
X90590714Y-129151143D01*
X90685952Y-129103524D01*
X90733571Y-129055905D01*
X90781190Y-128960667D01*
X90781190Y-128579714D01*
X90257381Y-129484476D02*
X90257381Y-130103524D01*
X90638333Y-129770190D01*
X90638333Y-129913048D01*
X90685952Y-130008286D01*
X90733571Y-130055905D01*
X90828810Y-130103524D01*
X91066905Y-130103524D01*
X91162143Y-130055905D01*
X91209762Y-130008286D01*
X91257381Y-129913048D01*
X91257381Y-129627333D01*
X91209762Y-129532095D01*
X91162143Y-129484476D01*
X90352619Y-130484476D02*
X90305000Y-130532095D01*
X90257381Y-130627333D01*
X90257381Y-130865429D01*
X90305000Y-130960667D01*
X90352619Y-131008286D01*
X90447857Y-131055905D01*
X90543095Y-131055905D01*
X90685952Y-131008286D01*
X91257381Y-130436857D01*
X91257381Y-131055905D01*
X42384690Y-71683894D02*
X42718024Y-71207703D01*
X42956119Y-71683894D02*
X42956119Y-70683894D01*
X42575166Y-70683894D01*
X42479928Y-70731513D01*
X42432309Y-70779132D01*
X42384690Y-70874370D01*
X42384690Y-71017227D01*
X42432309Y-71112465D01*
X42479928Y-71160084D01*
X42575166Y-71207703D01*
X42956119Y-71207703D01*
X42051357Y-70683894D02*
X41432309Y-70683894D01*
X41765643Y-71064846D01*
X41622785Y-71064846D01*
X41527547Y-71112465D01*
X41479928Y-71160084D01*
X41432309Y-71255323D01*
X41432309Y-71493418D01*
X41479928Y-71588656D01*
X41527547Y-71636275D01*
X41622785Y-71683894D01*
X41908500Y-71683894D01*
X42003738Y-71636275D01*
X42051357Y-71588656D01*
X41098976Y-70683894D02*
X40479928Y-70683894D01*
X40813262Y-71064846D01*
X40670404Y-71064846D01*
X40575166Y-71112465D01*
X40527547Y-71160084D01*
X40479928Y-71255323D01*
X40479928Y-71493418D01*
X40527547Y-71588656D01*
X40575166Y-71636275D01*
X40670404Y-71683894D01*
X40956119Y-71683894D01*
X41051357Y-71636275D01*
X41098976Y-71588656D01*
X36800214Y-73447656D02*
X36324023Y-73114322D01*
X36800214Y-72876227D02*
X35800214Y-72876227D01*
X35800214Y-73257180D01*
X35847833Y-73352418D01*
X35895452Y-73400037D01*
X35990690Y-73447656D01*
X36133547Y-73447656D01*
X36228785Y-73400037D01*
X36276404Y-73352418D01*
X36324023Y-73257180D01*
X36324023Y-72876227D01*
X35800214Y-73780989D02*
X35800214Y-74400037D01*
X36181166Y-74066703D01*
X36181166Y-74209561D01*
X36228785Y-74304799D01*
X36276404Y-74352418D01*
X36371643Y-74400037D01*
X36609738Y-74400037D01*
X36704976Y-74352418D01*
X36752595Y-74304799D01*
X36800214Y-74209561D01*
X36800214Y-73923846D01*
X36752595Y-73828608D01*
X36704976Y-73780989D01*
X36133547Y-75257180D02*
X36800214Y-75257180D01*
X35752595Y-75019084D02*
X36466881Y-74780989D01*
X36466881Y-75400037D01*
X52649381Y-127119143D02*
X52173190Y-126785809D01*
X52649381Y-126547714D02*
X51649381Y-126547714D01*
X51649381Y-126928667D01*
X51697000Y-127023905D01*
X51744619Y-127071524D01*
X51839857Y-127119143D01*
X51982714Y-127119143D01*
X52077952Y-127071524D01*
X52125571Y-127023905D01*
X52173190Y-126928667D01*
X52173190Y-126547714D01*
X51982714Y-127976286D02*
X52649381Y-127976286D01*
X51601762Y-127738190D02*
X52316048Y-127500095D01*
X52316048Y-128119143D01*
X51649381Y-128690571D02*
X51649381Y-128785810D01*
X51697000Y-128881048D01*
X51744619Y-128928667D01*
X51839857Y-128976286D01*
X52030333Y-129023905D01*
X52268429Y-129023905D01*
X52458905Y-128976286D01*
X52554143Y-128928667D01*
X52601762Y-128881048D01*
X52649381Y-128785810D01*
X52649381Y-128690571D01*
X52601762Y-128595333D01*
X52554143Y-128547714D01*
X52458905Y-128500095D01*
X52268429Y-128452476D01*
X52030333Y-128452476D01*
X51839857Y-128500095D01*
X51744619Y-128547714D01*
X51697000Y-128595333D01*
X51649381Y-128690571D01*
X53728857Y-120467381D02*
X54062191Y-119991190D01*
X54300286Y-120467381D02*
X54300286Y-119467381D01*
X53919333Y-119467381D01*
X53824095Y-119515000D01*
X53776476Y-119562619D01*
X53728857Y-119657857D01*
X53728857Y-119800714D01*
X53776476Y-119895952D01*
X53824095Y-119943571D01*
X53919333Y-119991190D01*
X54300286Y-119991190D01*
X52871714Y-119800714D02*
X52871714Y-120467381D01*
X53109810Y-119419762D02*
X53347905Y-120134048D01*
X52728857Y-120134048D01*
X51824095Y-120467381D02*
X52395524Y-120467381D01*
X52109810Y-120467381D02*
X52109810Y-119467381D01*
X52205048Y-119610238D01*
X52300286Y-119705476D01*
X52395524Y-119753095D01*
X39258714Y-88381870D02*
X39115857Y-88429489D01*
X38877761Y-88429489D01*
X38782523Y-88381870D01*
X38734904Y-88334251D01*
X38687285Y-88239013D01*
X38687285Y-88143775D01*
X38734904Y-88048537D01*
X38782523Y-88000918D01*
X38877761Y-87953298D01*
X39068238Y-87905679D01*
X39163476Y-87858060D01*
X39211095Y-87810441D01*
X39258714Y-87715203D01*
X39258714Y-87619965D01*
X39211095Y-87524727D01*
X39163476Y-87477108D01*
X39068238Y-87429489D01*
X38830142Y-87429489D01*
X38687285Y-87477108D01*
X38258714Y-88429489D02*
X38258714Y-87429489D01*
X37687285Y-88429489D01*
X37687285Y-87429489D01*
X36782523Y-87429489D02*
X36973000Y-87429489D01*
X37068238Y-87477108D01*
X37115857Y-87524727D01*
X37211095Y-87667584D01*
X37258714Y-87858060D01*
X37258714Y-88239013D01*
X37211095Y-88334251D01*
X37163476Y-88381870D01*
X37068238Y-88429489D01*
X36877761Y-88429489D01*
X36782523Y-88381870D01*
X36734904Y-88334251D01*
X36687285Y-88239013D01*
X36687285Y-88000918D01*
X36734904Y-87905679D01*
X36782523Y-87858060D01*
X36877761Y-87810441D01*
X37068238Y-87810441D01*
X37163476Y-87858060D01*
X37211095Y-87905679D01*
X37258714Y-88000918D01*
X54841102Y-77486582D02*
X54698245Y-77534201D01*
X54460149Y-77534201D01*
X54364911Y-77486582D01*
X54317292Y-77438963D01*
X54269673Y-77343725D01*
X54269673Y-77248487D01*
X54317292Y-77153249D01*
X54364911Y-77105630D01*
X54460149Y-77058010D01*
X54650626Y-77010391D01*
X54745864Y-76962772D01*
X54793483Y-76915153D01*
X54841102Y-76819915D01*
X54841102Y-76724677D01*
X54793483Y-76629439D01*
X54745864Y-76581820D01*
X54650626Y-76534201D01*
X54412530Y-76534201D01*
X54269673Y-76581820D01*
X53841102Y-77534201D02*
X53841102Y-76534201D01*
X53269673Y-77534201D01*
X53269673Y-76534201D01*
X52888721Y-76534201D02*
X52222054Y-76534201D01*
X52650626Y-77534201D01*
X49207714Y-89905870D02*
X49064857Y-89953489D01*
X48826761Y-89953489D01*
X48731523Y-89905870D01*
X48683904Y-89858251D01*
X48636285Y-89763013D01*
X48636285Y-89667775D01*
X48683904Y-89572537D01*
X48731523Y-89524918D01*
X48826761Y-89477298D01*
X49017238Y-89429679D01*
X49112476Y-89382060D01*
X49160095Y-89334441D01*
X49207714Y-89239203D01*
X49207714Y-89143965D01*
X49160095Y-89048727D01*
X49112476Y-89001108D01*
X49017238Y-88953489D01*
X48779142Y-88953489D01*
X48636285Y-89001108D01*
X48207714Y-89953489D02*
X48207714Y-88953489D01*
X47636285Y-89953489D01*
X47636285Y-88953489D01*
X47017238Y-89382060D02*
X47112476Y-89334441D01*
X47160095Y-89286822D01*
X47207714Y-89191584D01*
X47207714Y-89143965D01*
X47160095Y-89048727D01*
X47112476Y-89001108D01*
X47017238Y-88953489D01*
X46826761Y-88953489D01*
X46731523Y-89001108D01*
X46683904Y-89048727D01*
X46636285Y-89143965D01*
X46636285Y-89191584D01*
X46683904Y-89286822D01*
X46731523Y-89334441D01*
X46826761Y-89382060D01*
X47017238Y-89382060D01*
X47112476Y-89429679D01*
X47160095Y-89477298D01*
X47207714Y-89572537D01*
X47207714Y-89763013D01*
X47160095Y-89858251D01*
X47112476Y-89905870D01*
X47017238Y-89953489D01*
X46826761Y-89953489D01*
X46731523Y-89905870D01*
X46683904Y-89858251D01*
X46636285Y-89763013D01*
X46636285Y-89572537D01*
X46683904Y-89477298D01*
X46731523Y-89429679D01*
X46826761Y-89382060D01*
X57381102Y-63008582D02*
X57238245Y-63056201D01*
X57000149Y-63056201D01*
X56904911Y-63008582D01*
X56857292Y-62960963D01*
X56809673Y-62865725D01*
X56809673Y-62770487D01*
X56857292Y-62675249D01*
X56904911Y-62627630D01*
X57000149Y-62580010D01*
X57190626Y-62532391D01*
X57285864Y-62484772D01*
X57333483Y-62437153D01*
X57381102Y-62341915D01*
X57381102Y-62246677D01*
X57333483Y-62151439D01*
X57285864Y-62103820D01*
X57190626Y-62056201D01*
X56952530Y-62056201D01*
X56809673Y-62103820D01*
X56381102Y-63056201D02*
X56381102Y-62056201D01*
X55809673Y-63056201D01*
X55809673Y-62056201D01*
X55285864Y-63056201D02*
X55095388Y-63056201D01*
X55000149Y-63008582D01*
X54952530Y-62960963D01*
X54857292Y-62818106D01*
X54809673Y-62627630D01*
X54809673Y-62246677D01*
X54857292Y-62151439D01*
X54904911Y-62103820D01*
X55000149Y-62056201D01*
X55190626Y-62056201D01*
X55285864Y-62103820D01*
X55333483Y-62151439D01*
X55381102Y-62246677D01*
X55381102Y-62484772D01*
X55333483Y-62580010D01*
X55285864Y-62627630D01*
X55190626Y-62675249D01*
X55000149Y-62675249D01*
X54904911Y-62627630D01*
X54857292Y-62580010D01*
X54809673Y-62484772D01*
X101633905Y-133407381D02*
X101633905Y-134216905D01*
X101586286Y-134312143D01*
X101538667Y-134359762D01*
X101443429Y-134407381D01*
X101252952Y-134407381D01*
X101157714Y-134359762D01*
X101110095Y-134312143D01*
X101062476Y-134216905D01*
X101062476Y-133407381D01*
X100681524Y-133407381D02*
X100062476Y-133407381D01*
X100395810Y-133788333D01*
X100252952Y-133788333D01*
X100157714Y-133835952D01*
X100110095Y-133883571D01*
X100062476Y-133978810D01*
X100062476Y-134216905D01*
X100110095Y-134312143D01*
X100157714Y-134359762D01*
X100252952Y-134407381D01*
X100538667Y-134407381D01*
X100633905Y-134359762D01*
X100681524Y-134312143D01*
X82803905Y-133487381D02*
X82803905Y-134296905D01*
X82756286Y-134392143D01*
X82708667Y-134439762D01*
X82613429Y-134487381D01*
X82422952Y-134487381D01*
X82327714Y-134439762D01*
X82280095Y-134392143D01*
X82232476Y-134296905D01*
X82232476Y-133487381D01*
X81280095Y-133487381D02*
X81756286Y-133487381D01*
X81803905Y-133963571D01*
X81756286Y-133915952D01*
X81661048Y-133868333D01*
X81422952Y-133868333D01*
X81327714Y-133915952D01*
X81280095Y-133963571D01*
X81232476Y-134058810D01*
X81232476Y-134296905D01*
X81280095Y-134392143D01*
X81327714Y-134439762D01*
X81422952Y-134487381D01*
X81661048Y-134487381D01*
X81756286Y-134439762D01*
X81803905Y-134392143D01*
X42468738Y-78048894D02*
X42468738Y-78858418D01*
X42421119Y-78953656D01*
X42373500Y-79001275D01*
X42278262Y-79048894D01*
X42087785Y-79048894D01*
X41992547Y-79001275D01*
X41944928Y-78953656D01*
X41897309Y-78858418D01*
X41897309Y-78048894D01*
X40992547Y-78048894D02*
X41183024Y-78048894D01*
X41278262Y-78096513D01*
X41325881Y-78144132D01*
X41421119Y-78286989D01*
X41468738Y-78477465D01*
X41468738Y-78858418D01*
X41421119Y-78953656D01*
X41373500Y-79001275D01*
X41278262Y-79048894D01*
X41087785Y-79048894D01*
X40992547Y-79001275D01*
X40944928Y-78953656D01*
X40897309Y-78858418D01*
X40897309Y-78620323D01*
X40944928Y-78525084D01*
X40992547Y-78477465D01*
X41087785Y-78429846D01*
X41278262Y-78429846D01*
X41373500Y-78477465D01*
X41421119Y-78525084D01*
X41468738Y-78620323D01*
M02*
