G04 #@! TF.FileFunction,Copper,L2,Inr,Mixed*
%FSLAX46Y46*%
G04 Gerber Fmt 4.6, Leading zero omitted, Abs format (unit mm)*
G04 Created by KiCad (PCBNEW 4.0.6) date 09/10/17 19:14:27*
%MOMM*%
%LPD*%
G01*
G04 APERTURE LIST*
%ADD10C,0.100000*%
%ADD11R,1.700000X1.700000*%
%ADD12O,1.700000X1.700000*%
%ADD13C,6.350000*%
%ADD14C,3.810000*%
%ADD15R,1.520000X1.520000*%
%ADD16C,1.520000*%
%ADD17C,8.100000*%
%ADD18C,1.778000*%
%ADD19C,1.998980*%
%ADD20C,1.400000*%
%ADD21O,1.400000X1.400000*%
%ADD22O,1.600000X1.200000*%
%ADD23O,1.200000X1.200000*%
%ADD24C,1.016000*%
%ADD25C,0.762000*%
%ADD26C,0.381000*%
%ADD27C,0.600000*%
%ADD28C,1.270000*%
%ADD29C,0.381000*%
%ADD30C,0.762000*%
%ADD31C,0.254000*%
G04 APERTURE END LIST*
D10*
D11*
X73660000Y-43180000D03*
D12*
X73660000Y-45720000D03*
X73660000Y-48260000D03*
X73660000Y-50800000D03*
X73660000Y-53340000D03*
X73660000Y-55880000D03*
D13*
X43180000Y-104648000D03*
X43180000Y-146050000D03*
D11*
X75565000Y-21590000D03*
D12*
X75565000Y-24130000D03*
X75565000Y-26670000D03*
D11*
X80166160Y-23806452D03*
D12*
X80166160Y-21266452D03*
X82706160Y-23806452D03*
X82706160Y-21266452D03*
X85246160Y-23806452D03*
X85246160Y-21266452D03*
X87786160Y-23806452D03*
X87786160Y-21266452D03*
X90326160Y-23806452D03*
X90326160Y-21266452D03*
X92866160Y-23806452D03*
X92866160Y-21266452D03*
X95406160Y-23806452D03*
X95406160Y-21266452D03*
X97946160Y-23806452D03*
X97946160Y-21266452D03*
X100486160Y-23806452D03*
X100486160Y-21266452D03*
X103026160Y-23806452D03*
X103026160Y-21266452D03*
X105566160Y-23806452D03*
X105566160Y-21266452D03*
X108106160Y-23806452D03*
X108106160Y-21266452D03*
X110646160Y-23806452D03*
X110646160Y-21266452D03*
X113186160Y-23806452D03*
X113186160Y-21266452D03*
X115726160Y-23806452D03*
X115726160Y-21266452D03*
X118266160Y-23806452D03*
X118266160Y-21266452D03*
X120806160Y-23806452D03*
X120806160Y-21266452D03*
X123346160Y-23806452D03*
X123346160Y-21266452D03*
X125886160Y-23806452D03*
X125886160Y-21266452D03*
X128426160Y-23806452D03*
X128426160Y-21266452D03*
D11*
X80010000Y-63500000D03*
D12*
X80010000Y-60960000D03*
X82550000Y-63500000D03*
X82550000Y-60960000D03*
X85090000Y-63500000D03*
X85090000Y-60960000D03*
X87630000Y-63500000D03*
X87630000Y-60960000D03*
X90170000Y-63500000D03*
X90170000Y-60960000D03*
X92710000Y-63500000D03*
X92710000Y-60960000D03*
X95250000Y-63500000D03*
X95250000Y-60960000D03*
X97790000Y-63500000D03*
X97790000Y-60960000D03*
X100330000Y-63500000D03*
X100330000Y-60960000D03*
X102870000Y-63500000D03*
X102870000Y-60960000D03*
X105410000Y-63500000D03*
X105410000Y-60960000D03*
X107950000Y-63500000D03*
X107950000Y-60960000D03*
X110490000Y-63500000D03*
X110490000Y-60960000D03*
X113030000Y-63500000D03*
X113030000Y-60960000D03*
X115570000Y-63500000D03*
X115570000Y-60960000D03*
X118110000Y-63500000D03*
X118110000Y-60960000D03*
X120650000Y-63500000D03*
X120650000Y-60960000D03*
X123190000Y-63500000D03*
X123190000Y-60960000D03*
X125730000Y-63500000D03*
X125730000Y-60960000D03*
X128270000Y-63500000D03*
X128270000Y-60960000D03*
D14*
X61980000Y-27305000D03*
X36580000Y-27305000D03*
D15*
X43690000Y-29845000D03*
D16*
X46480000Y-29845000D03*
X49150000Y-29845000D03*
X51950000Y-29845000D03*
X54740000Y-29845000D03*
X45090000Y-27305000D03*
X47880000Y-27305000D03*
X50550000Y-27305000D03*
X53340000Y-27305000D03*
D17*
X94615000Y-156845000D03*
X81915000Y-156845000D03*
D11*
X103886000Y-96901000D03*
D12*
X106426000Y-96901000D03*
X108966000Y-96901000D03*
D11*
X108966000Y-110617000D03*
D12*
X108966000Y-108077000D03*
X108966000Y-105537000D03*
X108966000Y-102997000D03*
X108966000Y-100457000D03*
D17*
X19050000Y-92075000D03*
X19050000Y-81915000D03*
D18*
X80166160Y-53016452D03*
X80166160Y-55556452D03*
X82706160Y-53016452D03*
X82706160Y-55556452D03*
X85246160Y-53016452D03*
X85246160Y-55556452D03*
X87786160Y-53016452D03*
X87786160Y-55556452D03*
X90326160Y-53016452D03*
X90326160Y-55556452D03*
X92866160Y-53016452D03*
X92866160Y-55556452D03*
X95406160Y-53016452D03*
X95406160Y-55556452D03*
X97946160Y-53016452D03*
X97946160Y-55556452D03*
X100486160Y-53016452D03*
X100486160Y-55556452D03*
X103026160Y-53016452D03*
X103026160Y-55556452D03*
X105566160Y-53016452D03*
X105566160Y-55556452D03*
X108106160Y-53016452D03*
X108106160Y-55556452D03*
X110646160Y-53016452D03*
X110646160Y-55556452D03*
X113186160Y-53016452D03*
X113186160Y-55556452D03*
X115726160Y-53016452D03*
X115726160Y-55556452D03*
X118266160Y-53016452D03*
X118266160Y-55556452D03*
X120806160Y-53016452D03*
X120806160Y-55556452D03*
X123346160Y-53016452D03*
X123346160Y-55556452D03*
X125886160Y-53016452D03*
X125886160Y-55556452D03*
X128426160Y-53016452D03*
X128426160Y-55556452D03*
X84476160Y-33236452D03*
X87016160Y-33236452D03*
X89556160Y-33236452D03*
X92096160Y-33236452D03*
X94636160Y-33236452D03*
X97176160Y-33236452D03*
D19*
X48260000Y-128905000D03*
X38100000Y-128905000D03*
X48260000Y-121920000D03*
X38100000Y-121920000D03*
D20*
X42418000Y-132334000D03*
D21*
X44318000Y-132334000D03*
D20*
X42418000Y-118745000D03*
D21*
X44318000Y-118745000D03*
D22*
X54197248Y-125697248D03*
D23*
X55052496Y-127762000D03*
X57117248Y-128617248D03*
X59182000Y-127762000D03*
X60037248Y-125697248D03*
X59182000Y-123632496D03*
X57117248Y-122777248D03*
X55052496Y-123632496D03*
D11*
X108077000Y-88011000D03*
D12*
X108077000Y-85471000D03*
X108077000Y-82931000D03*
X108077000Y-80391000D03*
X108077000Y-77851000D03*
D24*
X34925000Y-113538000D03*
X32258000Y-113538000D03*
X30861000Y-137287000D03*
X33528000Y-137287000D03*
X75692000Y-84709000D03*
X23622000Y-52959000D03*
X23622000Y-30480000D03*
X37592000Y-83312000D03*
X100838000Y-132715000D03*
X61976000Y-64262000D03*
X46355000Y-83566000D03*
X60960000Y-74041000D03*
X66548000Y-16891000D03*
X71120000Y-23114000D03*
X72136000Y-31750000D03*
X104267000Y-120904000D03*
X75565000Y-127889000D03*
D25*
X82457000Y-132080000D03*
X81627000Y-130890000D03*
D24*
X96419500Y-100176500D03*
X98144500Y-98451500D03*
X80010000Y-103378000D03*
X76835000Y-103378000D03*
X100965000Y-91059000D03*
X102074000Y-84501500D03*
X98886500Y-81314000D03*
X97663000Y-77978000D03*
X68961000Y-76200000D03*
D25*
X42094333Y-75071513D03*
X41319333Y-76311513D03*
D24*
X35433000Y-86995000D03*
X34290000Y-143510000D03*
X34671000Y-107315000D03*
X31115000Y-117094000D03*
X50673000Y-127254000D03*
X34417000Y-132715000D03*
X101473000Y-147193000D03*
X87757000Y-143764000D03*
X75438000Y-137668000D03*
X38989000Y-69469000D03*
X81280000Y-89535000D03*
X58420000Y-76835000D03*
X53594000Y-75946000D03*
X67564000Y-19685000D03*
X67564000Y-31369000D03*
X91694000Y-93726000D03*
X86487000Y-96393000D03*
X104394000Y-105029000D03*
X91821000Y-98933000D03*
X81280000Y-112776000D03*
X101346000Y-88519000D03*
X102235000Y-76200000D03*
X76200000Y-76581000D03*
X67564000Y-78867000D03*
X70104000Y-72898000D03*
X73025000Y-65151000D03*
X49911000Y-64770000D03*
X58420000Y-68707000D03*
X48485624Y-84730467D03*
X40640000Y-81407000D03*
X50800000Y-120396000D03*
D26*
X98679000Y-132842000D03*
X98679000Y-131572000D03*
X79883000Y-132715000D03*
X79883000Y-131572000D03*
D25*
X105029000Y-83566000D03*
X116840000Y-69215000D03*
X101219000Y-100838000D03*
D26*
X110109000Y-69342000D03*
X93980000Y-76200000D03*
X72771000Y-96393000D03*
X110236000Y-70739000D03*
X93091000Y-77216000D03*
X74041000Y-96774000D03*
X66675000Y-25400000D03*
D25*
X79629000Y-92316252D03*
X65405000Y-69596000D03*
X44958000Y-85090000D03*
X35560000Y-84201000D03*
X57422515Y-72058943D03*
X66929000Y-92316252D03*
X66929000Y-89141252D03*
X71374000Y-92316252D03*
X71374000Y-89141252D03*
X79629000Y-89141252D03*
X85344000Y-90411252D03*
X89789000Y-89535000D03*
X74676000Y-90424000D03*
X77724000Y-93472000D03*
X67183000Y-70993000D03*
X61341000Y-70993000D03*
X34925000Y-84836000D03*
X57238388Y-70985820D03*
X44958000Y-86493108D03*
X104504422Y-82770843D03*
X101037612Y-99570958D03*
X115062000Y-70358000D03*
D26*
X97790000Y-96012000D03*
X105918000Y-102743000D03*
X98552000Y-96012000D03*
X100330000Y-96520000D03*
X106807000Y-131953000D03*
X103632000Y-131318000D03*
X87884000Y-132080000D03*
X84836000Y-131421498D03*
X101854000Y-78232000D03*
X104521000Y-81661000D03*
X103601000Y-85725000D03*
X97663000Y-86487000D03*
X99822000Y-79121000D03*
X103505000Y-79883000D03*
D24*
X30480000Y-63500000D03*
X30480000Y-41783000D03*
X26797000Y-19431000D03*
D26*
X97028000Y-96266000D03*
X98171000Y-102489000D03*
X100280053Y-100593989D03*
X100330000Y-99060000D03*
X96520000Y-102870000D03*
D27*
X74930000Y-71120000D03*
X76200000Y-71120000D03*
X88900000Y-98552000D03*
D28*
X66548000Y-16891000D02*
X65829580Y-16891000D01*
X65829580Y-16891000D02*
X65067580Y-17653000D01*
X71120000Y-23114000D02*
X72390000Y-23114000D01*
X72600420Y-31369000D02*
X72517000Y-31369000D01*
X72517000Y-31369000D02*
X72136000Y-31750000D01*
X103548580Y-120904000D02*
X102489000Y-120904000D01*
X104267000Y-120904000D02*
X103548580Y-120904000D01*
X75565000Y-127889000D02*
X75565000Y-128607420D01*
X82457000Y-132080000D02*
X82457000Y-132876000D01*
X81627000Y-130890000D02*
X81627000Y-130082000D01*
X96419500Y-100176500D02*
X96419500Y-99213500D01*
X98144500Y-98451500D02*
X98144500Y-99160500D01*
X80010000Y-103378000D02*
X80010000Y-104096420D01*
X76835000Y-103378000D02*
X76835000Y-104096420D01*
X100965000Y-91059000D02*
X102362000Y-91059000D01*
X101646500Y-84501500D02*
X100330000Y-83185000D01*
X100330000Y-83185000D02*
X100330000Y-82296000D01*
X102074000Y-84501500D02*
X101646500Y-84501500D01*
X99348000Y-81314000D02*
X100330000Y-82296000D01*
X98886500Y-81314000D02*
X99348000Y-81314000D01*
X97663000Y-77978000D02*
X97663000Y-78696420D01*
X97663000Y-78696420D02*
X97536000Y-78823420D01*
X68961000Y-76200000D02*
X68242580Y-76200000D01*
X68242580Y-76200000D02*
X67607580Y-76835000D01*
D29*
X38989000Y-69469000D02*
X38989000Y-70993000D01*
X42094333Y-75071513D02*
X42094333Y-75876333D01*
X41319333Y-76311513D02*
X41319333Y-77006333D01*
D30*
X35433000Y-86995000D02*
X35433000Y-87713420D01*
X34290000Y-143510000D02*
X35433000Y-143510000D01*
X34671000Y-107315000D02*
X33147000Y-107315000D01*
D29*
X31115000Y-117094000D02*
X31115000Y-116332000D01*
D30*
X50673000Y-127254000D02*
X50673000Y-128016000D01*
D29*
X34417000Y-132715000D02*
X34925000Y-133223000D01*
D28*
X101473000Y-147193000D02*
X99695000Y-147193000D01*
X87757000Y-143764000D02*
X88519000Y-143002000D01*
D30*
X75438000Y-137668000D02*
X74676000Y-138430000D01*
D31*
G36*
X134012000Y-161798000D02*
X13462000Y-161798000D01*
X13462000Y-160199011D01*
X78740594Y-160199011D01*
X79211014Y-160782782D01*
X80923767Y-161517807D01*
X82787426Y-161541439D01*
X84518266Y-160850081D01*
X84618986Y-160782782D01*
X85089406Y-160199011D01*
X81915000Y-157024605D01*
X78740594Y-160199011D01*
X13462000Y-160199011D01*
X13462000Y-157717426D01*
X77218561Y-157717426D01*
X77909919Y-159448266D01*
X77977218Y-159548986D01*
X78560989Y-160019406D01*
X81735395Y-156845000D01*
X82094605Y-156845000D01*
X85269011Y-160019406D01*
X85852782Y-159548986D01*
X86587807Y-157836233D01*
X86588611Y-157772816D01*
X89929188Y-157772816D01*
X90640934Y-159495373D01*
X91957695Y-160814434D01*
X93679007Y-161529185D01*
X95542816Y-161530812D01*
X97265373Y-160819066D01*
X98584434Y-159502305D01*
X99299185Y-157780993D01*
X99300812Y-155917184D01*
X98589066Y-154194627D01*
X97272305Y-152875566D01*
X95550993Y-152160815D01*
X93687184Y-152159188D01*
X91964627Y-152870934D01*
X90645566Y-154187695D01*
X89930815Y-155909007D01*
X89929188Y-157772816D01*
X86588611Y-157772816D01*
X86611439Y-155972574D01*
X85920081Y-154241734D01*
X85852782Y-154141014D01*
X85269011Y-153670594D01*
X82094605Y-156845000D01*
X81735395Y-156845000D01*
X78560989Y-153670594D01*
X77977218Y-154141014D01*
X77242193Y-155853767D01*
X77218561Y-157717426D01*
X13462000Y-157717426D01*
X13462000Y-153490989D01*
X78740594Y-153490989D01*
X81915000Y-156665395D01*
X85089406Y-153490989D01*
X84618986Y-152907218D01*
X82906233Y-152172193D01*
X81042574Y-152148561D01*
X79311734Y-152839919D01*
X79211014Y-152907218D01*
X78740594Y-153490989D01*
X13462000Y-153490989D01*
X13462000Y-146804531D01*
X39369340Y-146804531D01*
X39948156Y-148205372D01*
X41018991Y-149278077D01*
X42418819Y-149859337D01*
X43934531Y-149860660D01*
X45335372Y-149281844D01*
X46408077Y-148211009D01*
X46989337Y-146811181D01*
X46990660Y-145295469D01*
X46411844Y-143894628D01*
X45341009Y-142821923D01*
X43941181Y-142240663D01*
X42425469Y-142239340D01*
X41024628Y-142818156D01*
X39951923Y-143888991D01*
X39370663Y-145288819D01*
X39369340Y-146804531D01*
X13462000Y-146804531D01*
X13462000Y-137513359D01*
X29717802Y-137513359D01*
X29891446Y-137933612D01*
X30212697Y-138255423D01*
X30632646Y-138429801D01*
X31087359Y-138430198D01*
X31507612Y-138256554D01*
X31829423Y-137935303D01*
X32003801Y-137515354D01*
X32003802Y-137513359D01*
X32384802Y-137513359D01*
X32558446Y-137933612D01*
X32879697Y-138255423D01*
X33299646Y-138429801D01*
X33754359Y-138430198D01*
X34174612Y-138256554D01*
X34496423Y-137935303D01*
X34670801Y-137515354D01*
X34671198Y-137060641D01*
X34497554Y-136640388D01*
X34176303Y-136318577D01*
X33756354Y-136144199D01*
X33301641Y-136143802D01*
X32881388Y-136317446D01*
X32559577Y-136638697D01*
X32385199Y-137058646D01*
X32384802Y-137513359D01*
X32003802Y-137513359D01*
X32004198Y-137060641D01*
X31830554Y-136640388D01*
X31509303Y-136318577D01*
X31089354Y-136144199D01*
X30634641Y-136143802D01*
X30214388Y-136317446D01*
X29892577Y-136638697D01*
X29718199Y-137058646D01*
X29717802Y-137513359D01*
X13462000Y-137513359D01*
X13462000Y-132598383D01*
X41082769Y-132598383D01*
X41285582Y-133089229D01*
X41660796Y-133465098D01*
X42151287Y-133668768D01*
X42682383Y-133669231D01*
X43173229Y-133466418D01*
X43356322Y-133283644D01*
X43780964Y-133567379D01*
X44291846Y-133669000D01*
X44344154Y-133669000D01*
X44855036Y-133567379D01*
X45288142Y-133277988D01*
X45577533Y-132844882D01*
X45679154Y-132334000D01*
X45577533Y-131823118D01*
X45518977Y-131735482D01*
X79057357Y-131735482D01*
X79182767Y-132038998D01*
X79287066Y-132143479D01*
X79183583Y-132246781D01*
X79057643Y-132550077D01*
X79057357Y-132878482D01*
X79182767Y-133181998D01*
X79414781Y-133414417D01*
X79718077Y-133540357D01*
X80046482Y-133540643D01*
X80349998Y-133415233D01*
X80582417Y-133183219D01*
X80708357Y-132879923D01*
X80708643Y-132551518D01*
X80583233Y-132248002D01*
X80478934Y-132143521D01*
X80582417Y-132040219D01*
X80708357Y-131736923D01*
X80708489Y-131584980D01*
X84010357Y-131584980D01*
X84135767Y-131888496D01*
X84367781Y-132120915D01*
X84671077Y-132246855D01*
X84999482Y-132247141D01*
X85008337Y-132243482D01*
X87058357Y-132243482D01*
X87183767Y-132546998D01*
X87415781Y-132779417D01*
X87719077Y-132905357D01*
X88047482Y-132905643D01*
X88350998Y-132780233D01*
X88583417Y-132548219D01*
X88709357Y-132244923D01*
X88709643Y-131916518D01*
X88634841Y-131735482D01*
X97853357Y-131735482D01*
X97978767Y-132038998D01*
X98146566Y-132207089D01*
X97979583Y-132373781D01*
X97853643Y-132677077D01*
X97853357Y-133005482D01*
X97978767Y-133308998D01*
X98210781Y-133541417D01*
X98514077Y-133667357D01*
X98842482Y-133667643D01*
X99145998Y-133542233D01*
X99378417Y-133310219D01*
X99504357Y-133006923D01*
X99504643Y-132678518D01*
X99379233Y-132375002D01*
X99211434Y-132206911D01*
X99378417Y-132040219D01*
X99504357Y-131736923D01*
X99504579Y-131481482D01*
X102806357Y-131481482D01*
X102931767Y-131784998D01*
X103163781Y-132017417D01*
X103467077Y-132143357D01*
X103795482Y-132143643D01*
X103861216Y-132116482D01*
X105981357Y-132116482D01*
X106106767Y-132419998D01*
X106338781Y-132652417D01*
X106642077Y-132778357D01*
X106970482Y-132778643D01*
X107273998Y-132653233D01*
X107506417Y-132421219D01*
X107632357Y-132117923D01*
X107632643Y-131789518D01*
X107507233Y-131486002D01*
X107275219Y-131253583D01*
X106971923Y-131127643D01*
X106643518Y-131127357D01*
X106340002Y-131252767D01*
X106107583Y-131484781D01*
X105981643Y-131788077D01*
X105981357Y-132116482D01*
X103861216Y-132116482D01*
X104098998Y-132018233D01*
X104331417Y-131786219D01*
X104457357Y-131482923D01*
X104457643Y-131154518D01*
X104332233Y-130851002D01*
X104100219Y-130618583D01*
X103796923Y-130492643D01*
X103468518Y-130492357D01*
X103165002Y-130617767D01*
X102932583Y-130849781D01*
X102806643Y-131153077D01*
X102806357Y-131481482D01*
X99504579Y-131481482D01*
X99504643Y-131408518D01*
X99379233Y-131105002D01*
X99147219Y-130872583D01*
X98843923Y-130746643D01*
X98515518Y-130746357D01*
X98212002Y-130871767D01*
X97979583Y-131103781D01*
X97853643Y-131407077D01*
X97853357Y-131735482D01*
X88634841Y-131735482D01*
X88584233Y-131613002D01*
X88352219Y-131380583D01*
X88048923Y-131254643D01*
X87720518Y-131254357D01*
X87417002Y-131379767D01*
X87184583Y-131611781D01*
X87058643Y-131915077D01*
X87058357Y-132243482D01*
X85008337Y-132243482D01*
X85302998Y-132121731D01*
X85535417Y-131889717D01*
X85661357Y-131586421D01*
X85661643Y-131258016D01*
X85536233Y-130954500D01*
X85304219Y-130722081D01*
X85000923Y-130596141D01*
X84672518Y-130595855D01*
X84369002Y-130721265D01*
X84136583Y-130953279D01*
X84010643Y-131256575D01*
X84010357Y-131584980D01*
X80708489Y-131584980D01*
X80708643Y-131408518D01*
X80583233Y-131105002D01*
X80351219Y-130872583D01*
X80047923Y-130746643D01*
X79719518Y-130746357D01*
X79416002Y-130871767D01*
X79183583Y-131103781D01*
X79057643Y-131407077D01*
X79057357Y-131735482D01*
X45518977Y-131735482D01*
X45288142Y-131390012D01*
X44855036Y-131100621D01*
X44344154Y-130999000D01*
X44291846Y-130999000D01*
X43780964Y-131100621D01*
X43356334Y-131384348D01*
X43175204Y-131202902D01*
X42684713Y-130999232D01*
X42153617Y-130998769D01*
X41662771Y-131201582D01*
X41286902Y-131576796D01*
X41083232Y-132067287D01*
X41082769Y-132598383D01*
X13462000Y-132598383D01*
X13462000Y-130057163D01*
X37127443Y-130057163D01*
X37226042Y-130323965D01*
X37835582Y-130550401D01*
X38485377Y-130526341D01*
X38973958Y-130323965D01*
X39072557Y-130057163D01*
X38100000Y-129084605D01*
X37127443Y-130057163D01*
X13462000Y-130057163D01*
X13462000Y-128640582D01*
X36454599Y-128640582D01*
X36478659Y-129290377D01*
X36681035Y-129778958D01*
X36947837Y-129877557D01*
X37920395Y-128905000D01*
X38279605Y-128905000D01*
X39252163Y-129877557D01*
X39518965Y-129778958D01*
X39723380Y-129228694D01*
X46625226Y-129228694D01*
X46873538Y-129829655D01*
X47332927Y-130289846D01*
X47933453Y-130539206D01*
X48583694Y-130539774D01*
X49184655Y-130291462D01*
X49644846Y-129832073D01*
X49894206Y-129231547D01*
X49894774Y-128581306D01*
X49646462Y-127980345D01*
X49187073Y-127520154D01*
X48586547Y-127270794D01*
X47936306Y-127270226D01*
X47335345Y-127518538D01*
X46875154Y-127977927D01*
X46625794Y-128578453D01*
X46625226Y-129228694D01*
X39723380Y-129228694D01*
X39745401Y-129169418D01*
X39721341Y-128519623D01*
X39518965Y-128031042D01*
X39252163Y-127932443D01*
X38279605Y-128905000D01*
X37920395Y-128905000D01*
X36947837Y-127932443D01*
X36681035Y-128031042D01*
X36454599Y-128640582D01*
X13462000Y-128640582D01*
X13462000Y-127752837D01*
X37127443Y-127752837D01*
X38100000Y-128725395D01*
X39072557Y-127752837D01*
X38973958Y-127486035D01*
X38364418Y-127259599D01*
X37714623Y-127283659D01*
X37226042Y-127486035D01*
X37127443Y-127752837D01*
X13462000Y-127752837D01*
X13462000Y-125697248D01*
X52734135Y-125697248D01*
X52828144Y-126169862D01*
X53095858Y-126570525D01*
X53496521Y-126838239D01*
X53969135Y-126932248D01*
X54125942Y-126932248D01*
X53887310Y-127289386D01*
X53793301Y-127762000D01*
X53887310Y-128234614D01*
X54155024Y-128635277D01*
X54555687Y-128902991D01*
X55028301Y-128997000D01*
X55076691Y-128997000D01*
X55549305Y-128902991D01*
X55872002Y-128687372D01*
X55952062Y-129089862D01*
X56219776Y-129490525D01*
X56620439Y-129758239D01*
X57093053Y-129852248D01*
X57141443Y-129852248D01*
X57614057Y-129758239D01*
X58014720Y-129490525D01*
X58282434Y-129089862D01*
X58366242Y-128668532D01*
X58431844Y-128743080D01*
X58864389Y-128955472D01*
X59055000Y-128831714D01*
X59055000Y-127889000D01*
X59309000Y-127889000D01*
X59309000Y-128831714D01*
X59499611Y-128955472D01*
X59932156Y-128743080D01*
X60250497Y-128381327D01*
X60375462Y-128079609D01*
X60250731Y-127889000D01*
X59309000Y-127889000D01*
X59055000Y-127889000D01*
X59035000Y-127889000D01*
X59035000Y-127635000D01*
X59055000Y-127635000D01*
X59055000Y-127615000D01*
X59309000Y-127615000D01*
X59309000Y-127635000D01*
X60250731Y-127635000D01*
X60375462Y-127444391D01*
X60250497Y-127142673D01*
X60064746Y-126931591D01*
X60534057Y-126838239D01*
X60934720Y-126570525D01*
X61202434Y-126169862D01*
X61296443Y-125697248D01*
X61202434Y-125224634D01*
X60934720Y-124823971D01*
X60534057Y-124556257D01*
X60103027Y-124470520D01*
X60347186Y-124105110D01*
X60441195Y-123632496D01*
X60347186Y-123159882D01*
X60079472Y-122759219D01*
X59678809Y-122491505D01*
X59206195Y-122397496D01*
X59157805Y-122397496D01*
X58685191Y-122491505D01*
X58362494Y-122707124D01*
X58282434Y-122304634D01*
X58014720Y-121903971D01*
X57614057Y-121636257D01*
X57141443Y-121542248D01*
X57093053Y-121542248D01*
X56620439Y-121636257D01*
X56219776Y-121903971D01*
X55952062Y-122304634D01*
X55872002Y-122707124D01*
X55549305Y-122491505D01*
X55076691Y-122397496D01*
X55028301Y-122397496D01*
X54555687Y-122491505D01*
X54155024Y-122759219D01*
X53887310Y-123159882D01*
X53793301Y-123632496D01*
X53887310Y-124105110D01*
X54125942Y-124462248D01*
X53969135Y-124462248D01*
X53496521Y-124556257D01*
X53095858Y-124823971D01*
X52828144Y-125224634D01*
X52734135Y-125697248D01*
X13462000Y-125697248D01*
X13462000Y-123072163D01*
X37127443Y-123072163D01*
X37226042Y-123338965D01*
X37835582Y-123565401D01*
X38485377Y-123541341D01*
X38973958Y-123338965D01*
X39072557Y-123072163D01*
X38100000Y-122099605D01*
X37127443Y-123072163D01*
X13462000Y-123072163D01*
X13462000Y-121655582D01*
X36454599Y-121655582D01*
X36478659Y-122305377D01*
X36681035Y-122793958D01*
X36947837Y-122892557D01*
X37920395Y-121920000D01*
X38279605Y-121920000D01*
X39252163Y-122892557D01*
X39518965Y-122793958D01*
X39723380Y-122243694D01*
X46625226Y-122243694D01*
X46873538Y-122844655D01*
X47332927Y-123304846D01*
X47933453Y-123554206D01*
X48583694Y-123554774D01*
X49184655Y-123306462D01*
X49644846Y-122847073D01*
X49894206Y-122246547D01*
X49894774Y-121596306D01*
X49646462Y-120995345D01*
X49274127Y-120622359D01*
X49656802Y-120622359D01*
X49830446Y-121042612D01*
X50151697Y-121364423D01*
X50571646Y-121538801D01*
X51026359Y-121539198D01*
X51446612Y-121365554D01*
X51768423Y-121044303D01*
X51942801Y-120624354D01*
X51943198Y-120169641D01*
X51769554Y-119749388D01*
X51448303Y-119427577D01*
X51028354Y-119253199D01*
X50573641Y-119252802D01*
X50153388Y-119426446D01*
X49831577Y-119747697D01*
X49657199Y-120167646D01*
X49656802Y-120622359D01*
X49274127Y-120622359D01*
X49187073Y-120535154D01*
X48586547Y-120285794D01*
X47936306Y-120285226D01*
X47335345Y-120533538D01*
X46875154Y-120992927D01*
X46625794Y-121593453D01*
X46625226Y-122243694D01*
X39723380Y-122243694D01*
X39745401Y-122184418D01*
X39721341Y-121534623D01*
X39518965Y-121046042D01*
X39252163Y-120947443D01*
X38279605Y-121920000D01*
X37920395Y-121920000D01*
X36947837Y-120947443D01*
X36681035Y-121046042D01*
X36454599Y-121655582D01*
X13462000Y-121655582D01*
X13462000Y-120767837D01*
X37127443Y-120767837D01*
X38100000Y-121740395D01*
X39072557Y-120767837D01*
X38973958Y-120501035D01*
X38364418Y-120274599D01*
X37714623Y-120298659D01*
X37226042Y-120501035D01*
X37127443Y-120767837D01*
X13462000Y-120767837D01*
X13462000Y-119009383D01*
X41082769Y-119009383D01*
X41285582Y-119500229D01*
X41660796Y-119876098D01*
X42151287Y-120079768D01*
X42682383Y-120080231D01*
X43173229Y-119877418D01*
X43356322Y-119694644D01*
X43780964Y-119978379D01*
X44291846Y-120080000D01*
X44344154Y-120080000D01*
X44855036Y-119978379D01*
X45288142Y-119688988D01*
X45577533Y-119255882D01*
X45679154Y-118745000D01*
X45577533Y-118234118D01*
X45288142Y-117801012D01*
X44855036Y-117511621D01*
X44344154Y-117410000D01*
X44291846Y-117410000D01*
X43780964Y-117511621D01*
X43356334Y-117795348D01*
X43175204Y-117613902D01*
X42684713Y-117410232D01*
X42153617Y-117409769D01*
X41662771Y-117612582D01*
X41286902Y-117987796D01*
X41083232Y-118478287D01*
X41082769Y-119009383D01*
X13462000Y-119009383D01*
X13462000Y-113764359D01*
X31114802Y-113764359D01*
X31288446Y-114184612D01*
X31609697Y-114506423D01*
X32029646Y-114680801D01*
X32484359Y-114681198D01*
X32904612Y-114507554D01*
X33226423Y-114186303D01*
X33400801Y-113766354D01*
X33400802Y-113764359D01*
X33781802Y-113764359D01*
X33955446Y-114184612D01*
X34276697Y-114506423D01*
X34696646Y-114680801D01*
X35151359Y-114681198D01*
X35571612Y-114507554D01*
X35893423Y-114186303D01*
X36067801Y-113766354D01*
X36068198Y-113311641D01*
X35940407Y-113002359D01*
X80136802Y-113002359D01*
X80310446Y-113422612D01*
X80631697Y-113744423D01*
X81051646Y-113918801D01*
X81506359Y-113919198D01*
X81926612Y-113745554D01*
X82248423Y-113424303D01*
X82422801Y-113004354D01*
X82423198Y-112549641D01*
X82249554Y-112129388D01*
X81928303Y-111807577D01*
X81508354Y-111633199D01*
X81053641Y-111632802D01*
X80633388Y-111806446D01*
X80311577Y-112127697D01*
X80137199Y-112547646D01*
X80136802Y-113002359D01*
X35940407Y-113002359D01*
X35894554Y-112891388D01*
X35573303Y-112569577D01*
X35153354Y-112395199D01*
X34698641Y-112394802D01*
X34278388Y-112568446D01*
X33956577Y-112889697D01*
X33782199Y-113309646D01*
X33781802Y-113764359D01*
X33400802Y-113764359D01*
X33401198Y-113311641D01*
X33227554Y-112891388D01*
X32906303Y-112569577D01*
X32486354Y-112395199D01*
X32031641Y-112394802D01*
X31611388Y-112568446D01*
X31289577Y-112889697D01*
X31115199Y-113309646D01*
X31114802Y-113764359D01*
X13462000Y-113764359D01*
X13462000Y-105402531D01*
X39369340Y-105402531D01*
X39948156Y-106803372D01*
X41018991Y-107876077D01*
X42418819Y-108457337D01*
X43934531Y-108458660D01*
X45335372Y-107879844D01*
X46408077Y-106809009D01*
X46989337Y-105409181D01*
X46989471Y-105255359D01*
X103250802Y-105255359D01*
X103424446Y-105675612D01*
X103745697Y-105997423D01*
X104165646Y-106171801D01*
X104620359Y-106172198D01*
X105040612Y-105998554D01*
X105362423Y-105677303D01*
X105536801Y-105257354D01*
X105537198Y-104802641D01*
X105363554Y-104382388D01*
X105042303Y-104060577D01*
X104622354Y-103886199D01*
X104167641Y-103885802D01*
X103747388Y-104059446D01*
X103425577Y-104380697D01*
X103251199Y-104800646D01*
X103250802Y-105255359D01*
X46989471Y-105255359D01*
X46990660Y-103893469D01*
X46635321Y-103033482D01*
X95694357Y-103033482D01*
X95819767Y-103336998D01*
X96051781Y-103569417D01*
X96355077Y-103695357D01*
X96683482Y-103695643D01*
X96986998Y-103570233D01*
X97219417Y-103338219D01*
X97345357Y-103034923D01*
X97345643Y-102706518D01*
X97323316Y-102652482D01*
X97345357Y-102652482D01*
X97470767Y-102955998D01*
X97702781Y-103188417D01*
X98006077Y-103314357D01*
X98334482Y-103314643D01*
X98637998Y-103189233D01*
X98870417Y-102957219D01*
X98891484Y-102906482D01*
X105092357Y-102906482D01*
X105217767Y-103209998D01*
X105449781Y-103442417D01*
X105753077Y-103568357D01*
X106081482Y-103568643D01*
X106384998Y-103443233D01*
X106617417Y-103211219D01*
X106743357Y-102907923D01*
X106743643Y-102579518D01*
X106618233Y-102276002D01*
X106386219Y-102043583D01*
X106082923Y-101917643D01*
X105754518Y-101917357D01*
X105451002Y-102042767D01*
X105218583Y-102274781D01*
X105092643Y-102578077D01*
X105092357Y-102906482D01*
X98891484Y-102906482D01*
X98996357Y-102653923D01*
X98996643Y-102325518D01*
X98871233Y-102022002D01*
X98639219Y-101789583D01*
X98335923Y-101663643D01*
X98007518Y-101663357D01*
X97704002Y-101788767D01*
X97471583Y-102020781D01*
X97345643Y-102324077D01*
X97345357Y-102652482D01*
X97323316Y-102652482D01*
X97220233Y-102403002D01*
X96988219Y-102170583D01*
X96684923Y-102044643D01*
X96356518Y-102044357D01*
X96053002Y-102169767D01*
X95820583Y-102401781D01*
X95694643Y-102705077D01*
X95694357Y-103033482D01*
X46635321Y-103033482D01*
X46411844Y-102492628D01*
X45341009Y-101419923D01*
X43941181Y-100838663D01*
X42425469Y-100837340D01*
X41024628Y-101416156D01*
X39951923Y-102486991D01*
X39370663Y-103886819D01*
X39369340Y-105402531D01*
X13462000Y-105402531D01*
X13462000Y-100757471D01*
X99454410Y-100757471D01*
X99579820Y-101060987D01*
X99811834Y-101293406D01*
X100115130Y-101419346D01*
X100363960Y-101419563D01*
X100642731Y-101698821D01*
X101016018Y-101853824D01*
X101420208Y-101854176D01*
X101793766Y-101699825D01*
X102079821Y-101414269D01*
X102234824Y-101040982D01*
X102235176Y-100636792D01*
X102160888Y-100457000D01*
X107451907Y-100457000D01*
X107564946Y-101025285D01*
X107886853Y-101507054D01*
X108216026Y-101727000D01*
X107886853Y-101946946D01*
X107564946Y-102428715D01*
X107451907Y-102997000D01*
X107564946Y-103565285D01*
X107886853Y-104047054D01*
X108216026Y-104267000D01*
X107886853Y-104486946D01*
X107564946Y-104968715D01*
X107451907Y-105537000D01*
X107564946Y-106105285D01*
X107886853Y-106587054D01*
X108216026Y-106807000D01*
X107886853Y-107026946D01*
X107564946Y-107508715D01*
X107451907Y-108077000D01*
X107564946Y-108645285D01*
X107886853Y-109127054D01*
X107928452Y-109154850D01*
X107880683Y-109163838D01*
X107664559Y-109302910D01*
X107519569Y-109515110D01*
X107468560Y-109767000D01*
X107468560Y-111467000D01*
X107512838Y-111702317D01*
X107651910Y-111918441D01*
X107864110Y-112063431D01*
X108116000Y-112114440D01*
X109816000Y-112114440D01*
X110051317Y-112070162D01*
X110267441Y-111931090D01*
X110412431Y-111718890D01*
X110463440Y-111467000D01*
X110463440Y-109767000D01*
X110419162Y-109531683D01*
X110280090Y-109315559D01*
X110067890Y-109170569D01*
X110000459Y-109156914D01*
X110045147Y-109127054D01*
X110367054Y-108645285D01*
X110480093Y-108077000D01*
X110367054Y-107508715D01*
X110045147Y-107026946D01*
X109715974Y-106807000D01*
X110045147Y-106587054D01*
X110367054Y-106105285D01*
X110480093Y-105537000D01*
X110367054Y-104968715D01*
X110045147Y-104486946D01*
X109715974Y-104267000D01*
X110045147Y-104047054D01*
X110367054Y-103565285D01*
X110480093Y-102997000D01*
X110367054Y-102428715D01*
X110045147Y-101946946D01*
X109715974Y-101727000D01*
X110045147Y-101507054D01*
X110367054Y-101025285D01*
X110480093Y-100457000D01*
X110367054Y-99888715D01*
X110045147Y-99406946D01*
X109563378Y-99085039D01*
X108995093Y-98972000D01*
X108936907Y-98972000D01*
X108368622Y-99085039D01*
X107886853Y-99406946D01*
X107564946Y-99888715D01*
X107451907Y-100457000D01*
X102160888Y-100457000D01*
X102080825Y-100263234D01*
X101917994Y-100100119D01*
X102053436Y-99773940D01*
X102053788Y-99369750D01*
X101899437Y-98996192D01*
X101613881Y-98710137D01*
X101240594Y-98555134D01*
X100992215Y-98554918D01*
X100798219Y-98360583D01*
X100494923Y-98234643D01*
X100166518Y-98234357D01*
X99863002Y-98359767D01*
X99630583Y-98591781D01*
X99504643Y-98895077D01*
X99504357Y-99223482D01*
X99629767Y-99526998D01*
X99861781Y-99759417D01*
X99999639Y-99816661D01*
X99813055Y-99893756D01*
X99580636Y-100125770D01*
X99454696Y-100429066D01*
X99454410Y-100757471D01*
X13462000Y-100757471D01*
X13462000Y-98737167D01*
X87964838Y-98737167D01*
X88106883Y-99080943D01*
X88369673Y-99344192D01*
X88713201Y-99486838D01*
X89085167Y-99487162D01*
X89428943Y-99345117D01*
X89615025Y-99159359D01*
X90677802Y-99159359D01*
X90851446Y-99579612D01*
X91172697Y-99901423D01*
X91592646Y-100075801D01*
X92047359Y-100076198D01*
X92467612Y-99902554D01*
X92789423Y-99581303D01*
X92963801Y-99161354D01*
X92964198Y-98706641D01*
X92790554Y-98286388D01*
X92469303Y-97964577D01*
X92049354Y-97790199D01*
X91594641Y-97789802D01*
X91174388Y-97963446D01*
X90852577Y-98284697D01*
X90678199Y-98704646D01*
X90677802Y-99159359D01*
X89615025Y-99159359D01*
X89692192Y-99082327D01*
X89834838Y-98738799D01*
X89835162Y-98366833D01*
X89693117Y-98023057D01*
X89430327Y-97759808D01*
X89086799Y-97617162D01*
X88714833Y-97616838D01*
X88371057Y-97758883D01*
X88107808Y-98021673D01*
X87965162Y-98365201D01*
X87964838Y-98737167D01*
X13462000Y-98737167D01*
X13462000Y-93002816D01*
X14364188Y-93002816D01*
X15075934Y-94725373D01*
X16392695Y-96044434D01*
X18114007Y-96759185D01*
X19977816Y-96760812D01*
X20472332Y-96556482D01*
X71945357Y-96556482D01*
X72070767Y-96859998D01*
X72302781Y-97092417D01*
X72606077Y-97218357D01*
X72934482Y-97218643D01*
X73237998Y-97093233D01*
X73267531Y-97063752D01*
X73340767Y-97240998D01*
X73572781Y-97473417D01*
X73876077Y-97599357D01*
X74204482Y-97599643D01*
X74507998Y-97474233D01*
X74740417Y-97242219D01*
X74866357Y-96938923D01*
X74866635Y-96619359D01*
X85343802Y-96619359D01*
X85517446Y-97039612D01*
X85838697Y-97361423D01*
X86258646Y-97535801D01*
X86713359Y-97536198D01*
X87133612Y-97362554D01*
X87455423Y-97041303D01*
X87629801Y-96621354D01*
X87629968Y-96429482D01*
X96202357Y-96429482D01*
X96327767Y-96732998D01*
X96559781Y-96965417D01*
X96863077Y-97091357D01*
X97191482Y-97091643D01*
X97494998Y-96966233D01*
X97624386Y-96837070D01*
X97625077Y-96837357D01*
X97953482Y-96837643D01*
X98171160Y-96747700D01*
X98387077Y-96837357D01*
X98715482Y-96837643D01*
X99018998Y-96712233D01*
X99047799Y-96683482D01*
X99504357Y-96683482D01*
X99629767Y-96986998D01*
X99861781Y-97219417D01*
X100165077Y-97345357D01*
X100493482Y-97345643D01*
X100796998Y-97220233D01*
X100830539Y-97186750D01*
X102401000Y-97186750D01*
X102401000Y-97877309D01*
X102497673Y-98110698D01*
X102676301Y-98289327D01*
X102909690Y-98386000D01*
X103600250Y-98386000D01*
X103759000Y-98227250D01*
X103759000Y-97028000D01*
X102559750Y-97028000D01*
X102401000Y-97186750D01*
X100830539Y-97186750D01*
X101029417Y-96988219D01*
X101155357Y-96684923D01*
X101155643Y-96356518D01*
X101030233Y-96053002D01*
X100902146Y-95924691D01*
X102401000Y-95924691D01*
X102401000Y-96615250D01*
X102559750Y-96774000D01*
X103759000Y-96774000D01*
X103759000Y-95574750D01*
X104013000Y-95574750D01*
X104013000Y-96774000D01*
X104033000Y-96774000D01*
X104033000Y-97028000D01*
X104013000Y-97028000D01*
X104013000Y-98227250D01*
X104171750Y-98386000D01*
X104862310Y-98386000D01*
X105095699Y-98289327D01*
X105274327Y-98110698D01*
X105346597Y-97936223D01*
X105375946Y-97980147D01*
X105857715Y-98302054D01*
X106426000Y-98415093D01*
X106994285Y-98302054D01*
X107476054Y-97980147D01*
X107696000Y-97650974D01*
X107915946Y-97980147D01*
X108397715Y-98302054D01*
X108966000Y-98415093D01*
X109534285Y-98302054D01*
X110016054Y-97980147D01*
X110337961Y-97498378D01*
X110451000Y-96930093D01*
X110451000Y-96871907D01*
X110337961Y-96303622D01*
X110016054Y-95821853D01*
X109534285Y-95499946D01*
X108966000Y-95386907D01*
X108397715Y-95499946D01*
X107915946Y-95821853D01*
X107696000Y-96151026D01*
X107476054Y-95821853D01*
X106994285Y-95499946D01*
X106426000Y-95386907D01*
X105857715Y-95499946D01*
X105375946Y-95821853D01*
X105346597Y-95865777D01*
X105274327Y-95691302D01*
X105095699Y-95512673D01*
X104862310Y-95416000D01*
X104171750Y-95416000D01*
X104013000Y-95574750D01*
X103759000Y-95574750D01*
X103600250Y-95416000D01*
X102909690Y-95416000D01*
X102676301Y-95512673D01*
X102497673Y-95691302D01*
X102401000Y-95924691D01*
X100902146Y-95924691D01*
X100798219Y-95820583D01*
X100494923Y-95694643D01*
X100166518Y-95694357D01*
X99863002Y-95819767D01*
X99630583Y-96051781D01*
X99504643Y-96355077D01*
X99504357Y-96683482D01*
X99047799Y-96683482D01*
X99251417Y-96480219D01*
X99377357Y-96176923D01*
X99377643Y-95848518D01*
X99252233Y-95545002D01*
X99020219Y-95312583D01*
X98716923Y-95186643D01*
X98388518Y-95186357D01*
X98170840Y-95276300D01*
X97954923Y-95186643D01*
X97626518Y-95186357D01*
X97323002Y-95311767D01*
X97193614Y-95440930D01*
X97192923Y-95440643D01*
X96864518Y-95440357D01*
X96561002Y-95565767D01*
X96328583Y-95797781D01*
X96202643Y-96101077D01*
X96202357Y-96429482D01*
X87629968Y-96429482D01*
X87630198Y-96166641D01*
X87456554Y-95746388D01*
X87135303Y-95424577D01*
X86715354Y-95250199D01*
X86260641Y-95249802D01*
X85840388Y-95423446D01*
X85518577Y-95744697D01*
X85344199Y-96164646D01*
X85343802Y-96619359D01*
X74866635Y-96619359D01*
X74866643Y-96610518D01*
X74741233Y-96307002D01*
X74509219Y-96074583D01*
X74205923Y-95948643D01*
X73877518Y-95948357D01*
X73574002Y-96073767D01*
X73544469Y-96103248D01*
X73471233Y-95926002D01*
X73239219Y-95693583D01*
X72935923Y-95567643D01*
X72607518Y-95567357D01*
X72304002Y-95692767D01*
X72071583Y-95924781D01*
X71945643Y-96228077D01*
X71945357Y-96556482D01*
X20472332Y-96556482D01*
X21700373Y-96049066D01*
X23019434Y-94732305D01*
X23459209Y-93673208D01*
X76707824Y-93673208D01*
X76862175Y-94046766D01*
X77147731Y-94332821D01*
X77521018Y-94487824D01*
X77925208Y-94488176D01*
X78298766Y-94333825D01*
X78584821Y-94048269D01*
X78624646Y-93952359D01*
X90550802Y-93952359D01*
X90724446Y-94372612D01*
X91045697Y-94694423D01*
X91465646Y-94868801D01*
X91920359Y-94869198D01*
X92340612Y-94695554D01*
X92662423Y-94374303D01*
X92836801Y-93954354D01*
X92837198Y-93499641D01*
X92663554Y-93079388D01*
X92342303Y-92757577D01*
X91922354Y-92583199D01*
X91467641Y-92582802D01*
X91047388Y-92756446D01*
X90725577Y-93077697D01*
X90551199Y-93497646D01*
X90550802Y-93952359D01*
X78624646Y-93952359D01*
X78739824Y-93674982D01*
X78740176Y-93270792D01*
X78585825Y-92897234D01*
X78300269Y-92611179D01*
X78074570Y-92517460D01*
X78612824Y-92517460D01*
X78767175Y-92891018D01*
X79052731Y-93177073D01*
X79426018Y-93332076D01*
X79830208Y-93332428D01*
X80203766Y-93178077D01*
X80489821Y-92892521D01*
X80644824Y-92519234D01*
X80645176Y-92115044D01*
X80490825Y-91741486D01*
X80205269Y-91455431D01*
X79831982Y-91300428D01*
X79427792Y-91300076D01*
X79054234Y-91454427D01*
X78768179Y-91739983D01*
X78613176Y-92113270D01*
X78612824Y-92517460D01*
X78074570Y-92517460D01*
X77926982Y-92456176D01*
X77522792Y-92455824D01*
X77149234Y-92610175D01*
X76863179Y-92895731D01*
X76708176Y-93269018D01*
X76707824Y-93673208D01*
X23459209Y-93673208D01*
X23734185Y-93010993D01*
X23734615Y-92517460D01*
X65912824Y-92517460D01*
X66067175Y-92891018D01*
X66352731Y-93177073D01*
X66726018Y-93332076D01*
X67130208Y-93332428D01*
X67503766Y-93178077D01*
X67789821Y-92892521D01*
X67944824Y-92519234D01*
X67944825Y-92517460D01*
X70357824Y-92517460D01*
X70512175Y-92891018D01*
X70797731Y-93177073D01*
X71171018Y-93332076D01*
X71575208Y-93332428D01*
X71948766Y-93178077D01*
X72234821Y-92892521D01*
X72389824Y-92519234D01*
X72390176Y-92115044D01*
X72235825Y-91741486D01*
X71950269Y-91455431D01*
X71576982Y-91300428D01*
X71172792Y-91300076D01*
X70799234Y-91454427D01*
X70513179Y-91739983D01*
X70358176Y-92113270D01*
X70357824Y-92517460D01*
X67944825Y-92517460D01*
X67945176Y-92115044D01*
X67790825Y-91741486D01*
X67505269Y-91455431D01*
X67131982Y-91300428D01*
X66727792Y-91300076D01*
X66354234Y-91454427D01*
X66068179Y-91739983D01*
X65913176Y-92113270D01*
X65912824Y-92517460D01*
X23734615Y-92517460D01*
X23735812Y-91147184D01*
X23520136Y-90625208D01*
X73659824Y-90625208D01*
X73814175Y-90998766D01*
X74099731Y-91284821D01*
X74473018Y-91439824D01*
X74877208Y-91440176D01*
X75250766Y-91285825D01*
X75536821Y-91000269D01*
X75691824Y-90626982D01*
X75692176Y-90222792D01*
X75537825Y-89849234D01*
X75252269Y-89563179D01*
X74878982Y-89408176D01*
X74474792Y-89407824D01*
X74101234Y-89562175D01*
X73815179Y-89847731D01*
X73660176Y-90221018D01*
X73659824Y-90625208D01*
X23520136Y-90625208D01*
X23024066Y-89424627D01*
X22942043Y-89342460D01*
X65912824Y-89342460D01*
X66067175Y-89716018D01*
X66352731Y-90002073D01*
X66726018Y-90157076D01*
X67130208Y-90157428D01*
X67503766Y-90003077D01*
X67789821Y-89717521D01*
X67944824Y-89344234D01*
X67944825Y-89342460D01*
X70357824Y-89342460D01*
X70512175Y-89716018D01*
X70797731Y-90002073D01*
X71171018Y-90157076D01*
X71575208Y-90157428D01*
X71948766Y-90003077D01*
X72234821Y-89717521D01*
X72389824Y-89344234D01*
X72390176Y-88940044D01*
X72235825Y-88566486D01*
X71950269Y-88280431D01*
X71576982Y-88125428D01*
X71172792Y-88125076D01*
X70799234Y-88279427D01*
X70513179Y-88564983D01*
X70358176Y-88938270D01*
X70357824Y-89342460D01*
X67944825Y-89342460D01*
X67945176Y-88940044D01*
X67790825Y-88566486D01*
X67505269Y-88280431D01*
X67131982Y-88125428D01*
X66727792Y-88125076D01*
X66354234Y-88279427D01*
X66068179Y-88564983D01*
X65913176Y-88938270D01*
X65912824Y-89342460D01*
X22942043Y-89342460D01*
X21707305Y-88105566D01*
X19985993Y-87390815D01*
X18122184Y-87389188D01*
X16399627Y-88100934D01*
X15080566Y-89417695D01*
X14365815Y-91139007D01*
X14364188Y-93002816D01*
X13462000Y-93002816D01*
X13462000Y-85269011D01*
X15875594Y-85269011D01*
X16346014Y-85852782D01*
X18058767Y-86587807D01*
X19922426Y-86611439D01*
X21653266Y-85920081D01*
X21753986Y-85852782D01*
X22224406Y-85269011D01*
X19050000Y-82094605D01*
X15875594Y-85269011D01*
X13462000Y-85269011D01*
X13462000Y-82787426D01*
X14353561Y-82787426D01*
X15044919Y-84518266D01*
X15112218Y-84618986D01*
X15695989Y-85089406D01*
X18870395Y-81915000D01*
X19229605Y-81915000D01*
X22404011Y-85089406D01*
X22468786Y-85037208D01*
X33908824Y-85037208D01*
X34063175Y-85410766D01*
X34348731Y-85696821D01*
X34722018Y-85851824D01*
X35126208Y-85852176D01*
X35499766Y-85697825D01*
X35785821Y-85412269D01*
X35836090Y-85291208D01*
X43941824Y-85291208D01*
X44096175Y-85664766D01*
X44222712Y-85791525D01*
X44097179Y-85916839D01*
X43942176Y-86290126D01*
X43941824Y-86694316D01*
X44096175Y-87067874D01*
X44381731Y-87353929D01*
X44755018Y-87508932D01*
X45159208Y-87509284D01*
X45532766Y-87354933D01*
X45818821Y-87069377D01*
X45973824Y-86696090D01*
X45974176Y-86291900D01*
X45819825Y-85918342D01*
X45693288Y-85791583D01*
X45818821Y-85666269D01*
X45973824Y-85292982D01*
X45974116Y-84956826D01*
X47342426Y-84956826D01*
X47516070Y-85377079D01*
X47837321Y-85698890D01*
X48257270Y-85873268D01*
X48711983Y-85873665D01*
X49132236Y-85700021D01*
X49454047Y-85378770D01*
X49628425Y-84958821D01*
X49628822Y-84504108D01*
X49455178Y-84083855D01*
X49133927Y-83762044D01*
X48713978Y-83587666D01*
X48259265Y-83587269D01*
X47839012Y-83760913D01*
X47517201Y-84082164D01*
X47342823Y-84502113D01*
X47342426Y-84956826D01*
X45974116Y-84956826D01*
X45974176Y-84888792D01*
X45819825Y-84515234D01*
X45534269Y-84229179D01*
X45160982Y-84074176D01*
X44756792Y-84073824D01*
X44383234Y-84228175D01*
X44097179Y-84513731D01*
X43942176Y-84887018D01*
X43941824Y-85291208D01*
X35836090Y-85291208D01*
X35888706Y-85164495D01*
X36134766Y-85062825D01*
X36420821Y-84777269D01*
X36575824Y-84403982D01*
X36576176Y-83999792D01*
X36421825Y-83626234D01*
X36136269Y-83340179D01*
X35762982Y-83185176D01*
X35358792Y-83184824D01*
X34985234Y-83339175D01*
X34699179Y-83624731D01*
X34596294Y-83872505D01*
X34350234Y-83974175D01*
X34064179Y-84259731D01*
X33909176Y-84633018D01*
X33908824Y-85037208D01*
X22468786Y-85037208D01*
X22987782Y-84618986D01*
X23722807Y-82906233D01*
X23738947Y-81633359D01*
X39496802Y-81633359D01*
X39670446Y-82053612D01*
X39991697Y-82375423D01*
X40411646Y-82549801D01*
X40866359Y-82550198D01*
X41286612Y-82376554D01*
X41608423Y-82055303D01*
X41782801Y-81635354D01*
X41783198Y-81180641D01*
X41609554Y-80760388D01*
X41288303Y-80438577D01*
X40868354Y-80264199D01*
X40413641Y-80263802D01*
X39993388Y-80437446D01*
X39671577Y-80758697D01*
X39497199Y-81178646D01*
X39496802Y-81633359D01*
X23738947Y-81633359D01*
X23746439Y-81042574D01*
X23055081Y-79311734D01*
X22987782Y-79211014D01*
X22841778Y-79093359D01*
X66420802Y-79093359D01*
X66594446Y-79513612D01*
X66915697Y-79835423D01*
X67335646Y-80009801D01*
X67790359Y-80010198D01*
X68210612Y-79836554D01*
X68532423Y-79515303D01*
X68706801Y-79095354D01*
X68707198Y-78640641D01*
X68533554Y-78220388D01*
X68212303Y-77898577D01*
X67792354Y-77724199D01*
X67337641Y-77723802D01*
X66917388Y-77897446D01*
X66595577Y-78218697D01*
X66421199Y-78638646D01*
X66420802Y-79093359D01*
X22841778Y-79093359D01*
X22404011Y-78740594D01*
X19229605Y-81915000D01*
X18870395Y-81915000D01*
X15695989Y-78740594D01*
X15112218Y-79211014D01*
X14377193Y-80923767D01*
X14353561Y-82787426D01*
X13462000Y-82787426D01*
X13462000Y-78560989D01*
X15875594Y-78560989D01*
X19050000Y-81735395D01*
X22224406Y-78560989D01*
X21753986Y-77977218D01*
X20041233Y-77242193D01*
X18177574Y-77218561D01*
X16446734Y-77909919D01*
X16346014Y-77977218D01*
X15875594Y-78560989D01*
X13462000Y-78560989D01*
X13462000Y-76172359D01*
X52450802Y-76172359D01*
X52624446Y-76592612D01*
X52945697Y-76914423D01*
X53365646Y-77088801D01*
X53820359Y-77089198D01*
X53887734Y-77061359D01*
X57276802Y-77061359D01*
X57450446Y-77481612D01*
X57771697Y-77803423D01*
X58191646Y-77977801D01*
X58646359Y-77978198D01*
X59066612Y-77804554D01*
X59388423Y-77483303D01*
X59562801Y-77063354D01*
X59563024Y-76807359D01*
X75056802Y-76807359D01*
X75230446Y-77227612D01*
X75551697Y-77549423D01*
X75971646Y-77723801D01*
X76426359Y-77724198D01*
X76846612Y-77550554D01*
X76962000Y-77435367D01*
X76962000Y-88506252D01*
X76970685Y-88552411D01*
X76997965Y-88594805D01*
X77039590Y-88623246D01*
X77089000Y-88633252D01*
X78739831Y-88633252D01*
X78613176Y-88938270D01*
X78612824Y-89342460D01*
X78767175Y-89716018D01*
X79052731Y-90002073D01*
X79426018Y-90157076D01*
X79830208Y-90157428D01*
X80203766Y-90003077D01*
X80227067Y-89979817D01*
X80310446Y-90181612D01*
X80631697Y-90503423D01*
X81051646Y-90677801D01*
X81506359Y-90678198D01*
X81665458Y-90612460D01*
X84327824Y-90612460D01*
X84482175Y-90986018D01*
X84767731Y-91272073D01*
X85141018Y-91427076D01*
X85545208Y-91427428D01*
X85918766Y-91273077D01*
X86204821Y-90987521D01*
X86359824Y-90614234D01*
X86360176Y-90210044D01*
X86205825Y-89836486D01*
X85920269Y-89550431D01*
X85546982Y-89395428D01*
X85142792Y-89395076D01*
X84769234Y-89549427D01*
X84483179Y-89834983D01*
X84328176Y-90208270D01*
X84327824Y-90612460D01*
X81665458Y-90612460D01*
X81926612Y-90504554D01*
X82248423Y-90183303D01*
X82422801Y-89763354D01*
X82423198Y-89308641D01*
X82249554Y-88888388D01*
X81994862Y-88633252D01*
X89310855Y-88633252D01*
X89214234Y-88673175D01*
X88928179Y-88958731D01*
X88773176Y-89332018D01*
X88772824Y-89736208D01*
X88927175Y-90109766D01*
X89212731Y-90395821D01*
X89586018Y-90550824D01*
X89990208Y-90551176D01*
X90363766Y-90396825D01*
X90649821Y-90111269D01*
X90804824Y-89737982D01*
X90805176Y-89333792D01*
X90650825Y-88960234D01*
X90436325Y-88745359D01*
X100202802Y-88745359D01*
X100376446Y-89165612D01*
X100697697Y-89487423D01*
X101117646Y-89661801D01*
X101572359Y-89662198D01*
X101992612Y-89488554D01*
X102314423Y-89167303D01*
X102488801Y-88747354D01*
X102489198Y-88292641D01*
X102315554Y-87872388D01*
X101994303Y-87550577D01*
X101574354Y-87376199D01*
X101119641Y-87375802D01*
X100699388Y-87549446D01*
X100377577Y-87870697D01*
X100203199Y-88290646D01*
X100202802Y-88745359D01*
X90436325Y-88745359D01*
X90365269Y-88674179D01*
X90266706Y-88633252D01*
X91694000Y-88633252D01*
X91740159Y-88624567D01*
X91782553Y-88597287D01*
X91810994Y-88555662D01*
X91821000Y-88506252D01*
X91821000Y-86650482D01*
X96837357Y-86650482D01*
X96962767Y-86953998D01*
X97194781Y-87186417D01*
X97498077Y-87312357D01*
X97826482Y-87312643D01*
X98129998Y-87187233D01*
X98362417Y-86955219D01*
X98488357Y-86651923D01*
X98488643Y-86323518D01*
X98363233Y-86020002D01*
X98231943Y-85888482D01*
X102775357Y-85888482D01*
X102900767Y-86191998D01*
X103132781Y-86424417D01*
X103436077Y-86550357D01*
X103764482Y-86550643D01*
X104067998Y-86425233D01*
X104300417Y-86193219D01*
X104426357Y-85889923D01*
X104426643Y-85561518D01*
X104389242Y-85471000D01*
X106562907Y-85471000D01*
X106675946Y-86039285D01*
X106997853Y-86521054D01*
X107039452Y-86548850D01*
X106991683Y-86557838D01*
X106775559Y-86696910D01*
X106630569Y-86909110D01*
X106579560Y-87161000D01*
X106579560Y-88861000D01*
X106623838Y-89096317D01*
X106762910Y-89312441D01*
X106975110Y-89457431D01*
X107227000Y-89508440D01*
X108927000Y-89508440D01*
X109162317Y-89464162D01*
X109378441Y-89325090D01*
X109523431Y-89112890D01*
X109574440Y-88861000D01*
X109574440Y-87161000D01*
X109530162Y-86925683D01*
X109391090Y-86709559D01*
X109178890Y-86564569D01*
X109111459Y-86550914D01*
X109156147Y-86521054D01*
X109478054Y-86039285D01*
X109591093Y-85471000D01*
X109478054Y-84902715D01*
X109156147Y-84420946D01*
X108815447Y-84193298D01*
X108958358Y-84126183D01*
X109348645Y-83697924D01*
X109518476Y-83287890D01*
X109397155Y-83058000D01*
X108204000Y-83058000D01*
X108204000Y-83078000D01*
X107950000Y-83078000D01*
X107950000Y-83058000D01*
X106756845Y-83058000D01*
X106635524Y-83287890D01*
X106805355Y-83697924D01*
X107195642Y-84126183D01*
X107338553Y-84193298D01*
X106997853Y-84420946D01*
X106675946Y-84902715D01*
X106562907Y-85471000D01*
X104389242Y-85471000D01*
X104301233Y-85258002D01*
X104069219Y-85025583D01*
X103765923Y-84899643D01*
X103437518Y-84899357D01*
X103134002Y-85024767D01*
X102901583Y-85256781D01*
X102775643Y-85560077D01*
X102775357Y-85888482D01*
X98231943Y-85888482D01*
X98131219Y-85787583D01*
X97827923Y-85661643D01*
X97499518Y-85661357D01*
X97196002Y-85786767D01*
X96963583Y-86018781D01*
X96837643Y-86322077D01*
X96837357Y-86650482D01*
X91821000Y-86650482D01*
X91821000Y-82972051D01*
X103488246Y-82972051D01*
X103642597Y-83345609D01*
X103928153Y-83631664D01*
X104012911Y-83666859D01*
X104012824Y-83767208D01*
X104167175Y-84140766D01*
X104452731Y-84426821D01*
X104826018Y-84581824D01*
X105230208Y-84582176D01*
X105603766Y-84427825D01*
X105889821Y-84142269D01*
X106044824Y-83768982D01*
X106045176Y-83364792D01*
X105890825Y-82991234D01*
X105605269Y-82705179D01*
X105520511Y-82669984D01*
X105520598Y-82569635D01*
X105366247Y-82196077D01*
X105243651Y-82073266D01*
X105346357Y-81825923D01*
X105346643Y-81497518D01*
X105221233Y-81194002D01*
X104989219Y-80961583D01*
X104685923Y-80835643D01*
X104357518Y-80835357D01*
X104054002Y-80960767D01*
X103821583Y-81192781D01*
X103695643Y-81496077D01*
X103695357Y-81824482D01*
X103788506Y-82049921D01*
X103643601Y-82194574D01*
X103488598Y-82567861D01*
X103488246Y-82972051D01*
X91821000Y-82972051D01*
X91821000Y-80046482D01*
X102679357Y-80046482D01*
X102804767Y-80349998D01*
X103036781Y-80582417D01*
X103340077Y-80708357D01*
X103668482Y-80708643D01*
X103971998Y-80583233D01*
X104204417Y-80351219D01*
X104330357Y-80047923D01*
X104330643Y-79719518D01*
X104205233Y-79416002D01*
X103973219Y-79183583D01*
X103669923Y-79057643D01*
X103341518Y-79057357D01*
X103038002Y-79182767D01*
X102805583Y-79414781D01*
X102679643Y-79718077D01*
X102679357Y-80046482D01*
X91821000Y-80046482D01*
X91821000Y-79284482D01*
X98996357Y-79284482D01*
X99121767Y-79587998D01*
X99353781Y-79820417D01*
X99657077Y-79946357D01*
X99985482Y-79946643D01*
X100288998Y-79821233D01*
X100521417Y-79589219D01*
X100647357Y-79285923D01*
X100647643Y-78957518D01*
X100522233Y-78654002D01*
X100290219Y-78421583D01*
X100227362Y-78395482D01*
X101028357Y-78395482D01*
X101153767Y-78698998D01*
X101385781Y-78931417D01*
X101689077Y-79057357D01*
X102017482Y-79057643D01*
X102320998Y-78932233D01*
X102553417Y-78700219D01*
X102679357Y-78396923D01*
X102679643Y-78068518D01*
X102589767Y-77851000D01*
X106562907Y-77851000D01*
X106675946Y-78419285D01*
X106997853Y-78901054D01*
X107327026Y-79121000D01*
X106997853Y-79340946D01*
X106675946Y-79822715D01*
X106562907Y-80391000D01*
X106675946Y-80959285D01*
X106997853Y-81441054D01*
X107338553Y-81668702D01*
X107195642Y-81735817D01*
X106805355Y-82164076D01*
X106635524Y-82574110D01*
X106756845Y-82804000D01*
X107950000Y-82804000D01*
X107950000Y-82784000D01*
X108204000Y-82784000D01*
X108204000Y-82804000D01*
X109397155Y-82804000D01*
X109518476Y-82574110D01*
X109348645Y-82164076D01*
X108958358Y-81735817D01*
X108815447Y-81668702D01*
X109156147Y-81441054D01*
X109478054Y-80959285D01*
X109591093Y-80391000D01*
X109478054Y-79822715D01*
X109156147Y-79340946D01*
X108826974Y-79121000D01*
X109156147Y-78901054D01*
X109478054Y-78419285D01*
X109591093Y-77851000D01*
X109478054Y-77282715D01*
X109156147Y-76800946D01*
X108674378Y-76479039D01*
X108106093Y-76366000D01*
X108047907Y-76366000D01*
X107479622Y-76479039D01*
X106997853Y-76800946D01*
X106675946Y-77282715D01*
X106562907Y-77851000D01*
X102589767Y-77851000D01*
X102554233Y-77765002D01*
X102322219Y-77532583D01*
X102018923Y-77406643D01*
X101690518Y-77406357D01*
X101387002Y-77531767D01*
X101154583Y-77763781D01*
X101028643Y-78067077D01*
X101028357Y-78395482D01*
X100227362Y-78395482D01*
X99986923Y-78295643D01*
X99658518Y-78295357D01*
X99355002Y-78420767D01*
X99122583Y-78652781D01*
X98996643Y-78956077D01*
X98996357Y-79284482D01*
X91821000Y-79284482D01*
X91821000Y-77379482D01*
X92265357Y-77379482D01*
X92390767Y-77682998D01*
X92622781Y-77915417D01*
X92926077Y-78041357D01*
X93254482Y-78041643D01*
X93557998Y-77916233D01*
X93790417Y-77684219D01*
X93916357Y-77380923D01*
X93916643Y-77052518D01*
X93905453Y-77025436D01*
X94143482Y-77025643D01*
X94446998Y-76900233D01*
X94679417Y-76668219D01*
X94779846Y-76426359D01*
X101091802Y-76426359D01*
X101265446Y-76846612D01*
X101586697Y-77168423D01*
X102006646Y-77342801D01*
X102461359Y-77343198D01*
X102881612Y-77169554D01*
X103203423Y-76848303D01*
X103377801Y-76428354D01*
X103378198Y-75973641D01*
X103204554Y-75553388D01*
X102883303Y-75231577D01*
X102463354Y-75057199D01*
X102008641Y-75056802D01*
X101588388Y-75230446D01*
X101266577Y-75551697D01*
X101092199Y-75971646D01*
X101091802Y-76426359D01*
X94779846Y-76426359D01*
X94805357Y-76364923D01*
X94805643Y-76036518D01*
X94680233Y-75733002D01*
X94448219Y-75500583D01*
X94144923Y-75374643D01*
X93816518Y-75374357D01*
X93513002Y-75499767D01*
X93280583Y-75731781D01*
X93154643Y-76035077D01*
X93154357Y-76363482D01*
X93165547Y-76390564D01*
X92927518Y-76390357D01*
X92624002Y-76515767D01*
X92391583Y-76747781D01*
X92265643Y-77051077D01*
X92265357Y-77379482D01*
X91821000Y-77379482D01*
X91821000Y-75806252D01*
X91812315Y-75760093D01*
X91785035Y-75717699D01*
X91743410Y-75689258D01*
X91694000Y-75679252D01*
X77089000Y-75679252D01*
X77042841Y-75687937D01*
X77000447Y-75715217D01*
X76980259Y-75744763D01*
X76848303Y-75612577D01*
X76428354Y-75438199D01*
X75973641Y-75437802D01*
X75553388Y-75611446D01*
X75231577Y-75932697D01*
X75057199Y-76352646D01*
X75056802Y-76807359D01*
X59563024Y-76807359D01*
X59563198Y-76608641D01*
X59389554Y-76188388D01*
X59068303Y-75866577D01*
X58648354Y-75692199D01*
X58193641Y-75691802D01*
X57773388Y-75865446D01*
X57451577Y-76186697D01*
X57277199Y-76606646D01*
X57276802Y-77061359D01*
X53887734Y-77061359D01*
X54240612Y-76915554D01*
X54562423Y-76594303D01*
X54736801Y-76174354D01*
X54737198Y-75719641D01*
X54563554Y-75299388D01*
X54242303Y-74977577D01*
X53822354Y-74803199D01*
X53367641Y-74802802D01*
X52947388Y-74976446D01*
X52625577Y-75297697D01*
X52451199Y-75717646D01*
X52450802Y-76172359D01*
X13462000Y-76172359D01*
X13462000Y-73124359D01*
X68960802Y-73124359D01*
X69134446Y-73544612D01*
X69455697Y-73866423D01*
X69875646Y-74040801D01*
X70330359Y-74041198D01*
X70750612Y-73867554D01*
X71072423Y-73546303D01*
X71246801Y-73126354D01*
X71247198Y-72671641D01*
X71073554Y-72251388D01*
X70752303Y-71929577D01*
X70332354Y-71755199D01*
X69877641Y-71754802D01*
X69457388Y-71928446D01*
X69135577Y-72249697D01*
X68961199Y-72669646D01*
X68960802Y-73124359D01*
X13462000Y-73124359D01*
X13462000Y-71321823D01*
X13599820Y-71655372D01*
X13932875Y-71989009D01*
X14368255Y-72169794D01*
X14839677Y-72170206D01*
X15275372Y-71990180D01*
X15609009Y-71657125D01*
X15789794Y-71221745D01*
X15789824Y-71187028D01*
X56222212Y-71187028D01*
X56376563Y-71560586D01*
X56484461Y-71668672D01*
X56406691Y-71855961D01*
X56406339Y-72260151D01*
X56560690Y-72633709D01*
X56846246Y-72919764D01*
X57219533Y-73074767D01*
X57623723Y-73075119D01*
X57997281Y-72920768D01*
X58283336Y-72635212D01*
X58438339Y-72261925D01*
X58438691Y-71857735D01*
X58284340Y-71484177D01*
X58176442Y-71376091D01*
X58251967Y-71194208D01*
X60324824Y-71194208D01*
X60479175Y-71567766D01*
X60764731Y-71853821D01*
X61138018Y-72008824D01*
X61542208Y-72009176D01*
X61915766Y-71854825D01*
X62201821Y-71569269D01*
X62356824Y-71195982D01*
X62356825Y-71194208D01*
X66166824Y-71194208D01*
X66321175Y-71567766D01*
X66606731Y-71853821D01*
X66980018Y-72008824D01*
X67384208Y-72009176D01*
X67757766Y-71854825D01*
X68043821Y-71569269D01*
X68153486Y-71305167D01*
X73994838Y-71305167D01*
X74136883Y-71648943D01*
X74399673Y-71912192D01*
X74743201Y-72054838D01*
X75115167Y-72055162D01*
X75458943Y-71913117D01*
X75564954Y-71807290D01*
X75669673Y-71912192D01*
X76013201Y-72054838D01*
X76385167Y-72055162D01*
X76728943Y-71913117D01*
X76992192Y-71650327D01*
X77134838Y-71306799D01*
X77135162Y-70934833D01*
X76993117Y-70591057D01*
X76730327Y-70327808D01*
X76386799Y-70185162D01*
X76014833Y-70184838D01*
X75671057Y-70326883D01*
X75565046Y-70432710D01*
X75460327Y-70327808D01*
X75116799Y-70185162D01*
X74744833Y-70184838D01*
X74401057Y-70326883D01*
X74137808Y-70589673D01*
X73995162Y-70933201D01*
X73994838Y-71305167D01*
X68153486Y-71305167D01*
X68198824Y-71195982D01*
X68199176Y-70791792D01*
X68044825Y-70418234D01*
X67759269Y-70132179D01*
X67385982Y-69977176D01*
X66981792Y-69976824D01*
X66608234Y-70131175D01*
X66322179Y-70416731D01*
X66167176Y-70790018D01*
X66166824Y-71194208D01*
X62356825Y-71194208D01*
X62357176Y-70791792D01*
X62202825Y-70418234D01*
X61917269Y-70132179D01*
X61543982Y-69977176D01*
X61139792Y-69976824D01*
X60766234Y-70131175D01*
X60480179Y-70416731D01*
X60325176Y-70790018D01*
X60324824Y-71194208D01*
X58251967Y-71194208D01*
X58254212Y-71188802D01*
X58254564Y-70784612D01*
X58100213Y-70411054D01*
X57814657Y-70124999D01*
X57441370Y-69969996D01*
X57037180Y-69969644D01*
X56663622Y-70123995D01*
X56377567Y-70409551D01*
X56222564Y-70782838D01*
X56222212Y-71187028D01*
X15789824Y-71187028D01*
X15790206Y-70750323D01*
X15610180Y-70314628D01*
X15277125Y-69980991D01*
X14841745Y-69800206D01*
X14370323Y-69799794D01*
X13934628Y-69979820D01*
X13600991Y-70312875D01*
X13462000Y-70647604D01*
X13462000Y-68933359D01*
X57276802Y-68933359D01*
X57450446Y-69353612D01*
X57771697Y-69675423D01*
X58191646Y-69849801D01*
X58646359Y-69850198D01*
X58774605Y-69797208D01*
X64388824Y-69797208D01*
X64543175Y-70170766D01*
X64828731Y-70456821D01*
X65202018Y-70611824D01*
X65606208Y-70612176D01*
X65979766Y-70457825D01*
X66265821Y-70172269D01*
X66420824Y-69798982D01*
X66421079Y-69505482D01*
X109283357Y-69505482D01*
X109408767Y-69808998D01*
X109640781Y-70041417D01*
X109729460Y-70078240D01*
X109536583Y-70270781D01*
X109410643Y-70574077D01*
X109410357Y-70902482D01*
X109535767Y-71205998D01*
X109767781Y-71438417D01*
X110071077Y-71564357D01*
X110399482Y-71564643D01*
X110702998Y-71439233D01*
X110935417Y-71207219D01*
X111061357Y-70903923D01*
X111061643Y-70575518D01*
X111054904Y-70559208D01*
X114045824Y-70559208D01*
X114200175Y-70932766D01*
X114485731Y-71218821D01*
X114859018Y-71373824D01*
X115263208Y-71374176D01*
X115636766Y-71219825D01*
X115922821Y-70934269D01*
X116077824Y-70560982D01*
X116078176Y-70156792D01*
X115923825Y-69783234D01*
X115638269Y-69497179D01*
X115443271Y-69416208D01*
X115823824Y-69416208D01*
X115978175Y-69789766D01*
X116263731Y-70075821D01*
X116637018Y-70230824D01*
X117041208Y-70231176D01*
X117414766Y-70076825D01*
X117700821Y-69791269D01*
X117855824Y-69417982D01*
X117856176Y-69013792D01*
X117701825Y-68640234D01*
X117416269Y-68354179D01*
X117042982Y-68199176D01*
X116638792Y-68198824D01*
X116265234Y-68353175D01*
X115979179Y-68638731D01*
X115824176Y-69012018D01*
X115823824Y-69416208D01*
X115443271Y-69416208D01*
X115264982Y-69342176D01*
X114860792Y-69341824D01*
X114487234Y-69496175D01*
X114201179Y-69781731D01*
X114046176Y-70155018D01*
X114045824Y-70559208D01*
X111054904Y-70559208D01*
X110936233Y-70272002D01*
X110704219Y-70039583D01*
X110615540Y-70002760D01*
X110808417Y-69810219D01*
X110934357Y-69506923D01*
X110934643Y-69178518D01*
X110809233Y-68875002D01*
X110577219Y-68642583D01*
X110273923Y-68516643D01*
X109945518Y-68516357D01*
X109642002Y-68641767D01*
X109409583Y-68873781D01*
X109283643Y-69177077D01*
X109283357Y-69505482D01*
X66421079Y-69505482D01*
X66421176Y-69394792D01*
X66266825Y-69021234D01*
X65981269Y-68735179D01*
X65607982Y-68580176D01*
X65203792Y-68579824D01*
X64830234Y-68734175D01*
X64544179Y-69019731D01*
X64389176Y-69393018D01*
X64388824Y-69797208D01*
X58774605Y-69797208D01*
X59066612Y-69676554D01*
X59388423Y-69355303D01*
X59562801Y-68935354D01*
X59563198Y-68480641D01*
X59389554Y-68060388D01*
X59068303Y-67738577D01*
X58648354Y-67564199D01*
X58193641Y-67563802D01*
X57773388Y-67737446D01*
X57451577Y-68058697D01*
X57277199Y-68478646D01*
X57276802Y-68933359D01*
X13462000Y-68933359D01*
X13462000Y-64996359D01*
X48767802Y-64996359D01*
X48941446Y-65416612D01*
X49262697Y-65738423D01*
X49682646Y-65912801D01*
X50137359Y-65913198D01*
X50557612Y-65739554D01*
X50879423Y-65418303D01*
X50896424Y-65377359D01*
X71881802Y-65377359D01*
X72055446Y-65797612D01*
X72376697Y-66119423D01*
X72796646Y-66293801D01*
X73251359Y-66294198D01*
X73671612Y-66120554D01*
X73993423Y-65799303D01*
X74167801Y-65379354D01*
X74168198Y-64924641D01*
X73994554Y-64504388D01*
X73673303Y-64182577D01*
X73253354Y-64008199D01*
X72798641Y-64007802D01*
X72378388Y-64181446D01*
X72056577Y-64502697D01*
X71882199Y-64922646D01*
X71881802Y-65377359D01*
X50896424Y-65377359D01*
X51053801Y-64998354D01*
X51054198Y-64543641D01*
X50880554Y-64123388D01*
X50559303Y-63801577D01*
X50139354Y-63627199D01*
X49684641Y-63626802D01*
X49264388Y-63800446D01*
X48942577Y-64121697D01*
X48768199Y-64541646D01*
X48767802Y-64996359D01*
X13462000Y-64996359D01*
X13462000Y-63201823D01*
X13599820Y-63535372D01*
X13932875Y-63869009D01*
X14368255Y-64049794D01*
X14839677Y-64050206D01*
X15275372Y-63870180D01*
X15419444Y-63726359D01*
X29336802Y-63726359D01*
X29510446Y-64146612D01*
X29831697Y-64468423D01*
X30251646Y-64642801D01*
X30706359Y-64643198D01*
X31126612Y-64469554D01*
X31448423Y-64148303D01*
X31622801Y-63728354D01*
X31623198Y-63273641D01*
X31449554Y-62853388D01*
X31246520Y-62650000D01*
X78512560Y-62650000D01*
X78512560Y-64350000D01*
X78556838Y-64585317D01*
X78695910Y-64801441D01*
X78908110Y-64946431D01*
X79160000Y-64997440D01*
X80860000Y-64997440D01*
X81095317Y-64953162D01*
X81311441Y-64814090D01*
X81456431Y-64601890D01*
X81470086Y-64534459D01*
X81499946Y-64579147D01*
X81981715Y-64901054D01*
X82550000Y-65014093D01*
X83118285Y-64901054D01*
X83600054Y-64579147D01*
X83820000Y-64249974D01*
X84039946Y-64579147D01*
X84521715Y-64901054D01*
X85090000Y-65014093D01*
X85658285Y-64901054D01*
X86140054Y-64579147D01*
X86360000Y-64249974D01*
X86579946Y-64579147D01*
X87061715Y-64901054D01*
X87630000Y-65014093D01*
X88198285Y-64901054D01*
X88680054Y-64579147D01*
X88900000Y-64249974D01*
X89119946Y-64579147D01*
X89601715Y-64901054D01*
X90170000Y-65014093D01*
X90738285Y-64901054D01*
X91220054Y-64579147D01*
X91440000Y-64249974D01*
X91659946Y-64579147D01*
X92141715Y-64901054D01*
X92710000Y-65014093D01*
X93278285Y-64901054D01*
X93760054Y-64579147D01*
X93980000Y-64249974D01*
X94199946Y-64579147D01*
X94681715Y-64901054D01*
X95250000Y-65014093D01*
X95818285Y-64901054D01*
X96300054Y-64579147D01*
X96520000Y-64249974D01*
X96739946Y-64579147D01*
X97221715Y-64901054D01*
X97790000Y-65014093D01*
X98358285Y-64901054D01*
X98840054Y-64579147D01*
X99060000Y-64249974D01*
X99279946Y-64579147D01*
X99761715Y-64901054D01*
X100330000Y-65014093D01*
X100898285Y-64901054D01*
X101380054Y-64579147D01*
X101600000Y-64249974D01*
X101819946Y-64579147D01*
X102301715Y-64901054D01*
X102870000Y-65014093D01*
X103438285Y-64901054D01*
X103920054Y-64579147D01*
X104140000Y-64249974D01*
X104359946Y-64579147D01*
X104841715Y-64901054D01*
X105410000Y-65014093D01*
X105978285Y-64901054D01*
X106460054Y-64579147D01*
X106680000Y-64249974D01*
X106899946Y-64579147D01*
X107381715Y-64901054D01*
X107950000Y-65014093D01*
X108518285Y-64901054D01*
X109000054Y-64579147D01*
X109220000Y-64249974D01*
X109439946Y-64579147D01*
X109921715Y-64901054D01*
X110490000Y-65014093D01*
X111058285Y-64901054D01*
X111540054Y-64579147D01*
X111760000Y-64249974D01*
X111979946Y-64579147D01*
X112461715Y-64901054D01*
X113030000Y-65014093D01*
X113598285Y-64901054D01*
X114080054Y-64579147D01*
X114300000Y-64249974D01*
X114519946Y-64579147D01*
X115001715Y-64901054D01*
X115570000Y-65014093D01*
X116138285Y-64901054D01*
X116620054Y-64579147D01*
X116840000Y-64249974D01*
X117059946Y-64579147D01*
X117541715Y-64901054D01*
X118110000Y-65014093D01*
X118678285Y-64901054D01*
X119160054Y-64579147D01*
X119380000Y-64249974D01*
X119599946Y-64579147D01*
X120081715Y-64901054D01*
X120650000Y-65014093D01*
X121218285Y-64901054D01*
X121700054Y-64579147D01*
X121920000Y-64249974D01*
X122139946Y-64579147D01*
X122621715Y-64901054D01*
X123190000Y-65014093D01*
X123758285Y-64901054D01*
X124240054Y-64579147D01*
X124460000Y-64249974D01*
X124679946Y-64579147D01*
X125161715Y-64901054D01*
X125730000Y-65014093D01*
X126298285Y-64901054D01*
X126780054Y-64579147D01*
X127000000Y-64249974D01*
X127219946Y-64579147D01*
X127701715Y-64901054D01*
X128270000Y-65014093D01*
X128838285Y-64901054D01*
X129320054Y-64579147D01*
X129641961Y-64097378D01*
X129755000Y-63529093D01*
X129755000Y-63470907D01*
X129641961Y-62902622D01*
X129320054Y-62420853D01*
X129034422Y-62230000D01*
X129320054Y-62039147D01*
X129641961Y-61557378D01*
X129755000Y-60989093D01*
X129755000Y-60930907D01*
X129641961Y-60362622D01*
X129320054Y-59880853D01*
X128838285Y-59558946D01*
X128270000Y-59445907D01*
X127701715Y-59558946D01*
X127219946Y-59880853D01*
X127000000Y-60210026D01*
X126780054Y-59880853D01*
X126298285Y-59558946D01*
X125730000Y-59445907D01*
X125161715Y-59558946D01*
X124679946Y-59880853D01*
X124460000Y-60210026D01*
X124240054Y-59880853D01*
X123758285Y-59558946D01*
X123190000Y-59445907D01*
X122621715Y-59558946D01*
X122139946Y-59880853D01*
X121920000Y-60210026D01*
X121700054Y-59880853D01*
X121218285Y-59558946D01*
X120650000Y-59445907D01*
X120081715Y-59558946D01*
X119599946Y-59880853D01*
X119380000Y-60210026D01*
X119160054Y-59880853D01*
X118678285Y-59558946D01*
X118110000Y-59445907D01*
X117541715Y-59558946D01*
X117059946Y-59880853D01*
X116840000Y-60210026D01*
X116620054Y-59880853D01*
X116138285Y-59558946D01*
X115570000Y-59445907D01*
X115001715Y-59558946D01*
X114519946Y-59880853D01*
X114300000Y-60210026D01*
X114080054Y-59880853D01*
X113598285Y-59558946D01*
X113030000Y-59445907D01*
X112461715Y-59558946D01*
X111979946Y-59880853D01*
X111760000Y-60210026D01*
X111540054Y-59880853D01*
X111058285Y-59558946D01*
X110490000Y-59445907D01*
X109921715Y-59558946D01*
X109439946Y-59880853D01*
X109220000Y-60210026D01*
X109000054Y-59880853D01*
X108518285Y-59558946D01*
X107950000Y-59445907D01*
X107381715Y-59558946D01*
X106899946Y-59880853D01*
X106680000Y-60210026D01*
X106460054Y-59880853D01*
X105978285Y-59558946D01*
X105410000Y-59445907D01*
X104841715Y-59558946D01*
X104359946Y-59880853D01*
X104140000Y-60210026D01*
X103920054Y-59880853D01*
X103438285Y-59558946D01*
X102870000Y-59445907D01*
X102301715Y-59558946D01*
X101819946Y-59880853D01*
X101600000Y-60210026D01*
X101380054Y-59880853D01*
X100898285Y-59558946D01*
X100330000Y-59445907D01*
X99761715Y-59558946D01*
X99279946Y-59880853D01*
X99060000Y-60210026D01*
X98840054Y-59880853D01*
X98358285Y-59558946D01*
X97790000Y-59445907D01*
X97221715Y-59558946D01*
X96739946Y-59880853D01*
X96520000Y-60210026D01*
X96300054Y-59880853D01*
X95818285Y-59558946D01*
X95250000Y-59445907D01*
X94681715Y-59558946D01*
X94199946Y-59880853D01*
X93980000Y-60210026D01*
X93760054Y-59880853D01*
X93278285Y-59558946D01*
X92710000Y-59445907D01*
X92141715Y-59558946D01*
X91659946Y-59880853D01*
X91440000Y-60210026D01*
X91220054Y-59880853D01*
X90738285Y-59558946D01*
X90170000Y-59445907D01*
X89601715Y-59558946D01*
X89119946Y-59880853D01*
X88900000Y-60210026D01*
X88680054Y-59880853D01*
X88198285Y-59558946D01*
X87630000Y-59445907D01*
X87061715Y-59558946D01*
X86579946Y-59880853D01*
X86360000Y-60210026D01*
X86140054Y-59880853D01*
X85658285Y-59558946D01*
X85090000Y-59445907D01*
X84521715Y-59558946D01*
X84039946Y-59880853D01*
X83820000Y-60210026D01*
X83600054Y-59880853D01*
X83118285Y-59558946D01*
X82550000Y-59445907D01*
X81981715Y-59558946D01*
X81499946Y-59880853D01*
X81280000Y-60210026D01*
X81060054Y-59880853D01*
X80578285Y-59558946D01*
X80010000Y-59445907D01*
X79441715Y-59558946D01*
X78959946Y-59880853D01*
X78638039Y-60362622D01*
X78525000Y-60930907D01*
X78525000Y-60989093D01*
X78638039Y-61557378D01*
X78959946Y-62039147D01*
X78961179Y-62039971D01*
X78924683Y-62046838D01*
X78708559Y-62185910D01*
X78563569Y-62398110D01*
X78512560Y-62650000D01*
X31246520Y-62650000D01*
X31128303Y-62531577D01*
X30708354Y-62357199D01*
X30253641Y-62356802D01*
X29833388Y-62530446D01*
X29511577Y-62851697D01*
X29337199Y-63271646D01*
X29336802Y-63726359D01*
X15419444Y-63726359D01*
X15609009Y-63537125D01*
X15789794Y-63101745D01*
X15790206Y-62630323D01*
X15610180Y-62194628D01*
X15277125Y-61860991D01*
X14841745Y-61680206D01*
X14370323Y-61679794D01*
X13934628Y-61859820D01*
X13600991Y-62192875D01*
X13462000Y-62527604D01*
X13462000Y-56236890D01*
X72218524Y-56236890D01*
X72388355Y-56646924D01*
X72778642Y-57075183D01*
X73303108Y-57321486D01*
X73533000Y-57200819D01*
X73533000Y-56007000D01*
X73787000Y-56007000D01*
X73787000Y-57200819D01*
X74016892Y-57321486D01*
X74541358Y-57075183D01*
X74931645Y-56646924D01*
X75101476Y-56236890D01*
X74980155Y-56007000D01*
X73787000Y-56007000D01*
X73533000Y-56007000D01*
X72339845Y-56007000D01*
X72218524Y-56236890D01*
X13462000Y-56236890D01*
X13462000Y-49538156D01*
X13525685Y-49538156D01*
X13705711Y-49973851D01*
X14038766Y-50307488D01*
X14474146Y-50488273D01*
X14945568Y-50488685D01*
X15381263Y-50308659D01*
X15714900Y-49975604D01*
X15895685Y-49540224D01*
X15896097Y-49068802D01*
X15716071Y-48633107D01*
X15383016Y-48299470D01*
X14947636Y-48118685D01*
X14476214Y-48118273D01*
X14040519Y-48298299D01*
X13706882Y-48631354D01*
X13526097Y-49066734D01*
X13525685Y-49538156D01*
X13462000Y-49538156D01*
X13462000Y-45720000D01*
X72145907Y-45720000D01*
X72258946Y-46288285D01*
X72580853Y-46770054D01*
X72910026Y-46990000D01*
X72580853Y-47209946D01*
X72258946Y-47691715D01*
X72145907Y-48260000D01*
X72258946Y-48828285D01*
X72580853Y-49310054D01*
X72910026Y-49530000D01*
X72580853Y-49749946D01*
X72258946Y-50231715D01*
X72145907Y-50800000D01*
X72258946Y-51368285D01*
X72580853Y-51850054D01*
X72910026Y-52070000D01*
X72580853Y-52289946D01*
X72258946Y-52771715D01*
X72145907Y-53340000D01*
X72258946Y-53908285D01*
X72580853Y-54390054D01*
X72921553Y-54617702D01*
X72778642Y-54684817D01*
X72388355Y-55113076D01*
X72218524Y-55523110D01*
X72339845Y-55753000D01*
X73533000Y-55753000D01*
X73533000Y-55733000D01*
X73787000Y-55733000D01*
X73787000Y-55753000D01*
X74980155Y-55753000D01*
X75101476Y-55523110D01*
X74931645Y-55113076D01*
X74541358Y-54684817D01*
X74398447Y-54617702D01*
X74739147Y-54390054D01*
X75061054Y-53908285D01*
X75174093Y-53340000D01*
X75169770Y-53318264D01*
X78641896Y-53318264D01*
X78873422Y-53878601D01*
X79280897Y-54286788D01*
X78874929Y-54692048D01*
X78642425Y-55251980D01*
X78641896Y-55858264D01*
X78873422Y-56418601D01*
X79301756Y-56847683D01*
X79861688Y-57080187D01*
X80467972Y-57080716D01*
X81028309Y-56849190D01*
X81436496Y-56441715D01*
X81841756Y-56847683D01*
X82401688Y-57080187D01*
X83007972Y-57080716D01*
X83568309Y-56849190D01*
X83976496Y-56441715D01*
X84381756Y-56847683D01*
X84941688Y-57080187D01*
X85547972Y-57080716D01*
X86108309Y-56849190D01*
X86516496Y-56441715D01*
X86921756Y-56847683D01*
X87481688Y-57080187D01*
X88087972Y-57080716D01*
X88648309Y-56849190D01*
X89056496Y-56441715D01*
X89461756Y-56847683D01*
X90021688Y-57080187D01*
X90627972Y-57080716D01*
X91188309Y-56849190D01*
X91596496Y-56441715D01*
X92001756Y-56847683D01*
X92561688Y-57080187D01*
X93167972Y-57080716D01*
X93728309Y-56849190D01*
X94136496Y-56441715D01*
X94541756Y-56847683D01*
X95101688Y-57080187D01*
X95707972Y-57080716D01*
X96268309Y-56849190D01*
X96676496Y-56441715D01*
X97081756Y-56847683D01*
X97641688Y-57080187D01*
X98247972Y-57080716D01*
X98808309Y-56849190D01*
X99216496Y-56441715D01*
X99621756Y-56847683D01*
X100181688Y-57080187D01*
X100787972Y-57080716D01*
X101348309Y-56849190D01*
X101756496Y-56441715D01*
X102161756Y-56847683D01*
X102721688Y-57080187D01*
X103327972Y-57080716D01*
X103888309Y-56849190D01*
X104296496Y-56441715D01*
X104701756Y-56847683D01*
X105261688Y-57080187D01*
X105867972Y-57080716D01*
X106428309Y-56849190D01*
X106836496Y-56441715D01*
X107241756Y-56847683D01*
X107801688Y-57080187D01*
X108407972Y-57080716D01*
X108968309Y-56849190D01*
X109376496Y-56441715D01*
X109781756Y-56847683D01*
X110341688Y-57080187D01*
X110947972Y-57080716D01*
X111508309Y-56849190D01*
X111916496Y-56441715D01*
X112321756Y-56847683D01*
X112881688Y-57080187D01*
X113487972Y-57080716D01*
X114048309Y-56849190D01*
X114456496Y-56441715D01*
X114861756Y-56847683D01*
X115421688Y-57080187D01*
X116027972Y-57080716D01*
X116588309Y-56849190D01*
X116996496Y-56441715D01*
X117401756Y-56847683D01*
X117961688Y-57080187D01*
X118567972Y-57080716D01*
X119128309Y-56849190D01*
X119536496Y-56441715D01*
X119941756Y-56847683D01*
X120501688Y-57080187D01*
X121107972Y-57080716D01*
X121668309Y-56849190D01*
X122076496Y-56441715D01*
X122481756Y-56847683D01*
X123041688Y-57080187D01*
X123647972Y-57080716D01*
X124208309Y-56849190D01*
X124616496Y-56441715D01*
X125021756Y-56847683D01*
X125581688Y-57080187D01*
X126187972Y-57080716D01*
X126748309Y-56849190D01*
X127156496Y-56441715D01*
X127561756Y-56847683D01*
X128121688Y-57080187D01*
X128727972Y-57080716D01*
X129288309Y-56849190D01*
X129717391Y-56420856D01*
X129949895Y-55860924D01*
X129950424Y-55254640D01*
X129718898Y-54694303D01*
X129311423Y-54286116D01*
X129717391Y-53880856D01*
X129949895Y-53320924D01*
X129950424Y-52714640D01*
X129718898Y-52154303D01*
X129290564Y-51725221D01*
X128730632Y-51492717D01*
X128124348Y-51492188D01*
X127564011Y-51723714D01*
X127155824Y-52131189D01*
X126750564Y-51725221D01*
X126190632Y-51492717D01*
X125584348Y-51492188D01*
X125024011Y-51723714D01*
X124615824Y-52131189D01*
X124210564Y-51725221D01*
X123650632Y-51492717D01*
X123044348Y-51492188D01*
X122484011Y-51723714D01*
X122075824Y-52131189D01*
X121670564Y-51725221D01*
X121110632Y-51492717D01*
X120504348Y-51492188D01*
X119944011Y-51723714D01*
X119535824Y-52131189D01*
X119130564Y-51725221D01*
X118570632Y-51492717D01*
X117964348Y-51492188D01*
X117404011Y-51723714D01*
X116995824Y-52131189D01*
X116590564Y-51725221D01*
X116030632Y-51492717D01*
X115424348Y-51492188D01*
X114864011Y-51723714D01*
X114455824Y-52131189D01*
X114050564Y-51725221D01*
X113490632Y-51492717D01*
X112884348Y-51492188D01*
X112324011Y-51723714D01*
X111915824Y-52131189D01*
X111510564Y-51725221D01*
X110950632Y-51492717D01*
X110344348Y-51492188D01*
X109784011Y-51723714D01*
X109375824Y-52131189D01*
X108970564Y-51725221D01*
X108410632Y-51492717D01*
X107804348Y-51492188D01*
X107244011Y-51723714D01*
X106835824Y-52131189D01*
X106430564Y-51725221D01*
X105870632Y-51492717D01*
X105264348Y-51492188D01*
X104704011Y-51723714D01*
X104295824Y-52131189D01*
X103890564Y-51725221D01*
X103330632Y-51492717D01*
X102724348Y-51492188D01*
X102164011Y-51723714D01*
X101755824Y-52131189D01*
X101350564Y-51725221D01*
X100790632Y-51492717D01*
X100184348Y-51492188D01*
X99624011Y-51723714D01*
X99215824Y-52131189D01*
X98810564Y-51725221D01*
X98250632Y-51492717D01*
X97644348Y-51492188D01*
X97084011Y-51723714D01*
X96675824Y-52131189D01*
X96270564Y-51725221D01*
X95710632Y-51492717D01*
X95104348Y-51492188D01*
X94544011Y-51723714D01*
X94135824Y-52131189D01*
X93730564Y-51725221D01*
X93170632Y-51492717D01*
X92564348Y-51492188D01*
X92004011Y-51723714D01*
X91574929Y-52152048D01*
X91563755Y-52178958D01*
X91398356Y-52123861D01*
X90505765Y-53016452D01*
X91398356Y-53909043D01*
X91563298Y-53854099D01*
X91573422Y-53878601D01*
X91980897Y-54286788D01*
X91595824Y-54671189D01*
X91190564Y-54265221D01*
X91163654Y-54254047D01*
X91218751Y-54088648D01*
X90326160Y-53196057D01*
X89433569Y-54088648D01*
X89488513Y-54253590D01*
X89464011Y-54263714D01*
X89055824Y-54671189D01*
X88671423Y-54286116D01*
X89077391Y-53880856D01*
X89088565Y-53853946D01*
X89253964Y-53909043D01*
X90146555Y-53016452D01*
X89253964Y-52123861D01*
X89089022Y-52178805D01*
X89078898Y-52154303D01*
X88869218Y-51944256D01*
X89433569Y-51944256D01*
X90326160Y-52836847D01*
X91218751Y-51944256D01*
X91133693Y-51688913D01*
X90564195Y-51480936D01*
X89958460Y-51506729D01*
X89518627Y-51688913D01*
X89433569Y-51944256D01*
X88869218Y-51944256D01*
X88650564Y-51725221D01*
X88090632Y-51492717D01*
X87484348Y-51492188D01*
X86924011Y-51723714D01*
X86515824Y-52131189D01*
X86110564Y-51725221D01*
X85550632Y-51492717D01*
X84944348Y-51492188D01*
X84384011Y-51723714D01*
X83975824Y-52131189D01*
X83570564Y-51725221D01*
X83010632Y-51492717D01*
X82404348Y-51492188D01*
X81844011Y-51723714D01*
X81435824Y-52131189D01*
X81030564Y-51725221D01*
X80470632Y-51492717D01*
X79864348Y-51492188D01*
X79304011Y-51723714D01*
X78874929Y-52152048D01*
X78642425Y-52711980D01*
X78641896Y-53318264D01*
X75169770Y-53318264D01*
X75061054Y-52771715D01*
X74739147Y-52289946D01*
X74409974Y-52070000D01*
X74739147Y-51850054D01*
X75061054Y-51368285D01*
X75174093Y-50800000D01*
X75061054Y-50231715D01*
X74739147Y-49749946D01*
X74409974Y-49530000D01*
X74739147Y-49310054D01*
X75061054Y-48828285D01*
X75174093Y-48260000D01*
X75061054Y-47691715D01*
X74739147Y-47209946D01*
X74409974Y-46990000D01*
X74739147Y-46770054D01*
X75061054Y-46288285D01*
X75174093Y-45720000D01*
X75061054Y-45151715D01*
X74739147Y-44669946D01*
X74697548Y-44642150D01*
X74745317Y-44633162D01*
X74961441Y-44494090D01*
X75106431Y-44281890D01*
X75157440Y-44030000D01*
X75157440Y-42330000D01*
X75113162Y-42094683D01*
X74974090Y-41878559D01*
X74761890Y-41733569D01*
X74510000Y-41682560D01*
X72810000Y-41682560D01*
X72574683Y-41726838D01*
X72358559Y-41865910D01*
X72213569Y-42078110D01*
X72162560Y-42330000D01*
X72162560Y-44030000D01*
X72206838Y-44265317D01*
X72345910Y-44481441D01*
X72558110Y-44626431D01*
X72625541Y-44640086D01*
X72580853Y-44669946D01*
X72258946Y-45151715D01*
X72145907Y-45720000D01*
X13462000Y-45720000D01*
X13462000Y-41418156D01*
X13525685Y-41418156D01*
X13705711Y-41853851D01*
X14038766Y-42187488D01*
X14474146Y-42368273D01*
X14945568Y-42368685D01*
X15381263Y-42188659D01*
X15560876Y-42009359D01*
X29336802Y-42009359D01*
X29510446Y-42429612D01*
X29831697Y-42751423D01*
X30251646Y-42925801D01*
X30706359Y-42926198D01*
X31126612Y-42752554D01*
X31448423Y-42431303D01*
X31622801Y-42011354D01*
X31623198Y-41556641D01*
X31449554Y-41136388D01*
X31128303Y-40814577D01*
X30708354Y-40640199D01*
X30253641Y-40639802D01*
X29833388Y-40813446D01*
X29511577Y-41134697D01*
X29337199Y-41554646D01*
X29336802Y-42009359D01*
X15560876Y-42009359D01*
X15714900Y-41855604D01*
X15895685Y-41420224D01*
X15896097Y-40948802D01*
X15716071Y-40513107D01*
X15383016Y-40179470D01*
X14947636Y-39998685D01*
X14476214Y-39998273D01*
X14040519Y-40178299D01*
X13706882Y-40511354D01*
X13526097Y-40946734D01*
X13525685Y-41418156D01*
X13462000Y-41418156D01*
X13462000Y-33975100D01*
X77885864Y-33975100D01*
X78145647Y-34603824D01*
X78626258Y-35085274D01*
X79254528Y-35346155D01*
X79934808Y-35346748D01*
X80563532Y-35086965D01*
X81044982Y-34606354D01*
X81305863Y-33978084D01*
X81306246Y-33538264D01*
X82951896Y-33538264D01*
X83183422Y-34098601D01*
X83611756Y-34527683D01*
X84171688Y-34760187D01*
X84777972Y-34760716D01*
X85338309Y-34529190D01*
X85746496Y-34121715D01*
X86151756Y-34527683D01*
X86711688Y-34760187D01*
X87317972Y-34760716D01*
X87878309Y-34529190D01*
X88286496Y-34121715D01*
X88691756Y-34527683D01*
X89251688Y-34760187D01*
X89857972Y-34760716D01*
X90418309Y-34529190D01*
X90826496Y-34121715D01*
X91231756Y-34527683D01*
X91791688Y-34760187D01*
X92397972Y-34760716D01*
X92958309Y-34529190D01*
X93366496Y-34121715D01*
X93771756Y-34527683D01*
X94331688Y-34760187D01*
X94937972Y-34760716D01*
X95498309Y-34529190D01*
X95719236Y-34308648D01*
X96283569Y-34308648D01*
X96368627Y-34563991D01*
X96938125Y-34771968D01*
X97543860Y-34746175D01*
X97983693Y-34563991D01*
X98068751Y-34308648D01*
X97176160Y-33416057D01*
X96283569Y-34308648D01*
X95719236Y-34308648D01*
X95927391Y-34100856D01*
X95938565Y-34073946D01*
X96103964Y-34129043D01*
X96996555Y-33236452D01*
X97355765Y-33236452D01*
X98248356Y-34129043D01*
X98503699Y-34043985D01*
X98528855Y-33975100D01*
X127285864Y-33975100D01*
X127545647Y-34603824D01*
X128026258Y-35085274D01*
X128654528Y-35346155D01*
X129334808Y-35346748D01*
X129963532Y-35086965D01*
X130444982Y-34606354D01*
X130705863Y-33978084D01*
X130706456Y-33297804D01*
X130446673Y-32669080D01*
X129966062Y-32187630D01*
X129337792Y-31926749D01*
X128657512Y-31926156D01*
X128028788Y-32185939D01*
X127547338Y-32666550D01*
X127286457Y-33294820D01*
X127285864Y-33975100D01*
X98528855Y-33975100D01*
X98711676Y-33474487D01*
X98685883Y-32868752D01*
X98503699Y-32428919D01*
X98248356Y-32343861D01*
X97355765Y-33236452D01*
X96996555Y-33236452D01*
X96103964Y-32343861D01*
X95939022Y-32398805D01*
X95928898Y-32374303D01*
X95719218Y-32164256D01*
X96283569Y-32164256D01*
X97176160Y-33056847D01*
X98068751Y-32164256D01*
X97983693Y-31908913D01*
X97414195Y-31700936D01*
X96808460Y-31726729D01*
X96368627Y-31908913D01*
X96283569Y-32164256D01*
X95719218Y-32164256D01*
X95500564Y-31945221D01*
X94940632Y-31712717D01*
X94334348Y-31712188D01*
X93774011Y-31943714D01*
X93365824Y-32351189D01*
X92960564Y-31945221D01*
X92400632Y-31712717D01*
X91794348Y-31712188D01*
X91234011Y-31943714D01*
X90825824Y-32351189D01*
X90420564Y-31945221D01*
X89860632Y-31712717D01*
X89254348Y-31712188D01*
X88694011Y-31943714D01*
X88285824Y-32351189D01*
X87880564Y-31945221D01*
X87320632Y-31712717D01*
X86714348Y-31712188D01*
X86154011Y-31943714D01*
X85745824Y-32351189D01*
X85340564Y-31945221D01*
X84780632Y-31712717D01*
X84174348Y-31712188D01*
X83614011Y-31943714D01*
X83184929Y-32372048D01*
X82952425Y-32931980D01*
X82951896Y-33538264D01*
X81306246Y-33538264D01*
X81306456Y-33297804D01*
X81046673Y-32669080D01*
X80566062Y-32187630D01*
X79937792Y-31926749D01*
X79257512Y-31926156D01*
X78628788Y-32185939D01*
X78147338Y-32666550D01*
X77886457Y-33294820D01*
X77885864Y-33975100D01*
X13462000Y-33975100D01*
X13462000Y-31595359D01*
X66420802Y-31595359D01*
X66594446Y-32015612D01*
X66915697Y-32337423D01*
X67335646Y-32511801D01*
X67790359Y-32512198D01*
X68210612Y-32338554D01*
X68532423Y-32017303D01*
X68706801Y-31597354D01*
X68707198Y-31142641D01*
X68533554Y-30722388D01*
X68212303Y-30400577D01*
X67792354Y-30226199D01*
X67337641Y-30225802D01*
X66917388Y-30399446D01*
X66595577Y-30720697D01*
X66421199Y-31140646D01*
X66420802Y-31595359D01*
X13462000Y-31595359D01*
X13462000Y-27154677D01*
X13525685Y-27154677D01*
X13705711Y-27590372D01*
X14038766Y-27924009D01*
X14474146Y-28104794D01*
X14945568Y-28105206D01*
X15381263Y-27925180D01*
X15498626Y-27808021D01*
X34039560Y-27808021D01*
X34425437Y-28741915D01*
X35139327Y-29457052D01*
X36072546Y-29844559D01*
X37083021Y-29845440D01*
X38016915Y-29459563D01*
X38392132Y-29085000D01*
X42282560Y-29085000D01*
X42282560Y-30605000D01*
X42326838Y-30840317D01*
X42465910Y-31056441D01*
X42678110Y-31201431D01*
X42930000Y-31252440D01*
X44450000Y-31252440D01*
X44685317Y-31208162D01*
X44901441Y-31069090D01*
X45046431Y-30856890D01*
X45097440Y-30605000D01*
X45097440Y-30151958D01*
X45296687Y-30634172D01*
X45688764Y-31026934D01*
X46201300Y-31239758D01*
X46756265Y-31240242D01*
X47269172Y-31028313D01*
X47661934Y-30636236D01*
X47815114Y-30267338D01*
X47966687Y-30634172D01*
X48358764Y-31026934D01*
X48871300Y-31239758D01*
X49426265Y-31240242D01*
X49939172Y-31028313D01*
X50331934Y-30636236D01*
X50544758Y-30123700D01*
X50544760Y-30121265D01*
X50554758Y-30121265D01*
X50766687Y-30634172D01*
X51158764Y-31026934D01*
X51671300Y-31239758D01*
X52226265Y-31240242D01*
X52739172Y-31028313D01*
X53131934Y-30636236D01*
X53344758Y-30123700D01*
X53344760Y-30121270D01*
X53556687Y-30634172D01*
X53948764Y-31026934D01*
X54461300Y-31239758D01*
X55016265Y-31240242D01*
X55529172Y-31028313D01*
X55921934Y-30636236D01*
X56134758Y-30123700D01*
X56135242Y-29568735D01*
X55923313Y-29055828D01*
X55531236Y-28663066D01*
X55018700Y-28450242D01*
X54463735Y-28449758D01*
X53950828Y-28661687D01*
X53558066Y-29053764D01*
X53345242Y-29566300D01*
X53345240Y-29568730D01*
X53133313Y-29055828D01*
X52741236Y-28663066D01*
X52228700Y-28450242D01*
X51673735Y-28449758D01*
X51160828Y-28661687D01*
X50768066Y-29053764D01*
X50555242Y-29566300D01*
X50554758Y-30121265D01*
X50544760Y-30121265D01*
X50545242Y-29568735D01*
X50333313Y-29055828D01*
X49941236Y-28663066D01*
X49428700Y-28450242D01*
X48873735Y-28449758D01*
X48360828Y-28661687D01*
X47968066Y-29053764D01*
X47814886Y-29422662D01*
X47663313Y-29055828D01*
X47271236Y-28663066D01*
X46758700Y-28450242D01*
X46203735Y-28449758D01*
X45690828Y-28661687D01*
X45298066Y-29053764D01*
X45097440Y-29536924D01*
X45097440Y-29085000D01*
X45053162Y-28849683D01*
X44956770Y-28699885D01*
X45366265Y-28700242D01*
X45879172Y-28488313D01*
X46271934Y-28096236D01*
X46484758Y-27583700D01*
X46484760Y-27581270D01*
X46696687Y-28094172D01*
X47088764Y-28486934D01*
X47601300Y-28699758D01*
X48156265Y-28700242D01*
X48669172Y-28488313D01*
X49061934Y-28096236D01*
X49215114Y-27727338D01*
X49366687Y-28094172D01*
X49758764Y-28486934D01*
X50271300Y-28699758D01*
X50826265Y-28700242D01*
X51339172Y-28488313D01*
X51731934Y-28096236D01*
X51944758Y-27583700D01*
X51944760Y-27581270D01*
X52156687Y-28094172D01*
X52548764Y-28486934D01*
X53061300Y-28699758D01*
X53616265Y-28700242D01*
X54129172Y-28488313D01*
X54521934Y-28096236D01*
X54641611Y-27808021D01*
X59439560Y-27808021D01*
X59825437Y-28741915D01*
X60539327Y-29457052D01*
X61472546Y-29844559D01*
X62483021Y-29845440D01*
X63416915Y-29459563D01*
X64132052Y-28745673D01*
X64519559Y-27812454D01*
X64520243Y-27026890D01*
X74123524Y-27026890D01*
X74293355Y-27436924D01*
X74683642Y-27865183D01*
X75208108Y-28111486D01*
X75438000Y-27990819D01*
X75438000Y-26797000D01*
X75692000Y-26797000D01*
X75692000Y-27990819D01*
X75921892Y-28111486D01*
X76446358Y-27865183D01*
X76836645Y-27436924D01*
X77006476Y-27026890D01*
X76885155Y-26797000D01*
X75692000Y-26797000D01*
X75438000Y-26797000D01*
X74244845Y-26797000D01*
X74123524Y-27026890D01*
X64520243Y-27026890D01*
X64520440Y-26801979D01*
X64134563Y-25868085D01*
X63830492Y-25563482D01*
X65849357Y-25563482D01*
X65974767Y-25866998D01*
X66206781Y-26099417D01*
X66510077Y-26225357D01*
X66838482Y-26225643D01*
X67141998Y-26100233D01*
X67374417Y-25868219D01*
X67500357Y-25564923D01*
X67500643Y-25236518D01*
X67375233Y-24933002D01*
X67143219Y-24700583D01*
X66839923Y-24574643D01*
X66511518Y-24574357D01*
X66208002Y-24699767D01*
X65975583Y-24931781D01*
X65849643Y-25235077D01*
X65849357Y-25563482D01*
X63830492Y-25563482D01*
X63420673Y-25152948D01*
X62487454Y-24765441D01*
X61476979Y-24764560D01*
X60543085Y-25150437D01*
X59827948Y-25864327D01*
X59440441Y-26797546D01*
X59439560Y-27808021D01*
X54641611Y-27808021D01*
X54734758Y-27583700D01*
X54735242Y-27028735D01*
X54523313Y-26515828D01*
X54131236Y-26123066D01*
X53618700Y-25910242D01*
X53063735Y-25909758D01*
X52550828Y-26121687D01*
X52158066Y-26513764D01*
X51945242Y-27026300D01*
X51945240Y-27028730D01*
X51733313Y-26515828D01*
X51341236Y-26123066D01*
X50828700Y-25910242D01*
X50273735Y-25909758D01*
X49760828Y-26121687D01*
X49368066Y-26513764D01*
X49214886Y-26882662D01*
X49063313Y-26515828D01*
X48671236Y-26123066D01*
X48158700Y-25910242D01*
X47603735Y-25909758D01*
X47090828Y-26121687D01*
X46698066Y-26513764D01*
X46485242Y-27026300D01*
X46485240Y-27028730D01*
X46273313Y-26515828D01*
X45881236Y-26123066D01*
X45368700Y-25910242D01*
X44813735Y-25909758D01*
X44300828Y-26121687D01*
X43908066Y-26513764D01*
X43695242Y-27026300D01*
X43694758Y-27581265D01*
X43906687Y-28094172D01*
X44249476Y-28437560D01*
X42930000Y-28437560D01*
X42694683Y-28481838D01*
X42478559Y-28620910D01*
X42333569Y-28833110D01*
X42282560Y-29085000D01*
X38392132Y-29085000D01*
X38732052Y-28745673D01*
X39119559Y-27812454D01*
X39120440Y-26801979D01*
X38734563Y-25868085D01*
X38020673Y-25152948D01*
X37087454Y-24765441D01*
X36076979Y-24764560D01*
X35143085Y-25150437D01*
X34427948Y-25864327D01*
X34040441Y-26797546D01*
X34039560Y-27808021D01*
X15498626Y-27808021D01*
X15714900Y-27592125D01*
X15895685Y-27156745D01*
X15896097Y-26685323D01*
X15716071Y-26249628D01*
X15383016Y-25915991D01*
X14947636Y-25735206D01*
X14476214Y-25734794D01*
X14040519Y-25914820D01*
X13706882Y-26247875D01*
X13526097Y-26683255D01*
X13525685Y-27154677D01*
X13462000Y-27154677D01*
X13462000Y-24130000D01*
X74050907Y-24130000D01*
X74163946Y-24698285D01*
X74485853Y-25180054D01*
X74826553Y-25407702D01*
X74683642Y-25474817D01*
X74293355Y-25903076D01*
X74123524Y-26313110D01*
X74244845Y-26543000D01*
X75438000Y-26543000D01*
X75438000Y-26523000D01*
X75692000Y-26523000D01*
X75692000Y-26543000D01*
X76885155Y-26543000D01*
X77006476Y-26313110D01*
X76836645Y-25903076D01*
X76446358Y-25474817D01*
X76303447Y-25407702D01*
X76644147Y-25180054D01*
X76966054Y-24698285D01*
X77079093Y-24130000D01*
X76966054Y-23561715D01*
X76644147Y-23079946D01*
X76602548Y-23052150D01*
X76650317Y-23043162D01*
X76785068Y-22956452D01*
X78668720Y-22956452D01*
X78668720Y-24656452D01*
X78712998Y-24891769D01*
X78852070Y-25107893D01*
X79064270Y-25252883D01*
X79316160Y-25303892D01*
X81016160Y-25303892D01*
X81251477Y-25259614D01*
X81467601Y-25120542D01*
X81612591Y-24908342D01*
X81626246Y-24840911D01*
X81656106Y-24885599D01*
X82137875Y-25207506D01*
X82706160Y-25320545D01*
X83274445Y-25207506D01*
X83756214Y-24885599D01*
X83976160Y-24556426D01*
X84196106Y-24885599D01*
X84677875Y-25207506D01*
X85246160Y-25320545D01*
X85814445Y-25207506D01*
X86296214Y-24885599D01*
X86516160Y-24556426D01*
X86736106Y-24885599D01*
X87217875Y-25207506D01*
X87786160Y-25320545D01*
X88354445Y-25207506D01*
X88836214Y-24885599D01*
X89063862Y-24544899D01*
X89130977Y-24687810D01*
X89559236Y-25078097D01*
X89969270Y-25247928D01*
X90199160Y-25126607D01*
X90199160Y-23933452D01*
X90179160Y-23933452D01*
X90179160Y-23679452D01*
X90199160Y-23679452D01*
X90199160Y-21393452D01*
X90179160Y-21393452D01*
X90179160Y-21139452D01*
X90199160Y-21139452D01*
X90199160Y-19946297D01*
X90453160Y-19946297D01*
X90453160Y-21139452D01*
X90473160Y-21139452D01*
X90473160Y-21393452D01*
X90453160Y-21393452D01*
X90453160Y-23679452D01*
X90473160Y-23679452D01*
X90473160Y-23933452D01*
X90453160Y-23933452D01*
X90453160Y-25126607D01*
X90683050Y-25247928D01*
X91093084Y-25078097D01*
X91521343Y-24687810D01*
X91588458Y-24544899D01*
X91816106Y-24885599D01*
X92297875Y-25207506D01*
X92866160Y-25320545D01*
X93434445Y-25207506D01*
X93916214Y-24885599D01*
X94136160Y-24556426D01*
X94356106Y-24885599D01*
X94837875Y-25207506D01*
X95406160Y-25320545D01*
X95974445Y-25207506D01*
X96456214Y-24885599D01*
X96676160Y-24556426D01*
X96896106Y-24885599D01*
X97377875Y-25207506D01*
X97946160Y-25320545D01*
X98514445Y-25207506D01*
X98996214Y-24885599D01*
X99216160Y-24556426D01*
X99436106Y-24885599D01*
X99917875Y-25207506D01*
X100486160Y-25320545D01*
X101054445Y-25207506D01*
X101536214Y-24885599D01*
X101756160Y-24556426D01*
X101976106Y-24885599D01*
X102457875Y-25207506D01*
X103026160Y-25320545D01*
X103594445Y-25207506D01*
X104076214Y-24885599D01*
X104296160Y-24556426D01*
X104516106Y-24885599D01*
X104997875Y-25207506D01*
X105566160Y-25320545D01*
X106134445Y-25207506D01*
X106616214Y-24885599D01*
X106836160Y-24556426D01*
X107056106Y-24885599D01*
X107537875Y-25207506D01*
X108106160Y-25320545D01*
X108674445Y-25207506D01*
X109156214Y-24885599D01*
X109376160Y-24556426D01*
X109596106Y-24885599D01*
X110077875Y-25207506D01*
X110646160Y-25320545D01*
X111214445Y-25207506D01*
X111696214Y-24885599D01*
X111916160Y-24556426D01*
X112136106Y-24885599D01*
X112617875Y-25207506D01*
X113186160Y-25320545D01*
X113754445Y-25207506D01*
X114236214Y-24885599D01*
X114456160Y-24556426D01*
X114676106Y-24885599D01*
X115157875Y-25207506D01*
X115726160Y-25320545D01*
X116294445Y-25207506D01*
X116776214Y-24885599D01*
X116996160Y-24556426D01*
X117216106Y-24885599D01*
X117697875Y-25207506D01*
X118266160Y-25320545D01*
X118834445Y-25207506D01*
X119316214Y-24885599D01*
X119536160Y-24556426D01*
X119756106Y-24885599D01*
X120237875Y-25207506D01*
X120806160Y-25320545D01*
X121374445Y-25207506D01*
X121856214Y-24885599D01*
X122076160Y-24556426D01*
X122296106Y-24885599D01*
X122777875Y-25207506D01*
X123346160Y-25320545D01*
X123914445Y-25207506D01*
X124396214Y-24885599D01*
X124616160Y-24556426D01*
X124836106Y-24885599D01*
X125317875Y-25207506D01*
X125886160Y-25320545D01*
X126454445Y-25207506D01*
X126936214Y-24885599D01*
X127156160Y-24556426D01*
X127376106Y-24885599D01*
X127857875Y-25207506D01*
X128426160Y-25320545D01*
X128994445Y-25207506D01*
X129476214Y-24885599D01*
X129798121Y-24403830D01*
X129911160Y-23835545D01*
X129911160Y-23777359D01*
X129798121Y-23209074D01*
X129476214Y-22727305D01*
X129190582Y-22536452D01*
X129476214Y-22345599D01*
X129798121Y-21863830D01*
X129911160Y-21295545D01*
X129911160Y-21237359D01*
X129798121Y-20669074D01*
X129476214Y-20187305D01*
X128994445Y-19865398D01*
X128426160Y-19752359D01*
X127857875Y-19865398D01*
X127376106Y-20187305D01*
X127156160Y-20516478D01*
X126936214Y-20187305D01*
X126454445Y-19865398D01*
X125886160Y-19752359D01*
X125317875Y-19865398D01*
X124836106Y-20187305D01*
X124616160Y-20516478D01*
X124396214Y-20187305D01*
X123914445Y-19865398D01*
X123346160Y-19752359D01*
X122777875Y-19865398D01*
X122296106Y-20187305D01*
X122076160Y-20516478D01*
X121856214Y-20187305D01*
X121374445Y-19865398D01*
X120806160Y-19752359D01*
X120237875Y-19865398D01*
X119756106Y-20187305D01*
X119536160Y-20516478D01*
X119316214Y-20187305D01*
X118834445Y-19865398D01*
X118266160Y-19752359D01*
X117697875Y-19865398D01*
X117216106Y-20187305D01*
X116996160Y-20516478D01*
X116776214Y-20187305D01*
X116294445Y-19865398D01*
X115726160Y-19752359D01*
X115157875Y-19865398D01*
X114676106Y-20187305D01*
X114456160Y-20516478D01*
X114236214Y-20187305D01*
X113754445Y-19865398D01*
X113186160Y-19752359D01*
X112617875Y-19865398D01*
X112136106Y-20187305D01*
X111916160Y-20516478D01*
X111696214Y-20187305D01*
X111214445Y-19865398D01*
X110646160Y-19752359D01*
X110077875Y-19865398D01*
X109596106Y-20187305D01*
X109376160Y-20516478D01*
X109156214Y-20187305D01*
X108674445Y-19865398D01*
X108106160Y-19752359D01*
X107537875Y-19865398D01*
X107056106Y-20187305D01*
X106836160Y-20516478D01*
X106616214Y-20187305D01*
X106134445Y-19865398D01*
X105566160Y-19752359D01*
X104997875Y-19865398D01*
X104516106Y-20187305D01*
X104296160Y-20516478D01*
X104076214Y-20187305D01*
X103594445Y-19865398D01*
X103026160Y-19752359D01*
X102457875Y-19865398D01*
X101976106Y-20187305D01*
X101756160Y-20516478D01*
X101536214Y-20187305D01*
X101054445Y-19865398D01*
X100486160Y-19752359D01*
X99917875Y-19865398D01*
X99436106Y-20187305D01*
X99216160Y-20516478D01*
X98996214Y-20187305D01*
X98514445Y-19865398D01*
X97946160Y-19752359D01*
X97377875Y-19865398D01*
X96896106Y-20187305D01*
X96676160Y-20516478D01*
X96456214Y-20187305D01*
X95974445Y-19865398D01*
X95406160Y-19752359D01*
X94837875Y-19865398D01*
X94356106Y-20187305D01*
X94136160Y-20516478D01*
X93916214Y-20187305D01*
X93434445Y-19865398D01*
X92866160Y-19752359D01*
X92297875Y-19865398D01*
X91816106Y-20187305D01*
X91588458Y-20528005D01*
X91521343Y-20385094D01*
X91093084Y-19994807D01*
X90683050Y-19824976D01*
X90453160Y-19946297D01*
X90199160Y-19946297D01*
X89969270Y-19824976D01*
X89559236Y-19994807D01*
X89130977Y-20385094D01*
X89063862Y-20528005D01*
X88836214Y-20187305D01*
X88354445Y-19865398D01*
X87786160Y-19752359D01*
X87217875Y-19865398D01*
X86736106Y-20187305D01*
X86516160Y-20516478D01*
X86296214Y-20187305D01*
X85814445Y-19865398D01*
X85246160Y-19752359D01*
X84677875Y-19865398D01*
X84196106Y-20187305D01*
X83976160Y-20516478D01*
X83756214Y-20187305D01*
X83274445Y-19865398D01*
X82706160Y-19752359D01*
X82137875Y-19865398D01*
X81656106Y-20187305D01*
X81436160Y-20516478D01*
X81216214Y-20187305D01*
X80734445Y-19865398D01*
X80166160Y-19752359D01*
X79597875Y-19865398D01*
X79116106Y-20187305D01*
X78794199Y-20669074D01*
X78681160Y-21237359D01*
X78681160Y-21295545D01*
X78794199Y-21863830D01*
X79116106Y-22345599D01*
X79117339Y-22346423D01*
X79080843Y-22353290D01*
X78864719Y-22492362D01*
X78719729Y-22704562D01*
X78668720Y-22956452D01*
X76785068Y-22956452D01*
X76866441Y-22904090D01*
X77011431Y-22691890D01*
X77062440Y-22440000D01*
X77062440Y-20740000D01*
X77018162Y-20504683D01*
X76879090Y-20288559D01*
X76666890Y-20143569D01*
X76415000Y-20092560D01*
X74715000Y-20092560D01*
X74479683Y-20136838D01*
X74263559Y-20275910D01*
X74118569Y-20488110D01*
X74067560Y-20740000D01*
X74067560Y-22440000D01*
X74111838Y-22675317D01*
X74250910Y-22891441D01*
X74463110Y-23036431D01*
X74530541Y-23050086D01*
X74485853Y-23079946D01*
X74163946Y-23561715D01*
X74050907Y-24130000D01*
X13462000Y-24130000D01*
X13462000Y-19034677D01*
X13525685Y-19034677D01*
X13705711Y-19470372D01*
X14038766Y-19804009D01*
X14474146Y-19984794D01*
X14945568Y-19985206D01*
X15381263Y-19805180D01*
X15529342Y-19657359D01*
X25653802Y-19657359D01*
X25827446Y-20077612D01*
X26148697Y-20399423D01*
X26568646Y-20573801D01*
X27023359Y-20574198D01*
X27443612Y-20400554D01*
X27765423Y-20079303D01*
X27835159Y-19911359D01*
X66420802Y-19911359D01*
X66594446Y-20331612D01*
X66915697Y-20653423D01*
X67335646Y-20827801D01*
X67790359Y-20828198D01*
X68210612Y-20654554D01*
X68532423Y-20333303D01*
X68706801Y-19913354D01*
X68707198Y-19458641D01*
X68533554Y-19038388D01*
X68212303Y-18716577D01*
X67792354Y-18542199D01*
X67337641Y-18541802D01*
X66917388Y-18715446D01*
X66595577Y-19036697D01*
X66421199Y-19456646D01*
X66420802Y-19911359D01*
X27835159Y-19911359D01*
X27939801Y-19659354D01*
X27940198Y-19204641D01*
X27766554Y-18784388D01*
X27445303Y-18462577D01*
X27025354Y-18288199D01*
X26570641Y-18287802D01*
X26150388Y-18461446D01*
X25828577Y-18782697D01*
X25654199Y-19202646D01*
X25653802Y-19657359D01*
X15529342Y-19657359D01*
X15714900Y-19472125D01*
X15895685Y-19036745D01*
X15896097Y-18565323D01*
X15716071Y-18129628D01*
X15383016Y-17795991D01*
X14947636Y-17615206D01*
X14476214Y-17614794D01*
X14040519Y-17794820D01*
X13706882Y-18127875D01*
X13526097Y-18563255D01*
X13525685Y-19034677D01*
X13462000Y-19034677D01*
X13462000Y-13462000D01*
X134012000Y-13462000D01*
X134012000Y-161798000D01*
X134012000Y-161798000D01*
G37*
X134012000Y-161798000D02*
X13462000Y-161798000D01*
X13462000Y-160199011D01*
X78740594Y-160199011D01*
X79211014Y-160782782D01*
X80923767Y-161517807D01*
X82787426Y-161541439D01*
X84518266Y-160850081D01*
X84618986Y-160782782D01*
X85089406Y-160199011D01*
X81915000Y-157024605D01*
X78740594Y-160199011D01*
X13462000Y-160199011D01*
X13462000Y-157717426D01*
X77218561Y-157717426D01*
X77909919Y-159448266D01*
X77977218Y-159548986D01*
X78560989Y-160019406D01*
X81735395Y-156845000D01*
X82094605Y-156845000D01*
X85269011Y-160019406D01*
X85852782Y-159548986D01*
X86587807Y-157836233D01*
X86588611Y-157772816D01*
X89929188Y-157772816D01*
X90640934Y-159495373D01*
X91957695Y-160814434D01*
X93679007Y-161529185D01*
X95542816Y-161530812D01*
X97265373Y-160819066D01*
X98584434Y-159502305D01*
X99299185Y-157780993D01*
X99300812Y-155917184D01*
X98589066Y-154194627D01*
X97272305Y-152875566D01*
X95550993Y-152160815D01*
X93687184Y-152159188D01*
X91964627Y-152870934D01*
X90645566Y-154187695D01*
X89930815Y-155909007D01*
X89929188Y-157772816D01*
X86588611Y-157772816D01*
X86611439Y-155972574D01*
X85920081Y-154241734D01*
X85852782Y-154141014D01*
X85269011Y-153670594D01*
X82094605Y-156845000D01*
X81735395Y-156845000D01*
X78560989Y-153670594D01*
X77977218Y-154141014D01*
X77242193Y-155853767D01*
X77218561Y-157717426D01*
X13462000Y-157717426D01*
X13462000Y-153490989D01*
X78740594Y-153490989D01*
X81915000Y-156665395D01*
X85089406Y-153490989D01*
X84618986Y-152907218D01*
X82906233Y-152172193D01*
X81042574Y-152148561D01*
X79311734Y-152839919D01*
X79211014Y-152907218D01*
X78740594Y-153490989D01*
X13462000Y-153490989D01*
X13462000Y-146804531D01*
X39369340Y-146804531D01*
X39948156Y-148205372D01*
X41018991Y-149278077D01*
X42418819Y-149859337D01*
X43934531Y-149860660D01*
X45335372Y-149281844D01*
X46408077Y-148211009D01*
X46989337Y-146811181D01*
X46990660Y-145295469D01*
X46411844Y-143894628D01*
X45341009Y-142821923D01*
X43941181Y-142240663D01*
X42425469Y-142239340D01*
X41024628Y-142818156D01*
X39951923Y-143888991D01*
X39370663Y-145288819D01*
X39369340Y-146804531D01*
X13462000Y-146804531D01*
X13462000Y-137513359D01*
X29717802Y-137513359D01*
X29891446Y-137933612D01*
X30212697Y-138255423D01*
X30632646Y-138429801D01*
X31087359Y-138430198D01*
X31507612Y-138256554D01*
X31829423Y-137935303D01*
X32003801Y-137515354D01*
X32003802Y-137513359D01*
X32384802Y-137513359D01*
X32558446Y-137933612D01*
X32879697Y-138255423D01*
X33299646Y-138429801D01*
X33754359Y-138430198D01*
X34174612Y-138256554D01*
X34496423Y-137935303D01*
X34670801Y-137515354D01*
X34671198Y-137060641D01*
X34497554Y-136640388D01*
X34176303Y-136318577D01*
X33756354Y-136144199D01*
X33301641Y-136143802D01*
X32881388Y-136317446D01*
X32559577Y-136638697D01*
X32385199Y-137058646D01*
X32384802Y-137513359D01*
X32003802Y-137513359D01*
X32004198Y-137060641D01*
X31830554Y-136640388D01*
X31509303Y-136318577D01*
X31089354Y-136144199D01*
X30634641Y-136143802D01*
X30214388Y-136317446D01*
X29892577Y-136638697D01*
X29718199Y-137058646D01*
X29717802Y-137513359D01*
X13462000Y-137513359D01*
X13462000Y-132598383D01*
X41082769Y-132598383D01*
X41285582Y-133089229D01*
X41660796Y-133465098D01*
X42151287Y-133668768D01*
X42682383Y-133669231D01*
X43173229Y-133466418D01*
X43356322Y-133283644D01*
X43780964Y-133567379D01*
X44291846Y-133669000D01*
X44344154Y-133669000D01*
X44855036Y-133567379D01*
X45288142Y-133277988D01*
X45577533Y-132844882D01*
X45679154Y-132334000D01*
X45577533Y-131823118D01*
X45518977Y-131735482D01*
X79057357Y-131735482D01*
X79182767Y-132038998D01*
X79287066Y-132143479D01*
X79183583Y-132246781D01*
X79057643Y-132550077D01*
X79057357Y-132878482D01*
X79182767Y-133181998D01*
X79414781Y-133414417D01*
X79718077Y-133540357D01*
X80046482Y-133540643D01*
X80349998Y-133415233D01*
X80582417Y-133183219D01*
X80708357Y-132879923D01*
X80708643Y-132551518D01*
X80583233Y-132248002D01*
X80478934Y-132143521D01*
X80582417Y-132040219D01*
X80708357Y-131736923D01*
X80708489Y-131584980D01*
X84010357Y-131584980D01*
X84135767Y-131888496D01*
X84367781Y-132120915D01*
X84671077Y-132246855D01*
X84999482Y-132247141D01*
X85008337Y-132243482D01*
X87058357Y-132243482D01*
X87183767Y-132546998D01*
X87415781Y-132779417D01*
X87719077Y-132905357D01*
X88047482Y-132905643D01*
X88350998Y-132780233D01*
X88583417Y-132548219D01*
X88709357Y-132244923D01*
X88709643Y-131916518D01*
X88634841Y-131735482D01*
X97853357Y-131735482D01*
X97978767Y-132038998D01*
X98146566Y-132207089D01*
X97979583Y-132373781D01*
X97853643Y-132677077D01*
X97853357Y-133005482D01*
X97978767Y-133308998D01*
X98210781Y-133541417D01*
X98514077Y-133667357D01*
X98842482Y-133667643D01*
X99145998Y-133542233D01*
X99378417Y-133310219D01*
X99504357Y-133006923D01*
X99504643Y-132678518D01*
X99379233Y-132375002D01*
X99211434Y-132206911D01*
X99378417Y-132040219D01*
X99504357Y-131736923D01*
X99504579Y-131481482D01*
X102806357Y-131481482D01*
X102931767Y-131784998D01*
X103163781Y-132017417D01*
X103467077Y-132143357D01*
X103795482Y-132143643D01*
X103861216Y-132116482D01*
X105981357Y-132116482D01*
X106106767Y-132419998D01*
X106338781Y-132652417D01*
X106642077Y-132778357D01*
X106970482Y-132778643D01*
X107273998Y-132653233D01*
X107506417Y-132421219D01*
X107632357Y-132117923D01*
X107632643Y-131789518D01*
X107507233Y-131486002D01*
X107275219Y-131253583D01*
X106971923Y-131127643D01*
X106643518Y-131127357D01*
X106340002Y-131252767D01*
X106107583Y-131484781D01*
X105981643Y-131788077D01*
X105981357Y-132116482D01*
X103861216Y-132116482D01*
X104098998Y-132018233D01*
X104331417Y-131786219D01*
X104457357Y-131482923D01*
X104457643Y-131154518D01*
X104332233Y-130851002D01*
X104100219Y-130618583D01*
X103796923Y-130492643D01*
X103468518Y-130492357D01*
X103165002Y-130617767D01*
X102932583Y-130849781D01*
X102806643Y-131153077D01*
X102806357Y-131481482D01*
X99504579Y-131481482D01*
X99504643Y-131408518D01*
X99379233Y-131105002D01*
X99147219Y-130872583D01*
X98843923Y-130746643D01*
X98515518Y-130746357D01*
X98212002Y-130871767D01*
X97979583Y-131103781D01*
X97853643Y-131407077D01*
X97853357Y-131735482D01*
X88634841Y-131735482D01*
X88584233Y-131613002D01*
X88352219Y-131380583D01*
X88048923Y-131254643D01*
X87720518Y-131254357D01*
X87417002Y-131379767D01*
X87184583Y-131611781D01*
X87058643Y-131915077D01*
X87058357Y-132243482D01*
X85008337Y-132243482D01*
X85302998Y-132121731D01*
X85535417Y-131889717D01*
X85661357Y-131586421D01*
X85661643Y-131258016D01*
X85536233Y-130954500D01*
X85304219Y-130722081D01*
X85000923Y-130596141D01*
X84672518Y-130595855D01*
X84369002Y-130721265D01*
X84136583Y-130953279D01*
X84010643Y-131256575D01*
X84010357Y-131584980D01*
X80708489Y-131584980D01*
X80708643Y-131408518D01*
X80583233Y-131105002D01*
X80351219Y-130872583D01*
X80047923Y-130746643D01*
X79719518Y-130746357D01*
X79416002Y-130871767D01*
X79183583Y-131103781D01*
X79057643Y-131407077D01*
X79057357Y-131735482D01*
X45518977Y-131735482D01*
X45288142Y-131390012D01*
X44855036Y-131100621D01*
X44344154Y-130999000D01*
X44291846Y-130999000D01*
X43780964Y-131100621D01*
X43356334Y-131384348D01*
X43175204Y-131202902D01*
X42684713Y-130999232D01*
X42153617Y-130998769D01*
X41662771Y-131201582D01*
X41286902Y-131576796D01*
X41083232Y-132067287D01*
X41082769Y-132598383D01*
X13462000Y-132598383D01*
X13462000Y-130057163D01*
X37127443Y-130057163D01*
X37226042Y-130323965D01*
X37835582Y-130550401D01*
X38485377Y-130526341D01*
X38973958Y-130323965D01*
X39072557Y-130057163D01*
X38100000Y-129084605D01*
X37127443Y-130057163D01*
X13462000Y-130057163D01*
X13462000Y-128640582D01*
X36454599Y-128640582D01*
X36478659Y-129290377D01*
X36681035Y-129778958D01*
X36947837Y-129877557D01*
X37920395Y-128905000D01*
X38279605Y-128905000D01*
X39252163Y-129877557D01*
X39518965Y-129778958D01*
X39723380Y-129228694D01*
X46625226Y-129228694D01*
X46873538Y-129829655D01*
X47332927Y-130289846D01*
X47933453Y-130539206D01*
X48583694Y-130539774D01*
X49184655Y-130291462D01*
X49644846Y-129832073D01*
X49894206Y-129231547D01*
X49894774Y-128581306D01*
X49646462Y-127980345D01*
X49187073Y-127520154D01*
X48586547Y-127270794D01*
X47936306Y-127270226D01*
X47335345Y-127518538D01*
X46875154Y-127977927D01*
X46625794Y-128578453D01*
X46625226Y-129228694D01*
X39723380Y-129228694D01*
X39745401Y-129169418D01*
X39721341Y-128519623D01*
X39518965Y-128031042D01*
X39252163Y-127932443D01*
X38279605Y-128905000D01*
X37920395Y-128905000D01*
X36947837Y-127932443D01*
X36681035Y-128031042D01*
X36454599Y-128640582D01*
X13462000Y-128640582D01*
X13462000Y-127752837D01*
X37127443Y-127752837D01*
X38100000Y-128725395D01*
X39072557Y-127752837D01*
X38973958Y-127486035D01*
X38364418Y-127259599D01*
X37714623Y-127283659D01*
X37226042Y-127486035D01*
X37127443Y-127752837D01*
X13462000Y-127752837D01*
X13462000Y-125697248D01*
X52734135Y-125697248D01*
X52828144Y-126169862D01*
X53095858Y-126570525D01*
X53496521Y-126838239D01*
X53969135Y-126932248D01*
X54125942Y-126932248D01*
X53887310Y-127289386D01*
X53793301Y-127762000D01*
X53887310Y-128234614D01*
X54155024Y-128635277D01*
X54555687Y-128902991D01*
X55028301Y-128997000D01*
X55076691Y-128997000D01*
X55549305Y-128902991D01*
X55872002Y-128687372D01*
X55952062Y-129089862D01*
X56219776Y-129490525D01*
X56620439Y-129758239D01*
X57093053Y-129852248D01*
X57141443Y-129852248D01*
X57614057Y-129758239D01*
X58014720Y-129490525D01*
X58282434Y-129089862D01*
X58366242Y-128668532D01*
X58431844Y-128743080D01*
X58864389Y-128955472D01*
X59055000Y-128831714D01*
X59055000Y-127889000D01*
X59309000Y-127889000D01*
X59309000Y-128831714D01*
X59499611Y-128955472D01*
X59932156Y-128743080D01*
X60250497Y-128381327D01*
X60375462Y-128079609D01*
X60250731Y-127889000D01*
X59309000Y-127889000D01*
X59055000Y-127889000D01*
X59035000Y-127889000D01*
X59035000Y-127635000D01*
X59055000Y-127635000D01*
X59055000Y-127615000D01*
X59309000Y-127615000D01*
X59309000Y-127635000D01*
X60250731Y-127635000D01*
X60375462Y-127444391D01*
X60250497Y-127142673D01*
X60064746Y-126931591D01*
X60534057Y-126838239D01*
X60934720Y-126570525D01*
X61202434Y-126169862D01*
X61296443Y-125697248D01*
X61202434Y-125224634D01*
X60934720Y-124823971D01*
X60534057Y-124556257D01*
X60103027Y-124470520D01*
X60347186Y-124105110D01*
X60441195Y-123632496D01*
X60347186Y-123159882D01*
X60079472Y-122759219D01*
X59678809Y-122491505D01*
X59206195Y-122397496D01*
X59157805Y-122397496D01*
X58685191Y-122491505D01*
X58362494Y-122707124D01*
X58282434Y-122304634D01*
X58014720Y-121903971D01*
X57614057Y-121636257D01*
X57141443Y-121542248D01*
X57093053Y-121542248D01*
X56620439Y-121636257D01*
X56219776Y-121903971D01*
X55952062Y-122304634D01*
X55872002Y-122707124D01*
X55549305Y-122491505D01*
X55076691Y-122397496D01*
X55028301Y-122397496D01*
X54555687Y-122491505D01*
X54155024Y-122759219D01*
X53887310Y-123159882D01*
X53793301Y-123632496D01*
X53887310Y-124105110D01*
X54125942Y-124462248D01*
X53969135Y-124462248D01*
X53496521Y-124556257D01*
X53095858Y-124823971D01*
X52828144Y-125224634D01*
X52734135Y-125697248D01*
X13462000Y-125697248D01*
X13462000Y-123072163D01*
X37127443Y-123072163D01*
X37226042Y-123338965D01*
X37835582Y-123565401D01*
X38485377Y-123541341D01*
X38973958Y-123338965D01*
X39072557Y-123072163D01*
X38100000Y-122099605D01*
X37127443Y-123072163D01*
X13462000Y-123072163D01*
X13462000Y-121655582D01*
X36454599Y-121655582D01*
X36478659Y-122305377D01*
X36681035Y-122793958D01*
X36947837Y-122892557D01*
X37920395Y-121920000D01*
X38279605Y-121920000D01*
X39252163Y-122892557D01*
X39518965Y-122793958D01*
X39723380Y-122243694D01*
X46625226Y-122243694D01*
X46873538Y-122844655D01*
X47332927Y-123304846D01*
X47933453Y-123554206D01*
X48583694Y-123554774D01*
X49184655Y-123306462D01*
X49644846Y-122847073D01*
X49894206Y-122246547D01*
X49894774Y-121596306D01*
X49646462Y-120995345D01*
X49274127Y-120622359D01*
X49656802Y-120622359D01*
X49830446Y-121042612D01*
X50151697Y-121364423D01*
X50571646Y-121538801D01*
X51026359Y-121539198D01*
X51446612Y-121365554D01*
X51768423Y-121044303D01*
X51942801Y-120624354D01*
X51943198Y-120169641D01*
X51769554Y-119749388D01*
X51448303Y-119427577D01*
X51028354Y-119253199D01*
X50573641Y-119252802D01*
X50153388Y-119426446D01*
X49831577Y-119747697D01*
X49657199Y-120167646D01*
X49656802Y-120622359D01*
X49274127Y-120622359D01*
X49187073Y-120535154D01*
X48586547Y-120285794D01*
X47936306Y-120285226D01*
X47335345Y-120533538D01*
X46875154Y-120992927D01*
X46625794Y-121593453D01*
X46625226Y-122243694D01*
X39723380Y-122243694D01*
X39745401Y-122184418D01*
X39721341Y-121534623D01*
X39518965Y-121046042D01*
X39252163Y-120947443D01*
X38279605Y-121920000D01*
X37920395Y-121920000D01*
X36947837Y-120947443D01*
X36681035Y-121046042D01*
X36454599Y-121655582D01*
X13462000Y-121655582D01*
X13462000Y-120767837D01*
X37127443Y-120767837D01*
X38100000Y-121740395D01*
X39072557Y-120767837D01*
X38973958Y-120501035D01*
X38364418Y-120274599D01*
X37714623Y-120298659D01*
X37226042Y-120501035D01*
X37127443Y-120767837D01*
X13462000Y-120767837D01*
X13462000Y-119009383D01*
X41082769Y-119009383D01*
X41285582Y-119500229D01*
X41660796Y-119876098D01*
X42151287Y-120079768D01*
X42682383Y-120080231D01*
X43173229Y-119877418D01*
X43356322Y-119694644D01*
X43780964Y-119978379D01*
X44291846Y-120080000D01*
X44344154Y-120080000D01*
X44855036Y-119978379D01*
X45288142Y-119688988D01*
X45577533Y-119255882D01*
X45679154Y-118745000D01*
X45577533Y-118234118D01*
X45288142Y-117801012D01*
X44855036Y-117511621D01*
X44344154Y-117410000D01*
X44291846Y-117410000D01*
X43780964Y-117511621D01*
X43356334Y-117795348D01*
X43175204Y-117613902D01*
X42684713Y-117410232D01*
X42153617Y-117409769D01*
X41662771Y-117612582D01*
X41286902Y-117987796D01*
X41083232Y-118478287D01*
X41082769Y-119009383D01*
X13462000Y-119009383D01*
X13462000Y-113764359D01*
X31114802Y-113764359D01*
X31288446Y-114184612D01*
X31609697Y-114506423D01*
X32029646Y-114680801D01*
X32484359Y-114681198D01*
X32904612Y-114507554D01*
X33226423Y-114186303D01*
X33400801Y-113766354D01*
X33400802Y-113764359D01*
X33781802Y-113764359D01*
X33955446Y-114184612D01*
X34276697Y-114506423D01*
X34696646Y-114680801D01*
X35151359Y-114681198D01*
X35571612Y-114507554D01*
X35893423Y-114186303D01*
X36067801Y-113766354D01*
X36068198Y-113311641D01*
X35940407Y-113002359D01*
X80136802Y-113002359D01*
X80310446Y-113422612D01*
X80631697Y-113744423D01*
X81051646Y-113918801D01*
X81506359Y-113919198D01*
X81926612Y-113745554D01*
X82248423Y-113424303D01*
X82422801Y-113004354D01*
X82423198Y-112549641D01*
X82249554Y-112129388D01*
X81928303Y-111807577D01*
X81508354Y-111633199D01*
X81053641Y-111632802D01*
X80633388Y-111806446D01*
X80311577Y-112127697D01*
X80137199Y-112547646D01*
X80136802Y-113002359D01*
X35940407Y-113002359D01*
X35894554Y-112891388D01*
X35573303Y-112569577D01*
X35153354Y-112395199D01*
X34698641Y-112394802D01*
X34278388Y-112568446D01*
X33956577Y-112889697D01*
X33782199Y-113309646D01*
X33781802Y-113764359D01*
X33400802Y-113764359D01*
X33401198Y-113311641D01*
X33227554Y-112891388D01*
X32906303Y-112569577D01*
X32486354Y-112395199D01*
X32031641Y-112394802D01*
X31611388Y-112568446D01*
X31289577Y-112889697D01*
X31115199Y-113309646D01*
X31114802Y-113764359D01*
X13462000Y-113764359D01*
X13462000Y-105402531D01*
X39369340Y-105402531D01*
X39948156Y-106803372D01*
X41018991Y-107876077D01*
X42418819Y-108457337D01*
X43934531Y-108458660D01*
X45335372Y-107879844D01*
X46408077Y-106809009D01*
X46989337Y-105409181D01*
X46989471Y-105255359D01*
X103250802Y-105255359D01*
X103424446Y-105675612D01*
X103745697Y-105997423D01*
X104165646Y-106171801D01*
X104620359Y-106172198D01*
X105040612Y-105998554D01*
X105362423Y-105677303D01*
X105536801Y-105257354D01*
X105537198Y-104802641D01*
X105363554Y-104382388D01*
X105042303Y-104060577D01*
X104622354Y-103886199D01*
X104167641Y-103885802D01*
X103747388Y-104059446D01*
X103425577Y-104380697D01*
X103251199Y-104800646D01*
X103250802Y-105255359D01*
X46989471Y-105255359D01*
X46990660Y-103893469D01*
X46635321Y-103033482D01*
X95694357Y-103033482D01*
X95819767Y-103336998D01*
X96051781Y-103569417D01*
X96355077Y-103695357D01*
X96683482Y-103695643D01*
X96986998Y-103570233D01*
X97219417Y-103338219D01*
X97345357Y-103034923D01*
X97345643Y-102706518D01*
X97323316Y-102652482D01*
X97345357Y-102652482D01*
X97470767Y-102955998D01*
X97702781Y-103188417D01*
X98006077Y-103314357D01*
X98334482Y-103314643D01*
X98637998Y-103189233D01*
X98870417Y-102957219D01*
X98891484Y-102906482D01*
X105092357Y-102906482D01*
X105217767Y-103209998D01*
X105449781Y-103442417D01*
X105753077Y-103568357D01*
X106081482Y-103568643D01*
X106384998Y-103443233D01*
X106617417Y-103211219D01*
X106743357Y-102907923D01*
X106743643Y-102579518D01*
X106618233Y-102276002D01*
X106386219Y-102043583D01*
X106082923Y-101917643D01*
X105754518Y-101917357D01*
X105451002Y-102042767D01*
X105218583Y-102274781D01*
X105092643Y-102578077D01*
X105092357Y-102906482D01*
X98891484Y-102906482D01*
X98996357Y-102653923D01*
X98996643Y-102325518D01*
X98871233Y-102022002D01*
X98639219Y-101789583D01*
X98335923Y-101663643D01*
X98007518Y-101663357D01*
X97704002Y-101788767D01*
X97471583Y-102020781D01*
X97345643Y-102324077D01*
X97345357Y-102652482D01*
X97323316Y-102652482D01*
X97220233Y-102403002D01*
X96988219Y-102170583D01*
X96684923Y-102044643D01*
X96356518Y-102044357D01*
X96053002Y-102169767D01*
X95820583Y-102401781D01*
X95694643Y-102705077D01*
X95694357Y-103033482D01*
X46635321Y-103033482D01*
X46411844Y-102492628D01*
X45341009Y-101419923D01*
X43941181Y-100838663D01*
X42425469Y-100837340D01*
X41024628Y-101416156D01*
X39951923Y-102486991D01*
X39370663Y-103886819D01*
X39369340Y-105402531D01*
X13462000Y-105402531D01*
X13462000Y-100757471D01*
X99454410Y-100757471D01*
X99579820Y-101060987D01*
X99811834Y-101293406D01*
X100115130Y-101419346D01*
X100363960Y-101419563D01*
X100642731Y-101698821D01*
X101016018Y-101853824D01*
X101420208Y-101854176D01*
X101793766Y-101699825D01*
X102079821Y-101414269D01*
X102234824Y-101040982D01*
X102235176Y-100636792D01*
X102160888Y-100457000D01*
X107451907Y-100457000D01*
X107564946Y-101025285D01*
X107886853Y-101507054D01*
X108216026Y-101727000D01*
X107886853Y-101946946D01*
X107564946Y-102428715D01*
X107451907Y-102997000D01*
X107564946Y-103565285D01*
X107886853Y-104047054D01*
X108216026Y-104267000D01*
X107886853Y-104486946D01*
X107564946Y-104968715D01*
X107451907Y-105537000D01*
X107564946Y-106105285D01*
X107886853Y-106587054D01*
X108216026Y-106807000D01*
X107886853Y-107026946D01*
X107564946Y-107508715D01*
X107451907Y-108077000D01*
X107564946Y-108645285D01*
X107886853Y-109127054D01*
X107928452Y-109154850D01*
X107880683Y-109163838D01*
X107664559Y-109302910D01*
X107519569Y-109515110D01*
X107468560Y-109767000D01*
X107468560Y-111467000D01*
X107512838Y-111702317D01*
X107651910Y-111918441D01*
X107864110Y-112063431D01*
X108116000Y-112114440D01*
X109816000Y-112114440D01*
X110051317Y-112070162D01*
X110267441Y-111931090D01*
X110412431Y-111718890D01*
X110463440Y-111467000D01*
X110463440Y-109767000D01*
X110419162Y-109531683D01*
X110280090Y-109315559D01*
X110067890Y-109170569D01*
X110000459Y-109156914D01*
X110045147Y-109127054D01*
X110367054Y-108645285D01*
X110480093Y-108077000D01*
X110367054Y-107508715D01*
X110045147Y-107026946D01*
X109715974Y-106807000D01*
X110045147Y-106587054D01*
X110367054Y-106105285D01*
X110480093Y-105537000D01*
X110367054Y-104968715D01*
X110045147Y-104486946D01*
X109715974Y-104267000D01*
X110045147Y-104047054D01*
X110367054Y-103565285D01*
X110480093Y-102997000D01*
X110367054Y-102428715D01*
X110045147Y-101946946D01*
X109715974Y-101727000D01*
X110045147Y-101507054D01*
X110367054Y-101025285D01*
X110480093Y-100457000D01*
X110367054Y-99888715D01*
X110045147Y-99406946D01*
X109563378Y-99085039D01*
X108995093Y-98972000D01*
X108936907Y-98972000D01*
X108368622Y-99085039D01*
X107886853Y-99406946D01*
X107564946Y-99888715D01*
X107451907Y-100457000D01*
X102160888Y-100457000D01*
X102080825Y-100263234D01*
X101917994Y-100100119D01*
X102053436Y-99773940D01*
X102053788Y-99369750D01*
X101899437Y-98996192D01*
X101613881Y-98710137D01*
X101240594Y-98555134D01*
X100992215Y-98554918D01*
X100798219Y-98360583D01*
X100494923Y-98234643D01*
X100166518Y-98234357D01*
X99863002Y-98359767D01*
X99630583Y-98591781D01*
X99504643Y-98895077D01*
X99504357Y-99223482D01*
X99629767Y-99526998D01*
X99861781Y-99759417D01*
X99999639Y-99816661D01*
X99813055Y-99893756D01*
X99580636Y-100125770D01*
X99454696Y-100429066D01*
X99454410Y-100757471D01*
X13462000Y-100757471D01*
X13462000Y-98737167D01*
X87964838Y-98737167D01*
X88106883Y-99080943D01*
X88369673Y-99344192D01*
X88713201Y-99486838D01*
X89085167Y-99487162D01*
X89428943Y-99345117D01*
X89615025Y-99159359D01*
X90677802Y-99159359D01*
X90851446Y-99579612D01*
X91172697Y-99901423D01*
X91592646Y-100075801D01*
X92047359Y-100076198D01*
X92467612Y-99902554D01*
X92789423Y-99581303D01*
X92963801Y-99161354D01*
X92964198Y-98706641D01*
X92790554Y-98286388D01*
X92469303Y-97964577D01*
X92049354Y-97790199D01*
X91594641Y-97789802D01*
X91174388Y-97963446D01*
X90852577Y-98284697D01*
X90678199Y-98704646D01*
X90677802Y-99159359D01*
X89615025Y-99159359D01*
X89692192Y-99082327D01*
X89834838Y-98738799D01*
X89835162Y-98366833D01*
X89693117Y-98023057D01*
X89430327Y-97759808D01*
X89086799Y-97617162D01*
X88714833Y-97616838D01*
X88371057Y-97758883D01*
X88107808Y-98021673D01*
X87965162Y-98365201D01*
X87964838Y-98737167D01*
X13462000Y-98737167D01*
X13462000Y-93002816D01*
X14364188Y-93002816D01*
X15075934Y-94725373D01*
X16392695Y-96044434D01*
X18114007Y-96759185D01*
X19977816Y-96760812D01*
X20472332Y-96556482D01*
X71945357Y-96556482D01*
X72070767Y-96859998D01*
X72302781Y-97092417D01*
X72606077Y-97218357D01*
X72934482Y-97218643D01*
X73237998Y-97093233D01*
X73267531Y-97063752D01*
X73340767Y-97240998D01*
X73572781Y-97473417D01*
X73876077Y-97599357D01*
X74204482Y-97599643D01*
X74507998Y-97474233D01*
X74740417Y-97242219D01*
X74866357Y-96938923D01*
X74866635Y-96619359D01*
X85343802Y-96619359D01*
X85517446Y-97039612D01*
X85838697Y-97361423D01*
X86258646Y-97535801D01*
X86713359Y-97536198D01*
X87133612Y-97362554D01*
X87455423Y-97041303D01*
X87629801Y-96621354D01*
X87629968Y-96429482D01*
X96202357Y-96429482D01*
X96327767Y-96732998D01*
X96559781Y-96965417D01*
X96863077Y-97091357D01*
X97191482Y-97091643D01*
X97494998Y-96966233D01*
X97624386Y-96837070D01*
X97625077Y-96837357D01*
X97953482Y-96837643D01*
X98171160Y-96747700D01*
X98387077Y-96837357D01*
X98715482Y-96837643D01*
X99018998Y-96712233D01*
X99047799Y-96683482D01*
X99504357Y-96683482D01*
X99629767Y-96986998D01*
X99861781Y-97219417D01*
X100165077Y-97345357D01*
X100493482Y-97345643D01*
X100796998Y-97220233D01*
X100830539Y-97186750D01*
X102401000Y-97186750D01*
X102401000Y-97877309D01*
X102497673Y-98110698D01*
X102676301Y-98289327D01*
X102909690Y-98386000D01*
X103600250Y-98386000D01*
X103759000Y-98227250D01*
X103759000Y-97028000D01*
X102559750Y-97028000D01*
X102401000Y-97186750D01*
X100830539Y-97186750D01*
X101029417Y-96988219D01*
X101155357Y-96684923D01*
X101155643Y-96356518D01*
X101030233Y-96053002D01*
X100902146Y-95924691D01*
X102401000Y-95924691D01*
X102401000Y-96615250D01*
X102559750Y-96774000D01*
X103759000Y-96774000D01*
X103759000Y-95574750D01*
X104013000Y-95574750D01*
X104013000Y-96774000D01*
X104033000Y-96774000D01*
X104033000Y-97028000D01*
X104013000Y-97028000D01*
X104013000Y-98227250D01*
X104171750Y-98386000D01*
X104862310Y-98386000D01*
X105095699Y-98289327D01*
X105274327Y-98110698D01*
X105346597Y-97936223D01*
X105375946Y-97980147D01*
X105857715Y-98302054D01*
X106426000Y-98415093D01*
X106994285Y-98302054D01*
X107476054Y-97980147D01*
X107696000Y-97650974D01*
X107915946Y-97980147D01*
X108397715Y-98302054D01*
X108966000Y-98415093D01*
X109534285Y-98302054D01*
X110016054Y-97980147D01*
X110337961Y-97498378D01*
X110451000Y-96930093D01*
X110451000Y-96871907D01*
X110337961Y-96303622D01*
X110016054Y-95821853D01*
X109534285Y-95499946D01*
X108966000Y-95386907D01*
X108397715Y-95499946D01*
X107915946Y-95821853D01*
X107696000Y-96151026D01*
X107476054Y-95821853D01*
X106994285Y-95499946D01*
X106426000Y-95386907D01*
X105857715Y-95499946D01*
X105375946Y-95821853D01*
X105346597Y-95865777D01*
X105274327Y-95691302D01*
X105095699Y-95512673D01*
X104862310Y-95416000D01*
X104171750Y-95416000D01*
X104013000Y-95574750D01*
X103759000Y-95574750D01*
X103600250Y-95416000D01*
X102909690Y-95416000D01*
X102676301Y-95512673D01*
X102497673Y-95691302D01*
X102401000Y-95924691D01*
X100902146Y-95924691D01*
X100798219Y-95820583D01*
X100494923Y-95694643D01*
X100166518Y-95694357D01*
X99863002Y-95819767D01*
X99630583Y-96051781D01*
X99504643Y-96355077D01*
X99504357Y-96683482D01*
X99047799Y-96683482D01*
X99251417Y-96480219D01*
X99377357Y-96176923D01*
X99377643Y-95848518D01*
X99252233Y-95545002D01*
X99020219Y-95312583D01*
X98716923Y-95186643D01*
X98388518Y-95186357D01*
X98170840Y-95276300D01*
X97954923Y-95186643D01*
X97626518Y-95186357D01*
X97323002Y-95311767D01*
X97193614Y-95440930D01*
X97192923Y-95440643D01*
X96864518Y-95440357D01*
X96561002Y-95565767D01*
X96328583Y-95797781D01*
X96202643Y-96101077D01*
X96202357Y-96429482D01*
X87629968Y-96429482D01*
X87630198Y-96166641D01*
X87456554Y-95746388D01*
X87135303Y-95424577D01*
X86715354Y-95250199D01*
X86260641Y-95249802D01*
X85840388Y-95423446D01*
X85518577Y-95744697D01*
X85344199Y-96164646D01*
X85343802Y-96619359D01*
X74866635Y-96619359D01*
X74866643Y-96610518D01*
X74741233Y-96307002D01*
X74509219Y-96074583D01*
X74205923Y-95948643D01*
X73877518Y-95948357D01*
X73574002Y-96073767D01*
X73544469Y-96103248D01*
X73471233Y-95926002D01*
X73239219Y-95693583D01*
X72935923Y-95567643D01*
X72607518Y-95567357D01*
X72304002Y-95692767D01*
X72071583Y-95924781D01*
X71945643Y-96228077D01*
X71945357Y-96556482D01*
X20472332Y-96556482D01*
X21700373Y-96049066D01*
X23019434Y-94732305D01*
X23459209Y-93673208D01*
X76707824Y-93673208D01*
X76862175Y-94046766D01*
X77147731Y-94332821D01*
X77521018Y-94487824D01*
X77925208Y-94488176D01*
X78298766Y-94333825D01*
X78584821Y-94048269D01*
X78624646Y-93952359D01*
X90550802Y-93952359D01*
X90724446Y-94372612D01*
X91045697Y-94694423D01*
X91465646Y-94868801D01*
X91920359Y-94869198D01*
X92340612Y-94695554D01*
X92662423Y-94374303D01*
X92836801Y-93954354D01*
X92837198Y-93499641D01*
X92663554Y-93079388D01*
X92342303Y-92757577D01*
X91922354Y-92583199D01*
X91467641Y-92582802D01*
X91047388Y-92756446D01*
X90725577Y-93077697D01*
X90551199Y-93497646D01*
X90550802Y-93952359D01*
X78624646Y-93952359D01*
X78739824Y-93674982D01*
X78740176Y-93270792D01*
X78585825Y-92897234D01*
X78300269Y-92611179D01*
X78074570Y-92517460D01*
X78612824Y-92517460D01*
X78767175Y-92891018D01*
X79052731Y-93177073D01*
X79426018Y-93332076D01*
X79830208Y-93332428D01*
X80203766Y-93178077D01*
X80489821Y-92892521D01*
X80644824Y-92519234D01*
X80645176Y-92115044D01*
X80490825Y-91741486D01*
X80205269Y-91455431D01*
X79831982Y-91300428D01*
X79427792Y-91300076D01*
X79054234Y-91454427D01*
X78768179Y-91739983D01*
X78613176Y-92113270D01*
X78612824Y-92517460D01*
X78074570Y-92517460D01*
X77926982Y-92456176D01*
X77522792Y-92455824D01*
X77149234Y-92610175D01*
X76863179Y-92895731D01*
X76708176Y-93269018D01*
X76707824Y-93673208D01*
X23459209Y-93673208D01*
X23734185Y-93010993D01*
X23734615Y-92517460D01*
X65912824Y-92517460D01*
X66067175Y-92891018D01*
X66352731Y-93177073D01*
X66726018Y-93332076D01*
X67130208Y-93332428D01*
X67503766Y-93178077D01*
X67789821Y-92892521D01*
X67944824Y-92519234D01*
X67944825Y-92517460D01*
X70357824Y-92517460D01*
X70512175Y-92891018D01*
X70797731Y-93177073D01*
X71171018Y-93332076D01*
X71575208Y-93332428D01*
X71948766Y-93178077D01*
X72234821Y-92892521D01*
X72389824Y-92519234D01*
X72390176Y-92115044D01*
X72235825Y-91741486D01*
X71950269Y-91455431D01*
X71576982Y-91300428D01*
X71172792Y-91300076D01*
X70799234Y-91454427D01*
X70513179Y-91739983D01*
X70358176Y-92113270D01*
X70357824Y-92517460D01*
X67944825Y-92517460D01*
X67945176Y-92115044D01*
X67790825Y-91741486D01*
X67505269Y-91455431D01*
X67131982Y-91300428D01*
X66727792Y-91300076D01*
X66354234Y-91454427D01*
X66068179Y-91739983D01*
X65913176Y-92113270D01*
X65912824Y-92517460D01*
X23734615Y-92517460D01*
X23735812Y-91147184D01*
X23520136Y-90625208D01*
X73659824Y-90625208D01*
X73814175Y-90998766D01*
X74099731Y-91284821D01*
X74473018Y-91439824D01*
X74877208Y-91440176D01*
X75250766Y-91285825D01*
X75536821Y-91000269D01*
X75691824Y-90626982D01*
X75692176Y-90222792D01*
X75537825Y-89849234D01*
X75252269Y-89563179D01*
X74878982Y-89408176D01*
X74474792Y-89407824D01*
X74101234Y-89562175D01*
X73815179Y-89847731D01*
X73660176Y-90221018D01*
X73659824Y-90625208D01*
X23520136Y-90625208D01*
X23024066Y-89424627D01*
X22942043Y-89342460D01*
X65912824Y-89342460D01*
X66067175Y-89716018D01*
X66352731Y-90002073D01*
X66726018Y-90157076D01*
X67130208Y-90157428D01*
X67503766Y-90003077D01*
X67789821Y-89717521D01*
X67944824Y-89344234D01*
X67944825Y-89342460D01*
X70357824Y-89342460D01*
X70512175Y-89716018D01*
X70797731Y-90002073D01*
X71171018Y-90157076D01*
X71575208Y-90157428D01*
X71948766Y-90003077D01*
X72234821Y-89717521D01*
X72389824Y-89344234D01*
X72390176Y-88940044D01*
X72235825Y-88566486D01*
X71950269Y-88280431D01*
X71576982Y-88125428D01*
X71172792Y-88125076D01*
X70799234Y-88279427D01*
X70513179Y-88564983D01*
X70358176Y-88938270D01*
X70357824Y-89342460D01*
X67944825Y-89342460D01*
X67945176Y-88940044D01*
X67790825Y-88566486D01*
X67505269Y-88280431D01*
X67131982Y-88125428D01*
X66727792Y-88125076D01*
X66354234Y-88279427D01*
X66068179Y-88564983D01*
X65913176Y-88938270D01*
X65912824Y-89342460D01*
X22942043Y-89342460D01*
X21707305Y-88105566D01*
X19985993Y-87390815D01*
X18122184Y-87389188D01*
X16399627Y-88100934D01*
X15080566Y-89417695D01*
X14365815Y-91139007D01*
X14364188Y-93002816D01*
X13462000Y-93002816D01*
X13462000Y-85269011D01*
X15875594Y-85269011D01*
X16346014Y-85852782D01*
X18058767Y-86587807D01*
X19922426Y-86611439D01*
X21653266Y-85920081D01*
X21753986Y-85852782D01*
X22224406Y-85269011D01*
X19050000Y-82094605D01*
X15875594Y-85269011D01*
X13462000Y-85269011D01*
X13462000Y-82787426D01*
X14353561Y-82787426D01*
X15044919Y-84518266D01*
X15112218Y-84618986D01*
X15695989Y-85089406D01*
X18870395Y-81915000D01*
X19229605Y-81915000D01*
X22404011Y-85089406D01*
X22468786Y-85037208D01*
X33908824Y-85037208D01*
X34063175Y-85410766D01*
X34348731Y-85696821D01*
X34722018Y-85851824D01*
X35126208Y-85852176D01*
X35499766Y-85697825D01*
X35785821Y-85412269D01*
X35836090Y-85291208D01*
X43941824Y-85291208D01*
X44096175Y-85664766D01*
X44222712Y-85791525D01*
X44097179Y-85916839D01*
X43942176Y-86290126D01*
X43941824Y-86694316D01*
X44096175Y-87067874D01*
X44381731Y-87353929D01*
X44755018Y-87508932D01*
X45159208Y-87509284D01*
X45532766Y-87354933D01*
X45818821Y-87069377D01*
X45973824Y-86696090D01*
X45974176Y-86291900D01*
X45819825Y-85918342D01*
X45693288Y-85791583D01*
X45818821Y-85666269D01*
X45973824Y-85292982D01*
X45974116Y-84956826D01*
X47342426Y-84956826D01*
X47516070Y-85377079D01*
X47837321Y-85698890D01*
X48257270Y-85873268D01*
X48711983Y-85873665D01*
X49132236Y-85700021D01*
X49454047Y-85378770D01*
X49628425Y-84958821D01*
X49628822Y-84504108D01*
X49455178Y-84083855D01*
X49133927Y-83762044D01*
X48713978Y-83587666D01*
X48259265Y-83587269D01*
X47839012Y-83760913D01*
X47517201Y-84082164D01*
X47342823Y-84502113D01*
X47342426Y-84956826D01*
X45974116Y-84956826D01*
X45974176Y-84888792D01*
X45819825Y-84515234D01*
X45534269Y-84229179D01*
X45160982Y-84074176D01*
X44756792Y-84073824D01*
X44383234Y-84228175D01*
X44097179Y-84513731D01*
X43942176Y-84887018D01*
X43941824Y-85291208D01*
X35836090Y-85291208D01*
X35888706Y-85164495D01*
X36134766Y-85062825D01*
X36420821Y-84777269D01*
X36575824Y-84403982D01*
X36576176Y-83999792D01*
X36421825Y-83626234D01*
X36136269Y-83340179D01*
X35762982Y-83185176D01*
X35358792Y-83184824D01*
X34985234Y-83339175D01*
X34699179Y-83624731D01*
X34596294Y-83872505D01*
X34350234Y-83974175D01*
X34064179Y-84259731D01*
X33909176Y-84633018D01*
X33908824Y-85037208D01*
X22468786Y-85037208D01*
X22987782Y-84618986D01*
X23722807Y-82906233D01*
X23738947Y-81633359D01*
X39496802Y-81633359D01*
X39670446Y-82053612D01*
X39991697Y-82375423D01*
X40411646Y-82549801D01*
X40866359Y-82550198D01*
X41286612Y-82376554D01*
X41608423Y-82055303D01*
X41782801Y-81635354D01*
X41783198Y-81180641D01*
X41609554Y-80760388D01*
X41288303Y-80438577D01*
X40868354Y-80264199D01*
X40413641Y-80263802D01*
X39993388Y-80437446D01*
X39671577Y-80758697D01*
X39497199Y-81178646D01*
X39496802Y-81633359D01*
X23738947Y-81633359D01*
X23746439Y-81042574D01*
X23055081Y-79311734D01*
X22987782Y-79211014D01*
X22841778Y-79093359D01*
X66420802Y-79093359D01*
X66594446Y-79513612D01*
X66915697Y-79835423D01*
X67335646Y-80009801D01*
X67790359Y-80010198D01*
X68210612Y-79836554D01*
X68532423Y-79515303D01*
X68706801Y-79095354D01*
X68707198Y-78640641D01*
X68533554Y-78220388D01*
X68212303Y-77898577D01*
X67792354Y-77724199D01*
X67337641Y-77723802D01*
X66917388Y-77897446D01*
X66595577Y-78218697D01*
X66421199Y-78638646D01*
X66420802Y-79093359D01*
X22841778Y-79093359D01*
X22404011Y-78740594D01*
X19229605Y-81915000D01*
X18870395Y-81915000D01*
X15695989Y-78740594D01*
X15112218Y-79211014D01*
X14377193Y-80923767D01*
X14353561Y-82787426D01*
X13462000Y-82787426D01*
X13462000Y-78560989D01*
X15875594Y-78560989D01*
X19050000Y-81735395D01*
X22224406Y-78560989D01*
X21753986Y-77977218D01*
X20041233Y-77242193D01*
X18177574Y-77218561D01*
X16446734Y-77909919D01*
X16346014Y-77977218D01*
X15875594Y-78560989D01*
X13462000Y-78560989D01*
X13462000Y-76172359D01*
X52450802Y-76172359D01*
X52624446Y-76592612D01*
X52945697Y-76914423D01*
X53365646Y-77088801D01*
X53820359Y-77089198D01*
X53887734Y-77061359D01*
X57276802Y-77061359D01*
X57450446Y-77481612D01*
X57771697Y-77803423D01*
X58191646Y-77977801D01*
X58646359Y-77978198D01*
X59066612Y-77804554D01*
X59388423Y-77483303D01*
X59562801Y-77063354D01*
X59563024Y-76807359D01*
X75056802Y-76807359D01*
X75230446Y-77227612D01*
X75551697Y-77549423D01*
X75971646Y-77723801D01*
X76426359Y-77724198D01*
X76846612Y-77550554D01*
X76962000Y-77435367D01*
X76962000Y-88506252D01*
X76970685Y-88552411D01*
X76997965Y-88594805D01*
X77039590Y-88623246D01*
X77089000Y-88633252D01*
X78739831Y-88633252D01*
X78613176Y-88938270D01*
X78612824Y-89342460D01*
X78767175Y-89716018D01*
X79052731Y-90002073D01*
X79426018Y-90157076D01*
X79830208Y-90157428D01*
X80203766Y-90003077D01*
X80227067Y-89979817D01*
X80310446Y-90181612D01*
X80631697Y-90503423D01*
X81051646Y-90677801D01*
X81506359Y-90678198D01*
X81665458Y-90612460D01*
X84327824Y-90612460D01*
X84482175Y-90986018D01*
X84767731Y-91272073D01*
X85141018Y-91427076D01*
X85545208Y-91427428D01*
X85918766Y-91273077D01*
X86204821Y-90987521D01*
X86359824Y-90614234D01*
X86360176Y-90210044D01*
X86205825Y-89836486D01*
X85920269Y-89550431D01*
X85546982Y-89395428D01*
X85142792Y-89395076D01*
X84769234Y-89549427D01*
X84483179Y-89834983D01*
X84328176Y-90208270D01*
X84327824Y-90612460D01*
X81665458Y-90612460D01*
X81926612Y-90504554D01*
X82248423Y-90183303D01*
X82422801Y-89763354D01*
X82423198Y-89308641D01*
X82249554Y-88888388D01*
X81994862Y-88633252D01*
X89310855Y-88633252D01*
X89214234Y-88673175D01*
X88928179Y-88958731D01*
X88773176Y-89332018D01*
X88772824Y-89736208D01*
X88927175Y-90109766D01*
X89212731Y-90395821D01*
X89586018Y-90550824D01*
X89990208Y-90551176D01*
X90363766Y-90396825D01*
X90649821Y-90111269D01*
X90804824Y-89737982D01*
X90805176Y-89333792D01*
X90650825Y-88960234D01*
X90436325Y-88745359D01*
X100202802Y-88745359D01*
X100376446Y-89165612D01*
X100697697Y-89487423D01*
X101117646Y-89661801D01*
X101572359Y-89662198D01*
X101992612Y-89488554D01*
X102314423Y-89167303D01*
X102488801Y-88747354D01*
X102489198Y-88292641D01*
X102315554Y-87872388D01*
X101994303Y-87550577D01*
X101574354Y-87376199D01*
X101119641Y-87375802D01*
X100699388Y-87549446D01*
X100377577Y-87870697D01*
X100203199Y-88290646D01*
X100202802Y-88745359D01*
X90436325Y-88745359D01*
X90365269Y-88674179D01*
X90266706Y-88633252D01*
X91694000Y-88633252D01*
X91740159Y-88624567D01*
X91782553Y-88597287D01*
X91810994Y-88555662D01*
X91821000Y-88506252D01*
X91821000Y-86650482D01*
X96837357Y-86650482D01*
X96962767Y-86953998D01*
X97194781Y-87186417D01*
X97498077Y-87312357D01*
X97826482Y-87312643D01*
X98129998Y-87187233D01*
X98362417Y-86955219D01*
X98488357Y-86651923D01*
X98488643Y-86323518D01*
X98363233Y-86020002D01*
X98231943Y-85888482D01*
X102775357Y-85888482D01*
X102900767Y-86191998D01*
X103132781Y-86424417D01*
X103436077Y-86550357D01*
X103764482Y-86550643D01*
X104067998Y-86425233D01*
X104300417Y-86193219D01*
X104426357Y-85889923D01*
X104426643Y-85561518D01*
X104389242Y-85471000D01*
X106562907Y-85471000D01*
X106675946Y-86039285D01*
X106997853Y-86521054D01*
X107039452Y-86548850D01*
X106991683Y-86557838D01*
X106775559Y-86696910D01*
X106630569Y-86909110D01*
X106579560Y-87161000D01*
X106579560Y-88861000D01*
X106623838Y-89096317D01*
X106762910Y-89312441D01*
X106975110Y-89457431D01*
X107227000Y-89508440D01*
X108927000Y-89508440D01*
X109162317Y-89464162D01*
X109378441Y-89325090D01*
X109523431Y-89112890D01*
X109574440Y-88861000D01*
X109574440Y-87161000D01*
X109530162Y-86925683D01*
X109391090Y-86709559D01*
X109178890Y-86564569D01*
X109111459Y-86550914D01*
X109156147Y-86521054D01*
X109478054Y-86039285D01*
X109591093Y-85471000D01*
X109478054Y-84902715D01*
X109156147Y-84420946D01*
X108815447Y-84193298D01*
X108958358Y-84126183D01*
X109348645Y-83697924D01*
X109518476Y-83287890D01*
X109397155Y-83058000D01*
X108204000Y-83058000D01*
X108204000Y-83078000D01*
X107950000Y-83078000D01*
X107950000Y-83058000D01*
X106756845Y-83058000D01*
X106635524Y-83287890D01*
X106805355Y-83697924D01*
X107195642Y-84126183D01*
X107338553Y-84193298D01*
X106997853Y-84420946D01*
X106675946Y-84902715D01*
X106562907Y-85471000D01*
X104389242Y-85471000D01*
X104301233Y-85258002D01*
X104069219Y-85025583D01*
X103765923Y-84899643D01*
X103437518Y-84899357D01*
X103134002Y-85024767D01*
X102901583Y-85256781D01*
X102775643Y-85560077D01*
X102775357Y-85888482D01*
X98231943Y-85888482D01*
X98131219Y-85787583D01*
X97827923Y-85661643D01*
X97499518Y-85661357D01*
X97196002Y-85786767D01*
X96963583Y-86018781D01*
X96837643Y-86322077D01*
X96837357Y-86650482D01*
X91821000Y-86650482D01*
X91821000Y-82972051D01*
X103488246Y-82972051D01*
X103642597Y-83345609D01*
X103928153Y-83631664D01*
X104012911Y-83666859D01*
X104012824Y-83767208D01*
X104167175Y-84140766D01*
X104452731Y-84426821D01*
X104826018Y-84581824D01*
X105230208Y-84582176D01*
X105603766Y-84427825D01*
X105889821Y-84142269D01*
X106044824Y-83768982D01*
X106045176Y-83364792D01*
X105890825Y-82991234D01*
X105605269Y-82705179D01*
X105520511Y-82669984D01*
X105520598Y-82569635D01*
X105366247Y-82196077D01*
X105243651Y-82073266D01*
X105346357Y-81825923D01*
X105346643Y-81497518D01*
X105221233Y-81194002D01*
X104989219Y-80961583D01*
X104685923Y-80835643D01*
X104357518Y-80835357D01*
X104054002Y-80960767D01*
X103821583Y-81192781D01*
X103695643Y-81496077D01*
X103695357Y-81824482D01*
X103788506Y-82049921D01*
X103643601Y-82194574D01*
X103488598Y-82567861D01*
X103488246Y-82972051D01*
X91821000Y-82972051D01*
X91821000Y-80046482D01*
X102679357Y-80046482D01*
X102804767Y-80349998D01*
X103036781Y-80582417D01*
X103340077Y-80708357D01*
X103668482Y-80708643D01*
X103971998Y-80583233D01*
X104204417Y-80351219D01*
X104330357Y-80047923D01*
X104330643Y-79719518D01*
X104205233Y-79416002D01*
X103973219Y-79183583D01*
X103669923Y-79057643D01*
X103341518Y-79057357D01*
X103038002Y-79182767D01*
X102805583Y-79414781D01*
X102679643Y-79718077D01*
X102679357Y-80046482D01*
X91821000Y-80046482D01*
X91821000Y-79284482D01*
X98996357Y-79284482D01*
X99121767Y-79587998D01*
X99353781Y-79820417D01*
X99657077Y-79946357D01*
X99985482Y-79946643D01*
X100288998Y-79821233D01*
X100521417Y-79589219D01*
X100647357Y-79285923D01*
X100647643Y-78957518D01*
X100522233Y-78654002D01*
X100290219Y-78421583D01*
X100227362Y-78395482D01*
X101028357Y-78395482D01*
X101153767Y-78698998D01*
X101385781Y-78931417D01*
X101689077Y-79057357D01*
X102017482Y-79057643D01*
X102320998Y-78932233D01*
X102553417Y-78700219D01*
X102679357Y-78396923D01*
X102679643Y-78068518D01*
X102589767Y-77851000D01*
X106562907Y-77851000D01*
X106675946Y-78419285D01*
X106997853Y-78901054D01*
X107327026Y-79121000D01*
X106997853Y-79340946D01*
X106675946Y-79822715D01*
X106562907Y-80391000D01*
X106675946Y-80959285D01*
X106997853Y-81441054D01*
X107338553Y-81668702D01*
X107195642Y-81735817D01*
X106805355Y-82164076D01*
X106635524Y-82574110D01*
X106756845Y-82804000D01*
X107950000Y-82804000D01*
X107950000Y-82784000D01*
X108204000Y-82784000D01*
X108204000Y-82804000D01*
X109397155Y-82804000D01*
X109518476Y-82574110D01*
X109348645Y-82164076D01*
X108958358Y-81735817D01*
X108815447Y-81668702D01*
X109156147Y-81441054D01*
X109478054Y-80959285D01*
X109591093Y-80391000D01*
X109478054Y-79822715D01*
X109156147Y-79340946D01*
X108826974Y-79121000D01*
X109156147Y-78901054D01*
X109478054Y-78419285D01*
X109591093Y-77851000D01*
X109478054Y-77282715D01*
X109156147Y-76800946D01*
X108674378Y-76479039D01*
X108106093Y-76366000D01*
X108047907Y-76366000D01*
X107479622Y-76479039D01*
X106997853Y-76800946D01*
X106675946Y-77282715D01*
X106562907Y-77851000D01*
X102589767Y-77851000D01*
X102554233Y-77765002D01*
X102322219Y-77532583D01*
X102018923Y-77406643D01*
X101690518Y-77406357D01*
X101387002Y-77531767D01*
X101154583Y-77763781D01*
X101028643Y-78067077D01*
X101028357Y-78395482D01*
X100227362Y-78395482D01*
X99986923Y-78295643D01*
X99658518Y-78295357D01*
X99355002Y-78420767D01*
X99122583Y-78652781D01*
X98996643Y-78956077D01*
X98996357Y-79284482D01*
X91821000Y-79284482D01*
X91821000Y-77379482D01*
X92265357Y-77379482D01*
X92390767Y-77682998D01*
X92622781Y-77915417D01*
X92926077Y-78041357D01*
X93254482Y-78041643D01*
X93557998Y-77916233D01*
X93790417Y-77684219D01*
X93916357Y-77380923D01*
X93916643Y-77052518D01*
X93905453Y-77025436D01*
X94143482Y-77025643D01*
X94446998Y-76900233D01*
X94679417Y-76668219D01*
X94779846Y-76426359D01*
X101091802Y-76426359D01*
X101265446Y-76846612D01*
X101586697Y-77168423D01*
X102006646Y-77342801D01*
X102461359Y-77343198D01*
X102881612Y-77169554D01*
X103203423Y-76848303D01*
X103377801Y-76428354D01*
X103378198Y-75973641D01*
X103204554Y-75553388D01*
X102883303Y-75231577D01*
X102463354Y-75057199D01*
X102008641Y-75056802D01*
X101588388Y-75230446D01*
X101266577Y-75551697D01*
X101092199Y-75971646D01*
X101091802Y-76426359D01*
X94779846Y-76426359D01*
X94805357Y-76364923D01*
X94805643Y-76036518D01*
X94680233Y-75733002D01*
X94448219Y-75500583D01*
X94144923Y-75374643D01*
X93816518Y-75374357D01*
X93513002Y-75499767D01*
X93280583Y-75731781D01*
X93154643Y-76035077D01*
X93154357Y-76363482D01*
X93165547Y-76390564D01*
X92927518Y-76390357D01*
X92624002Y-76515767D01*
X92391583Y-76747781D01*
X92265643Y-77051077D01*
X92265357Y-77379482D01*
X91821000Y-77379482D01*
X91821000Y-75806252D01*
X91812315Y-75760093D01*
X91785035Y-75717699D01*
X91743410Y-75689258D01*
X91694000Y-75679252D01*
X77089000Y-75679252D01*
X77042841Y-75687937D01*
X77000447Y-75715217D01*
X76980259Y-75744763D01*
X76848303Y-75612577D01*
X76428354Y-75438199D01*
X75973641Y-75437802D01*
X75553388Y-75611446D01*
X75231577Y-75932697D01*
X75057199Y-76352646D01*
X75056802Y-76807359D01*
X59563024Y-76807359D01*
X59563198Y-76608641D01*
X59389554Y-76188388D01*
X59068303Y-75866577D01*
X58648354Y-75692199D01*
X58193641Y-75691802D01*
X57773388Y-75865446D01*
X57451577Y-76186697D01*
X57277199Y-76606646D01*
X57276802Y-77061359D01*
X53887734Y-77061359D01*
X54240612Y-76915554D01*
X54562423Y-76594303D01*
X54736801Y-76174354D01*
X54737198Y-75719641D01*
X54563554Y-75299388D01*
X54242303Y-74977577D01*
X53822354Y-74803199D01*
X53367641Y-74802802D01*
X52947388Y-74976446D01*
X52625577Y-75297697D01*
X52451199Y-75717646D01*
X52450802Y-76172359D01*
X13462000Y-76172359D01*
X13462000Y-73124359D01*
X68960802Y-73124359D01*
X69134446Y-73544612D01*
X69455697Y-73866423D01*
X69875646Y-74040801D01*
X70330359Y-74041198D01*
X70750612Y-73867554D01*
X71072423Y-73546303D01*
X71246801Y-73126354D01*
X71247198Y-72671641D01*
X71073554Y-72251388D01*
X70752303Y-71929577D01*
X70332354Y-71755199D01*
X69877641Y-71754802D01*
X69457388Y-71928446D01*
X69135577Y-72249697D01*
X68961199Y-72669646D01*
X68960802Y-73124359D01*
X13462000Y-73124359D01*
X13462000Y-71321823D01*
X13599820Y-71655372D01*
X13932875Y-71989009D01*
X14368255Y-72169794D01*
X14839677Y-72170206D01*
X15275372Y-71990180D01*
X15609009Y-71657125D01*
X15789794Y-71221745D01*
X15789824Y-71187028D01*
X56222212Y-71187028D01*
X56376563Y-71560586D01*
X56484461Y-71668672D01*
X56406691Y-71855961D01*
X56406339Y-72260151D01*
X56560690Y-72633709D01*
X56846246Y-72919764D01*
X57219533Y-73074767D01*
X57623723Y-73075119D01*
X57997281Y-72920768D01*
X58283336Y-72635212D01*
X58438339Y-72261925D01*
X58438691Y-71857735D01*
X58284340Y-71484177D01*
X58176442Y-71376091D01*
X58251967Y-71194208D01*
X60324824Y-71194208D01*
X60479175Y-71567766D01*
X60764731Y-71853821D01*
X61138018Y-72008824D01*
X61542208Y-72009176D01*
X61915766Y-71854825D01*
X62201821Y-71569269D01*
X62356824Y-71195982D01*
X62356825Y-71194208D01*
X66166824Y-71194208D01*
X66321175Y-71567766D01*
X66606731Y-71853821D01*
X66980018Y-72008824D01*
X67384208Y-72009176D01*
X67757766Y-71854825D01*
X68043821Y-71569269D01*
X68153486Y-71305167D01*
X73994838Y-71305167D01*
X74136883Y-71648943D01*
X74399673Y-71912192D01*
X74743201Y-72054838D01*
X75115167Y-72055162D01*
X75458943Y-71913117D01*
X75564954Y-71807290D01*
X75669673Y-71912192D01*
X76013201Y-72054838D01*
X76385167Y-72055162D01*
X76728943Y-71913117D01*
X76992192Y-71650327D01*
X77134838Y-71306799D01*
X77135162Y-70934833D01*
X76993117Y-70591057D01*
X76730327Y-70327808D01*
X76386799Y-70185162D01*
X76014833Y-70184838D01*
X75671057Y-70326883D01*
X75565046Y-70432710D01*
X75460327Y-70327808D01*
X75116799Y-70185162D01*
X74744833Y-70184838D01*
X74401057Y-70326883D01*
X74137808Y-70589673D01*
X73995162Y-70933201D01*
X73994838Y-71305167D01*
X68153486Y-71305167D01*
X68198824Y-71195982D01*
X68199176Y-70791792D01*
X68044825Y-70418234D01*
X67759269Y-70132179D01*
X67385982Y-69977176D01*
X66981792Y-69976824D01*
X66608234Y-70131175D01*
X66322179Y-70416731D01*
X66167176Y-70790018D01*
X66166824Y-71194208D01*
X62356825Y-71194208D01*
X62357176Y-70791792D01*
X62202825Y-70418234D01*
X61917269Y-70132179D01*
X61543982Y-69977176D01*
X61139792Y-69976824D01*
X60766234Y-70131175D01*
X60480179Y-70416731D01*
X60325176Y-70790018D01*
X60324824Y-71194208D01*
X58251967Y-71194208D01*
X58254212Y-71188802D01*
X58254564Y-70784612D01*
X58100213Y-70411054D01*
X57814657Y-70124999D01*
X57441370Y-69969996D01*
X57037180Y-69969644D01*
X56663622Y-70123995D01*
X56377567Y-70409551D01*
X56222564Y-70782838D01*
X56222212Y-71187028D01*
X15789824Y-71187028D01*
X15790206Y-70750323D01*
X15610180Y-70314628D01*
X15277125Y-69980991D01*
X14841745Y-69800206D01*
X14370323Y-69799794D01*
X13934628Y-69979820D01*
X13600991Y-70312875D01*
X13462000Y-70647604D01*
X13462000Y-68933359D01*
X57276802Y-68933359D01*
X57450446Y-69353612D01*
X57771697Y-69675423D01*
X58191646Y-69849801D01*
X58646359Y-69850198D01*
X58774605Y-69797208D01*
X64388824Y-69797208D01*
X64543175Y-70170766D01*
X64828731Y-70456821D01*
X65202018Y-70611824D01*
X65606208Y-70612176D01*
X65979766Y-70457825D01*
X66265821Y-70172269D01*
X66420824Y-69798982D01*
X66421079Y-69505482D01*
X109283357Y-69505482D01*
X109408767Y-69808998D01*
X109640781Y-70041417D01*
X109729460Y-70078240D01*
X109536583Y-70270781D01*
X109410643Y-70574077D01*
X109410357Y-70902482D01*
X109535767Y-71205998D01*
X109767781Y-71438417D01*
X110071077Y-71564357D01*
X110399482Y-71564643D01*
X110702998Y-71439233D01*
X110935417Y-71207219D01*
X111061357Y-70903923D01*
X111061643Y-70575518D01*
X111054904Y-70559208D01*
X114045824Y-70559208D01*
X114200175Y-70932766D01*
X114485731Y-71218821D01*
X114859018Y-71373824D01*
X115263208Y-71374176D01*
X115636766Y-71219825D01*
X115922821Y-70934269D01*
X116077824Y-70560982D01*
X116078176Y-70156792D01*
X115923825Y-69783234D01*
X115638269Y-69497179D01*
X115443271Y-69416208D01*
X115823824Y-69416208D01*
X115978175Y-69789766D01*
X116263731Y-70075821D01*
X116637018Y-70230824D01*
X117041208Y-70231176D01*
X117414766Y-70076825D01*
X117700821Y-69791269D01*
X117855824Y-69417982D01*
X117856176Y-69013792D01*
X117701825Y-68640234D01*
X117416269Y-68354179D01*
X117042982Y-68199176D01*
X116638792Y-68198824D01*
X116265234Y-68353175D01*
X115979179Y-68638731D01*
X115824176Y-69012018D01*
X115823824Y-69416208D01*
X115443271Y-69416208D01*
X115264982Y-69342176D01*
X114860792Y-69341824D01*
X114487234Y-69496175D01*
X114201179Y-69781731D01*
X114046176Y-70155018D01*
X114045824Y-70559208D01*
X111054904Y-70559208D01*
X110936233Y-70272002D01*
X110704219Y-70039583D01*
X110615540Y-70002760D01*
X110808417Y-69810219D01*
X110934357Y-69506923D01*
X110934643Y-69178518D01*
X110809233Y-68875002D01*
X110577219Y-68642583D01*
X110273923Y-68516643D01*
X109945518Y-68516357D01*
X109642002Y-68641767D01*
X109409583Y-68873781D01*
X109283643Y-69177077D01*
X109283357Y-69505482D01*
X66421079Y-69505482D01*
X66421176Y-69394792D01*
X66266825Y-69021234D01*
X65981269Y-68735179D01*
X65607982Y-68580176D01*
X65203792Y-68579824D01*
X64830234Y-68734175D01*
X64544179Y-69019731D01*
X64389176Y-69393018D01*
X64388824Y-69797208D01*
X58774605Y-69797208D01*
X59066612Y-69676554D01*
X59388423Y-69355303D01*
X59562801Y-68935354D01*
X59563198Y-68480641D01*
X59389554Y-68060388D01*
X59068303Y-67738577D01*
X58648354Y-67564199D01*
X58193641Y-67563802D01*
X57773388Y-67737446D01*
X57451577Y-68058697D01*
X57277199Y-68478646D01*
X57276802Y-68933359D01*
X13462000Y-68933359D01*
X13462000Y-64996359D01*
X48767802Y-64996359D01*
X48941446Y-65416612D01*
X49262697Y-65738423D01*
X49682646Y-65912801D01*
X50137359Y-65913198D01*
X50557612Y-65739554D01*
X50879423Y-65418303D01*
X50896424Y-65377359D01*
X71881802Y-65377359D01*
X72055446Y-65797612D01*
X72376697Y-66119423D01*
X72796646Y-66293801D01*
X73251359Y-66294198D01*
X73671612Y-66120554D01*
X73993423Y-65799303D01*
X74167801Y-65379354D01*
X74168198Y-64924641D01*
X73994554Y-64504388D01*
X73673303Y-64182577D01*
X73253354Y-64008199D01*
X72798641Y-64007802D01*
X72378388Y-64181446D01*
X72056577Y-64502697D01*
X71882199Y-64922646D01*
X71881802Y-65377359D01*
X50896424Y-65377359D01*
X51053801Y-64998354D01*
X51054198Y-64543641D01*
X50880554Y-64123388D01*
X50559303Y-63801577D01*
X50139354Y-63627199D01*
X49684641Y-63626802D01*
X49264388Y-63800446D01*
X48942577Y-64121697D01*
X48768199Y-64541646D01*
X48767802Y-64996359D01*
X13462000Y-64996359D01*
X13462000Y-63201823D01*
X13599820Y-63535372D01*
X13932875Y-63869009D01*
X14368255Y-64049794D01*
X14839677Y-64050206D01*
X15275372Y-63870180D01*
X15419444Y-63726359D01*
X29336802Y-63726359D01*
X29510446Y-64146612D01*
X29831697Y-64468423D01*
X30251646Y-64642801D01*
X30706359Y-64643198D01*
X31126612Y-64469554D01*
X31448423Y-64148303D01*
X31622801Y-63728354D01*
X31623198Y-63273641D01*
X31449554Y-62853388D01*
X31246520Y-62650000D01*
X78512560Y-62650000D01*
X78512560Y-64350000D01*
X78556838Y-64585317D01*
X78695910Y-64801441D01*
X78908110Y-64946431D01*
X79160000Y-64997440D01*
X80860000Y-64997440D01*
X81095317Y-64953162D01*
X81311441Y-64814090D01*
X81456431Y-64601890D01*
X81470086Y-64534459D01*
X81499946Y-64579147D01*
X81981715Y-64901054D01*
X82550000Y-65014093D01*
X83118285Y-64901054D01*
X83600054Y-64579147D01*
X83820000Y-64249974D01*
X84039946Y-64579147D01*
X84521715Y-64901054D01*
X85090000Y-65014093D01*
X85658285Y-64901054D01*
X86140054Y-64579147D01*
X86360000Y-64249974D01*
X86579946Y-64579147D01*
X87061715Y-64901054D01*
X87630000Y-65014093D01*
X88198285Y-64901054D01*
X88680054Y-64579147D01*
X88900000Y-64249974D01*
X89119946Y-64579147D01*
X89601715Y-64901054D01*
X90170000Y-65014093D01*
X90738285Y-64901054D01*
X91220054Y-64579147D01*
X91440000Y-64249974D01*
X91659946Y-64579147D01*
X92141715Y-64901054D01*
X92710000Y-65014093D01*
X93278285Y-64901054D01*
X93760054Y-64579147D01*
X93980000Y-64249974D01*
X94199946Y-64579147D01*
X94681715Y-64901054D01*
X95250000Y-65014093D01*
X95818285Y-64901054D01*
X96300054Y-64579147D01*
X96520000Y-64249974D01*
X96739946Y-64579147D01*
X97221715Y-64901054D01*
X97790000Y-65014093D01*
X98358285Y-64901054D01*
X98840054Y-64579147D01*
X99060000Y-64249974D01*
X99279946Y-64579147D01*
X99761715Y-64901054D01*
X100330000Y-65014093D01*
X100898285Y-64901054D01*
X101380054Y-64579147D01*
X101600000Y-64249974D01*
X101819946Y-64579147D01*
X102301715Y-64901054D01*
X102870000Y-65014093D01*
X103438285Y-64901054D01*
X103920054Y-64579147D01*
X104140000Y-64249974D01*
X104359946Y-64579147D01*
X104841715Y-64901054D01*
X105410000Y-65014093D01*
X105978285Y-64901054D01*
X106460054Y-64579147D01*
X106680000Y-64249974D01*
X106899946Y-64579147D01*
X107381715Y-64901054D01*
X107950000Y-65014093D01*
X108518285Y-64901054D01*
X109000054Y-64579147D01*
X109220000Y-64249974D01*
X109439946Y-64579147D01*
X109921715Y-64901054D01*
X110490000Y-65014093D01*
X111058285Y-64901054D01*
X111540054Y-64579147D01*
X111760000Y-64249974D01*
X111979946Y-64579147D01*
X112461715Y-64901054D01*
X113030000Y-65014093D01*
X113598285Y-64901054D01*
X114080054Y-64579147D01*
X114300000Y-64249974D01*
X114519946Y-64579147D01*
X115001715Y-64901054D01*
X115570000Y-65014093D01*
X116138285Y-64901054D01*
X116620054Y-64579147D01*
X116840000Y-64249974D01*
X117059946Y-64579147D01*
X117541715Y-64901054D01*
X118110000Y-65014093D01*
X118678285Y-64901054D01*
X119160054Y-64579147D01*
X119380000Y-64249974D01*
X119599946Y-64579147D01*
X120081715Y-64901054D01*
X120650000Y-65014093D01*
X121218285Y-64901054D01*
X121700054Y-64579147D01*
X121920000Y-64249974D01*
X122139946Y-64579147D01*
X122621715Y-64901054D01*
X123190000Y-65014093D01*
X123758285Y-64901054D01*
X124240054Y-64579147D01*
X124460000Y-64249974D01*
X124679946Y-64579147D01*
X125161715Y-64901054D01*
X125730000Y-65014093D01*
X126298285Y-64901054D01*
X126780054Y-64579147D01*
X127000000Y-64249974D01*
X127219946Y-64579147D01*
X127701715Y-64901054D01*
X128270000Y-65014093D01*
X128838285Y-64901054D01*
X129320054Y-64579147D01*
X129641961Y-64097378D01*
X129755000Y-63529093D01*
X129755000Y-63470907D01*
X129641961Y-62902622D01*
X129320054Y-62420853D01*
X129034422Y-62230000D01*
X129320054Y-62039147D01*
X129641961Y-61557378D01*
X129755000Y-60989093D01*
X129755000Y-60930907D01*
X129641961Y-60362622D01*
X129320054Y-59880853D01*
X128838285Y-59558946D01*
X128270000Y-59445907D01*
X127701715Y-59558946D01*
X127219946Y-59880853D01*
X127000000Y-60210026D01*
X126780054Y-59880853D01*
X126298285Y-59558946D01*
X125730000Y-59445907D01*
X125161715Y-59558946D01*
X124679946Y-59880853D01*
X124460000Y-60210026D01*
X124240054Y-59880853D01*
X123758285Y-59558946D01*
X123190000Y-59445907D01*
X122621715Y-59558946D01*
X122139946Y-59880853D01*
X121920000Y-60210026D01*
X121700054Y-59880853D01*
X121218285Y-59558946D01*
X120650000Y-59445907D01*
X120081715Y-59558946D01*
X119599946Y-59880853D01*
X119380000Y-60210026D01*
X119160054Y-59880853D01*
X118678285Y-59558946D01*
X118110000Y-59445907D01*
X117541715Y-59558946D01*
X117059946Y-59880853D01*
X116840000Y-60210026D01*
X116620054Y-59880853D01*
X116138285Y-59558946D01*
X115570000Y-59445907D01*
X115001715Y-59558946D01*
X114519946Y-59880853D01*
X114300000Y-60210026D01*
X114080054Y-59880853D01*
X113598285Y-59558946D01*
X113030000Y-59445907D01*
X112461715Y-59558946D01*
X111979946Y-59880853D01*
X111760000Y-60210026D01*
X111540054Y-59880853D01*
X111058285Y-59558946D01*
X110490000Y-59445907D01*
X109921715Y-59558946D01*
X109439946Y-59880853D01*
X109220000Y-60210026D01*
X109000054Y-59880853D01*
X108518285Y-59558946D01*
X107950000Y-59445907D01*
X107381715Y-59558946D01*
X106899946Y-59880853D01*
X106680000Y-60210026D01*
X106460054Y-59880853D01*
X105978285Y-59558946D01*
X105410000Y-59445907D01*
X104841715Y-59558946D01*
X104359946Y-59880853D01*
X104140000Y-60210026D01*
X103920054Y-59880853D01*
X103438285Y-59558946D01*
X102870000Y-59445907D01*
X102301715Y-59558946D01*
X101819946Y-59880853D01*
X101600000Y-60210026D01*
X101380054Y-59880853D01*
X100898285Y-59558946D01*
X100330000Y-59445907D01*
X99761715Y-59558946D01*
X99279946Y-59880853D01*
X99060000Y-60210026D01*
X98840054Y-59880853D01*
X98358285Y-59558946D01*
X97790000Y-59445907D01*
X97221715Y-59558946D01*
X96739946Y-59880853D01*
X96520000Y-60210026D01*
X96300054Y-59880853D01*
X95818285Y-59558946D01*
X95250000Y-59445907D01*
X94681715Y-59558946D01*
X94199946Y-59880853D01*
X93980000Y-60210026D01*
X93760054Y-59880853D01*
X93278285Y-59558946D01*
X92710000Y-59445907D01*
X92141715Y-59558946D01*
X91659946Y-59880853D01*
X91440000Y-60210026D01*
X91220054Y-59880853D01*
X90738285Y-59558946D01*
X90170000Y-59445907D01*
X89601715Y-59558946D01*
X89119946Y-59880853D01*
X88900000Y-60210026D01*
X88680054Y-59880853D01*
X88198285Y-59558946D01*
X87630000Y-59445907D01*
X87061715Y-59558946D01*
X86579946Y-59880853D01*
X86360000Y-60210026D01*
X86140054Y-59880853D01*
X85658285Y-59558946D01*
X85090000Y-59445907D01*
X84521715Y-59558946D01*
X84039946Y-59880853D01*
X83820000Y-60210026D01*
X83600054Y-59880853D01*
X83118285Y-59558946D01*
X82550000Y-59445907D01*
X81981715Y-59558946D01*
X81499946Y-59880853D01*
X81280000Y-60210026D01*
X81060054Y-59880853D01*
X80578285Y-59558946D01*
X80010000Y-59445907D01*
X79441715Y-59558946D01*
X78959946Y-59880853D01*
X78638039Y-60362622D01*
X78525000Y-60930907D01*
X78525000Y-60989093D01*
X78638039Y-61557378D01*
X78959946Y-62039147D01*
X78961179Y-62039971D01*
X78924683Y-62046838D01*
X78708559Y-62185910D01*
X78563569Y-62398110D01*
X78512560Y-62650000D01*
X31246520Y-62650000D01*
X31128303Y-62531577D01*
X30708354Y-62357199D01*
X30253641Y-62356802D01*
X29833388Y-62530446D01*
X29511577Y-62851697D01*
X29337199Y-63271646D01*
X29336802Y-63726359D01*
X15419444Y-63726359D01*
X15609009Y-63537125D01*
X15789794Y-63101745D01*
X15790206Y-62630323D01*
X15610180Y-62194628D01*
X15277125Y-61860991D01*
X14841745Y-61680206D01*
X14370323Y-61679794D01*
X13934628Y-61859820D01*
X13600991Y-62192875D01*
X13462000Y-62527604D01*
X13462000Y-56236890D01*
X72218524Y-56236890D01*
X72388355Y-56646924D01*
X72778642Y-57075183D01*
X73303108Y-57321486D01*
X73533000Y-57200819D01*
X73533000Y-56007000D01*
X73787000Y-56007000D01*
X73787000Y-57200819D01*
X74016892Y-57321486D01*
X74541358Y-57075183D01*
X74931645Y-56646924D01*
X75101476Y-56236890D01*
X74980155Y-56007000D01*
X73787000Y-56007000D01*
X73533000Y-56007000D01*
X72339845Y-56007000D01*
X72218524Y-56236890D01*
X13462000Y-56236890D01*
X13462000Y-49538156D01*
X13525685Y-49538156D01*
X13705711Y-49973851D01*
X14038766Y-50307488D01*
X14474146Y-50488273D01*
X14945568Y-50488685D01*
X15381263Y-50308659D01*
X15714900Y-49975604D01*
X15895685Y-49540224D01*
X15896097Y-49068802D01*
X15716071Y-48633107D01*
X15383016Y-48299470D01*
X14947636Y-48118685D01*
X14476214Y-48118273D01*
X14040519Y-48298299D01*
X13706882Y-48631354D01*
X13526097Y-49066734D01*
X13525685Y-49538156D01*
X13462000Y-49538156D01*
X13462000Y-45720000D01*
X72145907Y-45720000D01*
X72258946Y-46288285D01*
X72580853Y-46770054D01*
X72910026Y-46990000D01*
X72580853Y-47209946D01*
X72258946Y-47691715D01*
X72145907Y-48260000D01*
X72258946Y-48828285D01*
X72580853Y-49310054D01*
X72910026Y-49530000D01*
X72580853Y-49749946D01*
X72258946Y-50231715D01*
X72145907Y-50800000D01*
X72258946Y-51368285D01*
X72580853Y-51850054D01*
X72910026Y-52070000D01*
X72580853Y-52289946D01*
X72258946Y-52771715D01*
X72145907Y-53340000D01*
X72258946Y-53908285D01*
X72580853Y-54390054D01*
X72921553Y-54617702D01*
X72778642Y-54684817D01*
X72388355Y-55113076D01*
X72218524Y-55523110D01*
X72339845Y-55753000D01*
X73533000Y-55753000D01*
X73533000Y-55733000D01*
X73787000Y-55733000D01*
X73787000Y-55753000D01*
X74980155Y-55753000D01*
X75101476Y-55523110D01*
X74931645Y-55113076D01*
X74541358Y-54684817D01*
X74398447Y-54617702D01*
X74739147Y-54390054D01*
X75061054Y-53908285D01*
X75174093Y-53340000D01*
X75169770Y-53318264D01*
X78641896Y-53318264D01*
X78873422Y-53878601D01*
X79280897Y-54286788D01*
X78874929Y-54692048D01*
X78642425Y-55251980D01*
X78641896Y-55858264D01*
X78873422Y-56418601D01*
X79301756Y-56847683D01*
X79861688Y-57080187D01*
X80467972Y-57080716D01*
X81028309Y-56849190D01*
X81436496Y-56441715D01*
X81841756Y-56847683D01*
X82401688Y-57080187D01*
X83007972Y-57080716D01*
X83568309Y-56849190D01*
X83976496Y-56441715D01*
X84381756Y-56847683D01*
X84941688Y-57080187D01*
X85547972Y-57080716D01*
X86108309Y-56849190D01*
X86516496Y-56441715D01*
X86921756Y-56847683D01*
X87481688Y-57080187D01*
X88087972Y-57080716D01*
X88648309Y-56849190D01*
X89056496Y-56441715D01*
X89461756Y-56847683D01*
X90021688Y-57080187D01*
X90627972Y-57080716D01*
X91188309Y-56849190D01*
X91596496Y-56441715D01*
X92001756Y-56847683D01*
X92561688Y-57080187D01*
X93167972Y-57080716D01*
X93728309Y-56849190D01*
X94136496Y-56441715D01*
X94541756Y-56847683D01*
X95101688Y-57080187D01*
X95707972Y-57080716D01*
X96268309Y-56849190D01*
X96676496Y-56441715D01*
X97081756Y-56847683D01*
X97641688Y-57080187D01*
X98247972Y-57080716D01*
X98808309Y-56849190D01*
X99216496Y-56441715D01*
X99621756Y-56847683D01*
X100181688Y-57080187D01*
X100787972Y-57080716D01*
X101348309Y-56849190D01*
X101756496Y-56441715D01*
X102161756Y-56847683D01*
X102721688Y-57080187D01*
X103327972Y-57080716D01*
X103888309Y-56849190D01*
X104296496Y-56441715D01*
X104701756Y-56847683D01*
X105261688Y-57080187D01*
X105867972Y-57080716D01*
X106428309Y-56849190D01*
X106836496Y-56441715D01*
X107241756Y-56847683D01*
X107801688Y-57080187D01*
X108407972Y-57080716D01*
X108968309Y-56849190D01*
X109376496Y-56441715D01*
X109781756Y-56847683D01*
X110341688Y-57080187D01*
X110947972Y-57080716D01*
X111508309Y-56849190D01*
X111916496Y-56441715D01*
X112321756Y-56847683D01*
X112881688Y-57080187D01*
X113487972Y-57080716D01*
X114048309Y-56849190D01*
X114456496Y-56441715D01*
X114861756Y-56847683D01*
X115421688Y-57080187D01*
X116027972Y-57080716D01*
X116588309Y-56849190D01*
X116996496Y-56441715D01*
X117401756Y-56847683D01*
X117961688Y-57080187D01*
X118567972Y-57080716D01*
X119128309Y-56849190D01*
X119536496Y-56441715D01*
X119941756Y-56847683D01*
X120501688Y-57080187D01*
X121107972Y-57080716D01*
X121668309Y-56849190D01*
X122076496Y-56441715D01*
X122481756Y-56847683D01*
X123041688Y-57080187D01*
X123647972Y-57080716D01*
X124208309Y-56849190D01*
X124616496Y-56441715D01*
X125021756Y-56847683D01*
X125581688Y-57080187D01*
X126187972Y-57080716D01*
X126748309Y-56849190D01*
X127156496Y-56441715D01*
X127561756Y-56847683D01*
X128121688Y-57080187D01*
X128727972Y-57080716D01*
X129288309Y-56849190D01*
X129717391Y-56420856D01*
X129949895Y-55860924D01*
X129950424Y-55254640D01*
X129718898Y-54694303D01*
X129311423Y-54286116D01*
X129717391Y-53880856D01*
X129949895Y-53320924D01*
X129950424Y-52714640D01*
X129718898Y-52154303D01*
X129290564Y-51725221D01*
X128730632Y-51492717D01*
X128124348Y-51492188D01*
X127564011Y-51723714D01*
X127155824Y-52131189D01*
X126750564Y-51725221D01*
X126190632Y-51492717D01*
X125584348Y-51492188D01*
X125024011Y-51723714D01*
X124615824Y-52131189D01*
X124210564Y-51725221D01*
X123650632Y-51492717D01*
X123044348Y-51492188D01*
X122484011Y-51723714D01*
X122075824Y-52131189D01*
X121670564Y-51725221D01*
X121110632Y-51492717D01*
X120504348Y-51492188D01*
X119944011Y-51723714D01*
X119535824Y-52131189D01*
X119130564Y-51725221D01*
X118570632Y-51492717D01*
X117964348Y-51492188D01*
X117404011Y-51723714D01*
X116995824Y-52131189D01*
X116590564Y-51725221D01*
X116030632Y-51492717D01*
X115424348Y-51492188D01*
X114864011Y-51723714D01*
X114455824Y-52131189D01*
X114050564Y-51725221D01*
X113490632Y-51492717D01*
X112884348Y-51492188D01*
X112324011Y-51723714D01*
X111915824Y-52131189D01*
X111510564Y-51725221D01*
X110950632Y-51492717D01*
X110344348Y-51492188D01*
X109784011Y-51723714D01*
X109375824Y-52131189D01*
X108970564Y-51725221D01*
X108410632Y-51492717D01*
X107804348Y-51492188D01*
X107244011Y-51723714D01*
X106835824Y-52131189D01*
X106430564Y-51725221D01*
X105870632Y-51492717D01*
X105264348Y-51492188D01*
X104704011Y-51723714D01*
X104295824Y-52131189D01*
X103890564Y-51725221D01*
X103330632Y-51492717D01*
X102724348Y-51492188D01*
X102164011Y-51723714D01*
X101755824Y-52131189D01*
X101350564Y-51725221D01*
X100790632Y-51492717D01*
X100184348Y-51492188D01*
X99624011Y-51723714D01*
X99215824Y-52131189D01*
X98810564Y-51725221D01*
X98250632Y-51492717D01*
X97644348Y-51492188D01*
X97084011Y-51723714D01*
X96675824Y-52131189D01*
X96270564Y-51725221D01*
X95710632Y-51492717D01*
X95104348Y-51492188D01*
X94544011Y-51723714D01*
X94135824Y-52131189D01*
X93730564Y-51725221D01*
X93170632Y-51492717D01*
X92564348Y-51492188D01*
X92004011Y-51723714D01*
X91574929Y-52152048D01*
X91563755Y-52178958D01*
X91398356Y-52123861D01*
X90505765Y-53016452D01*
X91398356Y-53909043D01*
X91563298Y-53854099D01*
X91573422Y-53878601D01*
X91980897Y-54286788D01*
X91595824Y-54671189D01*
X91190564Y-54265221D01*
X91163654Y-54254047D01*
X91218751Y-54088648D01*
X90326160Y-53196057D01*
X89433569Y-54088648D01*
X89488513Y-54253590D01*
X89464011Y-54263714D01*
X89055824Y-54671189D01*
X88671423Y-54286116D01*
X89077391Y-53880856D01*
X89088565Y-53853946D01*
X89253964Y-53909043D01*
X90146555Y-53016452D01*
X89253964Y-52123861D01*
X89089022Y-52178805D01*
X89078898Y-52154303D01*
X88869218Y-51944256D01*
X89433569Y-51944256D01*
X90326160Y-52836847D01*
X91218751Y-51944256D01*
X91133693Y-51688913D01*
X90564195Y-51480936D01*
X89958460Y-51506729D01*
X89518627Y-51688913D01*
X89433569Y-51944256D01*
X88869218Y-51944256D01*
X88650564Y-51725221D01*
X88090632Y-51492717D01*
X87484348Y-51492188D01*
X86924011Y-51723714D01*
X86515824Y-52131189D01*
X86110564Y-51725221D01*
X85550632Y-51492717D01*
X84944348Y-51492188D01*
X84384011Y-51723714D01*
X83975824Y-52131189D01*
X83570564Y-51725221D01*
X83010632Y-51492717D01*
X82404348Y-51492188D01*
X81844011Y-51723714D01*
X81435824Y-52131189D01*
X81030564Y-51725221D01*
X80470632Y-51492717D01*
X79864348Y-51492188D01*
X79304011Y-51723714D01*
X78874929Y-52152048D01*
X78642425Y-52711980D01*
X78641896Y-53318264D01*
X75169770Y-53318264D01*
X75061054Y-52771715D01*
X74739147Y-52289946D01*
X74409974Y-52070000D01*
X74739147Y-51850054D01*
X75061054Y-51368285D01*
X75174093Y-50800000D01*
X75061054Y-50231715D01*
X74739147Y-49749946D01*
X74409974Y-49530000D01*
X74739147Y-49310054D01*
X75061054Y-48828285D01*
X75174093Y-48260000D01*
X75061054Y-47691715D01*
X74739147Y-47209946D01*
X74409974Y-46990000D01*
X74739147Y-46770054D01*
X75061054Y-46288285D01*
X75174093Y-45720000D01*
X75061054Y-45151715D01*
X74739147Y-44669946D01*
X74697548Y-44642150D01*
X74745317Y-44633162D01*
X74961441Y-44494090D01*
X75106431Y-44281890D01*
X75157440Y-44030000D01*
X75157440Y-42330000D01*
X75113162Y-42094683D01*
X74974090Y-41878559D01*
X74761890Y-41733569D01*
X74510000Y-41682560D01*
X72810000Y-41682560D01*
X72574683Y-41726838D01*
X72358559Y-41865910D01*
X72213569Y-42078110D01*
X72162560Y-42330000D01*
X72162560Y-44030000D01*
X72206838Y-44265317D01*
X72345910Y-44481441D01*
X72558110Y-44626431D01*
X72625541Y-44640086D01*
X72580853Y-44669946D01*
X72258946Y-45151715D01*
X72145907Y-45720000D01*
X13462000Y-45720000D01*
X13462000Y-41418156D01*
X13525685Y-41418156D01*
X13705711Y-41853851D01*
X14038766Y-42187488D01*
X14474146Y-42368273D01*
X14945568Y-42368685D01*
X15381263Y-42188659D01*
X15560876Y-42009359D01*
X29336802Y-42009359D01*
X29510446Y-42429612D01*
X29831697Y-42751423D01*
X30251646Y-42925801D01*
X30706359Y-42926198D01*
X31126612Y-42752554D01*
X31448423Y-42431303D01*
X31622801Y-42011354D01*
X31623198Y-41556641D01*
X31449554Y-41136388D01*
X31128303Y-40814577D01*
X30708354Y-40640199D01*
X30253641Y-40639802D01*
X29833388Y-40813446D01*
X29511577Y-41134697D01*
X29337199Y-41554646D01*
X29336802Y-42009359D01*
X15560876Y-42009359D01*
X15714900Y-41855604D01*
X15895685Y-41420224D01*
X15896097Y-40948802D01*
X15716071Y-40513107D01*
X15383016Y-40179470D01*
X14947636Y-39998685D01*
X14476214Y-39998273D01*
X14040519Y-40178299D01*
X13706882Y-40511354D01*
X13526097Y-40946734D01*
X13525685Y-41418156D01*
X13462000Y-41418156D01*
X13462000Y-33975100D01*
X77885864Y-33975100D01*
X78145647Y-34603824D01*
X78626258Y-35085274D01*
X79254528Y-35346155D01*
X79934808Y-35346748D01*
X80563532Y-35086965D01*
X81044982Y-34606354D01*
X81305863Y-33978084D01*
X81306246Y-33538264D01*
X82951896Y-33538264D01*
X83183422Y-34098601D01*
X83611756Y-34527683D01*
X84171688Y-34760187D01*
X84777972Y-34760716D01*
X85338309Y-34529190D01*
X85746496Y-34121715D01*
X86151756Y-34527683D01*
X86711688Y-34760187D01*
X87317972Y-34760716D01*
X87878309Y-34529190D01*
X88286496Y-34121715D01*
X88691756Y-34527683D01*
X89251688Y-34760187D01*
X89857972Y-34760716D01*
X90418309Y-34529190D01*
X90826496Y-34121715D01*
X91231756Y-34527683D01*
X91791688Y-34760187D01*
X92397972Y-34760716D01*
X92958309Y-34529190D01*
X93366496Y-34121715D01*
X93771756Y-34527683D01*
X94331688Y-34760187D01*
X94937972Y-34760716D01*
X95498309Y-34529190D01*
X95719236Y-34308648D01*
X96283569Y-34308648D01*
X96368627Y-34563991D01*
X96938125Y-34771968D01*
X97543860Y-34746175D01*
X97983693Y-34563991D01*
X98068751Y-34308648D01*
X97176160Y-33416057D01*
X96283569Y-34308648D01*
X95719236Y-34308648D01*
X95927391Y-34100856D01*
X95938565Y-34073946D01*
X96103964Y-34129043D01*
X96996555Y-33236452D01*
X97355765Y-33236452D01*
X98248356Y-34129043D01*
X98503699Y-34043985D01*
X98528855Y-33975100D01*
X127285864Y-33975100D01*
X127545647Y-34603824D01*
X128026258Y-35085274D01*
X128654528Y-35346155D01*
X129334808Y-35346748D01*
X129963532Y-35086965D01*
X130444982Y-34606354D01*
X130705863Y-33978084D01*
X130706456Y-33297804D01*
X130446673Y-32669080D01*
X129966062Y-32187630D01*
X129337792Y-31926749D01*
X128657512Y-31926156D01*
X128028788Y-32185939D01*
X127547338Y-32666550D01*
X127286457Y-33294820D01*
X127285864Y-33975100D01*
X98528855Y-33975100D01*
X98711676Y-33474487D01*
X98685883Y-32868752D01*
X98503699Y-32428919D01*
X98248356Y-32343861D01*
X97355765Y-33236452D01*
X96996555Y-33236452D01*
X96103964Y-32343861D01*
X95939022Y-32398805D01*
X95928898Y-32374303D01*
X95719218Y-32164256D01*
X96283569Y-32164256D01*
X97176160Y-33056847D01*
X98068751Y-32164256D01*
X97983693Y-31908913D01*
X97414195Y-31700936D01*
X96808460Y-31726729D01*
X96368627Y-31908913D01*
X96283569Y-32164256D01*
X95719218Y-32164256D01*
X95500564Y-31945221D01*
X94940632Y-31712717D01*
X94334348Y-31712188D01*
X93774011Y-31943714D01*
X93365824Y-32351189D01*
X92960564Y-31945221D01*
X92400632Y-31712717D01*
X91794348Y-31712188D01*
X91234011Y-31943714D01*
X90825824Y-32351189D01*
X90420564Y-31945221D01*
X89860632Y-31712717D01*
X89254348Y-31712188D01*
X88694011Y-31943714D01*
X88285824Y-32351189D01*
X87880564Y-31945221D01*
X87320632Y-31712717D01*
X86714348Y-31712188D01*
X86154011Y-31943714D01*
X85745824Y-32351189D01*
X85340564Y-31945221D01*
X84780632Y-31712717D01*
X84174348Y-31712188D01*
X83614011Y-31943714D01*
X83184929Y-32372048D01*
X82952425Y-32931980D01*
X82951896Y-33538264D01*
X81306246Y-33538264D01*
X81306456Y-33297804D01*
X81046673Y-32669080D01*
X80566062Y-32187630D01*
X79937792Y-31926749D01*
X79257512Y-31926156D01*
X78628788Y-32185939D01*
X78147338Y-32666550D01*
X77886457Y-33294820D01*
X77885864Y-33975100D01*
X13462000Y-33975100D01*
X13462000Y-31595359D01*
X66420802Y-31595359D01*
X66594446Y-32015612D01*
X66915697Y-32337423D01*
X67335646Y-32511801D01*
X67790359Y-32512198D01*
X68210612Y-32338554D01*
X68532423Y-32017303D01*
X68706801Y-31597354D01*
X68707198Y-31142641D01*
X68533554Y-30722388D01*
X68212303Y-30400577D01*
X67792354Y-30226199D01*
X67337641Y-30225802D01*
X66917388Y-30399446D01*
X66595577Y-30720697D01*
X66421199Y-31140646D01*
X66420802Y-31595359D01*
X13462000Y-31595359D01*
X13462000Y-27154677D01*
X13525685Y-27154677D01*
X13705711Y-27590372D01*
X14038766Y-27924009D01*
X14474146Y-28104794D01*
X14945568Y-28105206D01*
X15381263Y-27925180D01*
X15498626Y-27808021D01*
X34039560Y-27808021D01*
X34425437Y-28741915D01*
X35139327Y-29457052D01*
X36072546Y-29844559D01*
X37083021Y-29845440D01*
X38016915Y-29459563D01*
X38392132Y-29085000D01*
X42282560Y-29085000D01*
X42282560Y-30605000D01*
X42326838Y-30840317D01*
X42465910Y-31056441D01*
X42678110Y-31201431D01*
X42930000Y-31252440D01*
X44450000Y-31252440D01*
X44685317Y-31208162D01*
X44901441Y-31069090D01*
X45046431Y-30856890D01*
X45097440Y-30605000D01*
X45097440Y-30151958D01*
X45296687Y-30634172D01*
X45688764Y-31026934D01*
X46201300Y-31239758D01*
X46756265Y-31240242D01*
X47269172Y-31028313D01*
X47661934Y-30636236D01*
X47815114Y-30267338D01*
X47966687Y-30634172D01*
X48358764Y-31026934D01*
X48871300Y-31239758D01*
X49426265Y-31240242D01*
X49939172Y-31028313D01*
X50331934Y-30636236D01*
X50544758Y-30123700D01*
X50544760Y-30121265D01*
X50554758Y-30121265D01*
X50766687Y-30634172D01*
X51158764Y-31026934D01*
X51671300Y-31239758D01*
X52226265Y-31240242D01*
X52739172Y-31028313D01*
X53131934Y-30636236D01*
X53344758Y-30123700D01*
X53344760Y-30121270D01*
X53556687Y-30634172D01*
X53948764Y-31026934D01*
X54461300Y-31239758D01*
X55016265Y-31240242D01*
X55529172Y-31028313D01*
X55921934Y-30636236D01*
X56134758Y-30123700D01*
X56135242Y-29568735D01*
X55923313Y-29055828D01*
X55531236Y-28663066D01*
X55018700Y-28450242D01*
X54463735Y-28449758D01*
X53950828Y-28661687D01*
X53558066Y-29053764D01*
X53345242Y-29566300D01*
X53345240Y-29568730D01*
X53133313Y-29055828D01*
X52741236Y-28663066D01*
X52228700Y-28450242D01*
X51673735Y-28449758D01*
X51160828Y-28661687D01*
X50768066Y-29053764D01*
X50555242Y-29566300D01*
X50554758Y-30121265D01*
X50544760Y-30121265D01*
X50545242Y-29568735D01*
X50333313Y-29055828D01*
X49941236Y-28663066D01*
X49428700Y-28450242D01*
X48873735Y-28449758D01*
X48360828Y-28661687D01*
X47968066Y-29053764D01*
X47814886Y-29422662D01*
X47663313Y-29055828D01*
X47271236Y-28663066D01*
X46758700Y-28450242D01*
X46203735Y-28449758D01*
X45690828Y-28661687D01*
X45298066Y-29053764D01*
X45097440Y-29536924D01*
X45097440Y-29085000D01*
X45053162Y-28849683D01*
X44956770Y-28699885D01*
X45366265Y-28700242D01*
X45879172Y-28488313D01*
X46271934Y-28096236D01*
X46484758Y-27583700D01*
X46484760Y-27581270D01*
X46696687Y-28094172D01*
X47088764Y-28486934D01*
X47601300Y-28699758D01*
X48156265Y-28700242D01*
X48669172Y-28488313D01*
X49061934Y-28096236D01*
X49215114Y-27727338D01*
X49366687Y-28094172D01*
X49758764Y-28486934D01*
X50271300Y-28699758D01*
X50826265Y-28700242D01*
X51339172Y-28488313D01*
X51731934Y-28096236D01*
X51944758Y-27583700D01*
X51944760Y-27581270D01*
X52156687Y-28094172D01*
X52548764Y-28486934D01*
X53061300Y-28699758D01*
X53616265Y-28700242D01*
X54129172Y-28488313D01*
X54521934Y-28096236D01*
X54641611Y-27808021D01*
X59439560Y-27808021D01*
X59825437Y-28741915D01*
X60539327Y-29457052D01*
X61472546Y-29844559D01*
X62483021Y-29845440D01*
X63416915Y-29459563D01*
X64132052Y-28745673D01*
X64519559Y-27812454D01*
X64520243Y-27026890D01*
X74123524Y-27026890D01*
X74293355Y-27436924D01*
X74683642Y-27865183D01*
X75208108Y-28111486D01*
X75438000Y-27990819D01*
X75438000Y-26797000D01*
X75692000Y-26797000D01*
X75692000Y-27990819D01*
X75921892Y-28111486D01*
X76446358Y-27865183D01*
X76836645Y-27436924D01*
X77006476Y-27026890D01*
X76885155Y-26797000D01*
X75692000Y-26797000D01*
X75438000Y-26797000D01*
X74244845Y-26797000D01*
X74123524Y-27026890D01*
X64520243Y-27026890D01*
X64520440Y-26801979D01*
X64134563Y-25868085D01*
X63830492Y-25563482D01*
X65849357Y-25563482D01*
X65974767Y-25866998D01*
X66206781Y-26099417D01*
X66510077Y-26225357D01*
X66838482Y-26225643D01*
X67141998Y-26100233D01*
X67374417Y-25868219D01*
X67500357Y-25564923D01*
X67500643Y-25236518D01*
X67375233Y-24933002D01*
X67143219Y-24700583D01*
X66839923Y-24574643D01*
X66511518Y-24574357D01*
X66208002Y-24699767D01*
X65975583Y-24931781D01*
X65849643Y-25235077D01*
X65849357Y-25563482D01*
X63830492Y-25563482D01*
X63420673Y-25152948D01*
X62487454Y-24765441D01*
X61476979Y-24764560D01*
X60543085Y-25150437D01*
X59827948Y-25864327D01*
X59440441Y-26797546D01*
X59439560Y-27808021D01*
X54641611Y-27808021D01*
X54734758Y-27583700D01*
X54735242Y-27028735D01*
X54523313Y-26515828D01*
X54131236Y-26123066D01*
X53618700Y-25910242D01*
X53063735Y-25909758D01*
X52550828Y-26121687D01*
X52158066Y-26513764D01*
X51945242Y-27026300D01*
X51945240Y-27028730D01*
X51733313Y-26515828D01*
X51341236Y-26123066D01*
X50828700Y-25910242D01*
X50273735Y-25909758D01*
X49760828Y-26121687D01*
X49368066Y-26513764D01*
X49214886Y-26882662D01*
X49063313Y-26515828D01*
X48671236Y-26123066D01*
X48158700Y-25910242D01*
X47603735Y-25909758D01*
X47090828Y-26121687D01*
X46698066Y-26513764D01*
X46485242Y-27026300D01*
X46485240Y-27028730D01*
X46273313Y-26515828D01*
X45881236Y-26123066D01*
X45368700Y-25910242D01*
X44813735Y-25909758D01*
X44300828Y-26121687D01*
X43908066Y-26513764D01*
X43695242Y-27026300D01*
X43694758Y-27581265D01*
X43906687Y-28094172D01*
X44249476Y-28437560D01*
X42930000Y-28437560D01*
X42694683Y-28481838D01*
X42478559Y-28620910D01*
X42333569Y-28833110D01*
X42282560Y-29085000D01*
X38392132Y-29085000D01*
X38732052Y-28745673D01*
X39119559Y-27812454D01*
X39120440Y-26801979D01*
X38734563Y-25868085D01*
X38020673Y-25152948D01*
X37087454Y-24765441D01*
X36076979Y-24764560D01*
X35143085Y-25150437D01*
X34427948Y-25864327D01*
X34040441Y-26797546D01*
X34039560Y-27808021D01*
X15498626Y-27808021D01*
X15714900Y-27592125D01*
X15895685Y-27156745D01*
X15896097Y-26685323D01*
X15716071Y-26249628D01*
X15383016Y-25915991D01*
X14947636Y-25735206D01*
X14476214Y-25734794D01*
X14040519Y-25914820D01*
X13706882Y-26247875D01*
X13526097Y-26683255D01*
X13525685Y-27154677D01*
X13462000Y-27154677D01*
X13462000Y-24130000D01*
X74050907Y-24130000D01*
X74163946Y-24698285D01*
X74485853Y-25180054D01*
X74826553Y-25407702D01*
X74683642Y-25474817D01*
X74293355Y-25903076D01*
X74123524Y-26313110D01*
X74244845Y-26543000D01*
X75438000Y-26543000D01*
X75438000Y-26523000D01*
X75692000Y-26523000D01*
X75692000Y-26543000D01*
X76885155Y-26543000D01*
X77006476Y-26313110D01*
X76836645Y-25903076D01*
X76446358Y-25474817D01*
X76303447Y-25407702D01*
X76644147Y-25180054D01*
X76966054Y-24698285D01*
X77079093Y-24130000D01*
X76966054Y-23561715D01*
X76644147Y-23079946D01*
X76602548Y-23052150D01*
X76650317Y-23043162D01*
X76785068Y-22956452D01*
X78668720Y-22956452D01*
X78668720Y-24656452D01*
X78712998Y-24891769D01*
X78852070Y-25107893D01*
X79064270Y-25252883D01*
X79316160Y-25303892D01*
X81016160Y-25303892D01*
X81251477Y-25259614D01*
X81467601Y-25120542D01*
X81612591Y-24908342D01*
X81626246Y-24840911D01*
X81656106Y-24885599D01*
X82137875Y-25207506D01*
X82706160Y-25320545D01*
X83274445Y-25207506D01*
X83756214Y-24885599D01*
X83976160Y-24556426D01*
X84196106Y-24885599D01*
X84677875Y-25207506D01*
X85246160Y-25320545D01*
X85814445Y-25207506D01*
X86296214Y-24885599D01*
X86516160Y-24556426D01*
X86736106Y-24885599D01*
X87217875Y-25207506D01*
X87786160Y-25320545D01*
X88354445Y-25207506D01*
X88836214Y-24885599D01*
X89063862Y-24544899D01*
X89130977Y-24687810D01*
X89559236Y-25078097D01*
X89969270Y-25247928D01*
X90199160Y-25126607D01*
X90199160Y-23933452D01*
X90179160Y-23933452D01*
X90179160Y-23679452D01*
X90199160Y-23679452D01*
X90199160Y-21393452D01*
X90179160Y-21393452D01*
X90179160Y-21139452D01*
X90199160Y-21139452D01*
X90199160Y-19946297D01*
X90453160Y-19946297D01*
X90453160Y-21139452D01*
X90473160Y-21139452D01*
X90473160Y-21393452D01*
X90453160Y-21393452D01*
X90453160Y-23679452D01*
X90473160Y-23679452D01*
X90473160Y-23933452D01*
X90453160Y-23933452D01*
X90453160Y-25126607D01*
X90683050Y-25247928D01*
X91093084Y-25078097D01*
X91521343Y-24687810D01*
X91588458Y-24544899D01*
X91816106Y-24885599D01*
X92297875Y-25207506D01*
X92866160Y-25320545D01*
X93434445Y-25207506D01*
X93916214Y-24885599D01*
X94136160Y-24556426D01*
X94356106Y-24885599D01*
X94837875Y-25207506D01*
X95406160Y-25320545D01*
X95974445Y-25207506D01*
X96456214Y-24885599D01*
X96676160Y-24556426D01*
X96896106Y-24885599D01*
X97377875Y-25207506D01*
X97946160Y-25320545D01*
X98514445Y-25207506D01*
X98996214Y-24885599D01*
X99216160Y-24556426D01*
X99436106Y-24885599D01*
X99917875Y-25207506D01*
X100486160Y-25320545D01*
X101054445Y-25207506D01*
X101536214Y-24885599D01*
X101756160Y-24556426D01*
X101976106Y-24885599D01*
X102457875Y-25207506D01*
X103026160Y-25320545D01*
X103594445Y-25207506D01*
X104076214Y-24885599D01*
X104296160Y-24556426D01*
X104516106Y-24885599D01*
X104997875Y-25207506D01*
X105566160Y-25320545D01*
X106134445Y-25207506D01*
X106616214Y-24885599D01*
X106836160Y-24556426D01*
X107056106Y-24885599D01*
X107537875Y-25207506D01*
X108106160Y-25320545D01*
X108674445Y-25207506D01*
X109156214Y-24885599D01*
X109376160Y-24556426D01*
X109596106Y-24885599D01*
X110077875Y-25207506D01*
X110646160Y-25320545D01*
X111214445Y-25207506D01*
X111696214Y-24885599D01*
X111916160Y-24556426D01*
X112136106Y-24885599D01*
X112617875Y-25207506D01*
X113186160Y-25320545D01*
X113754445Y-25207506D01*
X114236214Y-24885599D01*
X114456160Y-24556426D01*
X114676106Y-24885599D01*
X115157875Y-25207506D01*
X115726160Y-25320545D01*
X116294445Y-25207506D01*
X116776214Y-24885599D01*
X116996160Y-24556426D01*
X117216106Y-24885599D01*
X117697875Y-25207506D01*
X118266160Y-25320545D01*
X118834445Y-25207506D01*
X119316214Y-24885599D01*
X119536160Y-24556426D01*
X119756106Y-24885599D01*
X120237875Y-25207506D01*
X120806160Y-25320545D01*
X121374445Y-25207506D01*
X121856214Y-24885599D01*
X122076160Y-24556426D01*
X122296106Y-24885599D01*
X122777875Y-25207506D01*
X123346160Y-25320545D01*
X123914445Y-25207506D01*
X124396214Y-24885599D01*
X124616160Y-24556426D01*
X124836106Y-24885599D01*
X125317875Y-25207506D01*
X125886160Y-25320545D01*
X126454445Y-25207506D01*
X126936214Y-24885599D01*
X127156160Y-24556426D01*
X127376106Y-24885599D01*
X127857875Y-25207506D01*
X128426160Y-25320545D01*
X128994445Y-25207506D01*
X129476214Y-24885599D01*
X129798121Y-24403830D01*
X129911160Y-23835545D01*
X129911160Y-23777359D01*
X129798121Y-23209074D01*
X129476214Y-22727305D01*
X129190582Y-22536452D01*
X129476214Y-22345599D01*
X129798121Y-21863830D01*
X129911160Y-21295545D01*
X129911160Y-21237359D01*
X129798121Y-20669074D01*
X129476214Y-20187305D01*
X128994445Y-19865398D01*
X128426160Y-19752359D01*
X127857875Y-19865398D01*
X127376106Y-20187305D01*
X127156160Y-20516478D01*
X126936214Y-20187305D01*
X126454445Y-19865398D01*
X125886160Y-19752359D01*
X125317875Y-19865398D01*
X124836106Y-20187305D01*
X124616160Y-20516478D01*
X124396214Y-20187305D01*
X123914445Y-19865398D01*
X123346160Y-19752359D01*
X122777875Y-19865398D01*
X122296106Y-20187305D01*
X122076160Y-20516478D01*
X121856214Y-20187305D01*
X121374445Y-19865398D01*
X120806160Y-19752359D01*
X120237875Y-19865398D01*
X119756106Y-20187305D01*
X119536160Y-20516478D01*
X119316214Y-20187305D01*
X118834445Y-19865398D01*
X118266160Y-19752359D01*
X117697875Y-19865398D01*
X117216106Y-20187305D01*
X116996160Y-20516478D01*
X116776214Y-20187305D01*
X116294445Y-19865398D01*
X115726160Y-19752359D01*
X115157875Y-19865398D01*
X114676106Y-20187305D01*
X114456160Y-20516478D01*
X114236214Y-20187305D01*
X113754445Y-19865398D01*
X113186160Y-19752359D01*
X112617875Y-19865398D01*
X112136106Y-20187305D01*
X111916160Y-20516478D01*
X111696214Y-20187305D01*
X111214445Y-19865398D01*
X110646160Y-19752359D01*
X110077875Y-19865398D01*
X109596106Y-20187305D01*
X109376160Y-20516478D01*
X109156214Y-20187305D01*
X108674445Y-19865398D01*
X108106160Y-19752359D01*
X107537875Y-19865398D01*
X107056106Y-20187305D01*
X106836160Y-20516478D01*
X106616214Y-20187305D01*
X106134445Y-19865398D01*
X105566160Y-19752359D01*
X104997875Y-19865398D01*
X104516106Y-20187305D01*
X104296160Y-20516478D01*
X104076214Y-20187305D01*
X103594445Y-19865398D01*
X103026160Y-19752359D01*
X102457875Y-19865398D01*
X101976106Y-20187305D01*
X101756160Y-20516478D01*
X101536214Y-20187305D01*
X101054445Y-19865398D01*
X100486160Y-19752359D01*
X99917875Y-19865398D01*
X99436106Y-20187305D01*
X99216160Y-20516478D01*
X98996214Y-20187305D01*
X98514445Y-19865398D01*
X97946160Y-19752359D01*
X97377875Y-19865398D01*
X96896106Y-20187305D01*
X96676160Y-20516478D01*
X96456214Y-20187305D01*
X95974445Y-19865398D01*
X95406160Y-19752359D01*
X94837875Y-19865398D01*
X94356106Y-20187305D01*
X94136160Y-20516478D01*
X93916214Y-20187305D01*
X93434445Y-19865398D01*
X92866160Y-19752359D01*
X92297875Y-19865398D01*
X91816106Y-20187305D01*
X91588458Y-20528005D01*
X91521343Y-20385094D01*
X91093084Y-19994807D01*
X90683050Y-19824976D01*
X90453160Y-19946297D01*
X90199160Y-19946297D01*
X89969270Y-19824976D01*
X89559236Y-19994807D01*
X89130977Y-20385094D01*
X89063862Y-20528005D01*
X88836214Y-20187305D01*
X88354445Y-19865398D01*
X87786160Y-19752359D01*
X87217875Y-19865398D01*
X86736106Y-20187305D01*
X86516160Y-20516478D01*
X86296214Y-20187305D01*
X85814445Y-19865398D01*
X85246160Y-19752359D01*
X84677875Y-19865398D01*
X84196106Y-20187305D01*
X83976160Y-20516478D01*
X83756214Y-20187305D01*
X83274445Y-19865398D01*
X82706160Y-19752359D01*
X82137875Y-19865398D01*
X81656106Y-20187305D01*
X81436160Y-20516478D01*
X81216214Y-20187305D01*
X80734445Y-19865398D01*
X80166160Y-19752359D01*
X79597875Y-19865398D01*
X79116106Y-20187305D01*
X78794199Y-20669074D01*
X78681160Y-21237359D01*
X78681160Y-21295545D01*
X78794199Y-21863830D01*
X79116106Y-22345599D01*
X79117339Y-22346423D01*
X79080843Y-22353290D01*
X78864719Y-22492362D01*
X78719729Y-22704562D01*
X78668720Y-22956452D01*
X76785068Y-22956452D01*
X76866441Y-22904090D01*
X77011431Y-22691890D01*
X77062440Y-22440000D01*
X77062440Y-20740000D01*
X77018162Y-20504683D01*
X76879090Y-20288559D01*
X76666890Y-20143569D01*
X76415000Y-20092560D01*
X74715000Y-20092560D01*
X74479683Y-20136838D01*
X74263559Y-20275910D01*
X74118569Y-20488110D01*
X74067560Y-20740000D01*
X74067560Y-22440000D01*
X74111838Y-22675317D01*
X74250910Y-22891441D01*
X74463110Y-23036431D01*
X74530541Y-23050086D01*
X74485853Y-23079946D01*
X74163946Y-23561715D01*
X74050907Y-24130000D01*
X13462000Y-24130000D01*
X13462000Y-19034677D01*
X13525685Y-19034677D01*
X13705711Y-19470372D01*
X14038766Y-19804009D01*
X14474146Y-19984794D01*
X14945568Y-19985206D01*
X15381263Y-19805180D01*
X15529342Y-19657359D01*
X25653802Y-19657359D01*
X25827446Y-20077612D01*
X26148697Y-20399423D01*
X26568646Y-20573801D01*
X27023359Y-20574198D01*
X27443612Y-20400554D01*
X27765423Y-20079303D01*
X27835159Y-19911359D01*
X66420802Y-19911359D01*
X66594446Y-20331612D01*
X66915697Y-20653423D01*
X67335646Y-20827801D01*
X67790359Y-20828198D01*
X68210612Y-20654554D01*
X68532423Y-20333303D01*
X68706801Y-19913354D01*
X68707198Y-19458641D01*
X68533554Y-19038388D01*
X68212303Y-18716577D01*
X67792354Y-18542199D01*
X67337641Y-18541802D01*
X66917388Y-18715446D01*
X66595577Y-19036697D01*
X66421199Y-19456646D01*
X66420802Y-19911359D01*
X27835159Y-19911359D01*
X27939801Y-19659354D01*
X27940198Y-19204641D01*
X27766554Y-18784388D01*
X27445303Y-18462577D01*
X27025354Y-18288199D01*
X26570641Y-18287802D01*
X26150388Y-18461446D01*
X25828577Y-18782697D01*
X25654199Y-19202646D01*
X25653802Y-19657359D01*
X15529342Y-19657359D01*
X15714900Y-19472125D01*
X15895685Y-19036745D01*
X15896097Y-18565323D01*
X15716071Y-18129628D01*
X15383016Y-17795991D01*
X14947636Y-17615206D01*
X14476214Y-17614794D01*
X14040519Y-17794820D01*
X13706882Y-18127875D01*
X13526097Y-18563255D01*
X13525685Y-19034677D01*
X13462000Y-19034677D01*
X13462000Y-13462000D01*
X134012000Y-13462000D01*
X134012000Y-161798000D01*
M02*
