G04 #@! TF.FileFunction,Copper,L4,Bot,Signal*
%FSLAX46Y46*%
G04 Gerber Fmt 4.6, Leading zero omitted, Abs format (unit mm)*
G04 Created by KiCad (PCBNEW 4.0.6) date 09/10/17 19:14:27*
%MOMM*%
%LPD*%
G01*
G04 APERTURE LIST*
%ADD10C,0.100000*%
%ADD11R,1.700000X1.700000*%
%ADD12O,1.700000X1.700000*%
%ADD13R,6.600000X4.500000*%
%ADD14C,6.350000*%
%ADD15R,1.000000X1.250000*%
%ADD16R,1.250000X1.000000*%
%ADD17R,2.743000X2.159000*%
%ADD18R,3.790000X2.250000*%
%ADD19R,0.800000X0.600000*%
%ADD20C,3.810000*%
%ADD21R,1.520000X1.520000*%
%ADD22C,1.520000*%
%ADD23C,8.100000*%
%ADD24R,2.794000X1.778000*%
%ADD25R,1.500000X1.000000*%
%ADD26C,1.778000*%
%ADD27R,0.700000X1.300000*%
%ADD28R,1.300000X0.700000*%
%ADD29R,0.900000X1.700000*%
%ADD30R,1.700000X0.900000*%
%ADD31C,1.998980*%
%ADD32R,1.060000X0.400000*%
%ADD33R,0.400000X1.060000*%
%ADD34C,1.400000*%
%ADD35O,1.400000X1.400000*%
%ADD36R,0.700000X0.250000*%
%ADD37R,0.830000X1.190000*%
%ADD38R,0.650000X0.300000*%
%ADD39R,0.775000X1.240000*%
%ADD40O,1.600000X1.200000*%
%ADD41O,1.200000X1.200000*%
%ADD42C,1.016000*%
%ADD43C,0.762000*%
%ADD44C,0.381000*%
%ADD45C,0.600000*%
%ADD46C,0.762000*%
%ADD47C,1.778000*%
%ADD48C,0.508000*%
%ADD49C,0.254000*%
%ADD50C,1.270000*%
%ADD51C,0.381000*%
G04 APERTURE END LIST*
D10*
D11*
X73660000Y-43180000D03*
D12*
X73660000Y-45720000D03*
X73660000Y-48260000D03*
X73660000Y-50800000D03*
X73660000Y-53340000D03*
X73660000Y-55880000D03*
D13*
X30480000Y-92583000D03*
X55880000Y-92583000D03*
X30480000Y-158115000D03*
X55880000Y-158115000D03*
D14*
X43180000Y-104648000D03*
X43180000Y-146050000D03*
D15*
X38989000Y-82556108D03*
X36989000Y-82556108D03*
D16*
X58381388Y-75541820D03*
X58381388Y-73541820D03*
D15*
X48895000Y-84080108D03*
X46895000Y-84080108D03*
D16*
X59270388Y-66032820D03*
X59270388Y-64032820D03*
D15*
X98012000Y-136525000D03*
X96012000Y-136525000D03*
D16*
X104140000Y-132334000D03*
X104140000Y-134334000D03*
D15*
X79216000Y-136525000D03*
X77216000Y-136525000D03*
D16*
X85090000Y-132239000D03*
X85090000Y-134239000D03*
X106680000Y-126333000D03*
X106680000Y-124333000D03*
X87884000Y-126365000D03*
X87884000Y-124365000D03*
X108585000Y-126333000D03*
X108585000Y-124333000D03*
X89916000Y-126365000D03*
X89916000Y-124365000D03*
D15*
X42664833Y-66404513D03*
X40664833Y-66404513D03*
X42696833Y-69579513D03*
X40696833Y-69579513D03*
D16*
X50165000Y-125698000D03*
X50165000Y-123698000D03*
X31089296Y-140208000D03*
X31089296Y-142208000D03*
X32512000Y-110871000D03*
X32512000Y-108871000D03*
X33121296Y-140208000D03*
X33121296Y-142208000D03*
X34653000Y-110844999D03*
X34653000Y-108844999D03*
D17*
X97028000Y-139700000D03*
X97028000Y-144120000D03*
D18*
X102362000Y-137287000D03*
X102362000Y-143787000D03*
D19*
X104394000Y-129794000D03*
X108594000Y-129794000D03*
D17*
X78232000Y-139700000D03*
X78232000Y-144120000D03*
D18*
X83439000Y-137287000D03*
X83439000Y-143787000D03*
D19*
X85598000Y-129921000D03*
X89798000Y-129921000D03*
D11*
X75565000Y-21590000D03*
D12*
X75565000Y-24130000D03*
X75565000Y-26670000D03*
D11*
X80166160Y-23806452D03*
D12*
X80166160Y-21266452D03*
X82706160Y-23806452D03*
X82706160Y-21266452D03*
X85246160Y-23806452D03*
X85246160Y-21266452D03*
X87786160Y-23806452D03*
X87786160Y-21266452D03*
X90326160Y-23806452D03*
X90326160Y-21266452D03*
X92866160Y-23806452D03*
X92866160Y-21266452D03*
X95406160Y-23806452D03*
X95406160Y-21266452D03*
X97946160Y-23806452D03*
X97946160Y-21266452D03*
X100486160Y-23806452D03*
X100486160Y-21266452D03*
X103026160Y-23806452D03*
X103026160Y-21266452D03*
X105566160Y-23806452D03*
X105566160Y-21266452D03*
X108106160Y-23806452D03*
X108106160Y-21266452D03*
X110646160Y-23806452D03*
X110646160Y-21266452D03*
X113186160Y-23806452D03*
X113186160Y-21266452D03*
X115726160Y-23806452D03*
X115726160Y-21266452D03*
X118266160Y-23806452D03*
X118266160Y-21266452D03*
X120806160Y-23806452D03*
X120806160Y-21266452D03*
X123346160Y-23806452D03*
X123346160Y-21266452D03*
X125886160Y-23806452D03*
X125886160Y-21266452D03*
X128426160Y-23806452D03*
X128426160Y-21266452D03*
D11*
X80010000Y-63500000D03*
D12*
X80010000Y-60960000D03*
X82550000Y-63500000D03*
X82550000Y-60960000D03*
X85090000Y-63500000D03*
X85090000Y-60960000D03*
X87630000Y-63500000D03*
X87630000Y-60960000D03*
X90170000Y-63500000D03*
X90170000Y-60960000D03*
X92710000Y-63500000D03*
X92710000Y-60960000D03*
X95250000Y-63500000D03*
X95250000Y-60960000D03*
X97790000Y-63500000D03*
X97790000Y-60960000D03*
X100330000Y-63500000D03*
X100330000Y-60960000D03*
X102870000Y-63500000D03*
X102870000Y-60960000D03*
X105410000Y-63500000D03*
X105410000Y-60960000D03*
X107950000Y-63500000D03*
X107950000Y-60960000D03*
X110490000Y-63500000D03*
X110490000Y-60960000D03*
X113030000Y-63500000D03*
X113030000Y-60960000D03*
X115570000Y-63500000D03*
X115570000Y-60960000D03*
X118110000Y-63500000D03*
X118110000Y-60960000D03*
X120650000Y-63500000D03*
X120650000Y-60960000D03*
X123190000Y-63500000D03*
X123190000Y-60960000D03*
X125730000Y-63500000D03*
X125730000Y-60960000D03*
X128270000Y-63500000D03*
X128270000Y-60960000D03*
D20*
X61980000Y-27305000D03*
X36580000Y-27305000D03*
D21*
X43690000Y-29845000D03*
D22*
X46480000Y-29845000D03*
X49150000Y-29845000D03*
X51950000Y-29845000D03*
X54740000Y-29845000D03*
X45090000Y-27305000D03*
X47880000Y-27305000D03*
X50550000Y-27305000D03*
X53340000Y-27305000D03*
D23*
X94615000Y-156845000D03*
X81915000Y-156845000D03*
D11*
X103886000Y-96901000D03*
D12*
X106426000Y-96901000D03*
X108966000Y-96901000D03*
D11*
X108966000Y-110617000D03*
D12*
X108966000Y-108077000D03*
X108966000Y-105537000D03*
X108966000Y-102997000D03*
X108966000Y-100457000D03*
D23*
X19050000Y-92075000D03*
X19050000Y-81915000D03*
D24*
X106807000Y-137287000D03*
X106807000Y-133731000D03*
X87884000Y-137287000D03*
X87884000Y-133731000D03*
D25*
X46506833Y-76945513D03*
X46506833Y-74445513D03*
D26*
X80166160Y-53016452D03*
X80166160Y-55556452D03*
X82706160Y-53016452D03*
X82706160Y-55556452D03*
X85246160Y-53016452D03*
X85246160Y-55556452D03*
X87786160Y-53016452D03*
X87786160Y-55556452D03*
X90326160Y-53016452D03*
X90326160Y-55556452D03*
X92866160Y-53016452D03*
X92866160Y-55556452D03*
X95406160Y-53016452D03*
X95406160Y-55556452D03*
X97946160Y-53016452D03*
X97946160Y-55556452D03*
X100486160Y-53016452D03*
X100486160Y-55556452D03*
X103026160Y-53016452D03*
X103026160Y-55556452D03*
X105566160Y-53016452D03*
X105566160Y-55556452D03*
X108106160Y-53016452D03*
X108106160Y-55556452D03*
X110646160Y-53016452D03*
X110646160Y-55556452D03*
X113186160Y-53016452D03*
X113186160Y-55556452D03*
X115726160Y-53016452D03*
X115726160Y-55556452D03*
X118266160Y-53016452D03*
X118266160Y-55556452D03*
X120806160Y-53016452D03*
X120806160Y-55556452D03*
X123346160Y-53016452D03*
X123346160Y-55556452D03*
X125886160Y-53016452D03*
X125886160Y-55556452D03*
X128426160Y-53016452D03*
X128426160Y-55556452D03*
X84476160Y-33236452D03*
X87016160Y-33236452D03*
X89556160Y-33236452D03*
X92096160Y-33236452D03*
X94636160Y-33236452D03*
X97176160Y-33236452D03*
D27*
X71242000Y-65209538D03*
X69342000Y-65209538D03*
X72639000Y-69850000D03*
X70739000Y-69850000D03*
D28*
X52539388Y-73464820D03*
X52539388Y-75364820D03*
D29*
X54010388Y-69207820D03*
X56910388Y-69207820D03*
D30*
X42418000Y-87562108D03*
X42418000Y-84662108D03*
D27*
X46995000Y-81921108D03*
X48895000Y-81921108D03*
D28*
X53301388Y-64066820D03*
X53301388Y-65966820D03*
D27*
X97790000Y-134493000D03*
X95890000Y-134493000D03*
X95885000Y-132461000D03*
X97785000Y-132461000D03*
X97785000Y-130429000D03*
X95885000Y-130429000D03*
X100330000Y-128397000D03*
X102230000Y-128397000D03*
X97033000Y-126365000D03*
X98933000Y-126365000D03*
X102235000Y-126365000D03*
X100335000Y-126365000D03*
X102235000Y-124333000D03*
X100335000Y-124333000D03*
D28*
X109728000Y-131831000D03*
X109728000Y-133731000D03*
D27*
X78994000Y-134493000D03*
X77094000Y-134493000D03*
X77089000Y-132461000D03*
X78989000Y-132461000D03*
X78989000Y-130429000D03*
X77089000Y-130429000D03*
X81534000Y-128524000D03*
X83434000Y-128524000D03*
X78110000Y-126492000D03*
X80010000Y-126492000D03*
X83439000Y-126492000D03*
X81539000Y-126492000D03*
X83439000Y-124333000D03*
X81539000Y-124333000D03*
D28*
X90805000Y-131826000D03*
X90805000Y-133726000D03*
D27*
X42691833Y-72881513D03*
X40791833Y-72881513D03*
D28*
X37997833Y-73140513D03*
X37997833Y-75040513D03*
X52197000Y-123698000D03*
X52197000Y-125598000D03*
D27*
X52136000Y-121666000D03*
X54036000Y-121666000D03*
D31*
X48260000Y-128905000D03*
X38100000Y-128905000D03*
X48260000Y-121920000D03*
X38100000Y-121920000D03*
D32*
X36873000Y-86457108D03*
X36873000Y-85807108D03*
X36873000Y-85147108D03*
X36873000Y-84497108D03*
X39073000Y-84497108D03*
X39073000Y-85147108D03*
X39073000Y-85807108D03*
X39073000Y-86457108D03*
D33*
X54516388Y-73357820D03*
X55166388Y-73357820D03*
X55826388Y-73357820D03*
X56476388Y-73357820D03*
X56476388Y-75557820D03*
X55826388Y-75557820D03*
X55166388Y-75557820D03*
X54516388Y-75557820D03*
D32*
X46822000Y-87981108D03*
X46822000Y-87331108D03*
X46822000Y-86671108D03*
X46822000Y-86021108D03*
X49022000Y-86021108D03*
X49022000Y-86671108D03*
X49022000Y-87331108D03*
X49022000Y-87981108D03*
D33*
X55161388Y-63969867D03*
X55811388Y-63969867D03*
X56471388Y-63969867D03*
X57121388Y-63969867D03*
X57121388Y-66169867D03*
X56471388Y-66169867D03*
X55811388Y-66169867D03*
X55161388Y-66169867D03*
D34*
X42418000Y-132334000D03*
D35*
X44318000Y-132334000D03*
D34*
X42418000Y-118745000D03*
D35*
X44318000Y-118745000D03*
D36*
X99472000Y-132530000D03*
X99472000Y-132080000D03*
X99472000Y-131630000D03*
X99472000Y-131180000D03*
X99472000Y-130730000D03*
X99472000Y-130280000D03*
X102272000Y-130280000D03*
X102272000Y-130730000D03*
X102272000Y-131180000D03*
X102272000Y-131630000D03*
X102272000Y-132080000D03*
X102272000Y-132530000D03*
D37*
X101287000Y-130810000D03*
X101287000Y-132000000D03*
X100457000Y-130810000D03*
X100457000Y-132000000D03*
D36*
X80642000Y-132610000D03*
X80642000Y-132160000D03*
X80642000Y-131710000D03*
X80642000Y-131260000D03*
X80642000Y-130810000D03*
X80642000Y-130360000D03*
X83442000Y-130360000D03*
X83442000Y-130810000D03*
X83442000Y-131260000D03*
X83442000Y-131710000D03*
X83442000Y-132160000D03*
X83442000Y-132610000D03*
D37*
X82457000Y-130890000D03*
X82457000Y-132080000D03*
X81627000Y-130890000D03*
X81627000Y-132080000D03*
D38*
X43256833Y-74691513D03*
X43256833Y-75191513D03*
X43256833Y-75691513D03*
X43256833Y-76191513D03*
X43256833Y-76691513D03*
X40156833Y-76691513D03*
X40156833Y-76191513D03*
X40156833Y-75691513D03*
X40156833Y-75191513D03*
X40156833Y-74691513D03*
D39*
X41319333Y-76311513D03*
X41319333Y-75071513D03*
X42094333Y-76311513D03*
X42094333Y-75071513D03*
D40*
X54197248Y-125697248D03*
D41*
X55052496Y-127762000D03*
X57117248Y-128617248D03*
X59182000Y-127762000D03*
X60037248Y-125697248D03*
X59182000Y-123632496D03*
X57117248Y-122777248D03*
X55052496Y-123632496D03*
D11*
X108077000Y-88011000D03*
D12*
X108077000Y-85471000D03*
X108077000Y-82931000D03*
X108077000Y-80391000D03*
X108077000Y-77851000D03*
D42*
X34925000Y-113538000D03*
X32258000Y-113538000D03*
X30861000Y-137287000D03*
X33528000Y-137287000D03*
X75692000Y-84709000D03*
X23622000Y-52959000D03*
X23622000Y-30480000D03*
X37592000Y-83312000D03*
X100838000Y-132715000D03*
X61976000Y-64262000D03*
X46355000Y-83566000D03*
X60960000Y-74041000D03*
X66548000Y-16891000D03*
X71120000Y-23114000D03*
X72136000Y-31750000D03*
X104267000Y-120904000D03*
X75565000Y-127889000D03*
D43*
X82457000Y-132080000D03*
X81627000Y-130890000D03*
D42*
X96419500Y-100176500D03*
X98144500Y-98451500D03*
X80010000Y-103378000D03*
X76835000Y-103378000D03*
X100965000Y-91059000D03*
X102074000Y-84501500D03*
X98886500Y-81314000D03*
X97663000Y-77978000D03*
X68961000Y-76200000D03*
D43*
X42094333Y-75071513D03*
X41319333Y-76311513D03*
D42*
X35433000Y-86995000D03*
X34290000Y-143510000D03*
X34671000Y-107315000D03*
X31115000Y-117094000D03*
X50673000Y-127254000D03*
X34417000Y-132715000D03*
X101473000Y-147193000D03*
X87757000Y-143764000D03*
X75438000Y-137668000D03*
X38989000Y-69469000D03*
X81280000Y-89535000D03*
X58420000Y-76835000D03*
X53594000Y-75946000D03*
X67564000Y-19685000D03*
X67564000Y-31369000D03*
X91694000Y-93726000D03*
X86487000Y-96393000D03*
X104394000Y-105029000D03*
X91821000Y-98933000D03*
X81280000Y-112776000D03*
X101346000Y-88519000D03*
X102235000Y-76200000D03*
X76200000Y-76581000D03*
X67564000Y-78867000D03*
X70104000Y-72898000D03*
X73025000Y-65151000D03*
X49911000Y-64770000D03*
X58420000Y-68707000D03*
X48485624Y-84730467D03*
X40640000Y-81407000D03*
X50800000Y-120396000D03*
D44*
X98679000Y-132842000D03*
X98679000Y-131572000D03*
X79883000Y-132715000D03*
X79883000Y-131572000D03*
D43*
X105029000Y-83566000D03*
X116840000Y-69215000D03*
X101219000Y-100838000D03*
D44*
X110109000Y-69342000D03*
X93980000Y-76200000D03*
X72771000Y-96393000D03*
X110236000Y-70739000D03*
X93091000Y-77216000D03*
X74041000Y-96774000D03*
X66675000Y-25400000D03*
D43*
X79629000Y-92316252D03*
X65405000Y-69596000D03*
X44958000Y-85090000D03*
X35560000Y-84201000D03*
X57422515Y-72058943D03*
X66929000Y-92316252D03*
X66929000Y-89141252D03*
X71374000Y-92316252D03*
X71374000Y-89141252D03*
X79629000Y-89141252D03*
X85344000Y-90411252D03*
X89789000Y-89535000D03*
X74676000Y-90424000D03*
X77724000Y-93472000D03*
X67183000Y-70993000D03*
X61341000Y-70993000D03*
X34925000Y-84836000D03*
X57238388Y-70985820D03*
X44958000Y-86493108D03*
X104504422Y-82770843D03*
X101037612Y-99570958D03*
X115062000Y-70358000D03*
D44*
X97790000Y-96012000D03*
X105918000Y-102743000D03*
X98552000Y-96012000D03*
X100330000Y-96520000D03*
X106807000Y-131953000D03*
X103632000Y-131318000D03*
X87884000Y-132080000D03*
X84836000Y-131421498D03*
X101854000Y-78232000D03*
X104521000Y-81661000D03*
X103601000Y-85725000D03*
X97663000Y-86487000D03*
X99822000Y-79121000D03*
X103505000Y-79883000D03*
D42*
X30480000Y-63500000D03*
X30480000Y-41783000D03*
X26797000Y-19431000D03*
D44*
X97028000Y-96266000D03*
X98171000Y-102489000D03*
X100280053Y-100593989D03*
X100330000Y-99060000D03*
X96520000Y-102870000D03*
D45*
X74930000Y-71120000D03*
X76200000Y-71120000D03*
X88900000Y-98552000D03*
D46*
X31089296Y-140208000D02*
X33121296Y-140208000D01*
X33121296Y-140208000D02*
X33121296Y-138946000D01*
X33121296Y-138946000D02*
X32512000Y-138336704D01*
X32512000Y-138336704D02*
X32512000Y-137287000D01*
D47*
X27051000Y-137287000D02*
X29718000Y-137287000D01*
X29718000Y-137287000D02*
X30861000Y-137287000D01*
D46*
X31089296Y-140208000D02*
X31089296Y-138658296D01*
X31089296Y-138658296D02*
X29718000Y-137287000D01*
X32512000Y-110871000D02*
X34626999Y-110871000D01*
X34626999Y-110871000D02*
X34653000Y-110844999D01*
D47*
X32258000Y-113538000D02*
X33528000Y-113538000D01*
X33528000Y-113538000D02*
X34925000Y-113538000D01*
D46*
X34653000Y-110844999D02*
X34653000Y-112106999D01*
X34653000Y-112106999D02*
X33528000Y-113231999D01*
X33528000Y-113231999D02*
X33528000Y-113538000D01*
D47*
X29337000Y-113538000D02*
X31242000Y-113538000D01*
X31242000Y-113538000D02*
X32258000Y-113538000D01*
D46*
X32512000Y-110871000D02*
X32512000Y-112268000D01*
X32512000Y-112268000D02*
X31242000Y-113538000D01*
D47*
X26162000Y-110363000D02*
X29337000Y-113538000D01*
X26162000Y-109220000D02*
X26162000Y-135763000D01*
X26162000Y-100929000D02*
X26162000Y-109220000D01*
X26162000Y-109220000D02*
X26162000Y-110363000D01*
X30861000Y-137287000D02*
X32512000Y-137287000D01*
X32512000Y-137287000D02*
X33528000Y-137287000D01*
X26162000Y-136398000D02*
X27051000Y-137287000D01*
X26162000Y-135763000D02*
X26162000Y-136398000D01*
X30480000Y-92583000D02*
X30480000Y-96611000D01*
X30480000Y-96611000D02*
X26162000Y-100929000D01*
X106299000Y-115316000D02*
X90297000Y-115316000D01*
X90297000Y-115316000D02*
X71755000Y-115316000D01*
X93091000Y-118110000D02*
X90297000Y-115316000D01*
X108594000Y-129794000D02*
X110772000Y-129794000D01*
X110772000Y-129794000D02*
X111125000Y-129441000D01*
X111125000Y-129441000D02*
X111125000Y-120142000D01*
X71755000Y-115316000D02*
X55880000Y-99441000D01*
X111125000Y-120142000D02*
X106299000Y-115316000D01*
X55880000Y-99441000D02*
X55880000Y-92583000D01*
X93091000Y-128806000D02*
X93091000Y-118110000D01*
X89798000Y-129921000D02*
X91976000Y-129921000D01*
X91976000Y-129921000D02*
X93091000Y-128806000D01*
D46*
X89916000Y-126365000D02*
X89916000Y-129803000D01*
X89916000Y-129803000D02*
X89798000Y-129921000D01*
X87884000Y-126365000D02*
X89916000Y-126365000D01*
D48*
X89798000Y-129921000D02*
X88890000Y-129921000D01*
X88890000Y-129921000D02*
X88128000Y-129159000D01*
X88128000Y-129159000D02*
X85852000Y-129159000D01*
X85852000Y-129159000D02*
X84582000Y-127889000D01*
X83439000Y-126492000D02*
X83439000Y-126792000D01*
X83439000Y-126792000D02*
X84709000Y-128062000D01*
X84709000Y-128062000D02*
X84709000Y-129159000D01*
X83439000Y-124333000D02*
X83439000Y-126492000D01*
D49*
X84709000Y-129159000D02*
X84709000Y-130475202D01*
X84709000Y-130475202D02*
X83924202Y-131260000D01*
X83924202Y-131260000D02*
X83442000Y-131260000D01*
D46*
X90805000Y-131826000D02*
X90805000Y-130928000D01*
X90805000Y-130928000D02*
X89798000Y-129921000D01*
X108585000Y-126333000D02*
X106680000Y-126333000D01*
X108594000Y-129794000D02*
X108594000Y-126342000D01*
X108594000Y-126342000D02*
X108585000Y-126333000D01*
D48*
X102235000Y-126365000D02*
X103093000Y-126365000D01*
X103093000Y-126365000D02*
X103897198Y-127169198D01*
X103897198Y-127169198D02*
X103897198Y-128905000D01*
X102235000Y-126365000D02*
X102235000Y-124333000D01*
X106299000Y-128905000D02*
X107188000Y-129794000D01*
X107188000Y-129794000D02*
X108594000Y-129794000D01*
X103897198Y-128905000D02*
X106299000Y-128905000D01*
X103505000Y-130302000D02*
X103505000Y-129297198D01*
X103505000Y-129297198D02*
X103897198Y-128905000D01*
D49*
X103505000Y-130551000D02*
X103505000Y-130302000D01*
X102272000Y-131180000D02*
X102876000Y-131180000D01*
X102876000Y-131180000D02*
X103505000Y-130551000D01*
D46*
X109728000Y-131831000D02*
X109728000Y-130928000D01*
X109728000Y-130928000D02*
X108594000Y-129794000D01*
D50*
X30480000Y-92583000D02*
X42418000Y-92583000D01*
X42418000Y-92583000D02*
X55880000Y-92583000D01*
X42418000Y-87562108D02*
X42418000Y-89282108D01*
X42418000Y-89282108D02*
X42418000Y-92583000D01*
D51*
X49022000Y-87981108D02*
X49022000Y-88562108D01*
X49022000Y-88562108D02*
X48297000Y-89287108D01*
X48297000Y-89287108D02*
X43307000Y-89287108D01*
X43307000Y-89287108D02*
X42418000Y-88398108D01*
X42418000Y-88398108D02*
X42418000Y-87562108D01*
D49*
X39073000Y-86457108D02*
X42017000Y-86457108D01*
X42017000Y-86457108D02*
X42418000Y-86858108D01*
X42418000Y-86858108D02*
X42418000Y-87562108D01*
D50*
X19050000Y-92075000D02*
X29972000Y-92075000D01*
X29972000Y-92075000D02*
X30480000Y-92583000D01*
D46*
X81627000Y-132080000D02*
X81627000Y-130890000D01*
X82457000Y-132080000D02*
X81627000Y-132080000D01*
X82457000Y-130890000D02*
X82457000Y-132080000D01*
X81627000Y-130890000D02*
X82457000Y-130890000D01*
D51*
X36989000Y-82556108D02*
X36989000Y-82709000D01*
X36989000Y-82709000D02*
X37592000Y-83312000D01*
X100457000Y-132000000D02*
X100457000Y-132334000D01*
X100457000Y-132334000D02*
X100838000Y-132715000D01*
X101287000Y-130810000D02*
X100457000Y-130810000D01*
X101287000Y-132000000D02*
X101287000Y-130810000D01*
X100457000Y-132000000D02*
X101287000Y-132000000D01*
X100457000Y-132000000D02*
X100457000Y-130810000D01*
X39073000Y-85147108D02*
X38162000Y-85147108D01*
X38162000Y-85147108D02*
X37502000Y-85807108D01*
X37502000Y-85807108D02*
X36873000Y-85807108D01*
D46*
X59270388Y-64032820D02*
X61746820Y-64032820D01*
X61746820Y-64032820D02*
X61976000Y-64262000D01*
D49*
X46895000Y-84080108D02*
X46869108Y-84080108D01*
X46869108Y-84080108D02*
X46355000Y-83566000D01*
X43256833Y-75691513D02*
X41939333Y-75691513D01*
X41939333Y-75691513D02*
X41319333Y-76311513D01*
D48*
X58381388Y-73541820D02*
X60460820Y-73541820D01*
X60460820Y-73541820D02*
X60960000Y-74041000D01*
D50*
X106680000Y-124333000D02*
X106680000Y-123317000D01*
X106680000Y-123317000D02*
X104267000Y-120904000D01*
X77089000Y-127513000D02*
X75941000Y-127513000D01*
X75941000Y-127513000D02*
X75565000Y-127889000D01*
D51*
X47669501Y-87785109D02*
X47669501Y-85979000D01*
X47669501Y-85979000D02*
X47669501Y-84854609D01*
X48111000Y-86671108D02*
X47669501Y-86229609D01*
X49022000Y-86671108D02*
X48111000Y-86671108D01*
X47669501Y-86229609D02*
X47669501Y-85979000D01*
X46822000Y-87981108D02*
X47473502Y-87981108D01*
X47473502Y-87981108D02*
X47669501Y-87785109D01*
X47669501Y-84854609D02*
X46895000Y-84080108D01*
D46*
X36873000Y-86457108D02*
X35970892Y-86457108D01*
X35970892Y-86457108D02*
X35433000Y-86995000D01*
X33121296Y-142208000D02*
X33121296Y-142341296D01*
X33121296Y-142341296D02*
X34290000Y-143510000D01*
X34653000Y-108844999D02*
X34653000Y-107333000D01*
X34653000Y-107333000D02*
X34671000Y-107315000D01*
X50165000Y-125698000D02*
X50165000Y-126746000D01*
X50165000Y-126746000D02*
X50673000Y-127254000D01*
D50*
X102362000Y-143787000D02*
X102362000Y-146304000D01*
X102362000Y-146304000D02*
X101473000Y-147193000D01*
X83439000Y-143787000D02*
X87734000Y-143787000D01*
X87734000Y-143787000D02*
X87757000Y-143764000D01*
D46*
X77216000Y-136525000D02*
X76581000Y-136525000D01*
X76581000Y-136525000D02*
X75438000Y-137668000D01*
X31089296Y-142208000D02*
X33121296Y-142208000D01*
X32512000Y-108871000D02*
X34626999Y-108871000D01*
X34626999Y-108871000D02*
X34653000Y-108844999D01*
D48*
X94107000Y-136017000D02*
X94107000Y-139915802D01*
X94107000Y-139915802D02*
X96304198Y-142113000D01*
X96304198Y-142113000D02*
X99918000Y-142113000D01*
X99918000Y-142113000D02*
X101592000Y-143787000D01*
X101592000Y-143787000D02*
X102362000Y-143787000D01*
X95885000Y-130429000D02*
X95027000Y-130429000D01*
X94107000Y-131349000D02*
X94107000Y-136017000D01*
X95027000Y-130429000D02*
X94107000Y-131349000D01*
X94107000Y-136017000D02*
X94615000Y-136525000D01*
X94615000Y-136525000D02*
X96012000Y-136525000D01*
D47*
X55880000Y-158115000D02*
X80645000Y-158115000D01*
X80645000Y-158115000D02*
X81915000Y-156845000D01*
X30480000Y-158115000D02*
X55880000Y-158115000D01*
D46*
X87884000Y-124365000D02*
X86497000Y-124365000D01*
X78110000Y-125080000D02*
X78110000Y-126492000D01*
X86497000Y-124365000D02*
X84814000Y-122682000D01*
X84814000Y-122682000D02*
X80508000Y-122682000D01*
X80508000Y-122682000D02*
X78110000Y-125080000D01*
X89916000Y-124365000D02*
X87884000Y-124365000D01*
X77089000Y-130429000D02*
X77089000Y-127513000D01*
X77089000Y-127513000D02*
X78110000Y-126492000D01*
D49*
X80642000Y-130360000D02*
X81097000Y-130360000D01*
X81097000Y-130360000D02*
X81627000Y-130890000D01*
D46*
X106680000Y-124333000D02*
X105293000Y-124333000D01*
X96901000Y-125933000D02*
X97033000Y-126065000D01*
X105293000Y-124333000D02*
X103769000Y-122809000D01*
X103769000Y-122809000D02*
X99949000Y-122809000D01*
X99949000Y-122809000D02*
X96901000Y-125857000D01*
X96901000Y-125857000D02*
X96901000Y-125933000D01*
X97033000Y-126065000D02*
X97033000Y-126365000D01*
X108585000Y-124333000D02*
X106680000Y-124333000D01*
X97028000Y-126365000D02*
X95885000Y-127508000D01*
X95885000Y-127508000D02*
X95885000Y-130429000D01*
X97033000Y-126365000D02*
X97028000Y-126365000D01*
D49*
X99472000Y-130280000D02*
X99927000Y-130280000D01*
X99927000Y-130280000D02*
X100457000Y-130810000D01*
D51*
X55826388Y-74646820D02*
X55826388Y-75557820D01*
X55166388Y-73986820D02*
X55826388Y-74646820D01*
X55166388Y-73357820D02*
X55166388Y-73986820D01*
X55826388Y-75557820D02*
X55826388Y-74906318D01*
X55826388Y-74906318D02*
X56317886Y-74414820D01*
X56317886Y-74414820D02*
X57383388Y-74414820D01*
X57383388Y-74414820D02*
X58256388Y-73541820D01*
X58256388Y-73541820D02*
X58381388Y-73541820D01*
X56471388Y-66169867D02*
X56471388Y-65518365D01*
X56471388Y-65518365D02*
X56972933Y-65016820D01*
X56972933Y-65016820D02*
X58161388Y-65016820D01*
X58161388Y-65016820D02*
X59145388Y-64032820D01*
X59145388Y-64032820D02*
X59270388Y-64032820D01*
D50*
X39496999Y-68961001D02*
X38989000Y-69469000D01*
X40586320Y-69469000D02*
X39707420Y-69469000D01*
X40696833Y-69579513D02*
X40586320Y-69469000D01*
X40664833Y-67166513D02*
X40664833Y-67793167D01*
X39707420Y-69469000D02*
X38989000Y-69469000D01*
X40664833Y-67793167D02*
X39496999Y-68961001D01*
D46*
X36873000Y-86457108D02*
X36873000Y-85855109D01*
D50*
X40664833Y-67166513D02*
X40664833Y-69547513D01*
X40664833Y-66404513D02*
X40664833Y-67166513D01*
X40664833Y-69547513D02*
X40696833Y-69579513D01*
D49*
X37997833Y-75040513D02*
X39426833Y-75040513D01*
X39426833Y-75040513D02*
X39577833Y-75191513D01*
X39577833Y-75191513D02*
X40156833Y-75191513D01*
X40156833Y-75191513D02*
X41073333Y-75191513D01*
X41073333Y-75191513D02*
X41319333Y-75437513D01*
X41319333Y-75437513D02*
X41319333Y-76311513D01*
X41319333Y-75071513D02*
X41199333Y-75191513D01*
X41199333Y-75191513D02*
X40156833Y-75191513D01*
X41319333Y-75071513D02*
X42094333Y-75071513D01*
X41319333Y-76311513D02*
X41319333Y-75071513D01*
X42094333Y-76311513D02*
X41319333Y-76311513D01*
X42094333Y-75071513D02*
X42094333Y-76311513D01*
D48*
X58381388Y-75541820D02*
X58381388Y-76796388D01*
X58381388Y-76796388D02*
X58420000Y-76835000D01*
X52539388Y-75364820D02*
X53012820Y-75364820D01*
X53012820Y-75364820D02*
X53594000Y-75946000D01*
D51*
X54698388Y-74414820D02*
X52578000Y-74414820D01*
X52578000Y-74414820D02*
X51650388Y-74414820D01*
D48*
X52539388Y-75364820D02*
X52539388Y-74506820D01*
X52539388Y-74506820D02*
X52578000Y-74468208D01*
X52578000Y-74468208D02*
X52578000Y-74414820D01*
D50*
X72639000Y-69850000D02*
X72639000Y-70363000D01*
X72639000Y-70363000D02*
X70104000Y-72898000D01*
X71242000Y-65209538D02*
X72966462Y-65209538D01*
X72966462Y-65209538D02*
X73025000Y-65151000D01*
X53301388Y-65966820D02*
X51107820Y-65966820D01*
X51107820Y-65966820D02*
X49911000Y-64770000D01*
X58420000Y-68707000D02*
X58420000Y-66883208D01*
X58420000Y-66883208D02*
X59270388Y-66032820D01*
X56910388Y-69207820D02*
X57919180Y-69207820D01*
X57919180Y-69207820D02*
X58420000Y-68707000D01*
D46*
X48895000Y-84080108D02*
X48993623Y-84178731D01*
X48993623Y-84178731D02*
X48993623Y-84222468D01*
X48993623Y-84222468D02*
X48485624Y-84730467D01*
X38989000Y-82556108D02*
X39490892Y-82556108D01*
X39490892Y-82556108D02*
X40640000Y-81407000D01*
X52136000Y-121666000D02*
X52070000Y-121666000D01*
X52070000Y-121666000D02*
X50800000Y-120396000D01*
X50165000Y-123698000D02*
X52197000Y-123698000D01*
X52136000Y-121666000D02*
X52136000Y-123637000D01*
X52136000Y-123637000D02*
X52197000Y-123698000D01*
X52197000Y-123698000D02*
X54986992Y-123698000D01*
X54986992Y-123698000D02*
X55052496Y-123632496D01*
D51*
X56079388Y-69731820D02*
X56079388Y-69207820D01*
X53682388Y-72128820D02*
X56079388Y-69731820D01*
X51904388Y-72128820D02*
X53682388Y-72128820D01*
X51571885Y-74336317D02*
X51571885Y-72461323D01*
X51650388Y-74414820D02*
X51571885Y-74336317D01*
X55166388Y-74882820D02*
X54698388Y-74414820D01*
X55166388Y-75557820D02*
X55166388Y-74882820D01*
X51571885Y-72461323D02*
X51904388Y-72128820D01*
X56079388Y-69207820D02*
X56910388Y-69207820D01*
X56476388Y-75557820D02*
X58365388Y-75557820D01*
X58365388Y-75557820D02*
X58381388Y-75541820D01*
X59270388Y-66032820D02*
X57258435Y-66032820D01*
X57258435Y-66032820D02*
X57121388Y-66169867D01*
X55811388Y-66169867D02*
X55811388Y-68939820D01*
X55811388Y-68939820D02*
X56079388Y-69207820D01*
X48895000Y-84080108D02*
X48895000Y-81921108D01*
X48895000Y-84080108D02*
X48895000Y-85894108D01*
X48895000Y-85894108D02*
X49022000Y-86021108D01*
X38989000Y-82556108D02*
X38989000Y-84413108D01*
X38989000Y-84413108D02*
X39073000Y-84497108D01*
X99472000Y-132811000D02*
X98679000Y-133604000D01*
X98679000Y-133604000D02*
X97790000Y-134493000D01*
X98679000Y-132842000D02*
X98679000Y-133604000D01*
X99472000Y-131630000D02*
X98737000Y-131630000D01*
X98737000Y-131630000D02*
X98679000Y-131572000D01*
X99472000Y-132530000D02*
X99472000Y-132811000D01*
D47*
X97028000Y-139700000D02*
X98012000Y-138716000D01*
X98012000Y-138716000D02*
X98012000Y-136525000D01*
X98012000Y-136525000D02*
X98012000Y-134715000D01*
X98012000Y-134715000D02*
X97790000Y-134493000D01*
X98044000Y-136557000D02*
X98012000Y-136525000D01*
D46*
X104394000Y-129794000D02*
X104394000Y-132080000D01*
X104394000Y-132080000D02*
X104140000Y-132334000D01*
D49*
X103130000Y-132334000D02*
X104140000Y-132334000D01*
X102272000Y-132080000D02*
X102876000Y-132080000D01*
X102876000Y-132080000D02*
X103130000Y-132334000D01*
D46*
X104140000Y-134334000D02*
X104140000Y-135509000D01*
X104140000Y-135509000D02*
X102362000Y-137287000D01*
X102362000Y-137287000D02*
X106807000Y-137287000D01*
D51*
X102272000Y-132530000D02*
X102272000Y-137197000D01*
X102272000Y-137197000D02*
X102362000Y-137287000D01*
X80642000Y-132845000D02*
X80010000Y-133477000D01*
X80010000Y-133477000D02*
X78994000Y-134493000D01*
X79883000Y-132715000D02*
X79883000Y-133350000D01*
X79883000Y-133350000D02*
X80010000Y-133477000D01*
X80642000Y-131710000D02*
X80021000Y-131710000D01*
X80021000Y-131710000D02*
X79883000Y-131572000D01*
X80642000Y-132610000D02*
X80642000Y-132845000D01*
D47*
X79216000Y-136525000D02*
X79216000Y-134715000D01*
X79216000Y-134715000D02*
X78994000Y-134493000D01*
X78232000Y-139700000D02*
X79216000Y-138716000D01*
X79216000Y-138716000D02*
X79216000Y-136525000D01*
D46*
X85598000Y-129921000D02*
X85598000Y-131731000D01*
X85598000Y-131731000D02*
X85090000Y-132239000D01*
D49*
X85090000Y-132239000D02*
X85011000Y-132160000D01*
X85011000Y-132160000D02*
X83442000Y-132160000D01*
D46*
X85090000Y-134239000D02*
X85090000Y-135636000D01*
X85090000Y-135636000D02*
X83439000Y-137287000D01*
X83439000Y-137287000D02*
X87884000Y-137287000D01*
D51*
X83442000Y-132610000D02*
X83442000Y-137284000D01*
X83442000Y-137284000D02*
X83439000Y-137287000D01*
D50*
X42664833Y-66404513D02*
X44434833Y-66404513D01*
X44434833Y-66404513D02*
X47238140Y-69207820D01*
X47238140Y-69207820D02*
X47371000Y-69207820D01*
X54010388Y-69207820D02*
X47371000Y-69207820D01*
X47371000Y-69207820D02*
X43068526Y-69207820D01*
X42691833Y-72881513D02*
X44311833Y-72881513D01*
X47371000Y-69822346D02*
X47371000Y-69207820D01*
X44311833Y-72881513D02*
X47371000Y-69822346D01*
X43068526Y-69207820D02*
X42696833Y-69579513D01*
D51*
X53179388Y-69207820D02*
X54010388Y-69207820D01*
X51063874Y-71323334D02*
X53179388Y-69207820D01*
X51396388Y-77970820D02*
X51063874Y-77638305D01*
X51063874Y-77638305D02*
X51063874Y-71323334D01*
X53809388Y-77970820D02*
X51396388Y-77970820D01*
X54516388Y-77263820D02*
X53809388Y-77970820D01*
X54516388Y-75557820D02*
X54516388Y-77263820D01*
X55161388Y-66169867D02*
X55161388Y-68887820D01*
X55161388Y-68887820D02*
X54841388Y-69207820D01*
X54841388Y-69207820D02*
X54010388Y-69207820D01*
X42696833Y-69579513D02*
X42696833Y-66436513D01*
X42696833Y-66436513D02*
X42664833Y-66404513D01*
X42691833Y-72881513D02*
X42691833Y-69584513D01*
X42691833Y-69584513D02*
X42696833Y-69579513D01*
X43256833Y-74691513D02*
X43256833Y-73446513D01*
X43256833Y-73446513D02*
X42691833Y-72881513D01*
D47*
X94615000Y-146533000D02*
X94615000Y-148745002D01*
X94615000Y-148745002D02*
X90565001Y-152795001D01*
X94615000Y-156845000D02*
X94615000Y-146533000D01*
X94615000Y-146533000D02*
X97028000Y-144120000D01*
X94615000Y-156845000D02*
X90565001Y-152795001D01*
X90565001Y-152795001D02*
X87199001Y-152795001D01*
X87199001Y-152795001D02*
X78524000Y-144120000D01*
X78524000Y-144120000D02*
X78232000Y-144120000D01*
D51*
X80166160Y-21266452D02*
X80166160Y-23806452D01*
X80166160Y-53016452D02*
X81115661Y-52066951D01*
X81115661Y-52066951D02*
X81115661Y-25986953D01*
X81115661Y-25986953D02*
X80166160Y-25037452D01*
X80166160Y-25037452D02*
X80166160Y-23806452D01*
X81856161Y-24656451D02*
X82706160Y-23806452D01*
X81817161Y-24695451D02*
X81856161Y-24656451D01*
X81817161Y-52127453D02*
X81817161Y-24695451D01*
X82706160Y-53016452D02*
X81817161Y-52127453D01*
X82706160Y-23806452D02*
X82706160Y-21266452D01*
X87786160Y-23806452D02*
X87786160Y-21266452D01*
X83142659Y-28449953D02*
X86936161Y-24656451D01*
X86936161Y-24656451D02*
X87786160Y-23806452D01*
X87786160Y-53016452D02*
X83142659Y-48372951D01*
X83142659Y-48372951D02*
X83142659Y-28449953D01*
X98763661Y-29703953D02*
X93716159Y-24656451D01*
X92866160Y-53016452D02*
X92866160Y-40688411D01*
X92866160Y-40688411D02*
X98763661Y-34790910D01*
X93716159Y-24656451D02*
X92866160Y-23806452D01*
X98763661Y-34790910D02*
X98763661Y-29703953D01*
X92866160Y-23806452D02*
X92866160Y-21266452D01*
X100486160Y-23806452D02*
X100486160Y-21266452D01*
X100486160Y-53016452D02*
X101375159Y-52127453D01*
X101375159Y-52127453D02*
X101375159Y-24695451D01*
X101375159Y-24695451D02*
X101336159Y-24656451D01*
X101336159Y-24656451D02*
X100486160Y-23806452D01*
X103026160Y-23806452D02*
X103026160Y-21266452D01*
X103026160Y-53016452D02*
X103026160Y-23806452D01*
X105566160Y-23806452D02*
X105566160Y-53016452D01*
X105566160Y-21266452D02*
X105566160Y-23806452D01*
D48*
X105029000Y-83566000D02*
X106299000Y-82296000D01*
X106299000Y-82296000D02*
X106299000Y-66972882D01*
X106299000Y-66972882D02*
X109258999Y-64012883D01*
X108995159Y-53905451D02*
X108106160Y-53016452D01*
X109258999Y-64012883D02*
X109258999Y-56283215D01*
D51*
X109376160Y-56166054D02*
X109376160Y-54286452D01*
D48*
X109376160Y-54286452D02*
X108995159Y-53905451D01*
D51*
X109258999Y-56283215D02*
X109376160Y-56166054D01*
D46*
X108106160Y-23806452D02*
X108106160Y-21266452D01*
X108106160Y-53016452D02*
X108106160Y-23806452D01*
D51*
X110646160Y-23806452D02*
X110646160Y-53016452D01*
X110646160Y-21266452D02*
X110646160Y-23806452D01*
D49*
X117220999Y-69595999D02*
X116840000Y-69215000D01*
X117514010Y-69889010D02*
X117220999Y-69595999D01*
X101219000Y-100838000D02*
X104482001Y-104101001D01*
X109495921Y-104101001D02*
X117514010Y-96082912D01*
X117514010Y-96082912D02*
X117514010Y-69889010D01*
X104482001Y-104101001D02*
X109495921Y-104101001D01*
D46*
X113186160Y-23806452D02*
X113186160Y-21266452D01*
X113186160Y-53016452D02*
X113186160Y-23806452D01*
D51*
X115726160Y-23806452D02*
X115726160Y-53016452D01*
X115726160Y-21266452D02*
X115726160Y-23806452D01*
X93345000Y-75565000D02*
X93789501Y-76009501D01*
X82042000Y-76708000D02*
X83185000Y-75565000D01*
X82042000Y-89075258D02*
X82042000Y-76708000D01*
X82105501Y-89138759D02*
X82042000Y-89075258D01*
X93789501Y-76009501D02*
X93980000Y-76200000D01*
X82105501Y-93662499D02*
X82105501Y-89138759D01*
X83185000Y-75565000D02*
X93345000Y-75565000D01*
X80137000Y-95631000D02*
X82105501Y-93662499D01*
X73533000Y-95631000D02*
X80137000Y-95631000D01*
X72771000Y-96393000D02*
X73533000Y-95631000D01*
X110109000Y-69342000D02*
X111455902Y-69342000D01*
X111455902Y-69342000D02*
X116932661Y-63865241D01*
X116932661Y-63865241D02*
X116932661Y-54349951D01*
X116932661Y-54349951D02*
X117377161Y-53905451D01*
X117377161Y-53905451D02*
X118266160Y-53016452D01*
D46*
X54036000Y-121666000D02*
X56006000Y-121666000D01*
X56006000Y-121666000D02*
X57117248Y-122777248D01*
D51*
X118266160Y-23806452D02*
X118266160Y-21266452D01*
X118266160Y-53016452D02*
X118266160Y-23806452D01*
X110236000Y-70739000D02*
X112598902Y-70739000D01*
X119472661Y-54349951D02*
X119917161Y-53905451D01*
X119917161Y-53905451D02*
X120806160Y-53016452D01*
X112598902Y-70739000D02*
X119472661Y-63865241D01*
X119472661Y-63865241D02*
X119472661Y-54349951D01*
X84582000Y-77216000D02*
X93091000Y-77216000D01*
X83185000Y-78613000D02*
X84582000Y-77216000D01*
X83185000Y-93726000D02*
X83185000Y-78613000D01*
X79946501Y-96964499D02*
X83185000Y-93726000D01*
X74041000Y-96774000D02*
X74231499Y-96964499D01*
X74231499Y-96964499D02*
X79946501Y-96964499D01*
D46*
X52197000Y-125598000D02*
X54098000Y-125598000D01*
X54098000Y-125598000D02*
X54197248Y-125697248D01*
D51*
X120806160Y-23806452D02*
X120806160Y-21266452D01*
X120806160Y-53016452D02*
X120806160Y-23806452D01*
X123346160Y-23806452D02*
X123346160Y-21266452D01*
X123346160Y-53016452D02*
X123346160Y-23806452D01*
X125886160Y-23806452D02*
X125886160Y-53016452D01*
X125886160Y-21266452D02*
X125886160Y-23806452D01*
X128426160Y-53016452D02*
X127127000Y-51717292D01*
X127127000Y-51717292D02*
X127127000Y-25105612D01*
X127127000Y-25105612D02*
X127576161Y-24656451D01*
X127576161Y-24656451D02*
X128426160Y-23806452D01*
X66675000Y-25400000D02*
X66675000Y-29210000D01*
X66675000Y-29210000D02*
X67945000Y-30480000D01*
X77470000Y-19685000D02*
X79375000Y-17780000D01*
X67945000Y-30480000D02*
X76835000Y-30480000D01*
X79375000Y-17780000D02*
X127000000Y-17780000D01*
X76835000Y-30480000D02*
X77470000Y-29845000D01*
X77470000Y-29845000D02*
X77470000Y-19685000D01*
X128426160Y-19206160D02*
X128426160Y-21266452D01*
X127000000Y-17780000D02*
X128426160Y-19206160D01*
X128426160Y-23806452D02*
X128426160Y-21266452D01*
X80010000Y-60960000D02*
X80010000Y-63500000D01*
X80166160Y-55556452D02*
X80166160Y-60803840D01*
X80166160Y-60803840D02*
X80010000Y-60960000D01*
X87630000Y-60960000D02*
X87630000Y-63500000D01*
X87786160Y-55556452D02*
X87786160Y-60803840D01*
X87786160Y-60803840D02*
X87630000Y-60960000D01*
X90170000Y-60960000D02*
X90170000Y-63500000D01*
X90326160Y-55556452D02*
X90326160Y-60803840D01*
X90326160Y-60803840D02*
X90170000Y-60960000D01*
D46*
X79629000Y-89141252D02*
X79629000Y-92316252D01*
X68072000Y-66929000D02*
X68072000Y-66779538D01*
X68072000Y-66779538D02*
X69342000Y-65509538D01*
X69342000Y-65509538D02*
X69342000Y-65209538D01*
X91948000Y-66929000D02*
X68072000Y-66929000D01*
X68072000Y-66929000D02*
X65405000Y-69596000D01*
X92710000Y-66167000D02*
X91948000Y-66929000D01*
X92710000Y-64702081D02*
X92710000Y-66167000D01*
X92710000Y-63500000D02*
X92710000Y-64702081D01*
X57658000Y-62357000D02*
X61849000Y-62357000D01*
X61849000Y-62357000D02*
X63373000Y-63881000D01*
X63373000Y-63881000D02*
X63373000Y-66802000D01*
X63373000Y-66802000D02*
X58116057Y-72058943D01*
X58116057Y-72058943D02*
X57422515Y-72058943D01*
D51*
X57150000Y-62865000D02*
X57658000Y-62357000D01*
X57150000Y-63611255D02*
X57150000Y-62865000D01*
X57121388Y-63969867D02*
X57121388Y-63639867D01*
X57121388Y-63639867D02*
X57150000Y-63611255D01*
X45338999Y-85470999D02*
X44958000Y-85090000D01*
X46822000Y-86021108D02*
X45889108Y-86021108D01*
X45889108Y-86021108D02*
X45338999Y-85470999D01*
X36873000Y-84497108D02*
X35856108Y-84497108D01*
X35856108Y-84497108D02*
X35560000Y-84201000D01*
X57422515Y-72081693D02*
X57422515Y-72058943D01*
X56476388Y-73027820D02*
X57422515Y-72081693D01*
X56476388Y-73357820D02*
X56476388Y-73027820D01*
X66929000Y-89141252D02*
X66929000Y-92316252D01*
X71374000Y-89141252D02*
X71374000Y-92316252D01*
D46*
X92710000Y-60960000D02*
X92710000Y-63500000D01*
X92866160Y-55556452D02*
X92866160Y-60803840D01*
X92866160Y-60803840D02*
X92710000Y-60960000D01*
X69850000Y-68326000D02*
X69469000Y-68707000D01*
X69469000Y-68707000D02*
X67183000Y-70993000D01*
X70739000Y-69850000D02*
X69627000Y-69850000D01*
X69627000Y-69850000D02*
X69469000Y-69692000D01*
X69469000Y-69692000D02*
X69469000Y-68707000D01*
D48*
X89789000Y-89535000D02*
X86220252Y-89535000D01*
X86220252Y-89535000D02*
X85344000Y-90411252D01*
D46*
X77724000Y-93472000D02*
X74676000Y-90424000D01*
X67183000Y-70993000D02*
X61341000Y-70993000D01*
X94107000Y-68326000D02*
X69850000Y-68326000D01*
X95250000Y-67183000D02*
X94107000Y-68326000D01*
X95250000Y-63500000D02*
X95250000Y-67183000D01*
X64389000Y-63500000D02*
X64389000Y-67945000D01*
X64389000Y-67945000D02*
X61341000Y-70993000D01*
X62103000Y-61214000D02*
X64389000Y-63500000D01*
X56769000Y-61214000D02*
X62103000Y-61214000D01*
D51*
X56388000Y-61595000D02*
X56769000Y-61214000D01*
X56388000Y-62975479D02*
X56388000Y-61595000D01*
X56471388Y-63969867D02*
X56471388Y-63058867D01*
X56471388Y-63058867D02*
X56388000Y-62975479D01*
X36873000Y-85147108D02*
X35236108Y-85147108D01*
X35236108Y-85147108D02*
X34925000Y-84836000D01*
X56699573Y-70985820D02*
X57238388Y-70985820D01*
X55826388Y-71859005D02*
X56699573Y-70985820D01*
X55826388Y-73357820D02*
X55826388Y-71859005D01*
X46822000Y-86671108D02*
X45136000Y-86671108D01*
X45136000Y-86671108D02*
X44958000Y-86493108D01*
D46*
X95250000Y-60960000D02*
X95250000Y-63500000D01*
X95406160Y-55556452D02*
X95406160Y-60803840D01*
X95406160Y-60803840D02*
X95250000Y-60960000D01*
X107950000Y-60960000D02*
X107950000Y-58293000D01*
X107950000Y-58293000D02*
X108106160Y-58136840D01*
X108106160Y-58136840D02*
X108106160Y-55556452D01*
D48*
X107950000Y-63500000D02*
X105283000Y-66167000D01*
X105283000Y-81992265D02*
X104885421Y-82389844D01*
X105283000Y-66167000D02*
X105283000Y-81992265D01*
X104885421Y-82389844D02*
X104504422Y-82770843D01*
D46*
X107950000Y-60960000D02*
X107950000Y-63500000D01*
D51*
X110490000Y-60960000D02*
X110490000Y-63500000D01*
X110646160Y-55556452D02*
X110646160Y-60803840D01*
X110646160Y-60803840D02*
X110490000Y-60960000D01*
D49*
X115062000Y-70358000D02*
X115062000Y-93726000D01*
X106131361Y-103187501D02*
X104654155Y-103187501D01*
X115062000Y-93726000D02*
X111357079Y-97430921D01*
X111357079Y-97430921D02*
X111357079Y-97557921D01*
X106362501Y-102956361D02*
X106131361Y-103187501D01*
X111357079Y-97557921D02*
X109982000Y-98933000D01*
X109982000Y-98933000D02*
X108077000Y-98933000D01*
X108077000Y-98933000D02*
X106362501Y-100647499D01*
X106362501Y-100647499D02*
X106362501Y-102956361D01*
X104654155Y-103187501D02*
X101418611Y-99951957D01*
X101418611Y-99951957D02*
X101037612Y-99570958D01*
D46*
X113030000Y-60960000D02*
X113030000Y-63500000D01*
X113186160Y-55556452D02*
X113186160Y-60803840D01*
X113186160Y-60803840D02*
X113030000Y-60960000D01*
D51*
X115570000Y-60960000D02*
X115570000Y-63500000D01*
X115726160Y-55556452D02*
X115726160Y-60803840D01*
X115726160Y-60803840D02*
X115570000Y-60960000D01*
X118110000Y-60960000D02*
X118110000Y-63500000D01*
X118266160Y-55556452D02*
X118266160Y-60803840D01*
X118266160Y-60803840D02*
X118110000Y-60960000D01*
X120650000Y-60960000D02*
X120650000Y-63500000D01*
X120806160Y-55556452D02*
X120806160Y-60803840D01*
X120806160Y-60803840D02*
X120650000Y-60960000D01*
X123190000Y-60960000D02*
X123190000Y-63500000D01*
X123346160Y-55556452D02*
X123346160Y-60803840D01*
X123346160Y-60803840D02*
X123190000Y-60960000D01*
X125886160Y-55556452D02*
X125886160Y-60803840D01*
X125886160Y-60803840D02*
X125730000Y-60960000D01*
X125730000Y-60960000D02*
X125730000Y-63500000D01*
X128270000Y-60960000D02*
X128270000Y-63500000D01*
X128426160Y-55556452D02*
X128426160Y-60803840D01*
X128426160Y-60803840D02*
X128270000Y-60960000D01*
D49*
X99822000Y-97282000D02*
X99060000Y-97282000D01*
X99060000Y-97282000D02*
X97790000Y-96012000D01*
X105283000Y-102743000D02*
X99822000Y-97282000D01*
X105918000Y-102743000D02*
X105283000Y-102743000D01*
X100330000Y-96520000D02*
X99060000Y-96520000D01*
X99060000Y-96520000D02*
X98552000Y-96012000D01*
D48*
X106807000Y-131953000D02*
X106807000Y-133731000D01*
D49*
X102272000Y-131630000D02*
X103320000Y-131630000D01*
X103320000Y-131630000D02*
X103632000Y-131318000D01*
D46*
X109728000Y-133731000D02*
X106807000Y-133731000D01*
D48*
X87884000Y-132080000D02*
X87884000Y-133731000D01*
D49*
X84057000Y-131699000D02*
X84334502Y-131421498D01*
X84334502Y-131421498D02*
X84836000Y-131421498D01*
X83442000Y-131710000D02*
X84046000Y-131710000D01*
X84046000Y-131710000D02*
X84057000Y-131699000D01*
D46*
X90805000Y-133726000D02*
X87889000Y-133726000D01*
X87889000Y-133726000D02*
X87884000Y-133731000D01*
D49*
X43256833Y-76191513D02*
X45752833Y-76191513D01*
X45752833Y-76191513D02*
X46506833Y-76945513D01*
X43256833Y-75191513D02*
X45760833Y-75191513D01*
X45760833Y-75191513D02*
X46506833Y-74445513D01*
D48*
X103378000Y-78232000D02*
X101854000Y-78232000D01*
X104521000Y-79375000D02*
X103378000Y-78232000D01*
X104521000Y-81661000D02*
X104521000Y-79375000D01*
X103601000Y-82581000D02*
X104521000Y-81661000D01*
X103601000Y-85725000D02*
X103601000Y-82581000D01*
X96647000Y-85471000D02*
X97663000Y-86487000D01*
X96647000Y-82296000D02*
X96647000Y-85471000D01*
X99822000Y-79121000D02*
X96647000Y-82296000D01*
X102743000Y-79121000D02*
X99822000Y-79121000D01*
X103505000Y-79883000D02*
X102743000Y-79121000D01*
D51*
X52539388Y-73464820D02*
X54409388Y-73464820D01*
X54409388Y-73464820D02*
X54516388Y-73357820D01*
D50*
X36322000Y-78613000D02*
X30480000Y-72771000D01*
X30480000Y-72771000D02*
X30480000Y-63500000D01*
X41783000Y-78613000D02*
X36322000Y-78613000D01*
X30480000Y-63500000D02*
X30480000Y-41783000D01*
X30480000Y-41783000D02*
X30480000Y-23114000D01*
X30480000Y-23114000D02*
X26797000Y-19431000D01*
D51*
X40531320Y-77597000D02*
X40894000Y-77597000D01*
X40894000Y-77597000D02*
X41148000Y-77597000D01*
X41910000Y-78613000D02*
X40894000Y-77597000D01*
X42291000Y-77597000D02*
X42545000Y-77597000D01*
X42545000Y-77597000D02*
X42926000Y-77597000D01*
X41783000Y-78359000D02*
X42545000Y-77597000D01*
X41783000Y-77597000D02*
X42291000Y-77597000D01*
X41783000Y-78359000D02*
X41783000Y-78105000D01*
X41783000Y-78105000D02*
X42291000Y-77597000D01*
X41783000Y-78359000D02*
X41783000Y-77597000D01*
X41783000Y-78613000D02*
X41783000Y-78359000D01*
X41148000Y-77597000D02*
X41783000Y-77597000D01*
X41783000Y-78359000D02*
X41783000Y-78232000D01*
X41783000Y-78232000D02*
X41148000Y-77597000D01*
X41783000Y-78613000D02*
X41910000Y-78613000D01*
X41910000Y-78613000D02*
X42926000Y-77597000D01*
X41783000Y-78613000D02*
X41547320Y-78613000D01*
X41547320Y-78613000D02*
X40531320Y-77597000D01*
D50*
X42418000Y-79248000D02*
X41783000Y-78613000D01*
X42418000Y-81286108D02*
X42418000Y-79248000D01*
D51*
X42926000Y-77597000D02*
X43256833Y-77266167D01*
X43256833Y-77266167D02*
X43256833Y-76691513D01*
X40156833Y-76691513D02*
X40156833Y-77222513D01*
X40156833Y-77222513D02*
X40531320Y-77597000D01*
X40156833Y-76191513D02*
X40156833Y-76691513D01*
X40156833Y-75691513D02*
X40156833Y-76191513D01*
X49022000Y-87331108D02*
X49933000Y-87331108D01*
X49933000Y-87331108D02*
X50419000Y-86845108D01*
X50419000Y-81286108D02*
X49530000Y-80397108D01*
X50419000Y-86845108D02*
X50419000Y-81286108D01*
X49530000Y-80397108D02*
X43307000Y-80397108D01*
X43307000Y-80397108D02*
X42418000Y-81286108D01*
D50*
X42418000Y-82942108D02*
X42418000Y-81286108D01*
X42418000Y-84662108D02*
X42418000Y-82942108D01*
D49*
X39073000Y-85807108D02*
X41977000Y-85807108D01*
X41977000Y-85807108D02*
X42418000Y-85366108D01*
X42418000Y-85366108D02*
X42418000Y-84662108D01*
D51*
X46822000Y-87331108D02*
X44762216Y-87331108D01*
X44762216Y-87331108D02*
X44132498Y-86701390D01*
X44132498Y-86701390D02*
X44132498Y-83508610D01*
X44132498Y-83508610D02*
X45720000Y-81921108D01*
X45720000Y-81921108D02*
X46995000Y-81921108D01*
X55161388Y-63969867D02*
X53398341Y-63969867D01*
X53398341Y-63969867D02*
X53301388Y-64066820D01*
X55811388Y-63969867D02*
X55161388Y-63969867D01*
D46*
X95890000Y-134493000D02*
X95890000Y-132466000D01*
X95890000Y-132466000D02*
X95885000Y-132461000D01*
D49*
X97785000Y-132461000D02*
X98166000Y-132080000D01*
X98166000Y-132080000D02*
X99472000Y-132080000D01*
D46*
X97785000Y-132461000D02*
X97785000Y-130429000D01*
D48*
X100335000Y-126365000D02*
X100335000Y-124333000D01*
X100330000Y-128397000D02*
X100330000Y-126370000D01*
X100330000Y-126370000D02*
X100335000Y-126365000D01*
X98933000Y-126365000D02*
X100335000Y-126365000D01*
D51*
X102272000Y-130280000D02*
X102272000Y-128439000D01*
X102272000Y-128439000D02*
X102230000Y-128397000D01*
D49*
X97028000Y-96535407D02*
X97028000Y-96266000D01*
X97028000Y-99657238D02*
X97028000Y-96535407D01*
X98171000Y-100800238D02*
X97028000Y-99657238D01*
X98171000Y-102489000D02*
X98171000Y-100800238D01*
X98361501Y-103060499D02*
X100280053Y-101141947D01*
X96710499Y-103060499D02*
X98361501Y-103060499D01*
X100330000Y-100544042D02*
X100280053Y-100593989D01*
X100280053Y-101141947D02*
X100280053Y-100863396D01*
X100330000Y-99060000D02*
X100330000Y-100544042D01*
X96520000Y-102870000D02*
X96710499Y-103060499D01*
X100280053Y-100863396D02*
X100280053Y-100593989D01*
D46*
X77094000Y-134493000D02*
X77094000Y-132466000D01*
X77094000Y-132466000D02*
X77089000Y-132461000D01*
D49*
X80642000Y-132160000D02*
X79290000Y-132160000D01*
X79290000Y-132160000D02*
X78989000Y-132461000D01*
D46*
X78989000Y-132461000D02*
X78989000Y-130429000D01*
D48*
X81539000Y-126492000D02*
X80010000Y-126492000D01*
X81539000Y-124333000D02*
X81539000Y-126492000D01*
X81534000Y-128524000D02*
X81534000Y-126497000D01*
X81534000Y-126497000D02*
X81539000Y-126492000D01*
D51*
X83442000Y-130360000D02*
X83442000Y-128532000D01*
X83442000Y-128532000D02*
X83434000Y-128524000D01*
D49*
X40156833Y-74691513D02*
X40156833Y-74287513D01*
X40156833Y-74287513D02*
X39262833Y-73393513D01*
X39262833Y-73393513D02*
X39262833Y-73140513D01*
X39521833Y-72881513D02*
X39262833Y-73140513D01*
X39262833Y-73140513D02*
X37997833Y-73140513D01*
X40791833Y-72881513D02*
X39521833Y-72881513D01*
D46*
X57150000Y-129794000D02*
X57117248Y-129761248D01*
X57117248Y-129761248D02*
X57117248Y-128617248D01*
X53910001Y-133033999D02*
X57150000Y-129794000D01*
X44318000Y-132334000D02*
X45017999Y-133033999D01*
X45017999Y-133033999D02*
X53910001Y-133033999D01*
X60037248Y-125697248D02*
X60637247Y-125097249D01*
X60637247Y-125097249D02*
X60637247Y-123447901D01*
X60637247Y-123447901D02*
X55934346Y-118745000D01*
X45307949Y-118745000D02*
X44318000Y-118745000D01*
X55934346Y-118745000D02*
X45307949Y-118745000D01*
X74295000Y-34925000D02*
X51560000Y-34925000D01*
X51560000Y-34925000D02*
X46480000Y-29845000D01*
X77470000Y-38100000D02*
X74295000Y-34925000D01*
X77470000Y-46990000D02*
X77470000Y-38100000D01*
X76200000Y-48260000D02*
X77470000Y-46990000D01*
X73660000Y-48260000D02*
X76200000Y-48260000D01*
X49150000Y-29845000D02*
X49150000Y-30919802D01*
X49150000Y-30919802D02*
X51250198Y-33020000D01*
X51250198Y-33020000D02*
X75565000Y-33020000D01*
X75565000Y-33020000D02*
X79375000Y-36830000D01*
X79375000Y-36830000D02*
X79375000Y-48895000D01*
X79375000Y-48895000D02*
X77470000Y-50800000D01*
X77470000Y-50800000D02*
X73660000Y-50800000D01*
X82550000Y-60960000D02*
X82550000Y-55712612D01*
X82550000Y-55712612D02*
X82706160Y-55556452D01*
X82550000Y-63500000D02*
X82550000Y-60960000D01*
X85090000Y-60960000D02*
X85090000Y-55712612D01*
X85090000Y-55712612D02*
X85246160Y-55556452D01*
X85090000Y-63500000D02*
X85090000Y-60960000D01*
X97790000Y-60960000D02*
X97790000Y-55712612D01*
X97790000Y-55712612D02*
X97946160Y-55556452D01*
X97790000Y-63500000D02*
X97790000Y-60960000D01*
X97790000Y-63500000D02*
X97790000Y-67437000D01*
X97790000Y-67437000D02*
X95250000Y-69977000D01*
X95250000Y-69977000D02*
X76073000Y-69977000D01*
X76073000Y-69977000D02*
X75229999Y-70820001D01*
X75229999Y-70820001D02*
X74930000Y-71120000D01*
X100330000Y-60960000D02*
X100330000Y-55712612D01*
X100330000Y-55712612D02*
X100486160Y-55556452D01*
X100330000Y-63500000D02*
X100330000Y-60960000D01*
X95364251Y-71120000D02*
X76624264Y-71120000D01*
X100330000Y-66154251D02*
X95364251Y-71120000D01*
X100330000Y-63500000D02*
X100330000Y-66154251D01*
X76624264Y-71120000D02*
X76200000Y-71120000D01*
X102870000Y-60960000D02*
X102870000Y-55712612D01*
X102870000Y-55712612D02*
X103026160Y-55556452D01*
X102870000Y-63500000D02*
X102870000Y-60960000D01*
X105410000Y-60960000D02*
X105410000Y-63500000D01*
X105566160Y-55556452D02*
X105566160Y-60803840D01*
X105566160Y-60803840D02*
X105410000Y-60960000D01*
D51*
X95406160Y-21266452D02*
X95406160Y-23806452D01*
X95406160Y-39046449D02*
X99398671Y-35053939D01*
X95406160Y-53016452D02*
X95406160Y-39046449D01*
X99398671Y-35053939D02*
X99398671Y-29440924D01*
X99398671Y-29440924D02*
X95406160Y-25448414D01*
X95406160Y-25448414D02*
X95406160Y-23806452D01*
X93345000Y-78867000D02*
X101692661Y-70519339D01*
X98835159Y-53905451D02*
X97946160Y-53016452D01*
X101692661Y-70519339D02*
X101692661Y-54977331D01*
X100938283Y-54222953D02*
X99152661Y-54222953D01*
X101692661Y-54977331D02*
X100938283Y-54222953D01*
X99152661Y-54222953D02*
X98835159Y-53905451D01*
X93345000Y-90424000D02*
X93345000Y-78867000D01*
X89199999Y-94569001D02*
X93345000Y-90424000D01*
X88900000Y-98552000D02*
X89199999Y-98252001D01*
X89199999Y-98252001D02*
X89199999Y-94569001D01*
X97946160Y-23806452D02*
X97946160Y-21266452D01*
X97946160Y-53016452D02*
X100033681Y-50928931D01*
X100033681Y-50928931D02*
X100033681Y-25893973D01*
X100033681Y-25893973D02*
X98796159Y-24656451D01*
X98796159Y-24656451D02*
X97946160Y-23806452D01*
D49*
G36*
X39289489Y-76191513D02*
X39196833Y-76415203D01*
X39196833Y-76467823D01*
X39293506Y-76701212D01*
X39358807Y-76766513D01*
X39355583Y-76766513D01*
X39196833Y-76925263D01*
X39196833Y-76967823D01*
X39293506Y-77201212D01*
X39472135Y-77379840D01*
X39705524Y-77476513D01*
X39871083Y-77476513D01*
X40029833Y-77317763D01*
X40029833Y-76544513D01*
X40283833Y-76544513D01*
X40283833Y-77317763D01*
X40442583Y-77476513D01*
X40604671Y-77476513D01*
X40679943Y-77527944D01*
X40931833Y-77578953D01*
X42481833Y-77578953D01*
X42717150Y-77534675D01*
X42807536Y-77476513D01*
X42971083Y-77476513D01*
X43129833Y-77317763D01*
X43129833Y-76988953D01*
X43383833Y-76988953D01*
X43383833Y-77317763D01*
X43542583Y-77476513D01*
X43708142Y-77476513D01*
X43941531Y-77379840D01*
X44120160Y-77201212D01*
X44216833Y-76967823D01*
X44216833Y-76953513D01*
X44474833Y-76953513D01*
X44474833Y-78469513D01*
X39013833Y-78469513D01*
X39013833Y-76183513D01*
X39286175Y-76183513D01*
X39289489Y-76191513D01*
X39289489Y-76191513D01*
G37*
X39289489Y-76191513D02*
X39196833Y-76415203D01*
X39196833Y-76467823D01*
X39293506Y-76701212D01*
X39358807Y-76766513D01*
X39355583Y-76766513D01*
X39196833Y-76925263D01*
X39196833Y-76967823D01*
X39293506Y-77201212D01*
X39472135Y-77379840D01*
X39705524Y-77476513D01*
X39871083Y-77476513D01*
X40029833Y-77317763D01*
X40029833Y-76544513D01*
X40283833Y-76544513D01*
X40283833Y-77317763D01*
X40442583Y-77476513D01*
X40604671Y-77476513D01*
X40679943Y-77527944D01*
X40931833Y-77578953D01*
X42481833Y-77578953D01*
X42717150Y-77534675D01*
X42807536Y-77476513D01*
X42971083Y-77476513D01*
X43129833Y-77317763D01*
X43129833Y-76988953D01*
X43383833Y-76988953D01*
X43383833Y-77317763D01*
X43542583Y-77476513D01*
X43708142Y-77476513D01*
X43941531Y-77379840D01*
X44120160Y-77201212D01*
X44216833Y-76967823D01*
X44216833Y-76953513D01*
X44474833Y-76953513D01*
X44474833Y-78469513D01*
X39013833Y-78469513D01*
X39013833Y-76183513D01*
X39286175Y-76183513D01*
X39289489Y-76191513D01*
G36*
X44474833Y-74429513D02*
X44216833Y-74429513D01*
X44216833Y-74415203D01*
X44120160Y-74181814D01*
X43941531Y-74003186D01*
X43708142Y-73906513D01*
X43564859Y-73906513D01*
X43580160Y-73891212D01*
X43676833Y-73657823D01*
X43676833Y-73167263D01*
X43518083Y-73008513D01*
X42818833Y-73008513D01*
X42818833Y-73028513D01*
X42564833Y-73028513D01*
X42564833Y-73008513D01*
X42544833Y-73008513D01*
X42544833Y-72754513D01*
X42564833Y-72754513D01*
X42564833Y-71755263D01*
X42818833Y-71755263D01*
X42818833Y-72754513D01*
X43518083Y-72754513D01*
X43676833Y-72595763D01*
X43676833Y-72105203D01*
X43580160Y-71871814D01*
X43401531Y-71693186D01*
X43168142Y-71596513D01*
X42977583Y-71596513D01*
X42818833Y-71755263D01*
X42564833Y-71755263D01*
X42406083Y-71596513D01*
X42215524Y-71596513D01*
X42188833Y-71607569D01*
X42188833Y-70839513D01*
X42411083Y-70839513D01*
X42569833Y-70680763D01*
X42569833Y-69706513D01*
X42823833Y-69706513D01*
X42823833Y-70680763D01*
X42982583Y-70839513D01*
X43323142Y-70839513D01*
X43556531Y-70742840D01*
X43735160Y-70564212D01*
X43831833Y-70330823D01*
X43831833Y-69865263D01*
X43673083Y-69706513D01*
X42823833Y-69706513D01*
X42569833Y-69706513D01*
X42549833Y-69706513D01*
X42549833Y-69452513D01*
X42569833Y-69452513D01*
X42569833Y-68478263D01*
X42823833Y-68478263D01*
X42823833Y-69452513D01*
X43673083Y-69452513D01*
X43831833Y-69293763D01*
X43831833Y-68828203D01*
X43735160Y-68594814D01*
X43556531Y-68416186D01*
X43323142Y-68319513D01*
X42982583Y-68319513D01*
X42823833Y-68478263D01*
X42569833Y-68478263D01*
X42411083Y-68319513D01*
X42188833Y-68319513D01*
X42188833Y-67664513D01*
X42379083Y-67664513D01*
X42537833Y-67505763D01*
X42537833Y-66531513D01*
X42791833Y-66531513D01*
X42791833Y-67505763D01*
X42950583Y-67664513D01*
X43291142Y-67664513D01*
X43524531Y-67567840D01*
X43703160Y-67389212D01*
X43799833Y-67155823D01*
X43799833Y-66690263D01*
X43641083Y-66531513D01*
X42791833Y-66531513D01*
X42537833Y-66531513D01*
X42517833Y-66531513D01*
X42517833Y-66277513D01*
X42537833Y-66277513D01*
X42537833Y-66257513D01*
X42791833Y-66257513D01*
X42791833Y-66277513D01*
X43641083Y-66277513D01*
X43799833Y-66118763D01*
X43799833Y-65653203D01*
X43703160Y-65419814D01*
X43671859Y-65388513D01*
X44474833Y-65388513D01*
X44474833Y-74429513D01*
X44474833Y-74429513D01*
G37*
X44474833Y-74429513D02*
X44216833Y-74429513D01*
X44216833Y-74415203D01*
X44120160Y-74181814D01*
X43941531Y-74003186D01*
X43708142Y-73906513D01*
X43564859Y-73906513D01*
X43580160Y-73891212D01*
X43676833Y-73657823D01*
X43676833Y-73167263D01*
X43518083Y-73008513D01*
X42818833Y-73008513D01*
X42818833Y-73028513D01*
X42564833Y-73028513D01*
X42564833Y-73008513D01*
X42544833Y-73008513D01*
X42544833Y-72754513D01*
X42564833Y-72754513D01*
X42564833Y-71755263D01*
X42818833Y-71755263D01*
X42818833Y-72754513D01*
X43518083Y-72754513D01*
X43676833Y-72595763D01*
X43676833Y-72105203D01*
X43580160Y-71871814D01*
X43401531Y-71693186D01*
X43168142Y-71596513D01*
X42977583Y-71596513D01*
X42818833Y-71755263D01*
X42564833Y-71755263D01*
X42406083Y-71596513D01*
X42215524Y-71596513D01*
X42188833Y-71607569D01*
X42188833Y-70839513D01*
X42411083Y-70839513D01*
X42569833Y-70680763D01*
X42569833Y-69706513D01*
X42823833Y-69706513D01*
X42823833Y-70680763D01*
X42982583Y-70839513D01*
X43323142Y-70839513D01*
X43556531Y-70742840D01*
X43735160Y-70564212D01*
X43831833Y-70330823D01*
X43831833Y-69865263D01*
X43673083Y-69706513D01*
X42823833Y-69706513D01*
X42569833Y-69706513D01*
X42549833Y-69706513D01*
X42549833Y-69452513D01*
X42569833Y-69452513D01*
X42569833Y-68478263D01*
X42823833Y-68478263D01*
X42823833Y-69452513D01*
X43673083Y-69452513D01*
X43831833Y-69293763D01*
X43831833Y-68828203D01*
X43735160Y-68594814D01*
X43556531Y-68416186D01*
X43323142Y-68319513D01*
X42982583Y-68319513D01*
X42823833Y-68478263D01*
X42569833Y-68478263D01*
X42411083Y-68319513D01*
X42188833Y-68319513D01*
X42188833Y-67664513D01*
X42379083Y-67664513D01*
X42537833Y-67505763D01*
X42537833Y-66531513D01*
X42791833Y-66531513D01*
X42791833Y-67505763D01*
X42950583Y-67664513D01*
X43291142Y-67664513D01*
X43524531Y-67567840D01*
X43703160Y-67389212D01*
X43799833Y-67155823D01*
X43799833Y-66690263D01*
X43641083Y-66531513D01*
X42791833Y-66531513D01*
X42537833Y-66531513D01*
X42517833Y-66531513D01*
X42517833Y-66277513D01*
X42537833Y-66277513D01*
X42537833Y-66257513D01*
X42791833Y-66257513D01*
X42791833Y-66277513D01*
X43641083Y-66277513D01*
X43799833Y-66118763D01*
X43799833Y-65653203D01*
X43703160Y-65419814D01*
X43671859Y-65388513D01*
X44474833Y-65388513D01*
X44474833Y-74429513D01*
M02*
