G04 #@! TF.FileFunction,Copper,L1,Top,Signal*
%FSLAX46Y46*%
G04 Gerber Fmt 4.6, Leading zero omitted, Abs format (unit mm)*
G04 Created by KiCad (PCBNEW 4.0.6) date 09/10/17 19:14:27*
%MOMM*%
%LPD*%
G01*
G04 APERTURE LIST*
%ADD10C,0.100000*%
%ADD11R,3.390000X1.120000*%
%ADD12R,2.220000X2.440000*%
%ADD13R,0.650000X0.350000*%
%ADD14R,0.775000X1.200000*%
%ADD15R,1.700000X1.700000*%
%ADD16O,1.700000X1.700000*%
%ADD17C,6.350000*%
%ADD18R,1.000000X1.250000*%
%ADD19R,1.250000X1.000000*%
%ADD20R,1.000000X2.500000*%
%ADD21C,3.810000*%
%ADD22R,1.520000X1.520000*%
%ADD23C,1.520000*%
%ADD24C,8.100000*%
%ADD25C,1.778000*%
%ADD26R,0.800000X0.900000*%
%ADD27R,0.700000X1.300000*%
%ADD28R,1.300000X0.700000*%
%ADD29C,1.998980*%
%ADD30R,0.508000X1.143000*%
%ADD31R,0.350000X0.500000*%
%ADD32R,0.600000X1.950000*%
%ADD33C,1.400000*%
%ADD34O,1.400000X1.400000*%
%ADD35R,1.000000X0.370000*%
%ADD36R,0.370000X1.000000*%
%ADD37R,1.062500X1.062500*%
%ADD38R,0.700000X0.250000*%
%ADD39R,0.250000X0.700000*%
%ADD40R,1.725000X1.725000*%
%ADD41O,1.600000X1.200000*%
%ADD42O,1.200000X1.200000*%
%ADD43R,0.300000X0.500000*%
%ADD44R,0.880000X1.060000*%
%ADD45C,1.016000*%
%ADD46C,0.762000*%
%ADD47C,0.381000*%
%ADD48C,0.600000*%
%ADD49C,0.381000*%
%ADD50C,0.762000*%
%ADD51C,1.270000*%
%ADD52C,0.508000*%
%ADD53C,0.254000*%
G04 APERTURE END LIST*
D10*
D11*
X22390891Y-19360000D03*
X22390891Y-21860000D03*
X22390891Y-23860000D03*
X22390891Y-26360000D03*
D12*
X18710891Y-30530000D03*
X18710891Y-15190000D03*
D11*
X22390891Y-41743479D03*
X22390891Y-44243479D03*
X22390891Y-46243479D03*
X22390891Y-48743479D03*
D12*
X18710891Y-52913479D03*
X18710891Y-37573479D03*
D11*
X22285000Y-63425000D03*
X22285000Y-65925000D03*
X22285000Y-67925000D03*
X22285000Y-70425000D03*
D12*
X18605000Y-74595000D03*
X18605000Y-59255000D03*
D13*
X71400000Y-26375000D03*
X71400000Y-25725000D03*
X71400000Y-25075000D03*
X71400000Y-24425000D03*
X68300000Y-24425000D03*
X68300000Y-25075000D03*
X68300000Y-25725000D03*
X68300000Y-26375000D03*
D14*
X69462500Y-24800000D03*
X69462500Y-26000000D03*
X70237500Y-24800000D03*
X70237500Y-26000000D03*
D15*
X73660000Y-43180000D03*
D16*
X73660000Y-45720000D03*
X73660000Y-48260000D03*
X73660000Y-50800000D03*
X73660000Y-53340000D03*
X73660000Y-55880000D03*
D17*
X43180000Y-104648000D03*
X43180000Y-146050000D03*
D18*
X101076000Y-76835000D03*
X99076000Y-76835000D03*
D19*
X100076000Y-87916000D03*
X100076000Y-89916000D03*
X95250000Y-87916000D03*
X95250000Y-89916000D03*
D20*
X71350000Y-15875000D03*
X68350000Y-15875000D03*
D18*
X68850000Y-21590000D03*
X70850000Y-21590000D03*
X68739000Y-29591000D03*
X70739000Y-29591000D03*
D19*
X74549000Y-79502000D03*
X74549000Y-77502000D03*
X70612000Y-79470000D03*
X70612000Y-77470000D03*
X84709000Y-81156252D03*
X84709000Y-83156252D03*
X76454000Y-81156252D03*
X76454000Y-83156252D03*
D18*
X82185000Y-111465990D03*
X84185000Y-111465990D03*
X93234000Y-94869000D03*
X95234000Y-94869000D03*
D19*
X102743000Y-102140000D03*
X102743000Y-104140000D03*
X92456000Y-99600000D03*
X92456000Y-101600000D03*
D15*
X75565000Y-21590000D03*
D16*
X75565000Y-24130000D03*
X75565000Y-26670000D03*
D15*
X80166160Y-23806452D03*
D16*
X80166160Y-21266452D03*
X82706160Y-23806452D03*
X82706160Y-21266452D03*
X85246160Y-23806452D03*
X85246160Y-21266452D03*
X87786160Y-23806452D03*
X87786160Y-21266452D03*
X90326160Y-23806452D03*
X90326160Y-21266452D03*
X92866160Y-23806452D03*
X92866160Y-21266452D03*
X95406160Y-23806452D03*
X95406160Y-21266452D03*
X97946160Y-23806452D03*
X97946160Y-21266452D03*
X100486160Y-23806452D03*
X100486160Y-21266452D03*
X103026160Y-23806452D03*
X103026160Y-21266452D03*
X105566160Y-23806452D03*
X105566160Y-21266452D03*
X108106160Y-23806452D03*
X108106160Y-21266452D03*
X110646160Y-23806452D03*
X110646160Y-21266452D03*
X113186160Y-23806452D03*
X113186160Y-21266452D03*
X115726160Y-23806452D03*
X115726160Y-21266452D03*
X118266160Y-23806452D03*
X118266160Y-21266452D03*
X120806160Y-23806452D03*
X120806160Y-21266452D03*
X123346160Y-23806452D03*
X123346160Y-21266452D03*
X125886160Y-23806452D03*
X125886160Y-21266452D03*
X128426160Y-23806452D03*
X128426160Y-21266452D03*
D15*
X80010000Y-63500000D03*
D16*
X80010000Y-60960000D03*
X82550000Y-63500000D03*
X82550000Y-60960000D03*
X85090000Y-63500000D03*
X85090000Y-60960000D03*
X87630000Y-63500000D03*
X87630000Y-60960000D03*
X90170000Y-63500000D03*
X90170000Y-60960000D03*
X92710000Y-63500000D03*
X92710000Y-60960000D03*
X95250000Y-63500000D03*
X95250000Y-60960000D03*
X97790000Y-63500000D03*
X97790000Y-60960000D03*
X100330000Y-63500000D03*
X100330000Y-60960000D03*
X102870000Y-63500000D03*
X102870000Y-60960000D03*
X105410000Y-63500000D03*
X105410000Y-60960000D03*
X107950000Y-63500000D03*
X107950000Y-60960000D03*
X110490000Y-63500000D03*
X110490000Y-60960000D03*
X113030000Y-63500000D03*
X113030000Y-60960000D03*
X115570000Y-63500000D03*
X115570000Y-60960000D03*
X118110000Y-63500000D03*
X118110000Y-60960000D03*
X120650000Y-63500000D03*
X120650000Y-60960000D03*
X123190000Y-63500000D03*
X123190000Y-60960000D03*
X125730000Y-63500000D03*
X125730000Y-60960000D03*
X128270000Y-63500000D03*
X128270000Y-60960000D03*
D21*
X61980000Y-27305000D03*
X36580000Y-27305000D03*
D22*
X43690000Y-29845000D03*
D23*
X46480000Y-29845000D03*
X49150000Y-29845000D03*
X51950000Y-29845000D03*
X54740000Y-29845000D03*
X45090000Y-27305000D03*
X47880000Y-27305000D03*
X50550000Y-27305000D03*
X53340000Y-27305000D03*
D24*
X94615000Y-156845000D03*
X81915000Y-156845000D03*
D15*
X103886000Y-96901000D03*
D16*
X106426000Y-96901000D03*
X108966000Y-96901000D03*
D15*
X108966000Y-110617000D03*
D16*
X108966000Y-108077000D03*
X108966000Y-105537000D03*
X108966000Y-102997000D03*
X108966000Y-100457000D03*
D24*
X19050000Y-92075000D03*
X19050000Y-81915000D03*
D25*
X80166160Y-53016452D03*
X80166160Y-55556452D03*
X82706160Y-53016452D03*
X82706160Y-55556452D03*
X85246160Y-53016452D03*
X85246160Y-55556452D03*
X87786160Y-53016452D03*
X87786160Y-55556452D03*
X90326160Y-53016452D03*
X90326160Y-55556452D03*
X92866160Y-53016452D03*
X92866160Y-55556452D03*
X95406160Y-53016452D03*
X95406160Y-55556452D03*
X97946160Y-53016452D03*
X97946160Y-55556452D03*
X100486160Y-53016452D03*
X100486160Y-55556452D03*
X103026160Y-53016452D03*
X103026160Y-55556452D03*
X105566160Y-53016452D03*
X105566160Y-55556452D03*
X108106160Y-53016452D03*
X108106160Y-55556452D03*
X110646160Y-53016452D03*
X110646160Y-55556452D03*
X113186160Y-53016452D03*
X113186160Y-55556452D03*
X115726160Y-53016452D03*
X115726160Y-55556452D03*
X118266160Y-53016452D03*
X118266160Y-55556452D03*
X120806160Y-53016452D03*
X120806160Y-55556452D03*
X123346160Y-53016452D03*
X123346160Y-55556452D03*
X125886160Y-53016452D03*
X125886160Y-55556452D03*
X128426160Y-53016452D03*
X128426160Y-55556452D03*
X84476160Y-33236452D03*
X87016160Y-33236452D03*
X89556160Y-33236452D03*
X92096160Y-33236452D03*
X94636160Y-33236452D03*
X97176160Y-33236452D03*
D26*
X104460000Y-92440000D03*
X106360000Y-92440000D03*
X105410000Y-90440000D03*
X89540000Y-105664000D03*
X91440000Y-105664000D03*
X90490000Y-103664000D03*
D27*
X68834000Y-19050000D03*
X70734000Y-19050000D03*
X110358000Y-91948000D03*
X108458000Y-91948000D03*
D28*
X104013000Y-88895000D03*
X104013000Y-86995000D03*
X97663000Y-88143000D03*
X97663000Y-90043000D03*
D27*
X77917000Y-77089000D03*
X79817000Y-77089000D03*
X42418000Y-135890000D03*
X44318000Y-135890000D03*
X98933000Y-104140000D03*
X100833000Y-104140000D03*
X89784000Y-96393000D03*
X87884000Y-96393000D03*
X95692000Y-104140000D03*
X93792000Y-104140000D03*
X46360000Y-135890000D03*
X48260000Y-135890000D03*
X42423000Y-115189000D03*
X44323000Y-115189000D03*
X46360000Y-115189000D03*
X48260000Y-115189000D03*
X46355000Y-132334000D03*
X48255000Y-132334000D03*
X46360000Y-118745000D03*
X48260000Y-118745000D03*
D29*
X48260000Y-128905000D03*
X38100000Y-128905000D03*
X48260000Y-121920000D03*
X38100000Y-121920000D03*
D30*
X86614000Y-78981252D03*
X87884000Y-78981252D03*
X89154000Y-78981252D03*
X90424000Y-78981252D03*
X90424000Y-85331252D03*
X89154000Y-85331252D03*
X87884000Y-85331252D03*
X86614000Y-85331252D03*
X78359000Y-78981252D03*
X79629000Y-78981252D03*
X80899000Y-78981252D03*
X82169000Y-78981252D03*
X82169000Y-85331252D03*
X80899000Y-85331252D03*
X79629000Y-85331252D03*
X78359000Y-85331252D03*
D31*
X73619000Y-82956252D03*
X72969000Y-82956252D03*
X72319000Y-82956252D03*
X71669000Y-82956252D03*
X71669000Y-81356252D03*
X72319000Y-81356252D03*
X72969000Y-81356252D03*
X73619000Y-81356252D03*
X69514000Y-82997919D03*
X68864000Y-82997919D03*
X68214000Y-82997919D03*
X67564000Y-82997919D03*
X67564000Y-81397919D03*
X68214000Y-81397919D03*
X68864000Y-81397919D03*
X69514000Y-81397919D03*
D32*
X75565000Y-108545990D03*
X76835000Y-108545990D03*
X78105000Y-108545990D03*
X79375000Y-108545990D03*
X80645000Y-108545990D03*
X81915000Y-108545990D03*
X83185000Y-108545990D03*
X84455000Y-108545990D03*
X85725000Y-108545990D03*
X86995000Y-108545990D03*
X86995000Y-99145990D03*
X85725000Y-99145990D03*
X84455000Y-99145990D03*
X83185000Y-99145990D03*
X81915000Y-99145990D03*
X80645000Y-99145990D03*
X79375000Y-99145990D03*
X78105000Y-99145990D03*
X76835000Y-99145990D03*
X75565000Y-99145990D03*
D33*
X42418000Y-132334000D03*
D34*
X44318000Y-132334000D03*
D33*
X42418000Y-118745000D03*
D34*
X44318000Y-118745000D03*
D35*
X103330250Y-84857750D03*
X103330250Y-84207750D03*
X103330250Y-83557750D03*
X103330250Y-82907750D03*
X103330250Y-82257750D03*
X103330250Y-81607750D03*
X103330250Y-80957750D03*
D36*
X102430250Y-80057750D03*
X101780250Y-80057750D03*
X101130250Y-80057750D03*
X100480250Y-80057750D03*
X99830250Y-80057750D03*
X99180250Y-80057750D03*
X98530250Y-80057750D03*
D35*
X97630250Y-80957750D03*
X97630250Y-81607750D03*
X97630250Y-82257750D03*
X97630250Y-82907750D03*
X97630250Y-83557750D03*
X97630250Y-84207750D03*
X97630250Y-84857750D03*
D36*
X98530250Y-85757750D03*
X99180250Y-85757750D03*
X99830250Y-85757750D03*
X100480250Y-85757750D03*
X101130250Y-85757750D03*
X101780250Y-85757750D03*
X102430250Y-85757750D03*
D37*
X98886500Y-81314000D03*
X98886500Y-82376500D03*
X98886500Y-83439000D03*
X98886500Y-84501500D03*
X99949000Y-81314000D03*
X99949000Y-82376500D03*
X99949000Y-83439000D03*
X99949000Y-84501500D03*
X101011500Y-81314000D03*
X101011500Y-82376500D03*
X101011500Y-83439000D03*
X101011500Y-84501500D03*
X102074000Y-81314000D03*
X102074000Y-82376500D03*
X102074000Y-83439000D03*
X102074000Y-84501500D03*
D38*
X94882000Y-97564000D03*
X94882000Y-98064000D03*
X94882000Y-98564000D03*
X94882000Y-99064000D03*
X94882000Y-99564000D03*
X94882000Y-100064000D03*
X94882000Y-100564000D03*
X94882000Y-101064000D03*
D39*
X95532000Y-101714000D03*
X96032000Y-101714000D03*
X96532000Y-101714000D03*
X97032000Y-101714000D03*
X97532000Y-101714000D03*
X98032000Y-101714000D03*
X98532000Y-101714000D03*
X99032000Y-101714000D03*
D38*
X99682000Y-101064000D03*
X99682000Y-100564000D03*
X99682000Y-100064000D03*
X99682000Y-99564000D03*
X99682000Y-99064000D03*
X99682000Y-98564000D03*
X99682000Y-98064000D03*
X99682000Y-97564000D03*
D39*
X99032000Y-96914000D03*
X98532000Y-96914000D03*
X98032000Y-96914000D03*
X97532000Y-96914000D03*
X97032000Y-96914000D03*
X96532000Y-96914000D03*
X96032000Y-96914000D03*
X95532000Y-96914000D03*
D40*
X98144500Y-100176500D03*
X98144500Y-98451500D03*
X96419500Y-100176500D03*
X96419500Y-98451500D03*
D41*
X54197248Y-125697248D03*
D42*
X55052496Y-127762000D03*
X57117248Y-128617248D03*
X59182000Y-127762000D03*
X60037248Y-125697248D03*
X59182000Y-123632496D03*
X57117248Y-122777248D03*
X55052496Y-123632496D03*
D43*
X32282000Y-135382000D03*
X32782000Y-135382000D03*
X33282000Y-135382000D03*
X33782000Y-135382000D03*
X33782000Y-133582000D03*
X33282000Y-133582000D03*
X32782000Y-133582000D03*
X32282000Y-133582000D03*
D44*
X33472000Y-134482000D03*
X32592000Y-134482000D03*
D43*
X33838000Y-115305000D03*
X33338000Y-115305000D03*
X32838000Y-115305000D03*
X32338000Y-115305000D03*
X32338000Y-117105000D03*
X32838000Y-117105000D03*
X33338000Y-117105000D03*
X33838000Y-117105000D03*
D44*
X32648000Y-116205000D03*
X33528000Y-116205000D03*
D15*
X108077000Y-88011000D03*
D16*
X108077000Y-85471000D03*
X108077000Y-82931000D03*
X108077000Y-80391000D03*
X108077000Y-77851000D03*
D45*
X34925000Y-113538000D03*
X32258000Y-113538000D03*
X30861000Y-137287000D03*
X33528000Y-137287000D03*
X75692000Y-84709000D03*
X23622000Y-52959000D03*
X23622000Y-30480000D03*
X37592000Y-83312000D03*
X100838000Y-132715000D03*
X61976000Y-64262000D03*
X46355000Y-83566000D03*
X60960000Y-74041000D03*
X66548000Y-16891000D03*
X71120000Y-23114000D03*
X72136000Y-31750000D03*
X104267000Y-120904000D03*
X75565000Y-127889000D03*
D46*
X82457000Y-132080000D03*
X81627000Y-130890000D03*
D45*
X96419500Y-100176500D03*
X98144500Y-98451500D03*
X80010000Y-103378000D03*
X76835000Y-103378000D03*
X100965000Y-91059000D03*
X102074000Y-84501500D03*
X98886500Y-81314000D03*
X97663000Y-77978000D03*
X68961000Y-76200000D03*
D46*
X42094333Y-75071513D03*
X41319333Y-76311513D03*
D45*
X35433000Y-86995000D03*
X34290000Y-143510000D03*
X34671000Y-107315000D03*
X31115000Y-117094000D03*
X50673000Y-127254000D03*
X34417000Y-132715000D03*
X101473000Y-147193000D03*
X87757000Y-143764000D03*
X75438000Y-137668000D03*
X38989000Y-69469000D03*
X81280000Y-89535000D03*
X58420000Y-76835000D03*
X53594000Y-75946000D03*
X67564000Y-19685000D03*
X67564000Y-31369000D03*
X91694000Y-93726000D03*
X86487000Y-96393000D03*
X104394000Y-105029000D03*
X91821000Y-98933000D03*
X81280000Y-112776000D03*
X101346000Y-88519000D03*
X102235000Y-76200000D03*
X76200000Y-76581000D03*
X67564000Y-78867000D03*
X70104000Y-72898000D03*
X73025000Y-65151000D03*
X49911000Y-64770000D03*
X58420000Y-68707000D03*
X48485624Y-84730467D03*
X40640000Y-81407000D03*
X50800000Y-120396000D03*
D47*
X98679000Y-132842000D03*
X98679000Y-131572000D03*
X79883000Y-132715000D03*
X79883000Y-131572000D03*
D46*
X105029000Y-83566000D03*
X116840000Y-69215000D03*
X101219000Y-100838000D03*
D47*
X110109000Y-69342000D03*
X93980000Y-76200000D03*
X72771000Y-96393000D03*
X110236000Y-70739000D03*
X93091000Y-77216000D03*
X74041000Y-96774000D03*
X66675000Y-25400000D03*
D46*
X79629000Y-92316252D03*
X65405000Y-69596000D03*
X44958000Y-85090000D03*
X35560000Y-84201000D03*
X57422515Y-72058943D03*
X66929000Y-92316252D03*
X66929000Y-89141252D03*
X71374000Y-92316252D03*
X71374000Y-89141252D03*
X79629000Y-89141252D03*
X85344000Y-90411252D03*
X89789000Y-89535000D03*
X74676000Y-90424000D03*
X77724000Y-93472000D03*
X67183000Y-70993000D03*
X61341000Y-70993000D03*
X34925000Y-84836000D03*
X57238388Y-70985820D03*
X44958000Y-86493108D03*
X104504422Y-82770843D03*
X101037612Y-99570958D03*
X115062000Y-70358000D03*
D47*
X97790000Y-96012000D03*
X105918000Y-102743000D03*
X98552000Y-96012000D03*
X100330000Y-96520000D03*
X106807000Y-131953000D03*
X103632000Y-131318000D03*
X87884000Y-132080000D03*
X84836000Y-131421498D03*
X101854000Y-78232000D03*
X104521000Y-81661000D03*
X103601000Y-85725000D03*
X97663000Y-86487000D03*
X99822000Y-79121000D03*
X103505000Y-79883000D03*
D45*
X30480000Y-63500000D03*
X30480000Y-41783000D03*
X26797000Y-19431000D03*
D47*
X97028000Y-96266000D03*
X98171000Y-102489000D03*
X100280053Y-100593989D03*
X100330000Y-99060000D03*
X96520000Y-102870000D03*
D48*
X74930000Y-71120000D03*
X76200000Y-71120000D03*
X88900000Y-98552000D03*
D49*
X33838000Y-115305000D02*
X33838000Y-114625000D01*
X33838000Y-114625000D02*
X34925000Y-113538000D01*
X33338000Y-115305000D02*
X33338000Y-115125000D01*
X33338000Y-115125000D02*
X34925000Y-113538000D01*
X33338000Y-115305000D02*
X33838000Y-115305000D01*
X32338000Y-115305000D02*
X32338000Y-113618000D01*
X32338000Y-113618000D02*
X32258000Y-113538000D01*
X33782000Y-135382000D02*
X33782000Y-137033000D01*
X33782000Y-137033000D02*
X33528000Y-137287000D01*
D50*
X32512000Y-135636000D02*
X30861000Y-137287000D01*
D49*
X32512000Y-135636000D02*
X32766000Y-135382000D01*
X32766000Y-135382000D02*
X32782000Y-135382000D01*
X32282000Y-135406000D02*
X32512000Y-135636000D01*
X32282000Y-135382000D02*
X32282000Y-135406000D01*
D50*
X96419500Y-98451500D02*
X98144500Y-98451500D01*
X98144500Y-100176500D02*
X96419500Y-100176500D01*
X98144500Y-98451500D02*
X98144500Y-100176500D01*
X96419500Y-100176500D02*
X96419500Y-98451500D01*
X101011500Y-83439000D02*
X101011500Y-84501500D01*
X101011500Y-82376500D02*
X101011500Y-83439000D01*
X102074000Y-82376500D02*
X102074000Y-83439000D01*
X101011500Y-81314000D02*
X101011500Y-82376500D01*
X98886500Y-81314000D02*
X98886500Y-82376500D01*
X99949000Y-82376500D02*
X99949000Y-81314000D01*
X99949000Y-83439000D02*
X99949000Y-82376500D01*
X99949000Y-84501500D02*
X99949000Y-83439000D01*
X98886500Y-84501500D02*
X98886500Y-83439000D01*
X99949000Y-84501500D02*
X98886500Y-84501500D01*
X101011500Y-84501500D02*
X99949000Y-84501500D01*
X102074000Y-84501500D02*
X101011500Y-84501500D01*
X102074000Y-83439000D02*
X102074000Y-84501500D01*
X101011500Y-83439000D02*
X102074000Y-83439000D01*
X99949000Y-83439000D02*
X101011500Y-83439000D01*
X98886500Y-83439000D02*
X99949000Y-83439000D01*
X98886500Y-82376500D02*
X98886500Y-83439000D01*
X99949000Y-82376500D02*
X98886500Y-82376500D01*
X101011500Y-82376500D02*
X99949000Y-82376500D01*
X102074000Y-82376500D02*
X101011500Y-82376500D01*
X102074000Y-81314000D02*
X102074000Y-82376500D01*
X101011500Y-81314000D02*
X102074000Y-81314000D01*
X99949000Y-81314000D02*
X101011500Y-81314000D01*
X98886500Y-81314000D02*
X99949000Y-81314000D01*
D51*
X76454000Y-83156252D02*
X76454000Y-83947000D01*
X76454000Y-83947000D02*
X75692000Y-84709000D01*
D49*
X32648000Y-116205000D02*
X33528000Y-116205000D01*
X32592000Y-134482000D02*
X33472000Y-134482000D01*
D51*
X21136412Y-52959000D02*
X23622000Y-52959000D01*
X18710891Y-52913479D02*
X21090891Y-52913479D01*
X21090891Y-52913479D02*
X21136412Y-52959000D01*
X18710891Y-30530000D02*
X23572000Y-30530000D01*
X23572000Y-30530000D02*
X23622000Y-30480000D01*
X67564000Y-15875000D02*
X66548000Y-16891000D01*
X68350000Y-15875000D02*
X67564000Y-15875000D01*
X70850000Y-21590000D02*
X70850000Y-22844000D01*
X70850000Y-22844000D02*
X71120000Y-23114000D01*
X71417580Y-31750000D02*
X72136000Y-31750000D01*
X70739000Y-31486000D02*
X71003000Y-31750000D01*
X71003000Y-31750000D02*
X71417580Y-31750000D01*
X70739000Y-29591000D02*
X70739000Y-31486000D01*
X102743000Y-104140000D02*
X100833000Y-104140000D01*
X92456000Y-101600000D02*
X92456000Y-102804000D01*
X92456000Y-102804000D02*
X93792000Y-104140000D01*
X91440000Y-105664000D02*
X91440000Y-107384000D01*
X91440000Y-107384000D02*
X90278010Y-108545990D01*
X90278010Y-108545990D02*
X88565000Y-108545990D01*
X88565000Y-108545990D02*
X86995000Y-108545990D01*
X93792000Y-104140000D02*
X92964000Y-104140000D01*
X92964000Y-104140000D02*
X91440000Y-105664000D01*
X80010000Y-103378000D02*
X84455000Y-103378000D01*
X76835000Y-103378000D02*
X80010000Y-103378000D01*
X76835000Y-99145990D02*
X76835000Y-100965000D01*
X76835000Y-100965000D02*
X76835000Y-101600000D01*
X75565000Y-101219000D02*
X76581000Y-101219000D01*
X76581000Y-101219000D02*
X76835000Y-100965000D01*
X75565000Y-103378000D02*
X75565000Y-101219000D01*
X75565000Y-105410000D02*
X76835000Y-105410000D01*
X76835000Y-105410000D02*
X78740000Y-105410000D01*
X76835000Y-106300990D02*
X76835000Y-105410000D01*
X76835000Y-108545990D02*
X76835000Y-106300990D01*
X75565000Y-104267000D02*
X75565000Y-103378000D01*
X75565000Y-105410000D02*
X75565000Y-104267000D01*
X86995000Y-103378000D02*
X86995000Y-104267000D01*
X86995000Y-104267000D02*
X86995000Y-105029000D01*
X75565000Y-104267000D02*
X86995000Y-104267000D01*
X76835000Y-102489000D02*
X76835000Y-103378000D01*
X76835000Y-101600000D02*
X76835000Y-102489000D01*
X86995000Y-101727000D02*
X86995000Y-102489000D01*
X86995000Y-102489000D02*
X86995000Y-103378000D01*
X76835000Y-102489000D02*
X86995000Y-102489000D01*
X78740000Y-101600000D02*
X80518000Y-101600000D01*
X80645000Y-99145990D02*
X80645000Y-101390990D01*
X80518000Y-101600000D02*
X81280000Y-101600000D01*
X80645000Y-101390990D02*
X80518000Y-101517990D01*
X80518000Y-101517990D02*
X80518000Y-101600000D01*
X81280000Y-101600000D02*
X81915000Y-101600000D01*
X81915000Y-101600000D02*
X83185000Y-101600000D01*
X81915000Y-99145990D02*
X81915000Y-101600000D01*
X83185000Y-99145990D02*
X83185000Y-101600000D01*
X83185000Y-101600000D02*
X84455000Y-101600000D01*
X81280000Y-105410000D02*
X83185000Y-105410000D01*
X83185000Y-105410000D02*
X84328000Y-105410000D01*
X83185000Y-108545990D02*
X83185000Y-106300990D01*
X83185000Y-106300990D02*
X83185000Y-105410000D01*
X84328000Y-105410000D02*
X85725000Y-105410000D01*
X85725000Y-105410000D02*
X86614000Y-105410000D01*
X85725000Y-108545990D02*
X85725000Y-106300990D01*
X85725000Y-106300990D02*
X85725000Y-105410000D01*
X84455000Y-101600000D02*
X85725000Y-101600000D01*
X85725000Y-101600000D02*
X86868000Y-101600000D01*
X85725000Y-99145990D02*
X85725000Y-101600000D01*
X86995000Y-105029000D02*
X86995000Y-108545990D01*
X86614000Y-105410000D02*
X86995000Y-105029000D01*
X84455000Y-103378000D02*
X86995000Y-103378000D01*
X86995000Y-99145990D02*
X86995000Y-101727000D01*
X86868000Y-101600000D02*
X86995000Y-101727000D01*
X78740000Y-105410000D02*
X81280000Y-105410000D01*
X81280000Y-101600000D02*
X81280000Y-105410000D01*
X78740000Y-101600000D02*
X78740000Y-105410000D01*
X76835000Y-101600000D02*
X78740000Y-101600000D01*
X75565000Y-108545990D02*
X75565000Y-105410000D01*
X84455000Y-108545990D02*
X84455000Y-105537000D01*
X84455000Y-105537000D02*
X84455000Y-103378000D01*
X84328000Y-105410000D02*
X84455000Y-105537000D01*
X84455000Y-103378000D02*
X84455000Y-101600000D01*
X84455000Y-101600000D02*
X84455000Y-99145990D01*
X75565000Y-103378000D02*
X76835000Y-103378000D01*
X100076000Y-89916000D02*
X100076000Y-90170000D01*
X100076000Y-90170000D02*
X100965000Y-91059000D01*
X99076000Y-76835000D02*
X98806000Y-76835000D01*
X98806000Y-76835000D02*
X97663000Y-77978000D01*
D50*
X83439000Y-76441252D02*
X86614000Y-76441252D01*
D51*
X84709000Y-83156252D02*
X81124252Y-83156252D01*
X81124252Y-83156252D02*
X81026000Y-83058000D01*
X78447252Y-83058000D02*
X81026000Y-83058000D01*
X82169000Y-83058000D02*
X81026000Y-83058000D01*
D50*
X82169000Y-85331252D02*
X82169000Y-83058000D01*
X82169000Y-83058000D02*
X82169000Y-78981252D01*
D51*
X76454000Y-83156252D02*
X78349000Y-83156252D01*
X78349000Y-83156252D02*
X78447252Y-83058000D01*
X70612000Y-77470000D02*
X70231000Y-77470000D01*
X70231000Y-77470000D02*
X68961000Y-76200000D01*
D49*
X32338000Y-117105000D02*
X31126000Y-117105000D01*
X31126000Y-117105000D02*
X31115000Y-117094000D01*
X33782000Y-133582000D02*
X33782000Y-133350000D01*
X33782000Y-133350000D02*
X34417000Y-132715000D01*
D52*
X70612000Y-77470000D02*
X71745000Y-77470000D01*
X71745000Y-77470000D02*
X72263000Y-77988000D01*
X72263000Y-77988000D02*
X72263000Y-78655000D01*
D49*
X69514000Y-82997919D02*
X70027333Y-82997919D01*
X70027333Y-82997919D02*
X71669000Y-81356252D01*
X72009000Y-80251252D02*
X72263000Y-80251252D01*
X72263000Y-80251252D02*
X72495000Y-80251252D01*
D52*
X74549000Y-77502000D02*
X73416000Y-77502000D01*
X73416000Y-77502000D02*
X72263000Y-78655000D01*
X72263000Y-78655000D02*
X72263000Y-80251252D01*
D53*
X32338000Y-117105000D02*
X32338000Y-116515000D01*
X32338000Y-116515000D02*
X32648000Y-116205000D01*
D49*
X33782000Y-133582000D02*
X33782000Y-134172000D01*
X33782000Y-134172000D02*
X33472000Y-134482000D01*
D50*
X48260000Y-118745000D02*
X45085000Y-121920000D01*
X39513492Y-121920000D02*
X38100000Y-121920000D01*
X45085000Y-121920000D02*
X39513492Y-121920000D01*
X48260000Y-115189000D02*
X48260000Y-118745000D01*
X48255000Y-132334000D02*
X48255000Y-132329000D01*
X48255000Y-132329000D02*
X46355000Y-130429000D01*
X46355000Y-130429000D02*
X39624000Y-130429000D01*
X39624000Y-130429000D02*
X38100000Y-128905000D01*
X48260000Y-135890000D02*
X48260000Y-132339000D01*
X48260000Y-132339000D02*
X48255000Y-132334000D01*
D53*
X95234000Y-95869000D02*
X95532000Y-96167000D01*
X95532000Y-96167000D02*
X95532000Y-96914000D01*
X95234000Y-94869000D02*
X95234000Y-95869000D01*
X93792000Y-104140000D02*
X93792000Y-101092000D01*
X93792000Y-101092000D02*
X93792000Y-100550000D01*
X92456000Y-101600000D02*
X93335000Y-101600000D01*
X93335000Y-101600000D02*
X93792000Y-101143000D01*
X93792000Y-101143000D02*
X93792000Y-101092000D01*
X100833000Y-104140000D02*
X100833000Y-103740000D01*
X100833000Y-103740000D02*
X99032000Y-101939000D01*
X99032000Y-101939000D02*
X99032000Y-101714000D01*
X93792000Y-100550000D02*
X94278000Y-100064000D01*
X94278000Y-100064000D02*
X94882000Y-100064000D01*
X94882000Y-100064000D02*
X96307000Y-100064000D01*
X96307000Y-100064000D02*
X96419500Y-100176500D01*
X95532000Y-96914000D02*
X95532000Y-97564000D01*
X95532000Y-97564000D02*
X96419500Y-98451500D01*
X99032000Y-101714000D02*
X99032000Y-101064000D01*
X99032000Y-101064000D02*
X98144500Y-100176500D01*
D50*
X106360000Y-92440000D02*
X105401999Y-91481999D01*
X105401999Y-91481999D02*
X104557999Y-91481999D01*
X104557999Y-91481999D02*
X102992000Y-89916000D01*
D52*
X100076000Y-89916000D02*
X102992000Y-89916000D01*
X102992000Y-89916000D02*
X104013000Y-88895000D01*
X97663000Y-90043000D02*
X95377000Y-90043000D01*
X95377000Y-90043000D02*
X95250000Y-89916000D01*
X97663000Y-90043000D02*
X99949000Y-90043000D01*
X99949000Y-90043000D02*
X100076000Y-89916000D01*
X99830250Y-85757750D02*
X99830250Y-86350948D01*
X99830250Y-86350948D02*
X98943000Y-87238198D01*
X98943000Y-87238198D02*
X98943000Y-88908000D01*
X98943000Y-88908000D02*
X99951000Y-89916000D01*
X99951000Y-89916000D02*
X100076000Y-89916000D01*
X97630250Y-81607750D02*
X98592750Y-81607750D01*
X98592750Y-81607750D02*
X98886500Y-81314000D01*
X103330250Y-82257750D02*
X102192750Y-82257750D01*
X102192750Y-82257750D02*
X102074000Y-82376500D01*
X99830250Y-85757750D02*
X99830250Y-84620250D01*
X99830250Y-84620250D02*
X99949000Y-84501500D01*
D51*
X19050000Y-81915000D02*
X19050000Y-75040000D01*
X19050000Y-75040000D02*
X18605000Y-74595000D01*
X18605000Y-59255000D02*
X18605000Y-71120000D01*
X18605000Y-71120000D02*
X18605000Y-74595000D01*
X22285000Y-70425000D02*
X19320000Y-70425000D01*
X19320000Y-70425000D02*
X18625000Y-71120000D01*
X18625000Y-71120000D02*
X18605000Y-71120000D01*
X18710891Y-37573479D02*
X18710891Y-50165000D01*
X18710891Y-50165000D02*
X18710891Y-52913479D01*
X22390891Y-48743479D02*
X19425891Y-48743479D01*
X19425891Y-48743479D02*
X18710891Y-49458479D01*
X18710891Y-49458479D02*
X18710891Y-50165000D01*
X18710891Y-17680000D02*
X18710891Y-27940000D01*
X18710891Y-27940000D02*
X18710891Y-30530000D01*
X22390891Y-26360000D02*
X19425891Y-26360000D01*
X19425891Y-26360000D02*
X18710891Y-27075000D01*
X18710891Y-27075000D02*
X18710891Y-27940000D01*
X18710891Y-15190000D02*
X18710891Y-17680000D01*
D49*
X69514000Y-82997919D02*
X69514000Y-82366919D01*
X69514000Y-82366919D02*
X68864000Y-81716919D01*
X68864000Y-81716919D02*
X68864000Y-81397919D01*
X72495000Y-80251252D02*
X72969000Y-80725252D01*
X72969000Y-80725252D02*
X72969000Y-81356252D01*
X71669000Y-80591252D02*
X72009000Y-80251252D01*
X71669000Y-81356252D02*
X71669000Y-80591252D01*
X73619000Y-82956252D02*
X73619000Y-82325252D01*
X73619000Y-82325252D02*
X72969000Y-81675252D01*
X72969000Y-81675252D02*
X72969000Y-81356252D01*
D50*
X82169000Y-77711252D02*
X82169000Y-78981252D01*
X83439000Y-76441252D02*
X82169000Y-77711252D01*
X87884000Y-78981252D02*
X87884000Y-77711252D01*
X87884000Y-77711252D02*
X86614000Y-76441252D01*
X90424000Y-85331252D02*
X90424000Y-78981252D01*
X89154000Y-78981252D02*
X87884000Y-78981252D01*
X82169000Y-78981252D02*
X80899000Y-78981252D01*
X90424000Y-78981252D02*
X89154000Y-78981252D01*
X86995000Y-110830990D02*
X86995000Y-108545990D01*
X86360000Y-111465990D02*
X86995000Y-110830990D01*
X84185000Y-111465990D02*
X86360000Y-111465990D01*
X80645000Y-99145990D02*
X81915000Y-99145990D01*
X81915000Y-99145990D02*
X83185000Y-99145990D01*
X83185000Y-99145990D02*
X84455000Y-99145990D01*
X84455000Y-99145990D02*
X85725000Y-99145990D01*
X86995000Y-99145990D02*
X85725000Y-99145990D01*
X85725000Y-108545990D02*
X86995000Y-108545990D01*
X84455000Y-108545990D02*
X85725000Y-108545990D01*
X83185000Y-108545990D02*
X84455000Y-108545990D01*
X75565000Y-108545990D02*
X76835000Y-108545990D01*
D49*
X71400000Y-25725000D02*
X74620000Y-25725000D01*
X74620000Y-25725000D02*
X75565000Y-26670000D01*
D50*
X81280000Y-88925350D02*
X81280000Y-89535000D01*
X86614000Y-83591350D02*
X81280000Y-88925350D01*
X86614000Y-80251252D02*
X86614000Y-83591350D01*
D51*
X68834000Y-19050000D02*
X68199000Y-19050000D01*
X68199000Y-19050000D02*
X67564000Y-19685000D01*
X68739000Y-29591000D02*
X68739000Y-30194000D01*
X68739000Y-30194000D02*
X67564000Y-31369000D01*
X93234000Y-94869000D02*
X92837000Y-94869000D01*
X92837000Y-94869000D02*
X91694000Y-93726000D01*
X87884000Y-96393000D02*
X86487000Y-96393000D01*
X102743000Y-102140000D02*
X103239602Y-102140000D01*
X103239602Y-102140000D02*
X104394000Y-103294398D01*
X104394000Y-103294398D02*
X104394000Y-105029000D01*
X92456000Y-99600000D02*
X92456000Y-99568000D01*
X92456000Y-99568000D02*
X91821000Y-98933000D01*
X82185000Y-111465990D02*
X82185000Y-111871000D01*
X82185000Y-111871000D02*
X81280000Y-112776000D01*
X100076000Y-87916000D02*
X100743000Y-87916000D01*
X100743000Y-87916000D02*
X101346000Y-88519000D01*
X101076000Y-76835000D02*
X101600000Y-76835000D01*
X101600000Y-76835000D02*
X102235000Y-76200000D01*
D50*
X86614000Y-80251252D02*
X86614000Y-80518000D01*
D51*
X75819000Y-80521252D02*
X76454000Y-81156252D01*
X74799748Y-79502000D02*
X75819000Y-80521252D01*
X75819000Y-80521252D02*
X76200000Y-80140252D01*
X76200000Y-80140252D02*
X76200000Y-76581000D01*
X74549000Y-79502000D02*
X74799748Y-79502000D01*
X70612000Y-79470000D02*
X68167000Y-79470000D01*
X68167000Y-79470000D02*
X67564000Y-78867000D01*
D53*
X102743000Y-102140000D02*
X100758000Y-102140000D01*
X100758000Y-102140000D02*
X99682000Y-101064000D01*
D52*
X77917000Y-77089000D02*
X77917000Y-78539252D01*
X77917000Y-78539252D02*
X78359000Y-78981252D01*
X70612000Y-79470000D02*
X70612000Y-80478000D01*
X70612000Y-80478000D02*
X70323081Y-80766919D01*
X70323081Y-80766919D02*
X69514000Y-80766919D01*
X74549000Y-79502000D02*
X74549000Y-80426252D01*
X74549000Y-80426252D02*
X73619000Y-81356252D01*
D50*
X54986992Y-123698000D02*
X55052496Y-123632496D01*
X42418000Y-118745000D02*
X42418000Y-115194000D01*
X42418000Y-115194000D02*
X42423000Y-115189000D01*
X42418000Y-132334000D02*
X42418000Y-135890000D01*
D49*
X108077000Y-85471000D02*
X110358000Y-87752000D01*
X110358000Y-87752000D02*
X110358000Y-91948000D01*
D53*
X93234000Y-94869000D02*
X93234000Y-95748000D01*
X93234000Y-95748000D02*
X93218000Y-95764000D01*
X93218000Y-95764000D02*
X93218000Y-96139000D01*
X94882000Y-97564000D02*
X94643000Y-97564000D01*
X94643000Y-97564000D02*
X93218000Y-96139000D01*
X94882000Y-99564000D02*
X92492000Y-99564000D01*
X92492000Y-99564000D02*
X92456000Y-99600000D01*
D49*
X68300000Y-26375000D02*
X68300000Y-29152000D01*
X68300000Y-29152000D02*
X68739000Y-29591000D01*
D52*
X101130250Y-80057750D02*
X101130250Y-76889250D01*
X101130250Y-76889250D02*
X101076000Y-76835000D01*
X100076000Y-87916000D02*
X100480250Y-87511750D01*
X100480250Y-87511750D02*
X100480250Y-85757750D01*
D50*
X78359000Y-80251252D02*
X77454000Y-81156252D01*
X77454000Y-81156252D02*
X76454000Y-81156252D01*
X86614000Y-80251252D02*
X85709000Y-81156252D01*
X85709000Y-81156252D02*
X84709000Y-81156252D01*
X86614000Y-78981252D02*
X86614000Y-80251252D01*
D49*
X69514000Y-81397919D02*
X69514000Y-80766919D01*
X69514000Y-80766919D02*
X68998333Y-80251252D01*
X68998333Y-80251252D02*
X68729667Y-80251252D01*
X68729667Y-80251252D02*
X68214000Y-80766919D01*
X68214000Y-80766919D02*
X68214000Y-81397919D01*
X67564000Y-81397919D02*
X68214000Y-81397919D01*
X68864000Y-82997919D02*
X68864000Y-82678919D01*
X68864000Y-82678919D02*
X68214000Y-82028919D01*
X68214000Y-82028919D02*
X68214000Y-81397919D01*
X72969000Y-82956252D02*
X72969000Y-83751252D01*
X72969000Y-83751252D02*
X73279000Y-84061252D01*
X74549000Y-83426252D02*
X74549000Y-82156252D01*
X73279000Y-84061252D02*
X73914000Y-84061252D01*
X73914000Y-84061252D02*
X74549000Y-83426252D01*
X74549000Y-82156252D02*
X73749000Y-81356252D01*
X73749000Y-81356252D02*
X73619000Y-81356252D01*
X72319000Y-81987252D02*
X72319000Y-81356252D01*
X72969000Y-82637252D02*
X72319000Y-81987252D01*
X72969000Y-82956252D02*
X72969000Y-82637252D01*
D50*
X78359000Y-78981252D02*
X78359000Y-80251252D01*
X78359000Y-80251252D02*
X78994000Y-80886252D01*
X79375000Y-108545990D02*
X79375000Y-110830990D01*
X79375000Y-110830990D02*
X80010000Y-111465990D01*
X80010000Y-111465990D02*
X82185000Y-111465990D01*
X81915000Y-108545990D02*
X81915000Y-111195990D01*
X81915000Y-111195990D02*
X82185000Y-111465990D01*
D49*
X68300000Y-25725000D02*
X68300000Y-26375000D01*
D52*
X97630250Y-82257750D02*
X96909448Y-82257750D01*
X96909448Y-82257750D02*
X95758000Y-83409198D01*
X95758000Y-83409198D02*
X95758000Y-86400000D01*
X95758000Y-86400000D02*
X95250000Y-86908000D01*
X95250000Y-86908000D02*
X95250000Y-87916000D01*
D49*
X75565000Y-21590000D02*
X75565000Y-17780000D01*
X75565000Y-17780000D02*
X73660000Y-15875000D01*
X73660000Y-15875000D02*
X71350000Y-15875000D01*
X68300000Y-24425000D02*
X68300000Y-22140000D01*
X68300000Y-22140000D02*
X68850000Y-21590000D01*
X98679000Y-131572000D02*
X98679000Y-132842000D01*
X79883000Y-131572000D02*
X79883000Y-132715000D01*
D53*
X71400000Y-25075000D02*
X74620000Y-25075000D01*
X74620000Y-25075000D02*
X75565000Y-24130000D01*
D49*
X71400000Y-26375000D02*
X72106000Y-26375000D01*
X72106000Y-26375000D02*
X74306000Y-28575000D01*
X79375000Y-28575000D02*
X82706160Y-25243840D01*
X74306000Y-28575000D02*
X79375000Y-28575000D01*
X82706160Y-25243840D02*
X82706160Y-23806452D01*
X106846000Y-88011000D02*
X108077000Y-88011000D01*
X108458000Y-91948000D02*
X106950000Y-90440000D01*
X106950000Y-90440000D02*
X105410000Y-90440000D01*
X105410000Y-90440000D02*
X105410000Y-89447000D01*
X105410000Y-89447000D02*
X106846000Y-88011000D01*
X101130250Y-85757750D02*
X101130250Y-86638750D01*
X101130250Y-86638750D02*
X102502500Y-88011000D01*
X102502500Y-88011000D02*
X106846000Y-88011000D01*
D52*
X105020750Y-83557750D02*
X105029000Y-83566000D01*
X103330250Y-83557750D02*
X105020750Y-83557750D01*
D53*
X116840000Y-69215000D02*
X116840000Y-58361934D01*
X116840000Y-58361934D02*
X114329161Y-55851095D01*
X114329161Y-55851095D02*
X114329161Y-54159453D01*
X114329161Y-54159453D02*
X114075159Y-53905451D01*
X114075159Y-53905451D02*
X113186160Y-53016452D01*
X101219000Y-100711000D02*
X101219000Y-100838000D01*
X100584000Y-100076000D02*
X101219000Y-100711000D01*
X100330000Y-100076000D02*
X100584000Y-100076000D01*
X100318000Y-100064000D02*
X100330000Y-100076000D01*
X99682000Y-100064000D02*
X100318000Y-100064000D01*
D49*
X93980000Y-76200000D02*
X95504000Y-76200000D01*
X95504000Y-76200000D02*
X102362000Y-69342000D01*
X102362000Y-69342000D02*
X109839593Y-69342000D01*
X109839593Y-69342000D02*
X110109000Y-69342000D01*
X51435000Y-112141000D02*
X57023000Y-112141000D01*
X57023000Y-112141000D02*
X72771000Y-96393000D01*
D53*
X32838000Y-115305000D02*
X32838000Y-114228000D01*
X34925000Y-112141000D02*
X51435000Y-112141000D01*
X61722000Y-122428000D02*
X61722000Y-125984000D01*
X32838000Y-114228000D02*
X34925000Y-112141000D01*
X51435000Y-112141000D02*
X61722000Y-122428000D01*
X61722000Y-125984000D02*
X60960000Y-126746000D01*
X60960000Y-126746000D02*
X58801000Y-126746000D01*
X58801000Y-126746000D02*
X57117248Y-125062248D01*
X57117248Y-125062248D02*
X57117248Y-122777248D01*
D49*
X58166000Y-130683000D02*
X59563000Y-130683000D01*
X59563000Y-130683000D02*
X65405000Y-124841000D01*
X65405000Y-124841000D02*
X65405000Y-105410000D01*
X65405000Y-105410000D02*
X74041000Y-96774000D01*
X102362000Y-70739000D02*
X110236000Y-70739000D01*
X96075499Y-77025501D02*
X102362000Y-70739000D01*
X93281499Y-77025501D02*
X96075499Y-77025501D01*
X93091000Y-77216000D02*
X93281499Y-77025501D01*
D53*
X33282000Y-135382000D02*
X33282000Y-135886000D01*
X33282000Y-135886000D02*
X32385000Y-136783000D01*
X32385000Y-136783000D02*
X32385000Y-137668000D01*
X32385000Y-137668000D02*
X33528000Y-138811000D01*
X33528000Y-138811000D02*
X50038000Y-138811000D01*
X50038000Y-138811000D02*
X58166000Y-130683000D01*
X58166000Y-130683000D02*
X58166000Y-127635000D01*
X58166000Y-127635000D02*
X56228248Y-125697248D01*
X56228248Y-125697248D02*
X54197248Y-125697248D01*
D50*
X54098000Y-125598000D02*
X54197248Y-125697248D01*
D49*
X68300000Y-25075000D02*
X67000000Y-25075000D01*
X67000000Y-25075000D02*
X66675000Y-25400000D01*
X87016160Y-33236452D02*
X74532612Y-45720000D01*
X74532612Y-45720000D02*
X73660000Y-45720000D01*
X94636160Y-33236452D02*
X74532612Y-53340000D01*
X74532612Y-53340000D02*
X73660000Y-53340000D01*
D50*
X79629000Y-92316252D02*
X78994000Y-92316252D01*
X87884000Y-85331252D02*
X87884000Y-89916000D01*
X79629000Y-89141252D02*
X79629000Y-85331252D01*
D53*
X94882000Y-98564000D02*
X94278000Y-98564000D01*
X94278000Y-98564000D02*
X87884000Y-92170000D01*
X87884000Y-92170000D02*
X87884000Y-90411252D01*
D52*
X98530250Y-80057750D02*
X95964250Y-80057750D01*
X93726000Y-82296000D02*
X93726000Y-84074000D01*
X93726000Y-84074000D02*
X87884000Y-89916000D01*
X95964250Y-80057750D02*
X93726000Y-82296000D01*
D50*
X87884000Y-89916000D02*
X87884000Y-90411252D01*
X78105000Y-99145990D02*
X78105000Y-95999252D01*
X78105000Y-95999252D02*
X75565000Y-93459252D01*
X75184000Y-92316252D02*
X74422000Y-92316252D01*
X74422000Y-92316252D02*
X71374000Y-92316252D01*
X75565000Y-93459252D02*
X74422000Y-92316252D01*
X75565000Y-99145990D02*
X75565000Y-93459252D01*
X62230000Y-89535000D02*
X62230000Y-73309815D01*
X62230000Y-73309815D02*
X63480872Y-72058943D01*
X65011252Y-92316252D02*
X62230000Y-89535000D01*
X66929000Y-92316252D02*
X65011252Y-92316252D01*
X65405000Y-69596000D02*
X65405000Y-70134815D01*
X57961330Y-72058943D02*
X57422515Y-72058943D01*
X65405000Y-70134815D02*
X63480872Y-72058943D01*
X63480872Y-72058943D02*
X57961330Y-72058943D01*
X57422515Y-72058943D02*
X48464057Y-72058943D01*
X48464057Y-72058943D02*
X44958000Y-75565000D01*
X44958000Y-75565000D02*
X44958000Y-85090000D01*
X46863000Y-86995000D02*
X45338999Y-85470999D01*
X35560000Y-84201000D02*
X39751000Y-88392000D01*
X45974000Y-88392000D02*
X46863000Y-87503000D01*
X46863000Y-87503000D02*
X46863000Y-86995000D01*
X39751000Y-88392000D02*
X45974000Y-88392000D01*
X45338999Y-85470999D02*
X44958000Y-85090000D01*
D49*
X67564000Y-82997919D02*
X67564000Y-88506252D01*
X67564000Y-88506252D02*
X66929000Y-89141252D01*
D50*
X71374000Y-92316252D02*
X68834000Y-92316252D01*
D49*
X71669000Y-82956252D02*
X71669000Y-88846252D01*
X71669000Y-88846252D02*
X71374000Y-89141252D01*
D50*
X68834000Y-92316252D02*
X66929000Y-92316252D01*
X85979000Y-92316252D02*
X78994000Y-92316252D01*
X78994000Y-92316252D02*
X75184000Y-92316252D01*
X87884000Y-90411252D02*
X85979000Y-92316252D01*
X84963001Y-90792251D02*
X77469999Y-90792251D01*
X85344000Y-90411252D02*
X84963001Y-90792251D01*
X77469999Y-90792251D02*
X77089000Y-90411252D01*
D53*
X89789000Y-90073815D02*
X89789000Y-89535000D01*
X89789000Y-93536170D02*
X89789000Y-90073815D01*
X94316830Y-98064000D02*
X89789000Y-93536170D01*
X94882000Y-98064000D02*
X94316830Y-98064000D01*
D52*
X90169999Y-89154001D02*
X89789000Y-89535000D01*
X94614989Y-84709011D02*
X90169999Y-89154001D01*
X94614989Y-82965011D02*
X94614989Y-84709011D01*
X97630250Y-80957750D02*
X96622250Y-80957750D01*
X96622250Y-80957750D02*
X94614989Y-82965011D01*
D50*
X75214815Y-90424000D02*
X74676000Y-90424000D01*
X77076252Y-90424000D02*
X75214815Y-90424000D01*
X77089000Y-90411252D02*
X77076252Y-90424000D01*
X71386748Y-90424000D02*
X74137185Y-90424000D01*
X74137185Y-90424000D02*
X74676000Y-90424000D01*
X71374000Y-90411252D02*
X71386748Y-90424000D01*
X79375000Y-95123000D02*
X77724000Y-93472000D01*
X79375000Y-97408990D02*
X79375000Y-95123000D01*
X79375000Y-99145990D02*
X79375000Y-97408990D01*
X67564000Y-90411252D02*
X66154252Y-90411252D01*
X66154252Y-90411252D02*
X64770000Y-89027000D01*
X64770000Y-89027000D02*
X64770000Y-73406000D01*
X64770000Y-73406000D02*
X67183000Y-70993000D01*
X61341000Y-70993000D02*
X57245568Y-70993000D01*
X57245568Y-70993000D02*
X57238388Y-70985820D01*
X43561000Y-85634923D02*
X43561000Y-78359000D01*
X43561000Y-78359000D02*
X43561000Y-74803000D01*
X34925000Y-84836000D02*
X34290000Y-84836000D01*
X34290000Y-84836000D02*
X33782000Y-84328000D01*
X42418000Y-79502000D02*
X43561000Y-78359000D01*
X33782000Y-84328000D02*
X33782000Y-81661000D01*
X33782000Y-81661000D02*
X35941000Y-79502000D01*
X35941000Y-79502000D02*
X42418000Y-79502000D01*
X44958000Y-86493108D02*
X44419185Y-86493108D01*
X44419185Y-86493108D02*
X43561000Y-85634923D01*
X43561000Y-74803000D02*
X47378180Y-70985820D01*
X47378180Y-70985820D02*
X57238388Y-70985820D01*
X70739000Y-90411252D02*
X67564000Y-90411252D01*
D49*
X68214000Y-82997919D02*
X68214000Y-89761252D01*
X68214000Y-89761252D02*
X67564000Y-90411252D01*
D50*
X71374000Y-90411252D02*
X70739000Y-90411252D01*
D49*
X72319000Y-82956252D02*
X72319000Y-89466252D01*
X72319000Y-89466252D02*
X71374000Y-90411252D01*
D50*
X78359000Y-85331252D02*
X78359000Y-89141252D01*
X78359000Y-89141252D02*
X77089000Y-90411252D01*
X86614000Y-89141252D02*
X85344000Y-90411252D01*
X86614000Y-85331252D02*
X86614000Y-89141252D01*
D52*
X104367515Y-82907750D02*
X104504422Y-82770843D01*
X103330250Y-82907750D02*
X104367515Y-82907750D01*
D53*
X99682000Y-99564000D02*
X101030654Y-99564000D01*
X101030654Y-99564000D02*
X101037612Y-99570958D01*
X115062000Y-70358000D02*
X115062000Y-65532000D01*
X115062000Y-65532000D02*
X113030000Y-63500000D01*
X104648000Y-95123000D02*
X97219000Y-95123000D01*
X97219000Y-95123000D02*
X96032000Y-96310000D01*
X96032000Y-96310000D02*
X96032000Y-96914000D01*
X106426000Y-96901000D02*
X104648000Y-95123000D01*
X97790000Y-96012000D02*
X98032000Y-96254000D01*
X98032000Y-96254000D02*
X98032000Y-96914000D01*
X108966000Y-110617000D02*
X107862000Y-110617000D01*
X107862000Y-110617000D02*
X105918000Y-108673000D01*
X105918000Y-108673000D02*
X105918000Y-106662922D01*
X105918000Y-106662922D02*
X105918000Y-102743000D01*
X106807000Y-105918000D02*
X106807000Y-102489000D01*
X108966000Y-108077000D02*
X106807000Y-105918000D01*
X106807000Y-102489000D02*
X105537000Y-101219000D01*
X105537000Y-101219000D02*
X103625456Y-101219000D01*
X103625456Y-101219000D02*
X100470456Y-98064000D01*
X100470456Y-98064000D02*
X100286000Y-98064000D01*
X100286000Y-98064000D02*
X99682000Y-98064000D01*
X103759000Y-100711000D02*
X100612000Y-97564000D01*
X100612000Y-97564000D02*
X99682000Y-97564000D01*
X105918000Y-100711000D02*
X103759000Y-100711000D01*
X107442000Y-102235000D02*
X105918000Y-100711000D01*
X107442000Y-104013000D02*
X107442000Y-102235000D01*
X108966000Y-105537000D02*
X107442000Y-104013000D01*
X98552000Y-96012000D02*
X98552000Y-96894000D01*
X98552000Y-96894000D02*
X98532000Y-96914000D01*
X106426000Y-100076000D02*
X103886000Y-100076000D01*
X103886000Y-100076000D02*
X100330000Y-96520000D01*
X108116001Y-101766001D02*
X106426000Y-100076000D01*
X108966000Y-102997000D02*
X108116001Y-102147001D01*
X108116001Y-102147001D02*
X108116001Y-101766001D01*
X108966000Y-100457000D02*
X108116001Y-99607001D01*
X108116001Y-99607001D02*
X104179001Y-99607001D01*
X104179001Y-99607001D02*
X100457000Y-95885000D01*
X100457000Y-95885000D02*
X99441000Y-95885000D01*
X99441000Y-95885000D02*
X99032000Y-96294000D01*
X99032000Y-96294000D02*
X99032000Y-96914000D01*
D52*
X104536407Y-131953000D02*
X106807000Y-131953000D01*
X103632000Y-131318000D02*
X103901407Y-131318000D01*
X103901407Y-131318000D02*
X104536407Y-131953000D01*
X84836000Y-131421498D02*
X87225498Y-131421498D01*
X87225498Y-131421498D02*
X87884000Y-132080000D01*
D49*
X107227001Y-81240999D02*
X108077000Y-80391000D01*
X106235513Y-82232487D02*
X107227001Y-81240999D01*
X106235513Y-84111707D02*
X106235513Y-82232487D01*
X103330250Y-84857750D02*
X105489470Y-84857750D01*
X105489470Y-84857750D02*
X106235513Y-84111707D01*
X107227001Y-78700999D02*
X108077000Y-77851000D01*
X104268002Y-84264502D02*
X105364282Y-84264502D01*
X105727502Y-80200498D02*
X107227001Y-78700999D01*
X105727502Y-83901282D02*
X105727502Y-80200498D01*
X103330250Y-84207750D02*
X104211250Y-84207750D01*
X105364282Y-84264502D02*
X105727502Y-83901282D01*
X104211250Y-84207750D02*
X104268002Y-84264502D01*
X91870948Y-97536000D02*
X91938001Y-97536000D01*
X90490000Y-98916948D02*
X91870948Y-97536000D01*
X90490000Y-103664000D02*
X90490000Y-98916948D01*
D53*
X91938001Y-97536000D02*
X90795001Y-96393000D01*
X90795001Y-96393000D02*
X89784000Y-96393000D01*
X91938001Y-97536000D02*
X93466001Y-99064000D01*
X94278000Y-99064000D02*
X94882000Y-99064000D01*
X93466001Y-99064000D02*
X94278000Y-99064000D01*
D49*
X73025000Y-19685000D02*
X72390000Y-19050000D01*
X72390000Y-19050000D02*
X70734000Y-19050000D01*
X73025000Y-23506000D02*
X73025000Y-19685000D01*
X71400000Y-24425000D02*
X72106000Y-24425000D01*
X72106000Y-24425000D02*
X73025000Y-23506000D01*
D52*
X101780250Y-80057750D02*
X101780250Y-78305750D01*
X101780250Y-78305750D02*
X101854000Y-78232000D01*
X104521000Y-81661000D02*
X104467750Y-81607750D01*
X104467750Y-81607750D02*
X103330250Y-81607750D01*
X103601000Y-85725000D02*
X103568250Y-85757750D01*
X103568250Y-85757750D02*
X102430250Y-85757750D01*
X104013000Y-86995000D02*
X104013000Y-86137000D01*
X104013000Y-86137000D02*
X103601000Y-85725000D01*
X102430250Y-85757750D02*
X101780250Y-85757750D01*
X103330250Y-81607750D02*
X103330250Y-80957750D01*
X97663000Y-85725000D02*
X97663000Y-86487000D01*
X97663000Y-86487000D02*
X97663000Y-88143000D01*
X99822000Y-79121000D02*
X99822000Y-80049500D01*
X99822000Y-80049500D02*
X99830250Y-80057750D01*
X102430250Y-80057750D02*
X103330250Y-80057750D01*
X103330250Y-80057750D02*
X103505000Y-79883000D01*
X98044000Y-85344000D02*
X97663000Y-85725000D01*
X98044000Y-85271500D02*
X97630250Y-84857750D01*
X98530250Y-85757750D02*
X98044000Y-85271500D01*
X98044000Y-85271500D02*
X98044000Y-85344000D01*
X99830250Y-80057750D02*
X100480250Y-80057750D01*
X99180250Y-80057750D02*
X99830250Y-80057750D01*
X97630250Y-83557750D02*
X97630250Y-82907750D01*
X97630250Y-84207750D02*
X97630250Y-83557750D01*
X97630250Y-84857750D02*
X97630250Y-84207750D01*
X99180250Y-85757750D02*
X98530250Y-85757750D01*
X79629000Y-78981252D02*
X79629000Y-77277000D01*
X79629000Y-77277000D02*
X79817000Y-77089000D01*
D51*
X30405000Y-63425000D02*
X30480000Y-63500000D01*
X22285000Y-63425000D02*
X30405000Y-63425000D01*
X22390891Y-41743479D02*
X30440479Y-41743479D01*
X30440479Y-41743479D02*
X30480000Y-41783000D01*
X26797000Y-19431000D02*
X22461891Y-19431000D01*
X22461891Y-19431000D02*
X22390891Y-19360000D01*
D50*
X46360000Y-135890000D02*
X46360000Y-137302000D01*
X46360000Y-137302000D02*
X46853000Y-137795000D01*
X46853000Y-137795000D02*
X49149000Y-137795000D01*
X49149000Y-137795000D02*
X55052496Y-131891504D01*
X55052496Y-131891504D02*
X55052496Y-128610528D01*
X55052496Y-128610528D02*
X55052496Y-127762000D01*
X44318000Y-135890000D02*
X46360000Y-135890000D01*
D53*
X98933000Y-104140000D02*
X98933000Y-103251000D01*
X98933000Y-103251000D02*
X98171000Y-102489000D01*
X97028000Y-96266000D02*
X97028000Y-96910000D01*
X97028000Y-96910000D02*
X97032000Y-96914000D01*
X98532000Y-101714000D02*
X98532000Y-102128000D01*
X98532000Y-102128000D02*
X98171000Y-102489000D01*
X97032000Y-96914000D02*
X96532000Y-96914000D01*
X97532000Y-96914000D02*
X97032000Y-96914000D01*
X99682000Y-100564000D02*
X99711989Y-100593989D01*
X99711989Y-100593989D02*
X100010646Y-100593989D01*
X100010646Y-100593989D02*
X100280053Y-100593989D01*
X96520000Y-102870000D02*
X96520000Y-103312000D01*
X96520000Y-103312000D02*
X95692000Y-104140000D01*
X99682000Y-99064000D02*
X100326000Y-99064000D01*
X100326000Y-99064000D02*
X100330000Y-99060000D01*
X96520000Y-102870000D02*
X96520000Y-101726000D01*
X96520000Y-101726000D02*
X96532000Y-101714000D01*
X99682000Y-99064000D02*
X99682000Y-98564000D01*
X97532000Y-101714000D02*
X98032000Y-101714000D01*
X97032000Y-101714000D02*
X97532000Y-101714000D01*
X96532000Y-101714000D02*
X97032000Y-101714000D01*
X96032000Y-101714000D02*
X96532000Y-101714000D01*
X95532000Y-101714000D02*
X96032000Y-101714000D01*
X94882000Y-101064000D02*
X95532000Y-101714000D01*
X94882000Y-100564000D02*
X94882000Y-101064000D01*
D50*
X46736000Y-113157000D02*
X46360000Y-113533000D01*
X46360000Y-113533000D02*
X46360000Y-115189000D01*
X49555032Y-113157000D02*
X46736000Y-113157000D01*
X59182000Y-123632496D02*
X59182000Y-122783968D01*
X59182000Y-122783968D02*
X49555032Y-113157000D01*
X44323000Y-115189000D02*
X46360000Y-115189000D01*
X44318000Y-132334000D02*
X46355000Y-132334000D01*
X44318000Y-118745000D02*
X46360000Y-118745000D01*
D49*
X32782000Y-133582000D02*
X32782000Y-132951000D01*
X32782000Y-132951000D02*
X32512000Y-132681000D01*
X32512000Y-132681000D02*
X32512000Y-129286000D01*
X32282000Y-133582000D02*
X32282000Y-129516000D01*
X32282000Y-129516000D02*
X32512000Y-129286000D01*
X32282000Y-133582000D02*
X32782000Y-133582000D01*
D50*
X33528000Y-117348000D02*
X33528000Y-124714000D01*
X33528000Y-124714000D02*
X35306000Y-126492000D01*
D49*
X33528000Y-117348000D02*
X33595000Y-117348000D01*
X33595000Y-117348000D02*
X33838000Y-117105000D01*
X33338000Y-117158000D02*
X33528000Y-117348000D01*
X33338000Y-117105000D02*
X33338000Y-117158000D01*
D50*
X32512000Y-129286000D02*
X35306000Y-126492000D01*
X35306000Y-126492000D02*
X45847000Y-126492000D01*
X45847000Y-126492000D02*
X48260000Y-128905000D01*
X48260000Y-128905000D02*
X48260000Y-121920000D01*
X73660000Y-48260000D02*
X74509999Y-47410001D01*
X74509999Y-47410001D02*
X75382611Y-47410001D01*
X75382611Y-47410001D02*
X88667161Y-34125451D01*
X88667161Y-34125451D02*
X89556160Y-33236452D01*
X73660000Y-50800000D02*
X74509999Y-49950001D01*
X74509999Y-49950001D02*
X75382611Y-49950001D01*
X75382611Y-49950001D02*
X91207161Y-34125451D01*
X91207161Y-34125451D02*
X92096160Y-33236452D01*
X22390891Y-21860000D02*
X28928420Y-21860000D01*
X28928420Y-21860000D02*
X31623000Y-24554580D01*
X47200420Y-34417000D02*
X80855420Y-68072000D01*
X31623000Y-24554580D02*
X31623000Y-27094580D01*
X31623000Y-27094580D02*
X38945420Y-34417000D01*
X38945420Y-34417000D02*
X47200420Y-34417000D01*
X83185000Y-65337081D02*
X82550000Y-64702081D01*
X80855420Y-68072000D02*
X82339580Y-68072000D01*
X82339580Y-68072000D02*
X83185000Y-67226580D01*
X83185000Y-67226580D02*
X83185000Y-65337081D01*
X82550000Y-64702081D02*
X82550000Y-63500000D01*
X22390891Y-23860000D02*
X24933391Y-23860000D01*
X38524580Y-35433000D02*
X46779580Y-35433000D01*
X24933391Y-23860000D02*
X25425391Y-23368000D01*
X25425391Y-23368000D02*
X28999580Y-23368000D01*
X28999580Y-23368000D02*
X30607000Y-24975420D01*
X30607000Y-24975420D02*
X30607000Y-27515420D01*
X30607000Y-27515420D02*
X38524580Y-35433000D01*
X46779580Y-35433000D02*
X80434580Y-69088000D01*
X85090000Y-64702081D02*
X85090000Y-63500000D01*
X80434580Y-69088000D02*
X82760420Y-69088000D01*
X84455000Y-65337081D02*
X85090000Y-64702081D01*
X82760420Y-69088000D02*
X84455000Y-67393420D01*
X84455000Y-67393420D02*
X84455000Y-65337081D01*
X74630001Y-70820001D02*
X74930000Y-71120000D01*
X50053479Y-46243479D02*
X74630001Y-70820001D01*
X22390891Y-46243479D02*
X50053479Y-46243479D01*
X75900001Y-70820001D02*
X76200000Y-71120000D01*
X49323479Y-44243479D02*
X75900001Y-70820001D01*
X22390891Y-44243479D02*
X49323479Y-44243479D01*
X22285000Y-65925000D02*
X67182250Y-65925000D01*
X74663239Y-73405989D02*
X95504011Y-73405989D01*
X67182250Y-65925000D02*
X74663239Y-73405989D01*
X95504011Y-73405989D02*
X103505000Y-65405000D01*
X103505000Y-64135000D02*
X102870000Y-63500000D01*
X103505000Y-65405000D02*
X103505000Y-64135000D01*
X105410000Y-64770000D02*
X105410000Y-64702081D01*
X105410000Y-64702081D02*
X105410000Y-63500000D01*
X25823501Y-66928999D02*
X39857681Y-66928999D01*
X40361682Y-67433000D02*
X67433000Y-67433000D01*
X95885000Y-74295000D02*
X105410000Y-64770000D01*
X67433000Y-67433000D02*
X74295000Y-74295000D01*
X74295000Y-74295000D02*
X95885000Y-74295000D01*
X22285000Y-67925000D02*
X24827500Y-67925000D01*
X24827500Y-67925000D02*
X25823501Y-66928999D01*
X39857681Y-66928999D02*
X40361682Y-67433000D01*
D49*
X104460000Y-92440000D02*
X104460000Y-92490000D01*
X104460000Y-92490000D02*
X105442000Y-93472000D01*
X104849599Y-62127501D02*
X104037501Y-61315403D01*
X105442000Y-93472000D02*
X110744000Y-93472000D01*
X99152661Y-56008575D02*
X99152661Y-54977331D01*
X110744000Y-93472000D02*
X111760000Y-92456000D01*
X111760000Y-92456000D02*
X111760000Y-69037902D01*
X111760000Y-69037902D02*
X106577501Y-63855403D01*
X106577501Y-63855403D02*
X106577501Y-62889501D01*
X105815501Y-62127501D02*
X104849599Y-62127501D01*
X106577501Y-62889501D02*
X105815501Y-62127501D01*
X101085953Y-56762953D02*
X99907039Y-56762953D01*
X104037501Y-61315403D02*
X104037501Y-59714501D01*
X104037501Y-59714501D02*
X101085953Y-56762953D01*
X99907039Y-56762953D02*
X99152661Y-56008575D01*
X99152661Y-54977331D02*
X98398283Y-54222953D01*
X98398283Y-54222953D02*
X96612661Y-54222953D01*
X96612661Y-54222953D02*
X96295159Y-53905451D01*
X96295159Y-53905451D02*
X95406160Y-53016452D01*
X88773000Y-104066000D02*
X88773000Y-98679000D01*
X88773000Y-98679000D02*
X88900000Y-98552000D01*
X89540000Y-105664000D02*
X89540000Y-104833000D01*
X89540000Y-104833000D02*
X88773000Y-104066000D01*
M02*
