M48
METRIC,TZ
T1C0.254
T2C0.400
T3C0.508
T4C0.700
T5C0.800
T6C0.965
T7C1.000
T8C1.020
T9C3.050
T10C4.500
%
G90
G05
T1
X66.675Y-25.4
X72.771Y-96.393
X74.041Y-96.774
X79.883Y-131.572
X79.883Y-132.715
X84.836Y-131.421
X87.884Y-132.08
X93.091Y-77.216
X93.98Y-76.2
X96.52Y-102.87
X97.028Y-96.266
X97.663Y-86.487
X97.79Y-96.012
X98.171Y-102.489
X98.552Y-96.012
X98.679Y-131.572
X98.679Y-132.842
X99.822Y-79.121
X100.28Y-100.594
X100.33Y-96.52
X100.33Y-99.06
X101.854Y-78.232
X103.505Y-79.883
X103.601Y-85.725
X103.632Y-131.318
X104.521Y-81.661
X105.918Y-102.743
X106.807Y-131.953
X110.109Y-69.342
X110.236Y-70.739
T2
X74.93Y-71.12
X76.2Y-71.12
X88.9Y-98.552
T3
X23.622Y-30.48
X23.622Y-52.959
X26.797Y-19.431
X30.48Y-41.783
X30.48Y-63.5
X30.861Y-137.287
X31.115Y-117.094
X32.258Y-113.538
X33.528Y-137.287
X34.29Y-143.51
X34.417Y-132.715
X34.671Y-107.315
X34.925Y-84.836
X34.925Y-113.538
X35.433Y-86.995
X35.56Y-84.201
X37.592Y-83.312
X38.989Y-69.469
X40.64Y-81.407
X41.319Y-76.312
X42.094Y-75.072
X44.958Y-85.09
X44.958Y-86.493
X46.355Y-83.566
X48.486Y-84.73
X49.911Y-64.77
X50.673Y-127.254
X50.8Y-120.396
X53.594Y-75.946
X57.238Y-70.986
X57.423Y-72.059
X58.42Y-68.707
X58.42Y-76.835
X60.96Y-74.041
X61.341Y-70.993
X61.976Y-64.262
X65.405Y-69.596
X66.548Y-16.891
X66.929Y-89.141
X66.929Y-92.316
X67.183Y-70.993
X67.564Y-19.685
X67.564Y-31.369
X67.564Y-78.867
X68.961Y-76.2
X70.104Y-72.898
X71.12Y-23.114
X71.374Y-89.141
X71.374Y-92.316
X72.136Y-31.75
X73.025Y-65.151
X74.676Y-90.424
X75.438Y-137.668
X75.565Y-127.889
X75.692Y-84.709
X76.2Y-76.581
X76.835Y-103.378
X77.724Y-93.472
X79.629Y-89.141
X79.629Y-92.316
X80.01Y-103.378
X81.28Y-89.535
X81.28Y-112.776
X81.627Y-130.89
X82.457Y-132.08
X85.344Y-90.411
X86.487Y-96.393
X87.757Y-143.764
X89.789Y-89.535
X91.694Y-93.726
X91.821Y-98.933
X96.419Y-100.176
X97.663Y-77.978
X98.144Y-98.451
X98.886Y-81.314
X100.838Y-132.715
X100.965Y-91.059
X101.038Y-99.571
X101.219Y-100.838
X101.346Y-88.519
X101.473Y-147.193
X102.074Y-84.501
X102.235Y-76.2
X104.267Y-120.904
X104.394Y-105.029
X104.504Y-82.771
X105.029Y-83.566
X115.062Y-70.358
X116.84Y-69.215
T4
X42.418Y-118.745
X42.418Y-132.334
X44.318Y-118.745
X44.318Y-132.334
X54.197Y-125.697
X55.052Y-123.632
X55.052Y-127.762
X57.117Y-122.777
X57.117Y-128.617
X59.182Y-123.632
X59.182Y-127.762
X60.037Y-125.697
T5
X38.1Y-121.92
X38.1Y-128.905
X48.26Y-121.92
X48.26Y-128.905
T6
X80.166Y-53.016
X80.166Y-55.556
X82.706Y-53.016
X82.706Y-55.556
X84.476Y-33.236
X85.246Y-53.016
X85.246Y-55.556
X87.016Y-33.236
X87.786Y-53.016
X87.786Y-55.556
X89.556Y-33.236
X90.326Y-53.016
X90.326Y-55.556
X92.096Y-33.236
X92.866Y-53.016
X92.866Y-55.556
X94.636Y-33.236
X95.406Y-53.016
X95.406Y-55.556
X97.176Y-33.236
X97.946Y-53.016
X97.946Y-55.556
X100.486Y-53.016
X100.486Y-55.556
X103.026Y-53.016
X103.026Y-55.556
X105.566Y-53.016
X105.566Y-55.556
X108.106Y-53.016
X108.106Y-55.556
X110.646Y-53.016
X110.646Y-55.556
X113.186Y-53.016
X113.186Y-55.556
X115.726Y-53.016
X115.726Y-55.556
X118.266Y-53.016
X118.266Y-55.556
X120.806Y-53.016
X120.806Y-55.556
X123.346Y-53.016
X123.346Y-55.556
X125.886Y-53.016
X125.886Y-55.556
X128.426Y-53.016
X128.426Y-55.556
T7
X73.66Y-43.18
X73.66Y-45.72
X73.66Y-48.26
X73.66Y-50.8
X73.66Y-53.34
X73.66Y-55.88
X75.565Y-21.59
X75.565Y-24.13
X75.565Y-26.67
X80.01Y-60.96
X80.01Y-63.5
X80.166Y-21.266
X80.166Y-23.806
X82.55Y-60.96
X82.55Y-63.5
X82.706Y-21.266
X82.706Y-23.806
X85.09Y-60.96
X85.09Y-63.5
X85.246Y-21.266
X85.246Y-23.806
X87.63Y-60.96
X87.63Y-63.5
X87.786Y-21.266
X87.786Y-23.806
X90.17Y-60.96
X90.17Y-63.5
X90.326Y-21.266
X90.326Y-23.806
X92.71Y-60.96
X92.71Y-63.5
X92.866Y-21.266
X92.866Y-23.806
X95.25Y-60.96
X95.25Y-63.5
X95.406Y-21.266
X95.406Y-23.806
X97.79Y-60.96
X97.79Y-63.5
X97.946Y-21.266
X97.946Y-23.806
X100.33Y-60.96
X100.33Y-63.5
X100.486Y-21.266
X100.486Y-23.806
X102.87Y-60.96
X102.87Y-63.5
X103.026Y-21.266
X103.026Y-23.806
X103.886Y-96.901
X105.41Y-60.96
X105.41Y-63.5
X105.566Y-21.266
X105.566Y-23.806
X106.426Y-96.901
X107.95Y-60.96
X107.95Y-63.5
X108.077Y-77.851
X108.077Y-80.391
X108.077Y-82.931
X108.077Y-85.471
X108.077Y-88.011
X108.106Y-21.266
X108.106Y-23.806
X108.966Y-96.901
X108.966Y-100.457
X108.966Y-102.997
X108.966Y-105.537
X108.966Y-108.077
X108.966Y-110.617
X110.49Y-60.96
X110.49Y-63.5
X110.646Y-21.266
X110.646Y-23.806
X113.03Y-60.96
X113.03Y-63.5
X113.186Y-21.266
X113.186Y-23.806
X115.57Y-60.96
X115.57Y-63.5
X115.726Y-21.266
X115.726Y-23.806
X118.11Y-60.96
X118.11Y-63.5
X118.266Y-21.266
X118.266Y-23.806
X120.65Y-60.96
X120.65Y-63.5
X120.806Y-21.266
X120.806Y-23.806
X123.19Y-60.96
X123.19Y-63.5
X123.346Y-21.266
X123.346Y-23.806
X125.73Y-60.96
X125.73Y-63.5
X125.886Y-21.266
X125.886Y-23.806
X128.27Y-60.96
X128.27Y-63.5
X128.426Y-21.266
X128.426Y-23.806
T8
X43.69Y-29.845
X45.09Y-27.305
X46.48Y-29.845
X47.88Y-27.305
X49.15Y-29.845
X50.55Y-27.305
X51.95Y-29.845
X53.34Y-27.305
X54.74Y-29.845
T9
X36.58Y-27.305
X61.98Y-27.305
T10
X19.05Y-81.915
X19.05Y-92.075
X81.915Y-156.845
X94.615Y-156.845
T0
M30
