G04 #@! TF.FileFunction,Soldermask,Top*
%FSLAX46Y46*%
G04 Gerber Fmt 4.6, Leading zero omitted, Abs format (unit mm)*
G04 Created by KiCad (PCBNEW 4.0.6) date 09/10/17 19:14:27*
%MOMM*%
%LPD*%
G01*
G04 APERTURE LIST*
%ADD10C,0.100000*%
%ADD11R,3.790000X1.520000*%
%ADD12R,2.620000X2.840000*%
%ADD13C,1.500000*%
%ADD14R,1.050000X0.750000*%
%ADD15R,1.175000X1.600000*%
%ADD16R,2.100000X2.100000*%
%ADD17O,2.100000X2.100000*%
%ADD18C,6.750000*%
%ADD19R,1.400000X1.650000*%
%ADD20R,1.650000X1.400000*%
%ADD21R,1.400000X2.900000*%
%ADD22C,4.210000*%
%ADD23R,1.920000X1.920000*%
%ADD24C,1.920000*%
%ADD25C,8.500000*%
%ADD26C,2.178000*%
%ADD27C,2.550000*%
%ADD28R,1.200000X1.300000*%
%ADD29R,1.100000X1.700000*%
%ADD30R,1.700000X1.100000*%
%ADD31C,2.398980*%
%ADD32R,0.908000X1.543000*%
%ADD33R,0.750000X0.900000*%
%ADD34R,1.000000X2.350000*%
%ADD35C,1.800000*%
%ADD36O,1.800000X1.800000*%
%ADD37R,1.400000X0.770000*%
%ADD38R,0.770000X1.400000*%
%ADD39R,1.462500X1.462500*%
%ADD40R,1.100000X0.650000*%
%ADD41R,0.650000X1.100000*%
%ADD42R,2.125000X2.125000*%
%ADD43O,2.000000X1.600000*%
%ADD44O,1.600000X1.600000*%
%ADD45R,0.700000X0.900000*%
%ADD46R,1.280000X1.460000*%
G04 APERTURE END LIST*
D10*
D11*
X22390891Y-19360000D03*
X22390891Y-21860000D03*
X22390891Y-23860000D03*
X22390891Y-26360000D03*
D12*
X18710891Y-30530000D03*
X18710891Y-15190000D03*
D13*
X14710891Y-18800000D03*
X14710891Y-26920000D03*
D11*
X22390891Y-41743479D03*
X22390891Y-44243479D03*
X22390891Y-46243479D03*
X22390891Y-48743479D03*
D12*
X18710891Y-52913479D03*
X18710891Y-37573479D03*
D13*
X14710891Y-41183479D03*
X14710891Y-49303479D03*
D11*
X22285000Y-63425000D03*
X22285000Y-65925000D03*
X22285000Y-67925000D03*
X22285000Y-70425000D03*
D12*
X18605000Y-74595000D03*
X18605000Y-59255000D03*
D13*
X14605000Y-62865000D03*
X14605000Y-70985000D03*
D14*
X71400000Y-26375000D03*
X71400000Y-25725000D03*
X71400000Y-25075000D03*
X71400000Y-24425000D03*
X68300000Y-24425000D03*
X68300000Y-25075000D03*
X68300000Y-25725000D03*
X68300000Y-26375000D03*
D15*
X69462500Y-24800000D03*
X69462500Y-26000000D03*
X70237500Y-24800000D03*
X70237500Y-26000000D03*
D16*
X73660000Y-43180000D03*
D17*
X73660000Y-45720000D03*
X73660000Y-48260000D03*
X73660000Y-50800000D03*
X73660000Y-53340000D03*
X73660000Y-55880000D03*
D18*
X43180000Y-104648000D03*
X43180000Y-146050000D03*
D19*
X101076000Y-76835000D03*
X99076000Y-76835000D03*
D20*
X100076000Y-87916000D03*
X100076000Y-89916000D03*
X95250000Y-87916000D03*
X95250000Y-89916000D03*
D21*
X71350000Y-15875000D03*
X68350000Y-15875000D03*
D19*
X68850000Y-21590000D03*
X70850000Y-21590000D03*
X68739000Y-29591000D03*
X70739000Y-29591000D03*
D20*
X74549000Y-79502000D03*
X74549000Y-77502000D03*
X70612000Y-79470000D03*
X70612000Y-77470000D03*
X84709000Y-81156252D03*
X84709000Y-83156252D03*
X76454000Y-81156252D03*
X76454000Y-83156252D03*
D19*
X82185000Y-111465990D03*
X84185000Y-111465990D03*
X93234000Y-94869000D03*
X95234000Y-94869000D03*
D20*
X102743000Y-102140000D03*
X102743000Y-104140000D03*
X92456000Y-99600000D03*
X92456000Y-101600000D03*
D16*
X75565000Y-21590000D03*
D17*
X75565000Y-24130000D03*
X75565000Y-26670000D03*
D16*
X80166160Y-23806452D03*
D17*
X80166160Y-21266452D03*
X82706160Y-23806452D03*
X82706160Y-21266452D03*
X85246160Y-23806452D03*
X85246160Y-21266452D03*
X87786160Y-23806452D03*
X87786160Y-21266452D03*
X90326160Y-23806452D03*
X90326160Y-21266452D03*
X92866160Y-23806452D03*
X92866160Y-21266452D03*
X95406160Y-23806452D03*
X95406160Y-21266452D03*
X97946160Y-23806452D03*
X97946160Y-21266452D03*
X100486160Y-23806452D03*
X100486160Y-21266452D03*
X103026160Y-23806452D03*
X103026160Y-21266452D03*
X105566160Y-23806452D03*
X105566160Y-21266452D03*
X108106160Y-23806452D03*
X108106160Y-21266452D03*
X110646160Y-23806452D03*
X110646160Y-21266452D03*
X113186160Y-23806452D03*
X113186160Y-21266452D03*
X115726160Y-23806452D03*
X115726160Y-21266452D03*
X118266160Y-23806452D03*
X118266160Y-21266452D03*
X120806160Y-23806452D03*
X120806160Y-21266452D03*
X123346160Y-23806452D03*
X123346160Y-21266452D03*
X125886160Y-23806452D03*
X125886160Y-21266452D03*
X128426160Y-23806452D03*
X128426160Y-21266452D03*
D16*
X80010000Y-63500000D03*
D17*
X80010000Y-60960000D03*
X82550000Y-63500000D03*
X82550000Y-60960000D03*
X85090000Y-63500000D03*
X85090000Y-60960000D03*
X87630000Y-63500000D03*
X87630000Y-60960000D03*
X90170000Y-63500000D03*
X90170000Y-60960000D03*
X92710000Y-63500000D03*
X92710000Y-60960000D03*
X95250000Y-63500000D03*
X95250000Y-60960000D03*
X97790000Y-63500000D03*
X97790000Y-60960000D03*
X100330000Y-63500000D03*
X100330000Y-60960000D03*
X102870000Y-63500000D03*
X102870000Y-60960000D03*
X105410000Y-63500000D03*
X105410000Y-60960000D03*
X107950000Y-63500000D03*
X107950000Y-60960000D03*
X110490000Y-63500000D03*
X110490000Y-60960000D03*
X113030000Y-63500000D03*
X113030000Y-60960000D03*
X115570000Y-63500000D03*
X115570000Y-60960000D03*
X118110000Y-63500000D03*
X118110000Y-60960000D03*
X120650000Y-63500000D03*
X120650000Y-60960000D03*
X123190000Y-63500000D03*
X123190000Y-60960000D03*
X125730000Y-63500000D03*
X125730000Y-60960000D03*
X128270000Y-63500000D03*
X128270000Y-60960000D03*
D22*
X61980000Y-27305000D03*
X36580000Y-27305000D03*
D23*
X43690000Y-29845000D03*
D24*
X46480000Y-29845000D03*
X49150000Y-29845000D03*
X51950000Y-29845000D03*
X54740000Y-29845000D03*
X45090000Y-27305000D03*
X47880000Y-27305000D03*
X50550000Y-27305000D03*
X53340000Y-27305000D03*
D25*
X94615000Y-156845000D03*
X81915000Y-156845000D03*
D16*
X103886000Y-96901000D03*
D17*
X106426000Y-96901000D03*
X108966000Y-96901000D03*
D16*
X108966000Y-110617000D03*
D17*
X108966000Y-108077000D03*
X108966000Y-105537000D03*
X108966000Y-102997000D03*
X108966000Y-100457000D03*
D25*
X19050000Y-92075000D03*
X19050000Y-81915000D03*
D26*
X80166160Y-53016452D03*
X80166160Y-55556452D03*
X82706160Y-53016452D03*
X82706160Y-55556452D03*
X85246160Y-53016452D03*
X85246160Y-55556452D03*
X87786160Y-53016452D03*
X87786160Y-55556452D03*
X90326160Y-53016452D03*
X90326160Y-55556452D03*
X92866160Y-53016452D03*
X92866160Y-55556452D03*
X95406160Y-53016452D03*
X95406160Y-55556452D03*
X97946160Y-53016452D03*
X97946160Y-55556452D03*
X100486160Y-53016452D03*
X100486160Y-55556452D03*
X103026160Y-53016452D03*
X103026160Y-55556452D03*
X105566160Y-53016452D03*
X105566160Y-55556452D03*
X108106160Y-53016452D03*
X108106160Y-55556452D03*
X110646160Y-53016452D03*
X110646160Y-55556452D03*
X113186160Y-53016452D03*
X113186160Y-55556452D03*
X115726160Y-53016452D03*
X115726160Y-55556452D03*
X118266160Y-53016452D03*
X118266160Y-55556452D03*
X120806160Y-53016452D03*
X120806160Y-55556452D03*
X123346160Y-53016452D03*
X123346160Y-55556452D03*
X125886160Y-53016452D03*
X125886160Y-55556452D03*
X128426160Y-53016452D03*
X128426160Y-55556452D03*
X84476160Y-33236452D03*
X87016160Y-33236452D03*
X89556160Y-33236452D03*
X92096160Y-33236452D03*
X94636160Y-33236452D03*
X97176160Y-33236452D03*
D27*
X79596160Y-33636452D03*
X128996160Y-33636452D03*
D28*
X104460000Y-92440000D03*
X106360000Y-92440000D03*
X105410000Y-90440000D03*
X89540000Y-105664000D03*
X91440000Y-105664000D03*
X90490000Y-103664000D03*
D29*
X68834000Y-19050000D03*
X70734000Y-19050000D03*
X110358000Y-91948000D03*
X108458000Y-91948000D03*
D30*
X104013000Y-88895000D03*
X104013000Y-86995000D03*
X97663000Y-88143000D03*
X97663000Y-90043000D03*
D29*
X77917000Y-77089000D03*
X79817000Y-77089000D03*
X42418000Y-135890000D03*
X44318000Y-135890000D03*
X98933000Y-104140000D03*
X100833000Y-104140000D03*
X89784000Y-96393000D03*
X87884000Y-96393000D03*
X95692000Y-104140000D03*
X93792000Y-104140000D03*
X46360000Y-135890000D03*
X48260000Y-135890000D03*
X42423000Y-115189000D03*
X44323000Y-115189000D03*
X46360000Y-115189000D03*
X48260000Y-115189000D03*
X46355000Y-132334000D03*
X48255000Y-132334000D03*
X46360000Y-118745000D03*
X48260000Y-118745000D03*
D31*
X48260000Y-128905000D03*
X38100000Y-128905000D03*
X48260000Y-121920000D03*
X38100000Y-121920000D03*
D32*
X86614000Y-78981252D03*
X87884000Y-78981252D03*
X89154000Y-78981252D03*
X90424000Y-78981252D03*
X90424000Y-85331252D03*
X89154000Y-85331252D03*
X87884000Y-85331252D03*
X86614000Y-85331252D03*
X78359000Y-78981252D03*
X79629000Y-78981252D03*
X80899000Y-78981252D03*
X82169000Y-78981252D03*
X82169000Y-85331252D03*
X80899000Y-85331252D03*
X79629000Y-85331252D03*
X78359000Y-85331252D03*
D33*
X73619000Y-82956252D03*
X72969000Y-82956252D03*
X72319000Y-82956252D03*
X71669000Y-82956252D03*
X71669000Y-81356252D03*
X72319000Y-81356252D03*
X72969000Y-81356252D03*
X73619000Y-81356252D03*
X69514000Y-82997919D03*
X68864000Y-82997919D03*
X68214000Y-82997919D03*
X67564000Y-82997919D03*
X67564000Y-81397919D03*
X68214000Y-81397919D03*
X68864000Y-81397919D03*
X69514000Y-81397919D03*
D34*
X75565000Y-108545990D03*
X76835000Y-108545990D03*
X78105000Y-108545990D03*
X79375000Y-108545990D03*
X80645000Y-108545990D03*
X81915000Y-108545990D03*
X83185000Y-108545990D03*
X84455000Y-108545990D03*
X85725000Y-108545990D03*
X86995000Y-108545990D03*
X86995000Y-99145990D03*
X85725000Y-99145990D03*
X84455000Y-99145990D03*
X83185000Y-99145990D03*
X81915000Y-99145990D03*
X80645000Y-99145990D03*
X79375000Y-99145990D03*
X78105000Y-99145990D03*
X76835000Y-99145990D03*
X75565000Y-99145990D03*
D35*
X42418000Y-132334000D03*
D36*
X44318000Y-132334000D03*
D35*
X42418000Y-118745000D03*
D36*
X44318000Y-118745000D03*
D37*
X103330250Y-84857750D03*
X103330250Y-84207750D03*
X103330250Y-83557750D03*
X103330250Y-82907750D03*
X103330250Y-82257750D03*
X103330250Y-81607750D03*
X103330250Y-80957750D03*
D38*
X102430250Y-80057750D03*
X101780250Y-80057750D03*
X101130250Y-80057750D03*
X100480250Y-80057750D03*
X99830250Y-80057750D03*
X99180250Y-80057750D03*
X98530250Y-80057750D03*
D37*
X97630250Y-80957750D03*
X97630250Y-81607750D03*
X97630250Y-82257750D03*
X97630250Y-82907750D03*
X97630250Y-83557750D03*
X97630250Y-84207750D03*
X97630250Y-84857750D03*
D38*
X98530250Y-85757750D03*
X99180250Y-85757750D03*
X99830250Y-85757750D03*
X100480250Y-85757750D03*
X101130250Y-85757750D03*
X101780250Y-85757750D03*
X102430250Y-85757750D03*
D39*
X98886500Y-81314000D03*
X98886500Y-82376500D03*
X98886500Y-83439000D03*
X98886500Y-84501500D03*
X99949000Y-81314000D03*
X99949000Y-82376500D03*
X99949000Y-83439000D03*
X99949000Y-84501500D03*
X101011500Y-81314000D03*
X101011500Y-82376500D03*
X101011500Y-83439000D03*
X101011500Y-84501500D03*
X102074000Y-81314000D03*
X102074000Y-82376500D03*
X102074000Y-83439000D03*
X102074000Y-84501500D03*
D40*
X94882000Y-97564000D03*
X94882000Y-98064000D03*
X94882000Y-98564000D03*
X94882000Y-99064000D03*
X94882000Y-99564000D03*
X94882000Y-100064000D03*
X94882000Y-100564000D03*
X94882000Y-101064000D03*
D41*
X95532000Y-101714000D03*
X96032000Y-101714000D03*
X96532000Y-101714000D03*
X97032000Y-101714000D03*
X97532000Y-101714000D03*
X98032000Y-101714000D03*
X98532000Y-101714000D03*
X99032000Y-101714000D03*
D40*
X99682000Y-101064000D03*
X99682000Y-100564000D03*
X99682000Y-100064000D03*
X99682000Y-99564000D03*
X99682000Y-99064000D03*
X99682000Y-98564000D03*
X99682000Y-98064000D03*
X99682000Y-97564000D03*
D41*
X99032000Y-96914000D03*
X98532000Y-96914000D03*
X98032000Y-96914000D03*
X97532000Y-96914000D03*
X97032000Y-96914000D03*
X96532000Y-96914000D03*
X96032000Y-96914000D03*
X95532000Y-96914000D03*
D42*
X98144500Y-100176500D03*
X98144500Y-98451500D03*
X96419500Y-100176500D03*
X96419500Y-98451500D03*
D43*
X54197248Y-125697248D03*
D44*
X55052496Y-127762000D03*
X57117248Y-128617248D03*
X59182000Y-127762000D03*
X60037248Y-125697248D03*
X59182000Y-123632496D03*
X57117248Y-122777248D03*
X55052496Y-123632496D03*
D45*
X32282000Y-135382000D03*
X32782000Y-135382000D03*
X33282000Y-135382000D03*
X33782000Y-135382000D03*
X33782000Y-133582000D03*
X33282000Y-133582000D03*
X32782000Y-133582000D03*
X32282000Y-133582000D03*
D46*
X33472000Y-134482000D03*
X32592000Y-134482000D03*
D45*
X33838000Y-115305000D03*
X33338000Y-115305000D03*
X32838000Y-115305000D03*
X32338000Y-115305000D03*
X32338000Y-117105000D03*
X32838000Y-117105000D03*
X33338000Y-117105000D03*
X33838000Y-117105000D03*
D46*
X32648000Y-116205000D03*
X33528000Y-116205000D03*
D16*
X108077000Y-88011000D03*
D17*
X108077000Y-85471000D03*
X108077000Y-82931000D03*
X108077000Y-80391000D03*
X108077000Y-77851000D03*
M02*
