G04 #@! TF.FileFunction,Legend,Top*
%FSLAX46Y46*%
G04 Gerber Fmt 4.6, Leading zero omitted, Abs format (unit mm)*
G04 Created by KiCad (PCBNEW 4.0.6) date 09/10/17 19:14:27*
%MOMM*%
%LPD*%
G01*
G04 APERTURE LIST*
%ADD10C,0.100000*%
%ADD11C,0.300000*%
%ADD12C,0.150000*%
%ADD13C,0.120000*%
%ADD14C,0.010000*%
G04 APERTURE END LIST*
D10*
D11*
X72365809Y-156210000D02*
X72172286Y-156113238D01*
X71882000Y-156113238D01*
X71591714Y-156210000D01*
X71398190Y-156403524D01*
X71301429Y-156597048D01*
X71204667Y-156984095D01*
X71204667Y-157274381D01*
X71301429Y-157661429D01*
X71398190Y-157854952D01*
X71591714Y-158048476D01*
X71882000Y-158145238D01*
X72075524Y-158145238D01*
X72365809Y-158048476D01*
X72462571Y-157951714D01*
X72462571Y-157274381D01*
X72075524Y-157274381D01*
X73333429Y-158145238D02*
X73333429Y-156113238D01*
X74494571Y-158145238D01*
X74494571Y-156113238D01*
X75462191Y-158145238D02*
X75462191Y-156113238D01*
X75946000Y-156113238D01*
X76236286Y-156210000D01*
X76429810Y-156403524D01*
X76526571Y-156597048D01*
X76623333Y-156984095D01*
X76623333Y-157274381D01*
X76526571Y-157661429D01*
X76429810Y-157854952D01*
X76236286Y-158048476D01*
X75946000Y-158145238D01*
X75462191Y-158145238D01*
X99755477Y-155859238D02*
X100432810Y-157891238D01*
X101110143Y-155859238D01*
X101787477Y-157891238D02*
X101787477Y-155859238D01*
X102755096Y-157891238D02*
X102755096Y-155859238D01*
X103916238Y-157891238D01*
X103916238Y-155859238D01*
X26162000Y-80493809D02*
X26258762Y-80300286D01*
X26258762Y-80010000D01*
X26162000Y-79719714D01*
X25968476Y-79526190D01*
X25774952Y-79429429D01*
X25387905Y-79332667D01*
X25097619Y-79332667D01*
X24710571Y-79429429D01*
X24517048Y-79526190D01*
X24323524Y-79719714D01*
X24226762Y-80010000D01*
X24226762Y-80203524D01*
X24323524Y-80493809D01*
X24420286Y-80590571D01*
X25097619Y-80590571D01*
X25097619Y-80203524D01*
X24226762Y-81461429D02*
X26258762Y-81461429D01*
X24226762Y-82622571D01*
X26258762Y-82622571D01*
X24226762Y-83590191D02*
X26258762Y-83590191D01*
X26258762Y-84074000D01*
X26162000Y-84364286D01*
X25968476Y-84557810D01*
X25774952Y-84654571D01*
X25387905Y-84751333D01*
X25097619Y-84751333D01*
X24710571Y-84654571D01*
X24517048Y-84557810D01*
X24323524Y-84364286D01*
X24226762Y-84074000D01*
X24226762Y-83590191D01*
X25000857Y-89081429D02*
X25000857Y-90629619D01*
X24226762Y-89855524D02*
X25774952Y-89855524D01*
X26258762Y-92564858D02*
X26258762Y-91597239D01*
X25291143Y-91500477D01*
X25387905Y-91597239D01*
X25484667Y-91790762D01*
X25484667Y-92274572D01*
X25387905Y-92468096D01*
X25291143Y-92564858D01*
X25097619Y-92661619D01*
X24613810Y-92661619D01*
X24420286Y-92564858D01*
X24323524Y-92468096D01*
X24226762Y-92274572D01*
X24226762Y-91790762D01*
X24323524Y-91597239D01*
X24420286Y-91500477D01*
X26258762Y-93242191D02*
X24226762Y-93919524D01*
X26258762Y-94596857D01*
X111565714Y-99635571D02*
X111565714Y-100707000D01*
X111494286Y-100921286D01*
X111351429Y-101064143D01*
X111137143Y-101135571D01*
X110994286Y-101135571D01*
X112065714Y-99635571D02*
X112922857Y-99635571D01*
X112494286Y-101135571D02*
X112494286Y-99635571D01*
X113422857Y-101135571D02*
X113422857Y-99635571D01*
X113780000Y-99635571D01*
X113994285Y-99707000D01*
X114137143Y-99849857D01*
X114208571Y-99992714D01*
X114280000Y-100278429D01*
X114280000Y-100492714D01*
X114208571Y-100778429D01*
X114137143Y-100921286D01*
X113994285Y-101064143D01*
X113780000Y-101135571D01*
X113422857Y-101135571D01*
X114922857Y-101135571D02*
X114922857Y-99635571D01*
X111518143Y-102302571D02*
X111518143Y-103374000D01*
X111446715Y-103588286D01*
X111303858Y-103731143D01*
X111089572Y-103802571D01*
X110946715Y-103802571D01*
X112018143Y-102302571D02*
X112875286Y-102302571D01*
X112446715Y-103802571D02*
X112446715Y-102302571D01*
X113375286Y-103802571D02*
X113375286Y-102302571D01*
X113732429Y-102302571D01*
X113946714Y-102374000D01*
X114089572Y-102516857D01*
X114161000Y-102659714D01*
X114232429Y-102945429D01*
X114232429Y-103159714D01*
X114161000Y-103445429D01*
X114089572Y-103588286D01*
X113946714Y-103731143D01*
X113732429Y-103802571D01*
X113375286Y-103802571D01*
X115161000Y-102302571D02*
X115446714Y-102302571D01*
X115589572Y-102374000D01*
X115732429Y-102516857D01*
X115803857Y-102802571D01*
X115803857Y-103302571D01*
X115732429Y-103588286D01*
X115589572Y-103731143D01*
X115446714Y-103802571D01*
X115161000Y-103802571D01*
X115018143Y-103731143D01*
X114875286Y-103588286D01*
X114803857Y-103302571D01*
X114803857Y-102802571D01*
X114875286Y-102516857D01*
X115018143Y-102374000D01*
X115161000Y-102302571D01*
X111553857Y-104842571D02*
X111553857Y-105914000D01*
X111482429Y-106128286D01*
X111339572Y-106271143D01*
X111125286Y-106342571D01*
X110982429Y-106342571D01*
X112053857Y-104842571D02*
X112911000Y-104842571D01*
X112482429Y-106342571D02*
X112482429Y-104842571D01*
X114268143Y-106199714D02*
X114196714Y-106271143D01*
X113982428Y-106342571D01*
X113839571Y-106342571D01*
X113625286Y-106271143D01*
X113482428Y-106128286D01*
X113411000Y-105985429D01*
X113339571Y-105699714D01*
X113339571Y-105485429D01*
X113411000Y-105199714D01*
X113482428Y-105056857D01*
X113625286Y-104914000D01*
X113839571Y-104842571D01*
X113982428Y-104842571D01*
X114196714Y-104914000D01*
X114268143Y-104985429D01*
X114911000Y-106342571D02*
X114911000Y-104842571D01*
X115768143Y-106342571D02*
X115125286Y-105485429D01*
X115768143Y-104842571D02*
X114911000Y-105699714D01*
X111482429Y-107382571D02*
X111482429Y-108454000D01*
X111411001Y-108668286D01*
X111268144Y-108811143D01*
X111053858Y-108882571D01*
X110911001Y-108882571D01*
X111982429Y-107382571D02*
X112839572Y-107382571D01*
X112411001Y-108882571D02*
X112411001Y-107382571D01*
X113339572Y-108882571D02*
X113339572Y-107382571D01*
X113839572Y-108454000D01*
X114339572Y-107382571D01*
X114339572Y-108882571D01*
X114982429Y-108811143D02*
X115196715Y-108882571D01*
X115553858Y-108882571D01*
X115696715Y-108811143D01*
X115768144Y-108739714D01*
X115839572Y-108596857D01*
X115839572Y-108454000D01*
X115768144Y-108311143D01*
X115696715Y-108239714D01*
X115553858Y-108168286D01*
X115268144Y-108096857D01*
X115125286Y-108025429D01*
X115053858Y-107954000D01*
X114982429Y-107811143D01*
X114982429Y-107668286D01*
X115053858Y-107525429D01*
X115125286Y-107454000D01*
X115268144Y-107382571D01*
X115625286Y-107382571D01*
X115839572Y-107454000D01*
X111526143Y-110049571D02*
X111526143Y-111121000D01*
X111454715Y-111335286D01*
X111311858Y-111478143D01*
X111097572Y-111549571D01*
X110954715Y-111549571D01*
X112026143Y-110049571D02*
X112883286Y-110049571D01*
X112454715Y-111549571D02*
X112454715Y-110049571D01*
X114240429Y-111549571D02*
X113740429Y-110835286D01*
X113383286Y-111549571D02*
X113383286Y-110049571D01*
X113954714Y-110049571D01*
X114097572Y-110121000D01*
X114169000Y-110192429D01*
X114240429Y-110335286D01*
X114240429Y-110549571D01*
X114169000Y-110692429D01*
X114097572Y-110763857D01*
X113954714Y-110835286D01*
X113383286Y-110835286D01*
X114811857Y-111478143D02*
X115026143Y-111549571D01*
X115383286Y-111549571D01*
X115526143Y-111478143D01*
X115597572Y-111406714D01*
X115669000Y-111263857D01*
X115669000Y-111121000D01*
X115597572Y-110978143D01*
X115526143Y-110906714D01*
X115383286Y-110835286D01*
X115097572Y-110763857D01*
X114954714Y-110692429D01*
X114883286Y-110621000D01*
X114811857Y-110478143D01*
X114811857Y-110335286D01*
X114883286Y-110192429D01*
X114954714Y-110121000D01*
X115097572Y-110049571D01*
X115454714Y-110049571D01*
X115669000Y-110121000D01*
X116097571Y-110049571D02*
X116954714Y-110049571D01*
X116526143Y-111549571D02*
X116526143Y-110049571D01*
X14669143Y-160166857D02*
X14169143Y-160166857D01*
X14169143Y-160952571D02*
X14169143Y-159452571D01*
X14883429Y-159452571D01*
X16097714Y-159952571D02*
X16097714Y-160952571D01*
X15454857Y-159952571D02*
X15454857Y-160738286D01*
X15526285Y-160881143D01*
X15669143Y-160952571D01*
X15883428Y-160952571D01*
X16026285Y-160881143D01*
X16097714Y-160809714D01*
X17454857Y-160881143D02*
X17312000Y-160952571D01*
X17026286Y-160952571D01*
X16883428Y-160881143D01*
X16812000Y-160809714D01*
X16740571Y-160666857D01*
X16740571Y-160238286D01*
X16812000Y-160095429D01*
X16883428Y-160024000D01*
X17026286Y-159952571D01*
X17312000Y-159952571D01*
X17454857Y-160024000D01*
X18097714Y-160952571D02*
X18097714Y-159452571D01*
X18240571Y-160381143D02*
X18669142Y-160952571D01*
X18669142Y-159952571D02*
X18097714Y-160524000D01*
X21312000Y-160809714D02*
X21240571Y-160881143D01*
X21026285Y-160952571D01*
X20883428Y-160952571D01*
X20669143Y-160881143D01*
X20526285Y-160738286D01*
X20454857Y-160595429D01*
X20383428Y-160309714D01*
X20383428Y-160095429D01*
X20454857Y-159809714D01*
X20526285Y-159666857D01*
X20669143Y-159524000D01*
X20883428Y-159452571D01*
X21026285Y-159452571D01*
X21240571Y-159524000D01*
X21312000Y-159595429D01*
X21954857Y-160952571D02*
X21954857Y-159452571D01*
X22597714Y-160952571D02*
X22597714Y-160166857D01*
X22526285Y-160024000D01*
X22383428Y-159952571D01*
X22169143Y-159952571D01*
X22026285Y-160024000D01*
X21954857Y-160095429D01*
X23312000Y-160952571D02*
X23312000Y-159952571D01*
X23312000Y-160238286D02*
X23383428Y-160095429D01*
X23454857Y-160024000D01*
X23597714Y-159952571D01*
X23740571Y-159952571D01*
X24240571Y-160952571D02*
X24240571Y-159952571D01*
X24240571Y-159452571D02*
X24169142Y-159524000D01*
X24240571Y-159595429D01*
X24311999Y-159524000D01*
X24240571Y-159452571D01*
X24240571Y-159595429D01*
X24883428Y-160881143D02*
X25026285Y-160952571D01*
X25312000Y-160952571D01*
X25454857Y-160881143D01*
X25526285Y-160738286D01*
X25526285Y-160666857D01*
X25454857Y-160524000D01*
X25312000Y-160452571D01*
X25097714Y-160452571D01*
X24954857Y-160381143D01*
X24883428Y-160238286D01*
X24883428Y-160166857D01*
X24954857Y-160024000D01*
X25097714Y-159952571D01*
X25312000Y-159952571D01*
X25454857Y-160024000D01*
X133266571Y-139277714D02*
X131766571Y-139277714D01*
X131766571Y-138920571D01*
X131838000Y-138706286D01*
X131980857Y-138563428D01*
X132123714Y-138492000D01*
X132409429Y-138420571D01*
X132623714Y-138420571D01*
X132909429Y-138492000D01*
X133052286Y-138563428D01*
X133195143Y-138706286D01*
X133266571Y-138920571D01*
X133266571Y-139277714D01*
X133195143Y-137206286D02*
X133266571Y-137349143D01*
X133266571Y-137634857D01*
X133195143Y-137777714D01*
X133052286Y-137849143D01*
X132480857Y-137849143D01*
X132338000Y-137777714D01*
X132266571Y-137634857D01*
X132266571Y-137349143D01*
X132338000Y-137206286D01*
X132480857Y-137134857D01*
X132623714Y-137134857D01*
X132766571Y-137849143D01*
X133195143Y-136563429D02*
X133266571Y-136420572D01*
X133266571Y-136134857D01*
X133195143Y-135992000D01*
X133052286Y-135920572D01*
X132980857Y-135920572D01*
X132838000Y-135992000D01*
X132766571Y-136134857D01*
X132766571Y-136349143D01*
X132695143Y-136492000D01*
X132552286Y-136563429D01*
X132480857Y-136563429D01*
X132338000Y-136492000D01*
X132266571Y-136349143D01*
X132266571Y-136134857D01*
X132338000Y-135992000D01*
X133266571Y-135277714D02*
X132266571Y-135277714D01*
X131766571Y-135277714D02*
X131838000Y-135349143D01*
X131909429Y-135277714D01*
X131838000Y-135206286D01*
X131766571Y-135277714D01*
X131909429Y-135277714D01*
X132266571Y-133920571D02*
X133480857Y-133920571D01*
X133623714Y-133992000D01*
X133695143Y-134063428D01*
X133766571Y-134206285D01*
X133766571Y-134420571D01*
X133695143Y-134563428D01*
X133195143Y-133920571D02*
X133266571Y-134063428D01*
X133266571Y-134349142D01*
X133195143Y-134492000D01*
X133123714Y-134563428D01*
X132980857Y-134634857D01*
X132552286Y-134634857D01*
X132409429Y-134563428D01*
X132338000Y-134492000D01*
X132266571Y-134349142D01*
X132266571Y-134063428D01*
X132338000Y-133920571D01*
X132266571Y-133206285D02*
X133266571Y-133206285D01*
X132409429Y-133206285D02*
X132338000Y-133134857D01*
X132266571Y-132991999D01*
X132266571Y-132777714D01*
X132338000Y-132634857D01*
X132480857Y-132563428D01*
X133266571Y-132563428D01*
X133266571Y-130706285D02*
X131766571Y-130706285D01*
X132338000Y-130706285D02*
X132266571Y-130563428D01*
X132266571Y-130277714D01*
X132338000Y-130134857D01*
X132409429Y-130063428D01*
X132552286Y-129991999D01*
X132980857Y-129991999D01*
X133123714Y-130063428D01*
X133195143Y-130134857D01*
X133266571Y-130277714D01*
X133266571Y-130563428D01*
X133195143Y-130706285D01*
X132266571Y-129491999D02*
X133266571Y-129134856D01*
X132266571Y-128777714D02*
X133266571Y-129134856D01*
X133623714Y-129277714D01*
X133695143Y-129349142D01*
X133766571Y-129491999D01*
X133266571Y-127063428D02*
X131766571Y-127063428D01*
X131766571Y-126706285D01*
X131838000Y-126492000D01*
X131980857Y-126349142D01*
X132123714Y-126277714D01*
X132409429Y-126206285D01*
X132623714Y-126206285D01*
X132909429Y-126277714D01*
X133052286Y-126349142D01*
X133195143Y-126492000D01*
X133266571Y-126706285D01*
X133266571Y-127063428D01*
X133266571Y-124920571D02*
X132480857Y-124920571D01*
X132338000Y-124992000D01*
X132266571Y-125134857D01*
X132266571Y-125420571D01*
X132338000Y-125563428D01*
X133195143Y-124920571D02*
X133266571Y-125063428D01*
X133266571Y-125420571D01*
X133195143Y-125563428D01*
X133052286Y-125634857D01*
X132909429Y-125634857D01*
X132766571Y-125563428D01*
X132695143Y-125420571D01*
X132695143Y-125063428D01*
X132623714Y-124920571D01*
X132266571Y-124349142D02*
X133266571Y-123991999D01*
X132266571Y-123634857D01*
X133266571Y-123063428D02*
X132266571Y-123063428D01*
X131766571Y-123063428D02*
X131838000Y-123134857D01*
X131909429Y-123063428D01*
X131838000Y-122992000D01*
X131766571Y-123063428D01*
X131909429Y-123063428D01*
X133266571Y-121706285D02*
X131766571Y-121706285D01*
X133195143Y-121706285D02*
X133266571Y-121849142D01*
X133266571Y-122134856D01*
X133195143Y-122277714D01*
X133123714Y-122349142D01*
X132980857Y-122420571D01*
X132552286Y-122420571D01*
X132409429Y-122349142D01*
X132338000Y-122277714D01*
X132266571Y-122134856D01*
X132266571Y-121849142D01*
X132338000Y-121706285D01*
X132480857Y-119349142D02*
X132480857Y-119849142D01*
X133266571Y-119849142D02*
X131766571Y-119849142D01*
X131766571Y-119134856D01*
X133195143Y-117992000D02*
X133266571Y-118134857D01*
X133266571Y-118420571D01*
X133195143Y-118563428D01*
X133052286Y-118634857D01*
X132480857Y-118634857D01*
X132338000Y-118563428D01*
X132266571Y-118420571D01*
X132266571Y-118134857D01*
X132338000Y-117992000D01*
X132480857Y-117920571D01*
X132623714Y-117920571D01*
X132766571Y-118634857D01*
X133266571Y-117277714D02*
X132266571Y-117277714D01*
X132552286Y-117277714D02*
X132409429Y-117206286D01*
X132338000Y-117134857D01*
X132266571Y-116992000D01*
X132266571Y-116849143D01*
X132266571Y-116349143D02*
X133266571Y-116349143D01*
X132409429Y-116349143D02*
X132338000Y-116277715D01*
X132266571Y-116134857D01*
X132266571Y-115920572D01*
X132338000Y-115777715D01*
X132480857Y-115706286D01*
X133266571Y-115706286D01*
X133266571Y-114992000D02*
X132266571Y-114992000D01*
X131766571Y-114992000D02*
X131838000Y-115063429D01*
X131909429Y-114992000D01*
X131838000Y-114920572D01*
X131766571Y-114992000D01*
X131909429Y-114992000D01*
X133195143Y-113706286D02*
X133266571Y-113849143D01*
X133266571Y-114134857D01*
X133195143Y-114277714D01*
X133052286Y-114349143D01*
X132480857Y-114349143D01*
X132338000Y-114277714D01*
X132266571Y-114134857D01*
X132266571Y-113849143D01*
X132338000Y-113706286D01*
X132480857Y-113634857D01*
X132623714Y-113634857D01*
X132766571Y-114349143D01*
X111807572Y-97706571D02*
X110950429Y-97706571D01*
X111379001Y-97706571D02*
X111379001Y-96206571D01*
X111236144Y-96420857D01*
X111093286Y-96563714D01*
X110950429Y-96635143D01*
X101274572Y-95952571D02*
X101417429Y-95952571D01*
X101560286Y-96024000D01*
X101631715Y-96095429D01*
X101703144Y-96238286D01*
X101774572Y-96524000D01*
X101774572Y-96881143D01*
X101703144Y-97166857D01*
X101631715Y-97309714D01*
X101560286Y-97381143D01*
X101417429Y-97452571D01*
X101274572Y-97452571D01*
X101131715Y-97381143D01*
X101060286Y-97309714D01*
X100988858Y-97166857D01*
X100917429Y-96881143D01*
X100917429Y-96524000D01*
X100988858Y-96238286D01*
X101060286Y-96095429D01*
X101131715Y-96024000D01*
X101274572Y-95952571D01*
X109938715Y-78529571D02*
X109938715Y-77029571D01*
X110510143Y-77029571D01*
X110653001Y-77101000D01*
X110724429Y-77172429D01*
X110795858Y-77315286D01*
X110795858Y-77529571D01*
X110724429Y-77672429D01*
X110653001Y-77743857D01*
X110510143Y-77815286D01*
X109938715Y-77815286D01*
X111438715Y-78529571D02*
X111438715Y-77529571D01*
X111438715Y-77815286D02*
X111510143Y-77672429D01*
X111581572Y-77601000D01*
X111724429Y-77529571D01*
X111867286Y-77529571D01*
X112581572Y-78529571D02*
X112438714Y-78458143D01*
X112367286Y-78386714D01*
X112295857Y-78243857D01*
X112295857Y-77815286D01*
X112367286Y-77672429D01*
X112438714Y-77601000D01*
X112581572Y-77529571D01*
X112795857Y-77529571D01*
X112938714Y-77601000D01*
X113010143Y-77672429D01*
X113081572Y-77815286D01*
X113081572Y-78243857D01*
X113010143Y-78386714D01*
X112938714Y-78458143D01*
X112795857Y-78529571D01*
X112581572Y-78529571D01*
X114367286Y-77529571D02*
X114367286Y-78743857D01*
X114295857Y-78886714D01*
X114224429Y-78958143D01*
X114081572Y-79029571D01*
X113867286Y-79029571D01*
X113724429Y-78958143D01*
X114367286Y-78458143D02*
X114224429Y-78529571D01*
X113938715Y-78529571D01*
X113795857Y-78458143D01*
X113724429Y-78386714D01*
X113653000Y-78243857D01*
X113653000Y-77815286D01*
X113724429Y-77672429D01*
X113795857Y-77601000D01*
X113938715Y-77529571D01*
X114224429Y-77529571D01*
X114367286Y-77601000D01*
X115938715Y-78386714D02*
X115867286Y-78458143D01*
X115653000Y-78529571D01*
X115510143Y-78529571D01*
X115295858Y-78458143D01*
X115153000Y-78315286D01*
X115081572Y-78172429D01*
X115010143Y-77886714D01*
X115010143Y-77672429D01*
X115081572Y-77386714D01*
X115153000Y-77243857D01*
X115295858Y-77101000D01*
X115510143Y-77029571D01*
X115653000Y-77029571D01*
X115867286Y-77101000D01*
X115938715Y-77172429D01*
X110938572Y-88816571D02*
X110438572Y-88102286D01*
X110081429Y-88816571D02*
X110081429Y-87316571D01*
X110652857Y-87316571D01*
X110795715Y-87388000D01*
X110867143Y-87459429D01*
X110938572Y-87602286D01*
X110938572Y-87816571D01*
X110867143Y-87959429D01*
X110795715Y-88030857D01*
X110652857Y-88102286D01*
X110081429Y-88102286D01*
X111510000Y-88745143D02*
X111724286Y-88816571D01*
X112081429Y-88816571D01*
X112224286Y-88745143D01*
X112295715Y-88673714D01*
X112367143Y-88530857D01*
X112367143Y-88388000D01*
X112295715Y-88245143D01*
X112224286Y-88173714D01*
X112081429Y-88102286D01*
X111795715Y-88030857D01*
X111652857Y-87959429D01*
X111581429Y-87888000D01*
X111510000Y-87745143D01*
X111510000Y-87602286D01*
X111581429Y-87459429D01*
X111652857Y-87388000D01*
X111795715Y-87316571D01*
X112152857Y-87316571D01*
X112367143Y-87388000D01*
X112795714Y-87316571D02*
X113652857Y-87316571D01*
X113224286Y-88816571D02*
X113224286Y-87316571D01*
X79363429Y-67357571D02*
X79292000Y-67286142D01*
X79220571Y-67143285D01*
X79220571Y-66786142D01*
X79292000Y-66643285D01*
X79363429Y-66571856D01*
X79506286Y-66500428D01*
X79649143Y-66500428D01*
X79863429Y-66571856D01*
X80720571Y-67428999D01*
X80720571Y-66500428D01*
X82270571Y-66643285D02*
X83270571Y-66643285D01*
X81699143Y-67000428D02*
X82770571Y-67357571D01*
X82770571Y-66428999D01*
X84320571Y-66643285D02*
X84320571Y-66928999D01*
X84392000Y-67071856D01*
X84463429Y-67143285D01*
X84677714Y-67286142D01*
X84963429Y-67357571D01*
X85534857Y-67357571D01*
X85677714Y-67286142D01*
X85749143Y-67214714D01*
X85820571Y-67071856D01*
X85820571Y-66786142D01*
X85749143Y-66643285D01*
X85677714Y-66571856D01*
X85534857Y-66500428D01*
X85177714Y-66500428D01*
X85034857Y-66571856D01*
X84963429Y-66643285D01*
X84892000Y-66786142D01*
X84892000Y-67071856D01*
X84963429Y-67214714D01*
X85034857Y-67286142D01*
X85177714Y-67357571D01*
X87513429Y-67071856D02*
X87442000Y-67214714D01*
X87370571Y-67286142D01*
X87227714Y-67357571D01*
X87156286Y-67357571D01*
X87013429Y-67286142D01*
X86942000Y-67214714D01*
X86870571Y-67071856D01*
X86870571Y-66786142D01*
X86942000Y-66643285D01*
X87013429Y-66571856D01*
X87156286Y-66500428D01*
X87227714Y-66500428D01*
X87370571Y-66571856D01*
X87442000Y-66643285D01*
X87513429Y-66786142D01*
X87513429Y-67071856D01*
X87584857Y-67214714D01*
X87656286Y-67286142D01*
X87799143Y-67357571D01*
X88084857Y-67357571D01*
X88227714Y-67286142D01*
X88299143Y-67214714D01*
X88370571Y-67071856D01*
X88370571Y-66786142D01*
X88299143Y-66643285D01*
X88227714Y-66571856D01*
X88084857Y-66500428D01*
X87799143Y-66500428D01*
X87656286Y-66571856D01*
X87584857Y-66643285D01*
X87513429Y-66786142D01*
X90920571Y-67214714D02*
X90920571Y-68071857D01*
X90920571Y-67643285D02*
X89420571Y-67643285D01*
X89634857Y-67786142D01*
X89777714Y-67929000D01*
X89849143Y-68071857D01*
X89420571Y-66286143D02*
X89420571Y-66143286D01*
X89492000Y-66000429D01*
X89563429Y-65929000D01*
X89706286Y-65857571D01*
X89992000Y-65786143D01*
X90349143Y-65786143D01*
X90634857Y-65857571D01*
X90777714Y-65929000D01*
X90849143Y-66000429D01*
X90920571Y-66143286D01*
X90920571Y-66286143D01*
X90849143Y-66429000D01*
X90777714Y-66500429D01*
X90634857Y-66571857D01*
X90349143Y-66643286D01*
X89992000Y-66643286D01*
X89706286Y-66571857D01*
X89563429Y-66500429D01*
X89492000Y-66429000D01*
X89420571Y-66286143D01*
X93470571Y-67214714D02*
X93470571Y-68071857D01*
X93470571Y-67643285D02*
X91970571Y-67643285D01*
X92184857Y-67786142D01*
X92327714Y-67929000D01*
X92399143Y-68071857D01*
X92113429Y-66643286D02*
X92042000Y-66571857D01*
X91970571Y-66429000D01*
X91970571Y-66071857D01*
X92042000Y-65929000D01*
X92113429Y-65857571D01*
X92256286Y-65786143D01*
X92399143Y-65786143D01*
X92613429Y-65857571D01*
X93470571Y-66714714D01*
X93470571Y-65786143D01*
X96020571Y-67214714D02*
X96020571Y-68071857D01*
X96020571Y-67643285D02*
X94520571Y-67643285D01*
X94734857Y-67786142D01*
X94877714Y-67929000D01*
X94949143Y-68071857D01*
X95020571Y-65929000D02*
X96020571Y-65929000D01*
X94449143Y-66286143D02*
X95520571Y-66643286D01*
X95520571Y-65714714D01*
X98570571Y-67214714D02*
X98570571Y-68071857D01*
X98570571Y-67643285D02*
X97070571Y-67643285D01*
X97284857Y-67786142D01*
X97427714Y-67929000D01*
X97499143Y-68071857D01*
X97070571Y-65929000D02*
X97070571Y-66214714D01*
X97142000Y-66357571D01*
X97213429Y-66429000D01*
X97427714Y-66571857D01*
X97713429Y-66643286D01*
X98284857Y-66643286D01*
X98427714Y-66571857D01*
X98499143Y-66500429D01*
X98570571Y-66357571D01*
X98570571Y-66071857D01*
X98499143Y-65929000D01*
X98427714Y-65857571D01*
X98284857Y-65786143D01*
X97927714Y-65786143D01*
X97784857Y-65857571D01*
X97713429Y-65929000D01*
X97642000Y-66071857D01*
X97642000Y-66357571D01*
X97713429Y-66500429D01*
X97784857Y-66571857D01*
X97927714Y-66643286D01*
X101120571Y-67214714D02*
X101120571Y-68071857D01*
X101120571Y-67643285D02*
X99620571Y-67643285D01*
X99834857Y-67786142D01*
X99977714Y-67929000D01*
X100049143Y-68071857D01*
X100263429Y-66357571D02*
X100192000Y-66500429D01*
X100120571Y-66571857D01*
X99977714Y-66643286D01*
X99906286Y-66643286D01*
X99763429Y-66571857D01*
X99692000Y-66500429D01*
X99620571Y-66357571D01*
X99620571Y-66071857D01*
X99692000Y-65929000D01*
X99763429Y-65857571D01*
X99906286Y-65786143D01*
X99977714Y-65786143D01*
X100120571Y-65857571D01*
X100192000Y-65929000D01*
X100263429Y-66071857D01*
X100263429Y-66357571D01*
X100334857Y-66500429D01*
X100406286Y-66571857D01*
X100549143Y-66643286D01*
X100834857Y-66643286D01*
X100977714Y-66571857D01*
X101049143Y-66500429D01*
X101120571Y-66357571D01*
X101120571Y-66071857D01*
X101049143Y-65929000D01*
X100977714Y-65857571D01*
X100834857Y-65786143D01*
X100549143Y-65786143D01*
X100406286Y-65857571D01*
X100334857Y-65929000D01*
X100263429Y-66071857D01*
X102313429Y-68071857D02*
X102242000Y-68000428D01*
X102170571Y-67857571D01*
X102170571Y-67500428D01*
X102242000Y-67357571D01*
X102313429Y-67286142D01*
X102456286Y-67214714D01*
X102599143Y-67214714D01*
X102813429Y-67286142D01*
X103670571Y-68143285D01*
X103670571Y-67214714D01*
X102170571Y-66286143D02*
X102170571Y-66143286D01*
X102242000Y-66000429D01*
X102313429Y-65929000D01*
X102456286Y-65857571D01*
X102742000Y-65786143D01*
X103099143Y-65786143D01*
X103384857Y-65857571D01*
X103527714Y-65929000D01*
X103599143Y-66000429D01*
X103670571Y-66143286D01*
X103670571Y-66286143D01*
X103599143Y-66429000D01*
X103527714Y-66500429D01*
X103384857Y-66571857D01*
X103099143Y-66643286D01*
X102742000Y-66643286D01*
X102456286Y-66571857D01*
X102313429Y-66500429D01*
X102242000Y-66429000D01*
X102170571Y-66286143D01*
X104863429Y-68071857D02*
X104792000Y-68000428D01*
X104720571Y-67857571D01*
X104720571Y-67500428D01*
X104792000Y-67357571D01*
X104863429Y-67286142D01*
X105006286Y-67214714D01*
X105149143Y-67214714D01*
X105363429Y-67286142D01*
X106220571Y-68143285D01*
X106220571Y-67214714D01*
X104863429Y-66643286D02*
X104792000Y-66571857D01*
X104720571Y-66429000D01*
X104720571Y-66071857D01*
X104792000Y-65929000D01*
X104863429Y-65857571D01*
X105006286Y-65786143D01*
X105149143Y-65786143D01*
X105363429Y-65857571D01*
X106220571Y-66714714D01*
X106220571Y-65786143D01*
X107413429Y-68071857D02*
X107342000Y-68000428D01*
X107270571Y-67857571D01*
X107270571Y-67500428D01*
X107342000Y-67357571D01*
X107413429Y-67286142D01*
X107556286Y-67214714D01*
X107699143Y-67214714D01*
X107913429Y-67286142D01*
X108770571Y-68143285D01*
X108770571Y-67214714D01*
X107770571Y-65929000D02*
X108770571Y-65929000D01*
X107199143Y-66286143D02*
X108270571Y-66643286D01*
X108270571Y-65714714D01*
X109963429Y-68071857D02*
X109892000Y-68000428D01*
X109820571Y-67857571D01*
X109820571Y-67500428D01*
X109892000Y-67357571D01*
X109963429Y-67286142D01*
X110106286Y-67214714D01*
X110249143Y-67214714D01*
X110463429Y-67286142D01*
X111320571Y-68143285D01*
X111320571Y-67214714D01*
X109820571Y-65929000D02*
X109820571Y-66214714D01*
X109892000Y-66357571D01*
X109963429Y-66429000D01*
X110177714Y-66571857D01*
X110463429Y-66643286D01*
X111034857Y-66643286D01*
X111177714Y-66571857D01*
X111249143Y-66500429D01*
X111320571Y-66357571D01*
X111320571Y-66071857D01*
X111249143Y-65929000D01*
X111177714Y-65857571D01*
X111034857Y-65786143D01*
X110677714Y-65786143D01*
X110534857Y-65857571D01*
X110463429Y-65929000D01*
X110392000Y-66071857D01*
X110392000Y-66357571D01*
X110463429Y-66500429D01*
X110534857Y-66571857D01*
X110677714Y-66643286D01*
X112513429Y-68071857D02*
X112442000Y-68000428D01*
X112370571Y-67857571D01*
X112370571Y-67500428D01*
X112442000Y-67357571D01*
X112513429Y-67286142D01*
X112656286Y-67214714D01*
X112799143Y-67214714D01*
X113013429Y-67286142D01*
X113870571Y-68143285D01*
X113870571Y-67214714D01*
X113013429Y-66357571D02*
X112942000Y-66500429D01*
X112870571Y-66571857D01*
X112727714Y-66643286D01*
X112656286Y-66643286D01*
X112513429Y-66571857D01*
X112442000Y-66500429D01*
X112370571Y-66357571D01*
X112370571Y-66071857D01*
X112442000Y-65929000D01*
X112513429Y-65857571D01*
X112656286Y-65786143D01*
X112727714Y-65786143D01*
X112870571Y-65857571D01*
X112942000Y-65929000D01*
X113013429Y-66071857D01*
X113013429Y-66357571D01*
X113084857Y-66500429D01*
X113156286Y-66571857D01*
X113299143Y-66643286D01*
X113584857Y-66643286D01*
X113727714Y-66571857D01*
X113799143Y-66500429D01*
X113870571Y-66357571D01*
X113870571Y-66071857D01*
X113799143Y-65929000D01*
X113727714Y-65857571D01*
X113584857Y-65786143D01*
X113299143Y-65786143D01*
X113156286Y-65857571D01*
X113084857Y-65929000D01*
X113013429Y-66071857D01*
X114920571Y-68143285D02*
X114920571Y-67214714D01*
X115492000Y-67714714D01*
X115492000Y-67500428D01*
X115563429Y-67357571D01*
X115634857Y-67286142D01*
X115777714Y-67214714D01*
X116134857Y-67214714D01*
X116277714Y-67286142D01*
X116349143Y-67357571D01*
X116420571Y-67500428D01*
X116420571Y-67929000D01*
X116349143Y-68071857D01*
X116277714Y-68143285D01*
X114920571Y-66286143D02*
X114920571Y-66143286D01*
X114992000Y-66000429D01*
X115063429Y-65929000D01*
X115206286Y-65857571D01*
X115492000Y-65786143D01*
X115849143Y-65786143D01*
X116134857Y-65857571D01*
X116277714Y-65929000D01*
X116349143Y-66000429D01*
X116420571Y-66143286D01*
X116420571Y-66286143D01*
X116349143Y-66429000D01*
X116277714Y-66500429D01*
X116134857Y-66571857D01*
X115849143Y-66643286D01*
X115492000Y-66643286D01*
X115206286Y-66571857D01*
X115063429Y-66500429D01*
X114992000Y-66429000D01*
X114920571Y-66286143D01*
X117470571Y-68143285D02*
X117470571Y-67214714D01*
X118042000Y-67714714D01*
X118042000Y-67500428D01*
X118113429Y-67357571D01*
X118184857Y-67286142D01*
X118327714Y-67214714D01*
X118684857Y-67214714D01*
X118827714Y-67286142D01*
X118899143Y-67357571D01*
X118970571Y-67500428D01*
X118970571Y-67929000D01*
X118899143Y-68071857D01*
X118827714Y-68143285D01*
X117613429Y-66643286D02*
X117542000Y-66571857D01*
X117470571Y-66429000D01*
X117470571Y-66071857D01*
X117542000Y-65929000D01*
X117613429Y-65857571D01*
X117756286Y-65786143D01*
X117899143Y-65786143D01*
X118113429Y-65857571D01*
X118970571Y-66714714D01*
X118970571Y-65786143D01*
X120020571Y-68143285D02*
X120020571Y-67214714D01*
X120592000Y-67714714D01*
X120592000Y-67500428D01*
X120663429Y-67357571D01*
X120734857Y-67286142D01*
X120877714Y-67214714D01*
X121234857Y-67214714D01*
X121377714Y-67286142D01*
X121449143Y-67357571D01*
X121520571Y-67500428D01*
X121520571Y-67929000D01*
X121449143Y-68071857D01*
X121377714Y-68143285D01*
X120520571Y-65929000D02*
X121520571Y-65929000D01*
X119949143Y-66286143D02*
X121020571Y-66643286D01*
X121020571Y-65714714D01*
X122570571Y-68143285D02*
X122570571Y-67214714D01*
X123142000Y-67714714D01*
X123142000Y-67500428D01*
X123213429Y-67357571D01*
X123284857Y-67286142D01*
X123427714Y-67214714D01*
X123784857Y-67214714D01*
X123927714Y-67286142D01*
X123999143Y-67357571D01*
X124070571Y-67500428D01*
X124070571Y-67929000D01*
X123999143Y-68071857D01*
X123927714Y-68143285D01*
X122570571Y-65929000D02*
X122570571Y-66214714D01*
X122642000Y-66357571D01*
X122713429Y-66429000D01*
X122927714Y-66571857D01*
X123213429Y-66643286D01*
X123784857Y-66643286D01*
X123927714Y-66571857D01*
X123999143Y-66500429D01*
X124070571Y-66357571D01*
X124070571Y-66071857D01*
X123999143Y-65929000D01*
X123927714Y-65857571D01*
X123784857Y-65786143D01*
X123427714Y-65786143D01*
X123284857Y-65857571D01*
X123213429Y-65929000D01*
X123142000Y-66071857D01*
X123142000Y-66357571D01*
X123213429Y-66500429D01*
X123284857Y-66571857D01*
X123427714Y-66643286D01*
X125120571Y-68143285D02*
X125120571Y-67214714D01*
X125692000Y-67714714D01*
X125692000Y-67500428D01*
X125763429Y-67357571D01*
X125834857Y-67286142D01*
X125977714Y-67214714D01*
X126334857Y-67214714D01*
X126477714Y-67286142D01*
X126549143Y-67357571D01*
X126620571Y-67500428D01*
X126620571Y-67929000D01*
X126549143Y-68071857D01*
X126477714Y-68143285D01*
X125763429Y-66357571D02*
X125692000Y-66500429D01*
X125620571Y-66571857D01*
X125477714Y-66643286D01*
X125406286Y-66643286D01*
X125263429Y-66571857D01*
X125192000Y-66500429D01*
X125120571Y-66357571D01*
X125120571Y-66071857D01*
X125192000Y-65929000D01*
X125263429Y-65857571D01*
X125406286Y-65786143D01*
X125477714Y-65786143D01*
X125620571Y-65857571D01*
X125692000Y-65929000D01*
X125763429Y-66071857D01*
X125763429Y-66357571D01*
X125834857Y-66500429D01*
X125906286Y-66571857D01*
X126049143Y-66643286D01*
X126334857Y-66643286D01*
X126477714Y-66571857D01*
X126549143Y-66500429D01*
X126620571Y-66357571D01*
X126620571Y-66071857D01*
X126549143Y-65929000D01*
X126477714Y-65857571D01*
X126334857Y-65786143D01*
X126049143Y-65786143D01*
X125906286Y-65857571D01*
X125834857Y-65929000D01*
X125763429Y-66071857D01*
X128170571Y-67357571D02*
X129170571Y-67357571D01*
X127599143Y-67714714D02*
X128670571Y-68071857D01*
X128670571Y-67143285D01*
X127670571Y-66286143D02*
X127670571Y-66143286D01*
X127742000Y-66000429D01*
X127813429Y-65929000D01*
X127956286Y-65857571D01*
X128242000Y-65786143D01*
X128599143Y-65786143D01*
X128884857Y-65857571D01*
X129027714Y-65929000D01*
X129099143Y-66000429D01*
X129170571Y-66143286D01*
X129170571Y-66286143D01*
X129099143Y-66429000D01*
X129027714Y-66500429D01*
X128884857Y-66571857D01*
X128599143Y-66643286D01*
X128242000Y-66643286D01*
X127956286Y-66571857D01*
X127813429Y-66500429D01*
X127742000Y-66429000D01*
X127670571Y-66286143D01*
X80720571Y-17859428D02*
X80720571Y-18716571D01*
X80720571Y-18287999D02*
X79220571Y-18287999D01*
X79434857Y-18430856D01*
X79577714Y-18573714D01*
X79649143Y-18716571D01*
X81770571Y-18787999D02*
X81770571Y-17859428D01*
X82342000Y-18359428D01*
X82342000Y-18145142D01*
X82413429Y-18002285D01*
X82484857Y-17930856D01*
X82627714Y-17859428D01*
X82984857Y-17859428D01*
X83127714Y-17930856D01*
X83199143Y-18002285D01*
X83270571Y-18145142D01*
X83270571Y-18573714D01*
X83199143Y-18716571D01*
X83127714Y-18787999D01*
X84320571Y-17930856D02*
X84320571Y-18645142D01*
X85034857Y-18716571D01*
X84963429Y-18645142D01*
X84892000Y-18502285D01*
X84892000Y-18145142D01*
X84963429Y-18002285D01*
X85034857Y-17930856D01*
X85177714Y-17859428D01*
X85534857Y-17859428D01*
X85677714Y-17930856D01*
X85749143Y-18002285D01*
X85820571Y-18145142D01*
X85820571Y-18502285D01*
X85749143Y-18645142D01*
X85677714Y-18716571D01*
X86870571Y-18787999D02*
X86870571Y-17787999D01*
X88370571Y-18430856D01*
X90920571Y-18573714D02*
X90920571Y-18287999D01*
X90849143Y-18145142D01*
X90777714Y-18073714D01*
X90563429Y-17930856D01*
X90277714Y-17859428D01*
X89706286Y-17859428D01*
X89563429Y-17930856D01*
X89492000Y-18002285D01*
X89420571Y-18145142D01*
X89420571Y-18430856D01*
X89492000Y-18573714D01*
X89563429Y-18645142D01*
X89706286Y-18716571D01*
X90063429Y-18716571D01*
X90206286Y-18645142D01*
X90277714Y-18573714D01*
X90349143Y-18430856D01*
X90349143Y-18145142D01*
X90277714Y-18002285D01*
X90206286Y-17930856D01*
X90063429Y-17859428D01*
X93470571Y-18573714D02*
X93470571Y-19430857D01*
X93470571Y-19002285D02*
X91970571Y-19002285D01*
X92184857Y-19145142D01*
X92327714Y-19288000D01*
X92399143Y-19430857D01*
X93470571Y-17145143D02*
X93470571Y-18002286D01*
X93470571Y-17573714D02*
X91970571Y-17573714D01*
X92184857Y-17716571D01*
X92327714Y-17859429D01*
X92399143Y-18002286D01*
X96020571Y-18573714D02*
X96020571Y-19430857D01*
X96020571Y-19002285D02*
X94520571Y-19002285D01*
X94734857Y-19145142D01*
X94877714Y-19288000D01*
X94949143Y-19430857D01*
X94520571Y-18073714D02*
X94520571Y-17145143D01*
X95092000Y-17645143D01*
X95092000Y-17430857D01*
X95163429Y-17288000D01*
X95234857Y-17216571D01*
X95377714Y-17145143D01*
X95734857Y-17145143D01*
X95877714Y-17216571D01*
X95949143Y-17288000D01*
X96020571Y-17430857D01*
X96020571Y-17859429D01*
X95949143Y-18002286D01*
X95877714Y-18073714D01*
X98570571Y-18573714D02*
X98570571Y-19430857D01*
X98570571Y-19002285D02*
X97070571Y-19002285D01*
X97284857Y-19145142D01*
X97427714Y-19288000D01*
X97499143Y-19430857D01*
X97070571Y-17216571D02*
X97070571Y-17930857D01*
X97784857Y-18002286D01*
X97713429Y-17930857D01*
X97642000Y-17788000D01*
X97642000Y-17430857D01*
X97713429Y-17288000D01*
X97784857Y-17216571D01*
X97927714Y-17145143D01*
X98284857Y-17145143D01*
X98427714Y-17216571D01*
X98499143Y-17288000D01*
X98570571Y-17430857D01*
X98570571Y-17788000D01*
X98499143Y-17930857D01*
X98427714Y-18002286D01*
X101120571Y-18573714D02*
X101120571Y-19430857D01*
X101120571Y-19002285D02*
X99620571Y-19002285D01*
X99834857Y-19145142D01*
X99977714Y-19288000D01*
X100049143Y-19430857D01*
X99620571Y-18073714D02*
X99620571Y-17073714D01*
X101120571Y-17716571D01*
X103670571Y-18573714D02*
X103670571Y-19430857D01*
X103670571Y-19002285D02*
X102170571Y-19002285D01*
X102384857Y-19145142D01*
X102527714Y-19288000D01*
X102599143Y-19430857D01*
X103670571Y-17859429D02*
X103670571Y-17573714D01*
X103599143Y-17430857D01*
X103527714Y-17359429D01*
X103313429Y-17216571D01*
X103027714Y-17145143D01*
X102456286Y-17145143D01*
X102313429Y-17216571D01*
X102242000Y-17288000D01*
X102170571Y-17430857D01*
X102170571Y-17716571D01*
X102242000Y-17859429D01*
X102313429Y-17930857D01*
X102456286Y-18002286D01*
X102813429Y-18002286D01*
X102956286Y-17930857D01*
X103027714Y-17859429D01*
X103099143Y-17716571D01*
X103099143Y-17430857D01*
X103027714Y-17288000D01*
X102956286Y-17216571D01*
X102813429Y-17145143D01*
X104863429Y-19430857D02*
X104792000Y-19359428D01*
X104720571Y-19216571D01*
X104720571Y-18859428D01*
X104792000Y-18716571D01*
X104863429Y-18645142D01*
X105006286Y-18573714D01*
X105149143Y-18573714D01*
X105363429Y-18645142D01*
X106220571Y-19502285D01*
X106220571Y-18573714D01*
X106220571Y-17145143D02*
X106220571Y-18002286D01*
X106220571Y-17573714D02*
X104720571Y-17573714D01*
X104934857Y-17716571D01*
X105077714Y-17859429D01*
X105149143Y-18002286D01*
X107413429Y-19430857D02*
X107342000Y-19359428D01*
X107270571Y-19216571D01*
X107270571Y-18859428D01*
X107342000Y-18716571D01*
X107413429Y-18645142D01*
X107556286Y-18573714D01*
X107699143Y-18573714D01*
X107913429Y-18645142D01*
X108770571Y-19502285D01*
X108770571Y-18573714D01*
X107270571Y-18073714D02*
X107270571Y-17145143D01*
X107842000Y-17645143D01*
X107842000Y-17430857D01*
X107913429Y-17288000D01*
X107984857Y-17216571D01*
X108127714Y-17145143D01*
X108484857Y-17145143D01*
X108627714Y-17216571D01*
X108699143Y-17288000D01*
X108770571Y-17430857D01*
X108770571Y-17859429D01*
X108699143Y-18002286D01*
X108627714Y-18073714D01*
X109963429Y-19430857D02*
X109892000Y-19359428D01*
X109820571Y-19216571D01*
X109820571Y-18859428D01*
X109892000Y-18716571D01*
X109963429Y-18645142D01*
X110106286Y-18573714D01*
X110249143Y-18573714D01*
X110463429Y-18645142D01*
X111320571Y-19502285D01*
X111320571Y-18573714D01*
X109820571Y-17216571D02*
X109820571Y-17930857D01*
X110534857Y-18002286D01*
X110463429Y-17930857D01*
X110392000Y-17788000D01*
X110392000Y-17430857D01*
X110463429Y-17288000D01*
X110534857Y-17216571D01*
X110677714Y-17145143D01*
X111034857Y-17145143D01*
X111177714Y-17216571D01*
X111249143Y-17288000D01*
X111320571Y-17430857D01*
X111320571Y-17788000D01*
X111249143Y-17930857D01*
X111177714Y-18002286D01*
X112513429Y-19430857D02*
X112442000Y-19359428D01*
X112370571Y-19216571D01*
X112370571Y-18859428D01*
X112442000Y-18716571D01*
X112513429Y-18645142D01*
X112656286Y-18573714D01*
X112799143Y-18573714D01*
X113013429Y-18645142D01*
X113870571Y-19502285D01*
X113870571Y-18573714D01*
X112370571Y-18073714D02*
X112370571Y-17073714D01*
X113870571Y-17716571D01*
X115063429Y-19430857D02*
X114992000Y-19359428D01*
X114920571Y-19216571D01*
X114920571Y-18859428D01*
X114992000Y-18716571D01*
X115063429Y-18645142D01*
X115206286Y-18573714D01*
X115349143Y-18573714D01*
X115563429Y-18645142D01*
X116420571Y-19502285D01*
X116420571Y-18573714D01*
X116420571Y-17859429D02*
X116420571Y-17573714D01*
X116349143Y-17430857D01*
X116277714Y-17359429D01*
X116063429Y-17216571D01*
X115777714Y-17145143D01*
X115206286Y-17145143D01*
X115063429Y-17216571D01*
X114992000Y-17288000D01*
X114920571Y-17430857D01*
X114920571Y-17716571D01*
X114992000Y-17859429D01*
X115063429Y-17930857D01*
X115206286Y-18002286D01*
X115563429Y-18002286D01*
X115706286Y-17930857D01*
X115777714Y-17859429D01*
X115849143Y-17716571D01*
X115849143Y-17430857D01*
X115777714Y-17288000D01*
X115706286Y-17216571D01*
X115563429Y-17145143D01*
X117470571Y-19502285D02*
X117470571Y-18573714D01*
X118042000Y-19073714D01*
X118042000Y-18859428D01*
X118113429Y-18716571D01*
X118184857Y-18645142D01*
X118327714Y-18573714D01*
X118684857Y-18573714D01*
X118827714Y-18645142D01*
X118899143Y-18716571D01*
X118970571Y-18859428D01*
X118970571Y-19288000D01*
X118899143Y-19430857D01*
X118827714Y-19502285D01*
X118970571Y-17145143D02*
X118970571Y-18002286D01*
X118970571Y-17573714D02*
X117470571Y-17573714D01*
X117684857Y-17716571D01*
X117827714Y-17859429D01*
X117899143Y-18002286D01*
X120020571Y-19502285D02*
X120020571Y-18573714D01*
X120592000Y-19073714D01*
X120592000Y-18859428D01*
X120663429Y-18716571D01*
X120734857Y-18645142D01*
X120877714Y-18573714D01*
X121234857Y-18573714D01*
X121377714Y-18645142D01*
X121449143Y-18716571D01*
X121520571Y-18859428D01*
X121520571Y-19288000D01*
X121449143Y-19430857D01*
X121377714Y-19502285D01*
X120020571Y-18073714D02*
X120020571Y-17145143D01*
X120592000Y-17645143D01*
X120592000Y-17430857D01*
X120663429Y-17288000D01*
X120734857Y-17216571D01*
X120877714Y-17145143D01*
X121234857Y-17145143D01*
X121377714Y-17216571D01*
X121449143Y-17288000D01*
X121520571Y-17430857D01*
X121520571Y-17859429D01*
X121449143Y-18002286D01*
X121377714Y-18073714D01*
X122570571Y-19502285D02*
X122570571Y-18573714D01*
X123142000Y-19073714D01*
X123142000Y-18859428D01*
X123213429Y-18716571D01*
X123284857Y-18645142D01*
X123427714Y-18573714D01*
X123784857Y-18573714D01*
X123927714Y-18645142D01*
X123999143Y-18716571D01*
X124070571Y-18859428D01*
X124070571Y-19288000D01*
X123999143Y-19430857D01*
X123927714Y-19502285D01*
X122570571Y-17216571D02*
X122570571Y-17930857D01*
X123284857Y-18002286D01*
X123213429Y-17930857D01*
X123142000Y-17788000D01*
X123142000Y-17430857D01*
X123213429Y-17288000D01*
X123284857Y-17216571D01*
X123427714Y-17145143D01*
X123784857Y-17145143D01*
X123927714Y-17216571D01*
X123999143Y-17288000D01*
X124070571Y-17430857D01*
X124070571Y-17788000D01*
X123999143Y-17930857D01*
X123927714Y-18002286D01*
X125120571Y-19502285D02*
X125120571Y-18573714D01*
X125692000Y-19073714D01*
X125692000Y-18859428D01*
X125763429Y-18716571D01*
X125834857Y-18645142D01*
X125977714Y-18573714D01*
X126334857Y-18573714D01*
X126477714Y-18645142D01*
X126549143Y-18716571D01*
X126620571Y-18859428D01*
X126620571Y-19288000D01*
X126549143Y-19430857D01*
X126477714Y-19502285D01*
X125120571Y-18073714D02*
X125120571Y-17073714D01*
X126620571Y-17716571D01*
X127670571Y-19502285D02*
X127670571Y-18573714D01*
X128242000Y-19073714D01*
X128242000Y-18859428D01*
X128313429Y-18716571D01*
X128384857Y-18645142D01*
X128527714Y-18573714D01*
X128884857Y-18573714D01*
X129027714Y-18645142D01*
X129099143Y-18716571D01*
X129170571Y-18859428D01*
X129170571Y-19288000D01*
X129099143Y-19430857D01*
X129027714Y-19502285D01*
X129170571Y-17859429D02*
X129170571Y-17573714D01*
X129099143Y-17430857D01*
X129027714Y-17359429D01*
X128813429Y-17216571D01*
X128527714Y-17145143D01*
X127956286Y-17145143D01*
X127813429Y-17216571D01*
X127742000Y-17288000D01*
X127670571Y-17430857D01*
X127670571Y-17716571D01*
X127742000Y-17859429D01*
X127813429Y-17930857D01*
X127956286Y-18002286D01*
X128313429Y-18002286D01*
X128456286Y-17930857D01*
X128527714Y-17859429D01*
X128599143Y-17716571D01*
X128599143Y-17430857D01*
X128527714Y-17288000D01*
X128456286Y-17216571D01*
X128313429Y-17145143D01*
X77306714Y-26216429D02*
X77669571Y-27740429D01*
X77959857Y-26651857D01*
X78250143Y-27740429D01*
X78613000Y-26216429D01*
X79193571Y-27740429D02*
X79193571Y-26216429D01*
X79556428Y-26216429D01*
X79774143Y-26289000D01*
X79919285Y-26434143D01*
X79991857Y-26579286D01*
X80064428Y-26869571D01*
X80064428Y-27087286D01*
X79991857Y-27377571D01*
X79919285Y-27522714D01*
X79774143Y-27667857D01*
X79556428Y-27740429D01*
X79193571Y-27740429D01*
X82169000Y-26216429D02*
X82459286Y-26216429D01*
X82604428Y-26289000D01*
X82749571Y-26434143D01*
X82822143Y-26724429D01*
X82822143Y-27232429D01*
X82749571Y-27522714D01*
X82604428Y-27667857D01*
X82459286Y-27740429D01*
X82169000Y-27740429D01*
X82023857Y-27667857D01*
X81878714Y-27522714D01*
X81806143Y-27232429D01*
X81806143Y-26724429D01*
X81878714Y-26434143D01*
X82023857Y-26289000D01*
X82169000Y-26216429D01*
X83983285Y-26942143D02*
X83475285Y-26942143D01*
X83475285Y-27740429D02*
X83475285Y-26216429D01*
X84200999Y-26216429D01*
X85289571Y-26942143D02*
X84781571Y-26942143D01*
X84781571Y-27740429D02*
X84781571Y-26216429D01*
X85507285Y-26216429D01*
X18685952Y-99114430D02*
X21225952Y-99114430D01*
X21225952Y-99719192D01*
X21105000Y-100082049D01*
X20863095Y-100323954D01*
X20621190Y-100444906D01*
X20137381Y-100565858D01*
X19774524Y-100565858D01*
X19290714Y-100444906D01*
X19048810Y-100323954D01*
X18806905Y-100082049D01*
X18685952Y-99719192D01*
X18685952Y-99114430D01*
X21225952Y-102138239D02*
X21225952Y-102622049D01*
X21105000Y-102863954D01*
X20863095Y-103105858D01*
X20379286Y-103226811D01*
X19532619Y-103226811D01*
X19048810Y-103105858D01*
X18806905Y-102863954D01*
X18685952Y-102622049D01*
X18685952Y-102138239D01*
X18806905Y-101896335D01*
X19048810Y-101654430D01*
X19532619Y-101533478D01*
X20379286Y-101533478D01*
X20863095Y-101654430D01*
X21105000Y-101896335D01*
X21225952Y-102138239D01*
X18685952Y-106250620D02*
X21225952Y-106250620D01*
X18685952Y-107702048D01*
X21225952Y-107702048D01*
X21225952Y-109395381D02*
X21225952Y-109879191D01*
X21105000Y-110121096D01*
X20863095Y-110363000D01*
X20379286Y-110483953D01*
X19532619Y-110483953D01*
X19048810Y-110363000D01*
X18806905Y-110121096D01*
X18685952Y-109879191D01*
X18685952Y-109395381D01*
X18806905Y-109153477D01*
X19048810Y-108911572D01*
X19532619Y-108790620D01*
X20379286Y-108790620D01*
X20863095Y-108911572D01*
X21105000Y-109153477D01*
X21225952Y-109395381D01*
X21225952Y-111209667D02*
X21225952Y-112661095D01*
X18685952Y-111935381D02*
X21225952Y-111935381D01*
X21225952Y-115443000D02*
X19169762Y-115443000D01*
X18927857Y-115563952D01*
X18806905Y-115684905D01*
X18685952Y-115926809D01*
X18685952Y-116410619D01*
X18806905Y-116652524D01*
X18927857Y-116773476D01*
X19169762Y-116894428D01*
X21225952Y-116894428D01*
X18806905Y-117983000D02*
X18685952Y-118345857D01*
X18685952Y-118950619D01*
X18806905Y-119192523D01*
X18927857Y-119313476D01*
X19169762Y-119434428D01*
X19411667Y-119434428D01*
X19653571Y-119313476D01*
X19774524Y-119192523D01*
X19895476Y-118950619D01*
X20016429Y-118466809D01*
X20137381Y-118224904D01*
X20258333Y-118103952D01*
X20500238Y-117983000D01*
X20742143Y-117983000D01*
X20984048Y-118103952D01*
X21105000Y-118224904D01*
X21225952Y-118466809D01*
X21225952Y-119071571D01*
X21105000Y-119434428D01*
X20016429Y-120523000D02*
X20016429Y-121369667D01*
X18685952Y-121732524D02*
X18685952Y-120523000D01*
X21225952Y-120523000D01*
X21225952Y-121732524D01*
X20016429Y-124756333D02*
X20016429Y-125603000D01*
X18685952Y-125965857D02*
X18685952Y-124756333D01*
X21225952Y-124756333D01*
X21225952Y-125965857D01*
X21225952Y-126812523D02*
X18685952Y-128505856D01*
X21225952Y-128505856D02*
X18685952Y-126812523D01*
X21225952Y-129110619D02*
X21225952Y-130562047D01*
X18685952Y-129836333D02*
X21225952Y-129836333D01*
X20016429Y-131408714D02*
X20016429Y-132255381D01*
X18685952Y-132618238D02*
X18685952Y-131408714D01*
X21225952Y-131408714D01*
X21225952Y-132618238D01*
X18685952Y-135158237D02*
X19895476Y-134311571D01*
X18685952Y-133706809D02*
X21225952Y-133706809D01*
X21225952Y-134674428D01*
X21105000Y-134916333D01*
X20984048Y-135037285D01*
X20742143Y-135158237D01*
X20379286Y-135158237D01*
X20137381Y-135037285D01*
X20016429Y-134916333D01*
X19895476Y-134674428D01*
X19895476Y-133706809D01*
X18685952Y-136246809D02*
X21225952Y-136246809D01*
X18685952Y-137698237D01*
X21225952Y-137698237D01*
X19411667Y-138786809D02*
X19411667Y-139996332D01*
X18685952Y-138544904D02*
X21225952Y-139391570D01*
X18685952Y-140238237D01*
X18685952Y-142294428D02*
X18685952Y-141084904D01*
X21225952Y-141084904D01*
X21225952Y-146285856D02*
X21225952Y-145076332D01*
X20016429Y-144955380D01*
X20137381Y-145076332D01*
X20258333Y-145318237D01*
X20258333Y-145922999D01*
X20137381Y-146164903D01*
X20016429Y-146285856D01*
X19774524Y-146406808D01*
X19169762Y-146406808D01*
X18927857Y-146285856D01*
X18806905Y-146164903D01*
X18685952Y-145922999D01*
X18685952Y-145318237D01*
X18806905Y-145076332D01*
X18927857Y-144955380D01*
X21225952Y-147132523D02*
X18685952Y-147979189D01*
X21225952Y-148825856D01*
X19411667Y-151486809D02*
X19411667Y-152696332D01*
X18685952Y-151244904D02*
X21225952Y-152091570D01*
X18685952Y-152938237D01*
X18685952Y-153784904D02*
X21225952Y-153784904D01*
X18685952Y-155236332D01*
X21225952Y-155236332D01*
X18685952Y-156445856D02*
X21225952Y-156445856D01*
X21225952Y-157050618D01*
X21105000Y-157413475D01*
X20863095Y-157655380D01*
X20621190Y-157776332D01*
X20137381Y-157897284D01*
X19774524Y-157897284D01*
X19290714Y-157776332D01*
X19048810Y-157655380D01*
X18806905Y-157413475D01*
X18685952Y-157050618D01*
X18685952Y-156445856D01*
X15906429Y-102743001D02*
X15785476Y-103105858D01*
X15664524Y-103226810D01*
X15422619Y-103347762D01*
X15059762Y-103347762D01*
X14817857Y-103226810D01*
X14696905Y-103105858D01*
X14575952Y-102863953D01*
X14575952Y-101896334D01*
X17115952Y-101896334D01*
X17115952Y-102743001D01*
X16995000Y-102984905D01*
X16874048Y-103105858D01*
X16632143Y-103226810D01*
X16390238Y-103226810D01*
X16148333Y-103105858D01*
X16027381Y-102984905D01*
X15906429Y-102743001D01*
X15906429Y-101896334D01*
X15301667Y-104315382D02*
X15301667Y-105524905D01*
X14575952Y-104073477D02*
X17115952Y-104920143D01*
X14575952Y-105766810D01*
X17115952Y-106250620D02*
X17115952Y-107702048D01*
X14575952Y-106976334D02*
X17115952Y-106976334D01*
X17115952Y-108185858D02*
X17115952Y-109637286D01*
X14575952Y-108911572D02*
X17115952Y-108911572D01*
X15906429Y-110483953D02*
X15906429Y-111330620D01*
X14575952Y-111693477D02*
X14575952Y-110483953D01*
X17115952Y-110483953D01*
X17115952Y-111693477D01*
X14575952Y-114233476D02*
X15785476Y-113386810D01*
X14575952Y-112782048D02*
X17115952Y-112782048D01*
X17115952Y-113749667D01*
X16995000Y-113991572D01*
X16874048Y-114112524D01*
X16632143Y-114233476D01*
X16269286Y-114233476D01*
X16027381Y-114112524D01*
X15906429Y-113991572D01*
X15785476Y-113749667D01*
X15785476Y-112782048D01*
X14575952Y-115322048D02*
X17115952Y-115322048D01*
X15906429Y-116531572D02*
X15906429Y-117378239D01*
X14575952Y-117741096D02*
X14575952Y-116531572D01*
X17115952Y-116531572D01*
X17115952Y-117741096D01*
X14696905Y-118708715D02*
X14575952Y-119071572D01*
X14575952Y-119676334D01*
X14696905Y-119918238D01*
X14817857Y-120039191D01*
X15059762Y-120160143D01*
X15301667Y-120160143D01*
X15543571Y-120039191D01*
X15664524Y-119918238D01*
X15785476Y-119676334D01*
X15906429Y-119192524D01*
X16027381Y-118950619D01*
X16148333Y-118829667D01*
X16390238Y-118708715D01*
X16632143Y-118708715D01*
X16874048Y-118829667D01*
X16995000Y-118950619D01*
X17115952Y-119192524D01*
X17115952Y-119797286D01*
X16995000Y-120160143D01*
X15301667Y-123063001D02*
X15301667Y-124272524D01*
X14575952Y-122821096D02*
X17115952Y-123667762D01*
X14575952Y-124514429D01*
X17115952Y-124998239D02*
X17115952Y-126449667D01*
X14575952Y-125723953D02*
X17115952Y-125723953D01*
X17115952Y-128868715D02*
X17115952Y-130320143D01*
X14575952Y-129594429D02*
X17115952Y-129594429D01*
X14575952Y-131166810D02*
X17115952Y-131166810D01*
X15906429Y-131166810D02*
X15906429Y-132618238D01*
X14575952Y-132618238D02*
X17115952Y-132618238D01*
X15906429Y-133827762D02*
X15906429Y-134674429D01*
X14575952Y-135037286D02*
X14575952Y-133827762D01*
X17115952Y-133827762D01*
X17115952Y-135037286D01*
X14696905Y-137940143D02*
X14575952Y-138303000D01*
X14575952Y-138907762D01*
X14696905Y-139149666D01*
X14817857Y-139270619D01*
X15059762Y-139391571D01*
X15301667Y-139391571D01*
X15543571Y-139270619D01*
X15664524Y-139149666D01*
X15785476Y-138907762D01*
X15906429Y-138423952D01*
X16027381Y-138182047D01*
X16148333Y-138061095D01*
X16390238Y-137940143D01*
X16632143Y-137940143D01*
X16874048Y-138061095D01*
X16995000Y-138182047D01*
X17115952Y-138423952D01*
X17115952Y-139028714D01*
X16995000Y-139391571D01*
X15301667Y-140359191D02*
X15301667Y-141568714D01*
X14575952Y-140117286D02*
X17115952Y-140963952D01*
X14575952Y-141810619D01*
X14575952Y-142657286D02*
X17115952Y-142657286D01*
X15301667Y-143503953D01*
X17115952Y-144350619D01*
X14575952Y-144350619D01*
X15906429Y-145560143D02*
X15906429Y-146406810D01*
X14575952Y-146769667D02*
X14575952Y-145560143D01*
X17115952Y-145560143D01*
X17115952Y-146769667D01*
X17115952Y-149430619D02*
X17115952Y-150882047D01*
X14575952Y-150156333D02*
X17115952Y-150156333D01*
X14575952Y-151728714D02*
X17115952Y-151728714D01*
X14575952Y-152938238D02*
X17115952Y-152938238D01*
X15301667Y-153784905D01*
X17115952Y-154631571D01*
X14575952Y-154631571D01*
X15906429Y-155841095D02*
X15906429Y-156687762D01*
X14575952Y-157050619D02*
X14575952Y-155841095D01*
X17115952Y-155841095D01*
X17115952Y-157050619D01*
D12*
X22330891Y-15240000D02*
X13440891Y-15240000D01*
X22330891Y-30480000D02*
X13440891Y-30480000D01*
X22330891Y-15240000D02*
X22330891Y-30480000D01*
X13440891Y-30480000D02*
X13440891Y-15240000D01*
X22330891Y-37623479D02*
X13440891Y-37623479D01*
X22330891Y-52863479D02*
X13440891Y-52863479D01*
X22330891Y-37623479D02*
X22330891Y-52863479D01*
X13440891Y-52863479D02*
X13440891Y-37623479D01*
X22225000Y-59305000D02*
X13335000Y-59305000D01*
X22225000Y-74545000D02*
X13335000Y-74545000D01*
X22225000Y-59305000D02*
X22225000Y-74545000D01*
X13335000Y-74545000D02*
X13335000Y-59305000D01*
X71075000Y-23775000D02*
X68625000Y-23775000D01*
X71800000Y-27025000D02*
X68625000Y-27025000D01*
D13*
X72330000Y-57210000D02*
X74990000Y-57210000D01*
X72330000Y-44450000D02*
X72330000Y-57210000D01*
X74990000Y-44450000D02*
X74990000Y-57210000D01*
X72330000Y-44450000D02*
X74990000Y-44450000D01*
X72330000Y-43180000D02*
X72330000Y-41850000D01*
X72330000Y-41850000D02*
X73660000Y-41850000D01*
X99576000Y-77685000D02*
X100576000Y-77685000D01*
X100576000Y-75985000D02*
X99576000Y-75985000D01*
X100926000Y-89416000D02*
X100926000Y-88416000D01*
X99226000Y-88416000D02*
X99226000Y-89416000D01*
X96100000Y-89416000D02*
X96100000Y-88416000D01*
X94400000Y-88416000D02*
X94400000Y-89416000D01*
X68850000Y-17355000D02*
X70850000Y-17355000D01*
X70850000Y-14395000D02*
X68850000Y-14395000D01*
X70350000Y-20740000D02*
X69350000Y-20740000D01*
X69350000Y-22440000D02*
X70350000Y-22440000D01*
X70239000Y-28741000D02*
X69239000Y-28741000D01*
X69239000Y-30441000D02*
X70239000Y-30441000D01*
X73699000Y-78002000D02*
X73699000Y-79002000D01*
X75399000Y-79002000D02*
X75399000Y-78002000D01*
X69762000Y-77970000D02*
X69762000Y-78970000D01*
X71462000Y-78970000D02*
X71462000Y-77970000D01*
X85559000Y-82656252D02*
X85559000Y-81656252D01*
X83859000Y-81656252D02*
X83859000Y-82656252D01*
X77304000Y-82656252D02*
X77304000Y-81656252D01*
X75604000Y-81656252D02*
X75604000Y-82656252D01*
X83685000Y-110615990D02*
X82685000Y-110615990D01*
X82685000Y-112315990D02*
X83685000Y-112315990D01*
X94734000Y-94019000D02*
X93734000Y-94019000D01*
X93734000Y-95719000D02*
X94734000Y-95719000D01*
X103593000Y-103640000D02*
X103593000Y-102640000D01*
X101893000Y-102640000D02*
X101893000Y-103640000D01*
X93306000Y-101100000D02*
X93306000Y-100100000D01*
X91606000Y-100100000D02*
X91606000Y-101100000D01*
X74235000Y-28000000D02*
X76895000Y-28000000D01*
X74235000Y-22860000D02*
X74235000Y-28000000D01*
X76895000Y-22860000D02*
X76895000Y-28000000D01*
X74235000Y-22860000D02*
X76895000Y-22860000D01*
X74235000Y-21590000D02*
X74235000Y-20260000D01*
X74235000Y-20260000D02*
X75565000Y-20260000D01*
X129756160Y-25136452D02*
X129756160Y-19936452D01*
X81436160Y-25136452D02*
X129756160Y-25136452D01*
X78836160Y-19936452D02*
X129756160Y-19936452D01*
X81436160Y-25136452D02*
X81436160Y-22536452D01*
X81436160Y-22536452D02*
X78836160Y-22536452D01*
X78836160Y-22536452D02*
X78836160Y-19936452D01*
X80166160Y-25136452D02*
X78836160Y-25136452D01*
X78836160Y-25136452D02*
X78836160Y-23806452D01*
X129600000Y-64830000D02*
X129600000Y-59630000D01*
X81280000Y-64830000D02*
X129600000Y-64830000D01*
X78680000Y-59630000D02*
X129600000Y-59630000D01*
X81280000Y-64830000D02*
X81280000Y-62230000D01*
X81280000Y-62230000D02*
X78680000Y-62230000D01*
X78680000Y-62230000D02*
X78680000Y-59630000D01*
X80010000Y-64830000D02*
X78680000Y-64830000D01*
X78680000Y-64830000D02*
X78680000Y-63500000D01*
X32950000Y-13025000D02*
X33000000Y-30925000D01*
X33000000Y-30925000D02*
X65600000Y-30925000D01*
X65600000Y-30925000D02*
X65600000Y-13025000D01*
X65600000Y-13025000D02*
X32950000Y-13025000D01*
X110296000Y-98231000D02*
X110296000Y-95571000D01*
X105156000Y-98231000D02*
X110296000Y-98231000D01*
X105156000Y-95571000D02*
X110296000Y-95571000D01*
X105156000Y-98231000D02*
X105156000Y-95571000D01*
X103886000Y-98231000D02*
X102556000Y-98231000D01*
X102556000Y-98231000D02*
X102556000Y-96901000D01*
X110296000Y-99127000D02*
X107636000Y-99127000D01*
X110296000Y-109347000D02*
X110296000Y-99127000D01*
X107636000Y-109347000D02*
X107636000Y-99127000D01*
X110296000Y-109347000D02*
X107636000Y-109347000D01*
X110296000Y-110617000D02*
X110296000Y-111947000D01*
X110296000Y-111947000D02*
X108966000Y-111947000D01*
D12*
X130966160Y-31426452D02*
X77626160Y-31426452D01*
X130966160Y-56826452D02*
X130966160Y-31426452D01*
X77626160Y-56826452D02*
X130966160Y-56826452D01*
X77626160Y-31426452D02*
X77626160Y-56826452D01*
D13*
X106990000Y-90680000D02*
X106060000Y-90680000D01*
X103830000Y-90680000D02*
X104760000Y-90680000D01*
X103830000Y-90680000D02*
X103830000Y-92840000D01*
X106990000Y-90680000D02*
X106990000Y-92140000D01*
X92070000Y-103904000D02*
X91140000Y-103904000D01*
X88910000Y-103904000D02*
X89840000Y-103904000D01*
X88910000Y-103904000D02*
X88910000Y-106064000D01*
X92070000Y-103904000D02*
X92070000Y-105364000D01*
X70384000Y-19930000D02*
X69184000Y-19930000D01*
X69184000Y-18170000D02*
X70384000Y-18170000D01*
X108808000Y-91068000D02*
X110008000Y-91068000D01*
X110008000Y-92828000D02*
X108808000Y-92828000D01*
X104893000Y-87345000D02*
X104893000Y-88545000D01*
X103133000Y-88545000D02*
X103133000Y-87345000D01*
X96783000Y-89693000D02*
X96783000Y-88493000D01*
X98543000Y-88493000D02*
X98543000Y-89693000D01*
X79467000Y-77969000D02*
X78267000Y-77969000D01*
X78267000Y-76209000D02*
X79467000Y-76209000D01*
X43968000Y-136770000D02*
X42768000Y-136770000D01*
X42768000Y-135010000D02*
X43968000Y-135010000D01*
X100483000Y-105020000D02*
X99283000Y-105020000D01*
X99283000Y-103260000D02*
X100483000Y-103260000D01*
X88234000Y-95513000D02*
X89434000Y-95513000D01*
X89434000Y-97273000D02*
X88234000Y-97273000D01*
X94142000Y-103260000D02*
X95342000Y-103260000D01*
X95342000Y-105020000D02*
X94142000Y-105020000D01*
X47910000Y-136770000D02*
X46710000Y-136770000D01*
X46710000Y-135010000D02*
X47910000Y-135010000D01*
X43973000Y-116069000D02*
X42773000Y-116069000D01*
X42773000Y-114309000D02*
X43973000Y-114309000D01*
X47910000Y-116069000D02*
X46710000Y-116069000D01*
X46710000Y-114309000D02*
X47910000Y-114309000D01*
X47905000Y-133214000D02*
X46705000Y-133214000D01*
X46705000Y-131454000D02*
X47905000Y-131454000D01*
X47910000Y-119625000D02*
X46710000Y-119625000D01*
X46710000Y-117865000D02*
X47910000Y-117865000D01*
D12*
X85979000Y-79870252D02*
X91059000Y-79870252D01*
X91059000Y-79870252D02*
X91059000Y-84442252D01*
X91059000Y-84442252D02*
X85979000Y-84442252D01*
X85979000Y-84442252D02*
X85979000Y-79870252D01*
X85979000Y-81394252D02*
X86487000Y-81394252D01*
X86487000Y-81394252D02*
X86487000Y-82664252D01*
X86487000Y-82664252D02*
X85979000Y-82664252D01*
X77724000Y-79870252D02*
X82804000Y-79870252D01*
X82804000Y-79870252D02*
X82804000Y-84442252D01*
X82804000Y-84442252D02*
X77724000Y-84442252D01*
X77724000Y-84442252D02*
X77724000Y-79870252D01*
X77724000Y-81394252D02*
X78232000Y-81394252D01*
X78232000Y-81394252D02*
X78232000Y-82664252D01*
X78232000Y-82664252D02*
X77724000Y-82664252D01*
X71374000Y-83426252D02*
X73279000Y-83426252D01*
X73914000Y-80886252D02*
X73914000Y-82791252D01*
X71374000Y-83426252D02*
X71374000Y-80886252D01*
X71374000Y-80886252D02*
X73914000Y-80886252D01*
X67269000Y-83467919D02*
X69174000Y-83467919D01*
X69809000Y-80927919D02*
X69809000Y-82832919D01*
X67269000Y-83467919D02*
X67269000Y-80927919D01*
X67269000Y-80927919D02*
X69809000Y-80927919D01*
X74705000Y-107720990D02*
X74955000Y-107720990D01*
X74705000Y-99970990D02*
X75040000Y-99970990D01*
X87855000Y-99970990D02*
X87520000Y-99970990D01*
X87855000Y-107720990D02*
X87520000Y-107720990D01*
X74705000Y-107720990D02*
X74705000Y-99970990D01*
X87855000Y-107720990D02*
X87855000Y-99970990D01*
X74955000Y-107720990D02*
X74955000Y-109520990D01*
D13*
X43278000Y-132334000D02*
G75*
G03X43278000Y-132334000I-860000J0D01*
G01*
X43278000Y-132334000D02*
X43318000Y-132334000D01*
X43278000Y-118745000D02*
G75*
G03X43278000Y-118745000I-860000J0D01*
G01*
X43278000Y-118745000D02*
X43318000Y-118745000D01*
D12*
X97330250Y-86057750D02*
X97330250Y-85267750D01*
X103630250Y-79757750D02*
X103630250Y-80547750D01*
X97330250Y-79757750D02*
X97330250Y-80547750D01*
X103630250Y-86057750D02*
X102840250Y-86057750D01*
X103630250Y-79757750D02*
X102840250Y-79757750D01*
X97330250Y-79757750D02*
X98120250Y-79757750D01*
X97330250Y-86057750D02*
X98120250Y-86057750D01*
X99907000Y-96689000D02*
X99907000Y-97214000D01*
X94657000Y-101939000D02*
X94657000Y-101414000D01*
X99907000Y-101939000D02*
X99907000Y-101414000D01*
X94657000Y-96689000D02*
X95182000Y-96689000D01*
X94657000Y-101939000D02*
X95182000Y-101939000D01*
X99907000Y-101939000D02*
X99382000Y-101939000D01*
X99907000Y-96689000D02*
X99382000Y-96689000D01*
D13*
X54120164Y-121922346D02*
X53229209Y-121031392D01*
X53229209Y-121031392D02*
X52451392Y-121809209D01*
X52451392Y-121809209D02*
X53342346Y-122700164D01*
X53342574Y-122699877D02*
G75*
G03X54120164Y-121922346I3774674J-2997371D01*
G01*
D12*
X34182000Y-135132000D02*
X34182000Y-133832000D01*
X31882000Y-135707000D02*
X31882000Y-133832000D01*
X31938000Y-115555000D02*
X31938000Y-116855000D01*
X34238000Y-114980000D02*
X34238000Y-116855000D01*
D13*
X109407000Y-76521000D02*
X106747000Y-76521000D01*
X109407000Y-86741000D02*
X109407000Y-76521000D01*
X106747000Y-86741000D02*
X106747000Y-76521000D01*
X109407000Y-86741000D02*
X106747000Y-86741000D01*
X109407000Y-88011000D02*
X109407000Y-89341000D01*
X109407000Y-89341000D02*
X108077000Y-89341000D01*
D14*
G36*
X110163803Y-159164456D02*
X110301780Y-159264859D01*
X110309269Y-159444571D01*
X110305964Y-159457817D01*
X110229576Y-159599246D01*
X110076974Y-159606661D01*
X110061875Y-159603029D01*
X109794532Y-159580359D01*
X109644462Y-159656590D01*
X109616639Y-159803887D01*
X109716035Y-159994415D01*
X109947623Y-160200337D01*
X109954351Y-160204904D01*
X110252911Y-160478995D01*
X110410892Y-160780333D01*
X110435412Y-161078971D01*
X110333584Y-161344964D01*
X110112524Y-161548367D01*
X109779348Y-161659233D01*
X109605996Y-161671000D01*
X109355700Y-161657986D01*
X109184186Y-161624826D01*
X109144414Y-161601026D01*
X109128090Y-161469536D01*
X109145549Y-161361339D01*
X109209383Y-161249936D01*
X109354917Y-161203280D01*
X109541017Y-161198479D01*
X109811569Y-161170393D01*
X109927871Y-161072822D01*
X109889920Y-160906156D01*
X109697710Y-160670784D01*
X109549773Y-160532740D01*
X109320889Y-160317185D01*
X109197772Y-160150118D01*
X109149581Y-159979972D01*
X109143800Y-159853946D01*
X109220089Y-159531901D01*
X109424875Y-159284901D01*
X109722038Y-159148310D01*
X109880887Y-159132296D01*
X110163803Y-159164456D01*
X110163803Y-159164456D01*
G37*
X110163803Y-159164456D02*
X110301780Y-159264859D01*
X110309269Y-159444571D01*
X110305964Y-159457817D01*
X110229576Y-159599246D01*
X110076974Y-159606661D01*
X110061875Y-159603029D01*
X109794532Y-159580359D01*
X109644462Y-159656590D01*
X109616639Y-159803887D01*
X109716035Y-159994415D01*
X109947623Y-160200337D01*
X109954351Y-160204904D01*
X110252911Y-160478995D01*
X110410892Y-160780333D01*
X110435412Y-161078971D01*
X110333584Y-161344964D01*
X110112524Y-161548367D01*
X109779348Y-161659233D01*
X109605996Y-161671000D01*
X109355700Y-161657986D01*
X109184186Y-161624826D01*
X109144414Y-161601026D01*
X109128090Y-161469536D01*
X109145549Y-161361339D01*
X109209383Y-161249936D01*
X109354917Y-161203280D01*
X109541017Y-161198479D01*
X109811569Y-161170393D01*
X109927871Y-161072822D01*
X109889920Y-160906156D01*
X109697710Y-160670784D01*
X109549773Y-160532740D01*
X109320889Y-160317185D01*
X109197772Y-160150118D01*
X109149581Y-159979972D01*
X109143800Y-159853946D01*
X109220089Y-159531901D01*
X109424875Y-159284901D01*
X109722038Y-159148310D01*
X109880887Y-159132296D01*
X110163803Y-159164456D01*
G36*
X111713093Y-159177604D02*
X111858466Y-159268401D01*
X111928967Y-159334604D01*
X112097414Y-159586357D01*
X112139751Y-159867985D01*
X112089170Y-160254816D01*
X111930283Y-160523694D01*
X111647093Y-160698628D01*
X111567644Y-160726534D01*
X111354250Y-160802077D01*
X111248854Y-160888068D01*
X111213351Y-161040832D01*
X111209666Y-161255701D01*
X111203881Y-161503250D01*
X111168384Y-161625583D01*
X111075965Y-161666796D01*
X110953403Y-161671000D01*
X110697139Y-161671000D01*
X110720569Y-160422167D01*
X110729703Y-159935333D01*
X111209666Y-159935333D01*
X111220975Y-160173828D01*
X111267350Y-160286548D01*
X111367463Y-160316256D01*
X111376021Y-160316333D01*
X111542920Y-160247917D01*
X111638731Y-160136290D01*
X111684804Y-159918206D01*
X111623123Y-159711302D01*
X111480533Y-159576155D01*
X111380815Y-159554333D01*
X111273962Y-159578700D01*
X111223421Y-159680648D01*
X111209753Y-159903450D01*
X111209666Y-159935333D01*
X110729703Y-159935333D01*
X110744000Y-159173333D01*
X111230467Y-159147952D01*
X111524523Y-159143002D01*
X111713093Y-159177604D01*
X111713093Y-159177604D01*
G37*
X111713093Y-159177604D02*
X111858466Y-159268401D01*
X111928967Y-159334604D01*
X112097414Y-159586357D01*
X112139751Y-159867985D01*
X112089170Y-160254816D01*
X111930283Y-160523694D01*
X111647093Y-160698628D01*
X111567644Y-160726534D01*
X111354250Y-160802077D01*
X111248854Y-160888068D01*
X111213351Y-161040832D01*
X111209666Y-161255701D01*
X111203881Y-161503250D01*
X111168384Y-161625583D01*
X111075965Y-161666796D01*
X110953403Y-161671000D01*
X110697139Y-161671000D01*
X110720569Y-160422167D01*
X110729703Y-159935333D01*
X111209666Y-159935333D01*
X111220975Y-160173828D01*
X111267350Y-160286548D01*
X111367463Y-160316256D01*
X111376021Y-160316333D01*
X111542920Y-160247917D01*
X111638731Y-160136290D01*
X111684804Y-159918206D01*
X111623123Y-159711302D01*
X111480533Y-159576155D01*
X111380815Y-159554333D01*
X111273962Y-159578700D01*
X111223421Y-159680648D01*
X111209753Y-159903450D01*
X111209666Y-159935333D01*
X110729703Y-159935333D01*
X110744000Y-159173333D01*
X111230467Y-159147952D01*
X111524523Y-159143002D01*
X111713093Y-159177604D01*
G36*
X113451738Y-160125833D02*
X113547545Y-160543333D01*
X113636544Y-160925672D01*
X113708247Y-161228122D01*
X113749524Y-161395833D01*
X113786738Y-161582167D01*
X113744021Y-161657038D01*
X113590705Y-161670994D01*
X113582566Y-161671000D01*
X113370367Y-161616771D01*
X113262397Y-161442820D01*
X113241666Y-161240742D01*
X113205078Y-161127560D01*
X113066533Y-161082666D01*
X112949169Y-161078333D01*
X112749239Y-161095666D01*
X112652431Y-161181785D01*
X112601080Y-161374667D01*
X112544435Y-161575501D01*
X112443898Y-161657391D01*
X112295205Y-161671000D01*
X112121593Y-161650693D01*
X112078993Y-161572821D01*
X112089828Y-161522833D01*
X112126340Y-161383205D01*
X112190763Y-161118726D01*
X112273425Y-160769651D01*
X112319055Y-160573213D01*
X112745456Y-160573213D01*
X112763737Y-160640520D01*
X112830431Y-160655448D01*
X112903000Y-160655000D01*
X113028173Y-160614364D01*
X113063301Y-160464055D01*
X113062316Y-160422167D01*
X113034448Y-160158475D01*
X112993628Y-159935333D01*
X112957735Y-159801883D01*
X112926905Y-159785462D01*
X112887289Y-159902990D01*
X112834312Y-160130001D01*
X112770632Y-160415662D01*
X112745456Y-160573213D01*
X112319055Y-160573213D01*
X112349226Y-160443333D01*
X112440073Y-160049017D01*
X112520491Y-159700223D01*
X112580688Y-159439417D01*
X112607972Y-159321500D01*
X112677673Y-159185928D01*
X112835417Y-159134795D01*
X112938669Y-159131000D01*
X113225112Y-159131000D01*
X113451738Y-160125833D01*
X113451738Y-160125833D01*
G37*
X113451738Y-160125833D02*
X113547545Y-160543333D01*
X113636544Y-160925672D01*
X113708247Y-161228122D01*
X113749524Y-161395833D01*
X113786738Y-161582167D01*
X113744021Y-161657038D01*
X113590705Y-161670994D01*
X113582566Y-161671000D01*
X113370367Y-161616771D01*
X113262397Y-161442820D01*
X113241666Y-161240742D01*
X113205078Y-161127560D01*
X113066533Y-161082666D01*
X112949169Y-161078333D01*
X112749239Y-161095666D01*
X112652431Y-161181785D01*
X112601080Y-161374667D01*
X112544435Y-161575501D01*
X112443898Y-161657391D01*
X112295205Y-161671000D01*
X112121593Y-161650693D01*
X112078993Y-161572821D01*
X112089828Y-161522833D01*
X112126340Y-161383205D01*
X112190763Y-161118726D01*
X112273425Y-160769651D01*
X112319055Y-160573213D01*
X112745456Y-160573213D01*
X112763737Y-160640520D01*
X112830431Y-160655448D01*
X112903000Y-160655000D01*
X113028173Y-160614364D01*
X113063301Y-160464055D01*
X113062316Y-160422167D01*
X113034448Y-160158475D01*
X112993628Y-159935333D01*
X112957735Y-159801883D01*
X112926905Y-159785462D01*
X112887289Y-159902990D01*
X112834312Y-160130001D01*
X112770632Y-160415662D01*
X112745456Y-160573213D01*
X112319055Y-160573213D01*
X112349226Y-160443333D01*
X112440073Y-160049017D01*
X112520491Y-159700223D01*
X112580688Y-159439417D01*
X112607972Y-159321500D01*
X112677673Y-159185928D01*
X112835417Y-159134795D01*
X112938669Y-159131000D01*
X113225112Y-159131000D01*
X113451738Y-160125833D01*
G36*
X115296437Y-159154638D02*
X115401801Y-159242467D01*
X115395441Y-159419861D01*
X115387724Y-159451085D01*
X115320440Y-159576620D01*
X115177567Y-159596096D01*
X115101087Y-159583317D01*
X114829891Y-159603776D01*
X114613688Y-159765835D01*
X114472753Y-160045359D01*
X114427000Y-160385733D01*
X114477448Y-160783171D01*
X114621263Y-161064259D01*
X114847152Y-161214102D01*
X115067826Y-161230917D01*
X115264971Y-161227426D01*
X115355438Y-161298824D01*
X115382069Y-161390434D01*
X115393913Y-161558184D01*
X115374434Y-161626677D01*
X115252440Y-161661556D01*
X115028201Y-161669637D01*
X114766089Y-161654321D01*
X114530477Y-161619010D01*
X114397796Y-161575054D01*
X114234380Y-161406299D01*
X114084339Y-161127457D01*
X113972386Y-160797393D01*
X113923231Y-160474975D01*
X113922718Y-160443333D01*
X113988914Y-159974762D01*
X114174751Y-159588805D01*
X114461106Y-159307674D01*
X114828852Y-159153575D01*
X115052798Y-159131000D01*
X115296437Y-159154638D01*
X115296437Y-159154638D01*
G37*
X115296437Y-159154638D02*
X115401801Y-159242467D01*
X115395441Y-159419861D01*
X115387724Y-159451085D01*
X115320440Y-159576620D01*
X115177567Y-159596096D01*
X115101087Y-159583317D01*
X114829891Y-159603776D01*
X114613688Y-159765835D01*
X114472753Y-160045359D01*
X114427000Y-160385733D01*
X114477448Y-160783171D01*
X114621263Y-161064259D01*
X114847152Y-161214102D01*
X115067826Y-161230917D01*
X115264971Y-161227426D01*
X115355438Y-161298824D01*
X115382069Y-161390434D01*
X115393913Y-161558184D01*
X115374434Y-161626677D01*
X115252440Y-161661556D01*
X115028201Y-161669637D01*
X114766089Y-161654321D01*
X114530477Y-161619010D01*
X114397796Y-161575054D01*
X114234380Y-161406299D01*
X114084339Y-161127457D01*
X113972386Y-160797393D01*
X113923231Y-160474975D01*
X113922718Y-160443333D01*
X113988914Y-159974762D01*
X114174751Y-159588805D01*
X114461106Y-159307674D01*
X114828852Y-159153575D01*
X115052798Y-159131000D01*
X115296437Y-159154638D01*
G36*
X116866790Y-159363833D02*
X116830580Y-159512918D01*
X116733876Y-159586772D01*
X116526234Y-159619168D01*
X116480166Y-159622701D01*
X116253920Y-159648990D01*
X116149964Y-159707967D01*
X116121288Y-159835583D01*
X116120333Y-159897868D01*
X116134165Y-160057664D01*
X116207972Y-160128702D01*
X116390219Y-160146636D01*
X116459000Y-160147000D01*
X116677197Y-160158553D01*
X116774178Y-160213047D01*
X116797545Y-160340233D01*
X116797666Y-160358667D01*
X116779181Y-160495040D01*
X116691991Y-160555653D01*
X116488493Y-160570258D01*
X116459000Y-160570333D01*
X116242225Y-160578480D01*
X116145902Y-160635510D01*
X116121147Y-160790304D01*
X116120333Y-160909000D01*
X116120333Y-161247667D01*
X116501333Y-161247667D01*
X116736440Y-161256440D01*
X116847831Y-161299563D01*
X116880878Y-161402242D01*
X116882333Y-161459333D01*
X116873618Y-161569917D01*
X116822873Y-161633207D01*
X116693200Y-161662380D01*
X116447702Y-161670614D01*
X116289666Y-161671000D01*
X115697000Y-161671000D01*
X115697000Y-159131000D01*
X116893580Y-159131000D01*
X116866790Y-159363833D01*
X116866790Y-159363833D01*
G37*
X116866790Y-159363833D02*
X116830580Y-159512918D01*
X116733876Y-159586772D01*
X116526234Y-159619168D01*
X116480166Y-159622701D01*
X116253920Y-159648990D01*
X116149964Y-159707967D01*
X116121288Y-159835583D01*
X116120333Y-159897868D01*
X116134165Y-160057664D01*
X116207972Y-160128702D01*
X116390219Y-160146636D01*
X116459000Y-160147000D01*
X116677197Y-160158553D01*
X116774178Y-160213047D01*
X116797545Y-160340233D01*
X116797666Y-160358667D01*
X116779181Y-160495040D01*
X116691991Y-160555653D01*
X116488493Y-160570258D01*
X116459000Y-160570333D01*
X116242225Y-160578480D01*
X116145902Y-160635510D01*
X116121147Y-160790304D01*
X116120333Y-160909000D01*
X116120333Y-161247667D01*
X116501333Y-161247667D01*
X116736440Y-161256440D01*
X116847831Y-161299563D01*
X116880878Y-161402242D01*
X116882333Y-161459333D01*
X116873618Y-161569917D01*
X116822873Y-161633207D01*
X116693200Y-161662380D01*
X116447702Y-161670614D01*
X116289666Y-161671000D01*
X115697000Y-161671000D01*
X115697000Y-159131000D01*
X116893580Y-159131000D01*
X116866790Y-159363833D01*
G36*
X119031767Y-159182973D02*
X119113790Y-159270308D01*
X119126000Y-159385000D01*
X119092836Y-159543692D01*
X118971731Y-159579351D01*
X118956666Y-159577929D01*
X118634129Y-159614314D01*
X118384022Y-159782736D01*
X118224108Y-160054966D01*
X118172147Y-160402777D01*
X118226583Y-160738285D01*
X118380341Y-161046819D01*
X118607205Y-161211239D01*
X118877245Y-161225941D01*
X119063867Y-161250026D01*
X119156544Y-161413474D01*
X119168333Y-161550925D01*
X119114792Y-161628013D01*
X118936835Y-161664980D01*
X118746335Y-161671000D01*
X118447103Y-161649269D01*
X118228704Y-161564143D01*
X118051163Y-161426919D01*
X117904362Y-161280786D01*
X117818025Y-161134129D01*
X117772013Y-160932025D01*
X117746183Y-160619549D01*
X117744534Y-160590764D01*
X117767341Y-160059783D01*
X117896542Y-159639662D01*
X118124480Y-159340603D01*
X118443497Y-159172811D01*
X118829666Y-159144824D01*
X119031767Y-159182973D01*
X119031767Y-159182973D01*
G37*
X119031767Y-159182973D02*
X119113790Y-159270308D01*
X119126000Y-159385000D01*
X119092836Y-159543692D01*
X118971731Y-159579351D01*
X118956666Y-159577929D01*
X118634129Y-159614314D01*
X118384022Y-159782736D01*
X118224108Y-160054966D01*
X118172147Y-160402777D01*
X118226583Y-160738285D01*
X118380341Y-161046819D01*
X118607205Y-161211239D01*
X118877245Y-161225941D01*
X119063867Y-161250026D01*
X119156544Y-161413474D01*
X119168333Y-161550925D01*
X119114792Y-161628013D01*
X118936835Y-161664980D01*
X118746335Y-161671000D01*
X118447103Y-161649269D01*
X118228704Y-161564143D01*
X118051163Y-161426919D01*
X117904362Y-161280786D01*
X117818025Y-161134129D01*
X117772013Y-160932025D01*
X117746183Y-160619549D01*
X117744534Y-160590764D01*
X117767341Y-160059783D01*
X117896542Y-159639662D01*
X118124480Y-159340603D01*
X118443497Y-159172811D01*
X118829666Y-159144824D01*
X119031767Y-159182973D01*
G36*
X120525255Y-159206549D02*
X120772456Y-159411408D01*
X120956093Y-159712891D01*
X121069043Y-160078312D01*
X121104179Y-160474988D01*
X121054375Y-160870234D01*
X120912508Y-161231363D01*
X120731549Y-161470147D01*
X120494290Y-161614544D01*
X120195155Y-161676549D01*
X119899317Y-161653174D01*
X119671952Y-161541428D01*
X119650351Y-161519735D01*
X119419617Y-161170190D01*
X119294003Y-160773673D01*
X119274029Y-160478101D01*
X119777706Y-160478101D01*
X119813349Y-160798989D01*
X119887882Y-161050847D01*
X119931392Y-161121943D01*
X120108373Y-161226244D01*
X120308367Y-161192134D01*
X120477130Y-161031883D01*
X120498465Y-160993667D01*
X120581282Y-160704008D01*
X120601874Y-160344147D01*
X120559229Y-160001765D01*
X120511531Y-159859308D01*
X120352504Y-159640444D01*
X120166894Y-159579693D01*
X119983875Y-159675277D01*
X119842740Y-159900064D01*
X119785866Y-160155890D01*
X119777706Y-160478101D01*
X119274029Y-160478101D01*
X119266120Y-160361083D01*
X119328576Y-159963319D01*
X119473983Y-159611283D01*
X119694950Y-159335874D01*
X119984088Y-159167992D01*
X120221617Y-159131000D01*
X120525255Y-159206549D01*
X120525255Y-159206549D01*
G37*
X120525255Y-159206549D02*
X120772456Y-159411408D01*
X120956093Y-159712891D01*
X121069043Y-160078312D01*
X121104179Y-160474988D01*
X121054375Y-160870234D01*
X120912508Y-161231363D01*
X120731549Y-161470147D01*
X120494290Y-161614544D01*
X120195155Y-161676549D01*
X119899317Y-161653174D01*
X119671952Y-161541428D01*
X119650351Y-161519735D01*
X119419617Y-161170190D01*
X119294003Y-160773673D01*
X119274029Y-160478101D01*
X119777706Y-160478101D01*
X119813349Y-160798989D01*
X119887882Y-161050847D01*
X119931392Y-161121943D01*
X120108373Y-161226244D01*
X120308367Y-161192134D01*
X120477130Y-161031883D01*
X120498465Y-160993667D01*
X120581282Y-160704008D01*
X120601874Y-160344147D01*
X120559229Y-160001765D01*
X120511531Y-159859308D01*
X120352504Y-159640444D01*
X120166894Y-159579693D01*
X119983875Y-159675277D01*
X119842740Y-159900064D01*
X119785866Y-160155890D01*
X119777706Y-160478101D01*
X119274029Y-160478101D01*
X119266120Y-160361083D01*
X119328576Y-159963319D01*
X119473983Y-159611283D01*
X119694950Y-159335874D01*
X119984088Y-159167992D01*
X120221617Y-159131000D01*
X120525255Y-159206549D01*
G36*
X121631016Y-159146802D02*
X121756779Y-159170844D01*
X121856877Y-159233281D01*
X121953702Y-159364060D01*
X122069646Y-159593131D01*
X122220597Y-159935333D01*
X122548829Y-160697333D01*
X122551914Y-159914167D01*
X122554956Y-159547458D01*
X122566445Y-159317939D01*
X122595193Y-159193468D01*
X122650015Y-159141902D01*
X122739724Y-159131098D01*
X122766666Y-159131000D01*
X122978333Y-159131000D01*
X122978333Y-161671000D01*
X122737597Y-161671000D01*
X122625350Y-161660439D01*
X122535201Y-161609991D01*
X122447526Y-161491506D01*
X122342695Y-161276834D01*
X122201084Y-160937826D01*
X122166097Y-160851328D01*
X121835333Y-160031656D01*
X121811100Y-160851328D01*
X121798315Y-161228178D01*
X121780990Y-161467147D01*
X121750207Y-161599630D01*
X121697050Y-161657022D01*
X121612599Y-161670718D01*
X121578267Y-161671000D01*
X121369666Y-161671000D01*
X121369666Y-159120271D01*
X121631016Y-159146802D01*
X121631016Y-159146802D01*
G37*
X121631016Y-159146802D02*
X121756779Y-159170844D01*
X121856877Y-159233281D01*
X121953702Y-159364060D01*
X122069646Y-159593131D01*
X122220597Y-159935333D01*
X122548829Y-160697333D01*
X122551914Y-159914167D01*
X122554956Y-159547458D01*
X122566445Y-159317939D01*
X122595193Y-159193468D01*
X122650015Y-159141902D01*
X122739724Y-159131098D01*
X122766666Y-159131000D01*
X122978333Y-159131000D01*
X122978333Y-161671000D01*
X122737597Y-161671000D01*
X122625350Y-161660439D01*
X122535201Y-161609991D01*
X122447526Y-161491506D01*
X122342695Y-161276834D01*
X122201084Y-160937826D01*
X122166097Y-160851328D01*
X121835333Y-160031656D01*
X121811100Y-160851328D01*
X121798315Y-161228178D01*
X121780990Y-161467147D01*
X121750207Y-161599630D01*
X121697050Y-161657022D01*
X121612599Y-161670718D01*
X121578267Y-161671000D01*
X121369666Y-161671000D01*
X121369666Y-159120271D01*
X121631016Y-159146802D01*
G36*
X124550608Y-159140784D02*
X124679713Y-159187324D01*
X124710734Y-159296397D01*
X124692761Y-159425383D01*
X124638474Y-159568788D01*
X124516253Y-159599148D01*
X124414162Y-159583266D01*
X124143141Y-159603776D01*
X123927021Y-159765869D01*
X123786104Y-160045366D01*
X123740333Y-160385733D01*
X123790870Y-160785099D01*
X123935533Y-161065801D01*
X124163897Y-161214242D01*
X124387635Y-161230161D01*
X124580131Y-161221027D01*
X124657678Y-161280567D01*
X124671666Y-161434001D01*
X124660121Y-161576733D01*
X124595786Y-161646392D01*
X124434115Y-161669077D01*
X124267172Y-161671000D01*
X123949362Y-161638526D01*
X123699214Y-161553802D01*
X123665561Y-161532935D01*
X123440651Y-161280740D01*
X123290613Y-160912322D01*
X123232522Y-160470618D01*
X123232333Y-160443333D01*
X123292880Y-159955469D01*
X123465589Y-159565864D01*
X123737058Y-159291178D01*
X124093887Y-159148069D01*
X124287973Y-159131000D01*
X124550608Y-159140784D01*
X124550608Y-159140784D01*
G37*
X124550608Y-159140784D02*
X124679713Y-159187324D01*
X124710734Y-159296397D01*
X124692761Y-159425383D01*
X124638474Y-159568788D01*
X124516253Y-159599148D01*
X124414162Y-159583266D01*
X124143141Y-159603776D01*
X123927021Y-159765869D01*
X123786104Y-160045366D01*
X123740333Y-160385733D01*
X123790870Y-160785099D01*
X123935533Y-161065801D01*
X124163897Y-161214242D01*
X124387635Y-161230161D01*
X124580131Y-161221027D01*
X124657678Y-161280567D01*
X124671666Y-161434001D01*
X124660121Y-161576733D01*
X124595786Y-161646392D01*
X124434115Y-161669077D01*
X124267172Y-161671000D01*
X123949362Y-161638526D01*
X123699214Y-161553802D01*
X123665561Y-161532935D01*
X123440651Y-161280740D01*
X123290613Y-160912322D01*
X123232522Y-160470618D01*
X123232333Y-160443333D01*
X123292880Y-159955469D01*
X123465589Y-159565864D01*
X123737058Y-159291178D01*
X124093887Y-159148069D01*
X124287973Y-159131000D01*
X124550608Y-159140784D01*
G36*
X126100264Y-159233575D02*
X126293851Y-159372414D01*
X126450590Y-159533785D01*
X126539163Y-159703703D01*
X126585115Y-159945201D01*
X126601486Y-160131515D01*
X126604140Y-160711377D01*
X126516296Y-161150890D01*
X126335613Y-161454280D01*
X126059752Y-161625775D01*
X125748801Y-161671000D01*
X125449607Y-161637819D01*
X125243337Y-161523027D01*
X125200065Y-161480500D01*
X124969008Y-161117336D01*
X124852739Y-160669556D01*
X124855105Y-160401000D01*
X125349000Y-160401000D01*
X125385860Y-160772704D01*
X125483448Y-161048483D01*
X125622275Y-161214199D01*
X125782851Y-161255716D01*
X125945687Y-161158897D01*
X126081933Y-160932641D01*
X126161328Y-160618127D01*
X126163814Y-160283636D01*
X126100230Y-159970638D01*
X125981416Y-159720607D01*
X125818212Y-159575013D01*
X125721678Y-159554333D01*
X125560497Y-159632887D01*
X125436139Y-159847157D01*
X125362731Y-160165052D01*
X125349000Y-160401000D01*
X124855105Y-160401000D01*
X124857034Y-160182121D01*
X124975179Y-159730413D01*
X125181887Y-159388755D01*
X125456421Y-159187144D01*
X125771604Y-159132958D01*
X126100264Y-159233575D01*
X126100264Y-159233575D01*
G37*
X126100264Y-159233575D02*
X126293851Y-159372414D01*
X126450590Y-159533785D01*
X126539163Y-159703703D01*
X126585115Y-159945201D01*
X126601486Y-160131515D01*
X126604140Y-160711377D01*
X126516296Y-161150890D01*
X126335613Y-161454280D01*
X126059752Y-161625775D01*
X125748801Y-161671000D01*
X125449607Y-161637819D01*
X125243337Y-161523027D01*
X125200065Y-161480500D01*
X124969008Y-161117336D01*
X124852739Y-160669556D01*
X124855105Y-160401000D01*
X125349000Y-160401000D01*
X125385860Y-160772704D01*
X125483448Y-161048483D01*
X125622275Y-161214199D01*
X125782851Y-161255716D01*
X125945687Y-161158897D01*
X126081933Y-160932641D01*
X126161328Y-160618127D01*
X126163814Y-160283636D01*
X126100230Y-159970638D01*
X125981416Y-159720607D01*
X125818212Y-159575013D01*
X125721678Y-159554333D01*
X125560497Y-159632887D01*
X125436139Y-159847157D01*
X125362731Y-160165052D01*
X125349000Y-160401000D01*
X124855105Y-160401000D01*
X124857034Y-160182121D01*
X124975179Y-159730413D01*
X125181887Y-159388755D01*
X125456421Y-159187144D01*
X125771604Y-159132958D01*
X126100264Y-159233575D01*
G36*
X127730118Y-159146080D02*
X127930093Y-159204559D01*
X128091834Y-159326298D01*
X128104515Y-159338818D01*
X128270489Y-159613320D01*
X128309749Y-159937307D01*
X128216167Y-160243364D01*
X128190388Y-160283423D01*
X128118616Y-160426655D01*
X128122184Y-160590959D01*
X128178995Y-160789095D01*
X128266300Y-161082048D01*
X128334899Y-161363987D01*
X128341157Y-161395833D01*
X128363754Y-161583227D01*
X128309568Y-161657772D01*
X128148325Y-161671000D01*
X127991457Y-161653688D01*
X127906878Y-161570889D01*
X127855472Y-161376311D01*
X127844276Y-161311167D01*
X127757551Y-160937767D01*
X127644915Y-160722400D01*
X127505021Y-160655000D01*
X127432550Y-160696795D01*
X127393732Y-160842541D01*
X127381109Y-161122778D01*
X127381000Y-161163000D01*
X127376518Y-161444540D01*
X127352028Y-161596544D01*
X127290961Y-161658772D01*
X127176752Y-161670989D01*
X127169333Y-161671000D01*
X126957666Y-161671000D01*
X126957666Y-159935333D01*
X127381000Y-159935333D01*
X127393371Y-160190955D01*
X127446522Y-160296814D01*
X127564507Y-160271654D01*
X127700827Y-160184532D01*
X127852019Y-160003085D01*
X127871849Y-159803401D01*
X127774043Y-159637144D01*
X127572328Y-159555976D01*
X127533400Y-159554333D01*
X127436989Y-159585828D01*
X127391618Y-159707362D01*
X127381000Y-159935333D01*
X126957666Y-159935333D01*
X126957666Y-159131000D01*
X127427181Y-159131000D01*
X127730118Y-159146080D01*
X127730118Y-159146080D01*
G37*
X127730118Y-159146080D02*
X127930093Y-159204559D01*
X128091834Y-159326298D01*
X128104515Y-159338818D01*
X128270489Y-159613320D01*
X128309749Y-159937307D01*
X128216167Y-160243364D01*
X128190388Y-160283423D01*
X128118616Y-160426655D01*
X128122184Y-160590959D01*
X128178995Y-160789095D01*
X128266300Y-161082048D01*
X128334899Y-161363987D01*
X128341157Y-161395833D01*
X128363754Y-161583227D01*
X128309568Y-161657772D01*
X128148325Y-161671000D01*
X127991457Y-161653688D01*
X127906878Y-161570889D01*
X127855472Y-161376311D01*
X127844276Y-161311167D01*
X127757551Y-160937767D01*
X127644915Y-160722400D01*
X127505021Y-160655000D01*
X127432550Y-160696795D01*
X127393732Y-160842541D01*
X127381109Y-161122778D01*
X127381000Y-161163000D01*
X127376518Y-161444540D01*
X127352028Y-161596544D01*
X127290961Y-161658772D01*
X127176752Y-161670989D01*
X127169333Y-161671000D01*
X126957666Y-161671000D01*
X126957666Y-159935333D01*
X127381000Y-159935333D01*
X127393371Y-160190955D01*
X127446522Y-160296814D01*
X127564507Y-160271654D01*
X127700827Y-160184532D01*
X127852019Y-160003085D01*
X127871849Y-159803401D01*
X127774043Y-159637144D01*
X127572328Y-159555976D01*
X127533400Y-159554333D01*
X127436989Y-159585828D01*
X127391618Y-159707362D01*
X127381000Y-159935333D01*
X126957666Y-159935333D01*
X126957666Y-159131000D01*
X127427181Y-159131000D01*
X127730118Y-159146080D01*
G36*
X129468227Y-159143198D02*
X129677237Y-159193330D01*
X129851554Y-159301704D01*
X129924228Y-159363833D01*
X130161779Y-159683605D01*
X130289556Y-160092955D01*
X130302856Y-160548665D01*
X130196973Y-161007518D01*
X130121834Y-161179027D01*
X129930514Y-161445982D01*
X129665167Y-161602940D01*
X129291285Y-161667192D01*
X129140161Y-161671000D01*
X128651000Y-161671000D01*
X128651000Y-160401000D01*
X129074333Y-160401000D01*
X129075903Y-160785295D01*
X129085445Y-161031158D01*
X129110205Y-161169490D01*
X129157428Y-161231191D01*
X129234362Y-161247161D01*
X129272877Y-161247667D01*
X129476950Y-161186865D01*
X129632711Y-161069444D01*
X129737403Y-160892505D01*
X129786384Y-160630475D01*
X129794000Y-160401000D01*
X129748708Y-159985660D01*
X129614968Y-159706526D01*
X129395979Y-159568797D01*
X129272877Y-159554333D01*
X129182760Y-159561030D01*
X129125104Y-159601720D01*
X129092665Y-159707305D01*
X129078196Y-159908683D01*
X129074451Y-160236755D01*
X129074333Y-160401000D01*
X128651000Y-160401000D01*
X128651000Y-159131000D01*
X129157664Y-159131000D01*
X129468227Y-159143198D01*
X129468227Y-159143198D01*
G37*
X129468227Y-159143198D02*
X129677237Y-159193330D01*
X129851554Y-159301704D01*
X129924228Y-159363833D01*
X130161779Y-159683605D01*
X130289556Y-160092955D01*
X130302856Y-160548665D01*
X130196973Y-161007518D01*
X130121834Y-161179027D01*
X129930514Y-161445982D01*
X129665167Y-161602940D01*
X129291285Y-161667192D01*
X129140161Y-161671000D01*
X128651000Y-161671000D01*
X128651000Y-160401000D01*
X129074333Y-160401000D01*
X129075903Y-160785295D01*
X129085445Y-161031158D01*
X129110205Y-161169490D01*
X129157428Y-161231191D01*
X129234362Y-161247161D01*
X129272877Y-161247667D01*
X129476950Y-161186865D01*
X129632711Y-161069444D01*
X129737403Y-160892505D01*
X129786384Y-160630475D01*
X129794000Y-160401000D01*
X129748708Y-159985660D01*
X129614968Y-159706526D01*
X129395979Y-159568797D01*
X129272877Y-159554333D01*
X129182760Y-159561030D01*
X129125104Y-159601720D01*
X129092665Y-159707305D01*
X129078196Y-159908683D01*
X129074451Y-160236755D01*
X129074333Y-160401000D01*
X128651000Y-160401000D01*
X128651000Y-159131000D01*
X129157664Y-159131000D01*
X129468227Y-159143198D01*
G36*
X131106333Y-161671000D02*
X130598333Y-161671000D01*
X130598333Y-159131000D01*
X131106333Y-159131000D01*
X131106333Y-161671000D01*
X131106333Y-161671000D01*
G37*
X131106333Y-161671000D02*
X130598333Y-161671000D01*
X130598333Y-159131000D01*
X131106333Y-159131000D01*
X131106333Y-161671000D01*
G36*
X132362213Y-159140888D02*
X132426512Y-159188770D01*
X132482579Y-159296852D01*
X132541082Y-159488814D01*
X132612689Y-159788338D01*
X132708068Y-160219105D01*
X132757445Y-160443333D01*
X132846678Y-160843833D01*
X132924840Y-161188207D01*
X132983633Y-161440321D01*
X133014758Y-161564040D01*
X133015107Y-161565167D01*
X132970106Y-161646257D01*
X132800845Y-161671000D01*
X132628682Y-161648103D01*
X132541123Y-161546018D01*
X132497747Y-161374667D01*
X132442859Y-161175144D01*
X132342642Y-161093401D01*
X132159080Y-161078333D01*
X131965057Y-161096608D01*
X131870301Y-161185466D01*
X131820413Y-161374667D01*
X131763193Y-161575976D01*
X131662336Y-161657908D01*
X131522901Y-161671000D01*
X131346624Y-161640318D01*
X131314719Y-161565167D01*
X131345099Y-161447698D01*
X131405228Y-161198227D01*
X131487262Y-160849860D01*
X131558202Y-160544107D01*
X131975225Y-160544107D01*
X132007695Y-160633911D01*
X132122517Y-160654838D01*
X132146411Y-160655000D01*
X132258361Y-160646985D01*
X132309114Y-160596140D01*
X132308402Y-160462265D01*
X132265955Y-160205160D01*
X132261400Y-160180006D01*
X132206594Y-159930479D01*
X132156242Y-159836063D01*
X132104257Y-159900476D01*
X132044556Y-160127434D01*
X132003539Y-160337500D01*
X131975225Y-160544107D01*
X131558202Y-160544107D01*
X131583354Y-160435703D01*
X131615681Y-160295167D01*
X131882905Y-159131000D01*
X132166247Y-159131000D01*
X132279014Y-159129525D01*
X132362213Y-159140888D01*
X132362213Y-159140888D01*
G37*
X132362213Y-159140888D02*
X132426512Y-159188770D01*
X132482579Y-159296852D01*
X132541082Y-159488814D01*
X132612689Y-159788338D01*
X132708068Y-160219105D01*
X132757445Y-160443333D01*
X132846678Y-160843833D01*
X132924840Y-161188207D01*
X132983633Y-161440321D01*
X133014758Y-161564040D01*
X133015107Y-161565167D01*
X132970106Y-161646257D01*
X132800845Y-161671000D01*
X132628682Y-161648103D01*
X132541123Y-161546018D01*
X132497747Y-161374667D01*
X132442859Y-161175144D01*
X132342642Y-161093401D01*
X132159080Y-161078333D01*
X131965057Y-161096608D01*
X131870301Y-161185466D01*
X131820413Y-161374667D01*
X131763193Y-161575976D01*
X131662336Y-161657908D01*
X131522901Y-161671000D01*
X131346624Y-161640318D01*
X131314719Y-161565167D01*
X131345099Y-161447698D01*
X131405228Y-161198227D01*
X131487262Y-160849860D01*
X131558202Y-160544107D01*
X131975225Y-160544107D01*
X132007695Y-160633911D01*
X132122517Y-160654838D01*
X132146411Y-160655000D01*
X132258361Y-160646985D01*
X132309114Y-160596140D01*
X132308402Y-160462265D01*
X132265955Y-160205160D01*
X132261400Y-160180006D01*
X132206594Y-159930479D01*
X132156242Y-159836063D01*
X132104257Y-159900476D01*
X132044556Y-160127434D01*
X132003539Y-160337500D01*
X131975225Y-160544107D01*
X131558202Y-160544107D01*
X131583354Y-160435703D01*
X131615681Y-160295167D01*
X131882905Y-159131000D01*
X132166247Y-159131000D01*
X132279014Y-159129525D01*
X132362213Y-159140888D01*
G36*
X133633688Y-140988051D02*
X133868173Y-141152191D01*
X133979983Y-141394569D01*
X133985000Y-141464477D01*
X133934439Y-141698121D01*
X133794561Y-142029659D01*
X133583075Y-142425759D01*
X133317686Y-142853091D01*
X133033777Y-143254962D01*
X132647102Y-143731901D01*
X132146208Y-144292568D01*
X131551068Y-144917414D01*
X130881655Y-145586890D01*
X130157944Y-146281447D01*
X129399908Y-146981537D01*
X128627519Y-147667611D01*
X127860752Y-148320120D01*
X127846666Y-148331817D01*
X127549866Y-148579074D01*
X127274971Y-148809628D01*
X127068287Y-148984594D01*
X127021166Y-149025041D01*
X126788333Y-149226306D01*
X126788333Y-152587212D01*
X123885308Y-154457865D01*
X123251650Y-154865277D01*
X122658637Y-155244820D01*
X122122170Y-155586445D01*
X121658147Y-155880104D01*
X121282468Y-156115751D01*
X121011033Y-156283337D01*
X120859741Y-156372815D01*
X120836921Y-156384299D01*
X120706300Y-156365985D01*
X120458316Y-156252542D01*
X120087554Y-156041116D01*
X119588596Y-155728855D01*
X119569061Y-155716268D01*
X119174915Y-155464283D01*
X118823407Y-155243609D01*
X118542406Y-155071429D01*
X118359778Y-154964929D01*
X118310869Y-154940386D01*
X118168134Y-154953210D01*
X117925664Y-155041571D01*
X117634587Y-155185410D01*
X116976111Y-155524435D01*
X116203705Y-155884247D01*
X115352872Y-156251176D01*
X114459114Y-156611552D01*
X113557935Y-156951704D01*
X112684836Y-157257960D01*
X111875321Y-157516651D01*
X111164893Y-157714106D01*
X110912935Y-157773650D01*
X110294090Y-157884581D01*
X109742869Y-157932556D01*
X109286992Y-157917031D01*
X108954183Y-157837461D01*
X108903575Y-157813136D01*
X108681677Y-157612311D01*
X108597424Y-157324588D01*
X108651296Y-156949122D01*
X108843772Y-156485070D01*
X109175334Y-155931588D01*
X109646458Y-155287832D01*
X110257626Y-154552957D01*
X111009317Y-153726120D01*
X111539263Y-153173973D01*
X112026785Y-152688156D01*
X112514888Y-152226011D01*
X112987374Y-151800724D01*
X113428046Y-151425483D01*
X113820707Y-151113473D01*
X114149161Y-150877883D01*
X114397211Y-150731898D01*
X114548659Y-150688706D01*
X114576620Y-150701065D01*
X114546432Y-150779444D01*
X114412980Y-150930084D01*
X114213675Y-151112889D01*
X113536308Y-151707727D01*
X112855632Y-152341863D01*
X112193608Y-152992386D01*
X111572196Y-153636384D01*
X111013353Y-154250944D01*
X110539040Y-154813155D01*
X110171216Y-155300104D01*
X110100054Y-155405000D01*
X109783414Y-155935030D01*
X109570470Y-156403128D01*
X109467158Y-156792269D01*
X109479411Y-157085425D01*
X109497486Y-157133779D01*
X109680044Y-157334976D01*
X109998195Y-157443708D01*
X110446293Y-157460919D01*
X111018694Y-157387556D01*
X111709750Y-157224563D01*
X112513818Y-156972885D01*
X113425250Y-156633468D01*
X114066171Y-156368982D01*
X114521480Y-156170220D01*
X115017913Y-155946038D01*
X115532440Y-155707647D01*
X116042031Y-155466259D01*
X116523657Y-155233087D01*
X116954289Y-155019342D01*
X117310897Y-154836237D01*
X117570452Y-154694983D01*
X117592050Y-154681326D01*
X118728331Y-154681326D01*
X118794866Y-154749378D01*
X118969318Y-154883582D01*
X119216245Y-155059972D01*
X119500205Y-155254578D01*
X119785755Y-155443434D01*
X120037451Y-155602572D01*
X120219853Y-155708024D01*
X120290166Y-155737498D01*
X120314663Y-155661044D01*
X120334771Y-155447696D01*
X120348451Y-155129881D01*
X120353662Y-154740022D01*
X120353666Y-154728333D01*
X120350864Y-154336102D01*
X120343231Y-154014220D01*
X120331923Y-153795408D01*
X120318098Y-153712386D01*
X120317730Y-153712333D01*
X120216738Y-153753446D01*
X120015043Y-153861970D01*
X119749098Y-154015682D01*
X119455355Y-154192357D01*
X119170265Y-154369773D01*
X118930281Y-154525707D01*
X118771855Y-154637935D01*
X118728331Y-154681326D01*
X117592050Y-154681326D01*
X117709925Y-154606794D01*
X117727456Y-154586443D01*
X117658790Y-154522238D01*
X117467636Y-154382119D01*
X117174832Y-154180345D01*
X116801215Y-153931176D01*
X116367625Y-153648872D01*
X116202620Y-153543000D01*
X114679327Y-152569333D01*
X114718899Y-146410090D01*
X115017477Y-146410090D01*
X115039738Y-149397753D01*
X115062000Y-152385416D01*
X116621317Y-153387427D01*
X118180635Y-154389439D01*
X118822651Y-154038457D01*
X119190129Y-153832528D01*
X119566405Y-153613542D01*
X119877161Y-153424853D01*
X119909166Y-153404622D01*
X120353666Y-153121770D01*
X120353666Y-149844269D01*
X117877166Y-148251733D01*
X117289061Y-147873508D01*
X116739829Y-147520212D01*
X116247347Y-147203348D01*
X115829496Y-146934425D01*
X115504152Y-146724947D01*
X115289196Y-146586421D01*
X115209071Y-146534643D01*
X115017477Y-146410090D01*
X114718899Y-146410090D01*
X114721647Y-145982421D01*
X115016378Y-145982421D01*
X117866579Y-147815377D01*
X118489271Y-148215353D01*
X119066524Y-148585225D01*
X119583066Y-148915276D01*
X120023626Y-149195791D01*
X120372935Y-149417053D01*
X120615721Y-149569347D01*
X120736714Y-149642956D01*
X120747427Y-149648333D01*
X120823099Y-149604231D01*
X121025612Y-149478529D01*
X121339326Y-149281136D01*
X121748604Y-149021958D01*
X122237807Y-148710903D01*
X122791295Y-148357879D01*
X123393431Y-147972794D01*
X123508037Y-147899390D01*
X124121423Y-147505722D01*
X124691945Y-147138214D01*
X125203381Y-146807416D01*
X125639510Y-146523880D01*
X125984112Y-146298155D01*
X126220966Y-146140792D01*
X126333851Y-146062341D01*
X126339245Y-146057890D01*
X126327979Y-146009122D01*
X126228666Y-145913418D01*
X126032532Y-145764856D01*
X125730805Y-145557515D01*
X125314710Y-145285472D01*
X124775476Y-144942807D01*
X124690680Y-144889842D01*
X125417080Y-144889842D01*
X126099704Y-145300588D01*
X126782329Y-145711333D01*
X126785331Y-146988389D01*
X126789728Y-147436943D01*
X126799845Y-147823802D01*
X126814383Y-148118140D01*
X126832040Y-148289130D01*
X126841468Y-148318579D01*
X126926509Y-148287427D01*
X127123615Y-148149896D01*
X127421430Y-147915541D01*
X127808596Y-147593918D01*
X128273758Y-147194582D01*
X128805559Y-146727088D01*
X129392642Y-146200992D01*
X129820494Y-145812042D01*
X130609603Y-145073207D01*
X131263609Y-144421591D01*
X131788048Y-143850106D01*
X132188457Y-143351664D01*
X132470373Y-142919176D01*
X132639334Y-142545553D01*
X132700876Y-142223709D01*
X132698556Y-142127661D01*
X132668531Y-141924709D01*
X132588404Y-141830885D01*
X132404527Y-141794988D01*
X132344468Y-141789751D01*
X132054397Y-141805959D01*
X131663011Y-141896157D01*
X131163051Y-142063206D01*
X130547258Y-142309965D01*
X129808374Y-142639297D01*
X128939138Y-143054063D01*
X128185333Y-143428960D01*
X127608145Y-143721212D01*
X127067678Y-143996934D01*
X126586088Y-144244663D01*
X126185531Y-144452935D01*
X125888164Y-144610286D01*
X125716143Y-144705252D01*
X125700540Y-144714626D01*
X125417080Y-144889842D01*
X124690680Y-144889842D01*
X124104327Y-144523598D01*
X123640909Y-144236722D01*
X123017737Y-143853479D01*
X122437938Y-143499861D01*
X121917642Y-143185485D01*
X121472980Y-142919968D01*
X121120084Y-142712927D01*
X120875083Y-142573978D01*
X120754109Y-142512738D01*
X120745664Y-142510650D01*
X120653785Y-142554249D01*
X120434930Y-142677143D01*
X120105973Y-142869291D01*
X119683788Y-143120652D01*
X119185248Y-143421183D01*
X118627228Y-143760844D01*
X118067666Y-144104285D01*
X117461405Y-144477805D01*
X116892612Y-144828190D01*
X116379420Y-145144276D01*
X115939961Y-145414894D01*
X115592368Y-145628881D01*
X115354774Y-145775068D01*
X115250856Y-145838901D01*
X115016378Y-145982421D01*
X114721647Y-145982421D01*
X114723333Y-145720081D01*
X116967000Y-144340489D01*
X117566954Y-143971782D01*
X118160135Y-143607596D01*
X118720247Y-143264049D01*
X119220994Y-142957259D01*
X119636080Y-142703344D01*
X119939209Y-142518422D01*
X119989581Y-142487797D01*
X120768496Y-142014697D01*
X123026663Y-143409359D01*
X125284829Y-144804021D01*
X126100081Y-144275688D01*
X126834798Y-143816890D01*
X127613085Y-143362180D01*
X128415644Y-142920523D01*
X129223173Y-142500882D01*
X130016374Y-142112221D01*
X130775948Y-141763503D01*
X131482594Y-141463692D01*
X132117013Y-141221751D01*
X132659906Y-141046645D01*
X133091974Y-140947336D01*
X133308679Y-140927667D01*
X133633688Y-140988051D01*
X133633688Y-140988051D01*
G37*
X133633688Y-140988051D02*
X133868173Y-141152191D01*
X133979983Y-141394569D01*
X133985000Y-141464477D01*
X133934439Y-141698121D01*
X133794561Y-142029659D01*
X133583075Y-142425759D01*
X133317686Y-142853091D01*
X133033777Y-143254962D01*
X132647102Y-143731901D01*
X132146208Y-144292568D01*
X131551068Y-144917414D01*
X130881655Y-145586890D01*
X130157944Y-146281447D01*
X129399908Y-146981537D01*
X128627519Y-147667611D01*
X127860752Y-148320120D01*
X127846666Y-148331817D01*
X127549866Y-148579074D01*
X127274971Y-148809628D01*
X127068287Y-148984594D01*
X127021166Y-149025041D01*
X126788333Y-149226306D01*
X126788333Y-152587212D01*
X123885308Y-154457865D01*
X123251650Y-154865277D01*
X122658637Y-155244820D01*
X122122170Y-155586445D01*
X121658147Y-155880104D01*
X121282468Y-156115751D01*
X121011033Y-156283337D01*
X120859741Y-156372815D01*
X120836921Y-156384299D01*
X120706300Y-156365985D01*
X120458316Y-156252542D01*
X120087554Y-156041116D01*
X119588596Y-155728855D01*
X119569061Y-155716268D01*
X119174915Y-155464283D01*
X118823407Y-155243609D01*
X118542406Y-155071429D01*
X118359778Y-154964929D01*
X118310869Y-154940386D01*
X118168134Y-154953210D01*
X117925664Y-155041571D01*
X117634587Y-155185410D01*
X116976111Y-155524435D01*
X116203705Y-155884247D01*
X115352872Y-156251176D01*
X114459114Y-156611552D01*
X113557935Y-156951704D01*
X112684836Y-157257960D01*
X111875321Y-157516651D01*
X111164893Y-157714106D01*
X110912935Y-157773650D01*
X110294090Y-157884581D01*
X109742869Y-157932556D01*
X109286992Y-157917031D01*
X108954183Y-157837461D01*
X108903575Y-157813136D01*
X108681677Y-157612311D01*
X108597424Y-157324588D01*
X108651296Y-156949122D01*
X108843772Y-156485070D01*
X109175334Y-155931588D01*
X109646458Y-155287832D01*
X110257626Y-154552957D01*
X111009317Y-153726120D01*
X111539263Y-153173973D01*
X112026785Y-152688156D01*
X112514888Y-152226011D01*
X112987374Y-151800724D01*
X113428046Y-151425483D01*
X113820707Y-151113473D01*
X114149161Y-150877883D01*
X114397211Y-150731898D01*
X114548659Y-150688706D01*
X114576620Y-150701065D01*
X114546432Y-150779444D01*
X114412980Y-150930084D01*
X114213675Y-151112889D01*
X113536308Y-151707727D01*
X112855632Y-152341863D01*
X112193608Y-152992386D01*
X111572196Y-153636384D01*
X111013353Y-154250944D01*
X110539040Y-154813155D01*
X110171216Y-155300104D01*
X110100054Y-155405000D01*
X109783414Y-155935030D01*
X109570470Y-156403128D01*
X109467158Y-156792269D01*
X109479411Y-157085425D01*
X109497486Y-157133779D01*
X109680044Y-157334976D01*
X109998195Y-157443708D01*
X110446293Y-157460919D01*
X111018694Y-157387556D01*
X111709750Y-157224563D01*
X112513818Y-156972885D01*
X113425250Y-156633468D01*
X114066171Y-156368982D01*
X114521480Y-156170220D01*
X115017913Y-155946038D01*
X115532440Y-155707647D01*
X116042031Y-155466259D01*
X116523657Y-155233087D01*
X116954289Y-155019342D01*
X117310897Y-154836237D01*
X117570452Y-154694983D01*
X117592050Y-154681326D01*
X118728331Y-154681326D01*
X118794866Y-154749378D01*
X118969318Y-154883582D01*
X119216245Y-155059972D01*
X119500205Y-155254578D01*
X119785755Y-155443434D01*
X120037451Y-155602572D01*
X120219853Y-155708024D01*
X120290166Y-155737498D01*
X120314663Y-155661044D01*
X120334771Y-155447696D01*
X120348451Y-155129881D01*
X120353662Y-154740022D01*
X120353666Y-154728333D01*
X120350864Y-154336102D01*
X120343231Y-154014220D01*
X120331923Y-153795408D01*
X120318098Y-153712386D01*
X120317730Y-153712333D01*
X120216738Y-153753446D01*
X120015043Y-153861970D01*
X119749098Y-154015682D01*
X119455355Y-154192357D01*
X119170265Y-154369773D01*
X118930281Y-154525707D01*
X118771855Y-154637935D01*
X118728331Y-154681326D01*
X117592050Y-154681326D01*
X117709925Y-154606794D01*
X117727456Y-154586443D01*
X117658790Y-154522238D01*
X117467636Y-154382119D01*
X117174832Y-154180345D01*
X116801215Y-153931176D01*
X116367625Y-153648872D01*
X116202620Y-153543000D01*
X114679327Y-152569333D01*
X114718899Y-146410090D01*
X115017477Y-146410090D01*
X115039738Y-149397753D01*
X115062000Y-152385416D01*
X116621317Y-153387427D01*
X118180635Y-154389439D01*
X118822651Y-154038457D01*
X119190129Y-153832528D01*
X119566405Y-153613542D01*
X119877161Y-153424853D01*
X119909166Y-153404622D01*
X120353666Y-153121770D01*
X120353666Y-149844269D01*
X117877166Y-148251733D01*
X117289061Y-147873508D01*
X116739829Y-147520212D01*
X116247347Y-147203348D01*
X115829496Y-146934425D01*
X115504152Y-146724947D01*
X115289196Y-146586421D01*
X115209071Y-146534643D01*
X115017477Y-146410090D01*
X114718899Y-146410090D01*
X114721647Y-145982421D01*
X115016378Y-145982421D01*
X117866579Y-147815377D01*
X118489271Y-148215353D01*
X119066524Y-148585225D01*
X119583066Y-148915276D01*
X120023626Y-149195791D01*
X120372935Y-149417053D01*
X120615721Y-149569347D01*
X120736714Y-149642956D01*
X120747427Y-149648333D01*
X120823099Y-149604231D01*
X121025612Y-149478529D01*
X121339326Y-149281136D01*
X121748604Y-149021958D01*
X122237807Y-148710903D01*
X122791295Y-148357879D01*
X123393431Y-147972794D01*
X123508037Y-147899390D01*
X124121423Y-147505722D01*
X124691945Y-147138214D01*
X125203381Y-146807416D01*
X125639510Y-146523880D01*
X125984112Y-146298155D01*
X126220966Y-146140792D01*
X126333851Y-146062341D01*
X126339245Y-146057890D01*
X126327979Y-146009122D01*
X126228666Y-145913418D01*
X126032532Y-145764856D01*
X125730805Y-145557515D01*
X125314710Y-145285472D01*
X124775476Y-144942807D01*
X124690680Y-144889842D01*
X125417080Y-144889842D01*
X126099704Y-145300588D01*
X126782329Y-145711333D01*
X126785331Y-146988389D01*
X126789728Y-147436943D01*
X126799845Y-147823802D01*
X126814383Y-148118140D01*
X126832040Y-148289130D01*
X126841468Y-148318579D01*
X126926509Y-148287427D01*
X127123615Y-148149896D01*
X127421430Y-147915541D01*
X127808596Y-147593918D01*
X128273758Y-147194582D01*
X128805559Y-146727088D01*
X129392642Y-146200992D01*
X129820494Y-145812042D01*
X130609603Y-145073207D01*
X131263609Y-144421591D01*
X131788048Y-143850106D01*
X132188457Y-143351664D01*
X132470373Y-142919176D01*
X132639334Y-142545553D01*
X132700876Y-142223709D01*
X132698556Y-142127661D01*
X132668531Y-141924709D01*
X132588404Y-141830885D01*
X132404527Y-141794988D01*
X132344468Y-141789751D01*
X132054397Y-141805959D01*
X131663011Y-141896157D01*
X131163051Y-142063206D01*
X130547258Y-142309965D01*
X129808374Y-142639297D01*
X128939138Y-143054063D01*
X128185333Y-143428960D01*
X127608145Y-143721212D01*
X127067678Y-143996934D01*
X126586088Y-144244663D01*
X126185531Y-144452935D01*
X125888164Y-144610286D01*
X125716143Y-144705252D01*
X125700540Y-144714626D01*
X125417080Y-144889842D01*
X124690680Y-144889842D01*
X124104327Y-144523598D01*
X123640909Y-144236722D01*
X123017737Y-143853479D01*
X122437938Y-143499861D01*
X121917642Y-143185485D01*
X121472980Y-142919968D01*
X121120084Y-142712927D01*
X120875083Y-142573978D01*
X120754109Y-142512738D01*
X120745664Y-142510650D01*
X120653785Y-142554249D01*
X120434930Y-142677143D01*
X120105973Y-142869291D01*
X119683788Y-143120652D01*
X119185248Y-143421183D01*
X118627228Y-143760844D01*
X118067666Y-144104285D01*
X117461405Y-144477805D01*
X116892612Y-144828190D01*
X116379420Y-145144276D01*
X115939961Y-145414894D01*
X115592368Y-145628881D01*
X115354774Y-145775068D01*
X115250856Y-145838901D01*
X115016378Y-145982421D01*
X114721647Y-145982421D01*
X114723333Y-145720081D01*
X116967000Y-144340489D01*
X117566954Y-143971782D01*
X118160135Y-143607596D01*
X118720247Y-143264049D01*
X119220994Y-142957259D01*
X119636080Y-142703344D01*
X119939209Y-142518422D01*
X119989581Y-142487797D01*
X120768496Y-142014697D01*
X123026663Y-143409359D01*
X125284829Y-144804021D01*
X126100081Y-144275688D01*
X126834798Y-143816890D01*
X127613085Y-143362180D01*
X128415644Y-142920523D01*
X129223173Y-142500882D01*
X130016374Y-142112221D01*
X130775948Y-141763503D01*
X131482594Y-141463692D01*
X132117013Y-141221751D01*
X132659906Y-141046645D01*
X133091974Y-140947336D01*
X133308679Y-140927667D01*
X133633688Y-140988051D01*
D12*
X16703272Y-23193333D02*
X17417558Y-23193333D01*
X17560415Y-23240953D01*
X17655653Y-23336191D01*
X17703272Y-23479048D01*
X17703272Y-23574286D01*
X16703272Y-22240952D02*
X16703272Y-22717143D01*
X17179462Y-22764762D01*
X17131843Y-22717143D01*
X17084224Y-22621905D01*
X17084224Y-22383809D01*
X17131843Y-22288571D01*
X17179462Y-22240952D01*
X17274701Y-22193333D01*
X17512796Y-22193333D01*
X17608034Y-22240952D01*
X17655653Y-22288571D01*
X17703272Y-22383809D01*
X17703272Y-22621905D01*
X17655653Y-22717143D01*
X17608034Y-22764762D01*
X16703272Y-45576812D02*
X17417558Y-45576812D01*
X17560415Y-45624432D01*
X17655653Y-45719670D01*
X17703272Y-45862527D01*
X17703272Y-45957765D01*
X16703272Y-44672050D02*
X16703272Y-44862527D01*
X16750891Y-44957765D01*
X16798510Y-45005384D01*
X16941367Y-45100622D01*
X17131843Y-45148241D01*
X17512796Y-45148241D01*
X17608034Y-45100622D01*
X17655653Y-45053003D01*
X17703272Y-44957765D01*
X17703272Y-44767288D01*
X17655653Y-44672050D01*
X17608034Y-44624431D01*
X17512796Y-44576812D01*
X17274701Y-44576812D01*
X17179462Y-44624431D01*
X17131843Y-44672050D01*
X17084224Y-44767288D01*
X17084224Y-44957765D01*
X17131843Y-45053003D01*
X17179462Y-45100622D01*
X17274701Y-45148241D01*
X16597381Y-67508333D02*
X17311667Y-67508333D01*
X17454524Y-67555953D01*
X17549762Y-67651191D01*
X17597381Y-67794048D01*
X17597381Y-67889286D01*
X16597381Y-67127381D02*
X16597381Y-66460714D01*
X17597381Y-66889286D01*
X69088095Y-27402381D02*
X69088095Y-28211905D01*
X69135714Y-28307143D01*
X69183333Y-28354762D01*
X69278571Y-28402381D01*
X69469048Y-28402381D01*
X69564286Y-28354762D01*
X69611905Y-28307143D01*
X69659524Y-28211905D01*
X69659524Y-27402381D01*
X70659524Y-28402381D02*
X70088095Y-28402381D01*
X70373809Y-28402381D02*
X70373809Y-27402381D01*
X70278571Y-27545238D01*
X70183333Y-27640476D01*
X70088095Y-27688095D01*
X73326667Y-40302381D02*
X73326667Y-41016667D01*
X73279047Y-41159524D01*
X73183809Y-41254762D01*
X73040952Y-41302381D01*
X72945714Y-41302381D01*
X73707619Y-40302381D02*
X74326667Y-40302381D01*
X73993333Y-40683333D01*
X74136191Y-40683333D01*
X74231429Y-40730952D01*
X74279048Y-40778571D01*
X74326667Y-40873810D01*
X74326667Y-41111905D01*
X74279048Y-41207143D01*
X74231429Y-41254762D01*
X74136191Y-41302381D01*
X73850476Y-41302381D01*
X73755238Y-41254762D01*
X73707619Y-41207143D01*
X99909334Y-78692143D02*
X99861715Y-78739762D01*
X99718858Y-78787381D01*
X99623620Y-78787381D01*
X99480762Y-78739762D01*
X99385524Y-78644524D01*
X99337905Y-78549286D01*
X99290286Y-78358810D01*
X99290286Y-78215952D01*
X99337905Y-78025476D01*
X99385524Y-77930238D01*
X99480762Y-77835000D01*
X99623620Y-77787381D01*
X99718858Y-77787381D01*
X99861715Y-77835000D01*
X99909334Y-77882619D01*
X100861715Y-78787381D02*
X100290286Y-78787381D01*
X100576000Y-78787381D02*
X100576000Y-77787381D01*
X100480762Y-77930238D01*
X100385524Y-78025476D01*
X100290286Y-78073095D01*
X101933143Y-89082666D02*
X101980762Y-89130285D01*
X102028381Y-89273142D01*
X102028381Y-89368380D01*
X101980762Y-89511238D01*
X101885524Y-89606476D01*
X101790286Y-89654095D01*
X101599810Y-89701714D01*
X101456952Y-89701714D01*
X101266476Y-89654095D01*
X101171238Y-89606476D01*
X101076000Y-89511238D01*
X101028381Y-89368380D01*
X101028381Y-89273142D01*
X101076000Y-89130285D01*
X101123619Y-89082666D01*
X101123619Y-88701714D02*
X101076000Y-88654095D01*
X101028381Y-88558857D01*
X101028381Y-88320761D01*
X101076000Y-88225523D01*
X101123619Y-88177904D01*
X101218857Y-88130285D01*
X101314095Y-88130285D01*
X101456952Y-88177904D01*
X102028381Y-88749333D01*
X102028381Y-88130285D01*
X93956143Y-89209666D02*
X94003762Y-89257285D01*
X94051381Y-89400142D01*
X94051381Y-89495380D01*
X94003762Y-89638238D01*
X93908524Y-89733476D01*
X93813286Y-89781095D01*
X93622810Y-89828714D01*
X93479952Y-89828714D01*
X93289476Y-89781095D01*
X93194238Y-89733476D01*
X93099000Y-89638238D01*
X93051381Y-89495380D01*
X93051381Y-89400142D01*
X93099000Y-89257285D01*
X93146619Y-89209666D01*
X93051381Y-88876333D02*
X93051381Y-88257285D01*
X93432333Y-88590619D01*
X93432333Y-88447761D01*
X93479952Y-88352523D01*
X93527571Y-88304904D01*
X93622810Y-88257285D01*
X93860905Y-88257285D01*
X93956143Y-88304904D01*
X94003762Y-88352523D01*
X94051381Y-88447761D01*
X94051381Y-88733476D01*
X94003762Y-88828714D01*
X93956143Y-88876333D01*
X72858334Y-16232143D02*
X72810715Y-16279762D01*
X72667858Y-16327381D01*
X72572620Y-16327381D01*
X72429762Y-16279762D01*
X72334524Y-16184524D01*
X72286905Y-16089286D01*
X72239286Y-15898810D01*
X72239286Y-15755952D01*
X72286905Y-15565476D01*
X72334524Y-15470238D01*
X72429762Y-15375000D01*
X72572620Y-15327381D01*
X72667858Y-15327381D01*
X72810715Y-15375000D01*
X72858334Y-15422619D01*
X73715477Y-15660714D02*
X73715477Y-16327381D01*
X73477381Y-15279762D02*
X73239286Y-15994048D01*
X73858334Y-15994048D01*
X72223334Y-22582143D02*
X72175715Y-22629762D01*
X72032858Y-22677381D01*
X71937620Y-22677381D01*
X71794762Y-22629762D01*
X71699524Y-22534524D01*
X71651905Y-22439286D01*
X71604286Y-22248810D01*
X71604286Y-22105952D01*
X71651905Y-21915476D01*
X71699524Y-21820238D01*
X71794762Y-21725000D01*
X71937620Y-21677381D01*
X72032858Y-21677381D01*
X72175715Y-21725000D01*
X72223334Y-21772619D01*
X73128096Y-21677381D02*
X72651905Y-21677381D01*
X72604286Y-22153571D01*
X72651905Y-22105952D01*
X72747143Y-22058333D01*
X72985239Y-22058333D01*
X73080477Y-22105952D01*
X73128096Y-22153571D01*
X73175715Y-22248810D01*
X73175715Y-22486905D01*
X73128096Y-22582143D01*
X73080477Y-22629762D01*
X72985239Y-22677381D01*
X72747143Y-22677381D01*
X72651905Y-22629762D01*
X72604286Y-22582143D01*
X72223334Y-29948143D02*
X72175715Y-29995762D01*
X72032858Y-30043381D01*
X71937620Y-30043381D01*
X71794762Y-29995762D01*
X71699524Y-29900524D01*
X71651905Y-29805286D01*
X71604286Y-29614810D01*
X71604286Y-29471952D01*
X71651905Y-29281476D01*
X71699524Y-29186238D01*
X71794762Y-29091000D01*
X71937620Y-29043381D01*
X72032858Y-29043381D01*
X72175715Y-29091000D01*
X72223334Y-29138619D01*
X73080477Y-29043381D02*
X72890000Y-29043381D01*
X72794762Y-29091000D01*
X72747143Y-29138619D01*
X72651905Y-29281476D01*
X72604286Y-29471952D01*
X72604286Y-29852905D01*
X72651905Y-29948143D01*
X72699524Y-29995762D01*
X72794762Y-30043381D01*
X72985239Y-30043381D01*
X73080477Y-29995762D01*
X73128096Y-29948143D01*
X73175715Y-29852905D01*
X73175715Y-29614810D01*
X73128096Y-29519571D01*
X73080477Y-29471952D01*
X72985239Y-29424333D01*
X72794762Y-29424333D01*
X72699524Y-29471952D01*
X72651905Y-29519571D01*
X72604286Y-29614810D01*
X73406143Y-78668666D02*
X73453762Y-78716285D01*
X73501381Y-78859142D01*
X73501381Y-78954380D01*
X73453762Y-79097238D01*
X73358524Y-79192476D01*
X73263286Y-79240095D01*
X73072810Y-79287714D01*
X72929952Y-79287714D01*
X72739476Y-79240095D01*
X72644238Y-79192476D01*
X72549000Y-79097238D01*
X72501381Y-78954380D01*
X72501381Y-78859142D01*
X72549000Y-78716285D01*
X72596619Y-78668666D01*
X72501381Y-78335333D02*
X72501381Y-77668666D01*
X73501381Y-78097238D01*
X69469143Y-78636666D02*
X69516762Y-78684285D01*
X69564381Y-78827142D01*
X69564381Y-78922380D01*
X69516762Y-79065238D01*
X69421524Y-79160476D01*
X69326286Y-79208095D01*
X69135810Y-79255714D01*
X68992952Y-79255714D01*
X68802476Y-79208095D01*
X68707238Y-79160476D01*
X68612000Y-79065238D01*
X68564381Y-78922380D01*
X68564381Y-78827142D01*
X68612000Y-78684285D01*
X68659619Y-78636666D01*
X68992952Y-78065238D02*
X68945333Y-78160476D01*
X68897714Y-78208095D01*
X68802476Y-78255714D01*
X68754857Y-78255714D01*
X68659619Y-78208095D01*
X68612000Y-78160476D01*
X68564381Y-78065238D01*
X68564381Y-77874761D01*
X68612000Y-77779523D01*
X68659619Y-77731904D01*
X68754857Y-77684285D01*
X68802476Y-77684285D01*
X68897714Y-77731904D01*
X68945333Y-77779523D01*
X68992952Y-77874761D01*
X68992952Y-78065238D01*
X69040571Y-78160476D01*
X69088190Y-78208095D01*
X69183429Y-78255714D01*
X69373905Y-78255714D01*
X69469143Y-78208095D01*
X69516762Y-78160476D01*
X69564381Y-78065238D01*
X69564381Y-77874761D01*
X69516762Y-77779523D01*
X69469143Y-77731904D01*
X69373905Y-77684285D01*
X69183429Y-77684285D01*
X69088190Y-77731904D01*
X69040571Y-77779523D01*
X68992952Y-77874761D01*
X85066143Y-79147918D02*
X85113762Y-79195537D01*
X85161381Y-79338394D01*
X85161381Y-79433632D01*
X85113762Y-79576490D01*
X85018524Y-79671728D01*
X84923286Y-79719347D01*
X84732810Y-79766966D01*
X84589952Y-79766966D01*
X84399476Y-79719347D01*
X84304238Y-79671728D01*
X84209000Y-79576490D01*
X84161381Y-79433632D01*
X84161381Y-79338394D01*
X84209000Y-79195537D01*
X84256619Y-79147918D01*
X85161381Y-78671728D02*
X85161381Y-78481252D01*
X85113762Y-78386013D01*
X85066143Y-78338394D01*
X84923286Y-78243156D01*
X84732810Y-78195537D01*
X84351857Y-78195537D01*
X84256619Y-78243156D01*
X84209000Y-78290775D01*
X84161381Y-78386013D01*
X84161381Y-78576490D01*
X84209000Y-78671728D01*
X84256619Y-78719347D01*
X84351857Y-78766966D01*
X84589952Y-78766966D01*
X84685190Y-78719347D01*
X84732810Y-78671728D01*
X84780429Y-78576490D01*
X84780429Y-78386013D01*
X84732810Y-78290775D01*
X84685190Y-78243156D01*
X84589952Y-78195537D01*
X76811143Y-79624109D02*
X76858762Y-79671728D01*
X76906381Y-79814585D01*
X76906381Y-79909823D01*
X76858762Y-80052681D01*
X76763524Y-80147919D01*
X76668286Y-80195538D01*
X76477810Y-80243157D01*
X76334952Y-80243157D01*
X76144476Y-80195538D01*
X76049238Y-80147919D01*
X75954000Y-80052681D01*
X75906381Y-79909823D01*
X75906381Y-79814585D01*
X75954000Y-79671728D01*
X76001619Y-79624109D01*
X76906381Y-78671728D02*
X76906381Y-79243157D01*
X76906381Y-78957443D02*
X75906381Y-78957443D01*
X76049238Y-79052681D01*
X76144476Y-79147919D01*
X76192095Y-79243157D01*
X75906381Y-78052681D02*
X75906381Y-77957442D01*
X75954000Y-77862204D01*
X76001619Y-77814585D01*
X76096857Y-77766966D01*
X76287333Y-77719347D01*
X76525429Y-77719347D01*
X76715905Y-77766966D01*
X76811143Y-77814585D01*
X76858762Y-77862204D01*
X76906381Y-77957442D01*
X76906381Y-78052681D01*
X76858762Y-78147919D01*
X76811143Y-78195538D01*
X76715905Y-78243157D01*
X76525429Y-78290776D01*
X76287333Y-78290776D01*
X76096857Y-78243157D01*
X76001619Y-78195538D01*
X75954000Y-78147919D01*
X75906381Y-78052681D01*
X85717143Y-111823133D02*
X85669524Y-111870752D01*
X85526667Y-111918371D01*
X85431429Y-111918371D01*
X85288571Y-111870752D01*
X85193333Y-111775514D01*
X85145714Y-111680276D01*
X85098095Y-111489800D01*
X85098095Y-111346942D01*
X85145714Y-111156466D01*
X85193333Y-111061228D01*
X85288571Y-110965990D01*
X85431429Y-110918371D01*
X85526667Y-110918371D01*
X85669524Y-110965990D01*
X85717143Y-111013609D01*
X86669524Y-111918371D02*
X86098095Y-111918371D01*
X86383809Y-111918371D02*
X86383809Y-110918371D01*
X86288571Y-111061228D01*
X86193333Y-111156466D01*
X86098095Y-111204085D01*
X87621905Y-111918371D02*
X87050476Y-111918371D01*
X87336190Y-111918371D02*
X87336190Y-110918371D01*
X87240952Y-111061228D01*
X87145714Y-111156466D01*
X87050476Y-111204085D01*
X93591143Y-93726143D02*
X93543524Y-93773762D01*
X93400667Y-93821381D01*
X93305429Y-93821381D01*
X93162571Y-93773762D01*
X93067333Y-93678524D01*
X93019714Y-93583286D01*
X92972095Y-93392810D01*
X92972095Y-93249952D01*
X93019714Y-93059476D01*
X93067333Y-92964238D01*
X93162571Y-92869000D01*
X93305429Y-92821381D01*
X93400667Y-92821381D01*
X93543524Y-92869000D01*
X93591143Y-92916619D01*
X94543524Y-93821381D02*
X93972095Y-93821381D01*
X94257809Y-93821381D02*
X94257809Y-92821381D01*
X94162571Y-92964238D01*
X94067333Y-93059476D01*
X93972095Y-93107095D01*
X95019714Y-93821381D02*
X95210190Y-93821381D01*
X95305429Y-93773762D01*
X95353048Y-93726143D01*
X95448286Y-93583286D01*
X95495905Y-93392810D01*
X95495905Y-93011857D01*
X95448286Y-92916619D01*
X95400667Y-92869000D01*
X95305429Y-92821381D01*
X95114952Y-92821381D01*
X95019714Y-92869000D01*
X94972095Y-92916619D01*
X94924476Y-93011857D01*
X94924476Y-93249952D01*
X94972095Y-93345190D01*
X95019714Y-93392810D01*
X95114952Y-93440429D01*
X95305429Y-93440429D01*
X95400667Y-93392810D01*
X95448286Y-93345190D01*
X95495905Y-93249952D01*
X104751143Y-103766857D02*
X104798762Y-103814476D01*
X104846381Y-103957333D01*
X104846381Y-104052571D01*
X104798762Y-104195429D01*
X104703524Y-104290667D01*
X104608286Y-104338286D01*
X104417810Y-104385905D01*
X104274952Y-104385905D01*
X104084476Y-104338286D01*
X103989238Y-104290667D01*
X103894000Y-104195429D01*
X103846381Y-104052571D01*
X103846381Y-103957333D01*
X103894000Y-103814476D01*
X103941619Y-103766857D01*
X103941619Y-103385905D02*
X103894000Y-103338286D01*
X103846381Y-103243048D01*
X103846381Y-103004952D01*
X103894000Y-102909714D01*
X103941619Y-102862095D01*
X104036857Y-102814476D01*
X104132095Y-102814476D01*
X104274952Y-102862095D01*
X104846381Y-103433524D01*
X104846381Y-102814476D01*
X103846381Y-102195429D02*
X103846381Y-102100190D01*
X103894000Y-102004952D01*
X103941619Y-101957333D01*
X104036857Y-101909714D01*
X104227333Y-101862095D01*
X104465429Y-101862095D01*
X104655905Y-101909714D01*
X104751143Y-101957333D01*
X104798762Y-102004952D01*
X104846381Y-102100190D01*
X104846381Y-102195429D01*
X104798762Y-102290667D01*
X104751143Y-102338286D01*
X104655905Y-102385905D01*
X104465429Y-102433524D01*
X104227333Y-102433524D01*
X104036857Y-102385905D01*
X103941619Y-102338286D01*
X103894000Y-102290667D01*
X103846381Y-102195429D01*
X91289143Y-101353857D02*
X91336762Y-101401476D01*
X91384381Y-101544333D01*
X91384381Y-101639571D01*
X91336762Y-101782429D01*
X91241524Y-101877667D01*
X91146286Y-101925286D01*
X90955810Y-101972905D01*
X90812952Y-101972905D01*
X90622476Y-101925286D01*
X90527238Y-101877667D01*
X90432000Y-101782429D01*
X90384381Y-101639571D01*
X90384381Y-101544333D01*
X90432000Y-101401476D01*
X90479619Y-101353857D01*
X90479619Y-100972905D02*
X90432000Y-100925286D01*
X90384381Y-100830048D01*
X90384381Y-100591952D01*
X90432000Y-100496714D01*
X90479619Y-100449095D01*
X90574857Y-100401476D01*
X90670095Y-100401476D01*
X90812952Y-100449095D01*
X91384381Y-101020524D01*
X91384381Y-100401476D01*
X91384381Y-99449095D02*
X91384381Y-100020524D01*
X91384381Y-99734810D02*
X90384381Y-99734810D01*
X90527238Y-99830048D01*
X90622476Y-99925286D01*
X90670095Y-100020524D01*
X75231667Y-18712381D02*
X75231667Y-19426667D01*
X75184047Y-19569524D01*
X75088809Y-19664762D01*
X74945952Y-19712381D01*
X74850714Y-19712381D01*
X76231667Y-19712381D02*
X75660238Y-19712381D01*
X75945952Y-19712381D02*
X75945952Y-18712381D01*
X75850714Y-18855238D01*
X75755476Y-18950476D01*
X75660238Y-18998095D01*
X77288541Y-22869785D02*
X78002827Y-22869785D01*
X78145684Y-22917405D01*
X78240922Y-23012643D01*
X78288541Y-23155500D01*
X78288541Y-23250738D01*
X77383779Y-22441214D02*
X77336160Y-22393595D01*
X77288541Y-22298357D01*
X77288541Y-22060261D01*
X77336160Y-21965023D01*
X77383779Y-21917404D01*
X77479017Y-21869785D01*
X77574255Y-21869785D01*
X77717112Y-21917404D01*
X78288541Y-22488833D01*
X78288541Y-21869785D01*
X77132381Y-62563333D02*
X77846667Y-62563333D01*
X77989524Y-62610953D01*
X78084762Y-62706191D01*
X78132381Y-62849048D01*
X78132381Y-62944286D01*
X77465714Y-61658571D02*
X78132381Y-61658571D01*
X77084762Y-61896667D02*
X77799048Y-62134762D01*
X77799048Y-61515714D01*
X48816667Y-31577381D02*
X48816667Y-32291667D01*
X48769047Y-32434524D01*
X48673809Y-32529762D01*
X48530952Y-32577381D01*
X48435714Y-32577381D01*
X49435714Y-32005952D02*
X49340476Y-31958333D01*
X49292857Y-31910714D01*
X49245238Y-31815476D01*
X49245238Y-31767857D01*
X49292857Y-31672619D01*
X49340476Y-31625000D01*
X49435714Y-31577381D01*
X49626191Y-31577381D01*
X49721429Y-31625000D01*
X49769048Y-31672619D01*
X49816667Y-31767857D01*
X49816667Y-31815476D01*
X49769048Y-31910714D01*
X49721429Y-31958333D01*
X49626191Y-32005952D01*
X49435714Y-32005952D01*
X49340476Y-32053571D01*
X49292857Y-32101190D01*
X49245238Y-32196429D01*
X49245238Y-32386905D01*
X49292857Y-32482143D01*
X49340476Y-32529762D01*
X49435714Y-32577381D01*
X49626191Y-32577381D01*
X49721429Y-32529762D01*
X49769048Y-32482143D01*
X49816667Y-32386905D01*
X49816667Y-32196429D01*
X49769048Y-32101190D01*
X49721429Y-32053571D01*
X49626191Y-32005952D01*
X94281667Y-151217381D02*
X94281667Y-151931667D01*
X94234047Y-152074524D01*
X94138809Y-152169762D01*
X93995952Y-152217381D01*
X93900714Y-152217381D01*
X94805476Y-152217381D02*
X94995952Y-152217381D01*
X95091191Y-152169762D01*
X95138810Y-152122143D01*
X95234048Y-151979286D01*
X95281667Y-151788810D01*
X95281667Y-151407857D01*
X95234048Y-151312619D01*
X95186429Y-151265000D01*
X95091191Y-151217381D01*
X94900714Y-151217381D01*
X94805476Y-151265000D01*
X94757857Y-151312619D01*
X94710238Y-151407857D01*
X94710238Y-151645952D01*
X94757857Y-151741190D01*
X94805476Y-151788810D01*
X94900714Y-151836429D01*
X95091191Y-151836429D01*
X95186429Y-151788810D01*
X95234048Y-151741190D01*
X95281667Y-151645952D01*
X81105477Y-151217381D02*
X81105477Y-151931667D01*
X81057857Y-152074524D01*
X80962619Y-152169762D01*
X80819762Y-152217381D01*
X80724524Y-152217381D01*
X82105477Y-152217381D02*
X81534048Y-152217381D01*
X81819762Y-152217381D02*
X81819762Y-151217381D01*
X81724524Y-151360238D01*
X81629286Y-151455476D01*
X81534048Y-151503095D01*
X82724524Y-151217381D02*
X82819763Y-151217381D01*
X82915001Y-151265000D01*
X82962620Y-151312619D01*
X83010239Y-151407857D01*
X83057858Y-151598333D01*
X83057858Y-151836429D01*
X83010239Y-152026905D01*
X82962620Y-152122143D01*
X82915001Y-152169762D01*
X82819763Y-152217381D01*
X82724524Y-152217381D01*
X82629286Y-152169762D01*
X82581667Y-152122143D01*
X82534048Y-152026905D01*
X82486429Y-151836429D01*
X82486429Y-151598333D01*
X82534048Y-151407857D01*
X82581667Y-151312619D01*
X82629286Y-151265000D01*
X82724524Y-151217381D01*
X102949477Y-93940381D02*
X102949477Y-94654667D01*
X102901857Y-94797524D01*
X102806619Y-94892762D01*
X102663762Y-94940381D01*
X102568524Y-94940381D01*
X103949477Y-94940381D02*
X103378048Y-94940381D01*
X103663762Y-94940381D02*
X103663762Y-93940381D01*
X103568524Y-94083238D01*
X103473286Y-94178476D01*
X103378048Y-94226095D01*
X104901858Y-94940381D02*
X104330429Y-94940381D01*
X104616143Y-94940381D02*
X104616143Y-93940381D01*
X104520905Y-94083238D01*
X104425667Y-94178476D01*
X104330429Y-94226095D01*
X108156477Y-112355381D02*
X108156477Y-113069667D01*
X108108857Y-113212524D01*
X108013619Y-113307762D01*
X107870762Y-113355381D01*
X107775524Y-113355381D01*
X109156477Y-113355381D02*
X108585048Y-113355381D01*
X108870762Y-113355381D02*
X108870762Y-112355381D01*
X108775524Y-112498238D01*
X108680286Y-112593476D01*
X108585048Y-112641095D01*
X109537429Y-112450619D02*
X109585048Y-112403000D01*
X109680286Y-112355381D01*
X109918382Y-112355381D01*
X110013620Y-112403000D01*
X110061239Y-112450619D01*
X110108858Y-112545857D01*
X110108858Y-112641095D01*
X110061239Y-112783952D01*
X109489810Y-113355381D01*
X110108858Y-113355381D01*
X18240477Y-96607381D02*
X18240477Y-97321667D01*
X18192857Y-97464524D01*
X18097619Y-97559762D01*
X17954762Y-97607381D01*
X17859524Y-97607381D01*
X19240477Y-97607381D02*
X18669048Y-97607381D01*
X18954762Y-97607381D02*
X18954762Y-96607381D01*
X18859524Y-96750238D01*
X18764286Y-96845476D01*
X18669048Y-96893095D01*
X19573810Y-96607381D02*
X20192858Y-96607381D01*
X19859524Y-96988333D01*
X20002382Y-96988333D01*
X20097620Y-97035952D01*
X20145239Y-97083571D01*
X20192858Y-97178810D01*
X20192858Y-97416905D01*
X20145239Y-97512143D01*
X20097620Y-97559762D01*
X20002382Y-97607381D01*
X19716667Y-97607381D01*
X19621429Y-97559762D01*
X19573810Y-97512143D01*
X18240477Y-86447381D02*
X18240477Y-87161667D01*
X18192857Y-87304524D01*
X18097619Y-87399762D01*
X17954762Y-87447381D01*
X17859524Y-87447381D01*
X19240477Y-87447381D02*
X18669048Y-87447381D01*
X18954762Y-87447381D02*
X18954762Y-86447381D01*
X18859524Y-86590238D01*
X18764286Y-86685476D01*
X18669048Y-86733095D01*
X20097620Y-86780714D02*
X20097620Y-87447381D01*
X19859524Y-86399762D02*
X19621429Y-87114048D01*
X20240477Y-87114048D01*
X106288541Y-50777881D02*
X106288541Y-50587404D01*
X106336160Y-50492166D01*
X106431398Y-50396928D01*
X106621874Y-50349309D01*
X106955208Y-50349309D01*
X107145684Y-50396928D01*
X107240922Y-50492166D01*
X107288541Y-50587404D01*
X107288541Y-50777881D01*
X107240922Y-50873119D01*
X107145684Y-50968357D01*
X106955208Y-51015976D01*
X106621874Y-51015976D01*
X106431398Y-50968357D01*
X106336160Y-50873119D01*
X106288541Y-50777881D01*
X106764731Y-49587404D02*
X106812350Y-49444547D01*
X106859970Y-49396928D01*
X106955208Y-49349309D01*
X107098065Y-49349309D01*
X107193303Y-49396928D01*
X107240922Y-49444547D01*
X107288541Y-49539785D01*
X107288541Y-49920738D01*
X106288541Y-49920738D01*
X106288541Y-49587404D01*
X106336160Y-49492166D01*
X106383779Y-49444547D01*
X106479017Y-49396928D01*
X106574255Y-49396928D01*
X106669493Y-49444547D01*
X106717112Y-49492166D01*
X106764731Y-49587404D01*
X106764731Y-49920738D01*
X107193303Y-48349309D02*
X107240922Y-48396928D01*
X107288541Y-48539785D01*
X107288541Y-48635023D01*
X107240922Y-48777881D01*
X107145684Y-48873119D01*
X107050446Y-48920738D01*
X106859970Y-48968357D01*
X106717112Y-48968357D01*
X106526636Y-48920738D01*
X106431398Y-48873119D01*
X106336160Y-48777881D01*
X106288541Y-48635023D01*
X106288541Y-48539785D01*
X106336160Y-48396928D01*
X106383779Y-48349309D01*
X107288541Y-47396928D02*
X107288541Y-47968357D01*
X107288541Y-47682643D02*
X106288541Y-47682643D01*
X106431398Y-47777881D01*
X106526636Y-47873119D01*
X106574255Y-47968357D01*
X103457619Y-91535238D02*
X103410000Y-91630476D01*
X103314762Y-91725714D01*
X103171905Y-91868571D01*
X103124286Y-91963810D01*
X103124286Y-92059048D01*
X103362381Y-92011429D02*
X103314762Y-92106667D01*
X103219524Y-92201905D01*
X103029048Y-92249524D01*
X102695714Y-92249524D01*
X102505238Y-92201905D01*
X102410000Y-92106667D01*
X102362381Y-92011429D01*
X102362381Y-91820952D01*
X102410000Y-91725714D01*
X102505238Y-91630476D01*
X102695714Y-91582857D01*
X103029048Y-91582857D01*
X103219524Y-91630476D01*
X103314762Y-91725714D01*
X103362381Y-91820952D01*
X103362381Y-92011429D01*
X103362381Y-90630476D02*
X103362381Y-91201905D01*
X103362381Y-90916191D02*
X102362381Y-90916191D01*
X102505238Y-91011429D01*
X102600476Y-91106667D01*
X102648095Y-91201905D01*
X88537619Y-104759238D02*
X88490000Y-104854476D01*
X88394762Y-104949714D01*
X88251905Y-105092571D01*
X88204286Y-105187810D01*
X88204286Y-105283048D01*
X88442381Y-105235429D02*
X88394762Y-105330667D01*
X88299524Y-105425905D01*
X88109048Y-105473524D01*
X87775714Y-105473524D01*
X87585238Y-105425905D01*
X87490000Y-105330667D01*
X87442381Y-105235429D01*
X87442381Y-105044952D01*
X87490000Y-104949714D01*
X87585238Y-104854476D01*
X87775714Y-104806857D01*
X88109048Y-104806857D01*
X88299524Y-104854476D01*
X88394762Y-104949714D01*
X88442381Y-105044952D01*
X88442381Y-105235429D01*
X87537619Y-104425905D02*
X87490000Y-104378286D01*
X87442381Y-104283048D01*
X87442381Y-104044952D01*
X87490000Y-103949714D01*
X87537619Y-103902095D01*
X87632857Y-103854476D01*
X87728095Y-103854476D01*
X87870952Y-103902095D01*
X88442381Y-104473524D01*
X88442381Y-103854476D01*
X72223334Y-19502381D02*
X71890000Y-19026190D01*
X71651905Y-19502381D02*
X71651905Y-18502381D01*
X72032858Y-18502381D01*
X72128096Y-18550000D01*
X72175715Y-18597619D01*
X72223334Y-18692857D01*
X72223334Y-18835714D01*
X72175715Y-18930952D01*
X72128096Y-18978571D01*
X72032858Y-19026190D01*
X71651905Y-19026190D01*
X73175715Y-19502381D02*
X72604286Y-19502381D01*
X72890000Y-19502381D02*
X72890000Y-18502381D01*
X72794762Y-18645238D01*
X72699524Y-18740476D01*
X72604286Y-18788095D01*
X109241334Y-94050381D02*
X108908000Y-93574190D01*
X108669905Y-94050381D02*
X108669905Y-93050381D01*
X109050858Y-93050381D01*
X109146096Y-93098000D01*
X109193715Y-93145619D01*
X109241334Y-93240857D01*
X109241334Y-93383714D01*
X109193715Y-93478952D01*
X109146096Y-93526571D01*
X109050858Y-93574190D01*
X108669905Y-93574190D01*
X109622286Y-93145619D02*
X109669905Y-93098000D01*
X109765143Y-93050381D01*
X110003239Y-93050381D01*
X110098477Y-93098000D01*
X110146096Y-93145619D01*
X110193715Y-93240857D01*
X110193715Y-93336095D01*
X110146096Y-93478952D01*
X109574667Y-94050381D01*
X110193715Y-94050381D01*
X102815381Y-88111666D02*
X102339190Y-88445000D01*
X102815381Y-88683095D02*
X101815381Y-88683095D01*
X101815381Y-88302142D01*
X101863000Y-88206904D01*
X101910619Y-88159285D01*
X102005857Y-88111666D01*
X102148714Y-88111666D01*
X102243952Y-88159285D01*
X102291571Y-88206904D01*
X102339190Y-88302142D01*
X102339190Y-88683095D01*
X101815381Y-87778333D02*
X101815381Y-87159285D01*
X102196333Y-87492619D01*
X102196333Y-87349761D01*
X102243952Y-87254523D01*
X102291571Y-87206904D01*
X102386810Y-87159285D01*
X102624905Y-87159285D01*
X102720143Y-87206904D01*
X102767762Y-87254523D01*
X102815381Y-87349761D01*
X102815381Y-87635476D01*
X102767762Y-87730714D01*
X102720143Y-87778333D01*
X97496334Y-91831381D02*
X97163000Y-91355190D01*
X96924905Y-91831381D02*
X96924905Y-90831381D01*
X97305858Y-90831381D01*
X97401096Y-90879000D01*
X97448715Y-90926619D01*
X97496334Y-91021857D01*
X97496334Y-91164714D01*
X97448715Y-91259952D01*
X97401096Y-91307571D01*
X97305858Y-91355190D01*
X96924905Y-91355190D01*
X98353477Y-91164714D02*
X98353477Y-91831381D01*
X98115381Y-90783762D02*
X97877286Y-91498048D01*
X98496334Y-91498048D01*
X78700334Y-75891381D02*
X78367000Y-75415190D01*
X78128905Y-75891381D02*
X78128905Y-74891381D01*
X78509858Y-74891381D01*
X78605096Y-74939000D01*
X78652715Y-74986619D01*
X78700334Y-75081857D01*
X78700334Y-75224714D01*
X78652715Y-75319952D01*
X78605096Y-75367571D01*
X78509858Y-75415190D01*
X78128905Y-75415190D01*
X79033667Y-74891381D02*
X79700334Y-74891381D01*
X79271762Y-75891381D01*
X42725143Y-134692381D02*
X42391809Y-134216190D01*
X42153714Y-134692381D02*
X42153714Y-133692381D01*
X42534667Y-133692381D01*
X42629905Y-133740000D01*
X42677524Y-133787619D01*
X42725143Y-133882857D01*
X42725143Y-134025714D01*
X42677524Y-134120952D01*
X42629905Y-134168571D01*
X42534667Y-134216190D01*
X42153714Y-134216190D01*
X43677524Y-134692381D02*
X43106095Y-134692381D01*
X43391809Y-134692381D02*
X43391809Y-133692381D01*
X43296571Y-133835238D01*
X43201333Y-133930476D01*
X43106095Y-133978095D01*
X44010857Y-133692381D02*
X44629905Y-133692381D01*
X44296571Y-134073333D01*
X44439429Y-134073333D01*
X44534667Y-134120952D01*
X44582286Y-134168571D01*
X44629905Y-134263810D01*
X44629905Y-134501905D01*
X44582286Y-134597143D01*
X44534667Y-134644762D01*
X44439429Y-134692381D01*
X44153714Y-134692381D01*
X44058476Y-134644762D01*
X44010857Y-134597143D01*
X99240143Y-106243381D02*
X98906809Y-105767190D01*
X98668714Y-106243381D02*
X98668714Y-105243381D01*
X99049667Y-105243381D01*
X99144905Y-105291000D01*
X99192524Y-105338619D01*
X99240143Y-105433857D01*
X99240143Y-105576714D01*
X99192524Y-105671952D01*
X99144905Y-105719571D01*
X99049667Y-105767190D01*
X98668714Y-105767190D01*
X100192524Y-106243381D02*
X99621095Y-106243381D01*
X99906809Y-106243381D02*
X99906809Y-105243381D01*
X99811571Y-105386238D01*
X99716333Y-105481476D01*
X99621095Y-105529095D01*
X100763952Y-105671952D02*
X100668714Y-105624333D01*
X100621095Y-105576714D01*
X100573476Y-105481476D01*
X100573476Y-105433857D01*
X100621095Y-105338619D01*
X100668714Y-105291000D01*
X100763952Y-105243381D01*
X100954429Y-105243381D01*
X101049667Y-105291000D01*
X101097286Y-105338619D01*
X101144905Y-105433857D01*
X101144905Y-105481476D01*
X101097286Y-105576714D01*
X101049667Y-105624333D01*
X100954429Y-105671952D01*
X100763952Y-105671952D01*
X100668714Y-105719571D01*
X100621095Y-105767190D01*
X100573476Y-105862429D01*
X100573476Y-106052905D01*
X100621095Y-106148143D01*
X100668714Y-106195762D01*
X100763952Y-106243381D01*
X100954429Y-106243381D01*
X101049667Y-106195762D01*
X101097286Y-106148143D01*
X101144905Y-106052905D01*
X101144905Y-105862429D01*
X101097286Y-105767190D01*
X101049667Y-105719571D01*
X100954429Y-105671952D01*
X87495143Y-95321381D02*
X87161809Y-94845190D01*
X86923714Y-95321381D02*
X86923714Y-94321381D01*
X87304667Y-94321381D01*
X87399905Y-94369000D01*
X87447524Y-94416619D01*
X87495143Y-94511857D01*
X87495143Y-94654714D01*
X87447524Y-94749952D01*
X87399905Y-94797571D01*
X87304667Y-94845190D01*
X86923714Y-94845190D01*
X88447524Y-95321381D02*
X87876095Y-95321381D01*
X88161809Y-95321381D02*
X88161809Y-94321381D01*
X88066571Y-94464238D01*
X87971333Y-94559476D01*
X87876095Y-94607095D01*
X88923714Y-95321381D02*
X89114190Y-95321381D01*
X89209429Y-95273762D01*
X89257048Y-95226143D01*
X89352286Y-95083286D01*
X89399905Y-94892810D01*
X89399905Y-94511857D01*
X89352286Y-94416619D01*
X89304667Y-94369000D01*
X89209429Y-94321381D01*
X89018952Y-94321381D01*
X88923714Y-94369000D01*
X88876095Y-94416619D01*
X88828476Y-94511857D01*
X88828476Y-94749952D01*
X88876095Y-94845190D01*
X88923714Y-94892810D01*
X89018952Y-94940429D01*
X89209429Y-94940429D01*
X89304667Y-94892810D01*
X89352286Y-94845190D01*
X89399905Y-94749952D01*
X94099143Y-106243381D02*
X93765809Y-105767190D01*
X93527714Y-106243381D02*
X93527714Y-105243381D01*
X93908667Y-105243381D01*
X94003905Y-105291000D01*
X94051524Y-105338619D01*
X94099143Y-105433857D01*
X94099143Y-105576714D01*
X94051524Y-105671952D01*
X94003905Y-105719571D01*
X93908667Y-105767190D01*
X93527714Y-105767190D01*
X94480095Y-105338619D02*
X94527714Y-105291000D01*
X94622952Y-105243381D01*
X94861048Y-105243381D01*
X94956286Y-105291000D01*
X95003905Y-105338619D01*
X95051524Y-105433857D01*
X95051524Y-105529095D01*
X95003905Y-105671952D01*
X94432476Y-106243381D01*
X95051524Y-106243381D01*
X95670571Y-105243381D02*
X95765810Y-105243381D01*
X95861048Y-105291000D01*
X95908667Y-105338619D01*
X95956286Y-105433857D01*
X96003905Y-105624333D01*
X96003905Y-105862429D01*
X95956286Y-106052905D01*
X95908667Y-106148143D01*
X95861048Y-106195762D01*
X95765810Y-106243381D01*
X95670571Y-106243381D01*
X95575333Y-106195762D01*
X95527714Y-106148143D01*
X95480095Y-106052905D01*
X95432476Y-105862429D01*
X95432476Y-105624333D01*
X95480095Y-105433857D01*
X95527714Y-105338619D01*
X95575333Y-105291000D01*
X95670571Y-105243381D01*
X46667143Y-137993381D02*
X46333809Y-137517190D01*
X46095714Y-137993381D02*
X46095714Y-136993381D01*
X46476667Y-136993381D01*
X46571905Y-137041000D01*
X46619524Y-137088619D01*
X46667143Y-137183857D01*
X46667143Y-137326714D01*
X46619524Y-137421952D01*
X46571905Y-137469571D01*
X46476667Y-137517190D01*
X46095714Y-137517190D01*
X47000476Y-136993381D02*
X47619524Y-136993381D01*
X47286190Y-137374333D01*
X47429048Y-137374333D01*
X47524286Y-137421952D01*
X47571905Y-137469571D01*
X47619524Y-137564810D01*
X47619524Y-137802905D01*
X47571905Y-137898143D01*
X47524286Y-137945762D01*
X47429048Y-137993381D01*
X47143333Y-137993381D01*
X47048095Y-137945762D01*
X47000476Y-137898143D01*
X48524286Y-136993381D02*
X48048095Y-136993381D01*
X48000476Y-137469571D01*
X48048095Y-137421952D01*
X48143333Y-137374333D01*
X48381429Y-137374333D01*
X48476667Y-137421952D01*
X48524286Y-137469571D01*
X48571905Y-137564810D01*
X48571905Y-137802905D01*
X48524286Y-137898143D01*
X48476667Y-137945762D01*
X48381429Y-137993381D01*
X48143333Y-137993381D01*
X48048095Y-137945762D01*
X48000476Y-137898143D01*
X42730143Y-113991381D02*
X42396809Y-113515190D01*
X42158714Y-113991381D02*
X42158714Y-112991381D01*
X42539667Y-112991381D01*
X42634905Y-113039000D01*
X42682524Y-113086619D01*
X42730143Y-113181857D01*
X42730143Y-113324714D01*
X42682524Y-113419952D01*
X42634905Y-113467571D01*
X42539667Y-113515190D01*
X42158714Y-113515190D01*
X43063476Y-112991381D02*
X43682524Y-112991381D01*
X43349190Y-113372333D01*
X43492048Y-113372333D01*
X43587286Y-113419952D01*
X43634905Y-113467571D01*
X43682524Y-113562810D01*
X43682524Y-113800905D01*
X43634905Y-113896143D01*
X43587286Y-113943762D01*
X43492048Y-113991381D01*
X43206333Y-113991381D01*
X43111095Y-113943762D01*
X43063476Y-113896143D01*
X44539667Y-112991381D02*
X44349190Y-112991381D01*
X44253952Y-113039000D01*
X44206333Y-113086619D01*
X44111095Y-113229476D01*
X44063476Y-113419952D01*
X44063476Y-113800905D01*
X44111095Y-113896143D01*
X44158714Y-113943762D01*
X44253952Y-113991381D01*
X44444429Y-113991381D01*
X44539667Y-113943762D01*
X44587286Y-113896143D01*
X44634905Y-113800905D01*
X44634905Y-113562810D01*
X44587286Y-113467571D01*
X44539667Y-113419952D01*
X44444429Y-113372333D01*
X44253952Y-113372333D01*
X44158714Y-113419952D01*
X44111095Y-113467571D01*
X44063476Y-113562810D01*
X46667143Y-113991381D02*
X46333809Y-113515190D01*
X46095714Y-113991381D02*
X46095714Y-112991381D01*
X46476667Y-112991381D01*
X46571905Y-113039000D01*
X46619524Y-113086619D01*
X46667143Y-113181857D01*
X46667143Y-113324714D01*
X46619524Y-113419952D01*
X46571905Y-113467571D01*
X46476667Y-113515190D01*
X46095714Y-113515190D01*
X47000476Y-112991381D02*
X47619524Y-112991381D01*
X47286190Y-113372333D01*
X47429048Y-113372333D01*
X47524286Y-113419952D01*
X47571905Y-113467571D01*
X47619524Y-113562810D01*
X47619524Y-113800905D01*
X47571905Y-113896143D01*
X47524286Y-113943762D01*
X47429048Y-113991381D01*
X47143333Y-113991381D01*
X47048095Y-113943762D01*
X47000476Y-113896143D01*
X47952857Y-112991381D02*
X48619524Y-112991381D01*
X48190952Y-113991381D01*
X49649143Y-131770381D02*
X49315809Y-131294190D01*
X49077714Y-131770381D02*
X49077714Y-130770381D01*
X49458667Y-130770381D01*
X49553905Y-130818000D01*
X49601524Y-130865619D01*
X49649143Y-130960857D01*
X49649143Y-131103714D01*
X49601524Y-131198952D01*
X49553905Y-131246571D01*
X49458667Y-131294190D01*
X49077714Y-131294190D01*
X49982476Y-130770381D02*
X50601524Y-130770381D01*
X50268190Y-131151333D01*
X50411048Y-131151333D01*
X50506286Y-131198952D01*
X50553905Y-131246571D01*
X50601524Y-131341810D01*
X50601524Y-131579905D01*
X50553905Y-131675143D01*
X50506286Y-131722762D01*
X50411048Y-131770381D01*
X50125333Y-131770381D01*
X50030095Y-131722762D01*
X49982476Y-131675143D01*
X51172952Y-131198952D02*
X51077714Y-131151333D01*
X51030095Y-131103714D01*
X50982476Y-131008476D01*
X50982476Y-130960857D01*
X51030095Y-130865619D01*
X51077714Y-130818000D01*
X51172952Y-130770381D01*
X51363429Y-130770381D01*
X51458667Y-130818000D01*
X51506286Y-130865619D01*
X51553905Y-130960857D01*
X51553905Y-131008476D01*
X51506286Y-131103714D01*
X51458667Y-131151333D01*
X51363429Y-131198952D01*
X51172952Y-131198952D01*
X51077714Y-131246571D01*
X51030095Y-131294190D01*
X50982476Y-131389429D01*
X50982476Y-131579905D01*
X51030095Y-131675143D01*
X51077714Y-131722762D01*
X51172952Y-131770381D01*
X51363429Y-131770381D01*
X51458667Y-131722762D01*
X51506286Y-131675143D01*
X51553905Y-131579905D01*
X51553905Y-131389429D01*
X51506286Y-131294190D01*
X51458667Y-131246571D01*
X51363429Y-131198952D01*
X46667143Y-117547381D02*
X46333809Y-117071190D01*
X46095714Y-117547381D02*
X46095714Y-116547381D01*
X46476667Y-116547381D01*
X46571905Y-116595000D01*
X46619524Y-116642619D01*
X46667143Y-116737857D01*
X46667143Y-116880714D01*
X46619524Y-116975952D01*
X46571905Y-117023571D01*
X46476667Y-117071190D01*
X46095714Y-117071190D01*
X47000476Y-116547381D02*
X47619524Y-116547381D01*
X47286190Y-116928333D01*
X47429048Y-116928333D01*
X47524286Y-116975952D01*
X47571905Y-117023571D01*
X47619524Y-117118810D01*
X47619524Y-117356905D01*
X47571905Y-117452143D01*
X47524286Y-117499762D01*
X47429048Y-117547381D01*
X47143333Y-117547381D01*
X47048095Y-117499762D01*
X47000476Y-117452143D01*
X48095714Y-117547381D02*
X48286190Y-117547381D01*
X48381429Y-117499762D01*
X48429048Y-117452143D01*
X48524286Y-117309286D01*
X48571905Y-117118810D01*
X48571905Y-116737857D01*
X48524286Y-116642619D01*
X48476667Y-116595000D01*
X48381429Y-116547381D01*
X48190952Y-116547381D01*
X48095714Y-116595000D01*
X48048095Y-116642619D01*
X48000476Y-116737857D01*
X48000476Y-116975952D01*
X48048095Y-117071190D01*
X48095714Y-117118810D01*
X48190952Y-117166429D01*
X48381429Y-117166429D01*
X48476667Y-117118810D01*
X48524286Y-117071190D01*
X48571905Y-116975952D01*
X42796444Y-129154181D02*
X42463110Y-128677990D01*
X42225015Y-129154181D02*
X42225015Y-128154181D01*
X42605968Y-128154181D01*
X42701206Y-128201800D01*
X42748825Y-128249419D01*
X42796444Y-128344657D01*
X42796444Y-128487514D01*
X42748825Y-128582752D01*
X42701206Y-128630371D01*
X42605968Y-128677990D01*
X42225015Y-128677990D01*
X43653587Y-128487514D02*
X43653587Y-129154181D01*
X43415491Y-128106562D02*
X43177396Y-128820848D01*
X43796444Y-128820848D01*
X44129777Y-128249419D02*
X44177396Y-128201800D01*
X44272634Y-128154181D01*
X44510730Y-128154181D01*
X44605968Y-128201800D01*
X44653587Y-128249419D01*
X44701206Y-128344657D01*
X44701206Y-128439895D01*
X44653587Y-128582752D01*
X44082158Y-129154181D01*
X44701206Y-129154181D01*
X42765743Y-122169181D02*
X42432409Y-121692990D01*
X42194314Y-122169181D02*
X42194314Y-121169181D01*
X42575267Y-121169181D01*
X42670505Y-121216800D01*
X42718124Y-121264419D01*
X42765743Y-121359657D01*
X42765743Y-121502514D01*
X42718124Y-121597752D01*
X42670505Y-121645371D01*
X42575267Y-121692990D01*
X42194314Y-121692990D01*
X43622886Y-121502514D02*
X43622886Y-122169181D01*
X43384790Y-121121562D02*
X43146695Y-121835848D01*
X43765743Y-121835848D01*
X44051457Y-121169181D02*
X44670505Y-121169181D01*
X44337171Y-121550133D01*
X44480029Y-121550133D01*
X44575267Y-121597752D01*
X44622886Y-121645371D01*
X44670505Y-121740610D01*
X44670505Y-121978705D01*
X44622886Y-122073943D01*
X44575267Y-122121562D01*
X44480029Y-122169181D01*
X44194314Y-122169181D01*
X44099076Y-122121562D01*
X44051457Y-122073943D01*
X87233286Y-81291014D02*
X87376143Y-81338633D01*
X87614239Y-81338633D01*
X87709477Y-81291014D01*
X87757096Y-81243395D01*
X87804715Y-81148157D01*
X87804715Y-81052919D01*
X87757096Y-80957681D01*
X87709477Y-80910062D01*
X87614239Y-80862442D01*
X87423762Y-80814823D01*
X87328524Y-80767204D01*
X87280905Y-80719585D01*
X87233286Y-80624347D01*
X87233286Y-80529109D01*
X87280905Y-80433871D01*
X87328524Y-80386252D01*
X87423762Y-80338633D01*
X87661858Y-80338633D01*
X87804715Y-80386252D01*
X88233286Y-81338633D02*
X88233286Y-80338633D01*
X88804715Y-81338633D01*
X88804715Y-80338633D01*
X89804715Y-81338633D02*
X89233286Y-81338633D01*
X89519000Y-81338633D02*
X89519000Y-80338633D01*
X89423762Y-80481490D01*
X89328524Y-80576728D01*
X89233286Y-80624347D01*
X78978286Y-83196014D02*
X79121143Y-83243633D01*
X79359239Y-83243633D01*
X79454477Y-83196014D01*
X79502096Y-83148395D01*
X79549715Y-83053157D01*
X79549715Y-82957919D01*
X79502096Y-82862681D01*
X79454477Y-82815062D01*
X79359239Y-82767442D01*
X79168762Y-82719823D01*
X79073524Y-82672204D01*
X79025905Y-82624585D01*
X78978286Y-82529347D01*
X78978286Y-82434109D01*
X79025905Y-82338871D01*
X79073524Y-82291252D01*
X79168762Y-82243633D01*
X79406858Y-82243633D01*
X79549715Y-82291252D01*
X79978286Y-83243633D02*
X79978286Y-82243633D01*
X80549715Y-83243633D01*
X80549715Y-82243633D01*
X80978286Y-82338871D02*
X81025905Y-82291252D01*
X81121143Y-82243633D01*
X81359239Y-82243633D01*
X81454477Y-82291252D01*
X81502096Y-82338871D01*
X81549715Y-82434109D01*
X81549715Y-82529347D01*
X81502096Y-82672204D01*
X80930667Y-83243633D01*
X81549715Y-83243633D01*
X71143762Y-83441966D02*
X71191381Y-83299109D01*
X71191381Y-83061013D01*
X71143762Y-82965775D01*
X71096143Y-82918156D01*
X71000905Y-82870537D01*
X70905667Y-82870537D01*
X70810429Y-82918156D01*
X70762810Y-82965775D01*
X70715190Y-83061013D01*
X70667571Y-83251490D01*
X70619952Y-83346728D01*
X70572333Y-83394347D01*
X70477095Y-83441966D01*
X70381857Y-83441966D01*
X70286619Y-83394347D01*
X70239000Y-83346728D01*
X70191381Y-83251490D01*
X70191381Y-83013394D01*
X70239000Y-82870537D01*
X71191381Y-82441966D02*
X70191381Y-82441966D01*
X71191381Y-81870537D01*
X70191381Y-81870537D01*
X70191381Y-81489585D02*
X70191381Y-80870537D01*
X70572333Y-81203871D01*
X70572333Y-81061013D01*
X70619952Y-80965775D01*
X70667571Y-80918156D01*
X70762810Y-80870537D01*
X71000905Y-80870537D01*
X71096143Y-80918156D01*
X71143762Y-80965775D01*
X71191381Y-81061013D01*
X71191381Y-81346728D01*
X71143762Y-81441966D01*
X71096143Y-81489585D01*
X66698762Y-83483633D02*
X66746381Y-83340776D01*
X66746381Y-83102680D01*
X66698762Y-83007442D01*
X66651143Y-82959823D01*
X66555905Y-82912204D01*
X66460667Y-82912204D01*
X66365429Y-82959823D01*
X66317810Y-83007442D01*
X66270190Y-83102680D01*
X66222571Y-83293157D01*
X66174952Y-83388395D01*
X66127333Y-83436014D01*
X66032095Y-83483633D01*
X65936857Y-83483633D01*
X65841619Y-83436014D01*
X65794000Y-83388395D01*
X65746381Y-83293157D01*
X65746381Y-83055061D01*
X65794000Y-82912204D01*
X66746381Y-82483633D02*
X65746381Y-82483633D01*
X66746381Y-81912204D01*
X65746381Y-81912204D01*
X66079714Y-81007442D02*
X66746381Y-81007442D01*
X65698762Y-81245538D02*
X66413048Y-81483633D01*
X66413048Y-80864585D01*
X75969762Y-105131704D02*
X76017381Y-104988847D01*
X76017381Y-104750751D01*
X75969762Y-104655513D01*
X75922143Y-104607894D01*
X75826905Y-104560275D01*
X75731667Y-104560275D01*
X75636429Y-104607894D01*
X75588810Y-104655513D01*
X75541190Y-104750751D01*
X75493571Y-104941228D01*
X75445952Y-105036466D01*
X75398333Y-105084085D01*
X75303095Y-105131704D01*
X75207857Y-105131704D01*
X75112619Y-105084085D01*
X75065000Y-105036466D01*
X75017381Y-104941228D01*
X75017381Y-104703132D01*
X75065000Y-104560275D01*
X76017381Y-104131704D02*
X75017381Y-104131704D01*
X76017381Y-103560275D01*
X75017381Y-103560275D01*
X75017381Y-102607894D02*
X75017381Y-103084085D01*
X75493571Y-103131704D01*
X75445952Y-103084085D01*
X75398333Y-102988847D01*
X75398333Y-102750751D01*
X75445952Y-102655513D01*
X75493571Y-102607894D01*
X75588810Y-102560275D01*
X75826905Y-102560275D01*
X75922143Y-102607894D01*
X75969762Y-102655513D01*
X76017381Y-102750751D01*
X76017381Y-102988847D01*
X75969762Y-103084085D01*
X75922143Y-103131704D01*
X42082286Y-129926381D02*
X42653715Y-129926381D01*
X42368000Y-130926381D02*
X42368000Y-129926381D01*
X42987048Y-130926381D02*
X42987048Y-129926381D01*
X42987048Y-130402571D02*
X43558477Y-130402571D01*
X43558477Y-130926381D02*
X43558477Y-129926381D01*
X44558477Y-130926381D02*
X43987048Y-130926381D01*
X44272762Y-130926381D02*
X44272762Y-129926381D01*
X44177524Y-130069238D01*
X44082286Y-130164476D01*
X43987048Y-130212095D01*
X42082286Y-116337381D02*
X42653715Y-116337381D01*
X42368000Y-117337381D02*
X42368000Y-116337381D01*
X42987048Y-117337381D02*
X42987048Y-116337381D01*
X42987048Y-116813571D02*
X43558477Y-116813571D01*
X43558477Y-117337381D02*
X43558477Y-116337381D01*
X43987048Y-116432619D02*
X44034667Y-116385000D01*
X44129905Y-116337381D01*
X44368001Y-116337381D01*
X44463239Y-116385000D01*
X44510858Y-116432619D01*
X44558477Y-116527857D01*
X44558477Y-116623095D01*
X44510858Y-116765952D01*
X43939429Y-117337381D01*
X44558477Y-117337381D01*
X96901095Y-78065381D02*
X96901095Y-78874905D01*
X96948714Y-78970143D01*
X96996333Y-79017762D01*
X97091571Y-79065381D01*
X97282048Y-79065381D01*
X97377286Y-79017762D01*
X97424905Y-78970143D01*
X97472524Y-78874905D01*
X97472524Y-78065381D01*
X97901095Y-78160619D02*
X97948714Y-78113000D01*
X98043952Y-78065381D01*
X98282048Y-78065381D01*
X98377286Y-78113000D01*
X98424905Y-78160619D01*
X98472524Y-78255857D01*
X98472524Y-78351095D01*
X98424905Y-78493952D01*
X97853476Y-79065381D01*
X98472524Y-79065381D01*
X92583095Y-97496381D02*
X92583095Y-98305905D01*
X92630714Y-98401143D01*
X92678333Y-98448762D01*
X92773571Y-98496381D01*
X92964048Y-98496381D01*
X93059286Y-98448762D01*
X93106905Y-98401143D01*
X93154524Y-98305905D01*
X93154524Y-97496381D01*
X94059286Y-97829714D02*
X94059286Y-98496381D01*
X93821190Y-97448762D02*
X93583095Y-98163048D01*
X94202143Y-98163048D01*
X56355343Y-119329629D02*
X56355343Y-120139153D01*
X56402962Y-120234391D01*
X56450581Y-120282010D01*
X56545819Y-120329629D01*
X56736296Y-120329629D01*
X56831534Y-120282010D01*
X56879153Y-120234391D01*
X56926772Y-120139153D01*
X56926772Y-119329629D01*
X57307724Y-119329629D02*
X57974391Y-119329629D01*
X57545819Y-120329629D01*
X30409381Y-135243905D02*
X31218905Y-135243905D01*
X31314143Y-135196286D01*
X31361762Y-135148667D01*
X31409381Y-135053429D01*
X31409381Y-134862952D01*
X31361762Y-134767714D01*
X31314143Y-134720095D01*
X31218905Y-134672476D01*
X30409381Y-134672476D01*
X30837952Y-134053429D02*
X30790333Y-134148667D01*
X30742714Y-134196286D01*
X30647476Y-134243905D01*
X30599857Y-134243905D01*
X30504619Y-134196286D01*
X30457000Y-134148667D01*
X30409381Y-134053429D01*
X30409381Y-133862952D01*
X30457000Y-133767714D01*
X30504619Y-133720095D01*
X30599857Y-133672476D01*
X30647476Y-133672476D01*
X30742714Y-133720095D01*
X30790333Y-133767714D01*
X30837952Y-133862952D01*
X30837952Y-134053429D01*
X30885571Y-134148667D01*
X30933190Y-134196286D01*
X31028429Y-134243905D01*
X31218905Y-134243905D01*
X31314143Y-134196286D01*
X31361762Y-134148667D01*
X31409381Y-134053429D01*
X31409381Y-133862952D01*
X31361762Y-133767714D01*
X31314143Y-133720095D01*
X31218905Y-133672476D01*
X31028429Y-133672476D01*
X30933190Y-133720095D01*
X30885571Y-133767714D01*
X30837952Y-133862952D01*
X34615381Y-116966905D02*
X35424905Y-116966905D01*
X35520143Y-116919286D01*
X35567762Y-116871667D01*
X35615381Y-116776429D01*
X35615381Y-116585952D01*
X35567762Y-116490714D01*
X35520143Y-116443095D01*
X35424905Y-116395476D01*
X34615381Y-116395476D01*
X35615381Y-115871667D02*
X35615381Y-115681191D01*
X35567762Y-115585952D01*
X35520143Y-115538333D01*
X35377286Y-115443095D01*
X35186810Y-115395476D01*
X34805857Y-115395476D01*
X34710619Y-115443095D01*
X34663000Y-115490714D01*
X34615381Y-115585952D01*
X34615381Y-115776429D01*
X34663000Y-115871667D01*
X34710619Y-115919286D01*
X34805857Y-115966905D01*
X35043952Y-115966905D01*
X35139190Y-115919286D01*
X35186810Y-115871667D01*
X35234429Y-115776429D01*
X35234429Y-115585952D01*
X35186810Y-115490714D01*
X35139190Y-115443095D01*
X35043952Y-115395476D01*
X107267477Y-89793381D02*
X107267477Y-90507667D01*
X107219857Y-90650524D01*
X107124619Y-90745762D01*
X106981762Y-90793381D01*
X106886524Y-90793381D01*
X108267477Y-90793381D02*
X107696048Y-90793381D01*
X107981762Y-90793381D02*
X107981762Y-89793381D01*
X107886524Y-89936238D01*
X107791286Y-90031476D01*
X107696048Y-90079095D01*
X109172239Y-89793381D02*
X108696048Y-89793381D01*
X108648429Y-90269571D01*
X108696048Y-90221952D01*
X108791286Y-90174333D01*
X109029382Y-90174333D01*
X109124620Y-90221952D01*
X109172239Y-90269571D01*
X109219858Y-90364810D01*
X109219858Y-90602905D01*
X109172239Y-90698143D01*
X109124620Y-90745762D01*
X109029382Y-90793381D01*
X108791286Y-90793381D01*
X108696048Y-90745762D01*
X108648429Y-90698143D01*
M02*
